solid no_name
facet normal 0.130526192220052 0.99144486137381 0.0
   outer loop
      vertex 1.53080849893419e-15 25.0 15.0
      vertex 6.47047612756302 24.1481456572267 0.0
      vertex 1.53080849893419e-15 25.0 0.0
   endloop
endfacet
facet normal 0.130526192220052 0.99144486137381 0.0
   outer loop
      vertex 6.47047612756302 24.1481456572267 0.0
      vertex 1.53080849893419e-15 25.0 15.0
      vertex 6.47047612756302 24.1481456572267 15.0
   endloop
endfacet
facet normal -0.130526192220051 0.991444861373811 0.0
   outer loop
      vertex -6.47047612756302 24.1481456572267 15.0
      vertex 1.53080849893419e-15 25.0 0.0
      vertex -6.47047612756302 24.1481456572267 0.0
   endloop
endfacet
facet normal -0.130526192220051 0.991444861373811 0.0
   outer loop
      vertex 1.53080849893419e-15 25.0 0.0
      vertex -6.47047612756302 24.1481456572267 15.0
      vertex 1.53080849893419e-15 25.0 15.0
   endloop
endfacet
facet normal -0.38268343236509 0.923879532511287 0.0
   outer loop
      vertex -12.5 21.650635094611 15.0
      vertex -6.47047612756302 24.1481456572267 0.0
      vertex -12.5 21.650635094611 0.0
   endloop
endfacet
facet normal -0.38268343236509 0.923879532511287 0.0
   outer loop
      vertex -6.47047612756302 24.1481456572267 0.0
      vertex -12.5 21.650635094611 15.0
      vertex -6.47047612756302 24.1481456572267 15.0
   endloop
endfacet
facet normal -0.0 -0.0 1.0
   outer loop
      vertex -24.1481456572267 -6.47047612756301 15.0
      vertex -24.1481456572267 6.47047612756303 15.0
      vertex -25.0 3.06161699786838e-15 15.0
   endloop
endfacet
facet normal -0.0 -0.0 1.0
   outer loop
      vertex -24.1481456572267 6.47047612756303 15.0
      vertex -24.1481456572267 -6.47047612756301 15.0
      vertex -21.650635094611 -12.5 15.0
   endloop
endfacet
facet normal -0.0 -0.0 1.0
   outer loop
      vertex -24.1481456572267 6.47047612756303 15.0
      vertex -21.650635094611 -12.5 15.0
      vertex -21.650635094611 12.5 15.0
   endloop
endfacet
facet normal -0.0 -0.0 1.0
   outer loop
      vertex -21.650635094611 12.5 15.0
      vertex -21.650635094611 -12.5 15.0
      vertex -17.6776695296637 -17.6776695296637 15.0
   endloop
endfacet
facet normal -0.0 -0.0 1.0
   outer loop
      vertex -21.650635094611 12.5 15.0
      vertex -17.6776695296637 -17.6776695296637 15.0
      vertex -17.6776695296637 17.6776695296637 15.0
   endloop
endfacet
facet normal -0.0 -0.0 1.0
   outer loop
      vertex -17.6776695296637 17.6776695296637 15.0
      vertex -17.6776695296637 -17.6776695296637 15.0
      vertex -12.5 -21.650635094611 15.0
   endloop
endfacet
facet normal -0.0 -0.0 1.0
   outer loop
      vertex -17.6776695296637 17.6776695296637 15.0
      vertex -12.5 -21.650635094611 15.0
      vertex -12.5 21.650635094611 15.0
   endloop
endfacet
facet normal -0.0 -0.0 1.0
   outer loop
      vertex -12.5 21.650635094611 15.0
      vertex -12.5 -21.650635094611 15.0
      vertex -6.47047612756304 -24.1481456572267 15.0
   endloop
endfacet
facet normal -0.0 -0.0 1.0
   outer loop
      vertex -12.5 21.650635094611 15.0
      vertex -6.47047612756304 -24.1481456572267 15.0
      vertex -7.5 9.18485099360515e-16 15.0
   endloop
endfacet
facet normal -0.0 -0.0 1.0
   outer loop
      vertex -7.5 9.18485099360515e-16 15.0
      vertex -6.47047612756304 -24.1481456572267 15.0
      vertex -7.24444369716801 -1.9411428382689 15.0
   endloop
endfacet
facet normal -0.0 -0.0 1.0
   outer loop
      vertex -7.24444369716801 -1.9411428382689 15.0
      vertex -6.47047612756304 -24.1481456572267 15.0
      vertex -6.49519052838329 -3.75 15.0
   endloop
endfacet
facet normal -0.0 -0.0 1.0
   outer loop
      vertex -6.49519052838329 -3.75 15.0
      vertex -6.47047612756304 -24.1481456572267 15.0
      vertex -5.30330085889911 -5.3033008588991 15.0
   endloop
endfacet
facet normal -0.0 -0.0 1.0
   outer loop
      vertex -5.30330085889911 -5.3033008588991 15.0
      vertex -6.47047612756304 -24.1481456572267 15.0
      vertex -4.59242549680257e-15 -25.0 15.0
   endloop
endfacet
facet normal -0.0 -0.0 1.0
   outer loop
      vertex -5.30330085889911 -5.3033008588991 15.0
      vertex -4.59242549680257e-15 -25.0 15.0
      vertex -3.75 -6.49519052838329 15.0
   endloop
endfacet
facet normal -0.0 -0.0 1.0
   outer loop
      vertex -3.75 -6.49519052838329 15.0
      vertex -4.59242549680257e-15 -25.0 15.0
      vertex -1.94114283826891 -7.24444369716801 15.0
   endloop
endfacet
facet normal -0.0 -0.0 1.0
   outer loop
      vertex -1.94114283826891 -7.24444369716801 15.0
      vertex -4.59242549680257e-15 -25.0 15.0
      vertex -1.37772764904077e-15 -7.5 15.0
   endloop
endfacet
facet normal -0.0 -0.0 1.0
   outer loop
      vertex -1.37772764904077e-15 -7.5 15.0
      vertex -4.59242549680257e-15 -25.0 15.0
      vertex 6.47047612756301 -24.1481456572267 15.0
   endloop
endfacet
facet normal -0.0 -0.0 1.0
   outer loop
      vertex -1.37772764904077e-15 -7.5 15.0
      vertex 6.47047612756301 -24.1481456572267 15.0
      vertex 1.9411428382689 -7.24444369716801 15.0
   endloop
endfacet
facet normal -0.0 -0.0 1.0
   outer loop
      vertex 1.9411428382689 -7.24444369716801 15.0
      vertex 6.47047612756301 -24.1481456572267 15.0
      vertex 3.74999999999999 -6.49519052838329 15.0
   endloop
endfacet
facet normal -0.0 -0.0 1.0
   outer loop
      vertex 3.74999999999999 -6.49519052838329 15.0
      vertex 6.47047612756301 -24.1481456572267 15.0
      vertex 5.30330085889911 -5.30330085889911 15.0
   endloop
endfacet
facet normal -0.0 -0.0 1.0
   outer loop
      vertex 5.30330085889911 -5.30330085889911 15.0
      vertex 6.47047612756301 -24.1481456572267 15.0
      vertex 6.49519052838329 -3.75 15.0
   endloop
endfacet
facet normal -0.0 -0.0 1.0
   outer loop
      vertex 6.49519052838329 -3.75 15.0
      vertex 6.47047612756301 -24.1481456572267 15.0
      vertex 12.5 -21.650635094611 15.0
   endloop
endfacet
facet normal -0.0 -0.0 1.0
   outer loop
      vertex 6.49519052838329 -3.75 15.0
      vertex 12.5 -21.650635094611 15.0
      vertex 7.24444369716801 -1.94114283826891 15.0
   endloop
endfacet
facet normal -0.0 -0.0 1.0
   outer loop
      vertex 7.24444369716801 -1.94114283826891 15.0
      vertex 12.5 -21.650635094611 15.0
      vertex 7.5 0.0 15.0
   endloop
endfacet
facet normal -0.0 -0.0 1.0
   outer loop
      vertex -7.5 9.18485099360515e-16 15.0
      vertex -6.47047612756302 24.1481456572267 15.0
      vertex -12.5 21.650635094611 15.0
   endloop
endfacet
facet normal -0.0 -0.0 1.0
   outer loop
      vertex -6.47047612756302 24.1481456572267 15.0
      vertex -7.5 9.18485099360515e-16 15.0
      vertex -7.24444369716801 1.94114283826891 15.0
   endloop
endfacet
facet normal -0.0 -0.0 1.0
   outer loop
      vertex -6.47047612756302 24.1481456572267 15.0
      vertex -7.24444369716801 1.94114283826891 15.0
      vertex -6.49519052838329 3.75 15.0
   endloop
endfacet
facet normal -0.0 -0.0 1.0
   outer loop
      vertex -6.47047612756302 24.1481456572267 15.0
      vertex -6.49519052838329 3.75 15.0
      vertex -5.30330085889911 5.30330085889911 15.0
   endloop
endfacet
facet normal -0.0 -0.0 1.0
   outer loop
      vertex -6.47047612756302 24.1481456572267 15.0
      vertex -5.30330085889911 5.30330085889911 15.0
      vertex 1.53080849893419e-15 25.0 15.0
   endloop
endfacet
facet normal -0.0 -0.0 1.0
   outer loop
      vertex 1.53080849893419e-15 25.0 15.0
      vertex -5.30330085889911 5.30330085889911 15.0
      vertex -3.75 6.49519052838329 15.0
   endloop
endfacet
facet normal -0.0 -0.0 1.0
   outer loop
      vertex 1.53080849893419e-15 25.0 15.0
      vertex -3.75 6.49519052838329 15.0
      vertex -1.9411428382689 7.24444369716801 15.0
   endloop
endfacet
facet normal -0.0 -0.0 1.0
   outer loop
      vertex 1.53080849893419e-15 25.0 15.0
      vertex -1.9411428382689 7.24444369716801 15.0
      vertex 4.59242549680257e-16 7.5 15.0
   endloop
endfacet
facet normal -0.0 -0.0 1.0
   outer loop
      vertex 1.53080849893419e-15 25.0 15.0
      vertex 4.59242549680257e-16 7.5 15.0
      vertex 1.94114283826891 7.24444369716801 15.0
   endloop
endfacet
facet normal -0.0 -0.0 1.0
   outer loop
      vertex 1.53080849893419e-15 25.0 15.0
      vertex 1.94114283826891 7.24444369716801 15.0
      vertex 6.47047612756302 24.1481456572267 15.0
   endloop
endfacet
facet normal -0.0 -0.0 1.0
   outer loop
      vertex 6.47047612756302 24.1481456572267 15.0
      vertex 1.94114283826891 7.24444369716801 15.0
      vertex 3.75 6.49519052838329 15.0
   endloop
endfacet
facet normal -0.0 -0.0 1.0
   outer loop
      vertex 6.47047612756302 24.1481456572267 15.0
      vertex 3.75 6.49519052838329 15.0
      vertex 5.30330085889911 5.30330085889911 15.0
   endloop
endfacet
facet normal -0.0 -0.0 1.0
   outer loop
      vertex 6.47047612756302 24.1481456572267 15.0
      vertex 5.30330085889911 5.30330085889911 15.0
      vertex 6.49519052838329 3.75 15.0
   endloop
endfacet
facet normal -0.0 -0.0 1.0
   outer loop
      vertex 6.47047612756302 24.1481456572267 15.0
      vertex 6.49519052838329 3.75 15.0
      vertex 12.5 21.650635094611 15.0
   endloop
endfacet
facet normal -0.0 -0.0 1.0
   outer loop
      vertex 12.5 21.650635094611 15.0
      vertex 6.49519052838329 3.75 15.0
      vertex 7.24444369716801 1.94114283826891 15.0
   endloop
endfacet
facet normal -0.0 -0.0 1.0
   outer loop
      vertex 12.5 21.650635094611 15.0
      vertex 7.24444369716801 1.94114283826891 15.0
      vertex 7.5 0.0 15.0
   endloop
endfacet
facet normal -0.0 -0.0 1.0
   outer loop
      vertex 12.5 21.650635094611 15.0
      vertex 7.5 0.0 15.0
      vertex 12.5 -21.650635094611 15.0
   endloop
endfacet
facet normal -0.0 -0.0 1.0
   outer loop
      vertex 12.5 21.650635094611 15.0
      vertex 12.5 -21.650635094611 15.0
      vertex 17.6776695296637 -17.6776695296637 15.0
   endloop
endfacet
facet normal -0.0 -0.0 1.0
   outer loop
      vertex 12.5 21.650635094611 15.0
      vertex 17.6776695296637 -17.6776695296637 15.0
      vertex 17.6776695296637 17.6776695296637 15.0
   endloop
endfacet
facet normal -0.0 -0.0 1.0
   outer loop
      vertex 17.6776695296637 17.6776695296637 15.0
      vertex 17.6776695296637 -17.6776695296637 15.0
      vertex 21.650635094611 -12.5 15.0
   endloop
endfacet
facet normal -0.0 -0.0 1.0
   outer loop
      vertex 17.6776695296637 17.6776695296637 15.0
      vertex 21.650635094611 -12.5 15.0
      vertex 21.650635094611 12.5 15.0
   endloop
endfacet
facet normal -0.0 -0.0 1.0
   outer loop
      vertex 21.650635094611 12.5 15.0
      vertex 21.650635094611 -12.5 15.0
      vertex 24.1481456572267 -6.47047612756304 15.0
   endloop
endfacet
facet normal -0.0 -0.0 1.0
   outer loop
      vertex 21.650635094611 12.5 15.0
      vertex 24.1481456572267 -6.47047612756304 15.0
      vertex 24.1481456572267 6.47047612756302 15.0
   endloop
endfacet
facet normal -0.0 -0.0 1.0
   outer loop
      vertex 24.1481456572267 6.47047612756302 15.0
      vertex 24.1481456572267 -6.47047612756304 15.0
      vertex 25.0 0.0 15.0
   endloop
endfacet
facet normal -0.608761429008721 0.793353340291235 0.0
   outer loop
      vertex -17.6776695296637 17.6776695296637 15.0
      vertex -12.5 21.650635094611 0.0
      vertex -17.6776695296637 17.6776695296637 0.0
   endloop
endfacet
facet normal -0.608761429008721 0.793353340291235 0.0
   outer loop
      vertex -12.5 21.650635094611 0.0
      vertex -17.6776695296637 17.6776695296637 15.0
      vertex -12.5 21.650635094611 15.0
   endloop
endfacet
facet normal 0.0 0.0 -1.0
   outer loop
      vertex -6.47047612756302 24.1481456572267 0.0
      vertex -7.5 9.18485099360515e-16 0.0
      vertex -12.5 21.650635094611 0.0
   endloop
endfacet
facet normal 0.0 0.0 -1.0
   outer loop
      vertex -7.5 9.18485099360515e-16 0.0
      vertex -6.47047612756302 24.1481456572267 0.0
      vertex -7.24444369716801 1.94114283826891 0.0
   endloop
endfacet
facet normal 0.0 0.0 -1.0
   outer loop
      vertex -7.24444369716801 1.94114283826891 0.0
      vertex -6.47047612756302 24.1481456572267 0.0
      vertex -6.49519052838329 3.75 0.0
   endloop
endfacet
facet normal 0.0 0.0 -1.0
   outer loop
      vertex -6.49519052838329 3.75 0.0
      vertex -6.47047612756302 24.1481456572267 0.0
      vertex -5.30330085889911 5.30330085889911 0.0
   endloop
endfacet
facet normal 0.0 0.0 -1.0
   outer loop
      vertex -5.30330085889911 5.30330085889911 0.0
      vertex -6.47047612756302 24.1481456572267 0.0
      vertex 1.53080849893419e-15 25.0 0.0
   endloop
endfacet
facet normal 0.0 0.0 -1.0
   outer loop
      vertex -5.30330085889911 5.30330085889911 0.0
      vertex 1.53080849893419e-15 25.0 0.0
      vertex -3.75 6.49519052838329 0.0
   endloop
endfacet
facet normal 0.0 0.0 -1.0
   outer loop
      vertex -3.75 6.49519052838329 0.0
      vertex 1.53080849893419e-15 25.0 0.0
      vertex -1.9411428382689 7.24444369716801 0.0
   endloop
endfacet
facet normal 0.0 0.0 -1.0
   outer loop
      vertex -1.9411428382689 7.24444369716801 0.0
      vertex 1.53080849893419e-15 25.0 0.0
      vertex 4.59242549680257e-16 7.5 0.0
   endloop
endfacet
facet normal 0.0 0.0 -1.0
   outer loop
      vertex 4.59242549680257e-16 7.5 0.0
      vertex 1.53080849893419e-15 25.0 0.0
      vertex 1.94114283826891 7.24444369716801 0.0
   endloop
endfacet
facet normal 0.0 0.0 -1.0
   outer loop
      vertex 1.94114283826891 7.24444369716801 0.0
      vertex 1.53080849893419e-15 25.0 0.0
      vertex 6.47047612756302 24.1481456572267 0.0
   endloop
endfacet
facet normal 0.0 0.0 -1.0
   outer loop
      vertex 1.94114283826891 7.24444369716801 0.0
      vertex 6.47047612756302 24.1481456572267 0.0
      vertex 3.75 6.49519052838329 0.0
   endloop
endfacet
facet normal 0.0 0.0 -1.0
   outer loop
      vertex 3.75 6.49519052838329 0.0
      vertex 6.47047612756302 24.1481456572267 0.0
      vertex 5.30330085889911 5.30330085889911 0.0
   endloop
endfacet
facet normal 0.0 0.0 -1.0
   outer loop
      vertex 5.30330085889911 5.30330085889911 0.0
      vertex 6.47047612756302 24.1481456572267 0.0
      vertex 6.49519052838329 3.75 0.0
   endloop
endfacet
facet normal 0.0 0.0 -1.0
   outer loop
      vertex 6.49519052838329 3.75 0.0
      vertex 6.47047612756302 24.1481456572267 0.0
      vertex 12.5 21.650635094611 0.0
   endloop
endfacet
facet normal 0.0 0.0 -1.0
   outer loop
      vertex 6.49519052838329 3.75 0.0
      vertex 12.5 21.650635094611 0.0
      vertex 7.24444369716801 1.94114283826891 0.0
   endloop
endfacet
facet normal 0.0 0.0 -1.0
   outer loop
      vertex 7.24444369716801 1.94114283826891 0.0
      vertex 12.5 21.650635094611 0.0
      vertex 7.5 0.0 0.0
   endloop
endfacet
facet normal 0.0 0.0 -1.0
   outer loop
      vertex 7.5 0.0 0.0
      vertex 12.5 21.650635094611 0.0
      vertex 12.5 -21.650635094611 0.0
   endloop
endfacet
facet normal 0.0 0.0 -1.0
   outer loop
      vertex 12.5 -21.650635094611 0.0
      vertex 12.5 21.650635094611 0.0
      vertex 17.6776695296637 -17.6776695296637 0.0
   endloop
endfacet
facet normal 0.0 0.0 -1.0
   outer loop
      vertex 17.6776695296637 -17.6776695296637 0.0
      vertex 12.5 21.650635094611 0.0
      vertex 17.6776695296637 17.6776695296637 0.0
   endloop
endfacet
facet normal 0.0 0.0 -1.0
   outer loop
      vertex 17.6776695296637 -17.6776695296637 0.0
      vertex 17.6776695296637 17.6776695296637 0.0
      vertex 21.650635094611 -12.5 0.0
   endloop
endfacet
facet normal 0.0 0.0 -1.0
   outer loop
      vertex 21.650635094611 -12.5 0.0
      vertex 17.6776695296637 17.6776695296637 0.0
      vertex 21.650635094611 12.5 0.0
   endloop
endfacet
facet normal 0.0 0.0 -1.0
   outer loop
      vertex 21.650635094611 -12.5 0.0
      vertex 21.650635094611 12.5 0.0
      vertex 24.1481456572267 -6.47047612756304 0.0
   endloop
endfacet
facet normal 0.0 0.0 -1.0
   outer loop
      vertex 24.1481456572267 -6.47047612756304 0.0
      vertex 21.650635094611 12.5 0.0
      vertex 24.1481456572267 6.47047612756302 0.0
   endloop
endfacet
facet normal 0.0 0.0 -1.0
   outer loop
      vertex 24.1481456572267 -6.47047612756304 0.0
      vertex 24.1481456572267 6.47047612756302 0.0
      vertex 25.0 0.0 0.0
   endloop
endfacet
facet normal 0.0 0.0 -1.0
   outer loop
      vertex -24.1481456572267 6.47047612756303 0.0
      vertex -24.1481456572267 -6.47047612756301 0.0
      vertex -25.0 3.06161699786838e-15 0.0
   endloop
endfacet
facet normal 0.0 0.0 -1.0
   outer loop
      vertex -24.1481456572267 -6.47047612756301 0.0
      vertex -24.1481456572267 6.47047612756303 0.0
      vertex -21.650635094611 -12.5 0.0
   endloop
endfacet
facet normal 0.0 0.0 -1.0
   outer loop
      vertex -21.650635094611 -12.5 0.0
      vertex -24.1481456572267 6.47047612756303 0.0
      vertex -21.650635094611 12.5 0.0
   endloop
endfacet
facet normal 0.0 0.0 -1.0
   outer loop
      vertex -21.650635094611 -12.5 0.0
      vertex -21.650635094611 12.5 0.0
      vertex -17.6776695296637 -17.6776695296637 0.0
   endloop
endfacet
facet normal 0.0 0.0 -1.0
   outer loop
      vertex -17.6776695296637 -17.6776695296637 0.0
      vertex -21.650635094611 12.5 0.0
      vertex -17.6776695296637 17.6776695296637 0.0
   endloop
endfacet
facet normal 0.0 0.0 -1.0
   outer loop
      vertex -17.6776695296637 -17.6776695296637 0.0
      vertex -17.6776695296637 17.6776695296637 0.0
      vertex -12.5 -21.650635094611 0.0
   endloop
endfacet
facet normal 0.0 0.0 -1.0
   outer loop
      vertex -12.5 -21.650635094611 0.0
      vertex -17.6776695296637 17.6776695296637 0.0
      vertex -12.5 21.650635094611 0.0
   endloop
endfacet
facet normal 0.0 0.0 -1.0
   outer loop
      vertex -12.5 -21.650635094611 0.0
      vertex -12.5 21.650635094611 0.0
      vertex -6.47047612756304 -24.1481456572267 0.0
   endloop
endfacet
facet normal 0.0 0.0 -1.0
   outer loop
      vertex -6.47047612756304 -24.1481456572267 0.0
      vertex -12.5 21.650635094611 0.0
      vertex -7.5 9.18485099360515e-16 0.0
   endloop
endfacet
facet normal 0.0 0.0 -1.0
   outer loop
      vertex -6.47047612756304 -24.1481456572267 0.0
      vertex -7.5 9.18485099360515e-16 0.0
      vertex -7.24444369716801 -1.9411428382689 0.0
   endloop
endfacet
facet normal 0.0 0.0 -1.0
   outer loop
      vertex -6.47047612756304 -24.1481456572267 0.0
      vertex -7.24444369716801 -1.9411428382689 0.0
      vertex -6.49519052838329 -3.75 0.0
   endloop
endfacet
facet normal 0.0 0.0 -1.0
   outer loop
      vertex -6.47047612756304 -24.1481456572267 0.0
      vertex -6.49519052838329 -3.75 0.0
      vertex -5.30330085889911 -5.3033008588991 0.0
   endloop
endfacet
facet normal 0.0 0.0 -1.0
   outer loop
      vertex -6.47047612756304 -24.1481456572267 0.0
      vertex -5.30330085889911 -5.3033008588991 0.0
      vertex -4.59242549680257e-15 -25.0 0.0
   endloop
endfacet
facet normal 0.0 0.0 -1.0
   outer loop
      vertex -4.59242549680257e-15 -25.0 0.0
      vertex -5.30330085889911 -5.3033008588991 0.0
      vertex -3.75 -6.49519052838329 0.0
   endloop
endfacet
facet normal 0.0 0.0 -1.0
   outer loop
      vertex -4.59242549680257e-15 -25.0 0.0
      vertex -3.75 -6.49519052838329 0.0
      vertex -1.94114283826891 -7.24444369716801 0.0
   endloop
endfacet
facet normal 0.0 0.0 -1.0
   outer loop
      vertex -4.59242549680257e-15 -25.0 0.0
      vertex -1.94114283826891 -7.24444369716801 0.0
      vertex -1.37772764904077e-15 -7.5 0.0
   endloop
endfacet
facet normal 0.0 0.0 -1.0
   outer loop
      vertex -4.59242549680257e-15 -25.0 0.0
      vertex -1.37772764904077e-15 -7.5 0.0
      vertex 6.47047612756301 -24.1481456572267 0.0
   endloop
endfacet
facet normal 0.0 0.0 -1.0
   outer loop
      vertex 6.47047612756301 -24.1481456572267 0.0
      vertex -1.37772764904077e-15 -7.5 0.0
      vertex 1.9411428382689 -7.24444369716801 0.0
   endloop
endfacet
facet normal 0.0 0.0 -1.0
   outer loop
      vertex 6.47047612756301 -24.1481456572267 0.0
      vertex 1.9411428382689 -7.24444369716801 0.0
      vertex 3.74999999999999 -6.49519052838329 0.0
   endloop
endfacet
facet normal 0.0 0.0 -1.0
   outer loop
      vertex 6.47047612756301 -24.1481456572267 0.0
      vertex 3.74999999999999 -6.49519052838329 0.0
      vertex 5.30330085889911 -5.30330085889911 0.0
   endloop
endfacet
facet normal 0.0 0.0 -1.0
   outer loop
      vertex 6.47047612756301 -24.1481456572267 0.0
      vertex 5.30330085889911 -5.30330085889911 0.0
      vertex 6.49519052838329 -3.75 0.0
   endloop
endfacet
facet normal 0.0 0.0 -1.0
   outer loop
      vertex 6.47047612756301 -24.1481456572267 0.0
      vertex 6.49519052838329 -3.75 0.0
      vertex 12.5 -21.650635094611 0.0
   endloop
endfacet
facet normal 0.0 0.0 -1.0
   outer loop
      vertex 12.5 -21.650635094611 0.0
      vertex 6.49519052838329 -3.75 0.0
      vertex 7.24444369716801 -1.94114283826891 0.0
   endloop
endfacet
facet normal 0.0 0.0 -1.0
   outer loop
      vertex 12.5 -21.650635094611 0.0
      vertex 7.24444369716801 -1.94114283826891 0.0
      vertex 7.5 0.0 0.0
   endloop
endfacet
facet normal 0.38268343236509 0.923879532511287 0.0
   outer loop
      vertex 6.47047612756302 24.1481456572267 15.0
      vertex 12.5 21.650635094611 0.0
      vertex 6.47047612756302 24.1481456572267 0.0
   endloop
endfacet
facet normal 0.38268343236509 0.923879532511287 0.0
   outer loop
      vertex 12.5 21.650635094611 0.0
      vertex 6.47047612756302 24.1481456572267 15.0
      vertex 12.5 21.650635094611 15.0
   endloop
endfacet
facet normal 0.608761429008721 0.793353340291235 0.0
   outer loop
      vertex 12.5 21.650635094611 15.0
      vertex 17.6776695296637 17.6776695296637 0.0
      vertex 12.5 21.650635094611 0.0
   endloop
endfacet
facet normal 0.608761429008721 0.793353340291235 0.0
   outer loop
      vertex 17.6776695296637 17.6776695296637 0.0
      vertex 12.5 21.650635094611 15.0
      vertex 17.6776695296637 17.6776695296637 15.0
   endloop
endfacet
facet normal 0.793353340291235 0.608761429008721 0.0
   outer loop
      vertex 17.6776695296637 17.6776695296637 0.0
      vertex 21.650635094611 12.5 15.0
      vertex 21.650635094611 12.5 0.0
   endloop
endfacet
facet normal 0.793353340291235 0.608761429008721 0.0
   outer loop
      vertex 21.650635094611 12.5 15.0
      vertex 17.6776695296637 17.6776695296637 0.0
      vertex 17.6776695296637 17.6776695296637 15.0
   endloop
endfacet
facet normal 0.923879532511287 0.38268343236509 0.0
   outer loop
      vertex 21.650635094611 12.5 0.0
      vertex 24.1481456572267 6.47047612756302 15.0
      vertex 24.1481456572267 6.47047612756302 0.0
   endloop
endfacet
facet normal 0.923879532511287 0.38268343236509 0.0
   outer loop
      vertex 24.1481456572267 6.47047612756302 15.0
      vertex 21.650635094611 12.5 0.0
      vertex 21.650635094611 12.5 15.0
   endloop
endfacet
facet normal 0.991444861373811 0.130526192220051 0.0
   outer loop
      vertex 24.1481456572267 6.47047612756302 0.0
      vertex 25.0 0.0 15.0
      vertex 25.0 0.0 0.0
   endloop
endfacet
facet normal 0.991444861373811 0.130526192220051 0.0
   outer loop
      vertex 25.0 0.0 15.0
      vertex 24.1481456572267 6.47047612756302 0.0
      vertex 24.1481456572267 6.47047612756302 15.0
   endloop
endfacet
facet normal 0.99144486137381 -0.130526192220052 0.0
   outer loop
      vertex 25.0 0.0 0.0
      vertex 24.1481456572267 -6.47047612756304 15.0
      vertex 24.1481456572267 -6.47047612756304 0.0
   endloop
endfacet
facet normal 0.99144486137381 -0.130526192220052 0.0
   outer loop
      vertex 24.1481456572267 -6.47047612756304 15.0
      vertex 25.0 0.0 0.0
      vertex 25.0 0.0 15.0
   endloop
endfacet
facet normal 0.923879532511287 -0.382683432365091 0.0
   outer loop
      vertex 24.1481456572267 -6.47047612756304 0.0
      vertex 21.650635094611 -12.5 15.0
      vertex 21.650635094611 -12.5 0.0
   endloop
endfacet
facet normal 0.923879532511287 -0.382683432365091 0.0
   outer loop
      vertex 21.650635094611 -12.5 15.0
      vertex 24.1481456572267 -6.47047612756304 0.0
      vertex 24.1481456572267 -6.47047612756304 15.0
   endloop
endfacet
facet normal 0.793353340291235 -0.608761429008721 0.0
   outer loop
      vertex 21.650635094611 -12.5 0.0
      vertex 17.6776695296637 -17.6776695296637 15.0
      vertex 17.6776695296637 -17.6776695296637 0.0
   endloop
endfacet
facet normal 0.793353340291235 -0.608761429008721 0.0
   outer loop
      vertex 17.6776695296637 -17.6776695296637 15.0
      vertex 21.650635094611 -12.5 0.0
      vertex 21.650635094611 -12.5 15.0
   endloop
endfacet
facet normal 0.60876142900872 -0.793353340291236 0.0
   outer loop
      vertex 17.6776695296637 -17.6776695296637 15.0
      vertex 12.5 -21.650635094611 0.0
      vertex 17.6776695296637 -17.6776695296637 0.0
   endloop
endfacet
facet normal 0.60876142900872 -0.793353340291236 0.0
   outer loop
      vertex 12.5 -21.650635094611 0.0
      vertex 17.6776695296637 -17.6776695296637 15.0
      vertex 12.5 -21.650635094611 15.0
   endloop
endfacet
facet normal 0.382683432365089 -0.923879532511287 0.0
   outer loop
      vertex 12.5 -21.650635094611 15.0
      vertex 6.47047612756301 -24.1481456572267 0.0
      vertex 12.5 -21.650635094611 0.0
   endloop
endfacet
facet normal 0.382683432365089 -0.923879532511287 0.0
   outer loop
      vertex 6.47047612756301 -24.1481456572267 0.0
      vertex 12.5 -21.650635094611 15.0
      vertex 6.47047612756301 -24.1481456572267 15.0
   endloop
endfacet
facet normal 0.130526192220051 -0.991444861373811 0.0
   outer loop
      vertex 6.47047612756301 -24.1481456572267 15.0
      vertex -4.59242549680257e-15 -25.0 0.0
      vertex 6.47047612756301 -24.1481456572267 0.0
   endloop
endfacet
facet normal 0.130526192220051 -0.991444861373811 0.0
   outer loop
      vertex -4.59242549680257e-15 -25.0 0.0
      vertex 6.47047612756301 -24.1481456572267 15.0
      vertex -4.59242549680257e-15 -25.0 15.0
   endloop
endfacet
facet normal -0.130526192220052 -0.99144486137381 -0.0
   outer loop
      vertex -4.59242549680257e-15 -25.0 15.0
      vertex -6.47047612756304 -24.1481456572267 0.0
      vertex -4.59242549680257e-15 -25.0 0.0
   endloop
endfacet
facet normal -0.130526192220052 -0.99144486137381 -0.0
   outer loop
      vertex -6.47047612756304 -24.1481456572267 0.0
      vertex -4.59242549680257e-15 -25.0 15.0
      vertex -6.47047612756304 -24.1481456572267 15.0
   endloop
endfacet
facet normal -0.38268343236509 -0.923879532511287 -0.0
   outer loop
      vertex -6.47047612756304 -24.1481456572267 15.0
      vertex -12.5 -21.650635094611 0.0
      vertex -6.47047612756304 -24.1481456572267 0.0
   endloop
endfacet
facet normal -0.38268343236509 -0.923879532511287 -0.0
   outer loop
      vertex -12.5 -21.650635094611 0.0
      vertex -6.47047612756304 -24.1481456572267 15.0
      vertex -12.5 -21.650635094611 15.0
   endloop
endfacet
facet normal -0.608761429008721 -0.793353340291235 -0.0
   outer loop
      vertex -12.5 -21.650635094611 15.0
      vertex -17.6776695296637 -17.6776695296637 0.0
      vertex -12.5 -21.650635094611 0.0
   endloop
endfacet
facet normal -0.608761429008721 -0.793353340291235 -0.0
   outer loop
      vertex -17.6776695296637 -17.6776695296637 0.0
      vertex -12.5 -21.650635094611 15.0
      vertex -17.6776695296637 -17.6776695296637 15.0
   endloop
endfacet
facet normal -0.793353340291235 -0.60876142900872 -0.0
   outer loop
      vertex -21.650635094611 -12.5 15.0
      vertex -17.6776695296637 -17.6776695296637 0.0
      vertex -17.6776695296637 -17.6776695296637 15.0
   endloop
endfacet
facet normal -0.793353340291235 -0.60876142900872 -0.0
   outer loop
      vertex -17.6776695296637 -17.6776695296637 0.0
      vertex -21.650635094611 -12.5 15.0
      vertex -21.650635094611 -12.5 0.0
   endloop
endfacet
facet normal -0.923879532511287 -0.382683432365089 -0.0
   outer loop
      vertex -24.1481456572267 -6.47047612756301 15.0
      vertex -21.650635094611 -12.5 0.0
      vertex -21.650635094611 -12.5 15.0
   endloop
endfacet
facet normal -0.923879532511287 -0.382683432365089 -0.0
   outer loop
      vertex -21.650635094611 -12.5 0.0
      vertex -24.1481456572267 -6.47047612756301 15.0
      vertex -24.1481456572267 -6.47047612756301 0.0
   endloop
endfacet
facet normal -0.991444861373811 -0.130526192220051 -0.0
   outer loop
      vertex -25.0 3.06161699786838e-15 15.0
      vertex -24.1481456572267 -6.47047612756301 0.0
      vertex -24.1481456572267 -6.47047612756301 15.0
   endloop
endfacet
facet normal -0.991444861373811 -0.130526192220051 -0.0
   outer loop
      vertex -24.1481456572267 -6.47047612756301 0.0
      vertex -25.0 3.06161699786838e-15 15.0
      vertex -25.0 3.06161699786838e-15 0.0
   endloop
endfacet
facet normal -0.99144486137381 0.130526192220052 0.0
   outer loop
      vertex -24.1481456572267 6.47047612756303 15.0
      vertex -25.0 3.06161699786838e-15 0.0
      vertex -25.0 3.06161699786838e-15 15.0
   endloop
endfacet
facet normal -0.99144486137381 0.130526192220052 0.0
   outer loop
      vertex -25.0 3.06161699786838e-15 0.0
      vertex -24.1481456572267 6.47047612756303 15.0
      vertex -24.1481456572267 6.47047612756303 0.0
   endloop
endfacet
facet normal -0.923879532511287 0.38268343236509 0.0
   outer loop
      vertex -21.650635094611 12.5 15.0
      vertex -24.1481456572267 6.47047612756303 0.0
      vertex -24.1481456572267 6.47047612756303 15.0
   endloop
endfacet
facet normal -0.923879532511287 0.38268343236509 0.0
   outer loop
      vertex -24.1481456572267 6.47047612756303 0.0
      vertex -21.650635094611 12.5 15.0
      vertex -21.650635094611 12.5 0.0
   endloop
endfacet
facet normal -0.793353340291235 0.608761429008721 0.0
   outer loop
      vertex -17.6776695296637 17.6776695296637 15.0
      vertex -21.650635094611 12.5 0.0
      vertex -21.650635094611 12.5 15.0
   endloop
endfacet
facet normal -0.793353340291235 0.608761429008721 0.0
   outer loop
      vertex -21.650635094611 12.5 0.0
      vertex -17.6776695296637 17.6776695296637 15.0
      vertex -17.6776695296637 17.6776695296637 0.0
   endloop
endfacet
facet normal -0.60876142900872 0.793353340291235 0.0
   outer loop
      vertex 3.74999999999999 -6.49519052838329 15.0
      vertex 5.30330085889911 -5.30330085889911 0.0
      vertex 3.74999999999999 -6.49519052838329 0.0
   endloop
endfacet
facet normal -0.60876142900872 0.793353340291235 0.0
   outer loop
      vertex 5.30330085889911 -5.30330085889911 0.0
      vertex 3.74999999999999 -6.49519052838329 15.0
      vertex 5.30330085889911 -5.30330085889911 15.0
   endloop
endfacet
facet normal -0.793353340291235 0.608761429008721 0.0
   outer loop
      vertex 6.49519052838329 -3.75 15.0
      vertex 5.30330085889911 -5.30330085889911 0.0
      vertex 5.30330085889911 -5.30330085889911 15.0
   endloop
endfacet
facet normal -0.793353340291235 0.608761429008721 0.0
   outer loop
      vertex 5.30330085889911 -5.30330085889911 0.0
      vertex 6.49519052838329 -3.75 15.0
      vertex 6.49519052838329 -3.75 0.0
   endloop
endfacet
facet normal -0.923879532511287 0.38268343236509 0.0
   outer loop
      vertex 7.24444369716801 -1.94114283826891 15.0
      vertex 6.49519052838329 -3.75 0.0
      vertex 6.49519052838329 -3.75 15.0
   endloop
endfacet
facet normal -0.923879532511287 0.38268343236509 0.0
   outer loop
      vertex 6.49519052838329 -3.75 0.0
      vertex 7.24444369716801 -1.94114283826891 15.0
      vertex 7.24444369716801 -1.94114283826891 0.0
   endloop
endfacet
facet normal -0.99144486137381 0.130526192220052 0.0
   outer loop
      vertex 7.5 0.0 15.0
      vertex 7.24444369716801 -1.94114283826891 0.0
      vertex 7.24444369716801 -1.94114283826891 15.0
   endloop
endfacet
facet normal -0.99144486137381 0.130526192220052 0.0
   outer loop
      vertex 7.24444369716801 -1.94114283826891 0.0
      vertex 7.5 0.0 15.0
      vertex 7.5 0.0 0.0
   endloop
endfacet
facet normal -0.99144486137381 -0.130526192220052 -0.0
   outer loop
      vertex 7.24444369716801 1.94114283826891 15.0
      vertex 7.5 0.0 0.0
      vertex 7.5 0.0 15.0
   endloop
endfacet
facet normal -0.99144486137381 -0.130526192220052 -0.0
   outer loop
      vertex 7.5 0.0 0.0
      vertex 7.24444369716801 1.94114283826891 15.0
      vertex 7.24444369716801 1.94114283826891 0.0
   endloop
endfacet
facet normal -0.923879532511287 -0.382683432365089 -0.0
   outer loop
      vertex 6.49519052838329 3.75 15.0
      vertex 7.24444369716801 1.94114283826891 0.0
      vertex 7.24444369716801 1.94114283826891 15.0
   endloop
endfacet
facet normal -0.923879532511287 -0.382683432365089 -0.0
   outer loop
      vertex 7.24444369716801 1.94114283826891 0.0
      vertex 6.49519052838329 3.75 15.0
      vertex 6.49519052838329 3.75 0.0
   endloop
endfacet
facet normal -0.793353340291235 -0.608761429008721 -0.0
   outer loop
      vertex 5.30330085889911 5.30330085889911 15.0
      vertex 6.49519052838329 3.75 0.0
      vertex 6.49519052838329 3.75 15.0
   endloop
endfacet
facet normal -0.793353340291235 -0.608761429008721 -0.0
   outer loop
      vertex 6.49519052838329 3.75 0.0
      vertex 5.30330085889911 5.30330085889911 15.0
      vertex 5.30330085889911 5.30330085889911 0.0
   endloop
endfacet
facet normal -0.608761429008721 -0.793353340291235 -0.0
   outer loop
      vertex 5.30330085889911 5.30330085889911 15.0
      vertex 3.75 6.49519052838329 0.0
      vertex 5.30330085889911 5.30330085889911 0.0
   endloop
endfacet
facet normal -0.608761429008721 -0.793353340291235 -0.0
   outer loop
      vertex 3.75 6.49519052838329 0.0
      vertex 5.30330085889911 5.30330085889911 15.0
      vertex 3.75 6.49519052838329 15.0
   endloop
endfacet
facet normal -0.38268343236509 -0.923879532511287 -0.0
   outer loop
      vertex 3.75 6.49519052838329 15.0
      vertex 1.94114283826891 7.24444369716801 0.0
      vertex 3.75 6.49519052838329 0.0
   endloop
endfacet
facet normal -0.38268343236509 -0.923879532511287 -0.0
   outer loop
      vertex 1.94114283826891 7.24444369716801 0.0
      vertex 3.75 6.49519052838329 15.0
      vertex 1.94114283826891 7.24444369716801 15.0
   endloop
endfacet
facet normal -0.130526192220052 -0.99144486137381 -0.0
   outer loop
      vertex 1.94114283826891 7.24444369716801 15.0
      vertex 4.59242549680257e-16 7.5 0.0
      vertex 1.94114283826891 7.24444369716801 0.0
   endloop
endfacet
facet normal -0.130526192220052 -0.99144486137381 -0.0
   outer loop
      vertex 4.59242549680257e-16 7.5 0.0
      vertex 1.94114283826891 7.24444369716801 15.0
      vertex 4.59242549680257e-16 7.5 15.0
   endloop
endfacet
facet normal 0.130526192220052 -0.99144486137381 0.0
   outer loop
      vertex 4.59242549680257e-16 7.5 15.0
      vertex -1.9411428382689 7.24444369716801 0.0
      vertex 4.59242549680257e-16 7.5 0.0
   endloop
endfacet
facet normal 0.130526192220052 -0.99144486137381 0.0
   outer loop
      vertex -1.9411428382689 7.24444369716801 0.0
      vertex 4.59242549680257e-16 7.5 15.0
      vertex -1.9411428382689 7.24444369716801 15.0
   endloop
endfacet
facet normal 0.382683432365089 -0.923879532511287 0.0
   outer loop
      vertex -1.9411428382689 7.24444369716801 15.0
      vertex -3.75 6.49519052838329 0.0
      vertex -1.9411428382689 7.24444369716801 0.0
   endloop
endfacet
facet normal 0.382683432365089 -0.923879532511287 0.0
   outer loop
      vertex -3.75 6.49519052838329 0.0
      vertex -1.9411428382689 7.24444369716801 15.0
      vertex -3.75 6.49519052838329 15.0
   endloop
endfacet
facet normal 0.608761429008721 -0.793353340291235 0.0
   outer loop
      vertex -3.75 6.49519052838329 15.0
      vertex -5.30330085889911 5.30330085889911 0.0
      vertex -3.75 6.49519052838329 0.0
   endloop
endfacet
facet normal 0.608761429008721 -0.793353340291235 0.0
   outer loop
      vertex -5.30330085889911 5.30330085889911 0.0
      vertex -3.75 6.49519052838329 15.0
      vertex -5.30330085889911 5.30330085889911 15.0
   endloop
endfacet
facet normal 0.793353340291235 -0.608761429008721 0.0
   outer loop
      vertex -5.30330085889911 5.30330085889911 0.0
      vertex -6.49519052838329 3.75 15.0
      vertex -6.49519052838329 3.75 0.0
   endloop
endfacet
facet normal 0.793353340291235 -0.608761429008721 0.0
   outer loop
      vertex -6.49519052838329 3.75 15.0
      vertex -5.30330085889911 5.30330085889911 0.0
      vertex -5.30330085889911 5.30330085889911 15.0
   endloop
endfacet
facet normal 0.923879532511287 -0.38268343236509 0.0
   outer loop
      vertex -6.49519052838329 3.75 0.0
      vertex -7.24444369716801 1.94114283826891 15.0
      vertex -7.24444369716801 1.94114283826891 0.0
   endloop
endfacet
facet normal 0.923879532511287 -0.38268343236509 0.0
   outer loop
      vertex -7.24444369716801 1.94114283826891 15.0
      vertex -6.49519052838329 3.75 0.0
      vertex -6.49519052838329 3.75 15.0
   endloop
endfacet
facet normal 0.99144486137381 -0.130526192220052 0.0
   outer loop
      vertex -7.24444369716801 1.94114283826891 0.0
      vertex -7.5 9.18485099360515e-16 15.0
      vertex -7.5 9.18485099360515e-16 0.0
   endloop
endfacet
facet normal 0.99144486137381 -0.130526192220052 0.0
   outer loop
      vertex -7.5 9.18485099360515e-16 15.0
      vertex -7.24444369716801 1.94114283826891 0.0
      vertex -7.24444369716801 1.94114283826891 15.0
   endloop
endfacet
facet normal 0.991444861373811 0.130526192220051 0.0
   outer loop
      vertex -7.5 9.18485099360515e-16 0.0
      vertex -7.24444369716801 -1.9411428382689 15.0
      vertex -7.24444369716801 -1.9411428382689 0.0
   endloop
endfacet
facet normal 0.991444861373811 0.130526192220051 0.0
   outer loop
      vertex -7.24444369716801 -1.9411428382689 15.0
      vertex -7.5 9.18485099360515e-16 0.0
      vertex -7.5 9.18485099360515e-16 15.0
   endloop
endfacet
facet normal 0.923879532511287 0.38268343236509 0.0
   outer loop
      vertex -7.24444369716801 -1.9411428382689 0.0
      vertex -6.49519052838329 -3.75 15.0
      vertex -6.49519052838329 -3.75 0.0
   endloop
endfacet
facet normal 0.923879532511287 0.38268343236509 0.0
   outer loop
      vertex -6.49519052838329 -3.75 15.0
      vertex -7.24444369716801 -1.9411428382689 0.0
      vertex -7.24444369716801 -1.9411428382689 15.0
   endloop
endfacet
facet normal 0.793353340291235 0.60876142900872 0.0
   outer loop
      vertex -6.49519052838329 -3.75 0.0
      vertex -5.30330085889911 -5.3033008588991 15.0
      vertex -5.30330085889911 -5.3033008588991 0.0
   endloop
endfacet
facet normal 0.793353340291235 0.60876142900872 0.0
   outer loop
      vertex -5.30330085889911 -5.3033008588991 15.0
      vertex -6.49519052838329 -3.75 0.0
      vertex -6.49519052838329 -3.75 15.0
   endloop
endfacet
facet normal 0.608761429008721 0.793353340291235 0.0
   outer loop
      vertex -5.30330085889911 -5.3033008588991 15.0
      vertex -3.75 -6.49519052838329 0.0
      vertex -5.30330085889911 -5.3033008588991 0.0
   endloop
endfacet
facet normal 0.608761429008721 0.793353340291235 0.0
   outer loop
      vertex -3.75 -6.49519052838329 0.0
      vertex -5.30330085889911 -5.3033008588991 15.0
      vertex -3.75 -6.49519052838329 15.0
   endloop
endfacet
facet normal 0.38268343236509 0.923879532511287 0.0
   outer loop
      vertex -3.75 -6.49519052838329 15.0
      vertex -1.94114283826891 -7.24444369716801 0.0
      vertex -3.75 -6.49519052838329 0.0
   endloop
endfacet
facet normal 0.38268343236509 0.923879532511287 0.0
   outer loop
      vertex -1.94114283826891 -7.24444369716801 0.0
      vertex -3.75 -6.49519052838329 15.0
      vertex -1.94114283826891 -7.24444369716801 15.0
   endloop
endfacet
facet normal 0.130526192220052 0.99144486137381 0.0
   outer loop
      vertex -1.94114283826891 -7.24444369716801 15.0
      vertex -1.37772764904077e-15 -7.5 0.0
      vertex -1.94114283826891 -7.24444369716801 0.0
   endloop
endfacet
facet normal 0.130526192220052 0.99144486137381 0.0
   outer loop
      vertex -1.37772764904077e-15 -7.5 0.0
      vertex -1.94114283826891 -7.24444369716801 15.0
      vertex -1.37772764904077e-15 -7.5 15.0
   endloop
endfacet
facet normal -0.130526192220051 0.991444861373811 0.0
   outer loop
      vertex -1.37772764904077e-15 -7.5 15.0
      vertex 1.9411428382689 -7.24444369716801 0.0
      vertex -1.37772764904077e-15 -7.5 0.0
   endloop
endfacet
facet normal -0.130526192220051 0.991444861373811 0.0
   outer loop
      vertex 1.9411428382689 -7.24444369716801 0.0
      vertex -1.37772764904077e-15 -7.5 15.0
      vertex 1.9411428382689 -7.24444369716801 15.0
   endloop
endfacet
facet normal -0.382683432365089 0.923879532511287 0.0
   outer loop
      vertex 1.9411428382689 -7.24444369716801 15.0
      vertex 3.74999999999999 -6.49519052838329 0.0
      vertex 1.9411428382689 -7.24444369716801 0.0
   endloop
endfacet
facet normal -0.382683432365089 0.923879532511287 0.0
   outer loop
      vertex 3.74999999999999 -6.49519052838329 0.0
      vertex 1.9411428382689 -7.24444369716801 15.0
      vertex 3.74999999999999 -6.49519052838329 15.0
   endloop
endfacet
endsolid no_name
