solid Square
facet normal 2.84155294848789e-15 -3.0324195146639e-15 -1.0
   outer loop
      vertex 1493.79655714136 1385.04635349988 -1.75841272854599e-13
      vertex 1493.82250035942 1339.63707158163 0.0
      vertex 1493.79655714136 1340.03288860044 0.0
   endloop
endfacet
facet normal 2.84155294848789e-15 -3.0324195146639e-15 -1.0
   outer loop
      vertex 1493.82250035942 1339.63707158163 0.0
      vertex 1493.79655714136 1385.04635349988 -1.75841272854599e-13
      vertex 1493.80858333947 1385.11588860795 -3.49675843835939e-13
   endloop
endfacet
facet normal 2.84155294848789e-15 -3.0324195146639e-15 -1.0
   outer loop
      vertex 1493.82250035942 1339.63707158163 0.0
      vertex 1493.80858333947 1385.11588860795 -3.49675843835939e-13
      vertex 1493.92662337083 1385.49458467861 -2.1431745267364e-13
   endloop
endfacet
facet normal 2.84155294848789e-15 -3.0324195146639e-15 -1.0
   outer loop
      vertex 1493.82250035942 1339.63707158163 0.0
      vertex 1493.92662337083 1385.49458467861 -2.1431745267364e-13
      vertex 1493.89988611792 1339.24802710176 0.0
   endloop
endfacet
facet normal 2.84155294848789e-15 -3.0324195146639e-15 -1.0
   outer loop
      vertex 1493.89988611792 1339.24802710176 0.0
      vertex 1493.92662337083 1385.49458467861 -2.1431745267364e-13
      vertex 1494.0273903251 1338.87241181974 0.0
   endloop
endfacet
facet normal 2.84155294848789e-15 -3.0324195146639e-15 -1.0
   outer loop
      vertex 1494.0273903251 1338.87241181974 0.0
      vertex 1493.92662337083 1385.49458467861 -2.1431745267364e-13
      vertex 1494.09308330947 1385.85463363607 -4.73754369068047e-13
   endloop
endfacet
facet normal 2.84155294848789e-15 -3.0324195146639e-15 -1.0
   outer loop
      vertex 1494.0273903251 1338.87241181974 0.0
      vertex 1494.09308330947 1385.85463363607 -4.73754369068047e-13
      vertex 1494.20283134861 1338.51665261718 0.0
   endloop
endfacet
facet normal 2.84155294848789e-15 -3.0324195146639e-15 -1.0
   outer loop
      vertex 1494.20283134861 1338.51665261718 0.0
      vertex 1494.09308330947 1385.85463363607 -4.73754369068047e-13
      vertex 1494.30511497968 1386.18987494284 -6.54232223951112e-13
   endloop
endfacet
facet normal 2.84155294848789e-15 -3.0324195146639e-15 -1.0
   outer loop
      vertex 1494.20283134861 1338.51665261718 0.0
      vertex 1494.30511497968 1386.18987494284 -6.54232223951112e-13
      vertex 1494.4232073439 1338.18683663267 0.0
   endloop
endfacet
facet normal 2.84155294848789e-15 -3.0324195146639e-15 -1.0
   outer loop
      vertex 1494.4232073439 1338.18683663267 0.0
      vertex 1494.30511497968 1386.18987494284 -6.54232223951112e-13
      vertex 1494.55909046082 1386.49457252721 -2.36877184534023e-13
   endloop
endfacet
facet normal 2.84155294848789e-15 -3.0324195146639e-15 -1.0
   outer loop
      vertex 1494.4232073439 1338.18683663267 0.0
      vertex 1494.55909046082 1386.49457252721 -2.36877184534023e-13
      vertex 1494.6847476166 1337.88860710915 0.0
   endloop
endfacet
facet normal 2.84155294848789e-15 -3.0324195146639e-15 -1.0
   outer loop
      vertex 1494.6847476166 1337.88860710915 0.0
      vertex 1494.55909046082 1386.49457252721 -2.36877184534023e-13
      vertex 1494.85066416197 1386.76351292904 -2.1431745267364e-13
   endloop
endfacet
facet normal 2.84155294848789e-15 -3.0324195146639e-15 -1.0
   outer loop
      vertex 1494.6847476166 1337.88860710915 0.0
      vertex 1494.85066416197 1386.76351292904 -2.1431745267364e-13
      vertex 1494.98297714012 1337.62706683646 0.0
   endloop
endfacet
facet normal 2.84155294848789e-15 -3.0324195146639e-15 -1.0
   outer loop
      vertex 1494.98297714012 1337.62706683646 0.0
      vertex 1494.85066416197 1386.76351292904 -2.1431745267364e-13
      vertex 1495.17484717627 1386.99209450348 -3.49675843835939e-13
   endloop
endfacet
facet normal 2.84155294848789e-15 -3.0324195146639e-15 -1.0
   outer loop
      vertex 1494.98297714012 1337.62706683646 0.0
      vertex 1495.17484717627 1386.99209450348 -3.49675843835939e-13
      vertex 1495.31279312462 1337.40669084116 0.0
   endloop
endfacet
facet normal 2.84155294848789e-15 -3.0324195146639e-15 -1.0
   outer loop
      vertex 1495.31279312462 1337.40669084116 0.0
      vertex 1495.17484717627 1386.99209450348 -3.49675843835939e-13
      vertex 1495.52609264247 1387.17640615643 -4.06075173486897e-13
   endloop
endfacet
facet normal 2.84155294848789e-15 -3.0324195146639e-15 -1.0
   outer loop
      vertex 1495.31279312462 1337.40669084116 0.0
      vertex 1495.52609264247 1387.17640615643 -4.06075173486897e-13
      vertex 1495.66855232719 1337.23124981765 0.0
   endloop
endfacet
facet normal 2.84155294848789e-15 -3.0324195146639e-15 -1.0
   outer loop
      vertex 1495.66855232719 1337.23124981765 0.0
      vertex 1495.52609264247 1387.17640615643 -4.06075173486897e-13
      vertex 1495.89839065325 1387.3132942644 -1.12798659301916e-13
   endloop
endfacet
facet normal 2.84155294848789e-15 -3.0324195146639e-15 -1.0
   outer loop
      vertex 1495.66855232719 1337.23124981765 0.0
      vertex 1495.89839065325 1387.3132942644 -1.12798659301916e-13
      vertex 1496.04416760921 1337.10374561047 0.0
   endloop
endfacet
facet normal 2.84155294848789e-15 -3.0324195146639e-15 -1.0
   outer loop
      vertex 1496.04416760921 1337.10374561047 0.0
      vertex 1495.89839065325 1387.3132942644 -1.12798659301916e-13
      vertex 1496.28537108644 1387.40041663391 0.0
   endloop
endfacet
facet normal 2.84155294848789e-15 -3.0324195146639e-15 -1.0
   outer loop
      vertex 1496.04416760921 1337.10374561047 0.0
      vertex 1496.28537108644 1387.40041663391 0.0
      vertex 1496.43321208908 1337.02635985197 0.0
   endloop
endfacet
facet normal 2.84155294848789e-15 -3.0324195146639e-15 -1.0
   outer loop
      vertex 1496.43321208908 1337.02635985197 0.0
      vertex 1496.28537108644 1387.40041663391 0.0
      vertex 1510.59467837071 1365.78934011072 0.0
   endloop
endfacet
facet normal 2.84155294848789e-15 -3.0324195146639e-15 -1.0
   outer loop
      vertex 1510.59467837071 1365.78934011072 0.0
      vertex 1496.28537108644 1387.40041663391 0.0
      vertex 1511.80984719465 1367.84161674922 0.0
   endloop
endfacet
facet normal 2.84155294848789e-15 -3.0324195146639e-15 -1.0
   outer loop
      vertex 1511.80984719465 1367.84161674922 0.0
      vertex 1496.28537108644 1387.40041663391 0.0
      vertex 1513.51477842486 1369.50945492239 0.0
   endloop
endfacet
facet normal 2.84155294848789e-15 -3.0324195146639e-15 -1.0
   outer loop
      vertex 1513.51477842486 1369.50945492239 0.0
      vertex 1496.28537108644 1387.40041663391 0.0
      vertex 1541.5986150236 1387.40041663391 0.0
   endloop
endfacet
facet normal 2.84155294848789e-15 -3.0324195146639e-15 -1.0
   outer loop
      vertex 1496.43321208908 1337.02635985197 0.0
      vertex 1510.59467837071 1365.78934011072 0.0
      vertex 1496.82902910789 1337.00041663391 0.0
   endloop
endfacet
facet normal 2.84155294848789e-15 -3.0324195146639e-15 -1.0
   outer loop
      vertex 1496.82902910789 1337.00041663391 0.0
      vertex 1510.59467837071 1365.78934011072 0.0
      vertex 1509.95208370023 1363.49248426825 0.0
   endloop
endfacet
facet normal 2.84155294848789e-15 -3.0324195146639e-15 -1.0
   outer loop
      vertex 1496.82902910789 1337.00041663391 0.0
      vertex 1509.95208370023 1363.49248426825 0.0
      vertex 1509.92585494806 1361.10757615174 0.0
   endloop
endfacet
facet normal 2.84155294848789e-15 -3.0324195146639e-15 -1.0
   outer loop
      vertex 1513.51477842486 1369.50945492239 0.0
      vertex 1541.5986150236 1387.40041663391 0.0
      vertex 1515.59328381554 1370.67919421496 0.0
   endloop
endfacet
facet normal 2.84155294848789e-15 -3.0324195146639e-15 -1.0
   outer loop
      vertex 1515.59328381554 1370.67919421496 0.0
      vertex 1541.5986150236 1387.40041663391 0.0
      vertex 1517.90371665919 1371.27111882722 0.0
   endloop
endfacet
facet normal 2.84155294848789e-15 -3.0324195146639e-15 -1.0
   outer loop
      vertex 1517.90371665919 1371.27111882722 0.0
      vertex 1541.5986150236 1387.40041663391 0.0
      vertex 1520.2886247757 1371.24489007505 0.0
   endloop
endfacet
facet normal 2.84155294848789e-15 -3.0324195146639e-15 -1.0
   outer loop
      vertex 1520.2886247757 1371.24489007505 0.0
      vertex 1541.5986150236 1387.40041663391 0.0
      vertex 1522.58548061817 1370.60229540456 0.0
   endloop
endfacet
facet normal 2.84155294848789e-15 -3.0324195146639e-15 -1.0
   outer loop
      vertex 1522.58548061817 1370.60229540456 0.0
      vertex 1541.5986150236 1387.40041663391 0.0
      vertex 1524.63775725667 1369.38712658062 0.0
   endloop
endfacet
facet normal 2.84155294848789e-15 -3.0324195146639e-15 -1.0
   outer loop
      vertex 1524.63775725667 1369.38712658062 0.0
      vertex 1541.5986150236 1387.40041663391 0.0
      vertex 1526.30559542984 1367.68219535041 0.0
   endloop
endfacet
facet normal 2.84155294848789e-15 -3.0324195146639e-15 -1.0
   outer loop
      vertex 1526.30559542984 1367.68219535041 0.0
      vertex 1541.5986150236 1387.40041663391 0.0
      vertex 1527.4753347224 1365.60368995974 0.0
   endloop
endfacet
facet normal 2.84155294848789e-15 -3.0324195146639e-15 -1.0
   outer loop
      vertex 1527.4753347224 1365.60368995974 0.0
      vertex 1541.5986150236 1387.40041663391 0.0
      vertex 1528.06725933466 1363.29325711609 0.0
   endloop
endfacet
facet normal 2.84155294848789e-15 -3.0324195146639e-15 -1.0
   outer loop
      vertex 1528.06725933466 1363.29325711609 0.0
      vertex 1541.5986150236 1387.40041663391 0.0
      vertex 1541.19246245515 1337.00041663392 0.0
   endloop
endfacet
facet normal 2.84155294848789e-15 -3.0324195146639e-15 -1.0
   outer loop
      vertex 1541.19246245515 1337.00041663392 0.0
      vertex 1541.5986150236 1387.40041663391 0.0
      vertex 1541.58827947395 1337.02635985197 0.0
   endloop
endfacet
facet normal 2.84155294848789e-15 -3.0324195146639e-15 -1.0
   outer loop
      vertex 1541.58827947395 1337.02635985197 0.0
      vertex 1541.5986150236 1387.40041663391 0.0
      vertex 1541.97732395382 1337.10374561048 0.0
   endloop
endfacet
facet normal 2.84155294848789e-15 -3.0324195146639e-15 -1.0
   outer loop
      vertex 1541.97732395382 1337.10374561048 0.0
      vertex 1541.5986150236 1387.40041663391 0.0
      vertex 1541.98765950347 1387.32303087541 0.0
   endloop
endfacet
facet normal 2.84155294848789e-15 -3.0324195146639e-15 -1.0
   outer loop
      vertex 1541.97732395382 1337.10374561048 0.0
      vertex 1541.98765950347 1387.32303087541 0.0
      vertex 1542.35293923585 1337.23124981765 0.0
   endloop
endfacet
facet normal 2.84155294848789e-15 -3.0324195146639e-15 -1.0
   outer loop
      vertex 1542.35293923585 1337.23124981765 0.0
      vertex 1541.98765950347 1387.32303087541 0.0
      vertex 1542.3632747855 1387.19552666823 0.0
   endloop
endfacet
facet normal 2.84155294848789e-15 -3.0324195146639e-15 -1.0
   outer loop
      vertex 1542.35293923585 1337.23124981765 0.0
      vertex 1542.3632747855 1387.19552666823 0.0
      vertex 1542.70869843841 1337.40669084117 0.0
   endloop
endfacet
facet normal 2.84155294848789e-15 -3.0324195146639e-15 -1.0
   outer loop
      vertex 1542.70869843841 1337.40669084117 0.0
      vertex 1542.3632747855 1387.19552666823 0.0
      vertex 1542.71903398806 1387.02008564472 0.0
   endloop
endfacet
facet normal 2.84155294848789e-15 -3.0324195146639e-15 -1.0
   outer loop
      vertex 1542.70869843841 1337.40669084117 0.0
      vertex 1542.71903398806 1387.02008564472 0.0
      vertex 1543.03851442292 1337.62706683646 0.0
   endloop
endfacet
facet normal 2.84155294848789e-15 -3.0324195146639e-15 -1.0
   outer loop
      vertex 1543.03851442292 1337.62706683646 0.0
      vertex 1542.71903398806 1387.02008564472 0.0
      vertex 1543.04884997257 1386.79970964942 0.0
   endloop
endfacet
facet normal 2.84155294848789e-15 -3.0324195146639e-15 -1.0
   outer loop
      vertex 1543.03851442292 1337.62706683646 0.0
      vertex 1543.04884997257 1386.79970964942 0.0
      vertex 1543.33674394643 1337.88860710915 0.0
   endloop
endfacet
facet normal 2.84155294848789e-15 -3.0324195146639e-15 -1.0
   outer loop
      vertex 1543.33674394643 1337.88860710915 0.0
      vertex 1543.04884997257 1386.79970964942 0.0
      vertex 1543.34707949609 1386.53816937673 0.0
   endloop
endfacet
facet normal 2.84155294848789e-15 -3.0324195146639e-15 -1.0
   outer loop
      vertex 1543.33674394643 1337.88860710915 0.0
      vertex 1543.34707949609 1386.53816937673 0.0
      vertex 1543.59828421913 1338.18683663267 0.0
   endloop
endfacet
facet normal 2.84155294848789e-15 -3.0324195146639e-15 -1.0
   outer loop
      vertex 1543.59828421913 1338.18683663267 0.0
      vertex 1543.34707949609 1386.53816937673 0.0
      vertex 1543.60861976878 1386.23993985321 0.0
   endloop
endfacet
facet normal 2.84155294848789e-15 -3.0324195146639e-15 -1.0
   outer loop
      vertex 1543.59828421913 1338.18683663267 0.0
      vertex 1543.60861976878 1386.23993985321 0.0
      vertex 1543.81866021442 1338.51665261718 0.0
   endloop
endfacet
facet normal 2.84155294848789e-15 -3.0324195146639e-15 -1.0
   outer loop
      vertex 1543.81866021442 1338.51665261718 0.0
      vertex 1543.60861976878 1386.23993985321 0.0
      vertex 1543.82899576407 1385.9101238687 0.0
   endloop
endfacet
facet normal 2.84155294848789e-15 -3.0324195146639e-15 -1.0
   outer loop
      vertex 1543.81866021442 1338.51665261718 0.0
      vertex 1543.82899576407 1385.9101238687 0.0
      vertex 1543.99410123793 1338.87241181974 0.0
   endloop
endfacet
facet normal 2.84155294848789e-15 -3.0324195146639e-15 -1.0
   outer loop
      vertex 1543.99410123793 1338.87241181974 0.0
      vertex 1543.82899576407 1385.9101238687 0.0
      vertex 1544.00443678759 1385.55436466614 0.0
   endloop
endfacet
facet normal 2.84155294848789e-15 -3.0324195146639e-15 -1.0
   outer loop
      vertex 1543.99410123793 1338.87241181974 0.0
      vertex 1544.00443678759 1385.55436466614 0.0
      vertex 1544.12160544511 1339.24802710176 0.0
   endloop
endfacet
facet normal 2.84155294848789e-15 -3.0324195146639e-15 -1.0
   outer loop
      vertex 1544.12160544511 1339.24802710176 0.0
      vertex 1544.00443678759 1385.55436466614 0.0
      vertex 1544.13194099476 1385.17874938412 0.0
   endloop
endfacet
facet normal 2.84155294848789e-15 -3.0324195146639e-15 -1.0
   outer loop
      vertex 1544.12160544511 1339.24802710176 0.0
      vertex 1544.13194099476 1385.17874938412 0.0
      vertex 1544.19899120362 1339.63707158164 0.0
   endloop
endfacet
facet normal 2.84155294848789e-15 -3.0324195146639e-15 -1.0
   outer loop
      vertex 1544.19899120362 1339.63707158164 0.0
      vertex 1544.13194099476 1385.17874938412 0.0
      vertex 1544.20932675327 1384.78970490425 0.0
   endloop
endfacet
facet normal 2.84155294848789e-15 -3.0324195146639e-15 -1.0
   outer loop
      vertex 1496.82902910789 1337.00041663391 0.0
      vertex 1513.35535702605 1355.01370668721 0.0
      vertex 1541.19246245515 1337.00041663392 0.0
   endloop
endfacet
facet normal 2.84155294848789e-15 -3.0324195146639e-15 -1.0
   outer loop
      vertex 1513.35535702605 1355.01370668721 0.0
      vertex 1496.82902910789 1337.00041663391 0.0
      vertex 1511.68751885288 1356.71863791742 0.0
   endloop
endfacet
facet normal 2.84155294848789e-15 -3.0324195146639e-15 -1.0
   outer loop
      vertex 1511.68751885288 1356.71863791742 0.0
      vertex 1496.82902910789 1337.00041663391 0.0
      vertex 1510.51777956032 1358.79714330809 0.0
   endloop
endfacet
facet normal 2.84155294848789e-15 -3.0324195146639e-15 -1.0
   outer loop
      vertex 1510.51777956032 1358.79714330809 0.0
      vertex 1496.82902910789 1337.00041663391 0.0
      vertex 1509.92585494806 1361.10757615174 0.0
   endloop
endfacet
facet normal 2.84155294848789e-15 -3.0324195146639e-15 -1.0
   outer loop
      vertex 1541.19246245515 1337.00041663392 0.0
      vertex 1513.35535702605 1355.01370668721 0.0
      vertex 1515.40763366456 1353.79853786326 0.0
   endloop
endfacet
facet normal 2.84155294848789e-15 -3.0324195146639e-15 -1.0
   outer loop
      vertex 1541.19246245515 1337.00041663392 0.0
      vertex 1515.40763366456 1353.79853786326 0.0
      vertex 1517.70448950703 1353.15594319278 0.0
   endloop
endfacet
facet normal 2.84155294848789e-15 -3.0324195146639e-15 -1.0
   outer loop
      vertex 1541.19246245515 1337.00041663392 0.0
      vertex 1517.70448950703 1353.15594319278 0.0
      vertex 1520.08939762354 1353.12971444061 0.0
   endloop
endfacet
facet normal 2.84155294848789e-15 -3.0324195146639e-15 -1.0
   outer loop
      vertex 1541.19246245515 1337.00041663392 0.0
      vertex 1520.08939762354 1353.12971444061 0.0
      vertex 1522.39983046719 1353.72163905287 0.0
   endloop
endfacet
facet normal 2.84155294848789e-15 -3.0324195146639e-15 -1.0
   outer loop
      vertex 1541.19246245515 1337.00041663392 0.0
      vertex 1522.39983046719 1353.72163905287 0.0
      vertex 1524.47833585786 1354.89137834544 0.0
   endloop
endfacet
facet normal 2.84155294848789e-15 -3.0324195146639e-15 -1.0
   outer loop
      vertex 1541.19246245515 1337.00041663392 0.0
      vertex 1524.47833585786 1354.89137834544 0.0
      vertex 1526.18326708807 1356.55921651861 0.0
   endloop
endfacet
facet normal 2.84155294848789e-15 -3.0324195146639e-15 -1.0
   outer loop
      vertex 1541.19246245515 1337.00041663392 0.0
      vertex 1526.18326708807 1356.55921651861 0.0
      vertex 1527.39843591201 1358.61149315711 0.0
   endloop
endfacet
facet normal 2.84155294848789e-15 -3.0324195146639e-15 -1.0
   outer loop
      vertex 1541.19246245515 1337.00041663392 0.0
      vertex 1527.39843591201 1358.61149315711 0.0
      vertex 1528.0410305825 1360.90834899958 0.0
   endloop
endfacet
facet normal 2.84155294848789e-15 -3.0324195146639e-15 -1.0
   outer loop
      vertex 1541.19246245515 1337.00041663392 0.0
      vertex 1528.0410305825 1360.90834899958 0.0
      vertex 1528.06725933466 1363.29325711609 0.0
   endloop
endfacet
facet normal -2.90058378586716e-15 2.97703233357822e-15 1.0
   outer loop
      vertex 1496.82902910789 1337.00041663391 15.0
      vertex 1510.51777956032 1358.79714330809 15.0
      vertex 1509.92585494806 1361.10757615174 15.0
   endloop
endfacet
facet normal -2.90058378586716e-15 2.97703233357822e-15 1.0
   outer loop
      vertex 1510.51777956032 1358.79714330809 15.0
      vertex 1496.82902910789 1337.00041663391 15.0
      vertex 1511.68751885288 1356.71863791742 15.0
   endloop
endfacet
facet normal -2.90058378586716e-15 2.97703233357822e-15 1.0
   outer loop
      vertex 1511.68751885288 1356.71863791742 15.0
      vertex 1496.82902910789 1337.00041663391 15.0
      vertex 1513.35535702605 1355.01370668721 15.0
   endloop
endfacet
facet normal -2.90058378586716e-15 2.97703233357822e-15 1.0
   outer loop
      vertex 1513.35535702605 1355.01370668721 15.0
      vertex 1496.82902910789 1337.00041663391 15.0
      vertex 1541.19246245515 1337.00041663392 15.0
   endloop
endfacet
facet normal -2.90058378586716e-15 2.97703233357822e-15 1.0
   outer loop
      vertex 1513.35535702605 1355.01370668721 15.0
      vertex 1541.19246245515 1337.00041663392 15.0
      vertex 1515.40763366456 1353.79853786326 15.0
   endloop
endfacet
facet normal -2.90058378586716e-15 2.97703233357822e-15 1.0
   outer loop
      vertex 1515.40763366456 1353.79853786326 15.0
      vertex 1541.19246245515 1337.00041663392 15.0
      vertex 1517.70448950703 1353.15594319278 15.0
   endloop
endfacet
facet normal -2.90058378586716e-15 2.97703233357822e-15 1.0
   outer loop
      vertex 1517.70448950703 1353.15594319278 15.0
      vertex 1541.19246245515 1337.00041663392 15.0
      vertex 1520.08939762354 1353.12971444061 15.0
   endloop
endfacet
facet normal -2.90058378586716e-15 2.97703233357822e-15 1.0
   outer loop
      vertex 1520.08939762354 1353.12971444061 15.0
      vertex 1541.19246245515 1337.00041663392 15.0
      vertex 1522.39983046719 1353.72163905287 15.0
   endloop
endfacet
facet normal -2.90058378586716e-15 2.97703233357822e-15 1.0
   outer loop
      vertex 1522.39983046719 1353.72163905287 15.0
      vertex 1541.19246245515 1337.00041663392 15.0
      vertex 1524.47833585786 1354.89137834544 15.0
   endloop
endfacet
facet normal -2.90058378586716e-15 2.97703233357822e-15 1.0
   outer loop
      vertex 1524.47833585786 1354.89137834544 15.0
      vertex 1541.19246245515 1337.00041663392 15.0
      vertex 1526.18326708807 1356.55921651861 15.0
   endloop
endfacet
facet normal -2.90058378586716e-15 2.97703233357822e-15 1.0
   outer loop
      vertex 1526.18326708807 1356.55921651861 15.0
      vertex 1541.19246245515 1337.00041663392 15.0
      vertex 1527.39843591201 1358.61149315711 15.0
   endloop
endfacet
facet normal -2.90058378586716e-15 2.97703233357822e-15 1.0
   outer loop
      vertex 1527.39843591201 1358.61149315711 15.0
      vertex 1541.19246245515 1337.00041663392 15.0
      vertex 1528.0410305825 1360.90834899958 15.0
   endloop
endfacet
facet normal -2.90058378586716e-15 2.97703233357822e-15 1.0
   outer loop
      vertex 1528.0410305825 1360.90834899958 15.0
      vertex 1541.19246245515 1337.00041663392 15.0
      vertex 1528.06725933466 1363.29325711609 15.0
   endloop
endfacet
facet normal -2.90058378586716e-15 2.97703233357822e-15 1.0
   outer loop
      vertex 1493.82250035942 1339.63707158163 15.0
      vertex 1493.79655714136 1385.04635349988 14.9999999999998
      vertex 1493.79655714136 1340.03288860044 15.0
   endloop
endfacet
facet normal -2.90058378586716e-15 2.97703233357822e-15 1.0
   outer loop
      vertex 1493.79655714136 1385.04635349988 14.9999999999998
      vertex 1493.82250035942 1339.63707158163 15.0
      vertex 1493.80858333947 1385.11588860795 14.9999999999996
   endloop
endfacet
facet normal -2.90058378586716e-15 2.97703233357822e-15 1.0
   outer loop
      vertex 1493.80858333947 1385.11588860795 14.9999999999996
      vertex 1493.82250035942 1339.63707158163 15.0
      vertex 1493.92662337083 1385.49458467861 14.9999999999998
   endloop
endfacet
facet normal -2.90058378586716e-15 2.97703233357822e-15 1.0
   outer loop
      vertex 1493.92662337083 1385.49458467861 14.9999999999998
      vertex 1493.82250035942 1339.63707158163 15.0
      vertex 1493.89988611792 1339.24802710176 15.0
   endloop
endfacet
facet normal -2.90058378586716e-15 2.97703233357822e-15 1.0
   outer loop
      vertex 1493.92662337083 1385.49458467861 14.9999999999998
      vertex 1493.89988611792 1339.24802710176 15.0
      vertex 1494.0273903251 1338.87241181974 15.0
   endloop
endfacet
facet normal -2.90058378586716e-15 2.97703233357822e-15 1.0
   outer loop
      vertex 1493.92662337083 1385.49458467861 14.9999999999998
      vertex 1494.0273903251 1338.87241181974 15.0
      vertex 1494.09308330947 1385.85463363607 14.9999999999995
   endloop
endfacet
facet normal -2.90058378586716e-15 2.97703233357822e-15 1.0
   outer loop
      vertex 1494.09308330947 1385.85463363607 14.9999999999995
      vertex 1494.0273903251 1338.87241181974 15.0
      vertex 1494.20283134861 1338.51665261718 15.0
   endloop
endfacet
facet normal -2.90058378586716e-15 2.97703233357822e-15 1.0
   outer loop
      vertex 1494.09308330947 1385.85463363607 14.9999999999995
      vertex 1494.20283134861 1338.51665261718 15.0
      vertex 1494.30511497968 1386.18987494284 14.9999999999993
   endloop
endfacet
facet normal -2.90058378586716e-15 2.97703233357822e-15 1.0
   outer loop
      vertex 1494.30511497968 1386.18987494284 14.9999999999993
      vertex 1494.20283134861 1338.51665261718 15.0
      vertex 1494.4232073439 1338.18683663267 15.0
   endloop
endfacet
facet normal -2.90058378586716e-15 2.97703233357822e-15 1.0
   outer loop
      vertex 1494.30511497968 1386.18987494284 14.9999999999993
      vertex 1494.4232073439 1338.18683663267 15.0
      vertex 1494.55909046082 1386.49457252721 14.9999999999998
   endloop
endfacet
facet normal -2.90058378586716e-15 2.97703233357822e-15 1.0
   outer loop
      vertex 1494.55909046082 1386.49457252721 14.9999999999998
      vertex 1494.4232073439 1338.18683663267 15.0
      vertex 1494.6847476166 1337.88860710915 15.0
   endloop
endfacet
facet normal -2.90058378586716e-15 2.97703233357822e-15 1.0
   outer loop
      vertex 1494.55909046082 1386.49457252721 14.9999999999998
      vertex 1494.6847476166 1337.88860710915 15.0
      vertex 1494.85066416197 1386.76351292904 14.9999999999998
   endloop
endfacet
facet normal -2.90058378586716e-15 2.97703233357822e-15 1.0
   outer loop
      vertex 1494.85066416197 1386.76351292904 14.9999999999998
      vertex 1494.6847476166 1337.88860710915 15.0
      vertex 1494.98297714012 1337.62706683646 15.0
   endloop
endfacet
facet normal -2.90058378586716e-15 2.97703233357822e-15 1.0
   outer loop
      vertex 1494.85066416197 1386.76351292904 14.9999999999998
      vertex 1494.98297714012 1337.62706683646 15.0
      vertex 1495.17484717627 1386.99209450348 14.9999999999996
   endloop
endfacet
facet normal -2.90058378586716e-15 2.97703233357822e-15 1.0
   outer loop
      vertex 1495.17484717627 1386.99209450348 14.9999999999996
      vertex 1494.98297714012 1337.62706683646 15.0
      vertex 1495.31279312462 1337.40669084116 15.0
   endloop
endfacet
facet normal -2.90058378586716e-15 2.97703233357822e-15 1.0
   outer loop
      vertex 1495.17484717627 1386.99209450348 14.9999999999996
      vertex 1495.31279312462 1337.40669084116 15.0
      vertex 1495.52609264247 1387.17640615643 14.9999999999996
   endloop
endfacet
facet normal -2.90058378586716e-15 2.97703233357822e-15 1.0
   outer loop
      vertex 1495.52609264247 1387.17640615643 14.9999999999996
      vertex 1495.31279312462 1337.40669084116 15.0
      vertex 1495.66855232719 1337.23124981765 15.0
   endloop
endfacet
facet normal -2.90058378586716e-15 2.97703233357822e-15 1.0
   outer loop
      vertex 1495.52609264247 1387.17640615643 14.9999999999996
      vertex 1495.66855232719 1337.23124981765 15.0
      vertex 1495.89839065325 1387.3132942644 14.9999999999999
   endloop
endfacet
facet normal -2.90058378586716e-15 2.97703233357822e-15 1.0
   outer loop
      vertex 1495.89839065325 1387.3132942644 14.9999999999999
      vertex 1495.66855232719 1337.23124981765 15.0
      vertex 1496.04416760921 1337.10374561047 15.0
   endloop
endfacet
facet normal -2.90058378586716e-15 2.97703233357822e-15 1.0
   outer loop
      vertex 1495.89839065325 1387.3132942644 14.9999999999999
      vertex 1496.04416760921 1337.10374561047 15.0
      vertex 1496.28537108644 1387.40041663391 15.0
   endloop
endfacet
facet normal -2.90058378586716e-15 2.97703233357822e-15 1.0
   outer loop
      vertex 1496.28537108644 1387.40041663391 15.0
      vertex 1496.04416760921 1337.10374561047 15.0
      vertex 1496.43321208908 1337.02635985197 15.0
   endloop
endfacet
facet normal -2.90058378586716e-15 2.97703233357822e-15 1.0
   outer loop
      vertex 1496.28537108644 1387.40041663391 15.0
      vertex 1496.43321208908 1337.02635985197 15.0
      vertex 1510.59467837071 1365.78934011072 15.0
   endloop
endfacet
facet normal -2.90058378586716e-15 2.97703233357822e-15 1.0
   outer loop
      vertex 1496.28537108644 1387.40041663391 15.0
      vertex 1510.59467837071 1365.78934011072 15.0
      vertex 1511.80984719465 1367.84161674922 15.0
   endloop
endfacet
facet normal -2.90058378586716e-15 2.97703233357822e-15 1.0
   outer loop
      vertex 1496.28537108644 1387.40041663391 15.0
      vertex 1511.80984719465 1367.84161674922 15.0
      vertex 1513.51477842486 1369.50945492239 15.0
   endloop
endfacet
facet normal -2.90058378586716e-15 2.97703233357822e-15 1.0
   outer loop
      vertex 1496.28537108644 1387.40041663391 15.0
      vertex 1513.51477842486 1369.50945492239 15.0
      vertex 1541.5986150236 1387.40041663391 15.0
   endloop
endfacet
facet normal -2.90058378586716e-15 2.97703233357822e-15 1.0
   outer loop
      vertex 1510.59467837071 1365.78934011072 15.0
      vertex 1496.43321208908 1337.02635985197 15.0
      vertex 1496.82902910789 1337.00041663391 15.0
   endloop
endfacet
facet normal -2.90058378586716e-15 2.97703233357822e-15 1.0
   outer loop
      vertex 1510.59467837071 1365.78934011072 15.0
      vertex 1496.82902910789 1337.00041663391 15.0
      vertex 1509.95208370023 1363.49248426825 15.0
   endloop
endfacet
facet normal -2.90058378586716e-15 2.97703233357822e-15 1.0
   outer loop
      vertex 1509.95208370023 1363.49248426825 15.0
      vertex 1496.82902910789 1337.00041663391 15.0
      vertex 1509.92585494806 1361.10757615174 15.0
   endloop
endfacet
facet normal -2.90058378586716e-15 2.97703233357822e-15 1.0
   outer loop
      vertex 1541.5986150236 1387.40041663391 15.0
      vertex 1513.51477842486 1369.50945492239 15.0
      vertex 1515.59328381554 1370.67919421496 15.0
   endloop
endfacet
facet normal -2.90058378586716e-15 2.97703233357822e-15 1.0
   outer loop
      vertex 1541.5986150236 1387.40041663391 15.0
      vertex 1515.59328381554 1370.67919421496 15.0
      vertex 1517.90371665919 1371.27111882722 15.0
   endloop
endfacet
facet normal -2.90058378586716e-15 2.97703233357822e-15 1.0
   outer loop
      vertex 1541.5986150236 1387.40041663391 15.0
      vertex 1517.90371665919 1371.27111882722 15.0
      vertex 1520.2886247757 1371.24489007505 15.0
   endloop
endfacet
facet normal -2.90058378586716e-15 2.97703233357822e-15 1.0
   outer loop
      vertex 1541.5986150236 1387.40041663391 15.0
      vertex 1520.2886247757 1371.24489007505 15.0
      vertex 1522.58548061817 1370.60229540456 15.0
   endloop
endfacet
facet normal -2.90058378586716e-15 2.97703233357822e-15 1.0
   outer loop
      vertex 1541.5986150236 1387.40041663391 15.0
      vertex 1522.58548061817 1370.60229540456 15.0
      vertex 1524.63775725667 1369.38712658062 15.0
   endloop
endfacet
facet normal -2.90058378586716e-15 2.97703233357822e-15 1.0
   outer loop
      vertex 1541.5986150236 1387.40041663391 15.0
      vertex 1524.63775725667 1369.38712658062 15.0
      vertex 1526.30559542984 1367.68219535041 15.0
   endloop
endfacet
facet normal -2.90058378586716e-15 2.97703233357822e-15 1.0
   outer loop
      vertex 1541.5986150236 1387.40041663391 15.0
      vertex 1526.30559542984 1367.68219535041 15.0
      vertex 1527.4753347224 1365.60368995974 15.0
   endloop
endfacet
facet normal -2.90058378586716e-15 2.97703233357822e-15 1.0
   outer loop
      vertex 1541.5986150236 1387.40041663391 15.0
      vertex 1527.4753347224 1365.60368995974 15.0
      vertex 1528.06725933466 1363.29325711609 15.0
   endloop
endfacet
facet normal -2.90058378586716e-15 2.97703233357822e-15 1.0
   outer loop
      vertex 1541.5986150236 1387.40041663391 15.0
      vertex 1528.06725933466 1363.29325711609 15.0
      vertex 1541.19246245515 1337.00041663392 15.0
   endloop
endfacet
facet normal -2.90058378586716e-15 2.97703233357822e-15 1.0
   outer loop
      vertex 1541.5986150236 1387.40041663391 15.0
      vertex 1541.19246245515 1337.00041663392 15.0
      vertex 1541.58827947395 1337.02635985197 15.0
   endloop
endfacet
facet normal -2.90058378586716e-15 2.97703233357822e-15 1.0
   outer loop
      vertex 1541.5986150236 1387.40041663391 15.0
      vertex 1541.58827947395 1337.02635985197 15.0
      vertex 1541.97732395382 1337.10374561048 15.0
   endloop
endfacet
facet normal -2.90058378586716e-15 2.97703233357822e-15 1.0
   outer loop
      vertex 1541.5986150236 1387.40041663391 15.0
      vertex 1541.97732395382 1337.10374561048 15.0
      vertex 1541.98765950347 1387.32303087541 15.0
   endloop
endfacet
facet normal -2.90058378586716e-15 2.97703233357822e-15 1.0
   outer loop
      vertex 1541.98765950347 1387.32303087541 15.0
      vertex 1541.97732395382 1337.10374561048 15.0
      vertex 1542.35293923585 1337.23124981765 15.0
   endloop
endfacet
facet normal -2.90058378586716e-15 2.97703233357822e-15 1.0
   outer loop
      vertex 1541.98765950347 1387.32303087541 15.0
      vertex 1542.35293923585 1337.23124981765 15.0
      vertex 1542.3632747855 1387.19552666823 15.0
   endloop
endfacet
facet normal -2.90058378586716e-15 2.97703233357822e-15 1.0
   outer loop
      vertex 1542.3632747855 1387.19552666823 15.0
      vertex 1542.35293923585 1337.23124981765 15.0
      vertex 1542.70869843841 1337.40669084117 15.0
   endloop
endfacet
facet normal -2.90058378586716e-15 2.97703233357822e-15 1.0
   outer loop
      vertex 1542.3632747855 1387.19552666823 15.0
      vertex 1542.70869843841 1337.40669084117 15.0
      vertex 1542.71903398806 1387.02008564472 15.0
   endloop
endfacet
facet normal -2.90058378586716e-15 2.97703233357822e-15 1.0
   outer loop
      vertex 1542.71903398806 1387.02008564472 15.0
      vertex 1542.70869843841 1337.40669084117 15.0
      vertex 1543.03851442292 1337.62706683646 15.0
   endloop
endfacet
facet normal -2.90058378586716e-15 2.97703233357822e-15 1.0
   outer loop
      vertex 1542.71903398806 1387.02008564472 15.0
      vertex 1543.03851442292 1337.62706683646 15.0
      vertex 1543.04884997257 1386.79970964942 15.0
   endloop
endfacet
facet normal -2.90058378586716e-15 2.97703233357822e-15 1.0
   outer loop
      vertex 1543.04884997257 1386.79970964942 15.0
      vertex 1543.03851442292 1337.62706683646 15.0
      vertex 1543.33674394643 1337.88860710915 15.0
   endloop
endfacet
facet normal -2.90058378586716e-15 2.97703233357822e-15 1.0
   outer loop
      vertex 1543.04884997257 1386.79970964942 15.0
      vertex 1543.33674394643 1337.88860710915 15.0
      vertex 1543.34707949609 1386.53816937673 15.0
   endloop
endfacet
facet normal -2.90058378586716e-15 2.97703233357822e-15 1.0
   outer loop
      vertex 1543.34707949609 1386.53816937673 15.0
      vertex 1543.33674394643 1337.88860710915 15.0
      vertex 1543.59828421913 1338.18683663267 15.0
   endloop
endfacet
facet normal -2.90058378586716e-15 2.97703233357822e-15 1.0
   outer loop
      vertex 1543.34707949609 1386.53816937673 15.0
      vertex 1543.59828421913 1338.18683663267 15.0
      vertex 1543.60861976878 1386.23993985321 15.0
   endloop
endfacet
facet normal -2.90058378586716e-15 2.97703233357822e-15 1.0
   outer loop
      vertex 1543.60861976878 1386.23993985321 15.0
      vertex 1543.59828421913 1338.18683663267 15.0
      vertex 1543.81866021442 1338.51665261718 15.0
   endloop
endfacet
facet normal -2.90058378586716e-15 2.97703233357822e-15 1.0
   outer loop
      vertex 1543.60861976878 1386.23993985321 15.0
      vertex 1543.81866021442 1338.51665261718 15.0
      vertex 1543.82899576407 1385.9101238687 15.0
   endloop
endfacet
facet normal -2.90058378586716e-15 2.97703233357822e-15 1.0
   outer loop
      vertex 1543.82899576407 1385.9101238687 15.0
      vertex 1543.81866021442 1338.51665261718 15.0
      vertex 1543.99410123793 1338.87241181974 15.0
   endloop
endfacet
facet normal -2.90058378586716e-15 2.97703233357822e-15 1.0
   outer loop
      vertex 1543.82899576407 1385.9101238687 15.0
      vertex 1543.99410123793 1338.87241181974 15.0
      vertex 1544.00443678759 1385.55436466614 15.0
   endloop
endfacet
facet normal -2.90058378586716e-15 2.97703233357822e-15 1.0
   outer loop
      vertex 1544.00443678759 1385.55436466614 15.0
      vertex 1543.99410123793 1338.87241181974 15.0
      vertex 1544.12160544511 1339.24802710176 15.0
   endloop
endfacet
facet normal -2.90058378586716e-15 2.97703233357822e-15 1.0
   outer loop
      vertex 1544.00443678759 1385.55436466614 15.0
      vertex 1544.12160544511 1339.24802710176 15.0
      vertex 1544.13194099476 1385.17874938412 15.0
   endloop
endfacet
facet normal -2.90058378586716e-15 2.97703233357822e-15 1.0
   outer loop
      vertex 1544.13194099476 1385.17874938412 15.0
      vertex 1544.12160544511 1339.24802710176 15.0
      vertex 1544.19899120362 1339.63707158164 15.0
   endloop
endfacet
facet normal -2.90058378586716e-15 2.97703233357822e-15 1.0
   outer loop
      vertex 1544.13194099476 1385.17874938412 15.0
      vertex 1544.19899120362 1339.63707158164 15.0
      vertex 1544.20932675327 1384.78970490425 15.0
   endloop
endfacet
facet normal -0.0 1.0 -0.0
   outer loop
      vertex 1496.28537108644 1387.40041663391 15.0
      vertex 1541.5986150236 1387.40041663391 0.0
      vertex 1496.28537108644 1387.40041663391 0.0
   endloop
endfacet
facet normal -0.0 1.0 -0.0
   outer loop
      vertex 1541.5986150236 1387.40041663391 0.0
      vertex 1496.28537108644 1387.40041663391 15.0
      vertex 1541.5986150236 1387.40041663391 15.0
   endloop
endfacet
facet normal 0.195090322016971 0.980785280403063 -0.0
   outer loop
      vertex 1541.5986150236 1387.40041663391 15.0
      vertex 1541.98765950347 1387.32303087541 0.0
      vertex 1541.5986150236 1387.40041663391 0.0
   endloop
endfacet
facet normal 0.195090322016971 0.980785280403063 -0.0
   outer loop
      vertex 1541.98765950347 1387.32303087541 0.0
      vertex 1541.5986150236 1387.40041663391 15.0
      vertex 1541.98765950347 1387.32303087541 15.0
   endloop
endfacet
facet normal 0.321439465304046 0.946930129494806 -1.88667951194672e-15
   outer loop
      vertex 1541.98765950347 1387.32303087541 15.0
      vertex 1542.3632747855 1387.19552666823 0.0
      vertex 1541.98765950347 1387.32303087541 0.0
   endloop
endfacet
facet normal 0.321439465304046 0.946930129494806 -1.88667951194672e-15
   outer loop
      vertex 1542.3632747855 1387.19552666823 0.0
      vertex 1541.98765950347 1387.32303087541 15.0
      vertex 1542.3632747855 1387.19552666823 15.0
   endloop
endfacet
facet normal 0.442288690217113 0.896872741533619 -1.38712374713434e-15
   outer loop
      vertex 1542.3632747855 1387.19552666823 15.0
      vertex 1542.71903398806 1387.02008564472 0.0
      vertex 1542.3632747855 1387.19552666823 0.0
   endloop
endfacet
facet normal 0.442288690217113 0.896872741533619 -1.38712374713434e-15
   outer loop
      vertex 1542.71903398806 1387.02008564472 0.0
      vertex 1542.3632747855 1387.19552666823 15.0
      vertex 1542.71903398806 1387.02008564472 15.0
   endloop
endfacet
facet normal 0.555570233019238 0.831469612302789 -8.63833910407103e-16
   outer loop
      vertex 1542.71903398806 1387.02008564472 15.0
      vertex 1543.04884997257 1386.79970964942 0.0
      vertex 1542.71903398806 1387.02008564472 0.0
   endloop
endfacet
facet normal 0.555570233019238 0.831469612302789 -8.63833910407103e-16
   outer loop
      vertex 1543.04884997257 1386.79970964942 0.0
      vertex 1542.71903398806 1387.02008564472 15.0
      vertex 1543.04884997257 1386.79970964942 15.0
   endloop
endfacet
facet normal 0.659345815102391 0.751839807476941 -3.25763635964711e-16
   outer loop
      vertex 1543.04884997257 1386.79970964942 15.0
      vertex 1543.34707949609 1386.53816937673 0.0
      vertex 1543.04884997257 1386.79970964942 0.0
   endloop
endfacet
facet normal 0.659345815102391 0.751839807476941 -3.25763635964711e-16
   outer loop
      vertex 1543.34707949609 1386.53816937673 0.0
      vertex 1543.04884997257 1386.79970964942 15.0
      vertex 1543.34707949609 1386.53816937673 15.0
   endloop
endfacet
facet normal 0.751839807475813 0.659345815103677 2.17880544560702e-16
   outer loop
      vertex 1543.34707949609 1386.53816937673 0.0
      vertex 1543.60861976878 1386.23993985321 15.0
      vertex 1543.60861976878 1386.23993985321 0.0
   endloop
endfacet
facet normal 0.751839807475813 0.659345815103677 2.17880544560702e-16
   outer loop
      vertex 1543.60861976878 1386.23993985321 15.0
      vertex 1543.34707949609 1386.53816937673 0.0
      vertex 1543.34707949609 1386.53816937673 15.0
   endloop
endfacet
facet normal 0.831469612304611 0.555570233016511 7.57796728628271e-16
   outer loop
      vertex 1543.60861976878 1386.23993985321 0.0
      vertex 1543.82899576407 1385.9101238687 15.0
      vertex 1543.82899576407 1385.9101238687 0.0
   endloop
endfacet
facet normal 0.831469612304611 0.555570233016511 7.57796728628271e-16
   outer loop
      vertex 1543.82899576407 1385.9101238687 15.0
      vertex 1543.60861976878 1386.23993985321 0.0
      vertex 1543.60861976878 1386.23993985321 15.0
   endloop
endfacet
facet normal 0.896872741531461 0.44228869022149 1.28474680050705e-15
   outer loop
      vertex 1543.82899576407 1385.9101238687 0.0
      vertex 1544.00443678759 1385.55436466614 15.0
      vertex 1544.00443678759 1385.55436466614 0.0
   endloop
endfacet
facet normal 0.896872741531461 0.44228869022149 1.28474680050705e-15
   outer loop
      vertex 1544.00443678759 1385.55436466614 15.0
      vertex 1543.82899576407 1385.9101238687 0.0
      vertex 1543.82899576407 1385.9101238687 15.0
   endloop
endfacet
facet normal 0.946930129495221 0.321439465302822 1.78971449846834e-15
   outer loop
      vertex 1544.00443678759 1385.55436466614 0.0
      vertex 1544.13194099476 1385.17874938412 15.0
      vertex 1544.13194099476 1385.17874938412 0.0
   endloop
endfacet
facet normal 0.946930129495221 0.321439465302822 1.78971449846834e-15
   outer loop
      vertex 1544.13194099476 1385.17874938412 15.0
      vertex 1544.00443678759 1385.55436466614 0.0
      vertex 1544.00443678759 1385.55436466614 15.0
   endloop
endfacet
facet normal 0.980785280402993 0.195090322017324 -0.0
   outer loop
      vertex 1544.13194099476 1385.17874938412 0.0
      vertex 1544.20932675327 1384.78970490425 15.0
      vertex 1544.20932675327 1384.78970490425 0.0
   endloop
endfacet
facet normal 0.980785280402993 0.195090322017324 -0.0
   outer loop
      vertex 1544.20932675327 1384.78970490425 15.0
      vertex 1544.13194099476 1385.17874938412 0.0
      vertex 1544.13194099476 1385.17874938412 15.0
   endloop
endfacet
facet normal 0.999999973801829 -0.000228902471932026 -0.0
   outer loop
      vertex 1544.20932675327 1384.78970490425 0.0
      vertex 1544.19899120362 1339.63707158164 15.0
      vertex 1544.19899120362 1339.63707158164 0.0
   endloop
endfacet
facet normal 0.999999973801829 -0.000228902471932026 -0.0
   outer loop
      vertex 1544.19899120362 1339.63707158164 15.0
      vertex 1544.20932675327 1384.78970490425 0.0
      vertex 1544.20932675327 1384.78970490425 15.0
   endloop
endfacet
facet normal 0.980785280402783 -0.19509032201838 -0.0
   outer loop
      vertex 1544.19899120362 1339.63707158164 0.0
      vertex 1544.12160544511 1339.24802710176 15.0
      vertex 1544.12160544511 1339.24802710176 0.0
   endloop
endfacet
facet normal 0.980785280402783 -0.19509032201838 -0.0
   outer loop
      vertex 1544.12160544511 1339.24802710176 15.0
      vertex 1544.19899120362 1339.63707158164 0.0
      vertex 1544.19899120362 1339.63707158164 15.0
   endloop
endfacet
facet normal 0.946930129496139 -0.321439465300119 3.70358586145214e-15
   outer loop
      vertex 1544.12160544511 1339.24802710176 0.0
      vertex 1543.99410123793 1338.87241181974 15.0
      vertex 1543.99410123793 1338.87241181974 0.0
   endloop
endfacet
facet normal 0.946930129496139 -0.321439465300119 3.70358586145214e-15
   outer loop
      vertex 1543.99410123793 1338.87241181974 15.0
      vertex 1544.12160544511 1339.24802710176 0.0
      vertex 1544.12160544511 1339.24802710176 15.0
   endloop
endfacet
facet normal 0.896872741533246 -0.44228869021787 3.91816226363213e-15
   outer loop
      vertex 1543.99410123793 1338.87241181974 0.0
      vertex 1543.81866021442 1338.51665261718 15.0
      vertex 1543.81866021442 1338.51665261718 0.0
   endloop
endfacet
facet normal 0.896872741533246 -0.44228869021787 3.91816226363213e-15
   outer loop
      vertex 1543.81866021442 1338.51665261718 15.0
      vertex 1543.99410123793 1338.87241181974 0.0
      vertex 1543.99410123793 1338.87241181974 15.0
   endloop
endfacet
facet normal 0.831469612300403 -0.555570233022808 4.06569782316229e-15
   outer loop
      vertex 1543.81866021442 1338.51665261718 0.0
      vertex 1543.59828421913 1338.18683663267 15.0
      vertex 1543.59828421913 1338.18683663267 0.0
   endloop
endfacet
facet normal 0.831469612300403 -0.555570233022808 4.06569782316229e-15
   outer loop
      vertex 1543.59828421913 1338.18683663267 15.0
      vertex 1543.81866021442 1338.51665261718 0.0
      vertex 1543.81866021442 1338.51665261718 15.0
   endloop
endfacet
facet normal 0.751839807478104 -0.659345815101065 4.14366816570583e-15
   outer loop
      vertex 1543.59828421913 1338.18683663267 0.0
      vertex 1543.33674394643 1337.88860710915 15.0
      vertex 1543.33674394643 1337.88860710915 0.0
   endloop
endfacet
facet normal 0.751839807478104 -0.659345815101065 4.14366816570583e-15
   outer loop
      vertex 1543.33674394643 1337.88860710915 15.0
      vertex 1543.59828421913 1338.18683663267 0.0
      vertex 1543.59828421913 1338.18683663267 15.0
   endloop
endfacet
facet normal 0.659345815100884 -0.751839807478263 4.150739197095e-15
   outer loop
      vertex 1543.33674394643 1337.88860710915 15.0
      vertex 1543.03851442292 1337.62706683646 0.0
      vertex 1543.33674394643 1337.88860710915 0.0
   endloop
endfacet
facet normal 0.659345815100884 -0.751839807478263 4.150739197095e-15
   outer loop
      vertex 1543.03851442292 1337.62706683646 0.0
      vertex 1543.33674394643 1337.88860710915 15.0
      vertex 1543.03851442292 1337.62706683646 15.0
   endloop
endfacet
facet normal 0.555570233017242 -0.831469612304122 4.08678993001737e-15
   outer loop
      vertex 1543.03851442292 1337.62706683646 15.0
      vertex 1542.70869843841 1337.40669084117 0.0
      vertex 1543.03851442292 1337.62706683646 0.0
   endloop
endfacet
facet normal 0.555570233017242 -0.831469612304122 4.08678993001737e-15
   outer loop
      vertex 1542.70869843841 1337.40669084117 0.0
      vertex 1543.03851442292 1337.62706683646 15.0
      vertex 1542.70869843841 1337.40669084117 15.0
   endloop
endfacet
facet normal 0.442288690220557 -0.896872741531921 3.95291455417164e-15
   outer loop
      vertex 1542.70869843841 1337.40669084117 15.0
      vertex 1542.35293923585 1337.23124981765 0.0
      vertex 1542.70869843841 1337.40669084117 0.0
   endloop
endfacet
facet normal 0.442288690220557 -0.896872741531921 3.95291455417164e-15
   outer loop
      vertex 1542.35293923585 1337.23124981765 0.0
      vertex 1542.70869843841 1337.40669084117 15.0
      vertex 1542.35293923585 1337.23124981765 15.0
   endloop
endfacet
facet normal 0.321439465303784 -0.946930129494895 3.75140371434368e-15
   outer loop
      vertex 1542.35293923585 1337.23124981765 15.0
      vertex 1541.97732395382 1337.10374561048 0.0
      vertex 1542.35293923585 1337.23124981765 0.0
   endloop
endfacet
facet normal 0.321439465303784 -0.946930129494895 3.75140371434368e-15
   outer loop
      vertex 1541.97732395382 1337.10374561048 0.0
      vertex 1542.35293923585 1337.23124981765 15.0
      vertex 1541.97732395382 1337.10374561048 15.0
   endloop
endfacet
facet normal 0.195090322014613 -0.980785280403532 3.48570531687408e-15
   outer loop
      vertex 1541.97732395382 1337.10374561048 15.0
      vertex 1541.58827947395 1337.02635985197 0.0
      vertex 1541.97732395382 1337.10374561048 0.0
   endloop
endfacet
facet normal 0.195090322014613 -0.980785280403532 3.48570531687408e-15
   outer loop
      vertex 1541.58827947395 1337.02635985197 0.0
      vertex 1541.97732395382 1337.10374561048 15.0
      vertex 1541.58827947395 1337.02635985197 15.0
   endloop
endfacet
facet normal 0.0654031292279247 -0.997858923238749 3.16036553501479e-15
   outer loop
      vertex 1541.58827947395 1337.02635985197 15.0
      vertex 1541.19246245515 1337.00041663392 0.0
      vertex 1541.58827947395 1337.02635985197 0.0
   endloop
endfacet
facet normal 0.0654031292279247 -0.997858923238749 3.16036553501479e-15
   outer loop
      vertex 1541.19246245515 1337.00041663392 0.0
      vertex 1541.58827947395 1337.02635985197 15.0
      vertex 1541.19246245515 1337.00041663392 15.0
   endloop
endfacet
facet normal 6.50906717594584e-14 -1.0 2.97703233357841e-15
   outer loop
      vertex 1541.19246245515 1337.00041663392 15.0
      vertex 1496.82902910789 1337.00041663391 0.0
      vertex 1541.19246245515 1337.00041663392 0.0
   endloop
endfacet
facet normal 6.50906717594584e-14 -1.0 2.97703233357841e-15
   outer loop
      vertex 1496.82902910789 1337.00041663391 0.0
      vertex 1541.19246245515 1337.00041663392 15.0
      vertex 1496.82902910789 1337.00041663391 15.0
   endloop
endfacet
facet normal -0.0654031292301008 -0.997858923238606 2.78095102264107e-15
   outer loop
      vertex 1496.82902910789 1337.00041663391 15.0
      vertex 1496.43321208908 1337.02635985197 0.0
      vertex 1496.82902910789 1337.00041663391 0.0
   endloop
endfacet
facet normal -0.0654031292301008 -0.997858923238606 2.78095102264107e-15
   outer loop
      vertex 1496.43321208908 1337.02635985197 0.0
      vertex 1496.82902910789 1337.00041663391 15.0
      vertex 1496.43321208908 1337.02635985197 15.0
   endloop
endfacet
facet normal -0.195090322016187 -0.980785280403219 2.35395366723821e-15
   outer loop
      vertex 1496.43321208908 1337.02635985197 15.0
      vertex 1496.04416760921 1337.10374561047 0.0
      vertex 1496.43321208908 1337.02635985197 0.0
   endloop
endfacet
facet normal -0.195090322016187 -0.980785280403219 2.35395366723821e-15
   outer loop
      vertex 1496.04416760921 1337.10374561047 0.0
      vertex 1496.43321208908 1337.02635985197 15.0
      vertex 1496.04416760921 1337.10374561047 15.0
   endloop
endfacet
facet normal -0.32143946530323 -0.946930129495083 1.88667951194991e-15
   outer loop
      vertex 1496.04416760921 1337.10374561047 15.0
      vertex 1495.66855232719 1337.23124981765 0.0
      vertex 1496.04416760921 1337.10374561047 0.0
   endloop
endfacet
facet normal -0.32143946530323 -0.946930129495083 1.88667951194991e-15
   outer loop
      vertex 1495.66855232719 1337.23124981765 0.0
      vertex 1496.04416760921 1337.10374561047 15.0
      vertex 1495.66855232719 1337.23124981765 15.0
   endloop
endfacet
facet normal -0.442288690218743 -0.896872741532816 1.38712374712722e-15
   outer loop
      vertex 1495.66855232719 1337.23124981765 15.0
      vertex 1495.31279312462 1337.40669084116 0.0
      vertex 1495.66855232719 1337.23124981765 0.0
   endloop
endfacet
facet normal -0.442288690218743 -0.896872741532816 1.38712374712722e-15
   outer loop
      vertex 1495.31279312462 1337.40669084116 0.0
      vertex 1495.66855232719 1337.23124981765 15.0
      vertex 1495.31279312462 1337.40669084116 15.0
   endloop
endfacet
facet normal -0.555570233019657 -0.831469612302509 8.63833910405054e-16
   outer loop
      vertex 1495.31279312462 1337.40669084116 15.0
      vertex 1494.98297714012 1337.62706683646 0.0
      vertex 1495.31279312462 1337.40669084116 0.0
   endloop
endfacet
facet normal -0.555570233019657 -0.831469612302509 8.63833910405054e-16
   outer loop
      vertex 1494.98297714012 1337.62706683646 0.0
      vertex 1495.31279312462 1337.40669084116 15.0
      vertex 1494.98297714012 1337.62706683646 15.0
   endloop
endfacet
facet normal -0.659345815100203 -0.75183980747886 3.2576363597677e-16
   outer loop
      vertex 1494.98297714012 1337.62706683646 15.0
      vertex 1494.6847476166 1337.88860710915 0.0
      vertex 1494.98297714012 1337.62706683646 0.0
   endloop
endfacet
facet normal -0.659345815100203 -0.75183980747886 3.2576363597677e-16
   outer loop
      vertex 1494.6847476166 1337.88860710915 0.0
      vertex 1494.98297714012 1337.62706683646 15.0
      vertex 1494.6847476166 1337.88860710915 15.0
   endloop
endfacet
facet normal -0.75183980747886 -0.659345815100203 -2.17880544579882e-16
   outer loop
      vertex 1494.4232073439 1338.18683663267 15.0
      vertex 1494.6847476166 1337.88860710915 0.0
      vertex 1494.6847476166 1337.88860710915 15.0
   endloop
endfacet
facet normal -0.75183980747886 -0.659345815100203 -2.17880544579882e-16
   outer loop
      vertex 1494.6847476166 1337.88860710915 0.0
      vertex 1494.4232073439 1338.18683663267 15.0
      vertex 1494.4232073439 1338.18683663267 0.0
   endloop
endfacet
facet normal -0.831469612302649 -0.555570233019447 -7.57796728613844e-16
   outer loop
      vertex 1494.20283134861 1338.51665261718 15.0
      vertex 1494.4232073439 1338.18683663267 0.0
      vertex 1494.4232073439 1338.18683663267 15.0
   endloop
endfacet
facet normal -0.831469612302649 -0.555570233019447 -7.57796728613844e-16
   outer loop
      vertex 1494.4232073439 1338.18683663267 0.0
      vertex 1494.20283134861 1338.51665261718 15.0
      vertex 1494.20283134861 1338.51665261718 0.0
   endloop
endfacet
facet normal -0.896872741532546 -0.442288690219289 -1.28474680051675e-15
   outer loop
      vertex 1494.0273903251 1338.87241181974 15.0
      vertex 1494.20283134861 1338.51665261718 0.0
      vertex 1494.20283134861 1338.51665261718 15.0
   endloop
endfacet
facet normal -0.896872741532546 -0.442288690219289 -1.28474680051675e-15
   outer loop
      vertex 1494.20283134861 1338.51665261718 0.0
      vertex 1494.0273903251 1338.87241181974 15.0
      vertex 1494.0273903251 1338.87241181974 0.0
   endloop
endfacet
facet normal -0.946930129495083 -0.32143946530323 -1.78971449846672e-15
   outer loop
      vertex 1493.89988611792 1339.24802710176 15.0
      vertex 1494.0273903251 1338.87241181974 0.0
      vertex 1494.0273903251 1338.87241181974 15.0
   endloop
endfacet
facet normal -0.946930129495083 -0.32143946530323 -1.78971449846672e-15
   outer loop
      vertex 1494.0273903251 1338.87241181974 0.0
      vertex 1493.89988611792 1339.24802710176 15.0
      vertex 1493.89988611792 1339.24802710176 0.0
   endloop
endfacet
facet normal -0.980785280403306 -0.195090322015749 -2.26405968514594e-15
   outer loop
      vertex 1493.82250035942 1339.63707158163 15.0
      vertex 1493.89988611792 1339.24802710176 0.0
      vertex 1493.89988611792 1339.24802710176 15.0
   endloop
endfacet
facet normal -0.980785280403306 -0.195090322015749 -2.26405968514594e-15
   outer loop
      vertex 1493.89988611792 1339.24802710176 0.0
      vertex 1493.82250035942 1339.63707158163 15.0
      vertex 1493.82250035942 1339.63707158163 0.0
   endloop
endfacet
facet normal -0.997858923238577 -0.0654031292305538 -2.69966618289213e-15
   outer loop
      vertex 1493.79655714136 1340.03288860044 15.0
      vertex 1493.82250035942 1339.63707158163 0.0
      vertex 1493.82250035942 1339.63707158163 15.0
   endloop
endfacet
facet normal -0.997858923238577 -0.0654031292305538 -2.69966618289213e-15
   outer loop
      vertex 1493.82250035942 1339.63707158163 0.0
      vertex 1493.79655714136 1340.03288860044 15.0
      vertex 1493.79655714136 1340.03288860044 0.0
   endloop
endfacet
facet normal -1.0 4.00941929900858e-15 -3.33743455129283e-31
   outer loop
      vertex 1493.79655714136 1385.04635349988 14.9999999999998
      vertex 1493.79655714136 1340.03288860044 0.0
      vertex 1493.79655714136 1340.03288860044 15.0
   endloop
endfacet
facet normal -1.0 4.00941929900858e-15 -3.33743455129283e-31
   outer loop
      vertex 1493.79655714136 1340.03288860044 0.0
      vertex 1493.79655714136 1385.04635349988 14.9999999999998
      vertex 1493.79655714136 1385.04635349988 -1.75841272854599e-13
   endloop
endfacet
facet normal -0.985371274166577 0.170421395509297 -2.43223916627979e-20
   outer loop
      vertex 1493.80858333947 1385.11588860795 14.9999999999996
      vertex 1493.79655714136 1385.04635349988 -1.75841272854599e-13
      vertex 1493.79655714136 1385.04635349988 14.9999999999998
   endloop
endfacet
facet normal -0.985371274166577 0.170421395509297 -2.43223916627979e-20
   outer loop
      vertex 1493.79655714136 1385.04635349988 -1.75841272854599e-13
      vertex 1493.80858333947 1385.11588860795 14.9999999999996
      vertex 1493.80858333947 1385.11588860795 -3.49675843835939e-13
   endloop
endfacet
facet normal -0.954696830487926 0.297580177189792 -3.655083956258e-15
   outer loop
      vertex 1493.92662337083 1385.49458467861 14.9999999999998
      vertex 1493.80858333947 1385.11588860795 -3.49675843835939e-13
      vertex 1493.80858333947 1385.11588860795 14.9999999999996
   endloop
endfacet
facet normal -0.954696830487926 0.297580177189792 -3.655083956258e-15
   outer loop
      vertex 1493.80858333947 1385.11588860795 -3.49675843835939e-13
      vertex 1493.92662337083 1385.49458467861 14.9999999999998
      vertex 1493.92662337083 1385.49458467861 -2.1431745267364e-13
   endloop
endfacet
facet normal -0.907687259349543 0.419647279527124 -3.88212646695787e-15
   outer loop
      vertex 1494.09308330947 1385.85463363607 14.9999999999995
      vertex 1493.92662337083 1385.49458467861 -2.1431745267364e-13
      vertex 1493.92662337083 1385.49458467861 14.9999999999998
   endloop
endfacet
facet normal -0.907687259349543 0.419647279527124 -3.88212646695787e-15
   outer loop
      vertex 1493.92662337083 1385.49458467861 -2.1431745267364e-13
      vertex 1494.09308330947 1385.85463363607 14.9999999999995
      vertex 1494.09308330947 1385.85463363607 -4.73754369068047e-13
   endloop
endfacet
facet normal -0.845146907544081 0.534534100566725 -4.04274471748543e-15
   outer loop
      vertex 1494.30511497968 1386.18987494284 14.9999999999993
      vertex 1494.09308330947 1385.85463363607 -4.73754369068047e-13
      vertex 1494.09308330947 1385.85463363607 14.9999999999995
   endloop
endfacet
facet normal -0.845146907544081 0.534534100566725 -4.04274471748543e-15
   outer loop
      vertex 1494.09308330947 1385.85463363607 -4.73754369068047e-13
      vertex 1494.30511497968 1386.18987494284 14.9999999999993
      vertex 1494.30511497968 1386.18987494284 -6.54232223951112e-13
   endloop
endfacet
facet normal -0.768145857831395 0.640274894944719 -4.13419048503559e-15
   outer loop
      vertex 1494.55909046082 1386.49457252721 14.9999999999998
      vertex 1494.30511497968 1386.18987494284 -6.54232223951112e-13
      vertex 1494.30511497968 1386.18987494284 14.9999999999993
   endloop
endfacet
facet normal -0.768145857831395 0.640274894944719 -4.13419048503559e-15
   outer loop
      vertex 1494.30511497968 1386.18987494284 -6.54232223951112e-13
      vertex 1494.55909046082 1386.49457252721 14.9999999999998
      vertex 1494.55909046082 1386.49457252721 -2.36877184534023e-13
   endloop
endfacet
facet normal -0.67800161952099 0.735060408352208 -4.15489910717199e-15
   outer loop
      vertex 1494.55909046082 1386.49457252721 14.9999999999998
      vertex 1494.85066416197 1386.76351292904 -2.1431745267364e-13
      vertex 1494.55909046082 1386.49457252721 -2.36877184534023e-13
   endloop
endfacet
facet normal -0.67800161952099 0.735060408352208 -4.15489910717199e-15
   outer loop
      vertex 1494.85066416197 1386.76351292904 -2.1431745267364e-13
      vertex 1494.55909046082 1386.49457252721 14.9999999999998
      vertex 1494.85066416197 1386.76351292904 14.9999999999998
   endloop
endfacet
facet normal -0.576256585524397 0.817268834374445 -4.10451625362974e-15
   outer loop
      vertex 1494.85066416197 1386.76351292904 -2.1431745267364e-13
      vertex 1495.17484717627 1386.99209450348 14.9999999999996
      vertex 1495.17484717627 1386.99209450348 -3.49675843835939e-13
   endloop
endfacet
facet normal -0.576256585524397 0.817268834374445 -4.10451625362974e-15
   outer loop
      vertex 1495.17484717627 1386.99209450348 14.9999999999996
      vertex 1494.85066416197 1386.76351292904 -2.1431745267364e-13
      vertex 1494.85066416197 1386.76351292904 14.9999999999998
   endloop
endfacet
facet normal -0.464651641580633 0.885493564051384 -3.98390398900173e-15
   outer loop
      vertex 1495.17484717627 1386.99209450348 -3.49675843835939e-13
      vertex 1495.52609264247 1387.17640615643 14.9999999999996
      vertex 1495.52609264247 1387.17640615643 -4.06075173486897e-13
   endloop
endfacet
facet normal -0.464651641580633 0.885493564051384 -3.98390398900173e-15
   outer loop
      vertex 1495.52609264247 1387.17640615643 14.9999999999996
      vertex 1495.17484717627 1386.99209450348 -3.49675843835939e-13
      vertex 1495.17484717627 1386.99209450348 14.9999999999996
   endloop
endfacet
facet normal -0.345096379220404 0.938567253343609 -3.79512602256979e-15
   outer loop
      vertex 1495.52609264247 1387.17640615643 14.9999999999996
      vertex 1495.89839065325 1387.3132942644 -1.12798659301916e-13
      vertex 1495.52609264247 1387.17640615643 -4.06075173486897e-13
   endloop
endfacet
facet normal -0.345096379220404 0.938567253343609 -3.79512602256979e-15
   outer loop
      vertex 1495.89839065325 1387.3132942644 -1.12798659301916e-13
      vertex 1495.52609264247 1387.17640615643 14.9999999999996
      vertex 1495.89839065325 1387.3132942644 14.9999999999999
   endloop
endfacet
facet normal -0.219636422137625 0.975581796709319 -1.56655140598164e-19
   outer loop
      vertex 1495.89839065325 1387.3132942644 14.9999999999999
      vertex 1496.28537108644 1387.40041663391 0.0
      vertex 1495.89839065325 1387.3132942644 -1.12798659301916e-13
   endloop
endfacet
facet normal -0.219636422137625 0.975581796709319 -1.56655140598164e-19
   outer loop
      vertex 1496.28537108644 1387.40041663391 0.0
      vertex 1495.89839065325 1387.3132942644 14.9999999999999
      vertex 1496.28537108644 1387.40041663391 15.0
   endloop
endfacet
facet normal 0.699287870609165 -0.714840173758372 4.15644536976186e-15
   outer loop
      vertex 1513.51477842486 1369.50945492239 15.0
      vertex 1511.80984719465 1367.84161674922 0.0
      vertex 1513.51477842486 1369.50945492239 0.0
   endloop
endfacet
facet normal 0.699287870609165 -0.714840173758372 4.15644536976186e-15
   outer loop
      vertex 1511.80984719465 1367.84161674922 0.0
      vertex 1513.51477842486 1369.50945492239 15.0
      vertex 1511.80984719465 1367.84161674922 15.0
   endloop
endfacet
facet normal 0.860474465405124 -0.509493566579369 4.01265710396369e-15
   outer loop
      vertex 1511.80984719465 1367.84161674922 0.0
      vertex 1510.59467837071 1365.78934011072 15.0
      vertex 1510.59467837071 1365.78934011072 0.0
   endloop
endfacet
facet normal 0.860474465405124 -0.509493566579369 4.01265710396369e-15
   outer loop
      vertex 1510.59467837071 1365.78934011072 15.0
      vertex 1511.80984719465 1367.84161674922 0.0
      vertex 1511.80984719465 1367.84161674922 15.0
   endloop
endfacet
facet normal 0.963021147385023 -0.269425814815942 3.59541288775991e-15
   outer loop
      vertex 1510.59467837071 1365.78934011072 0.0
      vertex 1509.95208370023 1363.49248426825 15.0
      vertex 1509.95208370023 1363.49248426825 0.0
   endloop
endfacet
facet normal 0.963021147385023 -0.269425814815942 3.59541288775991e-15
   outer loop
      vertex 1509.95208370023 1363.49248426825 15.0
      vertex 1510.59467837071 1365.78934011072 0.0
      vertex 1510.59467837071 1365.78934011072 15.0
   endloop
endfacet
facet normal 0.999939529638356 -0.0109971390199184 2.93314722495581e-15
   outer loop
      vertex 1509.95208370023 1363.49248426825 0.0
      vertex 1509.92585494806 1361.10757615174 15.0
      vertex 1509.92585494806 1361.10757615174 0.0
   endloop
endfacet
facet normal 0.999939529638356 -0.0109971390199184 2.93314722495581e-15
   outer loop
      vertex 1509.92585494806 1361.10757615174 15.0
      vertex 1509.95208370023 1363.49248426825 0.0
      vertex 1509.95208370023 1363.49248426825 15.0
   endloop
endfacet
facet normal 0.968713685425025 0.248180973626638 2.07099242602603e-15
   outer loop
      vertex 1509.92585494806 1361.10757615174 0.0
      vertex 1510.51777956032 1358.79714330809 15.0
      vertex 1510.51777956032 1358.79714330809 0.0
   endloop
endfacet
facet normal 0.968713685425025 0.248180973626638 2.07099242602603e-15
   outer loop
      vertex 1510.51777956032 1358.79714330809 15.0
      vertex 1509.92585494806 1361.10757615174 0.0
      vertex 1509.92585494806 1361.10757615174 15.0
   endloop
endfacet
facet normal 0.871471604425055 0.49044596305895 1.06770291573956e-15
   outer loop
      vertex 1510.51777956032 1358.79714330809 0.0
      vertex 1511.68751885288 1356.71863791742 15.0
      vertex 1511.68751885288 1356.71863791742 0.0
   endloop
endfacet
facet normal 0.871471604425055 0.49044596305895 1.06770291573956e-15
   outer loop
      vertex 1511.68751885288 1356.71863791742 15.0
      vertex 1510.51777956032 1358.79714330809 0.0
      vertex 1510.51777956032 1358.79714330809 15.0
   endloop
endfacet
facet normal 0.714840173758372 0.699287870609165 -8.34878379254299e-18
   outer loop
      vertex 1511.68751885288 1356.71863791742 0.0
      vertex 1513.35535702605 1355.01370668721 15.0
      vertex 1513.35535702605 1355.01370668721 0.0
   endloop
endfacet
facet normal 0.714840173758372 0.699287870609165 -8.34878379254299e-18
   outer loop
      vertex 1513.35535702605 1355.01370668721 15.0
      vertex 1511.68751885288 1356.71863791742 0.0
      vertex 1511.68751885288 1356.71863791742 15.0
   endloop
endfacet
facet normal 0.509493566579369 0.860474465405124 -1.08383152750574e-15
   outer loop
      vertex 1513.35535702605 1355.01370668721 15.0
      vertex 1515.40763366456 1353.79853786326 0.0
      vertex 1513.35535702605 1355.01370668721 0.0
   endloop
endfacet
facet normal 0.509493566579369 0.860474465405124 -1.08383152750574e-15
   outer loop
      vertex 1515.40763366456 1353.79853786326 0.0
      vertex 1513.35535702605 1355.01370668721 15.0
      vertex 1515.40763366456 1353.79853786326 15.0
   endloop
endfacet
facet normal 0.269425814815942 0.963021147385023 -2.08545294373564e-15
   outer loop
      vertex 1515.40763366456 1353.79853786326 15.0
      vertex 1517.70448950703 1353.15594319278 0.0
      vertex 1515.40763366456 1353.79853786326 0.0
   endloop
endfacet
facet normal 0.269425814815942 0.963021147385023 -2.08545294373564e-15
   outer loop
      vertex 1517.70448950703 1353.15594319278 0.0
      vertex 1515.40763366456 1353.79853786326 15.0
      vertex 1517.70448950703 1353.15594319278 15.0
   endloop
endfacet
facet normal 0.0109971390199184 0.999939529638356 -2.94495418822428e-15
   outer loop
      vertex 1517.70448950703 1353.15594319278 15.0
      vertex 1520.08939762354 1353.12971444061 0.0
      vertex 1517.70448950703 1353.15594319278 0.0
   endloop
endfacet
facet normal 0.0109971390199184 0.999939529638356 -2.94495418822428e-15
   outer loop
      vertex 1520.08939762354 1353.12971444061 0.0
      vertex 1517.70448950703 1353.15594319278 15.0
      vertex 1520.08939762354 1353.12971444061 15.0
   endloop
endfacet
facet normal -0.248180973626638 0.968713685425025 -3.60376167155217e-15
   outer loop
      vertex 1520.08939762354 1353.12971444061 15.0
      vertex 1522.39983046719 1353.72163905287 0.0
      vertex 1520.08939762354 1353.12971444061 0.0
   endloop
endfacet
facet normal -0.248180973626638 0.968713685425025 -3.60376167155217e-15
   outer loop
      vertex 1522.39983046719 1353.72163905287 0.0
      vertex 1520.08939762354 1353.12971444061 15.0
      vertex 1522.39983046719 1353.72163905287 15.0
   endloop
endfacet
facet normal -0.49044596305895 0.871471604425055 -4.01697875246147e-15
   outer loop
      vertex 1522.39983046719 1353.72163905287 15.0
      vertex 1524.47833585786 1354.89137834544 0.0
      vertex 1522.39983046719 1353.72163905287 0.0
   endloop
endfacet
facet normal -0.49044596305895 0.871471604425055 -4.01697875246147e-15
   outer loop
      vertex 1524.47833585786 1354.89137834544 0.0
      vertex 1522.39983046719 1353.72163905287 15.0
      vertex 1524.47833585786 1354.89137834544 15.0
   endloop
endfacet
facet normal -0.699287870609165 0.714840173758372 -4.15644536976186e-15
   outer loop
      vertex 1524.47833585786 1354.89137834544 15.0
      vertex 1526.18326708807 1356.55921651861 0.0
      vertex 1524.47833585786 1354.89137834544 0.0
   endloop
endfacet
facet normal -0.699287870609165 0.714840173758372 -4.15644536976186e-15
   outer loop
      vertex 1526.18326708807 1356.55921651861 0.0
      vertex 1524.47833585786 1354.89137834544 15.0
      vertex 1526.18326708807 1356.55921651861 15.0
   endloop
endfacet
facet normal -0.860474465405124 0.509493566579369 -4.01265710396369e-15
   outer loop
      vertex 1527.39843591201 1358.61149315711 15.0
      vertex 1526.18326708807 1356.55921651861 0.0
      vertex 1526.18326708807 1356.55921651861 15.0
   endloop
endfacet
facet normal -0.860474465405124 0.509493566579369 -4.01265710396369e-15
   outer loop
      vertex 1526.18326708807 1356.55921651861 0.0
      vertex 1527.39843591201 1358.61149315711 15.0
      vertex 1527.39843591201 1358.61149315711 0.0
   endloop
endfacet
facet normal -0.963021147385023 0.269425814815942 -3.59541288775991e-15
   outer loop
      vertex 1528.0410305825 1360.90834899958 15.0
      vertex 1527.39843591201 1358.61149315711 0.0
      vertex 1527.39843591201 1358.61149315711 15.0
   endloop
endfacet
facet normal -0.963021147385023 0.269425814815942 -3.59541288775991e-15
   outer loop
      vertex 1527.39843591201 1358.61149315711 0.0
      vertex 1528.0410305825 1360.90834899958 15.0
      vertex 1528.0410305825 1360.90834899958 0.0
   endloop
endfacet
facet normal -0.999939529638356 0.0109971390199184 -2.93314722495581e-15
   outer loop
      vertex 1528.06725933466 1363.29325711609 15.0
      vertex 1528.0410305825 1360.90834899958 0.0
      vertex 1528.0410305825 1360.90834899958 15.0
   endloop
endfacet
facet normal -0.999939529638356 0.0109971390199184 -2.93314722495581e-15
   outer loop
      vertex 1528.0410305825 1360.90834899958 0.0
      vertex 1528.06725933466 1363.29325711609 15.0
      vertex 1528.06725933466 1363.29325711609 0.0
   endloop
endfacet
facet normal -0.968713685425025 -0.248180973626638 -2.07099242602603e-15
   outer loop
      vertex 1527.4753347224 1365.60368995974 15.0
      vertex 1528.06725933466 1363.29325711609 0.0
      vertex 1528.06725933466 1363.29325711609 15.0
   endloop
endfacet
facet normal -0.968713685425025 -0.248180973626638 -2.07099242602603e-15
   outer loop
      vertex 1528.06725933466 1363.29325711609 0.0
      vertex 1527.4753347224 1365.60368995974 15.0
      vertex 1527.4753347224 1365.60368995974 0.0
   endloop
endfacet
facet normal -0.871471604425055 -0.49044596305895 -1.06770291573956e-15
   outer loop
      vertex 1526.30559542984 1367.68219535041 15.0
      vertex 1527.4753347224 1365.60368995974 0.0
      vertex 1527.4753347224 1365.60368995974 15.0
   endloop
endfacet
facet normal -0.871471604425055 -0.49044596305895 -1.06770291573956e-15
   outer loop
      vertex 1527.4753347224 1365.60368995974 0.0
      vertex 1526.30559542984 1367.68219535041 15.0
      vertex 1526.30559542984 1367.68219535041 0.0
   endloop
endfacet
facet normal -0.714840173758372 -0.699287870609165 8.34878379254299e-18
   outer loop
      vertex 1524.63775725667 1369.38712658062 15.0
      vertex 1526.30559542984 1367.68219535041 0.0
      vertex 1526.30559542984 1367.68219535041 15.0
   endloop
endfacet
facet normal -0.714840173758372 -0.699287870609165 8.34878379254299e-18
   outer loop
      vertex 1526.30559542984 1367.68219535041 0.0
      vertex 1524.63775725667 1369.38712658062 15.0
      vertex 1524.63775725667 1369.38712658062 0.0
   endloop
endfacet
facet normal -0.509493566579369 -0.860474465405124 1.08383152750574e-15
   outer loop
      vertex 1524.63775725667 1369.38712658062 15.0
      vertex 1522.58548061817 1370.60229540456 0.0
      vertex 1524.63775725667 1369.38712658062 0.0
   endloop
endfacet
facet normal -0.509493566579369 -0.860474465405124 1.08383152750574e-15
   outer loop
      vertex 1522.58548061817 1370.60229540456 0.0
      vertex 1524.63775725667 1369.38712658062 15.0
      vertex 1522.58548061817 1370.60229540456 15.0
   endloop
endfacet
facet normal -0.269425814815942 -0.963021147385023 2.08545294373564e-15
   outer loop
      vertex 1522.58548061817 1370.60229540456 15.0
      vertex 1520.2886247757 1371.24489007505 0.0
      vertex 1522.58548061817 1370.60229540456 0.0
   endloop
endfacet
facet normal -0.269425814815942 -0.963021147385023 2.08545294373564e-15
   outer loop
      vertex 1520.2886247757 1371.24489007505 0.0
      vertex 1522.58548061817 1370.60229540456 15.0
      vertex 1520.2886247757 1371.24489007505 15.0
   endloop
endfacet
facet normal -0.0109971390199184 -0.999939529638356 2.94495418822428e-15
   outer loop
      vertex 1520.2886247757 1371.24489007505 15.0
      vertex 1517.90371665919 1371.27111882722 0.0
      vertex 1520.2886247757 1371.24489007505 0.0
   endloop
endfacet
facet normal -0.0109971390199184 -0.999939529638356 2.94495418822428e-15
   outer loop
      vertex 1517.90371665919 1371.27111882722 0.0
      vertex 1520.2886247757 1371.24489007505 15.0
      vertex 1517.90371665919 1371.27111882722 15.0
   endloop
endfacet
facet normal 0.248180973626638 -0.968713685425025 3.60376167155217e-15
   outer loop
      vertex 1517.90371665919 1371.27111882722 15.0
      vertex 1515.59328381554 1370.67919421496 0.0
      vertex 1517.90371665919 1371.27111882722 0.0
   endloop
endfacet
facet normal 0.248180973626638 -0.968713685425025 3.60376167155217e-15
   outer loop
      vertex 1515.59328381554 1370.67919421496 0.0
      vertex 1517.90371665919 1371.27111882722 15.0
      vertex 1515.59328381554 1370.67919421496 15.0
   endloop
endfacet
facet normal 0.49044596305895 -0.871471604425055 4.01697875246147e-15
   outer loop
      vertex 1515.59328381554 1370.67919421496 15.0
      vertex 1513.51477842486 1369.50945492239 0.0
      vertex 1515.59328381554 1370.67919421496 0.0
   endloop
endfacet
facet normal 0.49044596305895 -0.871471604425055 4.01697875246147e-15
   outer loop
      vertex 1513.51477842486 1369.50945492239 0.0
      vertex 1515.59328381554 1370.67919421496 15.0
      vertex 1513.51477842486 1369.50945492239 15.0
   endloop
endfacet
endsolid Square
