solid Default
  facet normal -1.000000e+00 -0.000000e+00 -0.000000e+00
    outer loop
      vertex -5.750000e+01 -5.150000e+01 0.000000e+00
      vertex -5.750000e+01 -5.150000e+01 6.000000e+01
      vertex -5.750000e+01 5.150000e+01 0.000000e+00
    endloop
  endfacet
  facet normal -1.000000e+00 0.000000e+00 0.000000e+00
    outer loop
      vertex -5.750000e+01 5.150000e+01 0.000000e+00
      vertex -5.750000e+01 -5.150000e+01 6.000000e+01
      vertex -5.750000e+01 5.150000e+01 6.000000e+01
    endloop
  endfacet
  facet normal 0.000000e+00 -1.000000e+00 0.000000e+00
    outer loop
      vertex -5.750000e+01 -5.150000e+01 6.000000e+01
      vertex -5.750000e+01 -5.150000e+01 0.000000e+00
      vertex 5.750000e+01 -5.150000e+01 0.000000e+00
    endloop
  endfacet
  facet normal 0.000000e+00 -1.000000e+00 0.000000e+00
    outer loop
      vertex 5.750000e+01 -5.150000e+01 6.000000e+01
      vertex -5.750000e+01 -5.150000e+01 6.000000e+01
      vertex 5.750000e+01 -5.150000e+01 0.000000e+00
    endloop
  endfacet
  facet normal -0.000000e+00 -0.000000e+00 -1.000000e+00
    outer loop
      vertex -5.750000e+01 -5.150000e+01 0.000000e+00
      vertex -5.750000e+01 5.150000e+01 0.000000e+00
      vertex 5.750000e+01 -5.150000e+01 0.000000e+00
    endloop
  endfacet
  facet normal 0.000000e+00 0.000000e+00 -1.000000e+00
    outer loop
      vertex 5.750000e+01 -5.150000e+01 0.000000e+00
      vertex -5.750000e+01 5.150000e+01 0.000000e+00
      vertex 5.750000e+01 5.150000e+01 0.000000e+00
    endloop
  endfacet
  facet normal 0.000000e+00 1.000000e+00 0.000000e+00
    outer loop
      vertex -5.750000e+01 5.150000e+01 0.000000e+00
      vertex -5.750000e+01 5.150000e+01 6.000000e+01
      vertex 5.750000e+01 5.150000e+01 0.000000e+00
    endloop
  endfacet
  facet normal 0.000000e+00 1.000000e+00 0.000000e+00
    outer loop
      vertex 5.750000e+01 5.150000e+01 0.000000e+00
      vertex -5.750000e+01 5.150000e+01 6.000000e+01
      vertex 5.750000e+01 5.150000e+01 6.000000e+01
    endloop
  endfacet
  facet normal 0.000000e+00 0.000000e+00 1.000000e+00
    outer loop
      vertex -5.600000e+01 -5.000000e+01 6.000000e+01
      vertex -5.750000e+01 -5.150000e+01 6.000000e+01
      vertex 5.750000e+01 -5.150000e+01 6.000000e+01
    endloop
  endfacet
  facet normal 0.000000e+00 0.000000e+00 1.000000e+00
    outer loop
      vertex 1.500000e+00 -1.500000e+00 6.000000e+01
      vertex 5.600000e+01 -1.500000e+00 6.000000e+01
      vertex 1.500000e+00 1.500000e+00 6.000000e+01
    endloop
  endfacet
  facet normal 0.000000e+00 0.000000e+00 1.000000e+00
    outer loop
      vertex -1.500000e+00 -5.000000e+01 6.000000e+01
      vertex -5.600000e+01 -5.000000e+01 6.000000e+01
      vertex 5.750000e+01 -5.150000e+01 6.000000e+01
    endloop
  endfacet
  facet normal 0.000000e+00 0.000000e+00 1.000000e+00
    outer loop
      vertex -5.750000e+01 5.150000e+01 6.000000e+01
      vertex -5.750000e+01 -5.150000e+01 6.000000e+01
      vertex -5.600000e+01 -5.000000e+01 6.000000e+01
    endloop
  endfacet
  facet normal 0.000000e+00 0.000000e+00 1.000000e+00
    outer loop
      vertex 1.500000e+00 -1.500000e+00 6.000000e+01
      vertex 1.500000e+00 1.500000e+00 6.000000e+01
      vertex -1.500000e+00 1.500000e+00 6.000000e+01
    endloop
  endfacet
  facet normal 0.000000e+00 0.000000e+00 1.000000e+00
    outer loop
      vertex -5.750000e+01 5.150000e+01 6.000000e+01
      vertex -5.600000e+01 -5.000000e+01 6.000000e+01
      vertex -5.600000e+01 -1.500000e+00 6.000000e+01
    endloop
  endfacet
  facet normal 0.000000e+00 0.000000e+00 1.000000e+00
    outer loop
      vertex -5.600000e+01 1.500000e+00 6.000000e+01
      vertex -5.600000e+01 -1.500000e+00 6.000000e+01
      vertex -1.500000e+00 -1.500000e+00 6.000000e+01
    endloop
  endfacet
  facet normal 0.000000e+00 0.000000e+00 1.000000e+00
    outer loop
      vertex 1.500000e+00 -5.000000e+01 6.000000e+01
      vertex -1.500000e+00 -5.000000e+01 6.000000e+01
      vertex 5.750000e+01 -5.150000e+01 6.000000e+01
    endloop
  endfacet
  facet normal 0.000000e+00 0.000000e+00 1.000000e+00
    outer loop
      vertex -5.750000e+01 5.150000e+01 6.000000e+01
      vertex -5.600000e+01 -1.500000e+00 6.000000e+01
      vertex -5.600000e+01 1.500000e+00 6.000000e+01
    endloop
  endfacet
  facet normal 0.000000e+00 0.000000e+00 1.000000e+00
    outer loop
      vertex -5.600000e+01 5.000000e+01 6.000000e+01
      vertex -1.500000e+00 5.000000e+01 6.000000e+01
      vertex -5.750000e+01 5.150000e+01 6.000000e+01
    endloop
  endfacet
  facet normal 0.000000e+00 0.000000e+00 1.000000e+00
    outer loop
      vertex -5.750000e+01 5.150000e+01 6.000000e+01
      vertex -5.600000e+01 1.500000e+00 6.000000e+01
      vertex -5.600000e+01 5.000000e+01 6.000000e+01
    endloop
  endfacet
  facet normal 0.000000e+00 0.000000e+00 1.000000e+00
    outer loop
      vertex 1.500000e+00 1.500000e+00 6.000000e+01
      vertex 1.500000e+00 5.000000e+01 6.000000e+01
      vertex -1.500000e+00 5.000000e+01 6.000000e+01
    endloop
  endfacet
  facet normal 0.000000e+00 0.000000e+00 1.000000e+00
    outer loop
      vertex 5.750000e+01 5.150000e+01 6.000000e+01
      vertex -5.750000e+01 5.150000e+01 6.000000e+01
      vertex -1.500000e+00 5.000000e+01 6.000000e+01
    endloop
  endfacet
  facet normal 0.000000e+00 0.000000e+00 1.000000e+00
    outer loop
      vertex 1.500000e+00 -5.000000e+01 6.000000e+01
      vertex 1.500000e+00 -1.500000e+00 6.000000e+01
      vertex -1.500000e+00 -1.500000e+00 6.000000e+01
    endloop
  endfacet
  facet normal 0.000000e+00 0.000000e+00 1.000000e+00
    outer loop
      vertex 5.600000e+01 -5.000000e+01 6.000000e+01
      vertex 1.500000e+00 -5.000000e+01 6.000000e+01
      vertex 5.750000e+01 -5.150000e+01 6.000000e+01
    endloop
  endfacet
  facet normal 0.000000e+00 0.000000e+00 1.000000e+00
    outer loop
      vertex 5.750000e+01 5.150000e+01 6.000000e+01
      vertex 5.600000e+01 -1.500000e+00 6.000000e+01
      vertex 5.750000e+01 -5.150000e+01 6.000000e+01
    endloop
  endfacet
  facet normal 0.000000e+00 0.000000e+00 1.000000e+00
    outer loop
      vertex 5.600000e+01 1.500000e+00 6.000000e+01
      vertex 1.500000e+00 1.500000e+00 6.000000e+01
      vertex 5.600000e+01 -1.500000e+00 6.000000e+01
    endloop
  endfacet
  facet normal 0.000000e+00 0.000000e+00 1.000000e+00
    outer loop
      vertex -1.500000e+00 5.000000e+01 6.000000e+01
      vertex -1.500000e+00 1.500000e+00 6.000000e+01
      vertex 1.500000e+00 1.500000e+00 6.000000e+01
    endloop
  endfacet
  facet normal 0.000000e+00 0.000000e+00 1.000000e+00
    outer loop
      vertex 5.750000e+01 5.150000e+01 6.000000e+01
      vertex -1.500000e+00 5.000000e+01 6.000000e+01
      vertex 1.500000e+00 5.000000e+01 6.000000e+01
    endloop
  endfacet
  facet normal 0.000000e+00 0.000000e+00 1.000000e+00
    outer loop
      vertex 5.750000e+01 5.150000e+01 6.000000e+01
      vertex 1.500000e+00 5.000000e+01 6.000000e+01
      vertex 5.600000e+01 5.000000e+01 6.000000e+01
    endloop
  endfacet
  facet normal 0.000000e+00 0.000000e+00 1.000000e+00
    outer loop
      vertex 5.750000e+01 5.150000e+01 6.000000e+01
      vertex 5.600000e+01 1.500000e+00 6.000000e+01
      vertex 5.600000e+01 -1.500000e+00 6.000000e+01
    endloop
  endfacet
  facet normal 0.000000e+00 0.000000e+00 1.000000e+00
    outer loop
      vertex 5.750000e+01 5.150000e+01 6.000000e+01
      vertex 5.600000e+01 5.000000e+01 6.000000e+01
      vertex 5.600000e+01 1.500000e+00 6.000000e+01
    endloop
  endfacet
  facet normal 0.000000e+00 0.000000e+00 1.000000e+00
    outer loop
      vertex 5.600000e+01 -1.500000e+00 6.000000e+01
      vertex 5.600000e+01 -5.000000e+01 6.000000e+01
      vertex 5.750000e+01 -5.150000e+01 6.000000e+01
    endloop
  endfacet
  facet normal 0.000000e+00 0.000000e+00 1.000000e+00
    outer loop
      vertex -1.500000e+00 -1.500000e+00 6.000000e+01
      vertex -1.500000e+00 -5.000000e+01 6.000000e+01
      vertex 1.500000e+00 -5.000000e+01 6.000000e+01
    endloop
  endfacet
  facet normal 0.000000e+00 0.000000e+00 1.000000e+00
    outer loop
      vertex -1.500000e+00 1.500000e+00 6.000000e+01
      vertex -1.500000e+00 -1.500000e+00 6.000000e+01
      vertex 1.500000e+00 -1.500000e+00 6.000000e+01
    endloop
  endfacet
  facet normal 0.000000e+00 0.000000e+00 1.000000e+00
    outer loop
      vertex -1.500000e+00 1.500000e+00 6.000000e+01
      vertex -5.600000e+01 1.500000e+00 6.000000e+01
      vertex -1.500000e+00 -1.500000e+00 6.000000e+01
    endloop
  endfacet
  facet normal 1.000000e+00 0.000000e+00 0.000000e+00
    outer loop
      vertex 5.750000e+01 -5.150000e+01 6.000000e+01
      vertex 5.750000e+01 -5.150000e+01 0.000000e+00
      vertex 5.750000e+01 5.150000e+01 0.000000e+00
    endloop
  endfacet
  facet normal 1.000000e+00 0.000000e+00 0.000000e+00
    outer loop
      vertex 5.750000e+01 5.150000e+01 6.000000e+01
      vertex 5.750000e+01 -5.150000e+01 6.000000e+01
      vertex 5.750000e+01 5.150000e+01 0.000000e+00
    endloop
  endfacet
  facet normal 1.000000e+00 0.000000e+00 0.000000e+00
    outer loop
      vertex -5.600000e+01 -1.500000e+00 1.125000e+00
      vertex -5.600000e+01 -1.500000e+00 6.000000e+01
      vertex -5.600000e+01 -5.000000e+01 6.000000e+01
    endloop
  endfacet
  facet normal 1.000000e+00 0.000000e+00 0.000000e+00
    outer loop
      vertex -5.600000e+01 -5.000000e+01 1.125000e+00
      vertex -5.600000e+01 -1.500000e+00 1.125000e+00
      vertex -5.600000e+01 -5.000000e+01 6.000000e+01
    endloop
  endfacet
  facet normal 0.000000e+00 1.000000e+00 0.000000e+00
    outer loop
      vertex -1.500000e+00 -5.000000e+01 6.000000e+01
      vertex -1.500000e+00 -5.000000e+01 1.125000e+00
      vertex -5.600000e+01 -5.000000e+01 6.000000e+01
    endloop
  endfacet
  facet normal 0.000000e+00 1.000000e+00 0.000000e+00
    outer loop
      vertex -5.600000e+01 -5.000000e+01 6.000000e+01
      vertex -1.500000e+00 -5.000000e+01 1.125000e+00
      vertex -5.600000e+01 -5.000000e+01 1.125000e+00
    endloop
  endfacet
  facet normal -1.000000e+00 -0.000000e+00 -0.000000e+00
    outer loop
      vertex -1.500000e+00 -5.000000e+01 1.125000e+00
      vertex -1.500000e+00 -5.000000e+01 6.000000e+01
      vertex -1.500000e+00 -1.500000e+00 1.125000e+00
    endloop
  endfacet
  facet normal -1.000000e+00 0.000000e+00 0.000000e+00
    outer loop
      vertex -1.500000e+00 -1.500000e+00 1.125000e+00
      vertex -1.500000e+00 -5.000000e+01 6.000000e+01
      vertex -1.500000e+00 -1.500000e+00 6.000000e+01
    endloop
  endfacet
  facet normal 0.000000e+00 -1.000000e+00 0.000000e+00
    outer loop
      vertex -5.600000e+01 -1.500000e+00 6.000000e+01
      vertex -5.600000e+01 -1.500000e+00 1.125000e+00
      vertex -1.500000e+00 -1.500000e+00 1.125000e+00
    endloop
  endfacet
  facet normal 0.000000e+00 -1.000000e+00 0.000000e+00
    outer loop
      vertex -1.500000e+00 -1.500000e+00 6.000000e+01
      vertex -5.600000e+01 -1.500000e+00 6.000000e+01
      vertex -1.500000e+00 -1.500000e+00 1.125000e+00
    endloop
  endfacet
  facet normal 1.000000e+00 0.000000e+00 0.000000e+00
    outer loop
      vertex -5.600000e+01 5.000000e+01 1.125000e+00
      vertex -5.600000e+01 5.000000e+01 6.000000e+01
      vertex -5.600000e+01 1.500000e+00 6.000000e+01
    endloop
  endfacet
  facet normal 1.000000e+00 0.000000e+00 0.000000e+00
    outer loop
      vertex -5.600000e+01 1.500000e+00 1.125000e+00
      vertex -5.600000e+01 5.000000e+01 1.125000e+00
      vertex -5.600000e+01 1.500000e+00 6.000000e+01
    endloop
  endfacet
  facet normal 0.000000e+00 1.000000e+00 0.000000e+00
    outer loop
      vertex -5.600000e+01 1.500000e+00 1.125000e+00
      vertex -5.600000e+01 1.500000e+00 6.000000e+01
      vertex -1.500000e+00 1.500000e+00 1.125000e+00
    endloop
  endfacet
  facet normal 0.000000e+00 1.000000e+00 0.000000e+00
    outer loop
      vertex -1.500000e+00 1.500000e+00 1.125000e+00
      vertex -5.600000e+01 1.500000e+00 6.000000e+01
      vertex -1.500000e+00 1.500000e+00 6.000000e+01
    endloop
  endfacet
  facet normal -1.000000e+00 -0.000000e+00 -0.000000e+00
    outer loop
      vertex -1.500000e+00 1.500000e+00 1.125000e+00
      vertex -1.500000e+00 1.500000e+00 6.000000e+01
      vertex -1.500000e+00 5.000000e+01 1.125000e+00
    endloop
  endfacet
  facet normal -1.000000e+00 0.000000e+00 0.000000e+00
    outer loop
      vertex -1.500000e+00 5.000000e+01 1.125000e+00
      vertex -1.500000e+00 1.500000e+00 6.000000e+01
      vertex -1.500000e+00 5.000000e+01 6.000000e+01
    endloop
  endfacet
  facet normal 0.000000e+00 -1.000000e+00 0.000000e+00
    outer loop
      vertex -1.500000e+00 5.000000e+01 1.125000e+00
      vertex -1.500000e+00 5.000000e+01 6.000000e+01
      vertex -5.600000e+01 5.000000e+01 6.000000e+01
    endloop
  endfacet
  facet normal -0.000000e+00 -1.000000e+00 -0.000000e+00
    outer loop
      vertex -5.600000e+01 5.000000e+01 1.125000e+00
      vertex -1.500000e+00 5.000000e+01 1.125000e+00
      vertex -5.600000e+01 5.000000e+01 6.000000e+01
    endloop
  endfacet
  facet normal 1.000000e+00 0.000000e+00 0.000000e+00
    outer loop
      vertex 1.500000e+00 -5.000000e+01 6.000000e+01
      vertex 1.500000e+00 -5.000000e+01 1.125000e+00
      vertex 1.500000e+00 -1.500000e+00 1.125000e+00
    endloop
  endfacet
  facet normal 1.000000e+00 0.000000e+00 0.000000e+00
    outer loop
      vertex 1.500000e+00 -1.500000e+00 6.000000e+01
      vertex 1.500000e+00 -5.000000e+01 6.000000e+01
      vertex 1.500000e+00 -1.500000e+00 1.125000e+00
    endloop
  endfacet
  facet normal 0.000000e+00 1.000000e+00 0.000000e+00
    outer loop
      vertex 5.600000e+01 -5.000000e+01 6.000000e+01
      vertex 5.600000e+01 -5.000000e+01 1.125000e+00
      vertex 1.500000e+00 -5.000000e+01 6.000000e+01
    endloop
  endfacet
  facet normal 0.000000e+00 1.000000e+00 0.000000e+00
    outer loop
      vertex 1.500000e+00 -5.000000e+01 6.000000e+01
      vertex 5.600000e+01 -5.000000e+01 1.125000e+00
      vertex 1.500000e+00 -5.000000e+01 1.125000e+00
    endloop
  endfacet
  facet normal -1.000000e+00 0.000000e+00 0.000000e+00
    outer loop
      vertex 5.600000e+01 -1.500000e+00 6.000000e+01
      vertex 5.600000e+01 -1.500000e+00 1.125000e+00
      vertex 5.600000e+01 -5.000000e+01 6.000000e+01
    endloop
  endfacet
  facet normal -1.000000e+00 0.000000e+00 0.000000e+00
    outer loop
      vertex 5.600000e+01 -5.000000e+01 6.000000e+01
      vertex 5.600000e+01 -1.500000e+00 1.125000e+00
      vertex 5.600000e+01 -5.000000e+01 1.125000e+00
    endloop
  endfacet
  facet normal 0.000000e+00 -1.000000e+00 0.000000e+00
    outer loop
      vertex 1.500000e+00 -1.500000e+00 6.000000e+01
      vertex 1.500000e+00 -1.500000e+00 1.125000e+00
      vertex 5.600000e+01 -1.500000e+00 1.125000e+00
    endloop
  endfacet
  facet normal 0.000000e+00 -1.000000e+00 0.000000e+00
    outer loop
      vertex 5.600000e+01 -1.500000e+00 6.000000e+01
      vertex 1.500000e+00 -1.500000e+00 6.000000e+01
      vertex 5.600000e+01 -1.500000e+00 1.125000e+00
    endloop
  endfacet
  facet normal 1.000000e+00 0.000000e+00 0.000000e+00
    outer loop
      vertex 1.500000e+00 1.500000e+00 6.000000e+01
      vertex 1.500000e+00 1.500000e+00 1.125000e+00
      vertex 1.500000e+00 5.000000e+01 1.125000e+00
    endloop
  endfacet
  facet normal 1.000000e+00 0.000000e+00 0.000000e+00
    outer loop
      vertex 1.500000e+00 5.000000e+01 6.000000e+01
      vertex 1.500000e+00 1.500000e+00 6.000000e+01
      vertex 1.500000e+00 5.000000e+01 1.125000e+00
    endloop
  endfacet
  facet normal 0.000000e+00 1.000000e+00 0.000000e+00
    outer loop
      vertex 1.500000e+00 1.500000e+00 1.125000e+00
      vertex 1.500000e+00 1.500000e+00 6.000000e+01
      vertex 5.600000e+01 1.500000e+00 1.125000e+00
    endloop
  endfacet
  facet normal 0.000000e+00 1.000000e+00 0.000000e+00
    outer loop
      vertex 5.600000e+01 1.500000e+00 1.125000e+00
      vertex 1.500000e+00 1.500000e+00 6.000000e+01
      vertex 5.600000e+01 1.500000e+00 6.000000e+01
    endloop
  endfacet
  facet normal -1.000000e+00 0.000000e+00 0.000000e+00
    outer loop
      vertex 5.600000e+01 5.000000e+01 6.000000e+01
      vertex 5.600000e+01 5.000000e+01 1.125000e+00
      vertex 5.600000e+01 1.500000e+00 6.000000e+01
    endloop
  endfacet
  facet normal -1.000000e+00 0.000000e+00 0.000000e+00
    outer loop
      vertex 5.600000e+01 1.500000e+00 6.000000e+01
      vertex 5.600000e+01 5.000000e+01 1.125000e+00
      vertex 5.600000e+01 1.500000e+00 1.125000e+00
    endloop
  endfacet
  facet normal 0.000000e+00 -1.000000e+00 0.000000e+00
    outer loop
      vertex 5.600000e+01 5.000000e+01 1.125000e+00
      vertex 5.600000e+01 5.000000e+01 6.000000e+01
      vertex 1.500000e+00 5.000000e+01 6.000000e+01
    endloop
  endfacet
  facet normal -0.000000e+00 -1.000000e+00 -0.000000e+00
    outer loop
      vertex 1.500000e+00 5.000000e+01 1.125000e+00
      vertex 5.600000e+01 5.000000e+01 1.125000e+00
      vertex 1.500000e+00 5.000000e+01 6.000000e+01
    endloop
  endfacet
  facet normal 0.000000e+00 0.000000e+00 1.000000e+00
    outer loop
      vertex -5.600000e+01 -1.500000e+00 1.125000e+00
      vertex -5.600000e+01 -5.000000e+01 1.125000e+00
      vertex -1.500000e+00 -5.000000e+01 1.125000e+00
    endloop
  endfacet
  facet normal 0.000000e+00 0.000000e+00 1.000000e+00
    outer loop
      vertex -1.500000e+00 -1.500000e+00 1.125000e+00
      vertex -5.600000e+01 -1.500000e+00 1.125000e+00
      vertex -1.500000e+00 -5.000000e+01 1.125000e+00
    endloop
  endfacet
  facet normal 0.000000e+00 0.000000e+00 1.000000e+00
    outer loop
      vertex -5.600000e+01 5.000000e+01 1.125000e+00
      vertex -5.600000e+01 1.500000e+00 1.125000e+00
      vertex -1.500000e+00 1.500000e+00 1.125000e+00
    endloop
  endfacet
  facet normal 0.000000e+00 0.000000e+00 1.000000e+00
    outer loop
      vertex -1.500000e+00 5.000000e+01 1.125000e+00
      vertex -5.600000e+01 5.000000e+01 1.125000e+00
      vertex -1.500000e+00 1.500000e+00 1.125000e+00
    endloop
  endfacet
  facet normal 0.000000e+00 0.000000e+00 1.000000e+00
    outer loop
      vertex 1.500000e+00 -1.500000e+00 1.125000e+00
      vertex 1.500000e+00 -5.000000e+01 1.125000e+00
      vertex 5.600000e+01 -5.000000e+01 1.125000e+00
    endloop
  endfacet
  facet normal 0.000000e+00 0.000000e+00 1.000000e+00
    outer loop
      vertex 5.600000e+01 -1.500000e+00 1.125000e+00
      vertex 1.500000e+00 -1.500000e+00 1.125000e+00
      vertex 5.600000e+01 -5.000000e+01 1.125000e+00
    endloop
  endfacet
  facet normal 0.000000e+00 0.000000e+00 1.000000e+00
    outer loop
      vertex 1.500000e+00 5.000000e+01 1.125000e+00
      vertex 1.500000e+00 1.500000e+00 1.125000e+00
      vertex 5.600000e+01 1.500000e+00 1.125000e+00
    endloop
  endfacet
  facet normal 0.000000e+00 0.000000e+00 1.000000e+00
    outer loop
      vertex 5.600000e+01 5.000000e+01 1.125000e+00
      vertex 1.500000e+00 5.000000e+01 1.125000e+00
      vertex 5.600000e+01 1.500000e+00 1.125000e+00
    endloop
  endfacet
endsolid Default
