solid Default
  facet normal 2.161940e-16 -1.000000e+00 2.045060e-16
    outer loop
      vertex -2.298650e+01 -1.000000e+00 2.938590e+01
      vertex -2.350000e+01 -1.000000e+00 2.450000e+01
      vertex -2.298650e+01 -1.000000e+00 1.961410e+01
    endloop
  endfacet
  facet normal 1.558270e-17 -1.000000e+00 2.168530e-16
    outer loop
      vertex -2.103020e+01 -1.000000e+00 2.002990e+01
      vertex -2.298650e+01 -1.000000e+00 2.938590e+01
      vertex -2.146830e+01 -1.000000e+00 1.494170e+01
    endloop
  endfacet
  facet normal -1.018950e-16 -1.000000e+00 2.045060e-16
    outer loop
      vertex -2.146830e+01 -1.000000e+00 1.494170e+01
      vertex -2.298650e+01 -1.000000e+00 2.938590e+01
      vertex -2.298650e+01 -1.000000e+00 1.961410e+01
    endloop
  endfacet
  facet normal -2.049020e-17 -1.000000e+00 2.803410e-16
    outer loop
      vertex 1.438630e+01 -1.000000e+00 8.522390e+00
      vertex 1.075000e+01 -1.000000e+00 5.880450e+00
      vertex 1.572460e+01 -1.000000e+00 7.036100e+00
    endloop
  endfacet
  facet normal 4.131070e-17 -1.000000e+00 1.943510e-16
    outer loop
      vertex 2.103020e+01 -1.000000e+00 2.002990e+01
      vertex 1.964120e+01 -1.000000e+00 1.575520e+01
      vertex 2.298650e+01 -1.000000e+00 1.961410e+01
    endloop
  endfacet
  facet normal 0.000000e+00 -1.000000e+00 2.235300e-16
    outer loop
      vertex 2.103020e+01 -1.000000e+00 2.897010e+01
      vertex 2.150000e+01 -1.000000e+00 2.450000e+01
      vertex 2.350000e+01 -1.000000e+00 2.450000e+01
    endloop
  endfacet
  facet normal 6.610530e-18 -1.000000e+00 2.358930e-16
    outer loop
      vertex 1.964120e+01 -1.000000e+00 3.324480e+01
      vertex 2.103020e+01 -1.000000e+00 2.897010e+01
      vertex 2.298650e+01 -1.000000e+00 2.938590e+01
    endloop
  endfacet
  facet normal -4.631510e-18 -1.000000e+00 1.952570e-16
    outer loop
      vertex 1.438630e+01 -1.000000e+00 4.047760e+01
      vertex 1.739390e+01 -1.000000e+00 3.713740e+01
      vertex 1.901190e+01 -1.000000e+00 3.831300e+01
    endloop
  endfacet
  facet normal 0.000000e+00 -1.000000e+00 0.000000e+00
    outer loop
      vertex 7.261900e+00 -1.000000e+00 2.150170e+00
      vertex 5.000000e+00 -1.000000e+00 2.000000e+00
      vertex 5.000000e+00 -1.000000e+00 1.669390e+00
    endloop
  endfacet
  facet normal 5.435630e-18 -1.000000e+00 2.120340e-16
    outer loop
      vertex 6.643860e+00 -1.000000e+00 4.052290e+00
      vertex 2.247360e+00 -1.000000e+00 3.117780e+00
      vertex 5.000000e+00 -1.000000e+00 2.000000e+00
    endloop
  endfacet
  facet normal -1.994800e-17 -1.000000e+00 2.269900e-16
    outer loop
      vertex -1.075000e+01 -1.000000e+00 4.311950e+01
      vertex -6.643860e+00 -1.000000e+00 4.494770e+01
      vertex -7.261900e+00 -1.000000e+00 4.684980e+01
    endloop
  endfacet
  facet normal -2.415680e-17 -1.000000e+00 2.346150e-16
    outer loop
      vertex -1.901190e+01 -1.000000e+00 3.831300e+01
      vertex -2.298650e+01 -1.000000e+00 2.938590e+01
      vertex -1.572460e+01 -1.000000e+00 4.196390e+01
    endloop
  endfacet
  facet normal -1.143230e-16 -1.000000e+00 2.747590e-16
    outer loop
      vertex -2.146830e+01 -1.000000e+00 3.405830e+01
      vertex -2.298650e+01 -1.000000e+00 2.938590e+01
      vertex -1.901190e+01 -1.000000e+00 3.831300e+01
    endloop
  endfacet
  facet normal 1.422850e-17 -1.000000e+00 2.169700e-16
    outer loop
      vertex -1.901190e+01 -1.000000e+00 1.068705e+01
      vertex -2.103020e+01 -1.000000e+00 2.002990e+01
      vertex -2.146830e+01 -1.000000e+00 1.494170e+01
    endloop
  endfacet
  facet normal -1.586200e-17 -1.000000e+00 2.373320e-16
    outer loop
      vertex 1.964120e+01 -1.000000e+00 1.575520e+01
      vertex 1.739390e+01 -1.000000e+00 1.186260e+01
      vertex 2.146830e+01 -1.000000e+00 1.494170e+01
    endloop
  endfacet
  facet normal 4.631510e-18 -1.000000e+00 1.952570e-16
    outer loop
      vertex 1.739390e+01 -1.000000e+00 1.186260e+01
      vertex 1.438630e+01 -1.000000e+00 8.522390e+00
      vertex 1.901190e+01 -1.000000e+00 1.068705e+01
    endloop
  endfacet
  facet normal 2.981190e-18 -1.000000e+00 2.235810e-16
    outer loop
      vertex -6.643860e+00 -1.000000e+00 4.494770e+01
      vertex -2.247360e+00 -1.000000e+00 4.588220e+01
      vertex -2.456420e+00 -1.000000e+00 4.787130e+01
    endloop
  endfacet
  facet normal -9.746860e-17 -1.000000e+00 2.871890e-16
    outer loop
      vertex -1.739390e+01 -1.000000e+00 3.713740e+01
      vertex -1.438630e+01 -1.000000e+00 4.047760e+01
      vertex -1.175000e+01 -1.000000e+00 4.485160e+01
    endloop
  endfacet
  facet normal 2.295650e-17 -1.000000e+00 1.990830e-16
    outer loop
      vertex -1.572460e+01 -1.000000e+00 4.196390e+01
      vertex -1.739390e+01 -1.000000e+00 3.713740e+01
      vertex -1.175000e+01 -1.000000e+00 4.485160e+01
    endloop
  endfacet
  facet normal 5.894400e-17 -1.000000e+00 1.866370e-16
    outer loop
      vertex -1.572460e+01 -1.000000e+00 4.196390e+01
      vertex -2.298650e+01 -1.000000e+00 2.938590e+01
      vertex -1.739390e+01 -1.000000e+00 3.713740e+01
    endloop
  endfacet
  facet normal -3.773270e-18 -1.000000e+00 2.307160e-16
    outer loop
      vertex -1.175000e+01 -1.000000e+00 4.485160e+01
      vertex -1.438630e+01 -1.000000e+00 4.047760e+01
      vertex -7.261900e+00 -1.000000e+00 4.684980e+01
    endloop
  endfacet
  facet normal 9.925510e-17 -1.000000e+00 1.155260e-16
    outer loop
      vertex -1.438630e+01 -1.000000e+00 4.047760e+01
      vertex -1.075000e+01 -1.000000e+00 4.311950e+01
      vertex -7.261900e+00 -1.000000e+00 4.684980e+01
    endloop
  endfacet
  facet normal -3.198500e-18 -1.000000e+00 2.324320e-16
    outer loop
      vertex -7.261900e+00 -1.000000e+00 4.684980e+01
      vertex -6.643860e+00 -1.000000e+00 4.494770e+01
      vertex -2.456420e+00 -1.000000e+00 4.787130e+01
    endloop
  endfacet
  facet normal 6.868320e-18 -1.000000e+00 2.242090e-16
    outer loop
      vertex -1.964120e+01 -1.000000e+00 3.324480e+01
      vertex -1.739390e+01 -1.000000e+00 3.713740e+01
      vertex -2.298650e+01 -1.000000e+00 2.938590e+01
    endloop
  endfacet
  facet normal 0.000000e+00 -1.000000e+00 2.232680e-16
    outer loop
      vertex -2.456420e+00 -1.000000e+00 4.787130e+01
      vertex -2.247360e+00 -1.000000e+00 4.588220e+01
      vertex 2.456420e+00 -1.000000e+00 4.787130e+01
    endloop
  endfacet
  facet normal 1.223170e-18 -1.000000e+00 2.231390e-16
    outer loop
      vertex 2.456420e+00 -1.000000e+00 4.787130e+01
      vertex 2.247360e+00 -1.000000e+00 4.588220e+01
      vertex 7.261900e+00 -1.000000e+00 4.684980e+01
    endloop
  endfacet
  facet normal 4.368160e-18 -1.000000e+00 2.320520e-16
    outer loop
      vertex 7.261900e+00 -1.000000e+00 4.684980e+01
      vertex 6.643860e+00 -1.000000e+00 4.494770e+01
      vertex 1.175000e+01 -1.000000e+00 4.485160e+01
    endloop
  endfacet
  facet normal -1.964650e-17 -1.000000e+00 2.036390e-16
    outer loop
      vertex 1.175000e+01 -1.000000e+00 4.485160e+01
      vertex 1.075000e+01 -1.000000e+00 4.311950e+01
      vertex 1.572460e+01 -1.000000e+00 4.196390e+01
    endloop
  endfacet
  facet normal 6.235470e-18 -1.000000e+00 2.184790e-16
    outer loop
      vertex 1.572460e+01 -1.000000e+00 4.196390e+01
      vertex 1.438630e+01 -1.000000e+00 4.047760e+01
      vertex 1.901190e+01 -1.000000e+00 3.831300e+01
    endloop
  endfacet
  facet normal -1.017160e-17 -1.000000e+00 2.028830e-16
    outer loop
      vertex 1.901190e+01 -1.000000e+00 3.831300e+01
      vertex 1.739390e+01 -1.000000e+00 3.713740e+01
      vertex 2.146830e+01 -1.000000e+00 3.405830e+01
    endloop
  endfacet
  facet normal 1.374780e-17 -1.000000e+00 2.420810e-16
    outer loop
      vertex 2.146830e+01 -1.000000e+00 3.405830e+01
      vertex 1.964120e+01 -1.000000e+00 3.324480e+01
      vertex 2.298650e+01 -1.000000e+00 2.938590e+01
    endloop
  endfacet
  facet normal 8.267550e-18 -1.000000e+00 2.280980e-16
    outer loop
      vertex 2.298650e+01 -1.000000e+00 2.938590e+01
      vertex 2.103020e+01 -1.000000e+00 2.897010e+01
      vertex 2.350000e+01 -1.000000e+00 2.450000e+01
    endloop
  endfacet
  facet normal 0.000000e+00 -1.000000e+00 1.817830e-16
    outer loop
      vertex 2.350000e+01 -1.000000e+00 2.450000e+01
      vertex 2.150000e+01 -1.000000e+00 2.450000e+01
      vertex 2.298650e+01 -1.000000e+00 1.961410e+01
    endloop
  endfacet
  facet normal 4.131070e-17 -1.000000e+00 1.943510e-16
    outer loop
      vertex 2.150000e+01 -1.000000e+00 2.450000e+01
      vertex 2.103020e+01 -1.000000e+00 2.002990e+01
      vertex 2.298650e+01 -1.000000e+00 1.961410e+01
    endloop
  endfacet
  facet normal -1.374780e-17 -1.000000e+00 2.420810e-16
    outer loop
      vertex 2.298650e+01 -1.000000e+00 1.961410e+01
      vertex 1.964120e+01 -1.000000e+00 1.575520e+01
      vertex 2.146830e+01 -1.000000e+00 1.494170e+01
    endloop
  endfacet
  facet normal 1.017160e-17 -1.000000e+00 2.028830e-16
    outer loop
      vertex 2.146830e+01 -1.000000e+00 1.494170e+01
      vertex 1.739390e+01 -1.000000e+00 1.186260e+01
      vertex 1.901190e+01 -1.000000e+00 1.068705e+01
    endloop
  endfacet
  facet normal 0.000000e+00 -1.000000e+00 2.232680e-16
    outer loop
      vertex -2.247360e+00 -1.000000e+00 4.588220e+01
      vertex 2.247360e+00 -1.000000e+00 4.588220e+01
      vertex 2.456420e+00 -1.000000e+00 4.787130e+01
    endloop
  endfacet
  facet normal -3.082910e-17 -1.000000e+00 2.710320e-16
    outer loop
      vertex 1.901190e+01 -1.000000e+00 1.068705e+01
      vertex 1.438630e+01 -1.000000e+00 8.522390e+00
      vertex 1.572460e+01 -1.000000e+00 7.036100e+00
    endloop
  endfacet
  facet normal -8.221180e-19 -1.000000e+00 2.337390e-16
    outer loop
      vertex 2.247360e+00 -1.000000e+00 4.588220e+01
      vertex 6.643860e+00 -1.000000e+00 4.494770e+01
      vertex 7.261900e+00 -1.000000e+00 4.684980e+01
    endloop
  endfacet
  facet normal -1.316190e-17 -1.000000e+00 2.487960e-16
    outer loop
      vertex 1.572460e+01 -1.000000e+00 7.036100e+00
      vertex 1.075000e+01 -1.000000e+00 5.880450e+00
      vertex 1.175000e+01 -1.000000e+00 4.148400e+00
    endloop
  endfacet
  facet normal 3.580870e-18 -1.000000e+00 1.902290e-16
    outer loop
      vertex 6.643860e+00 -1.000000e+00 4.494770e+01
      vertex 1.075000e+01 -1.000000e+00 4.311950e+01
      vertex 1.175000e+01 -1.000000e+00 4.485160e+01
    endloop
  endfacet
  facet normal -4.368160e-18 -1.000000e+00 2.320520e-16
    outer loop
      vertex 1.175000e+01 -1.000000e+00 4.148400e+00
      vertex 6.643860e+00 -1.000000e+00 4.052290e+00
      vertex 7.261900e+00 -1.000000e+00 2.150170e+00
    endloop
  endfacet
  facet normal -1.231820e-17 -1.000000e+00 2.351840e-16
    outer loop
      vertex 1.075000e+01 -1.000000e+00 4.311950e+01
      vertex 1.438630e+01 -1.000000e+00 4.047760e+01
      vertex 1.572460e+01 -1.000000e+00 4.196390e+01
    endloop
  endfacet
  facet normal 0.000000e+00 -1.000000e+00 1.986480e-16
    outer loop
      vertex 5.000000e+00 -1.000000e+00 2.000000e+00
      vertex 2.247360e+00 -1.000000e+00 3.117780e+00
      vertex -5.000000e+00 -1.000000e+00 2.000000e+00
    endloop
  endfacet
  facet normal 0.000000e+00 -1.000000e+00 1.986480e-16
    outer loop
      vertex 2.247360e+00 -1.000000e+00 3.117780e+00
      vertex -2.247360e+00 -1.000000e+00 3.117780e+00
      vertex -5.000000e+00 -1.000000e+00 2.000000e+00
    endloop
  endfacet
  facet normal 1.586200e-17 -1.000000e+00 2.373320e-16
    outer loop
      vertex 1.739390e+01 -1.000000e+00 3.713740e+01
      vertex 1.964120e+01 -1.000000e+00 3.324480e+01
      vertex 2.146830e+01 -1.000000e+00 3.405830e+01
    endloop
  endfacet
  facet normal 4.642000e-17 -1.000000e+00 2.183890e-16
    outer loop
      vertex -5.000000e+00 -1.000000e+00 1.669390e+00
      vertex -6.643860e+00 -1.000000e+00 4.052290e+00
      vertex -7.261900e+00 -1.000000e+00 2.150170e+00
    endloop
  endfacet
  facet normal 1.209680e-17 -1.000000e+00 2.494110e-16
    outer loop
      vertex -7.261900e+00 -1.000000e+00 2.150170e+00
      vertex -1.075000e+01 -1.000000e+00 5.880450e+00
      vertex -1.175000e+01 -1.000000e+00 4.148400e+00
    endloop
  endfacet
  facet normal 2.991520e-17 -1.000000e+00 2.718550e-16
    outer loop
      vertex -1.175000e+01 -1.000000e+00 4.148400e+00
      vertex -1.438630e+01 -1.000000e+00 8.522390e+00
      vertex -1.572460e+01 -1.000000e+00 7.036100e+00
    endloop
  endfacet
  facet normal -2.388930e-17 -1.000000e+00 2.217630e-16
    outer loop
      vertex -1.572460e+01 -1.000000e+00 7.036100e+00
      vertex -1.739390e+01 -1.000000e+00 1.186260e+01
      vertex -1.901190e+01 -1.000000e+00 1.068705e+01
    endloop
  endfacet
  facet normal -2.011110e-17 -1.000000e+00 2.165630e-16
    outer loop
      vertex -1.739390e+01 -1.000000e+00 1.186260e+01
      vertex -1.964120e+01 -1.000000e+00 1.575520e+01
      vertex -1.901190e+01 -1.000000e+00 1.068705e+01
    endloop
  endfacet
  facet normal -1.433010e-16 -1.000000e+00 1.836320e-16
    outer loop
      vertex -2.103020e+01 -1.000000e+00 2.002990e+01
      vertex -2.150000e+01 -1.000000e+00 2.450000e+01
      vertex -2.298650e+01 -1.000000e+00 2.938590e+01
    endloop
  endfacet
  facet normal 5.622300e-17 -1.000000e+00 2.260420e-16
    outer loop
      vertex -1.964120e+01 -1.000000e+00 1.575520e+01
      vertex -2.103020e+01 -1.000000e+00 2.002990e+01
      vertex -1.901190e+01 -1.000000e+00 1.068705e+01
    endloop
  endfacet
  facet normal -4.774500e-18 -1.000000e+00 2.536380e-16
    outer loop
      vertex 1.075000e+01 -1.000000e+00 5.880450e+00
      vertex 6.643860e+00 -1.000000e+00 4.052290e+00
      vertex 1.175000e+01 -1.000000e+00 4.148400e+00
    endloop
  endfacet
  facet normal -1.517330e-17 -1.000000e+00 2.285410e-16
    outer loop
      vertex 6.643860e+00 -1.000000e+00 4.052290e+00
      vertex 5.000000e+00 -1.000000e+00 2.000000e+00
      vertex 7.261900e+00 -1.000000e+00 2.150170e+00
    endloop
  endfacet
  facet normal -5.435630e-18 -1.000000e+00 2.120340e-16
    outer loop
      vertex -2.247360e+00 -1.000000e+00 3.117780e+00
      vertex -6.643860e+00 -1.000000e+00 4.052290e+00
      vertex -5.000000e+00 -1.000000e+00 2.000000e+00
    endloop
  endfacet
  facet normal -2.701490e-16 -1.000000e+00 0.000000e+00
    outer loop
      vertex -5.000000e+00 -1.000000e+00 2.000000e+00
      vertex -6.643860e+00 -1.000000e+00 4.052290e+00
      vertex -5.000000e+00 -1.000000e+00 1.669390e+00
    endloop
  endfacet
  facet normal 5.517700e-17 -1.000000e+00 2.491090e-16
    outer loop
      vertex -1.438630e+01 -1.000000e+00 8.522390e+00
      vertex -1.739390e+01 -1.000000e+00 1.186260e+01
      vertex -1.572460e+01 -1.000000e+00 7.036100e+00
    endloop
  endfacet
  facet normal -3.673040e-18 -1.000000e+00 2.346650e-16
    outer loop
      vertex -6.643860e+00 -1.000000e+00 4.052290e+00
      vertex -1.075000e+01 -1.000000e+00 5.880450e+00
      vertex -7.261900e+00 -1.000000e+00 2.150170e+00
    endloop
  endfacet
  facet normal 2.178450e-18 -1.000000e+00 2.551370e-16
    outer loop
      vertex -1.075000e+01 -1.000000e+00 5.880450e+00
      vertex -1.438630e+01 -1.000000e+00 8.522390e+00
      vertex -1.175000e+01 -1.000000e+00 4.148400e+00
    endloop
  endfacet
  facet normal -9.036620e-18 -1.000000e+00 2.244800e-16
    outer loop
      vertex -2.150000e+01 -1.000000e+00 2.450000e+01
      vertex -2.103020e+01 -1.000000e+00 2.897010e+01
      vertex -2.298650e+01 -1.000000e+00 2.938590e+01
    endloop
  endfacet
  facet normal -6.610530e-18 -1.000000e+00 2.358930e-16
    outer loop
      vertex -2.103020e+01 -1.000000e+00 2.897010e+01
      vertex -1.964120e+01 -1.000000e+00 3.324480e+01
      vertex -2.298650e+01 -1.000000e+00 2.938590e+01
    endloop
  endfacet
  facet normal -9.945220e-01 -1.856800e-16 -1.045280e-01
    outer loop
      vertex -2.350000e+01 -1.000000e+00 2.450000e+01
      vertex -2.350000e+01 1.000000e+00 2.450000e+01
      vertex -2.298650e+01 -1.000000e+00 1.961410e+01
    endloop
  endfacet
  facet normal -9.945220e-01 -0.000000e+00 -1.045280e-01
    outer loop
      vertex -2.298650e+01 -1.000000e+00 1.961410e+01
      vertex -2.350000e+01 1.000000e+00 2.450000e+01
      vertex -2.298650e+01 1.000000e+00 1.961410e+01
    endloop
  endfacet
  facet normal -9.945220e-01 1.856800e-16 1.045280e-01
    outer loop
      vertex -2.350000e+01 -1.000000e+00 2.450000e+01
      vertex -2.298650e+01 -1.000000e+00 2.938590e+01
      vertex -2.350000e+01 1.000000e+00 2.450000e+01
    endloop
  endfacet
  facet normal -9.945220e-01 0.000000e+00 1.045280e-01
    outer loop
      vertex -2.350000e+01 1.000000e+00 2.450000e+01
      vertex -2.298650e+01 -1.000000e+00 2.938590e+01
      vertex -2.298650e+01 1.000000e+00 2.938590e+01
    endloop
  endfacet
  facet normal -9.510565e-01 0.000000e+00 3.090172e-01
    outer loop
      vertex -2.298650e+01 -1.000000e+00 2.938590e+01
      vertex -2.146830e+01 -1.000000e+00 3.405830e+01
      vertex -2.298650e+01 1.000000e+00 2.938590e+01
    endloop
  endfacet
  facet normal -9.510565e-01 0.000000e+00 3.090172e-01
    outer loop
      vertex -2.298650e+01 1.000000e+00 2.938590e+01
      vertex -2.146830e+01 -1.000000e+00 3.405830e+01
      vertex -2.146830e+01 1.000000e+00 3.405830e+01
    endloop
  endfacet
  facet normal -8.660253e-01 0.000000e+00 5.000002e-01
    outer loop
      vertex -2.146830e+01 -1.000000e+00 3.405830e+01
      vertex -1.901190e+01 -1.000000e+00 3.831300e+01
      vertex -2.146830e+01 1.000000e+00 3.405830e+01
    endloop
  endfacet
  facet normal -8.660253e-01 1.807871e-15 5.000002e-01
    outer loop
      vertex -2.146830e+01 1.000000e+00 3.405830e+01
      vertex -1.901190e+01 -1.000000e+00 3.831300e+01
      vertex -1.901190e+01 1.000000e+00 3.831300e+01
    endloop
  endfacet
  facet normal -7.431448e-01 2.377229e-15 6.691307e-01
    outer loop
      vertex -1.901190e+01 -1.000000e+00 3.831300e+01
      vertex -1.572460e+01 -1.000000e+00 4.196390e+01
      vertex -1.901190e+01 1.000000e+00 3.831300e+01
    endloop
  endfacet
  facet normal -7.431448e-01 0.000000e+00 6.691307e-01
    outer loop
      vertex -1.901190e+01 1.000000e+00 3.831300e+01
      vertex -1.572460e+01 -1.000000e+00 4.196390e+01
      vertex -1.572460e+01 1.000000e+00 4.196390e+01
    endloop
  endfacet
  facet normal -5.877851e-01 0.000000e+00 8.090171e-01
    outer loop
      vertex -1.572460e+01 1.000000e+00 4.196390e+01
      vertex -1.572460e+01 -1.000000e+00 4.196390e+01
      vertex -1.175000e+01 -1.000000e+00 4.485160e+01
    endloop
  endfacet
  facet normal -5.877851e-01 2.874210e-15 8.090171e-01
    outer loop
      vertex -1.175000e+01 1.000000e+00 4.485160e+01
      vertex -1.572460e+01 1.000000e+00 4.196390e+01
      vertex -1.175000e+01 -1.000000e+00 4.485160e+01
    endloop
  endfacet
  facet normal -4.067371e-01 3.245571e-15 9.135453e-01
    outer loop
      vertex -1.175000e+01 1.000000e+00 4.485160e+01
      vertex -1.175000e+01 -1.000000e+00 4.485160e+01
      vertex -7.261900e+00 -1.000000e+00 4.684980e+01
    endloop
  endfacet
  facet normal -4.067371e-01 0.000000e+00 9.135453e-01
    outer loop
      vertex -7.261900e+00 1.000000e+00 4.684980e+01
      vertex -1.175000e+01 1.000000e+00 4.485160e+01
      vertex -7.261900e+00 -1.000000e+00 4.684980e+01
    endloop
  endfacet
  facet normal -2.079119e-01 0.000000e+00 9.781476e-01
    outer loop
      vertex -7.261900e+00 1.000000e+00 4.684980e+01
      vertex -7.261900e+00 -1.000000e+00 4.684980e+01
      vertex -2.456420e+00 -1.000000e+00 4.787130e+01
    endloop
  endfacet
  facet normal -2.079119e-01 0.000000e+00 9.781476e-01
    outer loop
      vertex -2.456420e+00 1.000000e+00 4.787130e+01
      vertex -7.261900e+00 1.000000e+00 4.684980e+01
      vertex -2.456420e+00 -1.000000e+00 4.787130e+01
    endloop
  endfacet
  facet normal 0.000000e+00 0.000000e+00 1.000000e+00
    outer loop
      vertex -2.456420e+00 1.000000e+00 4.787130e+01
      vertex -2.456420e+00 -1.000000e+00 4.787130e+01
      vertex 2.456420e+00 -1.000000e+00 4.787130e+01
    endloop
  endfacet
  facet normal 0.000000e+00 0.000000e+00 1.000000e+00
    outer loop
      vertex 2.456420e+00 1.000000e+00 4.787130e+01
      vertex -2.456420e+00 1.000000e+00 4.787130e+01
      vertex 2.456420e+00 -1.000000e+00 4.787130e+01
    endloop
  endfacet
  facet normal 2.079119e-01 0.000000e+00 9.781476e-01
    outer loop
      vertex 2.456420e+00 1.000000e+00 4.787130e+01
      vertex 2.456420e+00 -1.000000e+00 4.787130e+01
      vertex 7.261900e+00 -1.000000e+00 4.684980e+01
    endloop
  endfacet
  facet normal 2.079119e-01 0.000000e+00 9.781476e-01
    outer loop
      vertex 7.261900e+00 1.000000e+00 4.684980e+01
      vertex 2.456420e+00 1.000000e+00 4.787130e+01
      vertex 7.261900e+00 -1.000000e+00 4.684980e+01
    endloop
  endfacet
  facet normal 4.067371e-01 0.000000e+00 9.135453e-01
    outer loop
      vertex 7.261900e+00 1.000000e+00 4.684980e+01
      vertex 7.261900e+00 -1.000000e+00 4.684980e+01
      vertex 1.175000e+01 -1.000000e+00 4.485160e+01
    endloop
  endfacet
  facet normal 4.067371e-01 3.245571e-15 9.135453e-01
    outer loop
      vertex 1.175000e+01 1.000000e+00 4.485160e+01
      vertex 7.261900e+00 1.000000e+00 4.684980e+01
      vertex 1.175000e+01 -1.000000e+00 4.485160e+01
    endloop
  endfacet
  facet normal 5.877851e-01 2.874210e-15 8.090171e-01
    outer loop
      vertex 1.175000e+01 1.000000e+00 4.485160e+01
      vertex 1.175000e+01 -1.000000e+00 4.485160e+01
      vertex 1.572460e+01 -1.000000e+00 4.196390e+01
    endloop
  endfacet
  facet normal 5.877851e-01 0.000000e+00 8.090171e-01
    outer loop
      vertex 1.572460e+01 1.000000e+00 4.196390e+01
      vertex 1.175000e+01 1.000000e+00 4.485160e+01
      vertex 1.572460e+01 -1.000000e+00 4.196390e+01
    endloop
  endfacet
  facet normal 7.431448e-01 0.000000e+00 6.691307e-01
    outer loop
      vertex 1.572460e+01 1.000000e+00 4.196390e+01
      vertex 1.572460e+01 -1.000000e+00 4.196390e+01
      vertex 1.901190e+01 -1.000000e+00 3.831300e+01
    endloop
  endfacet
  facet normal 7.431448e-01 2.377229e-15 6.691307e-01
    outer loop
      vertex 1.901190e+01 1.000000e+00 3.831300e+01
      vertex 1.572460e+01 1.000000e+00 4.196390e+01
      vertex 1.901190e+01 -1.000000e+00 3.831300e+01
    endloop
  endfacet
  facet normal 8.660253e-01 1.776361e-15 5.000002e-01
    outer loop
      vertex 1.901190e+01 1.000000e+00 3.831300e+01
      vertex 1.901190e+01 -1.000000e+00 3.831300e+01
      vertex 2.146830e+01 -1.000000e+00 3.405830e+01
    endloop
  endfacet
  facet normal 8.660253e-01 0.000000e+00 5.000002e-01
    outer loop
      vertex 2.146830e+01 1.000000e+00 3.405830e+01
      vertex 1.901190e+01 1.000000e+00 3.831300e+01
      vertex 2.146830e+01 -1.000000e+00 3.405830e+01
    endloop
  endfacet
  facet normal 9.510565e-01 0.000000e+00 3.090172e-01
    outer loop
      vertex 2.146830e+01 1.000000e+00 3.405830e+01
      vertex 2.146830e+01 -1.000000e+00 3.405830e+01
      vertex 2.298650e+01 -1.000000e+00 2.938590e+01
    endloop
  endfacet
  facet normal 9.510565e-01 0.000000e+00 3.090172e-01
    outer loop
      vertex 2.298650e+01 1.000000e+00 2.938590e+01
      vertex 2.146830e+01 1.000000e+00 3.405830e+01
      vertex 2.298650e+01 -1.000000e+00 2.938590e+01
    endloop
  endfacet
  facet normal 9.945220e-01 0.000000e+00 1.045280e-01
    outer loop
      vertex 2.298650e+01 1.000000e+00 2.938590e+01
      vertex 2.298650e+01 -1.000000e+00 2.938590e+01
      vertex 2.350000e+01 -1.000000e+00 2.450000e+01
    endloop
  endfacet
  facet normal 9.945220e-01 1.856800e-16 1.045280e-01
    outer loop
      vertex 2.350000e+01 1.000000e+00 2.450000e+01
      vertex 2.298650e+01 1.000000e+00 2.938590e+01
      vertex 2.350000e+01 -1.000000e+00 2.450000e+01
    endloop
  endfacet
  facet normal 9.945220e-01 0.000000e+00 -1.045280e-01
    outer loop
      vertex 2.350000e+01 -1.000000e+00 2.450000e+01
      vertex 2.298650e+01 -1.000000e+00 1.961410e+01
      vertex 2.298650e+01 1.000000e+00 1.961410e+01
    endloop
  endfacet
  facet normal 9.945220e-01 -1.856800e-16 -1.045280e-01
    outer loop
      vertex 2.350000e+01 1.000000e+00 2.450000e+01
      vertex 2.350000e+01 -1.000000e+00 2.450000e+01
      vertex 2.298650e+01 1.000000e+00 1.961410e+01
    endloop
  endfacet
  facet normal 9.510565e-01 -2.711811e-16 -3.090172e-01
    outer loop
      vertex 2.298650e+01 -1.000000e+00 1.961410e+01
      vertex 2.146830e+01 -1.000000e+00 1.494170e+01
      vertex 2.146830e+01 1.000000e+00 1.494170e+01
    endloop
  endfacet
  facet normal 9.510565e-01 0.000000e+00 -3.090172e-01
    outer loop
      vertex 2.298650e+01 1.000000e+00 1.961410e+01
      vertex 2.298650e+01 -1.000000e+00 1.961410e+01
      vertex 2.146830e+01 1.000000e+00 1.494170e+01
    endloop
  endfacet
  facet normal 8.660253e-01 -3.615751e-16 -5.000002e-01
    outer loop
      vertex 2.146830e+01 -1.000000e+00 1.494170e+01
      vertex 1.901190e+01 -1.000000e+00 1.068705e+01
      vertex 1.901190e+01 1.000000e+00 1.068705e+01
    endloop
  endfacet
  facet normal 8.660253e-01 -4.440892e-16 -5.000002e-01
    outer loop
      vertex 2.146830e+01 1.000000e+00 1.494170e+01
      vertex 2.146830e+01 -1.000000e+00 1.494170e+01
      vertex 1.901190e+01 1.000000e+00 1.068705e+01
    endloop
  endfacet
  facet normal 7.431448e-01 -3.615739e-16 -6.691307e-01
    outer loop
      vertex 1.901190e+01 -1.000000e+00 1.068705e+01
      vertex 1.572460e+01 -1.000000e+00 7.036100e+00
      vertex 1.572460e+01 1.000000e+00 7.036100e+00
    endloop
  endfacet
  facet normal 7.431448e-01 -5.943068e-16 -6.691307e-01
    outer loop
      vertex 1.901190e+01 1.000000e+00 1.068705e+01
      vertex 1.901190e+01 -1.000000e+00 1.068705e+01
      vertex 1.572460e+01 1.000000e+00 7.036100e+00
    endloop
  endfacet
  facet normal 5.877851e-01 -1.796380e-16 -8.090171e-01
    outer loop
      vertex 1.175000e+01 -1.000000e+00 4.148400e+00
      vertex 1.175000e+01 1.000000e+00 4.148400e+00
      vertex 1.572460e+01 -1.000000e+00 7.036100e+00
    endloop
  endfacet
  facet normal 5.877851e-01 -3.592761e-16 -8.090171e-01
    outer loop
      vertex 1.572460e+01 -1.000000e+00 7.036100e+00
      vertex 1.175000e+01 1.000000e+00 4.148400e+00
      vertex 1.572460e+01 1.000000e+00 7.036100e+00
    endloop
  endfacet
  facet normal 4.067371e-01 -2.028481e-16 -9.135453e-01
    outer loop
      vertex 7.261900e+00 -1.000000e+00 2.150170e+00
      vertex 7.261900e+00 1.000000e+00 2.150170e+00
      vertex 1.175000e+01 -1.000000e+00 4.148400e+00
    endloop
  endfacet
  facet normal 4.067371e-01 -2.028481e-16 -9.135453e-01
    outer loop
      vertex 1.175000e+01 -1.000000e+00 4.148400e+00
      vertex 7.261900e+00 1.000000e+00 2.150170e+00
      vertex 1.175000e+01 1.000000e+00 4.148400e+00
    endloop
  endfacet
  facet normal 2.079119e-01 -2.171919e-16 -9.781476e-01
    outer loop
      vertex 5.000000e+00 -1.000000e+00 1.669390e+00
      vertex 5.000000e+00 1.000000e+00 1.669390e+00
      vertex 7.261900e+00 -1.000000e+00 2.150170e+00
    endloop
  endfacet
  facet normal 2.079119e-01 -2.171919e-16 -9.781476e-01
    outer loop
      vertex 7.261900e+00 -1.000000e+00 2.150170e+00
      vertex 5.000000e+00 1.000000e+00 1.669390e+00
      vertex 7.261900e+00 1.000000e+00 2.150170e+00
    endloop
  endfacet
  facet normal 1.000000e+00 0.000000e+00 0.000000e+00
    outer loop
      vertex 5.000000e+00 -1.000000e+01 2.000000e+00
      vertex 5.000000e+00 -1.000000e+01 0.000000e+00
      vertex 5.000000e+00 1.000000e+01 0.000000e+00
    endloop
  endfacet
  facet normal 1.000000e+00 0.000000e+00 0.000000e+00
    outer loop
      vertex 5.000000e+00 -1.000000e+00 1.669390e+00
      vertex 5.000000e+00 -1.000000e+01 2.000000e+00
      vertex 5.000000e+00 1.000000e+01 0.000000e+00
    endloop
  endfacet
  facet normal 1.000000e+00 0.000000e+00 0.000000e+00
    outer loop
      vertex 5.000000e+00 1.000000e+01 2.000000e+00
      vertex 5.000000e+00 1.000000e+00 2.000000e+00
      vertex 5.000000e+00 1.000000e+01 0.000000e+00
    endloop
  endfacet
  facet normal 1.000000e+00 0.000000e+00 0.000000e+00
    outer loop
      vertex 5.000000e+00 1.000000e+00 2.000000e+00
      vertex 5.000000e+00 1.000000e+00 1.669390e+00
      vertex 5.000000e+00 1.000000e+01 0.000000e+00
    endloop
  endfacet
  facet normal 1.000000e+00 0.000000e+00 0.000000e+00
    outer loop
      vertex 5.000000e+00 1.000000e+00 1.669390e+00
      vertex 5.000000e+00 -1.000000e+00 1.669390e+00
      vertex 5.000000e+00 1.000000e+01 0.000000e+00
    endloop
  endfacet
  facet normal 1.000000e+00 0.000000e+00 0.000000e+00
    outer loop
      vertex 5.000000e+00 -1.000000e+00 1.669390e+00
      vertex 5.000000e+00 -1.000000e+00 2.000000e+00
      vertex 5.000000e+00 -1.000000e+01 2.000000e+00
    endloop
  endfacet
  facet normal 0.000000e+00 0.000000e+00 1.000000e+00
    outer loop
      vertex -5.000000e+00 -1.000000e+00 2.000000e+00
      vertex -5.000000e+00 -1.000000e+01 2.000000e+00
      vertex 5.000000e+00 -1.000000e+01 2.000000e+00
    endloop
  endfacet
  facet normal 0.000000e+00 0.000000e+00 1.000000e+00
    outer loop
      vertex 5.000000e+00 -1.000000e+00 2.000000e+00
      vertex -5.000000e+00 -1.000000e+00 2.000000e+00
      vertex 5.000000e+00 -1.000000e+01 2.000000e+00
    endloop
  endfacet
  facet normal -1.000000e+00 -0.000000e+00 -0.000000e+00
    outer loop
      vertex -5.000000e+00 -1.000000e+01 0.000000e+00
      vertex -5.000000e+00 -1.000000e+01 2.000000e+00
      vertex -5.000000e+00 1.000000e+01 0.000000e+00
    endloop
  endfacet
  facet normal -1.000000e+00 0.000000e+00 0.000000e+00
    outer loop
      vertex -5.000000e+00 -1.000000e+00 1.669390e+00
      vertex -5.000000e+00 -1.000000e+01 2.000000e+00
      vertex -5.000000e+00 -1.000000e+00 2.000000e+00
    endloop
  endfacet
  facet normal -1.000000e+00 0.000000e+00 0.000000e+00
    outer loop
      vertex -5.000000e+00 1.000000e+01 0.000000e+00
      vertex -5.000000e+00 -1.000000e+01 2.000000e+00
      vertex -5.000000e+00 -1.000000e+00 1.669390e+00
    endloop
  endfacet
  facet normal -1.000000e+00 0.000000e+00 0.000000e+00
    outer loop
      vertex -5.000000e+00 1.000000e+01 0.000000e+00
      vertex -5.000000e+00 1.000000e+00 1.669390e+00
      vertex -5.000000e+00 1.000000e+00 2.000000e+00
    endloop
  endfacet
  facet normal -1.000000e+00 0.000000e+00 0.000000e+00
    outer loop
      vertex -5.000000e+00 1.000000e+01 0.000000e+00
      vertex -5.000000e+00 1.000000e+00 2.000000e+00
      vertex -5.000000e+00 1.000000e+01 2.000000e+00
    endloop
  endfacet
  facet normal -1.000000e+00 0.000000e+00 0.000000e+00
    outer loop
      vertex -5.000000e+00 1.000000e+00 1.669390e+00
      vertex -5.000000e+00 1.000000e+01 0.000000e+00
      vertex -5.000000e+00 -1.000000e+00 1.669390e+00
    endloop
  endfacet
  facet normal -2.079119e-01 -2.171919e-16 -9.781476e-01
    outer loop
      vertex -7.261900e+00 -1.000000e+00 2.150170e+00
      vertex -7.261900e+00 1.000000e+00 2.150170e+00
      vertex -5.000000e+00 -1.000000e+00 1.669390e+00
    endloop
  endfacet
  facet normal -2.079119e-01 -2.171919e-16 -9.781476e-01
    outer loop
      vertex -5.000000e+00 -1.000000e+00 1.669390e+00
      vertex -7.261900e+00 1.000000e+00 2.150170e+00
      vertex -5.000000e+00 1.000000e+00 1.669390e+00
    endloop
  endfacet
  facet normal -4.067371e-01 -2.028481e-16 -9.135453e-01
    outer loop
      vertex -1.175000e+01 -1.000000e+00 4.148400e+00
      vertex -1.175000e+01 1.000000e+00 4.148400e+00
      vertex -7.261900e+00 -1.000000e+00 2.150170e+00
    endloop
  endfacet
  facet normal -4.067371e-01 -2.028481e-16 -9.135453e-01
    outer loop
      vertex -7.261900e+00 -1.000000e+00 2.150170e+00
      vertex -1.175000e+01 1.000000e+00 4.148400e+00
      vertex -7.261900e+00 1.000000e+00 2.150170e+00
    endloop
  endfacet
  facet normal -5.877851e-01 -3.592761e-16 -8.090171e-01
    outer loop
      vertex -1.572460e+01 -1.000000e+00 7.036100e+00
      vertex -1.572460e+01 1.000000e+00 7.036100e+00
      vertex -1.175000e+01 -1.000000e+00 4.148400e+00
    endloop
  endfacet
  facet normal -5.877851e-01 -1.796380e-16 -8.090171e-01
    outer loop
      vertex -1.175000e+01 -1.000000e+00 4.148400e+00
      vertex -1.572460e+01 1.000000e+00 7.036100e+00
      vertex -1.175000e+01 1.000000e+00 4.148400e+00
    endloop
  endfacet
  facet normal -7.431448e-01 -5.943068e-16 -6.691307e-01
    outer loop
      vertex -1.901190e+01 -1.000000e+00 1.068705e+01
      vertex -1.901190e+01 1.000000e+00 1.068705e+01
      vertex -1.572460e+01 -1.000000e+00 7.036100e+00
    endloop
  endfacet
  facet normal -7.431448e-01 -2.971539e-16 -6.691307e-01
    outer loop
      vertex -1.572460e+01 -1.000000e+00 7.036100e+00
      vertex -1.901190e+01 1.000000e+00 1.068705e+01
      vertex -1.572460e+01 1.000000e+00 7.036100e+00
    endloop
  endfacet
  facet normal -8.660253e-01 -4.440892e-16 -5.000002e-01
    outer loop
      vertex -2.146830e+01 -1.000000e+00 1.494170e+01
      vertex -2.146830e+01 1.000000e+00 1.494170e+01
      vertex -1.901190e+01 -1.000000e+00 1.068705e+01
    endloop
  endfacet
  facet normal -8.660253e-01 -4.440892e-16 -5.000002e-01
    outer loop
      vertex -1.901190e+01 -1.000000e+00 1.068705e+01
      vertex -2.146830e+01 1.000000e+00 1.494170e+01
      vertex -1.901190e+01 1.000000e+00 1.068705e+01
    endloop
  endfacet
  facet normal -9.510565e-01 -0.000000e+00 -3.090172e-01
    outer loop
      vertex -2.298650e+01 -1.000000e+00 1.961410e+01
      vertex -2.298650e+01 1.000000e+00 1.961410e+01
      vertex -2.146830e+01 -1.000000e+00 1.494170e+01
    endloop
  endfacet
  facet normal -9.510565e-01 -2.744621e-16 -3.090172e-01
    outer loop
      vertex -2.146830e+01 -1.000000e+00 1.494170e+01
      vertex -2.298650e+01 1.000000e+00 1.961410e+01
      vertex -2.146830e+01 1.000000e+00 1.494170e+01
    endloop
  endfacet
  facet normal 9.945219e-01 1.856800e-16 1.045290e-01
    outer loop
      vertex -2.103020e+01 -1.000000e+00 2.002990e+01
      vertex -2.103020e+01 1.000000e+00 2.002990e+01
      vertex -2.150000e+01 1.000000e+00 2.450000e+01
    endloop
  endfacet
  facet normal 9.945219e-01 1.856800e-16 1.045290e-01
    outer loop
      vertex -2.150000e+01 -1.000000e+00 2.450000e+01
      vertex -2.103020e+01 -1.000000e+00 2.002990e+01
      vertex -2.150000e+01 1.000000e+00 2.450000e+01
    endloop
  endfacet
  facet normal 9.510565e-01 2.744619e-16 3.090169e-01
    outer loop
      vertex -1.964120e+01 -1.000000e+00 1.575520e+01
      vertex -1.964120e+01 1.000000e+00 1.575520e+01
      vertex -2.103020e+01 1.000000e+00 2.002990e+01
    endloop
  endfacet
  facet normal 9.510565e-01 5.489237e-16 3.090169e-01
    outer loop
      vertex -2.103020e+01 -1.000000e+00 2.002990e+01
      vertex -1.964120e+01 -1.000000e+00 1.575520e+01
      vertex -2.103020e+01 1.000000e+00 2.002990e+01
    endloop
  endfacet
  facet normal 8.660253e-01 4.440892e-16 5.000002e-01
    outer loop
      vertex -1.739390e+01 -1.000000e+00 1.186260e+01
      vertex -1.739390e+01 1.000000e+00 1.186260e+01
      vertex -1.964120e+01 1.000000e+00 1.575520e+01
    endloop
  endfacet
  facet normal 8.660253e-01 4.440892e-16 5.000002e-01
    outer loop
      vertex -1.964120e+01 -1.000000e+00 1.575520e+01
      vertex -1.739390e+01 -1.000000e+00 1.186260e+01
      vertex -1.964120e+01 1.000000e+00 1.575520e+01
    endloop
  endfacet
  facet normal 7.431448e-01 2.971539e-16 6.691307e-01
    outer loop
      vertex -1.438630e+01 -1.000000e+00 8.522390e+00
      vertex -1.438630e+01 1.000000e+00 8.522390e+00
      vertex -1.739390e+01 1.000000e+00 1.186260e+01
    endloop
  endfacet
  facet normal 7.431448e-01 5.943068e-16 6.691307e-01
    outer loop
      vertex -1.739390e+01 -1.000000e+00 1.186260e+01
      vertex -1.438630e+01 -1.000000e+00 8.522390e+00
      vertex -1.739390e+01 1.000000e+00 1.186260e+01
    endloop
  endfacet
  facet normal 5.877851e-01 3.592761e-16 8.090171e-01
    outer loop
      vertex -1.075000e+01 -1.000000e+00 5.880450e+00
      vertex -1.075000e+01 1.000000e+00 5.880450e+00
      vertex -1.438630e+01 1.000000e+00 8.522390e+00
    endloop
  endfacet
  facet normal 5.877851e-01 3.592761e-16 8.090171e-01
    outer loop
      vertex -1.438630e+01 -1.000000e+00 8.522390e+00
      vertex -1.075000e+01 -1.000000e+00 5.880450e+00
      vertex -1.438630e+01 1.000000e+00 8.522390e+00
    endloop
  endfacet
  facet normal 4.067371e-01 2.028481e-16 9.135453e-01
    outer loop
      vertex -6.643860e+00 -1.000000e+00 4.052290e+00
      vertex -6.643860e+00 1.000000e+00 4.052290e+00
      vertex -1.075000e+01 1.000000e+00 5.880450e+00
    endloop
  endfacet
  facet normal 4.067371e-01 4.056961e-16 9.135453e-01
    outer loop
      vertex -1.075000e+01 -1.000000e+00 5.880450e+00
      vertex -6.643860e+00 -1.000000e+00 4.052290e+00
      vertex -1.075000e+01 1.000000e+00 5.880450e+00
    endloop
  endfacet
  facet normal 2.079119e-01 2.171919e-16 9.781476e-01
    outer loop
      vertex -2.247360e+00 -1.000000e+00 3.117780e+00
      vertex -2.247360e+00 1.000000e+00 3.117780e+00
      vertex -6.643860e+00 1.000000e+00 4.052290e+00
    endloop
  endfacet
  facet normal 2.079119e-01 2.171919e-16 9.781476e-01
    outer loop
      vertex -6.643860e+00 -1.000000e+00 4.052290e+00
      vertex -2.247360e+00 -1.000000e+00 3.117780e+00
      vertex -6.643860e+00 1.000000e+00 4.052290e+00
    endloop
  endfacet
  facet normal 0.000000e+00 2.220450e-16 1.000000e+00
    outer loop
      vertex 2.247360e+00 -1.000000e+00 3.117780e+00
      vertex 2.247360e+00 1.000000e+00 3.117780e+00
      vertex -2.247360e+00 1.000000e+00 3.117780e+00
    endloop
  endfacet
  facet normal 0.000000e+00 2.220450e-16 1.000000e+00
    outer loop
      vertex -2.247360e+00 -1.000000e+00 3.117780e+00
      vertex 2.247360e+00 -1.000000e+00 3.117780e+00
      vertex -2.247360e+00 1.000000e+00 3.117780e+00
    endloop
  endfacet
  facet normal -2.079119e-01 2.171919e-16 9.781476e-01
    outer loop
      vertex 6.643860e+00 -1.000000e+00 4.052290e+00
      vertex 6.643860e+00 1.000000e+00 4.052290e+00
      vertex 2.247360e+00 1.000000e+00 3.117780e+00
    endloop
  endfacet
  facet normal -2.079119e-01 2.171919e-16 9.781476e-01
    outer loop
      vertex 2.247360e+00 -1.000000e+00 3.117780e+00
      vertex 6.643860e+00 -1.000000e+00 4.052290e+00
      vertex 2.247360e+00 1.000000e+00 3.117780e+00
    endloop
  endfacet
  facet normal -4.067371e-01 4.056961e-16 9.135453e-01
    outer loop
      vertex 1.075000e+01 -1.000000e+00 5.880450e+00
      vertex 1.075000e+01 1.000000e+00 5.880450e+00
      vertex 6.643860e+00 1.000000e+00 4.052290e+00
    endloop
  endfacet
  facet normal -4.067371e-01 2.028481e-16 9.135453e-01
    outer loop
      vertex 6.643860e+00 -1.000000e+00 4.052290e+00
      vertex 1.075000e+01 -1.000000e+00 5.880450e+00
      vertex 6.643860e+00 1.000000e+00 4.052290e+00
    endloop
  endfacet
  facet normal -5.877851e-01 3.592761e-16 8.090171e-01
    outer loop
      vertex 1.438630e+01 -1.000000e+00 8.522390e+00
      vertex 1.438630e+01 1.000000e+00 8.522390e+00
      vertex 1.075000e+01 1.000000e+00 5.880450e+00
    endloop
  endfacet
  facet normal -5.877851e-01 3.592761e-16 8.090171e-01
    outer loop
      vertex 1.075000e+01 -1.000000e+00 5.880450e+00
      vertex 1.438630e+01 -1.000000e+00 8.522390e+00
      vertex 1.075000e+01 1.000000e+00 5.880450e+00
    endloop
  endfacet
  facet normal -7.431448e-01 5.943068e-16 6.691307e-01
    outer loop
      vertex 1.739390e+01 1.000000e+00 1.186260e+01
      vertex 1.438630e+01 1.000000e+00 8.522390e+00
      vertex 1.739390e+01 -1.000000e+00 1.186260e+01
    endloop
  endfacet
  facet normal -7.431448e-01 1.976049e-16 6.691307e-01
    outer loop
      vertex 1.739390e+01 -1.000000e+00 1.186260e+01
      vertex 1.438630e+01 1.000000e+00 8.522390e+00
      vertex 1.438630e+01 -1.000000e+00 8.522390e+00
    endloop
  endfacet
  facet normal -8.660253e-01 4.440892e-16 5.000002e-01
    outer loop
      vertex 1.964120e+01 1.000000e+00 1.575520e+01
      vertex 1.739390e+01 1.000000e+00 1.186260e+01
      vertex 1.964120e+01 -1.000000e+00 1.575520e+01
    endloop
  endfacet
  facet normal -8.660253e-01 3.952091e-16 5.000002e-01
    outer loop
      vertex 1.964120e+01 -1.000000e+00 1.575520e+01
      vertex 1.739390e+01 1.000000e+00 1.186260e+01
      vertex 1.739390e+01 -1.000000e+00 1.186260e+01
    endloop
  endfacet
  facet normal -9.510565e-01 5.489237e-16 3.090169e-01
    outer loop
      vertex 2.103020e+01 1.000000e+00 2.002990e+01
      vertex 1.964120e+01 1.000000e+00 1.575520e+01
      vertex 2.103020e+01 -1.000000e+00 2.002990e+01
    endloop
  endfacet
  facet normal -9.510565e-01 2.964069e-16 3.090169e-01
    outer loop
      vertex 2.103020e+01 -1.000000e+00 2.002990e+01
      vertex 1.964120e+01 1.000000e+00 1.575520e+01
      vertex 1.964120e+01 -1.000000e+00 1.575520e+01
    endloop
  endfacet
  facet normal -9.945219e-01 1.856800e-16 1.045290e-01
    outer loop
      vertex 2.150000e+01 1.000000e+00 2.450000e+01
      vertex 2.103020e+01 1.000000e+00 2.002990e+01
      vertex 2.150000e+01 -1.000000e+00 2.450000e+01
    endloop
  endfacet
  facet normal -9.945219e-01 1.976050e-16 1.045290e-01
    outer loop
      vertex 2.150000e+01 -1.000000e+00 2.450000e+01
      vertex 2.103020e+01 1.000000e+00 2.002990e+01
      vertex 2.103020e+01 -1.000000e+00 2.002990e+01
    endloop
  endfacet
  facet normal -9.945219e-01 -1.856800e-16 -1.045290e-01
    outer loop
      vertex 2.150000e+01 1.000000e+00 2.450000e+01
      vertex 2.150000e+01 -1.000000e+00 2.450000e+01
      vertex 2.103020e+01 1.000000e+00 2.897010e+01
    endloop
  endfacet
  facet normal -9.945219e-01 -1.856800e-16 -1.045290e-01
    outer loop
      vertex 2.103020e+01 1.000000e+00 2.897010e+01
      vertex 2.150000e+01 -1.000000e+00 2.450000e+01
      vertex 2.103020e+01 -1.000000e+00 2.897010e+01
    endloop
  endfacet
  facet normal -9.510565e-01 -5.489237e-16 -3.090169e-01
    outer loop
      vertex 2.103020e+01 1.000000e+00 2.897010e+01
      vertex 2.103020e+01 -1.000000e+00 2.897010e+01
      vertex 1.964120e+01 1.000000e+00 3.324480e+01
    endloop
  endfacet
  facet normal -9.510565e-01 0.000000e+00 -3.090169e-01
    outer loop
      vertex 1.964120e+01 1.000000e+00 3.324480e+01
      vertex 2.103020e+01 -1.000000e+00 2.897010e+01
      vertex 1.964120e+01 -1.000000e+00 3.324480e+01
    endloop
  endfacet
  facet normal -8.660253e-01 0.000000e+00 -5.000002e-01
    outer loop
      vertex 1.964120e+01 1.000000e+00 3.324480e+01
      vertex 1.964120e+01 -1.000000e+00 3.324480e+01
      vertex 1.739390e+01 1.000000e+00 3.713740e+01
    endloop
  endfacet
  facet normal -8.660253e-01 -1.776361e-15 -5.000002e-01
    outer loop
      vertex 1.739390e+01 1.000000e+00 3.713740e+01
      vertex 1.964120e+01 -1.000000e+00 3.324480e+01
      vertex 1.739390e+01 -1.000000e+00 3.713740e+01
    endloop
  endfacet
  facet normal -7.431448e-01 -2.377229e-15 -6.691307e-01
    outer loop
      vertex 1.739390e+01 1.000000e+00 3.713740e+01
      vertex 1.739390e+01 -1.000000e+00 3.713740e+01
      vertex 1.438630e+01 1.000000e+00 4.047760e+01
    endloop
  endfacet
  facet normal -7.431448e-01 0.000000e+00 -6.691307e-01
    outer loop
      vertex 1.438630e+01 1.000000e+00 4.047760e+01
      vertex 1.739390e+01 -1.000000e+00 3.713740e+01
      vertex 1.438630e+01 -1.000000e+00 4.047760e+01
    endloop
  endfacet
  facet normal -5.877851e-01 0.000000e+00 -8.090171e-01
    outer loop
      vertex 1.438630e+01 1.000000e+00 4.047760e+01
      vertex 1.438630e+01 -1.000000e+00 4.047760e+01
      vertex 1.075000e+01 1.000000e+00 4.311950e+01
    endloop
  endfacet
  facet normal -5.877851e-01 -2.874210e-15 -8.090171e-01
    outer loop
      vertex 1.075000e+01 1.000000e+00 4.311950e+01
      vertex 1.438630e+01 -1.000000e+00 4.047760e+01
      vertex 1.075000e+01 -1.000000e+00 4.311950e+01
    endloop
  endfacet
  facet normal -4.067371e-01 -3.245571e-15 -9.135453e-01
    outer loop
      vertex 1.075000e+01 1.000000e+00 4.311950e+01
      vertex 1.075000e+01 -1.000000e+00 4.311950e+01
      vertex 6.643860e+00 1.000000e+00 4.494770e+01
    endloop
  endfacet
  facet normal -4.067371e-01 0.000000e+00 -9.135453e-01
    outer loop
      vertex 6.643860e+00 1.000000e+00 4.494770e+01
      vertex 1.075000e+01 -1.000000e+00 4.311950e+01
      vertex 6.643860e+00 -1.000000e+00 4.494770e+01
    endloop
  endfacet
  facet normal -2.079119e-01 0.000000e+00 -9.781476e-01
    outer loop
      vertex 6.643860e+00 1.000000e+00 4.494770e+01
      vertex 6.643860e+00 -1.000000e+00 4.494770e+01
      vertex 2.247360e+00 1.000000e+00 4.588220e+01
    endloop
  endfacet
  facet normal -2.079119e-01 0.000000e+00 -9.781476e-01
    outer loop
      vertex 2.247360e+00 1.000000e+00 4.588220e+01
      vertex 6.643860e+00 -1.000000e+00 4.494770e+01
      vertex 2.247360e+00 -1.000000e+00 4.588220e+01
    endloop
  endfacet
  facet normal 0.000000e+00 0.000000e+00 -1.000000e+00
    outer loop
      vertex 2.247360e+00 1.000000e+00 4.588220e+01
      vertex 2.247360e+00 -1.000000e+00 4.588220e+01
      vertex -2.247360e+00 1.000000e+00 4.588220e+01
    endloop
  endfacet
  facet normal 0.000000e+00 0.000000e+00 -1.000000e+00
    outer loop
      vertex -2.247360e+00 1.000000e+00 4.588220e+01
      vertex 2.247360e+00 -1.000000e+00 4.588220e+01
      vertex -2.247360e+00 -1.000000e+00 4.588220e+01
    endloop
  endfacet
  facet normal 2.079119e-01 0.000000e+00 -9.781476e-01
    outer loop
      vertex -2.247360e+00 1.000000e+00 4.588220e+01
      vertex -2.247360e+00 -1.000000e+00 4.588220e+01
      vertex -6.643860e+00 1.000000e+00 4.494770e+01
    endloop
  endfacet
  facet normal 2.079119e-01 0.000000e+00 -9.781476e-01
    outer loop
      vertex -6.643860e+00 1.000000e+00 4.494770e+01
      vertex -2.247360e+00 -1.000000e+00 4.588220e+01
      vertex -6.643860e+00 -1.000000e+00 4.494770e+01
    endloop
  endfacet
  facet normal 4.067371e-01 0.000000e+00 -9.135453e-01
    outer loop
      vertex -6.643860e+00 1.000000e+00 4.494770e+01
      vertex -6.643860e+00 -1.000000e+00 4.494770e+01
      vertex -1.075000e+01 1.000000e+00 4.311950e+01
    endloop
  endfacet
  facet normal 4.067371e-01 -3.245571e-15 -9.135453e-01
    outer loop
      vertex -1.075000e+01 1.000000e+00 4.311950e+01
      vertex -6.643860e+00 -1.000000e+00 4.494770e+01
      vertex -1.075000e+01 -1.000000e+00 4.311950e+01
    endloop
  endfacet
  facet normal 5.877851e-01 -2.874210e-15 -8.090171e-01
    outer loop
      vertex -1.075000e+01 1.000000e+00 4.311950e+01
      vertex -1.075000e+01 -1.000000e+00 4.311950e+01
      vertex -1.438630e+01 1.000000e+00 4.047760e+01
    endloop
  endfacet
  facet normal 5.877851e-01 0.000000e+00 -8.090171e-01
    outer loop
      vertex -1.438630e+01 1.000000e+00 4.047760e+01
      vertex -1.075000e+01 -1.000000e+00 4.311950e+01
      vertex -1.438630e+01 -1.000000e+00 4.047760e+01
    endloop
  endfacet
  facet normal 7.431448e-01 0.000000e+00 -6.691307e-01
    outer loop
      vertex -1.739390e+01 1.000000e+00 3.713740e+01
      vertex -1.438630e+01 1.000000e+00 4.047760e+01
      vertex -1.438630e+01 -1.000000e+00 4.047760e+01
    endloop
  endfacet
  facet normal 7.431448e-01 -2.377229e-15 -6.691307e-01
    outer loop
      vertex -1.739390e+01 -1.000000e+00 3.713740e+01
      vertex -1.739390e+01 1.000000e+00 3.713740e+01
      vertex -1.438630e+01 -1.000000e+00 4.047760e+01
    endloop
  endfacet
  facet normal 8.660253e-01 -1.778441e-15 -5.000002e-01
    outer loop
      vertex -1.964120e+01 1.000000e+00 3.324480e+01
      vertex -1.739390e+01 1.000000e+00 3.713740e+01
      vertex -1.739390e+01 -1.000000e+00 3.713740e+01
    endloop
  endfacet
  facet normal 8.660253e-01 0.000000e+00 -5.000002e-01
    outer loop
      vertex -1.964120e+01 -1.000000e+00 3.324480e+01
      vertex -1.964120e+01 1.000000e+00 3.324480e+01
      vertex -1.739390e+01 -1.000000e+00 3.713740e+01
    endloop
  endfacet
  facet normal 9.510565e-01 0.000000e+00 -3.090169e-01
    outer loop
      vertex -2.103020e+01 1.000000e+00 2.897010e+01
      vertex -1.964120e+01 1.000000e+00 3.324480e+01
      vertex -1.964120e+01 -1.000000e+00 3.324480e+01
    endloop
  endfacet
  facet normal 9.510565e-01 -5.489237e-16 -3.090169e-01
    outer loop
      vertex -2.103020e+01 -1.000000e+00 2.897010e+01
      vertex -2.103020e+01 1.000000e+00 2.897010e+01
      vertex -1.964120e+01 -1.000000e+00 3.324480e+01
    endloop
  endfacet
  facet normal 9.945219e-01 -1.976050e-16 -1.045290e-01
    outer loop
      vertex -2.150000e+01 1.000000e+00 2.450000e+01
      vertex -2.103020e+01 1.000000e+00 2.897010e+01
      vertex -2.103020e+01 -1.000000e+00 2.897010e+01
    endloop
  endfacet
  facet normal 9.945219e-01 -1.856800e-16 -1.045290e-01
    outer loop
      vertex -2.150000e+01 -1.000000e+00 2.450000e+01
      vertex -2.150000e+01 1.000000e+00 2.450000e+01
      vertex -2.103020e+01 -1.000000e+00 2.897010e+01
    endloop
  endfacet
  facet normal 2.161940e-16 1.000000e+00 -2.045060e-16
    outer loop
      vertex -2.350000e+01 1.000000e+00 2.450000e+01
      vertex -2.298650e+01 1.000000e+00 2.938590e+01
      vertex -2.298650e+01 1.000000e+00 1.961410e+01
    endloop
  endfacet
  facet normal -1.018950e-16 1.000000e+00 -2.045060e-16
    outer loop
      vertex -2.298650e+01 1.000000e+00 1.961410e+01
      vertex -2.298650e+01 1.000000e+00 2.938590e+01
      vertex -2.146830e+01 1.000000e+00 3.405830e+01
    endloop
  endfacet
  facet normal 1.422850e-17 1.000000e+00 -2.169700e-16
    outer loop
      vertex -2.103020e+01 1.000000e+00 2.897010e+01
      vertex -2.146830e+01 1.000000e+00 3.405830e+01
      vertex -1.901190e+01 1.000000e+00 3.831300e+01
    endloop
  endfacet
  facet normal -2.388930e-17 1.000000e+00 -2.217630e-16
    outer loop
      vertex -1.739390e+01 1.000000e+00 3.713740e+01
      vertex -1.901190e+01 1.000000e+00 3.831300e+01
      vertex -1.572460e+01 1.000000e+00 4.196390e+01
    endloop
  endfacet
  facet normal 2.991520e-17 1.000000e+00 -2.718550e-16
    outer loop
      vertex -1.438630e+01 1.000000e+00 4.047760e+01
      vertex -1.572460e+01 1.000000e+00 4.196390e+01
      vertex -1.175000e+01 1.000000e+00 4.485160e+01
    endloop
  endfacet
  facet normal 1.209680e-17 1.000000e+00 -2.494110e-16
    outer loop
      vertex -1.075000e+01 1.000000e+00 4.311950e+01
      vertex -1.175000e+01 1.000000e+00 4.485160e+01
      vertex -7.261900e+00 1.000000e+00 4.684980e+01
    endloop
  endfacet
  facet normal 3.198500e-18 1.000000e+00 -2.324320e-16
    outer loop
      vertex -6.643860e+00 1.000000e+00 4.494770e+01
      vertex -7.261900e+00 1.000000e+00 4.684980e+01
      vertex -2.456420e+00 1.000000e+00 4.787130e+01
    endloop
  endfacet
  facet normal 0.000000e+00 1.000000e+00 -2.232680e-16
    outer loop
      vertex -2.247360e+00 1.000000e+00 4.588220e+01
      vertex -2.456420e+00 1.000000e+00 4.787130e+01
      vertex 2.456420e+00 1.000000e+00 4.787130e+01
    endloop
  endfacet
  facet normal -1.223170e-18 1.000000e+00 -2.231390e-16
    outer loop
      vertex 2.247360e+00 1.000000e+00 4.588220e+01
      vertex 2.456420e+00 1.000000e+00 4.787130e+01
      vertex 7.261900e+00 1.000000e+00 4.684980e+01
    endloop
  endfacet
  facet normal -4.368160e-18 1.000000e+00 -2.320520e-16
    outer loop
      vertex 6.643860e+00 1.000000e+00 4.494770e+01
      vertex 7.261900e+00 1.000000e+00 4.684980e+01
      vertex 1.175000e+01 1.000000e+00 4.485160e+01
    endloop
  endfacet
  facet normal -1.316190e-17 1.000000e+00 -2.487960e-16
    outer loop
      vertex 1.075000e+01 1.000000e+00 4.311950e+01
      vertex 1.175000e+01 1.000000e+00 4.485160e+01
      vertex 1.572460e+01 1.000000e+00 4.196390e+01
    endloop
  endfacet
  facet normal -3.082910e-17 1.000000e+00 -2.710320e-16
    outer loop
      vertex 1.438630e+01 1.000000e+00 4.047760e+01
      vertex 1.572460e+01 1.000000e+00 4.196390e+01
      vertex 1.901190e+01 1.000000e+00 3.831300e+01
    endloop
  endfacet
  facet normal 1.017160e-17 1.000000e+00 -2.028830e-16
    outer loop
      vertex 1.739390e+01 1.000000e+00 3.713740e+01
      vertex 1.901190e+01 1.000000e+00 3.831300e+01
      vertex 2.146830e+01 1.000000e+00 3.405830e+01
    endloop
  endfacet
  facet normal -1.374780e-17 1.000000e+00 -2.420810e-16
    outer loop
      vertex 1.964120e+01 1.000000e+00 3.324480e+01
      vertex 2.146830e+01 1.000000e+00 3.405830e+01
      vertex 2.298650e+01 1.000000e+00 2.938590e+01
    endloop
  endfacet
  facet normal 0.000000e+00 1.000000e+00 -1.817830e-16
    outer loop
      vertex 2.150000e+01 1.000000e+00 2.450000e+01
      vertex 2.298650e+01 1.000000e+00 2.938590e+01
      vertex 2.350000e+01 1.000000e+00 2.450000e+01
    endloop
  endfacet
  facet normal 8.267550e-18 1.000000e+00 -2.280980e-16
    outer loop
      vertex 2.103020e+01 1.000000e+00 2.002990e+01
      vertex 2.350000e+01 1.000000e+00 2.450000e+01
      vertex 2.298650e+01 1.000000e+00 1.961410e+01
    endloop
  endfacet
  facet normal 1.374780e-17 1.000000e+00 -2.420810e-16
    outer loop
      vertex 1.964120e+01 1.000000e+00 1.575520e+01
      vertex 2.298650e+01 1.000000e+00 1.961410e+01
      vertex 2.146830e+01 1.000000e+00 1.494170e+01
    endloop
  endfacet
  facet normal -1.017160e-17 1.000000e+00 -2.028830e-16
    outer loop
      vertex 1.739390e+01 1.000000e+00 1.186260e+01
      vertex 2.146830e+01 1.000000e+00 1.494170e+01
      vertex 1.901190e+01 1.000000e+00 1.068705e+01
    endloop
  endfacet
  facet normal 6.235470e-18 1.000000e+00 -2.184790e-16
    outer loop
      vertex 1.438630e+01 1.000000e+00 8.522390e+00
      vertex 1.901190e+01 1.000000e+00 1.068705e+01
      vertex 1.572460e+01 1.000000e+00 7.036100e+00
    endloop
  endfacet
  facet normal -1.964650e-17 1.000000e+00 -2.036390e-16
    outer loop
      vertex 1.075000e+01 1.000000e+00 5.880450e+00
      vertex 1.572460e+01 1.000000e+00 7.036100e+00
      vertex 1.175000e+01 1.000000e+00 4.148400e+00
    endloop
  endfacet
  facet normal 4.368160e-18 1.000000e+00 -2.320520e-16
    outer loop
      vertex 6.643860e+00 1.000000e+00 4.052290e+00
      vertex 1.175000e+01 1.000000e+00 4.148400e+00
      vertex 7.261900e+00 1.000000e+00 2.150170e+00
    endloop
  endfacet
  facet normal 2.229510e-17 1.000000e+00 -3.358110e-16
    outer loop
      vertex 5.000000e+00 1.000000e+00 2.000000e+00
      vertex 7.261900e+00 1.000000e+00 2.150170e+00
      vertex 5.000000e+00 1.000000e+00 1.669390e+00
    endloop
  endfacet
  facet normal 2.178450e-18 1.000000e+00 -2.551370e-16
    outer loop
      vertex -1.438630e+01 1.000000e+00 4.047760e+01
      vertex -1.175000e+01 1.000000e+00 4.485160e+01
      vertex -1.075000e+01 1.000000e+00 4.311950e+01
    endloop
  endfacet
  facet normal -1.433010e-16 1.000000e+00 -1.836320e-16
    outer loop
      vertex -2.150000e+01 1.000000e+00 2.450000e+01
      vertex -2.298650e+01 1.000000e+00 1.961410e+01
      vertex -2.103020e+01 1.000000e+00 2.897010e+01
    endloop
  endfacet
  facet normal -1.994800e-17 1.000000e+00 -2.269900e-16
    outer loop
      vertex -6.643860e+00 1.000000e+00 4.052290e+00
      vertex -7.261900e+00 1.000000e+00 2.150170e+00
      vertex -1.075000e+01 1.000000e+00 5.880450e+00
    endloop
  endfacet
  facet normal -5.072360e-19 1.000000e+00 -2.333070e-16
    outer loop
      vertex -6.643860e+00 1.000000e+00 4.052290e+00
      vertex -5.000000e+00 1.000000e+00 1.669390e+00
      vertex -7.261900e+00 1.000000e+00 2.150170e+00
    endloop
  endfacet
  facet normal -3.773270e-18 1.000000e+00 -2.307160e-16
    outer loop
      vertex -1.438630e+01 1.000000e+00 8.522390e+00
      vertex -7.261900e+00 1.000000e+00 2.150170e+00
      vertex -1.175000e+01 1.000000e+00 4.148400e+00
    endloop
  endfacet
  facet normal 2.295650e-17 1.000000e+00 -1.990830e-16
    outer loop
      vertex -1.739390e+01 1.000000e+00 1.186260e+01
      vertex -1.175000e+01 1.000000e+00 4.148400e+00
      vertex -1.572460e+01 1.000000e+00 7.036100e+00
    endloop
  endfacet
  facet normal -2.415680e-17 1.000000e+00 -2.346150e-16
    outer loop
      vertex -2.298650e+01 1.000000e+00 1.961410e+01
      vertex -1.572460e+01 1.000000e+00 7.036100e+00
      vertex -1.901190e+01 1.000000e+00 1.068705e+01
    endloop
  endfacet
  facet normal -1.143230e-16 1.000000e+00 -2.747590e-16
    outer loop
      vertex -2.298650e+01 1.000000e+00 1.961410e+01
      vertex -1.901190e+01 1.000000e+00 1.068705e+01
      vertex -2.146830e+01 1.000000e+00 1.494170e+01
    endloop
  endfacet
  facet normal -9.036620e-18 1.000000e+00 -2.244800e-16
    outer loop
      vertex -2.103020e+01 1.000000e+00 2.002990e+01
      vertex -2.298650e+01 1.000000e+00 1.961410e+01
      vertex -2.150000e+01 1.000000e+00 2.450000e+01
    endloop
  endfacet
  facet normal 1.517330e-17 1.000000e+00 -2.285410e-16
    outer loop
      vertex 6.643860e+00 1.000000e+00 4.052290e+00
      vertex 7.261900e+00 1.000000e+00 2.150170e+00
      vertex 5.000000e+00 1.000000e+00 2.000000e+00
    endloop
  endfacet
  facet normal -6.610530e-18 1.000000e+00 -2.358930e-16
    outer loop
      vertex -1.964120e+01 1.000000e+00 1.575520e+01
      vertex -2.298650e+01 1.000000e+00 1.961410e+01
      vertex -2.103020e+01 1.000000e+00 2.002990e+01
    endloop
  endfacet
  facet normal 6.868320e-18 1.000000e+00 -2.242090e-16
    outer loop
      vertex -1.739390e+01 1.000000e+00 1.186260e+01
      vertex -2.298650e+01 1.000000e+00 1.961410e+01
      vertex -1.964120e+01 1.000000e+00 1.575520e+01
    endloop
  endfacet
  facet normal -9.746860e-17 1.000000e+00 -2.871890e-16
    outer loop
      vertex -1.438630e+01 1.000000e+00 8.522390e+00
      vertex -1.175000e+01 1.000000e+00 4.148400e+00
      vertex -1.739390e+01 1.000000e+00 1.186260e+01
    endloop
  endfacet
  facet normal 5.894400e-17 1.000000e+00 -1.866370e-16
    outer loop
      vertex -2.298650e+01 1.000000e+00 1.961410e+01
      vertex -1.739390e+01 1.000000e+00 1.186260e+01
      vertex -1.572460e+01 1.000000e+00 7.036100e+00
    endloop
  endfacet
  facet normal 9.925510e-17 1.000000e+00 -1.155260e-16
    outer loop
      vertex -1.075000e+01 1.000000e+00 5.880450e+00
      vertex -7.261900e+00 1.000000e+00 2.150170e+00
      vertex -1.438630e+01 1.000000e+00 8.522390e+00
    endloop
  endfacet
  facet normal -1.490940e-16 1.000000e+00 -3.358110e-16
    outer loop
      vertex -6.643860e+00 1.000000e+00 4.052290e+00
      vertex -5.000000e+00 1.000000e+00 2.000000e+00
      vertex -5.000000e+00 1.000000e+00 1.669390e+00
    endloop
  endfacet
  facet normal 5.517700e-17 1.000000e+00 -2.491090e-16
    outer loop
      vertex -1.739390e+01 1.000000e+00 3.713740e+01
      vertex -1.572460e+01 1.000000e+00 4.196390e+01
      vertex -1.438630e+01 1.000000e+00 4.047760e+01
    endloop
  endfacet
  facet normal 5.435630e-18 1.000000e+00 -2.120340e-16
    outer loop
      vertex -6.643860e+00 1.000000e+00 4.052290e+00
      vertex -2.247360e+00 1.000000e+00 3.117780e+00
      vertex -5.000000e+00 1.000000e+00 2.000000e+00
    endloop
  endfacet
  facet normal 4.131070e-17 1.000000e+00 -1.943510e-16
    outer loop
      vertex 2.103020e+01 1.000000e+00 2.897010e+01
      vertex 2.298650e+01 1.000000e+00 2.938590e+01
      vertex 2.150000e+01 1.000000e+00 2.450000e+01
    endloop
  endfacet
  facet normal -1.586200e-17 1.000000e+00 -2.373320e-16
    outer loop
      vertex 1.739390e+01 1.000000e+00 3.713740e+01
      vertex 2.146830e+01 1.000000e+00 3.405830e+01
      vertex 1.964120e+01 1.000000e+00 3.324480e+01
    endloop
  endfacet
  facet normal 4.131070e-17 1.000000e+00 -1.943510e-16
    outer loop
      vertex 1.964120e+01 1.000000e+00 3.324480e+01
      vertex 2.298650e+01 1.000000e+00 2.938590e+01
      vertex 2.103020e+01 1.000000e+00 2.897010e+01
    endloop
  endfacet
  facet normal 0.000000e+00 1.000000e+00 -2.235300e-16
    outer loop
      vertex 2.150000e+01 1.000000e+00 2.450000e+01
      vertex 2.350000e+01 1.000000e+00 2.450000e+01
      vertex 2.103020e+01 1.000000e+00 2.002990e+01
    endloop
  endfacet
  facet normal 6.610530e-18 1.000000e+00 -2.358930e-16
    outer loop
      vertex 2.103020e+01 1.000000e+00 2.002990e+01
      vertex 2.298650e+01 1.000000e+00 1.961410e+01
      vertex 1.964120e+01 1.000000e+00 1.575520e+01
    endloop
  endfacet
  facet normal 1.586200e-17 1.000000e+00 -2.373320e-16
    outer loop
      vertex 1.964120e+01 1.000000e+00 1.575520e+01
      vertex 2.146830e+01 1.000000e+00 1.494170e+01
      vertex 1.739390e+01 1.000000e+00 1.186260e+01
    endloop
  endfacet
  facet normal -4.631510e-18 1.000000e+00 -1.952570e-16
    outer loop
      vertex 1.739390e+01 1.000000e+00 1.186260e+01
      vertex 1.901190e+01 1.000000e+00 1.068705e+01
      vertex 1.438630e+01 1.000000e+00 8.522390e+00
    endloop
  endfacet
  facet normal -1.231820e-17 1.000000e+00 -2.351840e-16
    outer loop
      vertex 1.438630e+01 1.000000e+00 8.522390e+00
      vertex 1.572460e+01 1.000000e+00 7.036100e+00
      vertex 1.075000e+01 1.000000e+00 5.880450e+00
    endloop
  endfacet
  facet normal 3.580870e-18 1.000000e+00 -1.902290e-16
    outer loop
      vertex 1.075000e+01 1.000000e+00 5.880450e+00
      vertex 1.175000e+01 1.000000e+00 4.148400e+00
      vertex 6.643860e+00 1.000000e+00 4.052290e+00
    endloop
  endfacet
  facet normal -2.011110e-17 1.000000e+00 -2.165630e-16
    outer loop
      vertex -1.964120e+01 1.000000e+00 3.324480e+01
      vertex -1.901190e+01 1.000000e+00 3.831300e+01
      vertex -1.739390e+01 1.000000e+00 3.713740e+01
    endloop
  endfacet
  facet normal 5.622300e-17 1.000000e+00 -2.260420e-16
    outer loop
      vertex -2.103020e+01 1.000000e+00 2.897010e+01
      vertex -1.901190e+01 1.000000e+00 3.831300e+01
      vertex -1.964120e+01 1.000000e+00 3.324480e+01
    endloop
  endfacet
  facet normal 1.558270e-17 1.000000e+00 -2.168530e-16
    outer loop
      vertex -2.298650e+01 1.000000e+00 1.961410e+01
      vertex -2.146830e+01 1.000000e+00 3.405830e+01
      vertex -2.103020e+01 1.000000e+00 2.897010e+01
    endloop
  endfacet
  facet normal 0.000000e+00 1.000000e+00 -1.986480e-16
    outer loop
      vertex -5.000000e+00 1.000000e+00 2.000000e+00
      vertex -2.247360e+00 1.000000e+00 3.117780e+00
      vertex 2.247360e+00 1.000000e+00 3.117780e+00
    endloop
  endfacet
  facet normal 0.000000e+00 1.000000e+00 -1.986480e-16
    outer loop
      vertex -5.000000e+00 1.000000e+00 2.000000e+00
      vertex 2.247360e+00 1.000000e+00 3.117780e+00
      vertex 5.000000e+00 1.000000e+00 2.000000e+00
    endloop
  endfacet
  facet normal -3.673040e-18 1.000000e+00 -2.346650e-16
    outer loop
      vertex -1.075000e+01 1.000000e+00 4.311950e+01
      vertex -7.261900e+00 1.000000e+00 4.684980e+01
      vertex -6.643860e+00 1.000000e+00 4.494770e+01
    endloop
  endfacet
  facet normal -2.981190e-18 1.000000e+00 -2.235810e-16
    outer loop
      vertex -6.643860e+00 1.000000e+00 4.494770e+01
      vertex -2.456420e+00 1.000000e+00 4.787130e+01
      vertex -2.247360e+00 1.000000e+00 4.588220e+01
    endloop
  endfacet
  facet normal 0.000000e+00 1.000000e+00 -2.232680e-16
    outer loop
      vertex -2.247360e+00 1.000000e+00 4.588220e+01
      vertex 2.456420e+00 1.000000e+00 4.787130e+01
      vertex 2.247360e+00 1.000000e+00 4.588220e+01
    endloop
  endfacet
  facet normal 8.221180e-19 1.000000e+00 -2.337390e-16
    outer loop
      vertex 2.247360e+00 1.000000e+00 4.588220e+01
      vertex 7.261900e+00 1.000000e+00 4.684980e+01
      vertex 6.643860e+00 1.000000e+00 4.494770e+01
    endloop
  endfacet
  facet normal -4.774500e-18 1.000000e+00 -2.536380e-16
    outer loop
      vertex 6.643860e+00 1.000000e+00 4.494770e+01
      vertex 1.175000e+01 1.000000e+00 4.485160e+01
      vertex 1.075000e+01 1.000000e+00 4.311950e+01
    endloop
  endfacet
  facet normal -2.049020e-17 1.000000e+00 -2.803410e-16
    outer loop
      vertex 1.075000e+01 1.000000e+00 4.311950e+01
      vertex 1.572460e+01 1.000000e+00 4.196390e+01
      vertex 1.438630e+01 1.000000e+00 4.047760e+01
    endloop
  endfacet
  facet normal 4.631510e-18 1.000000e+00 -1.952570e-16
    outer loop
      vertex 1.438630e+01 1.000000e+00 4.047760e+01
      vertex 1.901190e+01 1.000000e+00 3.831300e+01
      vertex 1.739390e+01 1.000000e+00 3.713740e+01
    endloop
  endfacet
  facet normal -5.435630e-18 1.000000e+00 -2.120340e-16
    outer loop
      vertex 6.643860e+00 1.000000e+00 4.052290e+00
      vertex 5.000000e+00 1.000000e+00 2.000000e+00
      vertex 2.247360e+00 1.000000e+00 3.117780e+00
    endloop
  endfacet
  facet normal 0.000000e+00 -1.000000e+00 0.000000e+00
    outer loop
      vertex -5.000000e+00 -1.000000e+01 2.000000e+00
      vertex -5.000000e+00 -1.000000e+01 0.000000e+00
      vertex 5.000000e+00 -1.000000e+01 0.000000e+00
    endloop
  endfacet
  facet normal 0.000000e+00 -1.000000e+00 0.000000e+00
    outer loop
      vertex 5.000000e+00 -1.000000e+01 2.000000e+00
      vertex -5.000000e+00 -1.000000e+01 2.000000e+00
      vertex 5.000000e+00 -1.000000e+01 0.000000e+00
    endloop
  endfacet
  facet normal 0.000000e+00 0.000000e+00 1.000000e+00
    outer loop
      vertex -5.000000e+00 1.000000e+01 2.000000e+00
      vertex -5.000000e+00 1.000000e+00 2.000000e+00
      vertex 5.000000e+00 1.000000e+00 2.000000e+00
    endloop
  endfacet
  facet normal 0.000000e+00 0.000000e+00 1.000000e+00
    outer loop
      vertex 5.000000e+00 1.000000e+01 2.000000e+00
      vertex -5.000000e+00 1.000000e+01 2.000000e+00
      vertex 5.000000e+00 1.000000e+00 2.000000e+00
    endloop
  endfacet
  facet normal 0.000000e+00 1.000000e+00 0.000000e+00
    outer loop
      vertex -5.000000e+00 1.000000e+01 0.000000e+00
      vertex -5.000000e+00 1.000000e+01 2.000000e+00
      vertex 5.000000e+00 1.000000e+01 0.000000e+00
    endloop
  endfacet
  facet normal 0.000000e+00 1.000000e+00 0.000000e+00
    outer loop
      vertex 5.000000e+00 1.000000e+01 0.000000e+00
      vertex -5.000000e+00 1.000000e+01 2.000000e+00
      vertex 5.000000e+00 1.000000e+01 2.000000e+00
    endloop
  endfacet
  facet normal -0.000000e+00 -0.000000e+00 -1.000000e+00
    outer loop
      vertex -5.000000e+00 -1.000000e+01 0.000000e+00
      vertex -5.000000e+00 1.000000e+01 0.000000e+00
      vertex 5.000000e+00 -1.000000e+01 0.000000e+00
    endloop
  endfacet
  facet normal 0.000000e+00 0.000000e+00 -1.000000e+00
    outer loop
      vertex 5.000000e+00 -1.000000e+01 0.000000e+00
      vertex -5.000000e+00 1.000000e+01 0.000000e+00
      vertex 5.000000e+00 1.000000e+01 0.000000e+00
    endloop
  endfacet
endsolid Default
