solid Default
  facet normal -9.945160e-01 -1.045850e-01 -0.000000e+00
    outer loop
      vertex -1.500000e+01 0.000000e+00 0.000000e+00
      vertex -1.467200e+01 -3.119000e+00 0.000000e+00
      vertex -1.500000e+01 0.000000e+00 2.000000e+00
    endloop
  endfacet
  facet normal -9.945160e-01 -1.045850e-01 0.000000e+00
    outer loop
      vertex -1.500000e+01 0.000000e+00 2.000000e+00
      vertex -1.467200e+01 -3.119000e+00 0.000000e+00
      vertex -1.467200e+01 -3.119000e+00 2.000000e+00
    endloop
  endfacet
  facet normal 0.000000e+00 0.000000e+00 -1.000000e+00
    outer loop
      vertex -1.500000e+01 0.000000e+00 0.000000e+00
      vertex -1.467200e+01 3.119000e+00 0.000000e+00
      vertex -1.467200e+01 -3.119000e+00 0.000000e+00
    endloop
  endfacet
  facet normal 0.000000e+00 0.000000e+00 -1.000000e+00
    outer loop
      vertex -1.467200e+01 -3.119000e+00 0.000000e+00
      vertex -1.467200e+01 3.119000e+00 0.000000e+00
      vertex -1.370300e+01 6.101000e+00 0.000000e+00
    endloop
  endfacet
  facet normal 0.000000e+00 0.000000e+00 -1.000000e+00
    outer loop
      vertex -1.467200e+01 -3.119000e+00 0.000000e+00
      vertex -1.370300e+01 6.101000e+00 0.000000e+00
      vertex -1.213500e+01 8.817000e+00 0.000000e+00
    endloop
  endfacet
  facet normal 0.000000e+00 0.000000e+00 -1.000000e+00
    outer loop
      vertex -1.467200e+01 -3.119000e+00 0.000000e+00
      vertex -1.213500e+01 8.817000e+00 0.000000e+00
      vertex -1.003700e+01 1.114700e+01 0.000000e+00
    endloop
  endfacet
  facet normal 0.000000e+00 0.000000e+00 -1.000000e+00
    outer loop
      vertex -1.467200e+01 -3.119000e+00 0.000000e+00
      vertex -1.003700e+01 1.114700e+01 0.000000e+00
      vertex -7.500000e+00 1.299000e+01 0.000000e+00
    endloop
  endfacet
  facet normal 0.000000e+00 0.000000e+00 -1.000000e+00
    outer loop
      vertex -8.029570e+00 8.917740e+00 0.000000e+00
      vertex -7.500000e+00 1.299000e+01 0.000000e+00
      vertex -4.635000e+00 1.426600e+01 0.000000e+00
    endloop
  endfacet
  facet normal 0.000000e+00 0.000000e+00 -1.000000e+00
    outer loop
      vertex -6.000000e+00 1.039230e+01 0.000000e+00
      vertex -4.635000e+00 1.426600e+01 0.000000e+00
      vertex -1.568000e+00 1.491800e+01 0.000000e+00
    endloop
  endfacet
  facet normal 0.000000e+00 0.000000e+00 -1.000000e+00
    outer loop
      vertex -1.254340e+00 1.193430e+01 0.000000e+00
      vertex -1.568000e+00 1.491800e+01 0.000000e+00
      vertex 1.568000e+00 1.491800e+01 0.000000e+00
    endloop
  endfacet
  facet normal 0.000000e+00 0.000000e+00 -1.000000e+00
    outer loop
      vertex 1.254340e+00 1.193430e+01 0.000000e+00
      vertex 1.568000e+00 1.491800e+01 0.000000e+00
      vertex 4.635000e+00 1.426600e+01 0.000000e+00
    endloop
  endfacet
  facet normal -0.000000e+00 -0.000000e+00 -1.000000e+00
    outer loop
      vertex 9.708200e+00 7.053420e+00 0.000000e+00
      vertex 4.635000e+00 1.426600e+01 0.000000e+00
      vertex 2.400000e+01 6.000000e+00 0.000000e+00
    endloop
  endfacet
  facet normal 0.000000e+00 0.000000e+00 -1.000000e+00
    outer loop
      vertex 1.173780e+01 -2.494940e+00 0.000000e+00
      vertex 2.400000e+01 6.000000e+00 0.000000e+00
      vertex 2.400000e+01 -6.000000e+00 0.000000e+00
    endloop
  endfacet
  facet normal 0.000000e+00 0.000000e+00 -1.000000e+00
    outer loop
      vertex 3.708200e+00 -1.141270e+01 0.000000e+00
      vertex 2.400000e+01 -6.000000e+00 0.000000e+00
      vertex 4.635000e+00 -1.426600e+01 0.000000e+00
    endloop
  endfacet
  facet normal 0.000000e+00 0.000000e+00 -1.000000e+00
    outer loop
      vertex -1.254340e+00 -1.193430e+01 0.000000e+00
      vertex 4.635000e+00 -1.426600e+01 0.000000e+00
      vertex 1.568000e+00 -1.491800e+01 0.000000e+00
    endloop
  endfacet
  facet normal 0.000000e+00 0.000000e+00 -1.000000e+00
    outer loop
      vertex -6.000000e+00 -1.039230e+01 0.000000e+00
      vertex 1.568000e+00 -1.491800e+01 0.000000e+00
      vertex -1.568000e+00 -1.491800e+01 0.000000e+00
    endloop
  endfacet
  facet normal 0.000000e+00 0.000000e+00 -1.000000e+00
    outer loop
      vertex -1.467200e+01 -3.119000e+00 0.000000e+00
      vertex -1.568000e+00 -1.491800e+01 0.000000e+00
      vertex -4.635000e+00 -1.426600e+01 0.000000e+00
    endloop
  endfacet
  facet normal 0.000000e+00 0.000000e+00 -1.000000e+00
    outer loop
      vertex -1.467200e+01 -3.119000e+00 0.000000e+00
      vertex -4.635000e+00 -1.426600e+01 0.000000e+00
      vertex -7.500000e+00 -1.299000e+01 0.000000e+00
    endloop
  endfacet
  facet normal 0.000000e+00 0.000000e+00 -1.000000e+00
    outer loop
      vertex -1.467200e+01 -3.119000e+00 0.000000e+00
      vertex -7.500000e+00 -1.299000e+01 0.000000e+00
      vertex -1.003700e+01 -1.114700e+01 0.000000e+00
    endloop
  endfacet
  facet normal 0.000000e+00 0.000000e+00 -1.000000e+00
    outer loop
      vertex -1.467200e+01 -3.119000e+00 0.000000e+00
      vertex -1.003700e+01 -1.114700e+01 0.000000e+00
      vertex -1.213500e+01 -8.817000e+00 0.000000e+00
    endloop
  endfacet
  facet normal 0.000000e+00 0.000000e+00 -1.000000e+00
    outer loop
      vertex -1.467200e+01 -3.119000e+00 0.000000e+00
      vertex -1.213500e+01 -8.817000e+00 0.000000e+00
      vertex -1.370300e+01 -6.101000e+00 0.000000e+00
    endloop
  endfacet
  facet normal 0.000000e+00 0.000000e+00 -1.000000e+00
    outer loop
      vertex -1.173780e+01 -2.494940e+00 0.000000e+00
      vertex -1.467200e+01 -3.119000e+00 0.000000e+00
      vertex -1.200000e+01 0.000000e+00 0.000000e+00
    endloop
  endfacet
  facet normal 0.000000e+00 0.000000e+00 -1.000000e+00
    outer loop
      vertex -1.096250e+01 -4.880840e+00 0.000000e+00
      vertex -1.467200e+01 -3.119000e+00 0.000000e+00
      vertex -1.173780e+01 -2.494940e+00 0.000000e+00
    endloop
  endfacet
  facet normal 0.000000e+00 0.000000e+00 -1.000000e+00
    outer loop
      vertex -9.708200e+00 -7.053420e+00 0.000000e+00
      vertex -1.467200e+01 -3.119000e+00 0.000000e+00
      vertex -1.096250e+01 -4.880840e+00 0.000000e+00
    endloop
  endfacet
  facet normal 0.000000e+00 0.000000e+00 -1.000000e+00
    outer loop
      vertex -6.000000e+00 -1.039230e+01 0.000000e+00
      vertex -1.568000e+00 -1.491800e+01 0.000000e+00
      vertex -8.029570e+00 -8.917740e+00 0.000000e+00
    endloop
  endfacet
  facet normal 0.000000e+00 0.000000e+00 -1.000000e+00
    outer loop
      vertex -1.467200e+01 -3.119000e+00 0.000000e+00
      vertex -9.708200e+00 -7.053420e+00 0.000000e+00
      vertex -8.029570e+00 -8.917740e+00 0.000000e+00
    endloop
  endfacet
  facet normal 0.000000e+00 0.000000e+00 -1.000000e+00
    outer loop
      vertex -1.467200e+01 -3.119000e+00 0.000000e+00
      vertex -8.029570e+00 -8.917740e+00 0.000000e+00
      vertex -1.568000e+00 -1.491800e+01 0.000000e+00
    endloop
  endfacet
  facet normal 0.000000e+00 0.000000e+00 -1.000000e+00
    outer loop
      vertex -3.708200e+00 -1.141270e+01 0.000000e+00
      vertex 1.568000e+00 -1.491800e+01 0.000000e+00
      vertex -6.000000e+00 -1.039230e+01 0.000000e+00
    endloop
  endfacet
  facet normal 0.000000e+00 0.000000e+00 -1.000000e+00
    outer loop
      vertex -1.254340e+00 -1.193430e+01 0.000000e+00
      vertex 1.568000e+00 -1.491800e+01 0.000000e+00
      vertex -3.708200e+00 -1.141270e+01 0.000000e+00
    endloop
  endfacet
  facet normal 0.000000e+00 0.000000e+00 -1.000000e+00
    outer loop
      vertex 1.096250e+01 -4.880840e+00 0.000000e+00
      vertex 2.400000e+01 -6.000000e+00 0.000000e+00
      vertex 9.708200e+00 -7.053420e+00 0.000000e+00
    endloop
  endfacet
  facet normal 0.000000e+00 0.000000e+00 -1.000000e+00
    outer loop
      vertex 6.000000e+00 -1.039230e+01 0.000000e+00
      vertex 2.400000e+01 -6.000000e+00 0.000000e+00
      vertex 3.708200e+00 -1.141270e+01 0.000000e+00
    endloop
  endfacet
  facet normal 0.000000e+00 0.000000e+00 -1.000000e+00
    outer loop
      vertex 1.254340e+00 -1.193430e+01 0.000000e+00
      vertex 3.708200e+00 -1.141270e+01 0.000000e+00
      vertex 4.635000e+00 -1.426600e+01 0.000000e+00
    endloop
  endfacet
  facet normal 0.000000e+00 0.000000e+00 -1.000000e+00
    outer loop
      vertex 8.029570e+00 -8.917740e+00 0.000000e+00
      vertex 2.400000e+01 -6.000000e+00 0.000000e+00
      vertex 6.000000e+00 -1.039230e+01 0.000000e+00
    endloop
  endfacet
  facet normal 0.000000e+00 0.000000e+00 -1.000000e+00
    outer loop
      vertex 9.708200e+00 -7.053420e+00 0.000000e+00
      vertex 2.400000e+01 -6.000000e+00 0.000000e+00
      vertex 8.029570e+00 -8.917740e+00 0.000000e+00
    endloop
  endfacet
  facet normal 0.000000e+00 0.000000e+00 -1.000000e+00
    outer loop
      vertex 1.254340e+00 -1.193430e+01 0.000000e+00
      vertex 4.635000e+00 -1.426600e+01 0.000000e+00
      vertex -1.254340e+00 -1.193430e+01 0.000000e+00
    endloop
  endfacet
  facet normal 0.000000e+00 0.000000e+00 -1.000000e+00
    outer loop
      vertex 1.200000e+01 0.000000e+00 0.000000e+00
      vertex 2.400000e+01 6.000000e+00 0.000000e+00
      vertex 1.173780e+01 -2.494940e+00 0.000000e+00
    endloop
  endfacet
  facet normal 0.000000e+00 0.000000e+00 -1.000000e+00
    outer loop
      vertex 1.096250e+01 4.880840e+00 0.000000e+00
      vertex 2.400000e+01 6.000000e+00 0.000000e+00
      vertex 1.173780e+01 2.494940e+00 0.000000e+00
    endloop
  endfacet
  facet normal 0.000000e+00 0.000000e+00 -1.000000e+00
    outer loop
      vertex 1.173780e+01 2.494940e+00 0.000000e+00
      vertex 2.400000e+01 6.000000e+00 0.000000e+00
      vertex 1.200000e+01 0.000000e+00 0.000000e+00
    endloop
  endfacet
  facet normal 0.000000e+00 0.000000e+00 -1.000000e+00
    outer loop
      vertex 1.254340e+00 1.193430e+01 0.000000e+00
      vertex 4.635000e+00 1.426600e+01 0.000000e+00
      vertex 3.708200e+00 1.141270e+01 0.000000e+00
    endloop
  endfacet
  facet normal 0.000000e+00 0.000000e+00 -1.000000e+00
    outer loop
      vertex 1.173780e+01 -2.494940e+00 0.000000e+00
      vertex 2.400000e+01 -6.000000e+00 0.000000e+00
      vertex 1.096250e+01 -4.880840e+00 0.000000e+00
    endloop
  endfacet
  facet normal 0.000000e+00 0.000000e+00 -1.000000e+00
    outer loop
      vertex 1.096250e+01 4.880840e+00 0.000000e+00
      vertex 9.708200e+00 7.053420e+00 0.000000e+00
      vertex 2.400000e+01 6.000000e+00 0.000000e+00
    endloop
  endfacet
  facet normal -0.000000e+00 -0.000000e+00 -1.000000e+00
    outer loop
      vertex 6.000000e+00 1.039230e+01 0.000000e+00
      vertex 4.635000e+00 1.426600e+01 0.000000e+00
      vertex 8.029570e+00 8.917740e+00 0.000000e+00
    endloop
  endfacet
  facet normal 0.000000e+00 0.000000e+00 -1.000000e+00
    outer loop
      vertex 3.708200e+00 1.141270e+01 0.000000e+00
      vertex 4.635000e+00 1.426600e+01 0.000000e+00
      vertex 6.000000e+00 1.039230e+01 0.000000e+00
    endloop
  endfacet
  facet normal 0.000000e+00 0.000000e+00 -1.000000e+00
    outer loop
      vertex -3.708200e+00 1.141270e+01 0.000000e+00
      vertex -1.568000e+00 1.491800e+01 0.000000e+00
      vertex -1.254340e+00 1.193430e+01 0.000000e+00
    endloop
  endfacet
  facet normal 0.000000e+00 0.000000e+00 -1.000000e+00
    outer loop
      vertex -6.000000e+00 1.039230e+01 0.000000e+00
      vertex -1.568000e+00 1.491800e+01 0.000000e+00
      vertex -3.708200e+00 1.141270e+01 0.000000e+00
    endloop
  endfacet
  facet normal 0.000000e+00 0.000000e+00 -1.000000e+00
    outer loop
      vertex -1.254340e+00 1.193430e+01 0.000000e+00
      vertex 1.568000e+00 1.491800e+01 0.000000e+00
      vertex 1.254340e+00 1.193430e+01 0.000000e+00
    endloop
  endfacet
  facet normal 0.000000e+00 0.000000e+00 -1.000000e+00
    outer loop
      vertex -9.708200e+00 7.053420e+00 0.000000e+00
      vertex -7.500000e+00 1.299000e+01 0.000000e+00
      vertex -8.029570e+00 8.917740e+00 0.000000e+00
    endloop
  endfacet
  facet normal 0.000000e+00 0.000000e+00 -1.000000e+00
    outer loop
      vertex -1.096250e+01 4.880840e+00 0.000000e+00
      vertex -7.500000e+00 1.299000e+01 0.000000e+00
      vertex -9.708200e+00 7.053420e+00 0.000000e+00
    endloop
  endfacet
  facet normal 0.000000e+00 0.000000e+00 -1.000000e+00
    outer loop
      vertex -1.467200e+01 -3.119000e+00 0.000000e+00
      vertex -7.500000e+00 1.299000e+01 0.000000e+00
      vertex -1.096250e+01 4.880840e+00 0.000000e+00
    endloop
  endfacet
  facet normal 0.000000e+00 0.000000e+00 -1.000000e+00
    outer loop
      vertex -1.200000e+01 0.000000e+00 0.000000e+00
      vertex -1.467200e+01 -3.119000e+00 0.000000e+00
      vertex -1.173780e+01 2.494940e+00 0.000000e+00
    endloop
  endfacet
  facet normal 0.000000e+00 0.000000e+00 -1.000000e+00
    outer loop
      vertex -1.173780e+01 2.494940e+00 0.000000e+00
      vertex -1.467200e+01 -3.119000e+00 0.000000e+00
      vertex -1.096250e+01 4.880840e+00 0.000000e+00
    endloop
  endfacet
  facet normal 0.000000e+00 0.000000e+00 -1.000000e+00
    outer loop
      vertex -8.029570e+00 8.917740e+00 0.000000e+00
      vertex -4.635000e+00 1.426600e+01 0.000000e+00
      vertex -6.000000e+00 1.039230e+01 0.000000e+00
    endloop
  endfacet
  facet normal -0.000000e+00 -0.000000e+00 -1.000000e+00
    outer loop
      vertex 8.029570e+00 8.917740e+00 0.000000e+00
      vertex 4.635000e+00 1.426600e+01 0.000000e+00
      vertex 9.708200e+00 7.053420e+00 0.000000e+00
    endloop
  endfacet
  facet normal -9.945160e-01 1.045850e-01 0.000000e+00
    outer loop
      vertex -1.500000e+01 0.000000e+00 0.000000e+00
      vertex -1.500000e+01 0.000000e+00 2.000000e+00
      vertex -1.467200e+01 3.119000e+00 0.000000e+00
    endloop
  endfacet
  facet normal -9.945160e-01 1.045850e-01 0.000000e+00
    outer loop
      vertex -1.467200e+01 3.119000e+00 0.000000e+00
      vertex -1.500000e+01 0.000000e+00 2.000000e+00
      vertex -1.467200e+01 3.119000e+00 2.000000e+00
    endloop
  endfacet
  facet normal 0.000000e+00 0.000000e+00 1.000000e+00
    outer loop
      vertex -1.467200e+01 3.119000e+00 2.000000e+00
      vertex -1.500000e+01 0.000000e+00 2.000000e+00
      vertex -1.467200e+01 -3.119000e+00 2.000000e+00
    endloop
  endfacet
  facet normal 0.000000e+00 0.000000e+00 1.000000e+00
    outer loop
      vertex -1.213500e+01 -8.817000e+00 2.000000e+00
      vertex -1.467200e+01 3.119000e+00 2.000000e+00
      vertex -1.370300e+01 -6.101000e+00 2.000000e+00
    endloop
  endfacet
  facet normal 0.000000e+00 0.000000e+00 1.000000e+00
    outer loop
      vertex -1.370300e+01 -6.101000e+00 2.000000e+00
      vertex -1.467200e+01 3.119000e+00 2.000000e+00
      vertex -1.467200e+01 -3.119000e+00 2.000000e+00
    endloop
  endfacet
  facet normal 0.000000e+00 0.000000e+00 1.000000e+00
    outer loop
      vertex -1.003700e+01 -1.114700e+01 2.000000e+00
      vertex -1.467200e+01 3.119000e+00 2.000000e+00
      vertex -1.213500e+01 -8.817000e+00 2.000000e+00
    endloop
  endfacet
  facet normal 0.000000e+00 0.000000e+00 1.000000e+00
    outer loop
      vertex -7.500000e+00 -1.299000e+01 2.000000e+00
      vertex -1.467200e+01 3.119000e+00 2.000000e+00
      vertex -1.003700e+01 -1.114700e+01 2.000000e+00
    endloop
  endfacet
  facet normal 0.000000e+00 0.000000e+00 1.000000e+00
    outer loop
      vertex -1.096250e+01 -4.880840e+00 2.000000e+00
      vertex -1.467200e+01 3.119000e+00 2.000000e+00
      vertex -7.500000e+00 -1.299000e+01 2.000000e+00
    endloop
  endfacet
  facet normal 0.000000e+00 0.000000e+00 1.000000e+00
    outer loop
      vertex -1.254340e+00 1.193430e+01 2.000000e+00
      vertex 1.254340e+00 1.193430e+01 2.000000e+00
      vertex 4.635000e+00 1.426600e+01 2.000000e+00
    endloop
  endfacet
  facet normal 0.000000e+00 0.000000e+00 1.000000e+00
    outer loop
      vertex -4.635000e+00 1.426600e+01 2.000000e+00
      vertex -1.467200e+01 3.119000e+00 2.000000e+00
      vertex -1.568000e+00 1.491800e+01 2.000000e+00
    endloop
  endfacet
  facet normal 0.000000e+00 0.000000e+00 1.000000e+00
    outer loop
      vertex -7.500000e+00 1.299000e+01 2.000000e+00
      vertex -1.467200e+01 3.119000e+00 2.000000e+00
      vertex -4.635000e+00 1.426600e+01 2.000000e+00
    endloop
  endfacet
  facet normal 0.000000e+00 0.000000e+00 1.000000e+00
    outer loop
      vertex -1.003700e+01 1.114700e+01 2.000000e+00
      vertex -1.467200e+01 3.119000e+00 2.000000e+00
      vertex -7.500000e+00 1.299000e+01 2.000000e+00
    endloop
  endfacet
  facet normal 0.000000e+00 0.000000e+00 1.000000e+00
    outer loop
      vertex -1.213500e+01 8.817000e+00 2.000000e+00
      vertex -1.467200e+01 3.119000e+00 2.000000e+00
      vertex -1.003700e+01 1.114700e+01 2.000000e+00
    endloop
  endfacet
  facet normal 0.000000e+00 0.000000e+00 1.000000e+00
    outer loop
      vertex -1.370300e+01 6.101000e+00 2.000000e+00
      vertex -1.467200e+01 3.119000e+00 2.000000e+00
      vertex -1.213500e+01 8.817000e+00 2.000000e+00
    endloop
  endfacet
  facet normal 0.000000e+00 0.000000e+00 1.000000e+00
    outer loop
      vertex 9.708200e+00 -7.053420e+00 2.000000e+00
      vertex 8.029570e+00 -8.917740e+00 2.000000e+00
      vertex 4.635000e+00 -1.426600e+01 2.000000e+00
    endloop
  endfacet
  facet normal 0.000000e+00 0.000000e+00 1.000000e+00
    outer loop
      vertex 3.708200e+00 1.141270e+01 2.000000e+00
      vertex 6.000000e+00 1.039230e+01 2.000000e+00
      vertex 2.400000e+01 6.000000e+00 2.000000e+00
    endloop
  endfacet
  facet normal 0.000000e+00 0.000000e+00 1.000000e+00
    outer loop
      vertex 1.096250e+01 4.880840e+00 2.000000e+00
      vertex 1.173780e+01 2.494940e+00 2.000000e+00
      vertex 2.400000e+01 6.000000e+00 2.000000e+00
    endloop
  endfacet
  facet normal 0.000000e+00 0.000000e+00 1.000000e+00
    outer loop
      vertex -8.029570e+00 8.917740e+00 2.000000e+00
      vertex -1.467200e+01 3.119000e+00 2.000000e+00
      vertex -9.708200e+00 7.053420e+00 2.000000e+00
    endloop
  endfacet
  facet normal 0.000000e+00 0.000000e+00 1.000000e+00
    outer loop
      vertex -3.708200e+00 1.141270e+01 2.000000e+00
      vertex -1.254340e+00 1.193430e+01 2.000000e+00
      vertex 1.568000e+00 1.491800e+01 2.000000e+00
    endloop
  endfacet
  facet normal 0.000000e+00 0.000000e+00 1.000000e+00
    outer loop
      vertex -1.568000e+00 1.491800e+01 2.000000e+00
      vertex -1.467200e+01 3.119000e+00 2.000000e+00
      vertex -8.029570e+00 8.917740e+00 2.000000e+00
    endloop
  endfacet
  facet normal 0.000000e+00 0.000000e+00 1.000000e+00
    outer loop
      vertex -1.568000e+00 1.491800e+01 2.000000e+00
      vertex -6.000000e+00 1.039230e+01 2.000000e+00
      vertex 1.568000e+00 1.491800e+01 2.000000e+00
    endloop
  endfacet
  facet normal 0.000000e+00 0.000000e+00 1.000000e+00
    outer loop
      vertex -6.000000e+00 1.039230e+01 2.000000e+00
      vertex -3.708200e+00 1.141270e+01 2.000000e+00
      vertex 1.568000e+00 1.491800e+01 2.000000e+00
    endloop
  endfacet
  facet normal 0.000000e+00 0.000000e+00 1.000000e+00
    outer loop
      vertex 1.568000e+00 1.491800e+01 2.000000e+00
      vertex -1.254340e+00 1.193430e+01 2.000000e+00
      vertex 4.635000e+00 1.426600e+01 2.000000e+00
    endloop
  endfacet
  facet normal 0.000000e+00 0.000000e+00 1.000000e+00
    outer loop
      vertex -8.029570e+00 8.917740e+00 2.000000e+00
      vertex -6.000000e+00 1.039230e+01 2.000000e+00
      vertex -1.568000e+00 1.491800e+01 2.000000e+00
    endloop
  endfacet
  facet normal 0.000000e+00 0.000000e+00 1.000000e+00
    outer loop
      vertex 9.708200e+00 7.053420e+00 2.000000e+00
      vertex 1.096250e+01 4.880840e+00 2.000000e+00
      vertex 2.400000e+01 6.000000e+00 2.000000e+00
    endloop
  endfacet
  facet normal 0.000000e+00 0.000000e+00 1.000000e+00
    outer loop
      vertex 4.635000e+00 1.426600e+01 2.000000e+00
      vertex 3.708200e+00 1.141270e+01 2.000000e+00
      vertex 2.400000e+01 6.000000e+00 2.000000e+00
    endloop
  endfacet
  facet normal 0.000000e+00 0.000000e+00 1.000000e+00
    outer loop
      vertex 4.635000e+00 1.426600e+01 2.000000e+00
      vertex 1.254340e+00 1.193430e+01 2.000000e+00
      vertex 3.708200e+00 1.141270e+01 2.000000e+00
    endloop
  endfacet
  facet normal 0.000000e+00 0.000000e+00 1.000000e+00
    outer loop
      vertex 6.000000e+00 1.039230e+01 2.000000e+00
      vertex 8.029570e+00 8.917740e+00 2.000000e+00
      vertex 2.400000e+01 6.000000e+00 2.000000e+00
    endloop
  endfacet
  facet normal 0.000000e+00 0.000000e+00 1.000000e+00
    outer loop
      vertex 8.029570e+00 8.917740e+00 2.000000e+00
      vertex 9.708200e+00 7.053420e+00 2.000000e+00
      vertex 2.400000e+01 6.000000e+00 2.000000e+00
    endloop
  endfacet
  facet normal 0.000000e+00 0.000000e+00 1.000000e+00
    outer loop
      vertex 1.173780e+01 -2.494940e+00 2.000000e+00
      vertex 1.096250e+01 -4.880840e+00 2.000000e+00
      vertex 2.400000e+01 -6.000000e+00 2.000000e+00
    endloop
  endfacet
  facet normal 0.000000e+00 0.000000e+00 1.000000e+00
    outer loop
      vertex 1.254340e+00 -1.193430e+01 2.000000e+00
      vertex -1.254340e+00 -1.193430e+01 2.000000e+00
      vertex 1.568000e+00 -1.491800e+01 2.000000e+00
    endloop
  endfacet
  facet normal 0.000000e+00 0.000000e+00 1.000000e+00
    outer loop
      vertex 2.400000e+01 6.000000e+00 2.000000e+00
      vertex 1.173780e+01 2.494940e+00 2.000000e+00
      vertex 2.400000e+01 -6.000000e+00 2.000000e+00
    endloop
  endfacet
  facet normal 0.000000e+00 0.000000e+00 1.000000e+00
    outer loop
      vertex 1.173780e+01 2.494940e+00 2.000000e+00
      vertex 1.200000e+01 0.000000e+00 2.000000e+00
      vertex 2.400000e+01 -6.000000e+00 2.000000e+00
    endloop
  endfacet
  facet normal 0.000000e+00 0.000000e+00 1.000000e+00
    outer loop
      vertex 1.200000e+01 0.000000e+00 2.000000e+00
      vertex 1.173780e+01 -2.494940e+00 2.000000e+00
      vertex 2.400000e+01 -6.000000e+00 2.000000e+00
    endloop
  endfacet
  facet normal 0.000000e+00 0.000000e+00 1.000000e+00
    outer loop
      vertex 3.708200e+00 -1.141270e+01 2.000000e+00
      vertex 1.254340e+00 -1.193430e+01 2.000000e+00
      vertex 4.635000e+00 -1.426600e+01 2.000000e+00
    endloop
  endfacet
  facet normal 0.000000e+00 0.000000e+00 1.000000e+00
    outer loop
      vertex 2.400000e+01 -6.000000e+00 2.000000e+00
      vertex 9.708200e+00 -7.053420e+00 2.000000e+00
      vertex 4.635000e+00 -1.426600e+01 2.000000e+00
    endloop
  endfacet
  facet normal 0.000000e+00 0.000000e+00 1.000000e+00
    outer loop
      vertex 2.400000e+01 -6.000000e+00 2.000000e+00
      vertex 1.096250e+01 -4.880840e+00 2.000000e+00
      vertex 9.708200e+00 -7.053420e+00 2.000000e+00
    endloop
  endfacet
  facet normal 0.000000e+00 0.000000e+00 1.000000e+00
    outer loop
      vertex -1.173780e+01 2.494940e+00 2.000000e+00
      vertex -1.096250e+01 4.880840e+00 2.000000e+00
      vertex -1.467200e+01 3.119000e+00 2.000000e+00
    endloop
  endfacet
  facet normal 0.000000e+00 0.000000e+00 1.000000e+00
    outer loop
      vertex 8.029570e+00 -8.917740e+00 2.000000e+00
      vertex 6.000000e+00 -1.039230e+01 2.000000e+00
      vertex 4.635000e+00 -1.426600e+01 2.000000e+00
    endloop
  endfacet
  facet normal 0.000000e+00 0.000000e+00 1.000000e+00
    outer loop
      vertex -1.096250e+01 4.880840e+00 2.000000e+00
      vertex -9.708200e+00 7.053420e+00 2.000000e+00
      vertex -1.467200e+01 3.119000e+00 2.000000e+00
    endloop
  endfacet
  facet normal 0.000000e+00 0.000000e+00 1.000000e+00
    outer loop
      vertex 6.000000e+00 -1.039230e+01 2.000000e+00
      vertex 3.708200e+00 -1.141270e+01 2.000000e+00
      vertex 4.635000e+00 -1.426600e+01 2.000000e+00
    endloop
  endfacet
  facet normal 0.000000e+00 0.000000e+00 1.000000e+00
    outer loop
      vertex 4.635000e+00 -1.426600e+01 2.000000e+00
      vertex 1.254340e+00 -1.193430e+01 2.000000e+00
      vertex 1.568000e+00 -1.491800e+01 2.000000e+00
    endloop
  endfacet
  facet normal 0.000000e+00 0.000000e+00 1.000000e+00
    outer loop
      vertex 1.568000e+00 -1.491800e+01 2.000000e+00
      vertex -1.254340e+00 -1.193430e+01 2.000000e+00
      vertex -1.568000e+00 -1.491800e+01 2.000000e+00
    endloop
  endfacet
  facet normal 0.000000e+00 0.000000e+00 1.000000e+00
    outer loop
      vertex -1.254340e+00 -1.193430e+01 2.000000e+00
      vertex -3.708200e+00 -1.141270e+01 2.000000e+00
      vertex -1.568000e+00 -1.491800e+01 2.000000e+00
    endloop
  endfacet
  facet normal 0.000000e+00 0.000000e+00 1.000000e+00
    outer loop
      vertex -1.568000e+00 -1.491800e+01 2.000000e+00
      vertex -6.000000e+00 -1.039230e+01 2.000000e+00
      vertex -4.635000e+00 -1.426600e+01 2.000000e+00
    endloop
  endfacet
  facet normal 0.000000e+00 0.000000e+00 1.000000e+00
    outer loop
      vertex -4.635000e+00 -1.426600e+01 2.000000e+00
      vertex -8.029570e+00 -8.917740e+00 2.000000e+00
      vertex -7.500000e+00 -1.299000e+01 2.000000e+00
    endloop
  endfacet
  facet normal 0.000000e+00 0.000000e+00 1.000000e+00
    outer loop
      vertex -8.029570e+00 -8.917740e+00 2.000000e+00
      vertex -9.708200e+00 -7.053420e+00 2.000000e+00
      vertex -7.500000e+00 -1.299000e+01 2.000000e+00
    endloop
  endfacet
  facet normal 0.000000e+00 0.000000e+00 1.000000e+00
    outer loop
      vertex -1.173780e+01 -2.494940e+00 2.000000e+00
      vertex -1.467200e+01 3.119000e+00 2.000000e+00
      vertex -1.096250e+01 -4.880840e+00 2.000000e+00
    endloop
  endfacet
  facet normal 0.000000e+00 0.000000e+00 1.000000e+00
    outer loop
      vertex -9.708200e+00 -7.053420e+00 2.000000e+00
      vertex -1.096250e+01 -4.880840e+00 2.000000e+00
      vertex -7.500000e+00 -1.299000e+01 2.000000e+00
    endloop
  endfacet
  facet normal 0.000000e+00 0.000000e+00 1.000000e+00
    outer loop
      vertex -1.173780e+01 -2.494940e+00 2.000000e+00
      vertex -1.200000e+01 0.000000e+00 2.000000e+00
      vertex -1.467200e+01 3.119000e+00 2.000000e+00
    endloop
  endfacet
  facet normal 0.000000e+00 0.000000e+00 1.000000e+00
    outer loop
      vertex -6.000000e+00 -1.039230e+01 2.000000e+00
      vertex -8.029570e+00 -8.917740e+00 2.000000e+00
      vertex -4.635000e+00 -1.426600e+01 2.000000e+00
    endloop
  endfacet
  facet normal 0.000000e+00 0.000000e+00 1.000000e+00
    outer loop
      vertex -3.708200e+00 -1.141270e+01 2.000000e+00
      vertex -6.000000e+00 -1.039230e+01 2.000000e+00
      vertex -1.568000e+00 -1.491800e+01 2.000000e+00
    endloop
  endfacet
  facet normal 0.000000e+00 0.000000e+00 1.000000e+00
    outer loop
      vertex -1.200000e+01 0.000000e+00 2.000000e+00
      vertex -1.173780e+01 2.494940e+00 2.000000e+00
      vertex -1.467200e+01 3.119000e+00 2.000000e+00
    endloop
  endfacet
  facet normal -9.510481e-01 -3.090430e-01 -0.000000e+00
    outer loop
      vertex -1.467200e+01 -3.119000e+00 0.000000e+00
      vertex -1.370300e+01 -6.101000e+00 0.000000e+00
      vertex -1.467200e+01 -3.119000e+00 2.000000e+00
    endloop
  endfacet
  facet normal -9.510481e-01 -3.090430e-01 0.000000e+00
    outer loop
      vertex -1.467200e+01 -3.119000e+00 2.000000e+00
      vertex -1.370300e+01 -6.101000e+00 0.000000e+00
      vertex -1.370300e+01 -6.101000e+00 2.000000e+00
    endloop
  endfacet
  facet normal -8.660370e-01 -4.999800e-01 -0.000000e+00
    outer loop
      vertex -1.370300e+01 -6.101000e+00 0.000000e+00
      vertex -1.213500e+01 -8.817000e+00 0.000000e+00
      vertex -1.370300e+01 -6.101000e+00 2.000000e+00
    endloop
  endfacet
  facet normal -8.660370e-01 -4.999800e-01 0.000000e+00
    outer loop
      vertex -1.370300e+01 -6.101000e+00 2.000000e+00
      vertex -1.213500e+01 -8.817000e+00 0.000000e+00
      vertex -1.213500e+01 -8.817000e+00 2.000000e+00
    endloop
  endfacet
  facet normal -7.431358e-01 -6.691408e-01 -0.000000e+00
    outer loop
      vertex -1.213500e+01 -8.817000e+00 0.000000e+00
      vertex -1.003700e+01 -1.114700e+01 0.000000e+00
      vertex -1.213500e+01 -8.817000e+00 2.000000e+00
    endloop
  endfacet
  facet normal -7.431358e-01 -6.691408e-01 0.000000e+00
    outer loop
      vertex -1.213500e+01 -8.817000e+00 2.000000e+00
      vertex -1.003700e+01 -1.114700e+01 0.000000e+00
      vertex -1.003700e+01 -1.114700e+01 2.000000e+00
    endloop
  endfacet
  facet normal -5.877353e-01 -8.090534e-01 0.000000e+00
    outer loop
      vertex -1.003700e+01 -1.114700e+01 2.000000e+00
      vertex -1.003700e+01 -1.114700e+01 0.000000e+00
      vertex -7.500000e+00 -1.299000e+01 0.000000e+00
    endloop
  endfacet
  facet normal -5.877353e-01 -8.090534e-01 0.000000e+00
    outer loop
      vertex -7.500000e+00 -1.299000e+01 2.000000e+00
      vertex -1.003700e+01 -1.114700e+01 2.000000e+00
      vertex -7.500000e+00 -1.299000e+01 0.000000e+00
    endloop
  endfacet
  facet normal -4.068480e-01 -9.134959e-01 0.000000e+00
    outer loop
      vertex -7.500000e+00 -1.299000e+01 2.000000e+00
      vertex -7.500000e+00 -1.299000e+01 0.000000e+00
      vertex -4.635000e+00 -1.426600e+01 0.000000e+00
    endloop
  endfacet
  facet normal -4.068480e-01 -9.134959e-01 0.000000e+00
    outer loop
      vertex -4.635000e+00 -1.426600e+01 2.000000e+00
      vertex -7.500000e+00 -1.299000e+01 2.000000e+00
      vertex -4.635000e+00 -1.426600e+01 0.000000e+00
    endloop
  endfacet
  facet normal -2.079390e-01 -9.781418e-01 0.000000e+00
    outer loop
      vertex -4.635000e+00 -1.426600e+01 2.000000e+00
      vertex -4.635000e+00 -1.426600e+01 0.000000e+00
      vertex -1.568000e+00 -1.491800e+01 0.000000e+00
    endloop
  endfacet
  facet normal -2.079390e-01 -9.781418e-01 0.000000e+00
    outer loop
      vertex -1.568000e+00 -1.491800e+01 2.000000e+00
      vertex -4.635000e+00 -1.426600e+01 2.000000e+00
      vertex -1.568000e+00 -1.491800e+01 0.000000e+00
    endloop
  endfacet
  facet normal 0.000000e+00 -1.000000e+00 0.000000e+00
    outer loop
      vertex -1.568000e+00 -1.491800e+01 2.000000e+00
      vertex -1.568000e+00 -1.491800e+01 0.000000e+00
      vertex 1.568000e+00 -1.491800e+01 0.000000e+00
    endloop
  endfacet
  facet normal 0.000000e+00 -1.000000e+00 0.000000e+00
    outer loop
      vertex 1.568000e+00 -1.491800e+01 2.000000e+00
      vertex -1.568000e+00 -1.491800e+01 2.000000e+00
      vertex 1.568000e+00 -1.491800e+01 0.000000e+00
    endloop
  endfacet
  facet normal 2.079390e-01 -9.781418e-01 0.000000e+00
    outer loop
      vertex 1.568000e+00 -1.491800e+01 2.000000e+00
      vertex 1.568000e+00 -1.491800e+01 0.000000e+00
      vertex 4.635000e+00 -1.426600e+01 0.000000e+00
    endloop
  endfacet
  facet normal 2.079390e-01 -9.781418e-01 0.000000e+00
    outer loop
      vertex 4.635000e+00 -1.426600e+01 2.000000e+00
      vertex 1.568000e+00 -1.491800e+01 2.000000e+00
      vertex 4.635000e+00 -1.426600e+01 0.000000e+00
    endloop
  endfacet
  facet normal 3.925833e-01 -9.197165e-01 0.000000e+00
    outer loop
      vertex 4.635000e+00 -1.426600e+01 2.000000e+00
      vertex 4.635000e+00 -1.426600e+01 0.000000e+00
      vertex 2.400000e+01 -6.000000e+00 0.000000e+00
    endloop
  endfacet
  facet normal 3.925833e-01 -9.197165e-01 0.000000e+00
    outer loop
      vertex 2.400000e+01 -6.000000e+00 2.000000e+00
      vertex 4.635000e+00 -1.426600e+01 2.000000e+00
      vertex 2.400000e+01 -6.000000e+00 0.000000e+00
    endloop
  endfacet
  facet normal 1.000000e+00 0.000000e+00 0.000000e+00
    outer loop
      vertex 2.400000e+01 -6.000000e+00 2.000000e+00
      vertex 2.400000e+01 -6.000000e+00 0.000000e+00
      vertex 2.400000e+01 6.000000e+00 0.000000e+00
    endloop
  endfacet
  facet normal 1.000000e+00 0.000000e+00 0.000000e+00
    outer loop
      vertex 2.400000e+01 6.000000e+00 2.000000e+00
      vertex 2.400000e+01 -6.000000e+00 2.000000e+00
      vertex 2.400000e+01 6.000000e+00 0.000000e+00
    endloop
  endfacet
  facet normal 3.925833e-01 9.197165e-01 0.000000e+00
    outer loop
      vertex 4.635000e+00 1.426600e+01 0.000000e+00
      vertex 4.635000e+00 1.426600e+01 2.000000e+00
      vertex 2.400000e+01 6.000000e+00 0.000000e+00
    endloop
  endfacet
  facet normal 3.925833e-01 9.197165e-01 0.000000e+00
    outer loop
      vertex 2.400000e+01 6.000000e+00 0.000000e+00
      vertex 4.635000e+00 1.426600e+01 2.000000e+00
      vertex 2.400000e+01 6.000000e+00 2.000000e+00
    endloop
  endfacet
  facet normal 2.079390e-01 9.781418e-01 0.000000e+00
    outer loop
      vertex 1.568000e+00 1.491800e+01 0.000000e+00
      vertex 1.568000e+00 1.491800e+01 2.000000e+00
      vertex 4.635000e+00 1.426600e+01 0.000000e+00
    endloop
  endfacet
  facet normal 2.079390e-01 9.781418e-01 0.000000e+00
    outer loop
      vertex 4.635000e+00 1.426600e+01 0.000000e+00
      vertex 1.568000e+00 1.491800e+01 2.000000e+00
      vertex 4.635000e+00 1.426600e+01 2.000000e+00
    endloop
  endfacet
  facet normal 0.000000e+00 1.000000e+00 0.000000e+00
    outer loop
      vertex -1.568000e+00 1.491800e+01 0.000000e+00
      vertex -1.568000e+00 1.491800e+01 2.000000e+00
      vertex 1.568000e+00 1.491800e+01 0.000000e+00
    endloop
  endfacet
  facet normal 0.000000e+00 1.000000e+00 0.000000e+00
    outer loop
      vertex 1.568000e+00 1.491800e+01 0.000000e+00
      vertex -1.568000e+00 1.491800e+01 2.000000e+00
      vertex 1.568000e+00 1.491800e+01 2.000000e+00
    endloop
  endfacet
  facet normal -2.079390e-01 9.781418e-01 0.000000e+00
    outer loop
      vertex -4.635000e+00 1.426600e+01 0.000000e+00
      vertex -4.635000e+00 1.426600e+01 2.000000e+00
      vertex -1.568000e+00 1.491800e+01 0.000000e+00
    endloop
  endfacet
  facet normal -2.079390e-01 9.781418e-01 0.000000e+00
    outer loop
      vertex -1.568000e+00 1.491800e+01 0.000000e+00
      vertex -4.635000e+00 1.426600e+01 2.000000e+00
      vertex -1.568000e+00 1.491800e+01 2.000000e+00
    endloop
  endfacet
  facet normal -4.068480e-01 9.134959e-01 0.000000e+00
    outer loop
      vertex -7.500000e+00 1.299000e+01 0.000000e+00
      vertex -7.500000e+00 1.299000e+01 2.000000e+00
      vertex -4.635000e+00 1.426600e+01 0.000000e+00
    endloop
  endfacet
  facet normal -4.068480e-01 9.134959e-01 0.000000e+00
    outer loop
      vertex -4.635000e+00 1.426600e+01 0.000000e+00
      vertex -7.500000e+00 1.299000e+01 2.000000e+00
      vertex -4.635000e+00 1.426600e+01 2.000000e+00
    endloop
  endfacet
  facet normal -5.877353e-01 8.090534e-01 0.000000e+00
    outer loop
      vertex -1.003700e+01 1.114700e+01 0.000000e+00
      vertex -1.003700e+01 1.114700e+01 2.000000e+00
      vertex -7.500000e+00 1.299000e+01 0.000000e+00
    endloop
  endfacet
  facet normal -5.877353e-01 8.090534e-01 0.000000e+00
    outer loop
      vertex -7.500000e+00 1.299000e+01 0.000000e+00
      vertex -1.003700e+01 1.114700e+01 2.000000e+00
      vertex -7.500000e+00 1.299000e+01 2.000000e+00
    endloop
  endfacet
  facet normal -7.431358e-01 6.691408e-01 0.000000e+00
    outer loop
      vertex -1.213500e+01 8.817000e+00 0.000000e+00
      vertex -1.213500e+01 8.817000e+00 2.000000e+00
      vertex -1.003700e+01 1.114700e+01 0.000000e+00
    endloop
  endfacet
  facet normal -7.431358e-01 6.691408e-01 0.000000e+00
    outer loop
      vertex -1.003700e+01 1.114700e+01 0.000000e+00
      vertex -1.213500e+01 8.817000e+00 2.000000e+00
      vertex -1.003700e+01 1.114700e+01 2.000000e+00
    endloop
  endfacet
  facet normal -8.660370e-01 4.999800e-01 0.000000e+00
    outer loop
      vertex -1.370300e+01 6.101000e+00 0.000000e+00
      vertex -1.370300e+01 6.101000e+00 2.000000e+00
      vertex -1.213500e+01 8.817000e+00 0.000000e+00
    endloop
  endfacet
  facet normal -8.660370e-01 4.999800e-01 0.000000e+00
    outer loop
      vertex -1.213500e+01 8.817000e+00 0.000000e+00
      vertex -1.370300e+01 6.101000e+00 2.000000e+00
      vertex -1.213500e+01 8.817000e+00 2.000000e+00
    endloop
  endfacet
  facet normal -9.510481e-01 3.090430e-01 0.000000e+00
    outer loop
      vertex -1.467200e+01 3.119000e+00 0.000000e+00
      vertex -1.467200e+01 3.119000e+00 2.000000e+00
      vertex -1.370300e+01 6.101000e+00 0.000000e+00
    endloop
  endfacet
  facet normal -9.510481e-01 3.090430e-01 0.000000e+00
    outer loop
      vertex -1.370300e+01 6.101000e+00 0.000000e+00
      vertex -1.467200e+01 3.119000e+00 2.000000e+00
      vertex -1.370300e+01 6.101000e+00 2.000000e+00
    endloop
  endfacet
  facet normal 9.945219e-01 -1.045290e-01 0.000000e+00
    outer loop
      vertex -1.173780e+01 2.494940e+00 0.000000e+00
      vertex -1.173780e+01 2.494940e+00 2.000000e+00
      vertex -1.200000e+01 0.000000e+00 2.000000e+00
    endloop
  endfacet
  facet normal 9.945219e-01 -1.045290e-01 0.000000e+00
    outer loop
      vertex -1.200000e+01 0.000000e+00 0.000000e+00
      vertex -1.173780e+01 2.494940e+00 0.000000e+00
      vertex -1.200000e+01 0.000000e+00 2.000000e+00
    endloop
  endfacet
  facet normal 9.945219e-01 1.045290e-01 0.000000e+00
    outer loop
      vertex -1.200000e+01 0.000000e+00 2.000000e+00
      vertex -1.173780e+01 -2.494940e+00 2.000000e+00
      vertex -1.173780e+01 -2.494940e+00 0.000000e+00
    endloop
  endfacet
  facet normal 9.945219e-01 1.045290e-01 0.000000e+00
    outer loop
      vertex -1.200000e+01 0.000000e+00 0.000000e+00
      vertex -1.200000e+01 0.000000e+00 2.000000e+00
      vertex -1.173780e+01 -2.494940e+00 0.000000e+00
    endloop
  endfacet
  facet normal 9.510565e-01 -3.090169e-01 0.000000e+00
    outer loop
      vertex -1.096250e+01 4.880840e+00 0.000000e+00
      vertex -1.096250e+01 4.880840e+00 2.000000e+00
      vertex -1.173780e+01 2.494940e+00 2.000000e+00
    endloop
  endfacet
  facet normal 9.510565e-01 -3.090169e-01 0.000000e+00
    outer loop
      vertex -1.173780e+01 2.494940e+00 0.000000e+00
      vertex -1.096250e+01 4.880840e+00 0.000000e+00
      vertex -1.173780e+01 2.494940e+00 2.000000e+00
    endloop
  endfacet
  facet normal 8.660253e-01 -5.000002e-01 0.000000e+00
    outer loop
      vertex -9.708200e+00 7.053420e+00 0.000000e+00
      vertex -9.708200e+00 7.053420e+00 2.000000e+00
      vertex -1.096250e+01 4.880840e+00 2.000000e+00
    endloop
  endfacet
  facet normal 8.660253e-01 -5.000002e-01 0.000000e+00
    outer loop
      vertex -1.096250e+01 4.880840e+00 0.000000e+00
      vertex -9.708200e+00 7.053420e+00 0.000000e+00
      vertex -1.096250e+01 4.880840e+00 2.000000e+00
    endloop
  endfacet
  facet normal 7.431448e-01 -6.691307e-01 0.000000e+00
    outer loop
      vertex -8.029570e+00 8.917740e+00 0.000000e+00
      vertex -8.029570e+00 8.917740e+00 2.000000e+00
      vertex -9.708200e+00 7.053420e+00 2.000000e+00
    endloop
  endfacet
  facet normal 7.431448e-01 -6.691307e-01 0.000000e+00
    outer loop
      vertex -9.708200e+00 7.053420e+00 0.000000e+00
      vertex -8.029570e+00 8.917740e+00 0.000000e+00
      vertex -9.708200e+00 7.053420e+00 2.000000e+00
    endloop
  endfacet
  facet normal 5.877851e-01 -8.090171e-01 0.000000e+00
    outer loop
      vertex -6.000000e+00 1.039230e+01 0.000000e+00
      vertex -6.000000e+00 1.039230e+01 2.000000e+00
      vertex -8.029570e+00 8.917740e+00 2.000000e+00
    endloop
  endfacet
  facet normal 5.877851e-01 -8.090171e-01 0.000000e+00
    outer loop
      vertex -8.029570e+00 8.917740e+00 0.000000e+00
      vertex -6.000000e+00 1.039230e+01 0.000000e+00
      vertex -8.029570e+00 8.917740e+00 2.000000e+00
    endloop
  endfacet
  facet normal 4.067367e-01 -9.135454e-01 0.000000e+00
    outer loop
      vertex -3.708200e+00 1.141270e+01 0.000000e+00
      vertex -3.708200e+00 1.141270e+01 2.000000e+00
      vertex -6.000000e+00 1.039230e+01 2.000000e+00
    endloop
  endfacet
  facet normal 4.067367e-01 -9.135454e-01 0.000000e+00
    outer loop
      vertex -6.000000e+00 1.039230e+01 0.000000e+00
      vertex -3.708200e+00 1.141270e+01 0.000000e+00
      vertex -6.000000e+00 1.039230e+01 2.000000e+00
    endloop
  endfacet
  facet normal 2.079119e-01 -9.781476e-01 0.000000e+00
    outer loop
      vertex -1.254340e+00 1.193430e+01 0.000000e+00
      vertex -1.254340e+00 1.193430e+01 2.000000e+00
      vertex -3.708200e+00 1.141270e+01 2.000000e+00
    endloop
  endfacet
  facet normal 2.079119e-01 -9.781476e-01 0.000000e+00
    outer loop
      vertex -3.708200e+00 1.141270e+01 0.000000e+00
      vertex -1.254340e+00 1.193430e+01 0.000000e+00
      vertex -3.708200e+00 1.141270e+01 2.000000e+00
    endloop
  endfacet
  facet normal 0.000000e+00 -1.000000e+00 0.000000e+00
    outer loop
      vertex 1.254340e+00 1.193430e+01 0.000000e+00
      vertex 1.254340e+00 1.193430e+01 2.000000e+00
      vertex -1.254340e+00 1.193430e+01 2.000000e+00
    endloop
  endfacet
  facet normal -0.000000e+00 -1.000000e+00 -0.000000e+00
    outer loop
      vertex -1.254340e+00 1.193430e+01 0.000000e+00
      vertex 1.254340e+00 1.193430e+01 0.000000e+00
      vertex -1.254340e+00 1.193430e+01 2.000000e+00
    endloop
  endfacet
  facet normal -2.079119e-01 -9.781476e-01 -0.000000e+00
    outer loop
      vertex 3.708200e+00 1.141270e+01 0.000000e+00
      vertex 3.708200e+00 1.141270e+01 2.000000e+00
      vertex 1.254340e+00 1.193430e+01 2.000000e+00
    endloop
  endfacet
  facet normal -2.079119e-01 -9.781476e-01 -0.000000e+00
    outer loop
      vertex 1.254340e+00 1.193430e+01 0.000000e+00
      vertex 3.708200e+00 1.141270e+01 0.000000e+00
      vertex 1.254340e+00 1.193430e+01 2.000000e+00
    endloop
  endfacet
  facet normal -4.067367e-01 -9.135454e-01 -0.000000e+00
    outer loop
      vertex 6.000000e+00 1.039230e+01 0.000000e+00
      vertex 6.000000e+00 1.039230e+01 2.000000e+00
      vertex 3.708200e+00 1.141270e+01 2.000000e+00
    endloop
  endfacet
  facet normal -4.067367e-01 -9.135454e-01 -0.000000e+00
    outer loop
      vertex 3.708200e+00 1.141270e+01 0.000000e+00
      vertex 6.000000e+00 1.039230e+01 0.000000e+00
      vertex 3.708200e+00 1.141270e+01 2.000000e+00
    endloop
  endfacet
  facet normal -5.877851e-01 -8.090171e-01 -0.000000e+00
    outer loop
      vertex 8.029570e+00 8.917740e+00 0.000000e+00
      vertex 8.029570e+00 8.917740e+00 2.000000e+00
      vertex 6.000000e+00 1.039230e+01 2.000000e+00
    endloop
  endfacet
  facet normal -5.877851e-01 -8.090171e-01 -0.000000e+00
    outer loop
      vertex 6.000000e+00 1.039230e+01 0.000000e+00
      vertex 8.029570e+00 8.917740e+00 0.000000e+00
      vertex 6.000000e+00 1.039230e+01 2.000000e+00
    endloop
  endfacet
  facet normal -7.431448e-01 -6.691307e-01 0.000000e+00
    outer loop
      vertex 9.708200e+00 7.053420e+00 2.000000e+00
      vertex 8.029570e+00 8.917740e+00 2.000000e+00
      vertex 9.708200e+00 7.053420e+00 0.000000e+00
    endloop
  endfacet
  facet normal -7.431448e-01 -6.691307e-01 0.000000e+00
    outer loop
      vertex 9.708200e+00 7.053420e+00 0.000000e+00
      vertex 8.029570e+00 8.917740e+00 2.000000e+00
      vertex 8.029570e+00 8.917740e+00 0.000000e+00
    endloop
  endfacet
  facet normal -8.660253e-01 -5.000002e-01 0.000000e+00
    outer loop
      vertex 1.096250e+01 4.880840e+00 2.000000e+00
      vertex 9.708200e+00 7.053420e+00 2.000000e+00
      vertex 1.096250e+01 4.880840e+00 0.000000e+00
    endloop
  endfacet
  facet normal -8.660253e-01 -5.000002e-01 0.000000e+00
    outer loop
      vertex 1.096250e+01 4.880840e+00 0.000000e+00
      vertex 9.708200e+00 7.053420e+00 2.000000e+00
      vertex 9.708200e+00 7.053420e+00 0.000000e+00
    endloop
  endfacet
  facet normal -9.510565e-01 -3.090169e-01 0.000000e+00
    outer loop
      vertex 1.173780e+01 2.494940e+00 2.000000e+00
      vertex 1.096250e+01 4.880840e+00 2.000000e+00
      vertex 1.173780e+01 2.494940e+00 0.000000e+00
    endloop
  endfacet
  facet normal -9.510565e-01 -3.090169e-01 0.000000e+00
    outer loop
      vertex 1.173780e+01 2.494940e+00 0.000000e+00
      vertex 1.096250e+01 4.880840e+00 2.000000e+00
      vertex 1.096250e+01 4.880840e+00 0.000000e+00
    endloop
  endfacet
  facet normal -9.945219e-01 -1.045290e-01 0.000000e+00
    outer loop
      vertex 1.200000e+01 0.000000e+00 2.000000e+00
      vertex 1.173780e+01 2.494940e+00 2.000000e+00
      vertex 1.200000e+01 0.000000e+00 0.000000e+00
    endloop
  endfacet
  facet normal -9.945219e-01 -1.045290e-01 0.000000e+00
    outer loop
      vertex 1.200000e+01 0.000000e+00 0.000000e+00
      vertex 1.173780e+01 2.494940e+00 2.000000e+00
      vertex 1.173780e+01 2.494940e+00 0.000000e+00
    endloop
  endfacet
  facet normal -9.945219e-01 1.045290e-01 0.000000e+00
    outer loop
      vertex 1.200000e+01 0.000000e+00 2.000000e+00
      vertex 1.200000e+01 0.000000e+00 0.000000e+00
      vertex 1.173780e+01 -2.494940e+00 2.000000e+00
    endloop
  endfacet
  facet normal -9.945219e-01 1.045290e-01 0.000000e+00
    outer loop
      vertex 1.173780e+01 -2.494940e+00 2.000000e+00
      vertex 1.200000e+01 0.000000e+00 0.000000e+00
      vertex 1.173780e+01 -2.494940e+00 0.000000e+00
    endloop
  endfacet
  facet normal -9.510565e-01 3.090169e-01 0.000000e+00
    outer loop
      vertex 1.173780e+01 -2.494940e+00 2.000000e+00
      vertex 1.173780e+01 -2.494940e+00 0.000000e+00
      vertex 1.096250e+01 -4.880840e+00 2.000000e+00
    endloop
  endfacet
  facet normal -9.510565e-01 3.090169e-01 0.000000e+00
    outer loop
      vertex 1.096250e+01 -4.880840e+00 2.000000e+00
      vertex 1.173780e+01 -2.494940e+00 0.000000e+00
      vertex 1.096250e+01 -4.880840e+00 0.000000e+00
    endloop
  endfacet
  facet normal -8.660253e-01 5.000002e-01 0.000000e+00
    outer loop
      vertex 1.096250e+01 -4.880840e+00 2.000000e+00
      vertex 1.096250e+01 -4.880840e+00 0.000000e+00
      vertex 9.708200e+00 -7.053420e+00 2.000000e+00
    endloop
  endfacet
  facet normal -8.660253e-01 5.000002e-01 0.000000e+00
    outer loop
      vertex 9.708200e+00 -7.053420e+00 2.000000e+00
      vertex 1.096250e+01 -4.880840e+00 0.000000e+00
      vertex 9.708200e+00 -7.053420e+00 0.000000e+00
    endloop
  endfacet
  facet normal -7.431448e-01 6.691307e-01 0.000000e+00
    outer loop
      vertex 9.708200e+00 -7.053420e+00 2.000000e+00
      vertex 9.708200e+00 -7.053420e+00 0.000000e+00
      vertex 8.029570e+00 -8.917740e+00 2.000000e+00
    endloop
  endfacet
  facet normal -7.431448e-01 6.691307e-01 0.000000e+00
    outer loop
      vertex 8.029570e+00 -8.917740e+00 2.000000e+00
      vertex 9.708200e+00 -7.053420e+00 0.000000e+00
      vertex 8.029570e+00 -8.917740e+00 0.000000e+00
    endloop
  endfacet
  facet normal -5.877851e-01 8.090171e-01 0.000000e+00
    outer loop
      vertex 8.029570e+00 -8.917740e+00 2.000000e+00
      vertex 8.029570e+00 -8.917740e+00 0.000000e+00
      vertex 6.000000e+00 -1.039230e+01 2.000000e+00
    endloop
  endfacet
  facet normal -5.877851e-01 8.090171e-01 0.000000e+00
    outer loop
      vertex 6.000000e+00 -1.039230e+01 2.000000e+00
      vertex 8.029570e+00 -8.917740e+00 0.000000e+00
      vertex 6.000000e+00 -1.039230e+01 0.000000e+00
    endloop
  endfacet
  facet normal -4.067367e-01 9.135454e-01 0.000000e+00
    outer loop
      vertex 6.000000e+00 -1.039230e+01 2.000000e+00
      vertex 6.000000e+00 -1.039230e+01 0.000000e+00
      vertex 3.708200e+00 -1.141270e+01 2.000000e+00
    endloop
  endfacet
  facet normal -4.067367e-01 9.135454e-01 0.000000e+00
    outer loop
      vertex 3.708200e+00 -1.141270e+01 2.000000e+00
      vertex 6.000000e+00 -1.039230e+01 0.000000e+00
      vertex 3.708200e+00 -1.141270e+01 0.000000e+00
    endloop
  endfacet
  facet normal -2.079119e-01 9.781476e-01 0.000000e+00
    outer loop
      vertex 3.708200e+00 -1.141270e+01 2.000000e+00
      vertex 3.708200e+00 -1.141270e+01 0.000000e+00
      vertex 1.254340e+00 -1.193430e+01 2.000000e+00
    endloop
  endfacet
  facet normal -2.079119e-01 9.781476e-01 0.000000e+00
    outer loop
      vertex 1.254340e+00 -1.193430e+01 2.000000e+00
      vertex 3.708200e+00 -1.141270e+01 0.000000e+00
      vertex 1.254340e+00 -1.193430e+01 0.000000e+00
    endloop
  endfacet
  facet normal 0.000000e+00 1.000000e+00 0.000000e+00
    outer loop
      vertex 1.254340e+00 -1.193430e+01 2.000000e+00
      vertex 1.254340e+00 -1.193430e+01 0.000000e+00
      vertex -1.254340e+00 -1.193430e+01 2.000000e+00
    endloop
  endfacet
  facet normal 0.000000e+00 1.000000e+00 0.000000e+00
    outer loop
      vertex -1.254340e+00 -1.193430e+01 2.000000e+00
      vertex 1.254340e+00 -1.193430e+01 0.000000e+00
      vertex -1.254340e+00 -1.193430e+01 0.000000e+00
    endloop
  endfacet
  facet normal 2.079119e-01 9.781476e-01 0.000000e+00
    outer loop
      vertex -1.254340e+00 -1.193430e+01 2.000000e+00
      vertex -1.254340e+00 -1.193430e+01 0.000000e+00
      vertex -3.708200e+00 -1.141270e+01 2.000000e+00
    endloop
  endfacet
  facet normal 2.079119e-01 9.781476e-01 0.000000e+00
    outer loop
      vertex -3.708200e+00 -1.141270e+01 2.000000e+00
      vertex -1.254340e+00 -1.193430e+01 0.000000e+00
      vertex -3.708200e+00 -1.141270e+01 0.000000e+00
    endloop
  endfacet
  facet normal 4.067367e-01 9.135454e-01 0.000000e+00
    outer loop
      vertex -3.708200e+00 -1.141270e+01 2.000000e+00
      vertex -3.708200e+00 -1.141270e+01 0.000000e+00
      vertex -6.000000e+00 -1.039230e+01 2.000000e+00
    endloop
  endfacet
  facet normal 4.067367e-01 9.135454e-01 0.000000e+00
    outer loop
      vertex -6.000000e+00 -1.039230e+01 2.000000e+00
      vertex -3.708200e+00 -1.141270e+01 0.000000e+00
      vertex -6.000000e+00 -1.039230e+01 0.000000e+00
    endloop
  endfacet
  facet normal 5.877851e-01 8.090171e-01 0.000000e+00
    outer loop
      vertex -6.000000e+00 -1.039230e+01 2.000000e+00
      vertex -6.000000e+00 -1.039230e+01 0.000000e+00
      vertex -8.029570e+00 -8.917740e+00 2.000000e+00
    endloop
  endfacet
  facet normal 5.877851e-01 8.090171e-01 0.000000e+00
    outer loop
      vertex -8.029570e+00 -8.917740e+00 2.000000e+00
      vertex -6.000000e+00 -1.039230e+01 0.000000e+00
      vertex -8.029570e+00 -8.917740e+00 0.000000e+00
    endloop
  endfacet
  facet normal 7.431448e-01 6.691307e-01 0.000000e+00
    outer loop
      vertex -9.708200e+00 -7.053420e+00 2.000000e+00
      vertex -8.029570e+00 -8.917740e+00 2.000000e+00
      vertex -8.029570e+00 -8.917740e+00 0.000000e+00
    endloop
  endfacet
  facet normal 7.431448e-01 6.691307e-01 0.000000e+00
    outer loop
      vertex -9.708200e+00 -7.053420e+00 0.000000e+00
      vertex -9.708200e+00 -7.053420e+00 2.000000e+00
      vertex -8.029570e+00 -8.917740e+00 0.000000e+00
    endloop
  endfacet
  facet normal 8.660253e-01 5.000002e-01 0.000000e+00
    outer loop
      vertex -1.096250e+01 -4.880840e+00 2.000000e+00
      vertex -9.708200e+00 -7.053420e+00 2.000000e+00
      vertex -9.708200e+00 -7.053420e+00 0.000000e+00
    endloop
  endfacet
  facet normal 8.660253e-01 5.000002e-01 0.000000e+00
    outer loop
      vertex -1.096250e+01 -4.880840e+00 0.000000e+00
      vertex -1.096250e+01 -4.880840e+00 2.000000e+00
      vertex -9.708200e+00 -7.053420e+00 0.000000e+00
    endloop
  endfacet
  facet normal 9.510565e-01 3.090169e-01 0.000000e+00
    outer loop
      vertex -1.173780e+01 -2.494940e+00 2.000000e+00
      vertex -1.096250e+01 -4.880840e+00 2.000000e+00
      vertex -1.096250e+01 -4.880840e+00 0.000000e+00
    endloop
  endfacet
  facet normal 9.510565e-01 3.090169e-01 0.000000e+00
    outer loop
      vertex -1.173780e+01 -2.494940e+00 0.000000e+00
      vertex -1.173780e+01 -2.494940e+00 2.000000e+00
      vertex -1.096250e+01 -4.880840e+00 0.000000e+00
    endloop
  endfacet
endsolid Default
