solid Default
  facet normal -9.661065e-01 -2.581438e-01 -0.000000e+00
    outer loop
      vertex -1.235000e+01 -8.337500e+01 0.000000e+00
      vertex -1.218300e+01 -8.400000e+01 0.000000e+00
      vertex -1.235000e+01 -8.337500e+01 1.200000e+01
    endloop
  endfacet
  facet normal -9.661065e-01 -2.581438e-01 0.000000e+00
    outer loop
      vertex -1.235000e+01 -8.337500e+01 1.200000e+01
      vertex -1.218300e+01 -8.400000e+01 0.000000e+00
      vertex -1.218300e+01 -8.400000e+01 1.200000e+01
    endloop
  endfacet
  facet normal 0.000000e+00 0.000000e+00 -1.000000e+00
    outer loop
      vertex -1.235000e+01 -8.337500e+01 0.000000e+00
      vertex -1.218300e+01 -8.275000e+01 0.000000e+00
      vertex -1.218300e+01 -8.400000e+01 0.000000e+00
    endloop
  endfacet
  facet normal 0.000000e+00 0.000000e+00 -1.000000e+00
    outer loop
      vertex -1.218300e+01 -8.400000e+01 0.000000e+00
      vertex -1.218300e+01 -8.275000e+01 0.000000e+00
      vertex -1.203700e+01 -8.260400e+01 0.000000e+00
    endloop
  endfacet
  facet normal 0.000000e+00 0.000000e+00 -1.000000e+00
    outer loop
      vertex -1.203700e+01 -8.260400e+01 0.000000e+00
      vertex -1.220500e+01 -8.254300e+01 0.000000e+00
      vertex -2.150000e+00 -5.491800e+01 0.000000e+00
    endloop
  endfacet
  facet normal 0.000000e+00 0.000000e+00 -1.000000e+00
    outer loop
      vertex -1.203700e+01 -8.260400e+01 0.000000e+00
      vertex -2.150000e+00 -5.491800e+01 0.000000e+00
      vertex -1.218300e+01 -8.400000e+01 0.000000e+00
    endloop
  endfacet
  facet normal 0.000000e+00 0.000000e+00 -1.000000e+00
    outer loop
      vertex -5.150000e+00 1.125000e+00 0.000000e+00
      vertex -8.400000e+00 -3.750000e-01 0.000000e+00
      vertex -8.400000e+00 3.175000e+00 0.000000e+00
    endloop
  endfacet
  facet normal 0.000000e+00 0.000000e+00 -1.000000e+00
    outer loop
      vertex -2.150000e+00 -3.750000e-01 0.000000e+00
      vertex -8.400000e+00 -3.750000e-01 0.000000e+00
      vertex -5.150000e+00 1.125000e+00 0.000000e+00
    endloop
  endfacet
  facet normal 0.000000e+00 0.000000e+00 -1.000000e+00
    outer loop
      vertex -3.150000e+00 1.125000e+00 0.000000e+00
      vertex -2.150000e+00 -3.750000e-01 0.000000e+00
      vertex -5.150000e+00 1.125000e+00 0.000000e+00
    endloop
  endfacet
  facet normal 0.000000e+00 0.000000e+00 -1.000000e+00
    outer loop
      vertex -5.150000e+00 7.862500e+01 0.000000e+00
      vertex -8.400000e+00 8.067500e+01 0.000000e+00
      vertex -5.150000e+00 8.067500e+01 0.000000e+00
    endloop
  endfacet
  facet normal 0.000000e+00 0.000000e+00 -1.000000e+00
    outer loop
      vertex -2.150000e+00 -3.750000e-01 0.000000e+00
      vertex -3.150000e+00 1.125000e+00 0.000000e+00
      vertex -3.150000e+00 5.175000e+00 0.000000e+00
    endloop
  endfacet
  facet normal 0.000000e+00 0.000000e+00 -1.000000e+00
    outer loop
      vertex -2.150000e+00 -3.750000e-01 0.000000e+00
      vertex 3.499999e-01 8.462500e+01 0.000000e+00
      vertex -2.150000e+00 -5.491800e+01 0.000000e+00
    endloop
  endfacet
  facet normal -0.000000e+00 -0.000000e+00 -1.000000e+00
    outer loop
      vertex -8.400000e+00 5.175000e+00 0.000000e+00
      vertex -8.400000e+00 7.125000e+00 0.000000e+00
      vertex -3.150000e+00 5.175000e+00 0.000000e+00
    endloop
  endfacet
  facet normal 0.000000e+00 0.000000e+00 -1.000000e+00
    outer loop
      vertex -3.150000e+00 5.175000e+00 0.000000e+00
      vertex -8.400000e+00 7.125000e+00 0.000000e+00
      vertex -2.150000e+00 7.125000e+00 0.000000e+00
    endloop
  endfacet
  facet normal 0.000000e+00 0.000000e+00 -1.000000e+00
    outer loop
      vertex -3.150000e+00 5.175000e+00 0.000000e+00
      vertex -2.150000e+00 7.125000e+00 0.000000e+00
      vertex -2.150000e+00 -3.750000e-01 0.000000e+00
    endloop
  endfacet
  facet normal 0.000000e+00 0.000000e+00 -1.000000e+00
    outer loop
      vertex -2.150000e+00 7.125000e+00 0.000000e+00
      vertex 3.499999e-01 8.462500e+01 0.000000e+00
      vertex -2.150000e+00 -3.750000e-01 0.000000e+00
    endloop
  endfacet
  facet normal 0.000000e+00 0.000000e+00 -1.000000e+00
    outer loop
      vertex -3.150000e+00 7.862500e+01 0.000000e+00
      vertex -2.150000e+00 7.712500e+01 0.000000e+00
      vertex -5.150000e+00 7.862500e+01 0.000000e+00
    endloop
  endfacet
  facet normal 0.000000e+00 0.000000e+00 -1.000000e+00
    outer loop
      vertex -8.400000e+00 7.712500e+01 0.000000e+00
      vertex -8.400000e+00 8.067500e+01 0.000000e+00
      vertex -5.150000e+00 7.862500e+01 0.000000e+00
    endloop
  endfacet
  facet normal 0.000000e+00 0.000000e+00 -1.000000e+00
    outer loop
      vertex -8.400000e+00 7.712500e+01 0.000000e+00
      vertex -5.150000e+00 7.862500e+01 0.000000e+00
      vertex -2.150000e+00 7.712500e+01 0.000000e+00
    endloop
  endfacet
  facet normal 0.000000e+00 0.000000e+00 -1.000000e+00
    outer loop
      vertex -9.393000e+00 -8.212500e+01 0.000000e+00
      vertex -1.218300e+01 -8.400000e+01 0.000000e+00
      vertex 3.438499e-01 -5.537500e+01 0.000000e+00
    endloop
  endfacet
  facet normal 0.000000e+00 0.000000e+00 -1.000000e+00
    outer loop
      vertex -2.150000e+00 7.712500e+01 0.000000e+00
      vertex -3.150000e+00 7.862500e+01 0.000000e+00
      vertex -3.150000e+00 8.267500e+01 0.000000e+00
    endloop
  endfacet
  facet normal 0.000000e+00 0.000000e+00 -1.000000e+00
    outer loop
      vertex -2.150000e+00 7.712500e+01 0.000000e+00
      vertex 3.499999e-01 8.462500e+01 0.000000e+00
      vertex -2.150000e+00 7.125000e+00 0.000000e+00
    endloop
  endfacet
  facet normal -0.000000e+00 -0.000000e+00 -1.000000e+00
    outer loop
      vertex -8.400000e+00 8.267500e+01 0.000000e+00
      vertex -8.400000e+00 8.462500e+01 0.000000e+00
      vertex -3.150000e+00 8.267500e+01 0.000000e+00
    endloop
  endfacet
  facet normal 0.000000e+00 0.000000e+00 -1.000000e+00
    outer loop
      vertex -3.150000e+00 8.267500e+01 0.000000e+00
      vertex -8.400000e+00 8.462500e+01 0.000000e+00
      vertex 3.499999e-01 8.462500e+01 0.000000e+00
    endloop
  endfacet
  facet normal 0.000000e+00 0.000000e+00 -1.000000e+00
    outer loop
      vertex -3.150000e+00 8.267500e+01 0.000000e+00
      vertex 3.499999e-01 8.462500e+01 0.000000e+00
      vertex -2.150000e+00 7.712500e+01 0.000000e+00
    endloop
  endfacet
  facet normal 0.000000e+00 0.000000e+00 -1.000000e+00
    outer loop
      vertex -2.150000e+00 -5.491800e+01 0.000000e+00
      vertex 3.499999e-01 8.462500e+01 0.000000e+00
      vertex 3.499999e-01 -5.518700e+01 0.000000e+00
    endloop
  endfacet
  facet normal 0.000000e+00 0.000000e+00 -1.000000e+00
    outer loop
      vertex -2.150000e+00 -5.491800e+01 0.000000e+00
      vertex 3.499999e-01 -5.518700e+01 0.000000e+00
      vertex -1.218300e+01 -8.400000e+01 0.000000e+00
    endloop
  endfacet
  facet normal 0.000000e+00 0.000000e+00 -1.000000e+00
    outer loop
      vertex -1.218300e+01 -8.400000e+01 0.000000e+00
      vertex 3.499999e-01 -5.518700e+01 0.000000e+00
      vertex 4.049999e-01 -5.520700e+01 0.000000e+00
    endloop
  endfacet
  facet normal 0.000000e+00 0.000000e+00 -1.000000e+00
    outer loop
      vertex -1.218300e+01 -8.400000e+01 0.000000e+00
      vertex 4.049999e-01 -5.520700e+01 0.000000e+00
      vertex 3.499999e-01 -5.535810e+01 0.000000e+00
    endloop
  endfacet
  facet normal 0.000000e+00 0.000000e+00 -1.000000e+00
    outer loop
      vertex 3.438499e-01 -5.537500e+01 0.000000e+00
      vertex 3.499999e-01 -5.535810e+01 0.000000e+00
      vertex 3.499999e-01 -5.537500e+01 0.000000e+00
    endloop
  endfacet
  facet normal 0.000000e+00 0.000000e+00 -1.000000e+00
    outer loop
      vertex -1.218300e+01 -8.400000e+01 0.000000e+00
      vertex 3.499999e-01 -5.535810e+01 0.000000e+00
      vertex 3.438499e-01 -5.537500e+01 0.000000e+00
    endloop
  endfacet
  facet normal 0.000000e+00 0.000000e+00 -1.000000e+00
    outer loop
      vertex -1.110000e+01 -8.462500e+01 0.000000e+00
      vertex -1.218300e+01 -8.400000e+01 0.000000e+00
      vertex -1.090000e+01 -8.457200e+01 0.000000e+00
    endloop
  endfacet
  facet normal 0.000000e+00 0.000000e+00 -1.000000e+00
    outer loop
      vertex -1.218300e+01 -8.400000e+01 0.000000e+00
      vertex -9.393000e+00 -8.212500e+01 0.000000e+00
      vertex 9.850000e+00 -8.212500e+01 0.000000e+00
    endloop
  endfacet
  facet normal 0.000000e+00 0.000000e+00 -1.000000e+00
    outer loop
      vertex 9.850000e+00 -8.212500e+01 0.000000e+00
      vertex 9.850000e+00 -7.337500e+01 0.000000e+00
      vertex 9.945000e+00 -7.241800e+01 0.000000e+00
    endloop
  endfacet
  facet normal 0.000000e+00 0.000000e+00 -1.000000e+00
    outer loop
      vertex 9.850000e+00 -8.212500e+01 0.000000e+00
      vertex 9.945000e+00 -7.241800e+01 0.000000e+00
      vertex 1.021600e+01 -7.160700e+01 0.000000e+00
    endloop
  endfacet
  facet normal 0.000000e+00 0.000000e+00 -1.000000e+00
    outer loop
      vertex 9.850000e+00 -8.212500e+01 0.000000e+00
      vertex 1.021600e+01 -7.160700e+01 0.000000e+00
      vertex 1.062200e+01 -7.106500e+01 0.000000e+00
    endloop
  endfacet
  facet normal 0.000000e+00 0.000000e+00 -1.000000e+00
    outer loop
      vertex 9.850000e+00 -8.212500e+01 0.000000e+00
      vertex 1.062200e+01 -7.106500e+01 0.000000e+00
      vertex 1.110000e+01 -7.087500e+01 0.000000e+00
    endloop
  endfacet
  facet normal 0.000000e+00 0.000000e+00 -1.000000e+00
    outer loop
      vertex 9.850000e+00 -8.212500e+01 0.000000e+00
      vertex 1.110000e+01 -7.087500e+01 0.000000e+00
      vertex 1.157800e+01 -7.106500e+01 0.000000e+00
    endloop
  endfacet
  facet normal 0.000000e+00 0.000000e+00 -1.000000e+00
    outer loop
      vertex 9.850000e+00 -8.212500e+01 0.000000e+00
      vertex 1.157800e+01 -7.106500e+01 0.000000e+00
      vertex 1.198400e+01 -7.160700e+01 0.000000e+00
    endloop
  endfacet
  facet normal 0.000000e+00 0.000000e+00 -1.000000e+00
    outer loop
      vertex 9.850000e+00 -8.212500e+01 0.000000e+00
      vertex 1.198400e+01 -7.160700e+01 0.000000e+00
      vertex 1.225500e+01 -7.241800e+01 0.000000e+00
    endloop
  endfacet
  facet normal 0.000000e+00 0.000000e+00 -1.000000e+00
    outer loop
      vertex 9.850000e+00 -8.212500e+01 0.000000e+00
      vertex 1.225500e+01 -7.241800e+01 0.000000e+00
      vertex 1.235000e+01 -7.337500e+01 0.000000e+00
    endloop
  endfacet
  facet normal 0.000000e+00 0.000000e+00 -1.000000e+00
    outer loop
      vertex 9.850000e+00 -8.212500e+01 0.000000e+00
      vertex 1.235000e+01 -7.337500e+01 0.000000e+00
      vertex 1.235000e+01 -8.337500e+01 0.000000e+00
    endloop
  endfacet
  facet normal 0.000000e+00 0.000000e+00 -1.000000e+00
    outer loop
      vertex 9.850000e+00 -8.212500e+01 0.000000e+00
      vertex 1.235000e+01 -8.337500e+01 0.000000e+00
      vertex -1.218300e+01 -8.400000e+01 0.000000e+00
    endloop
  endfacet
  facet normal 0.000000e+00 0.000000e+00 -1.000000e+00
    outer loop
      vertex -1.218300e+01 -8.400000e+01 0.000000e+00
      vertex 1.235000e+01 -8.337500e+01 0.000000e+00
      vertex 1.218300e+01 -8.400000e+01 0.000000e+00
    endloop
  endfacet
  facet normal 0.000000e+00 0.000000e+00 -1.000000e+00
    outer loop
      vertex -1.218300e+01 -8.400000e+01 0.000000e+00
      vertex 1.218300e+01 -8.400000e+01 0.000000e+00
      vertex 1.172500e+01 -8.445800e+01 0.000000e+00
    endloop
  endfacet
  facet normal 0.000000e+00 0.000000e+00 -1.000000e+00
    outer loop
      vertex -1.218300e+01 -8.400000e+01 0.000000e+00
      vertex 1.172500e+01 -8.445800e+01 0.000000e+00
      vertex 1.110000e+01 -8.462500e+01 0.000000e+00
    endloop
  endfacet
  facet normal 0.000000e+00 0.000000e+00 -1.000000e+00
    outer loop
      vertex -1.090000e+01 -8.457200e+01 0.000000e+00
      vertex 1.110000e+01 -8.462500e+01 0.000000e+00
      vertex -1.090000e+01 -8.462500e+01 0.000000e+00
    endloop
  endfacet
  facet normal 0.000000e+00 0.000000e+00 -1.000000e+00
    outer loop
      vertex -1.218300e+01 -8.400000e+01 0.000000e+00
      vertex 1.110000e+01 -8.462500e+01 0.000000e+00
      vertex -1.090000e+01 -8.457200e+01 0.000000e+00
    endloop
  endfacet
  facet normal 0.000000e+00 0.000000e+00 -1.000000e+00
    outer loop
      vertex -1.218300e+01 -8.400000e+01 0.000000e+00
      vertex -1.110000e+01 -8.462500e+01 0.000000e+00
      vertex -1.172500e+01 -8.445800e+01 0.000000e+00
    endloop
  endfacet
  facet normal 0.000000e+00 0.000000e+00 -1.000000e+00
    outer loop
      vertex -5.150000e+00 1.125000e+00 0.000000e+00
      vertex -8.400000e+00 3.175000e+00 0.000000e+00
      vertex -5.150000e+00 3.175000e+00 0.000000e+00
    endloop
  endfacet
  facet normal -9.661065e-01 2.581438e-01 0.000000e+00
    outer loop
      vertex -1.235000e+01 -8.337500e+01 0.000000e+00
      vertex -1.235000e+01 -8.337500e+01 1.200000e+01
      vertex -1.218300e+01 -8.275000e+01 0.000000e+00
    endloop
  endfacet
  facet normal -9.661065e-01 2.581438e-01 0.000000e+00
    outer loop
      vertex -1.218300e+01 -8.275000e+01 0.000000e+00
      vertex -1.235000e+01 -8.337500e+01 1.200000e+01
      vertex -1.218300e+01 -8.275000e+01 1.200000e+01
    endloop
  endfacet
  facet normal 0.000000e+00 0.000000e+00 1.000000e+00
    outer loop
      vertex -1.218300e+01 -8.275000e+01 1.200000e+01
      vertex -1.235000e+01 -8.337500e+01 1.200000e+01
      vertex -1.218300e+01 -8.400000e+01 1.200000e+01
    endloop
  endfacet
  facet normal 0.000000e+00 0.000000e+00 1.000000e+00
    outer loop
      vertex -1.110000e+01 -8.462500e+01 1.200000e+01
      vertex -1.218300e+01 -8.275000e+01 1.200000e+01
      vertex -1.172500e+01 -8.445800e+01 1.200000e+01
    endloop
  endfacet
  facet normal 0.000000e+00 0.000000e+00 1.000000e+00
    outer loop
      vertex -1.172500e+01 -8.445800e+01 1.200000e+01
      vertex -1.218300e+01 -8.275000e+01 1.200000e+01
      vertex -1.218300e+01 -8.400000e+01 1.200000e+01
    endloop
  endfacet
  facet normal 0.000000e+00 0.000000e+00 1.000000e+00
    outer loop
      vertex -8.400000e+00 -3.750000e-01 1.200000e+01
      vertex -5.150000e+00 1.125000e+00 1.200000e+01
      vertex -5.150000e+00 3.175000e+00 1.200000e+01
    endloop
  endfacet
  facet normal 0.000000e+00 0.000000e+00 1.000000e+00
    outer loop
      vertex -1.090000e+01 -8.457200e+01 1.200000e+01
      vertex -1.218300e+01 -8.275000e+01 1.200000e+01
      vertex -1.110000e+01 -8.462500e+01 1.200000e+01
    endloop
  endfacet
  facet normal 0.000000e+00 0.000000e+00 1.000000e+00
    outer loop
      vertex 1.110000e+01 -8.462500e+01 1.200000e+01
      vertex -1.218300e+01 -8.275000e+01 1.200000e+01
      vertex -1.090000e+01 -8.457200e+01 1.200000e+01
    endloop
  endfacet
  facet normal 0.000000e+00 0.000000e+00 1.000000e+00
    outer loop
      vertex 1.110000e+01 -8.462500e+01 1.200000e+01
      vertex -1.090000e+01 -8.457200e+01 1.200000e+01
      vertex -1.090000e+01 -8.462500e+01 1.200000e+01
    endloop
  endfacet
  facet normal 0.000000e+00 0.000000e+00 1.000000e+00
    outer loop
      vertex 1.172500e+01 -8.445800e+01 1.200000e+01
      vertex -1.218300e+01 -8.275000e+01 1.200000e+01
      vertex 1.110000e+01 -8.462500e+01 1.200000e+01
    endloop
  endfacet
  facet normal 0.000000e+00 0.000000e+00 1.000000e+00
    outer loop
      vertex 1.218300e+01 -8.400000e+01 1.200000e+01
      vertex -1.218300e+01 -8.275000e+01 1.200000e+01
      vertex 1.172500e+01 -8.445800e+01 1.200000e+01
    endloop
  endfacet
  facet normal 0.000000e+00 0.000000e+00 1.000000e+00
    outer loop
      vertex 1.235000e+01 -8.337500e+01 1.200000e+01
      vertex -1.218300e+01 -8.275000e+01 1.200000e+01
      vertex 1.218300e+01 -8.400000e+01 1.200000e+01
    endloop
  endfacet
  facet normal 0.000000e+00 0.000000e+00 1.000000e+00
    outer loop
      vertex 9.850000e+00 -8.212500e+01 1.200000e+01
      vertex -1.218300e+01 -8.275000e+01 1.200000e+01
      vertex 1.235000e+01 -8.337500e+01 1.200000e+01
    endloop
  endfacet
  facet normal 0.000000e+00 0.000000e+00 1.000000e+00
    outer loop
      vertex 9.945000e+00 -7.241800e+01 1.200000e+01
      vertex 9.850000e+00 -7.337500e+01 1.200000e+01
      vertex 1.198400e+01 -7.160700e+01 1.200000e+01
    endloop
  endfacet
  facet normal 0.000000e+00 0.000000e+00 1.000000e+00
    outer loop
      vertex 1.021600e+01 -7.160700e+01 1.200000e+01
      vertex 9.945000e+00 -7.241800e+01 1.200000e+01
      vertex 1.157800e+01 -7.106500e+01 1.200000e+01
    endloop
  endfacet
  facet normal 0.000000e+00 0.000000e+00 1.000000e+00
    outer loop
      vertex 1.110000e+01 -7.087500e+01 1.200000e+01
      vertex 1.021600e+01 -7.160700e+01 1.200000e+01
      vertex 1.157800e+01 -7.106500e+01 1.200000e+01
    endloop
  endfacet
  facet normal 0.000000e+00 0.000000e+00 1.000000e+00
    outer loop
      vertex -1.220500e+01 -8.254300e+01 1.200000e+01
      vertex -1.203700e+01 -8.260400e+01 1.200000e+01
      vertex 3.438499e-01 -5.537500e+01 1.200000e+01
    endloop
  endfacet
  facet normal 0.000000e+00 0.000000e+00 1.000000e+00
    outer loop
      vertex 1.157800e+01 -7.106500e+01 1.200000e+01
      vertex 9.945000e+00 -7.241800e+01 1.200000e+01
      vertex 1.198400e+01 -7.160700e+01 1.200000e+01
    endloop
  endfacet
  facet normal 0.000000e+00 0.000000e+00 1.000000e+00
    outer loop
      vertex -8.400000e+00 -3.750000e-01 1.200000e+01
      vertex -3.150000e+00 1.125000e+00 1.200000e+01
      vertex -5.150000e+00 1.125000e+00 1.200000e+01
    endloop
  endfacet
  facet normal 0.000000e+00 0.000000e+00 1.000000e+00
    outer loop
      vertex 1.198400e+01 -7.160700e+01 1.200000e+01
      vertex 9.850000e+00 -7.337500e+01 1.200000e+01
      vertex 1.225500e+01 -7.241800e+01 1.200000e+01
    endloop
  endfacet
  facet normal 0.000000e+00 0.000000e+00 1.000000e+00
    outer loop
      vertex 1.235000e+01 -7.337500e+01 1.200000e+01
      vertex 9.850000e+00 -8.212500e+01 1.200000e+01
      vertex 1.235000e+01 -8.337500e+01 1.200000e+01
    endloop
  endfacet
  facet normal 0.000000e+00 0.000000e+00 1.000000e+00
    outer loop
      vertex -9.393000e+00 -8.212500e+01 1.200000e+01
      vertex -1.218300e+01 -8.275000e+01 1.200000e+01
      vertex 9.850000e+00 -8.212500e+01 1.200000e+01
    endloop
  endfacet
  facet normal 0.000000e+00 0.000000e+00 1.000000e+00
    outer loop
      vertex 3.499999e-01 -5.535810e+01 1.200000e+01
      vertex 3.438499e-01 -5.537500e+01 1.200000e+01
      vertex 3.499999e-01 -5.537500e+01 1.200000e+01
    endloop
  endfacet
  facet normal 0.000000e+00 0.000000e+00 1.000000e+00
    outer loop
      vertex -8.400000e+00 -3.750000e-01 1.200000e+01
      vertex -2.150000e+00 -3.750000e-01 1.200000e+01
      vertex -3.150000e+00 1.125000e+00 1.200000e+01
    endloop
  endfacet
  facet normal 0.000000e+00 0.000000e+00 1.000000e+00
    outer loop
      vertex -8.400000e+00 8.462500e+01 1.200000e+01
      vertex -8.400000e+00 8.267500e+01 1.200000e+01
      vertex 3.499999e-01 8.462500e+01 1.200000e+01
    endloop
  endfacet
  facet normal 0.000000e+00 0.000000e+00 1.000000e+00
    outer loop
      vertex -8.400000e+00 8.267500e+01 1.200000e+01
      vertex -3.150000e+00 8.267500e+01 1.200000e+01
      vertex 3.499999e-01 8.462500e+01 1.200000e+01
    endloop
  endfacet
  facet normal 0.000000e+00 0.000000e+00 1.000000e+00
    outer loop
      vertex -3.150000e+00 8.267500e+01 1.200000e+01
      vertex -3.150000e+00 7.862500e+01 1.200000e+01
      vertex 3.499999e-01 8.462500e+01 1.200000e+01
    endloop
  endfacet
  facet normal 0.000000e+00 0.000000e+00 1.000000e+00
    outer loop
      vertex -5.150000e+00 3.175000e+00 1.200000e+01
      vertex -8.400000e+00 3.175000e+00 1.200000e+01
      vertex -8.400000e+00 -3.750000e-01 1.200000e+01
    endloop
  endfacet
  facet normal 0.000000e+00 0.000000e+00 1.000000e+00
    outer loop
      vertex -2.150000e+00 7.712500e+01 1.200000e+01
      vertex -2.150000e+00 7.125000e+00 1.200000e+01
      vertex 3.499999e-01 8.462500e+01 1.200000e+01
    endloop
  endfacet
  facet normal 0.000000e+00 0.000000e+00 1.000000e+00
    outer loop
      vertex -8.400000e+00 5.175000e+00 1.200000e+01
      vertex -3.150000e+00 5.175000e+00 1.200000e+01
      vertex -2.150000e+00 7.125000e+00 1.200000e+01
    endloop
  endfacet
  facet normal 0.000000e+00 0.000000e+00 1.000000e+00
    outer loop
      vertex -8.400000e+00 8.067500e+01 1.200000e+01
      vertex -8.400000e+00 7.712500e+01 1.200000e+01
      vertex -5.150000e+00 7.862500e+01 1.200000e+01
    endloop
  endfacet
  facet normal 0.000000e+00 0.000000e+00 1.000000e+00
    outer loop
      vertex -3.150000e+00 7.862500e+01 1.200000e+01
      vertex -2.150000e+00 7.712500e+01 1.200000e+01
      vertex 3.499999e-01 8.462500e+01 1.200000e+01
    endloop
  endfacet
  facet normal 0.000000e+00 0.000000e+00 1.000000e+00
    outer loop
      vertex 3.499999e-01 8.462500e+01 1.200000e+01
      vertex -2.150000e+00 7.125000e+00 1.200000e+01
      vertex 3.499999e-01 -5.518700e+01 1.200000e+01
    endloop
  endfacet
  facet normal 0.000000e+00 0.000000e+00 1.000000e+00
    outer loop
      vertex -3.150000e+00 1.125000e+00 1.200000e+01
      vertex -2.150000e+00 -3.750000e-01 1.200000e+01
      vertex -2.150000e+00 7.125000e+00 1.200000e+01
    endloop
  endfacet
  facet normal 0.000000e+00 0.000000e+00 1.000000e+00
    outer loop
      vertex -3.150000e+00 5.175000e+00 1.200000e+01
      vertex -3.150000e+00 1.125000e+00 1.200000e+01
      vertex -2.150000e+00 7.125000e+00 1.200000e+01
    endloop
  endfacet
  facet normal 0.000000e+00 0.000000e+00 1.000000e+00
    outer loop
      vertex -1.220500e+01 -8.254300e+01 1.200000e+01
      vertex 3.499999e-01 -5.535810e+01 1.200000e+01
      vertex 4.049999e-01 -5.520700e+01 1.200000e+01
    endloop
  endfacet
  facet normal 0.000000e+00 0.000000e+00 1.000000e+00
    outer loop
      vertex -1.220500e+01 -8.254300e+01 1.200000e+01
      vertex 4.049999e-01 -5.520700e+01 1.200000e+01
      vertex 3.499999e-01 -5.518700e+01 1.200000e+01
    endloop
  endfacet
  facet normal 0.000000e+00 0.000000e+00 1.000000e+00
    outer loop
      vertex -5.150000e+00 8.067500e+01 1.200000e+01
      vertex -8.400000e+00 8.067500e+01 1.200000e+01
      vertex -5.150000e+00 7.862500e+01 1.200000e+01
    endloop
  endfacet
  facet normal 0.000000e+00 0.000000e+00 1.000000e+00
    outer loop
      vertex -2.150000e+00 7.125000e+00 1.200000e+01
      vertex -2.150000e+00 -3.750000e-01 1.200000e+01
      vertex 3.499999e-01 -5.518700e+01 1.200000e+01
    endloop
  endfacet
  facet normal 0.000000e+00 0.000000e+00 1.000000e+00
    outer loop
      vertex -2.150000e+00 -3.750000e-01 1.200000e+01
      vertex -2.150000e+00 -5.491800e+01 1.200000e+01
      vertex 3.499999e-01 -5.518700e+01 1.200000e+01
    endloop
  endfacet
  facet normal 0.000000e+00 0.000000e+00 1.000000e+00
    outer loop
      vertex -1.220500e+01 -8.254300e+01 1.200000e+01
      vertex 3.499999e-01 -5.518700e+01 1.200000e+01
      vertex -2.150000e+00 -5.491800e+01 1.200000e+01
    endloop
  endfacet
  facet normal 0.000000e+00 0.000000e+00 1.000000e+00
    outer loop
      vertex -2.150000e+00 7.125000e+00 1.200000e+01
      vertex -8.400000e+00 7.125000e+00 1.200000e+01
      vertex -8.400000e+00 5.175000e+00 1.200000e+01
    endloop
  endfacet
  facet normal 0.000000e+00 0.000000e+00 1.000000e+00
    outer loop
      vertex -1.220500e+01 -8.254300e+01 1.200000e+01
      vertex 3.438499e-01 -5.537500e+01 1.200000e+01
      vertex 3.499999e-01 -5.535810e+01 1.200000e+01
    endloop
  endfacet
  facet normal 0.000000e+00 0.000000e+00 1.000000e+00
    outer loop
      vertex 1.062200e+01 -7.106500e+01 1.200000e+01
      vertex 1.021600e+01 -7.160700e+01 1.200000e+01
      vertex 1.110000e+01 -7.087500e+01 1.200000e+01
    endloop
  endfacet
  facet normal 0.000000e+00 0.000000e+00 1.000000e+00
    outer loop
      vertex 9.850000e+00 -7.337500e+01 1.200000e+01
      vertex 1.235000e+01 -7.337500e+01 1.200000e+01
      vertex 1.225500e+01 -7.241800e+01 1.200000e+01
    endloop
  endfacet
  facet normal 0.000000e+00 0.000000e+00 1.000000e+00
    outer loop
      vertex 9.850000e+00 -7.337500e+01 1.200000e+01
      vertex 9.850000e+00 -8.212500e+01 1.200000e+01
      vertex 1.235000e+01 -7.337500e+01 1.200000e+01
    endloop
  endfacet
  facet normal 0.000000e+00 0.000000e+00 1.000000e+00
    outer loop
      vertex -9.393000e+00 -8.212500e+01 1.200000e+01
      vertex -1.203700e+01 -8.260400e+01 1.200000e+01
      vertex -1.218300e+01 -8.275000e+01 1.200000e+01
    endloop
  endfacet
  facet normal 0.000000e+00 0.000000e+00 1.000000e+00
    outer loop
      vertex -9.393000e+00 -8.212500e+01 1.200000e+01
      vertex 3.438499e-01 -5.537500e+01 1.200000e+01
      vertex -1.203700e+01 -8.260400e+01 1.200000e+01
    endloop
  endfacet
  facet normal 0.000000e+00 0.000000e+00 1.000000e+00
    outer loop
      vertex -8.400000e+00 7.712500e+01 1.200000e+01
      vertex -3.150000e+00 7.862500e+01 1.200000e+01
      vertex -5.150000e+00 7.862500e+01 1.200000e+01
    endloop
  endfacet
  facet normal 0.000000e+00 0.000000e+00 1.000000e+00
    outer loop
      vertex -8.400000e+00 7.712500e+01 1.200000e+01
      vertex -2.150000e+00 7.712500e+01 1.200000e+01
      vertex -3.150000e+00 7.862500e+01 1.200000e+01
    endloop
  endfacet
  facet normal -7.071068e-01 -7.071068e-01 0.000000e+00
    outer loop
      vertex -1.218300e+01 -8.400000e+01 1.200000e+01
      vertex -1.218300e+01 -8.400000e+01 0.000000e+00
      vertex -1.172500e+01 -8.445800e+01 0.000000e+00
    endloop
  endfacet
  facet normal -7.071068e-01 -7.071068e-01 0.000000e+00
    outer loop
      vertex -1.172500e+01 -8.445800e+01 1.200000e+01
      vertex -1.218300e+01 -8.400000e+01 1.200000e+01
      vertex -1.172500e+01 -8.445800e+01 0.000000e+00
    endloop
  endfacet
  facet normal -2.581438e-01 -9.661065e-01 0.000000e+00
    outer loop
      vertex -1.172500e+01 -8.445800e+01 1.200000e+01
      vertex -1.172500e+01 -8.445800e+01 0.000000e+00
      vertex -1.110000e+01 -8.462500e+01 0.000000e+00
    endloop
  endfacet
  facet normal -2.581438e-01 -9.661065e-01 0.000000e+00
    outer loop
      vertex -1.110000e+01 -8.462500e+01 1.200000e+01
      vertex -1.172500e+01 -8.445800e+01 1.200000e+01
      vertex -1.110000e+01 -8.462500e+01 0.000000e+00
    endloop
  endfacet
  facet normal 2.561580e-01 -9.666349e-01 0.000000e+00
    outer loop
      vertex -1.110000e+01 -8.462500e+01 1.200000e+01
      vertex -1.110000e+01 -8.462500e+01 0.000000e+00
      vertex -1.090000e+01 -8.457200e+01 0.000000e+00
    endloop
  endfacet
  facet normal 2.561580e-01 -9.666349e-01 0.000000e+00
    outer loop
      vertex -1.090000e+01 -8.457200e+01 1.200000e+01
      vertex -1.110000e+01 -8.462500e+01 1.200000e+01
      vertex -1.090000e+01 -8.457200e+01 0.000000e+00
    endloop
  endfacet
  facet normal -1.000000e+00 -0.000000e+00 -0.000000e+00
    outer loop
      vertex -1.090000e+01 -8.462500e+01 0.000000e+00
      vertex -1.090000e+01 -8.462500e+01 1.200000e+01
      vertex -1.090000e+01 -8.457200e+01 0.000000e+00
    endloop
  endfacet
  facet normal -1.000000e+00 0.000000e+00 0.000000e+00
    outer loop
      vertex -1.090000e+01 -8.457200e+01 0.000000e+00
      vertex -1.090000e+01 -8.462500e+01 1.200000e+01
      vertex -1.090000e+01 -8.457200e+01 1.200000e+01
    endloop
  endfacet
  facet normal 0.000000e+00 -1.000000e+00 0.000000e+00
    outer loop
      vertex -1.090000e+01 -8.462500e+01 1.200000e+01
      vertex -1.090000e+01 -8.462500e+01 0.000000e+00
      vertex 1.110000e+01 -8.462500e+01 0.000000e+00
    endloop
  endfacet
  facet normal 0.000000e+00 -1.000000e+00 0.000000e+00
    outer loop
      vertex 1.110000e+01 -8.462500e+01 1.200000e+01
      vertex -1.090000e+01 -8.462500e+01 1.200000e+01
      vertex 1.110000e+01 -8.462500e+01 0.000000e+00
    endloop
  endfacet
  facet normal 2.581438e-01 -9.661065e-01 0.000000e+00
    outer loop
      vertex 1.110000e+01 -8.462500e+01 1.200000e+01
      vertex 1.110000e+01 -8.462500e+01 0.000000e+00
      vertex 1.172500e+01 -8.445800e+01 0.000000e+00
    endloop
  endfacet
  facet normal 2.581438e-01 -9.661065e-01 0.000000e+00
    outer loop
      vertex 1.172500e+01 -8.445800e+01 1.200000e+01
      vertex 1.110000e+01 -8.462500e+01 1.200000e+01
      vertex 1.172500e+01 -8.445800e+01 0.000000e+00
    endloop
  endfacet
  facet normal 7.071068e-01 -7.071068e-01 0.000000e+00
    outer loop
      vertex 1.172500e+01 -8.445800e+01 1.200000e+01
      vertex 1.172500e+01 -8.445800e+01 0.000000e+00
      vertex 1.218300e+01 -8.400000e+01 0.000000e+00
    endloop
  endfacet
  facet normal 7.071068e-01 -7.071068e-01 0.000000e+00
    outer loop
      vertex 1.218300e+01 -8.400000e+01 1.200000e+01
      vertex 1.172500e+01 -8.445800e+01 1.200000e+01
      vertex 1.218300e+01 -8.400000e+01 0.000000e+00
    endloop
  endfacet
  facet normal 9.661065e-01 -2.581438e-01 0.000000e+00
    outer loop
      vertex 1.218300e+01 -8.400000e+01 1.200000e+01
      vertex 1.218300e+01 -8.400000e+01 0.000000e+00
      vertex 1.235000e+01 -8.337500e+01 0.000000e+00
    endloop
  endfacet
  facet normal 9.661065e-01 -2.581438e-01 0.000000e+00
    outer loop
      vertex 1.235000e+01 -8.337500e+01 1.200000e+01
      vertex 1.218300e+01 -8.400000e+01 1.200000e+01
      vertex 1.235000e+01 -8.337500e+01 0.000000e+00
    endloop
  endfacet
  facet normal 1.000000e+00 0.000000e+00 0.000000e+00
    outer loop
      vertex 1.235000e+01 -8.337500e+01 1.200000e+01
      vertex 1.235000e+01 -8.337500e+01 0.000000e+00
      vertex 1.235000e+01 -7.337500e+01 0.000000e+00
    endloop
  endfacet
  facet normal 1.000000e+00 0.000000e+00 0.000000e+00
    outer loop
      vertex 1.235000e+01 -7.337500e+01 1.200000e+01
      vertex 1.235000e+01 -8.337500e+01 1.200000e+01
      vertex 1.235000e+01 -7.337500e+01 0.000000e+00
    endloop
  endfacet
  facet normal 9.951090e-01 9.878300e-02 0.000000e+00
    outer loop
      vertex 1.235000e+01 -7.337500e+01 0.000000e+00
      vertex 1.225500e+01 -7.241800e+01 0.000000e+00
      vertex 1.225500e+01 -7.241800e+01 1.200000e+01
    endloop
  endfacet
  facet normal 9.951090e-01 9.878300e-02 0.000000e+00
    outer loop
      vertex 1.235000e+01 -7.337500e+01 1.200000e+01
      vertex 1.235000e+01 -7.337500e+01 0.000000e+00
      vertex 1.225500e+01 -7.241800e+01 1.200000e+01
    endloop
  endfacet
  facet normal 9.484493e-01 3.169291e-01 0.000000e+00
    outer loop
      vertex 1.225500e+01 -7.241800e+01 0.000000e+00
      vertex 1.198400e+01 -7.160700e+01 0.000000e+00
      vertex 1.198400e+01 -7.160700e+01 1.200000e+01
    endloop
  endfacet
  facet normal 9.484493e-01 3.169291e-01 0.000000e+00
    outer loop
      vertex 1.225500e+01 -7.241800e+01 1.200000e+01
      vertex 1.225500e+01 -7.241800e+01 0.000000e+00
      vertex 1.198400e+01 -7.160700e+01 1.200000e+01
    endloop
  endfacet
  facet normal 8.003544e-01 5.995273e-01 0.000000e+00
    outer loop
      vertex 1.198400e+01 -7.160700e+01 0.000000e+00
      vertex 1.157800e+01 -7.106500e+01 0.000000e+00
      vertex 1.157800e+01 -7.106500e+01 1.200000e+01
    endloop
  endfacet
  facet normal 8.003544e-01 5.995273e-01 0.000000e+00
    outer loop
      vertex 1.198400e+01 -7.160700e+01 1.200000e+01
      vertex 1.198400e+01 -7.160700e+01 0.000000e+00
      vertex 1.157800e+01 -7.106500e+01 1.200000e+01
    endloop
  endfacet
  facet normal 3.693790e-01 9.292789e-01 0.000000e+00
    outer loop
      vertex 1.110000e+01 -7.087500e+01 0.000000e+00
      vertex 1.110000e+01 -7.087500e+01 1.200000e+01
      vertex 1.157800e+01 -7.106500e+01 0.000000e+00
    endloop
  endfacet
  facet normal 3.693790e-01 9.292789e-01 0.000000e+00
    outer loop
      vertex 1.157800e+01 -7.106500e+01 0.000000e+00
      vertex 1.110000e+01 -7.087500e+01 1.200000e+01
      vertex 1.157800e+01 -7.106500e+01 1.200000e+01
    endloop
  endfacet
  facet normal -3.693790e-01 9.292789e-01 0.000000e+00
    outer loop
      vertex 1.062200e+01 -7.106500e+01 0.000000e+00
      vertex 1.062200e+01 -7.106500e+01 1.200000e+01
      vertex 1.110000e+01 -7.087500e+01 0.000000e+00
    endloop
  endfacet
  facet normal -3.693790e-01 9.292789e-01 0.000000e+00
    outer loop
      vertex 1.110000e+01 -7.087500e+01 0.000000e+00
      vertex 1.062200e+01 -7.106500e+01 1.200000e+01
      vertex 1.110000e+01 -7.087500e+01 1.200000e+01
    endloop
  endfacet
  facet normal -8.003544e-01 5.995273e-01 0.000000e+00
    outer loop
      vertex 1.021600e+01 -7.160700e+01 0.000000e+00
      vertex 1.021600e+01 -7.160700e+01 1.200000e+01
      vertex 1.062200e+01 -7.106500e+01 0.000000e+00
    endloop
  endfacet
  facet normal -8.003544e-01 5.995273e-01 0.000000e+00
    outer loop
      vertex 1.062200e+01 -7.106500e+01 0.000000e+00
      vertex 1.021600e+01 -7.160700e+01 1.200000e+01
      vertex 1.062200e+01 -7.106500e+01 1.200000e+01
    endloop
  endfacet
  facet normal -9.484493e-01 3.169291e-01 0.000000e+00
    outer loop
      vertex 9.945000e+00 -7.241800e+01 0.000000e+00
      vertex 9.945000e+00 -7.241800e+01 1.200000e+01
      vertex 1.021600e+01 -7.160700e+01 0.000000e+00
    endloop
  endfacet
  facet normal -9.484493e-01 3.169291e-01 0.000000e+00
    outer loop
      vertex 1.021600e+01 -7.160700e+01 0.000000e+00
      vertex 9.945000e+00 -7.241800e+01 1.200000e+01
      vertex 1.021600e+01 -7.160700e+01 1.200000e+01
    endloop
  endfacet
  facet normal -9.951090e-01 9.878300e-02 0.000000e+00
    outer loop
      vertex 9.850000e+00 -7.337500e+01 0.000000e+00
      vertex 9.850000e+00 -7.337500e+01 1.200000e+01
      vertex 9.945000e+00 -7.241800e+01 0.000000e+00
    endloop
  endfacet
  facet normal -9.951090e-01 9.878300e-02 0.000000e+00
    outer loop
      vertex 9.945000e+00 -7.241800e+01 0.000000e+00
      vertex 9.850000e+00 -7.337500e+01 1.200000e+01
      vertex 9.945000e+00 -7.241800e+01 1.200000e+01
    endloop
  endfacet
  facet normal -1.000000e+00 -0.000000e+00 -0.000000e+00
    outer loop
      vertex 9.850000e+00 -8.212500e+01 0.000000e+00
      vertex 9.850000e+00 -8.212500e+01 1.200000e+01
      vertex 9.850000e+00 -7.337500e+01 0.000000e+00
    endloop
  endfacet
  facet normal -1.000000e+00 0.000000e+00 0.000000e+00
    outer loop
      vertex 9.850000e+00 -7.337500e+01 0.000000e+00
      vertex 9.850000e+00 -8.212500e+01 1.200000e+01
      vertex 9.850000e+00 -7.337500e+01 1.200000e+01
    endloop
  endfacet
  facet normal 0.000000e+00 1.000000e+00 0.000000e+00
    outer loop
      vertex -9.393000e+00 -8.212500e+01 0.000000e+00
      vertex -9.393000e+00 -8.212500e+01 1.200000e+01
      vertex 9.850000e+00 -8.212500e+01 0.000000e+00
    endloop
  endfacet
  facet normal 0.000000e+00 1.000000e+00 0.000000e+00
    outer loop
      vertex 9.850000e+00 -8.212500e+01 0.000000e+00
      vertex -9.393000e+00 -8.212500e+01 1.200000e+01
      vertex 9.850000e+00 -8.212500e+01 1.200000e+01
    endloop
  endfacet
  facet normal 9.396853e-01 -3.420401e-01 0.000000e+00
    outer loop
      vertex -9.393000e+00 -8.212500e+01 1.200000e+01
      vertex -9.393000e+00 -8.212500e+01 0.000000e+00
      vertex 3.438499e-01 -5.537500e+01 0.000000e+00
    endloop
  endfacet
  facet normal 9.396853e-01 -3.420401e-01 0.000000e+00
    outer loop
      vertex 3.438499e-01 -5.537500e+01 1.200000e+01
      vertex -9.393000e+00 -8.212500e+01 1.200000e+01
      vertex 3.438499e-01 -5.537500e+01 0.000000e+00
    endloop
  endfacet
  facet normal 0.000000e+00 -1.000000e+00 0.000000e+00
    outer loop
      vertex 3.438499e-01 -5.537500e+01 1.200000e+01
      vertex 3.438499e-01 -5.537500e+01 0.000000e+00
      vertex 3.499999e-01 -5.537500e+01 0.000000e+00
    endloop
  endfacet
  facet normal 0.000000e+00 -1.000000e+00 0.000000e+00
    outer loop
      vertex 3.499999e-01 -5.537500e+01 1.200000e+01
      vertex 3.438499e-01 -5.537500e+01 1.200000e+01
      vertex 3.499999e-01 -5.537500e+01 0.000000e+00
    endloop
  endfacet
  facet normal 1.000000e+00 0.000000e+00 0.000000e+00
    outer loop
      vertex 3.499999e-01 -5.537500e+01 1.200000e+01
      vertex 3.499999e-01 -5.537500e+01 0.000000e+00
      vertex 3.499999e-01 -5.535810e+01 0.000000e+00
    endloop
  endfacet
  facet normal 1.000000e+00 0.000000e+00 0.000000e+00
    outer loop
      vertex 3.499999e-01 -5.535810e+01 1.200000e+01
      vertex 3.499999e-01 -5.537500e+01 1.200000e+01
      vertex 3.499999e-01 -5.535810e+01 0.000000e+00
    endloop
  endfacet
  facet normal 9.396853e-01 -3.420401e-01 0.000000e+00
    outer loop
      vertex 3.499999e-01 -5.535810e+01 1.200000e+01
      vertex 3.499999e-01 -5.535810e+01 0.000000e+00
      vertex 4.049999e-01 -5.520700e+01 0.000000e+00
    endloop
  endfacet
  facet normal 9.396853e-01 -3.420401e-01 0.000000e+00
    outer loop
      vertex 4.049999e-01 -5.520700e+01 1.200000e+01
      vertex 3.499999e-01 -5.535810e+01 1.200000e+01
      vertex 4.049999e-01 -5.520700e+01 0.000000e+00
    endloop
  endfacet
  facet normal 3.420321e-01 9.396883e-01 0.000000e+00
    outer loop
      vertex 3.499999e-01 -5.518700e+01 0.000000e+00
      vertex 3.499999e-01 -5.518700e+01 1.200000e+01
      vertex 4.049999e-01 -5.520700e+01 0.000000e+00
    endloop
  endfacet
  facet normal 3.420321e-01 9.396883e-01 0.000000e+00
    outer loop
      vertex 4.049999e-01 -5.520700e+01 0.000000e+00
      vertex 3.499999e-01 -5.518700e+01 1.200000e+01
      vertex 4.049999e-01 -5.520700e+01 1.200000e+01
    endloop
  endfacet
  facet normal 1.000000e+00 0.000000e+00 0.000000e+00
    outer loop
      vertex 3.499999e-01 -5.518700e+01 1.200000e+01
      vertex 3.499999e-01 -5.518700e+01 0.000000e+00
      vertex 3.499999e-01 8.462500e+01 0.000000e+00
    endloop
  endfacet
  facet normal 1.000000e+00 0.000000e+00 0.000000e+00
    outer loop
      vertex 3.499999e-01 8.462500e+01 1.200000e+01
      vertex 3.499999e-01 -5.518700e+01 1.200000e+01
      vertex 3.499999e-01 8.462500e+01 0.000000e+00
    endloop
  endfacet
  facet normal 0.000000e+00 1.000000e+00 0.000000e+00
    outer loop
      vertex -8.400000e+00 8.462500e+01 0.000000e+00
      vertex -8.400000e+00 8.462500e+01 1.200000e+01
      vertex 3.499999e-01 8.462500e+01 0.000000e+00
    endloop
  endfacet
  facet normal 0.000000e+00 1.000000e+00 0.000000e+00
    outer loop
      vertex 3.499999e-01 8.462500e+01 0.000000e+00
      vertex -8.400000e+00 8.462500e+01 1.200000e+01
      vertex 3.499999e-01 8.462500e+01 1.200000e+01
    endloop
  endfacet
  facet normal -1.000000e+00 -0.000000e+00 -0.000000e+00
    outer loop
      vertex -8.400000e+00 8.267500e+01 0.000000e+00
      vertex -8.400000e+00 8.267500e+01 1.200000e+01
      vertex -8.400000e+00 8.462500e+01 0.000000e+00
    endloop
  endfacet
  facet normal -1.000000e+00 0.000000e+00 0.000000e+00
    outer loop
      vertex -8.400000e+00 8.462500e+01 0.000000e+00
      vertex -8.400000e+00 8.267500e+01 1.200000e+01
      vertex -8.400000e+00 8.462500e+01 1.200000e+01
    endloop
  endfacet
  facet normal 0.000000e+00 -1.000000e+00 0.000000e+00
    outer loop
      vertex -3.150000e+00 8.267500e+01 0.000000e+00
      vertex -3.150000e+00 8.267500e+01 1.200000e+01
      vertex -8.400000e+00 8.267500e+01 1.200000e+01
    endloop
  endfacet
  facet normal -0.000000e+00 -1.000000e+00 -0.000000e+00
    outer loop
      vertex -8.400000e+00 8.267500e+01 0.000000e+00
      vertex -3.150000e+00 8.267500e+01 0.000000e+00
      vertex -8.400000e+00 8.267500e+01 1.200000e+01
    endloop
  endfacet
  facet normal -1.000000e+00 0.000000e+00 0.000000e+00
    outer loop
      vertex -3.150000e+00 8.267500e+01 1.200000e+01
      vertex -3.150000e+00 8.267500e+01 0.000000e+00
      vertex -3.150000e+00 7.862500e+01 1.200000e+01
    endloop
  endfacet
  facet normal -1.000000e+00 0.000000e+00 0.000000e+00
    outer loop
      vertex -3.150000e+00 7.862500e+01 1.200000e+01
      vertex -3.150000e+00 8.267500e+01 0.000000e+00
      vertex -3.150000e+00 7.862500e+01 0.000000e+00
    endloop
  endfacet
  facet normal 0.000000e+00 1.000000e+00 -5.921190e-16
    outer loop
      vertex -3.150000e+00 7.862500e+01 1.200000e+01
      vertex -3.150000e+00 7.862500e+01 0.000000e+00
      vertex -5.150000e+00 7.862500e+01 1.200000e+01
    endloop
  endfacet
  facet normal 0.000000e+00 1.000000e+00 -5.921190e-16
    outer loop
      vertex -5.150000e+00 7.862500e+01 1.200000e+01
      vertex -3.150000e+00 7.862500e+01 0.000000e+00
      vertex -5.150000e+00 7.862500e+01 0.000000e+00
    endloop
  endfacet
  facet normal 1.000000e+00 0.000000e+00 0.000000e+00
    outer loop
      vertex -5.150000e+00 8.067500e+01 0.000000e+00
      vertex -5.150000e+00 8.067500e+01 1.200000e+01
      vertex -5.150000e+00 7.862500e+01 1.200000e+01
    endloop
  endfacet
  facet normal 1.000000e+00 0.000000e+00 0.000000e+00
    outer loop
      vertex -5.150000e+00 7.862500e+01 0.000000e+00
      vertex -5.150000e+00 8.067500e+01 0.000000e+00
      vertex -5.150000e+00 7.862500e+01 1.200000e+01
    endloop
  endfacet
  facet normal 0.000000e+00 1.000000e+00 0.000000e+00
    outer loop
      vertex -5.150000e+00 8.067500e+01 1.200000e+01
      vertex -5.150000e+00 8.067500e+01 0.000000e+00
      vertex -8.400000e+00 8.067500e+01 1.200000e+01
    endloop
  endfacet
  facet normal 0.000000e+00 1.000000e+00 0.000000e+00
    outer loop
      vertex -8.400000e+00 8.067500e+01 1.200000e+01
      vertex -5.150000e+00 8.067500e+01 0.000000e+00
      vertex -8.400000e+00 8.067500e+01 0.000000e+00
    endloop
  endfacet
  facet normal -1.000000e+00 -0.000000e+00 -0.000000e+00
    outer loop
      vertex -8.400000e+00 7.712500e+01 0.000000e+00
      vertex -8.400000e+00 7.712500e+01 1.200000e+01
      vertex -8.400000e+00 8.067500e+01 0.000000e+00
    endloop
  endfacet
  facet normal -1.000000e+00 0.000000e+00 0.000000e+00
    outer loop
      vertex -8.400000e+00 8.067500e+01 0.000000e+00
      vertex -8.400000e+00 7.712500e+01 1.200000e+01
      vertex -8.400000e+00 8.067500e+01 1.200000e+01
    endloop
  endfacet
  facet normal 0.000000e+00 -1.000000e+00 0.000000e+00
    outer loop
      vertex -8.400000e+00 7.712500e+01 1.200000e+01
      vertex -8.400000e+00 7.712500e+01 0.000000e+00
      vertex -2.150000e+00 7.712500e+01 0.000000e+00
    endloop
  endfacet
  facet normal 0.000000e+00 -1.000000e+00 0.000000e+00
    outer loop
      vertex -2.150000e+00 7.712500e+01 1.200000e+01
      vertex -8.400000e+00 7.712500e+01 1.200000e+01
      vertex -2.150000e+00 7.712500e+01 0.000000e+00
    endloop
  endfacet
  facet normal -1.000000e+00 -0.000000e+00 -0.000000e+00
    outer loop
      vertex -2.150000e+00 7.125000e+00 0.000000e+00
      vertex -2.150000e+00 7.125000e+00 1.200000e+01
      vertex -2.150000e+00 7.712500e+01 0.000000e+00
    endloop
  endfacet
  facet normal -1.000000e+00 0.000000e+00 0.000000e+00
    outer loop
      vertex -2.150000e+00 7.712500e+01 0.000000e+00
      vertex -2.150000e+00 7.125000e+00 1.200000e+01
      vertex -2.150000e+00 7.712500e+01 1.200000e+01
    endloop
  endfacet
  facet normal 0.000000e+00 1.000000e+00 0.000000e+00
    outer loop
      vertex -8.400000e+00 7.125000e+00 0.000000e+00
      vertex -8.400000e+00 7.125000e+00 1.200000e+01
      vertex -2.150000e+00 7.125000e+00 0.000000e+00
    endloop
  endfacet
  facet normal 0.000000e+00 1.000000e+00 0.000000e+00
    outer loop
      vertex -2.150000e+00 7.125000e+00 0.000000e+00
      vertex -8.400000e+00 7.125000e+00 1.200000e+01
      vertex -2.150000e+00 7.125000e+00 1.200000e+01
    endloop
  endfacet
  facet normal -1.000000e+00 0.000000e+00 0.000000e+00
    outer loop
      vertex -8.400000e+00 5.175000e+00 0.000000e+00
      vertex -8.400000e+00 5.175000e+00 1.200000e+01
      vertex -8.400000e+00 7.125000e+00 0.000000e+00
    endloop
  endfacet
  facet normal -1.000000e+00 0.000000e+00 0.000000e+00
    outer loop
      vertex -8.400000e+00 7.125000e+00 0.000000e+00
      vertex -8.400000e+00 5.175000e+00 1.200000e+01
      vertex -8.400000e+00 7.125000e+00 1.200000e+01
    endloop
  endfacet
  facet normal 0.000000e+00 -1.000000e+00 2.960590e-16
    outer loop
      vertex -3.150000e+00 5.175000e+00 0.000000e+00
      vertex -3.150000e+00 5.175000e+00 1.200000e+01
      vertex -8.400000e+00 5.175000e+00 1.200000e+01
    endloop
  endfacet
  facet normal 0.000000e+00 -1.000000e+00 2.960590e-16
    outer loop
      vertex -8.400000e+00 5.175000e+00 0.000000e+00
      vertex -3.150000e+00 5.175000e+00 0.000000e+00
      vertex -8.400000e+00 5.175000e+00 1.200000e+01
    endloop
  endfacet
  facet normal -1.000000e+00 0.000000e+00 0.000000e+00
    outer loop
      vertex -3.150000e+00 5.175000e+00 1.200000e+01
      vertex -3.150000e+00 5.175000e+00 0.000000e+00
      vertex -3.150000e+00 1.125000e+00 1.200000e+01
    endloop
  endfacet
  facet normal -1.000000e+00 0.000000e+00 0.000000e+00
    outer loop
      vertex -3.150000e+00 1.125000e+00 1.200000e+01
      vertex -3.150000e+00 5.175000e+00 0.000000e+00
      vertex -3.150000e+00 1.125000e+00 0.000000e+00
    endloop
  endfacet
  facet normal 0.000000e+00 1.000000e+00 -1.480300e-16
    outer loop
      vertex -3.150000e+00 1.125000e+00 1.200000e+01
      vertex -3.150000e+00 1.125000e+00 0.000000e+00
      vertex -5.150000e+00 1.125000e+00 1.200000e+01
    endloop
  endfacet
  facet normal 0.000000e+00 1.000000e+00 -1.480300e-16
    outer loop
      vertex -5.150000e+00 1.125000e+00 1.200000e+01
      vertex -3.150000e+00 1.125000e+00 0.000000e+00
      vertex -5.150000e+00 1.125000e+00 0.000000e+00
    endloop
  endfacet
  facet normal 1.000000e+00 0.000000e+00 0.000000e+00
    outer loop
      vertex -5.150000e+00 3.175000e+00 0.000000e+00
      vertex -5.150000e+00 3.175000e+00 1.200000e+01
      vertex -5.150000e+00 1.125000e+00 1.200000e+01
    endloop
  endfacet
  facet normal 1.000000e+00 0.000000e+00 0.000000e+00
    outer loop
      vertex -5.150000e+00 1.125000e+00 0.000000e+00
      vertex -5.150000e+00 3.175000e+00 0.000000e+00
      vertex -5.150000e+00 1.125000e+00 1.200000e+01
    endloop
  endfacet
  facet normal 0.000000e+00 1.000000e+00 -2.960590e-16
    outer loop
      vertex -5.150000e+00 3.175000e+00 1.200000e+01
      vertex -5.150000e+00 3.175000e+00 0.000000e+00
      vertex -8.400000e+00 3.175000e+00 1.200000e+01
    endloop
  endfacet
  facet normal 0.000000e+00 1.000000e+00 -2.960590e-16
    outer loop
      vertex -8.400000e+00 3.175000e+00 1.200000e+01
      vertex -5.150000e+00 3.175000e+00 0.000000e+00
      vertex -8.400000e+00 3.175000e+00 0.000000e+00
    endloop
  endfacet
  facet normal -1.000000e+00 -0.000000e+00 -0.000000e+00
    outer loop
      vertex -8.400000e+00 -3.750000e-01 0.000000e+00
      vertex -8.400000e+00 -3.750000e-01 1.200000e+01
      vertex -8.400000e+00 3.175000e+00 0.000000e+00
    endloop
  endfacet
  facet normal -1.000000e+00 0.000000e+00 0.000000e+00
    outer loop
      vertex -8.400000e+00 3.175000e+00 0.000000e+00
      vertex -8.400000e+00 -3.750000e-01 1.200000e+01
      vertex -8.400000e+00 3.175000e+00 1.200000e+01
    endloop
  endfacet
  facet normal 0.000000e+00 -1.000000e+00 0.000000e+00
    outer loop
      vertex -8.400000e+00 -3.750000e-01 1.200000e+01
      vertex -8.400000e+00 -3.750000e-01 0.000000e+00
      vertex -2.150000e+00 -3.750000e-01 0.000000e+00
    endloop
  endfacet
  facet normal 0.000000e+00 -1.000000e+00 0.000000e+00
    outer loop
      vertex -2.150000e+00 -3.750000e-01 1.200000e+01
      vertex -8.400000e+00 -3.750000e-01 1.200000e+01
      vertex -2.150000e+00 -3.750000e-01 0.000000e+00
    endloop
  endfacet
  facet normal -1.000000e+00 -0.000000e+00 -0.000000e+00
    outer loop
      vertex -2.150000e+00 -5.491800e+01 0.000000e+00
      vertex -2.150000e+00 -5.491800e+01 1.200000e+01
      vertex -2.150000e+00 -3.750000e-01 0.000000e+00
    endloop
  endfacet
  facet normal -1.000000e+00 0.000000e+00 0.000000e+00
    outer loop
      vertex -2.150000e+00 -3.750000e-01 0.000000e+00
      vertex -2.150000e+00 -5.491800e+01 1.200000e+01
      vertex -2.150000e+00 -3.750000e-01 1.200000e+01
    endloop
  endfacet
  facet normal -9.396893e-01 3.420291e-01 0.000000e+00
    outer loop
      vertex -1.220500e+01 -8.254300e+01 0.000000e+00
      vertex -1.220500e+01 -8.254300e+01 1.200000e+01
      vertex -2.150000e+00 -5.491800e+01 0.000000e+00
    endloop
  endfacet
  facet normal -9.396893e-01 3.420291e-01 0.000000e+00
    outer loop
      vertex -2.150000e+00 -5.491800e+01 0.000000e+00
      vertex -1.220500e+01 -8.254300e+01 1.200000e+01
      vertex -2.150000e+00 -5.491800e+01 1.200000e+01
    endloop
  endfacet
  facet normal -3.412938e-01 -9.399566e-01 0.000000e+00
    outer loop
      vertex -1.220500e+01 -8.254300e+01 1.200000e+01
      vertex -1.220500e+01 -8.254300e+01 0.000000e+00
      vertex -1.203700e+01 -8.260400e+01 0.000000e+00
    endloop
  endfacet
  facet normal -3.412938e-01 -9.399566e-01 0.000000e+00
    outer loop
      vertex -1.203700e+01 -8.260400e+01 1.200000e+01
      vertex -1.220500e+01 -8.254300e+01 1.200000e+01
      vertex -1.203700e+01 -8.260400e+01 0.000000e+00
    endloop
  endfacet
  facet normal -7.071068e-01 7.071068e-01 0.000000e+00
    outer loop
      vertex -1.218300e+01 -8.275000e+01 0.000000e+00
      vertex -1.218300e+01 -8.275000e+01 1.200000e+01
      vertex -1.203700e+01 -8.260400e+01 0.000000e+00
    endloop
  endfacet
  facet normal -7.071068e-01 7.071068e-01 0.000000e+00
    outer loop
      vertex -1.203700e+01 -8.260400e+01 0.000000e+00
      vertex -1.218300e+01 -8.275000e+01 1.200000e+01
      vertex -1.203700e+01 -8.260400e+01 1.200000e+01
    endloop
  endfacet
endsolid Default
