solid Default
  facet normal -6.785982e-01 -2.810851e-01 -6.785982e-01
    outer loop
      vertex -2.613130e+00 -2.613130e+00 2.164790e+00
      vertex -3.695520e+00 0.000000e+00 2.164790e+00
      vertex -1.082390e+00 -1.082390e+00 0.000000e+00
    endloop
  endfacet
  facet normal -6.785982e-01 -2.810851e-01 -6.785982e-01
    outer loop
      vertex -1.082390e+00 -1.082390e+00 0.000000e+00
      vertex -3.695520e+00 0.000000e+00 2.164790e+00
      vertex -1.530730e+00 0.000000e+00 0.000000e+00
    endloop
  endfacet
  facet normal -6.785982e-01 2.810851e-01 -6.785982e-01
    outer loop
      vertex -1.530730e+00 0.000000e+00 0.000000e+00
      vertex -3.695520e+00 0.000000e+00 2.164790e+00
      vertex -2.613130e+00 2.613130e+00 2.164790e+00
    endloop
  endfacet
  facet normal -9.238797e-01 3.826829e-01 0.000000e+00
    outer loop
      vertex -3.695520e+00 0.000000e+00 2.164790e+00
      vertex -3.695520e+00 0.000000e+00 5.226250e+00
      vertex -2.613130e+00 2.613130e+00 2.164790e+00
    endloop
  endfacet
  facet normal -9.238797e-01 3.826829e-01 0.000000e+00
    outer loop
      vertex -2.613130e+00 2.613130e+00 2.164790e+00
      vertex -3.695520e+00 0.000000e+00 5.226250e+00
      vertex -2.613130e+00 2.613130e+00 5.226250e+00
    endloop
  endfacet
  facet normal -9.238797e-01 -3.826829e-01 -0.000000e+00
    outer loop
      vertex -3.695520e+00 0.000000e+00 2.164790e+00
      vertex -2.613130e+00 -2.613130e+00 2.164790e+00
      vertex -3.695520e+00 0.000000e+00 5.226250e+00
    endloop
  endfacet
  facet normal -9.238797e-01 -3.826829e-01 0.000000e+00
    outer loop
      vertex -3.695520e+00 0.000000e+00 5.226250e+00
      vertex -2.613130e+00 -2.613130e+00 2.164790e+00
      vertex -2.613130e+00 -2.613130e+00 5.226250e+00
    endloop
  endfacet
  facet normal -2.810851e-01 -6.785982e-01 -6.785982e-01
    outer loop
      vertex 0.000000e+00 -3.695520e+00 2.164790e+00
      vertex -2.613130e+00 -2.613130e+00 2.164790e+00
      vertex 0.000000e+00 -1.530730e+00 0.000000e+00
    endloop
  endfacet
  facet normal -2.810849e-01 -6.785977e-01 -6.785988e-01
    outer loop
      vertex 0.000000e+00 -1.530730e+00 0.000000e+00
      vertex -2.613130e+00 -2.613130e+00 2.164790e+00
      vertex -1.082390e+00 -1.082390e+00 0.000000e+00
    endloop
  endfacet
  facet normal -3.826829e-01 -9.238797e-01 0.000000e+00
    outer loop
      vertex -2.613130e+00 -2.613130e+00 5.226250e+00
      vertex -2.613130e+00 -2.613130e+00 2.164790e+00
      vertex 0.000000e+00 -3.695520e+00 2.164790e+00
    endloop
  endfacet
  facet normal -3.826829e-01 -9.238797e-01 0.000000e+00
    outer loop
      vertex 0.000000e+00 -3.695520e+00 5.226250e+00
      vertex -2.613130e+00 -2.613130e+00 5.226250e+00
      vertex 0.000000e+00 -3.695520e+00 2.164790e+00
    endloop
  endfacet
  facet normal 0.000000e+00 0.000000e+00 -1.000000e+00
    outer loop
      vertex -1.530730e+00 0.000000e+00 0.000000e+00
      vertex -1.082390e+00 1.082390e+00 0.000000e+00
      vertex -1.082390e+00 -1.082390e+00 0.000000e+00
    endloop
  endfacet
  facet normal 0.000000e+00 0.000000e+00 -1.000000e+00
    outer loop
      vertex -1.082390e+00 -1.082390e+00 0.000000e+00
      vertex -1.082390e+00 1.082390e+00 0.000000e+00
      vertex 0.000000e+00 1.530730e+00 0.000000e+00
    endloop
  endfacet
  facet normal 0.000000e+00 0.000000e+00 -1.000000e+00
    outer loop
      vertex -1.082390e+00 -1.082390e+00 0.000000e+00
      vertex 0.000000e+00 1.530730e+00 0.000000e+00
      vertex 1.082390e+00 1.082390e+00 0.000000e+00
    endloop
  endfacet
  facet normal 0.000000e+00 0.000000e+00 -1.000000e+00
    outer loop
      vertex -1.082390e+00 -1.082390e+00 0.000000e+00
      vertex 1.082390e+00 1.082390e+00 0.000000e+00
      vertex 1.530730e+00 0.000000e+00 0.000000e+00
    endloop
  endfacet
  facet normal 0.000000e+00 0.000000e+00 -1.000000e+00
    outer loop
      vertex -1.082390e+00 -1.082390e+00 0.000000e+00
      vertex 1.530730e+00 0.000000e+00 0.000000e+00
      vertex 1.082390e+00 -1.082390e+00 0.000000e+00
    endloop
  endfacet
  facet normal 0.000000e+00 0.000000e+00 -1.000000e+00
    outer loop
      vertex -1.082390e+00 -1.082390e+00 0.000000e+00
      vertex 1.082390e+00 -1.082390e+00 0.000000e+00
      vertex 0.000000e+00 -1.530730e+00 0.000000e+00
    endloop
  endfacet
  facet normal -6.785977e-01 2.810849e-01 -6.785988e-01
    outer loop
      vertex -1.530730e+00 0.000000e+00 0.000000e+00
      vertex -2.613130e+00 2.613130e+00 2.164790e+00
      vertex -1.082390e+00 1.082390e+00 0.000000e+00
    endloop
  endfacet
  facet normal -2.810851e-01 6.785982e-01 -6.785982e-01
    outer loop
      vertex -1.082390e+00 1.082390e+00 0.000000e+00
      vertex -2.613130e+00 2.613130e+00 2.164790e+00
      vertex 0.000000e+00 3.695520e+00 2.164790e+00
    endloop
  endfacet
  facet normal -3.826829e-01 9.238797e-01 0.000000e+00
    outer loop
      vertex -2.613130e+00 2.613130e+00 2.164790e+00
      vertex -2.613130e+00 2.613130e+00 5.226250e+00
      vertex 0.000000e+00 3.695520e+00 2.164790e+00
    endloop
  endfacet
  facet normal -3.826829e-01 9.238797e-01 0.000000e+00
    outer loop
      vertex 0.000000e+00 3.695520e+00 2.164790e+00
      vertex -2.613130e+00 2.613130e+00 5.226250e+00
      vertex 0.000000e+00 3.695520e+00 5.226250e+00
    endloop
  endfacet
  facet normal -2.810851e-01 6.785982e-01 6.785982e-01
    outer loop
      vertex 0.000000e+00 3.695520e+00 5.226250e+00
      vertex -2.613130e+00 2.613130e+00 5.226250e+00
      vertex 0.000000e+00 1.530730e+00 7.391040e+00
    endloop
  endfacet
  facet normal -2.810849e-01 6.785977e-01 6.785988e-01
    outer loop
      vertex 0.000000e+00 1.530730e+00 7.391040e+00
      vertex -2.613130e+00 2.613130e+00 5.226250e+00
      vertex -1.082390e+00 1.082390e+00 7.391040e+00
    endloop
  endfacet
  facet normal -6.785982e-01 2.810851e-01 6.785982e-01
    outer loop
      vertex -2.613130e+00 2.613130e+00 5.226250e+00
      vertex -3.695520e+00 0.000000e+00 5.226250e+00
      vertex -1.082390e+00 1.082390e+00 7.391040e+00
    endloop
  endfacet
  facet normal -6.785982e-01 2.810851e-01 6.785982e-01
    outer loop
      vertex -1.082390e+00 1.082390e+00 7.391040e+00
      vertex -3.695520e+00 0.000000e+00 5.226250e+00
      vertex -1.530730e+00 0.000000e+00 7.391040e+00
    endloop
  endfacet
  facet normal -6.785982e-01 -2.810851e-01 6.785982e-01
    outer loop
      vertex -1.530730e+00 0.000000e+00 7.391040e+00
      vertex -3.695520e+00 0.000000e+00 5.226250e+00
      vertex -2.613130e+00 -2.613130e+00 5.226250e+00
    endloop
  endfacet
  facet normal -6.785977e-01 -2.810849e-01 6.785988e-01
    outer loop
      vertex -1.530730e+00 0.000000e+00 7.391040e+00
      vertex -2.613130e+00 -2.613130e+00 5.226250e+00
      vertex -1.082390e+00 -1.082390e+00 7.391040e+00
    endloop
  endfacet
  facet normal -2.810851e-01 -6.785982e-01 6.785982e-01
    outer loop
      vertex -1.082390e+00 -1.082390e+00 7.391040e+00
      vertex -2.613130e+00 -2.613130e+00 5.226250e+00
      vertex 0.000000e+00 -3.695520e+00 5.226250e+00
    endloop
  endfacet
  facet normal 2.810851e-01 -6.785982e-01 -6.785982e-01
    outer loop
      vertex 2.613130e+00 -2.613130e+00 2.164790e+00
      vertex 0.000000e+00 -3.695520e+00 2.164790e+00
      vertex 1.082390e+00 -1.082390e+00 0.000000e+00
    endloop
  endfacet
  facet normal 2.810851e-01 -6.785982e-01 -6.785982e-01
    outer loop
      vertex 1.082390e+00 -1.082390e+00 0.000000e+00
      vertex 0.000000e+00 -3.695520e+00 2.164790e+00
      vertex 0.000000e+00 -1.530730e+00 0.000000e+00
    endloop
  endfacet
  facet normal 3.826829e-01 -9.238797e-01 0.000000e+00
    outer loop
      vertex 0.000000e+00 -3.695520e+00 5.226250e+00
      vertex 0.000000e+00 -3.695520e+00 2.164790e+00
      vertex 2.613130e+00 -2.613130e+00 2.164790e+00
    endloop
  endfacet
  facet normal 3.826829e-01 -9.238797e-01 0.000000e+00
    outer loop
      vertex 2.613130e+00 -2.613130e+00 5.226250e+00
      vertex 0.000000e+00 -3.695520e+00 5.226250e+00
      vertex 2.613130e+00 -2.613130e+00 2.164790e+00
    endloop
  endfacet
  facet normal -2.810851e-01 -6.785982e-01 6.785982e-01
    outer loop
      vertex 0.000000e+00 -1.530730e+00 7.391040e+00
      vertex -1.082390e+00 -1.082390e+00 7.391040e+00
      vertex 0.000000e+00 -3.695520e+00 5.226250e+00
    endloop
  endfacet
  facet normal 2.810851e-01 -6.785982e-01 6.785982e-01
    outer loop
      vertex 0.000000e+00 -1.530730e+00 7.391040e+00
      vertex 0.000000e+00 -3.695520e+00 5.226250e+00
      vertex 2.613130e+00 -2.613130e+00 5.226250e+00
    endloop
  endfacet
  facet normal 6.785977e-01 -2.810849e-01 -6.785988e-01
    outer loop
      vertex 2.613130e+00 -2.613130e+00 2.164790e+00
      vertex 1.082390e+00 -1.082390e+00 0.000000e+00
      vertex 1.530730e+00 0.000000e+00 0.000000e+00
    endloop
  endfacet
  facet normal 6.785982e-01 -2.810851e-01 -6.785982e-01
    outer loop
      vertex 2.613130e+00 -2.613130e+00 2.164790e+00
      vertex 1.530730e+00 0.000000e+00 0.000000e+00
      vertex 3.695520e+00 0.000000e+00 2.164790e+00
    endloop
  endfacet
  facet normal 6.785982e-01 2.810851e-01 -6.785982e-01
    outer loop
      vertex 1.530730e+00 0.000000e+00 0.000000e+00
      vertex 1.082390e+00 1.082390e+00 0.000000e+00
      vertex 3.695520e+00 0.000000e+00 2.164790e+00
    endloop
  endfacet
  facet normal 6.785982e-01 2.810851e-01 -6.785982e-01
    outer loop
      vertex 3.695520e+00 0.000000e+00 2.164790e+00
      vertex 1.082390e+00 1.082390e+00 0.000000e+00
      vertex 2.613130e+00 2.613130e+00 2.164790e+00
    endloop
  endfacet
  facet normal 2.810849e-01 6.785977e-01 -6.785988e-01
    outer loop
      vertex 1.082390e+00 1.082390e+00 0.000000e+00
      vertex 0.000000e+00 1.530730e+00 0.000000e+00
      vertex 2.613130e+00 2.613130e+00 2.164790e+00
    endloop
  endfacet
  facet normal 2.810851e-01 6.785982e-01 -6.785982e-01
    outer loop
      vertex 2.613130e+00 2.613130e+00 2.164790e+00
      vertex 0.000000e+00 1.530730e+00 0.000000e+00
      vertex 0.000000e+00 3.695520e+00 2.164790e+00
    endloop
  endfacet
  facet normal -2.810851e-01 6.785982e-01 -6.785982e-01
    outer loop
      vertex 0.000000e+00 1.530730e+00 0.000000e+00
      vertex -1.082390e+00 1.082390e+00 0.000000e+00
      vertex 0.000000e+00 3.695520e+00 2.164790e+00
    endloop
  endfacet
  facet normal 3.826829e-01 9.238797e-01 0.000000e+00
    outer loop
      vertex 0.000000e+00 3.695520e+00 2.164790e+00
      vertex 0.000000e+00 3.695520e+00 5.226250e+00
      vertex 2.613130e+00 2.613130e+00 2.164790e+00
    endloop
  endfacet
  facet normal 3.826829e-01 9.238797e-01 0.000000e+00
    outer loop
      vertex 2.613130e+00 2.613130e+00 2.164790e+00
      vertex 0.000000e+00 3.695520e+00 5.226250e+00
      vertex 2.613130e+00 2.613130e+00 5.226250e+00
    endloop
  endfacet
  facet normal 2.810851e-01 6.785982e-01 6.785982e-01
    outer loop
      vertex 2.613130e+00 2.613130e+00 5.226250e+00
      vertex 0.000000e+00 3.695520e+00 5.226250e+00
      vertex 1.082390e+00 1.082390e+00 7.391040e+00
    endloop
  endfacet
  facet normal 2.810851e-01 6.785982e-01 6.785982e-01
    outer loop
      vertex 0.000000e+00 3.695520e+00 5.226250e+00
      vertex 0.000000e+00 1.530730e+00 7.391040e+00
      vertex 1.082390e+00 1.082390e+00 7.391040e+00
    endloop
  endfacet
  facet normal 0.000000e+00 0.000000e+00 1.000000e+00
    outer loop
      vertex -1.082390e+00 1.082390e+00 7.391040e+00
      vertex -1.530730e+00 0.000000e+00 7.391040e+00
      vertex -1.082390e+00 -1.082390e+00 7.391040e+00
    endloop
  endfacet
  facet normal 0.000000e+00 0.000000e+00 1.000000e+00
    outer loop
      vertex 1.082390e+00 -1.082390e+00 7.391040e+00
      vertex -1.082390e+00 1.082390e+00 7.391040e+00
      vertex 0.000000e+00 -1.530730e+00 7.391040e+00
    endloop
  endfacet
  facet normal 0.000000e+00 0.000000e+00 1.000000e+00
    outer loop
      vertex 0.000000e+00 -1.530730e+00 7.391040e+00
      vertex -1.082390e+00 1.082390e+00 7.391040e+00
      vertex -1.082390e+00 -1.082390e+00 7.391040e+00
    endloop
  endfacet
  facet normal 0.000000e+00 0.000000e+00 1.000000e+00
    outer loop
      vertex 1.530730e+00 0.000000e+00 7.391040e+00
      vertex -1.082390e+00 1.082390e+00 7.391040e+00
      vertex 1.082390e+00 -1.082390e+00 7.391040e+00
    endloop
  endfacet
  facet normal 0.000000e+00 0.000000e+00 1.000000e+00
    outer loop
      vertex 1.082390e+00 1.082390e+00 7.391040e+00
      vertex -1.082390e+00 1.082390e+00 7.391040e+00
      vertex 1.530730e+00 0.000000e+00 7.391040e+00
    endloop
  endfacet
  facet normal 0.000000e+00 0.000000e+00 1.000000e+00
    outer loop
      vertex 0.000000e+00 1.530730e+00 7.391040e+00
      vertex -1.082390e+00 1.082390e+00 7.391040e+00
      vertex 1.082390e+00 1.082390e+00 7.391040e+00
    endloop
  endfacet
  facet normal 9.238797e-01 -3.826829e-01 0.000000e+00
    outer loop
      vertex 2.613130e+00 -2.613130e+00 5.226250e+00
      vertex 2.613130e+00 -2.613130e+00 2.164790e+00
      vertex 3.695520e+00 0.000000e+00 2.164790e+00
    endloop
  endfacet
  facet normal 9.238797e-01 -3.826829e-01 0.000000e+00
    outer loop
      vertex 3.695520e+00 0.000000e+00 5.226250e+00
      vertex 2.613130e+00 -2.613130e+00 5.226250e+00
      vertex 3.695520e+00 0.000000e+00 2.164790e+00
    endloop
  endfacet
  facet normal 2.810849e-01 -6.785977e-01 6.785988e-01
    outer loop
      vertex 1.082390e+00 -1.082390e+00 7.391040e+00
      vertex 0.000000e+00 -1.530730e+00 7.391040e+00
      vertex 2.613130e+00 -2.613130e+00 5.226250e+00
    endloop
  endfacet
  facet normal 6.785982e-01 -2.810851e-01 6.785982e-01
    outer loop
      vertex 3.695520e+00 0.000000e+00 5.226250e+00
      vertex 1.082390e+00 -1.082390e+00 7.391040e+00
      vertex 2.613130e+00 -2.613130e+00 5.226250e+00
    endloop
  endfacet
  facet normal 9.238797e-01 3.826829e-01 0.000000e+00
    outer loop
      vertex 3.695520e+00 0.000000e+00 2.164790e+00
      vertex 2.613130e+00 2.613130e+00 2.164790e+00
      vertex 2.613130e+00 2.613130e+00 5.226250e+00
    endloop
  endfacet
  facet normal 9.238797e-01 3.826829e-01 0.000000e+00
    outer loop
      vertex 3.695520e+00 0.000000e+00 5.226250e+00
      vertex 3.695520e+00 0.000000e+00 2.164790e+00
      vertex 2.613130e+00 2.613130e+00 5.226250e+00
    endloop
  endfacet
  facet normal 6.785982e-01 2.810851e-01 6.785982e-01
    outer loop
      vertex 2.613130e+00 2.613130e+00 5.226250e+00
      vertex 1.530730e+00 0.000000e+00 7.391040e+00
      vertex 3.695520e+00 0.000000e+00 5.226250e+00
    endloop
  endfacet
  facet normal 6.785977e-01 2.810849e-01 6.785988e-01
    outer loop
      vertex 2.613130e+00 2.613130e+00 5.226250e+00
      vertex 1.082390e+00 1.082390e+00 7.391040e+00
      vertex 1.530730e+00 0.000000e+00 7.391040e+00
    endloop
  endfacet
  facet normal 6.785982e-01 -2.810851e-01 6.785982e-01
    outer loop
      vertex 1.530730e+00 0.000000e+00 7.391040e+00
      vertex 1.082390e+00 -1.082390e+00 7.391040e+00
      vertex 3.695520e+00 0.000000e+00 5.226250e+00
    endloop
  endfacet
  facet normal -6.785982e-01 -2.810851e-01 -6.785982e-01
    outer loop
      vertex -2.351810e+00 -2.351810e+00 2.317860e+00
      vertex -3.325970e+00 0.000000e+00 2.317860e+00
      vertex -9.741530e-01 -9.741530e-01 3.695500e-01
    endloop
  endfacet
  facet normal -6.785985e-01 -2.810842e-01 -6.785985e-01
    outer loop
      vertex -9.741530e-01 -9.741530e-01 3.695500e-01
      vertex -3.325970e+00 0.000000e+00 2.317860e+00
      vertex -1.377660e+00 0.000000e+00 3.695500e-01
    endloop
  endfacet
  facet normal -6.785982e-01 2.810851e-01 -6.785982e-01
    outer loop
      vertex -1.377660e+00 0.000000e+00 3.695500e-01
      vertex -3.325970e+00 0.000000e+00 2.317860e+00
      vertex -2.351810e+00 2.351810e+00 2.317860e+00
    endloop
  endfacet
  facet normal -9.238797e-01 3.826829e-01 0.000000e+00
    outer loop
      vertex -3.325970e+00 0.000000e+00 2.317860e+00
      vertex -3.325970e+00 0.000000e+00 5.073180e+00
      vertex -2.351810e+00 2.351810e+00 2.317860e+00
    endloop
  endfacet
  facet normal -9.238797e-01 3.826829e-01 0.000000e+00
    outer loop
      vertex -2.351810e+00 2.351810e+00 2.317860e+00
      vertex -3.325970e+00 0.000000e+00 5.073180e+00
      vertex -2.351810e+00 2.351810e+00 5.073180e+00
    endloop
  endfacet
  facet normal -9.238797e-01 -3.826829e-01 -0.000000e+00
    outer loop
      vertex -3.325970e+00 0.000000e+00 2.317860e+00
      vertex -2.351810e+00 -2.351810e+00 2.317860e+00
      vertex -3.325970e+00 0.000000e+00 5.073180e+00
    endloop
  endfacet
  facet normal -9.238797e-01 -3.826829e-01 0.000000e+00
    outer loop
      vertex -3.325970e+00 0.000000e+00 5.073180e+00
      vertex -2.351810e+00 -2.351810e+00 2.317860e+00
      vertex -2.351810e+00 -2.351810e+00 5.073180e+00
    endloop
  endfacet
  facet normal -2.810851e-01 -6.785982e-01 -6.785982e-01
    outer loop
      vertex 0.000000e+00 -3.325970e+00 2.317860e+00
      vertex -2.351810e+00 -2.351810e+00 2.317860e+00
      vertex 0.000000e+00 -1.377660e+00 3.695500e-01
    endloop
  endfacet
  facet normal -2.810840e-01 -6.785990e-01 -6.785980e-01
    outer loop
      vertex 0.000000e+00 -1.377660e+00 3.695500e-01
      vertex -2.351810e+00 -2.351810e+00 2.317860e+00
      vertex -9.741530e-01 -9.741530e-01 3.695500e-01
    endloop
  endfacet
  facet normal -3.826829e-01 -9.238797e-01 0.000000e+00
    outer loop
      vertex -2.351810e+00 -2.351810e+00 5.073180e+00
      vertex -2.351810e+00 -2.351810e+00 2.317860e+00
      vertex 0.000000e+00 -3.325970e+00 2.317860e+00
    endloop
  endfacet
  facet normal -3.826829e-01 -9.238797e-01 0.000000e+00
    outer loop
      vertex 0.000000e+00 -3.325970e+00 5.073180e+00
      vertex -2.351810e+00 -2.351810e+00 5.073180e+00
      vertex 0.000000e+00 -3.325970e+00 2.317860e+00
    endloop
  endfacet
  facet normal 0.000000e+00 0.000000e+00 -1.000000e+00
    outer loop
      vertex -1.377660e+00 0.000000e+00 3.695500e-01
      vertex -9.741530e-01 9.741530e-01 3.695500e-01
      vertex -9.741530e-01 -9.741530e-01 3.695500e-01
    endloop
  endfacet
  facet normal 0.000000e+00 0.000000e+00 -1.000000e+00
    outer loop
      vertex -9.741530e-01 -9.741530e-01 3.695500e-01
      vertex -9.741530e-01 9.741530e-01 3.695500e-01
      vertex 0.000000e+00 1.377660e+00 3.695500e-01
    endloop
  endfacet
  facet normal 0.000000e+00 0.000000e+00 -1.000000e+00
    outer loop
      vertex -9.741530e-01 -9.741530e-01 3.695500e-01
      vertex 0.000000e+00 1.377660e+00 3.695500e-01
      vertex 9.741530e-01 9.741530e-01 3.695500e-01
    endloop
  endfacet
  facet normal 0.000000e+00 0.000000e+00 -1.000000e+00
    outer loop
      vertex -9.741530e-01 -9.741530e-01 3.695500e-01
      vertex 9.741530e-01 9.741530e-01 3.695500e-01
      vertex 1.377660e+00 0.000000e+00 3.695500e-01
    endloop
  endfacet
  facet normal 0.000000e+00 0.000000e+00 -1.000000e+00
    outer loop
      vertex -9.741530e-01 -9.741530e-01 3.695500e-01
      vertex 1.377660e+00 0.000000e+00 3.695500e-01
      vertex 9.741530e-01 -9.741530e-01 3.695500e-01
    endloop
  endfacet
  facet normal 0.000000e+00 0.000000e+00 -1.000000e+00
    outer loop
      vertex -9.741530e-01 -9.741530e-01 3.695500e-01
      vertex 9.741530e-01 -9.741530e-01 3.695500e-01
      vertex 0.000000e+00 -1.377660e+00 3.695500e-01
    endloop
  endfacet
  facet normal -6.785990e-01 2.810840e-01 -6.785980e-01
    outer loop
      vertex -1.377660e+00 0.000000e+00 3.695500e-01
      vertex -2.351810e+00 2.351810e+00 2.317860e+00
      vertex -9.741530e-01 9.741530e-01 3.695500e-01
    endloop
  endfacet
  facet normal -2.810851e-01 6.785982e-01 -6.785982e-01
    outer loop
      vertex -9.741530e-01 9.741530e-01 3.695500e-01
      vertex -2.351810e+00 2.351810e+00 2.317860e+00
      vertex 0.000000e+00 3.325970e+00 2.317860e+00
    endloop
  endfacet
  facet normal -3.826829e-01 9.238797e-01 0.000000e+00
    outer loop
      vertex -2.351810e+00 2.351810e+00 2.317860e+00
      vertex -2.351810e+00 2.351810e+00 5.073180e+00
      vertex 0.000000e+00 3.325970e+00 2.317860e+00
    endloop
  endfacet
  facet normal -3.826829e-01 9.238797e-01 0.000000e+00
    outer loop
      vertex 0.000000e+00 3.325970e+00 2.317860e+00
      vertex -2.351810e+00 2.351810e+00 5.073180e+00
      vertex 0.000000e+00 3.325970e+00 5.073180e+00
    endloop
  endfacet
  facet normal -2.810851e-01 6.785982e-01 6.785982e-01
    outer loop
      vertex 0.000000e+00 3.325970e+00 5.073180e+00
      vertex -2.351810e+00 2.351810e+00 5.073180e+00
      vertex 0.000000e+00 1.377660e+00 7.021490e+00
    endloop
  endfacet
  facet normal -2.810840e-01 6.785990e-01 6.785980e-01
    outer loop
      vertex 0.000000e+00 1.377660e+00 7.021490e+00
      vertex -2.351810e+00 2.351810e+00 5.073180e+00
      vertex -9.741530e-01 9.741530e-01 7.021490e+00
    endloop
  endfacet
  facet normal -6.785982e-01 2.810851e-01 6.785982e-01
    outer loop
      vertex -2.351810e+00 2.351810e+00 5.073180e+00
      vertex -3.325970e+00 0.000000e+00 5.073180e+00
      vertex -9.741530e-01 9.741530e-01 7.021490e+00
    endloop
  endfacet
  facet normal -6.785985e-01 2.810842e-01 6.785985e-01
    outer loop
      vertex -9.741530e-01 9.741530e-01 7.021490e+00
      vertex -3.325970e+00 0.000000e+00 5.073180e+00
      vertex -1.377660e+00 0.000000e+00 7.021490e+00
    endloop
  endfacet
  facet normal -6.785982e-01 -2.810851e-01 6.785982e-01
    outer loop
      vertex -1.377660e+00 0.000000e+00 7.021490e+00
      vertex -3.325970e+00 0.000000e+00 5.073180e+00
      vertex -2.351810e+00 -2.351810e+00 5.073180e+00
    endloop
  endfacet
  facet normal -6.785990e-01 -2.810840e-01 6.785980e-01
    outer loop
      vertex -1.377660e+00 0.000000e+00 7.021490e+00
      vertex -2.351810e+00 -2.351810e+00 5.073180e+00
      vertex -9.741530e-01 -9.741530e-01 7.021490e+00
    endloop
  endfacet
  facet normal -2.810851e-01 -6.785982e-01 6.785982e-01
    outer loop
      vertex -9.741530e-01 -9.741530e-01 7.021490e+00
      vertex -2.351810e+00 -2.351810e+00 5.073180e+00
      vertex 0.000000e+00 -3.325970e+00 5.073180e+00
    endloop
  endfacet
  facet normal 2.810851e-01 -6.785982e-01 -6.785982e-01
    outer loop
      vertex 2.351810e+00 -2.351810e+00 2.317860e+00
      vertex 0.000000e+00 -3.325970e+00 2.317860e+00
      vertex 9.741530e-01 -9.741530e-01 3.695500e-01
    endloop
  endfacet
  facet normal 2.810842e-01 -6.785985e-01 -6.785985e-01
    outer loop
      vertex 9.741530e-01 -9.741530e-01 3.695500e-01
      vertex 0.000000e+00 -3.325970e+00 2.317860e+00
      vertex 0.000000e+00 -1.377660e+00 3.695500e-01
    endloop
  endfacet
  facet normal 3.826829e-01 -9.238797e-01 0.000000e+00
    outer loop
      vertex 0.000000e+00 -3.325970e+00 5.073180e+00
      vertex 0.000000e+00 -3.325970e+00 2.317860e+00
      vertex 2.351810e+00 -2.351810e+00 2.317860e+00
    endloop
  endfacet
  facet normal 3.826829e-01 -9.238797e-01 0.000000e+00
    outer loop
      vertex 2.351810e+00 -2.351810e+00 5.073180e+00
      vertex 0.000000e+00 -3.325970e+00 5.073180e+00
      vertex 2.351810e+00 -2.351810e+00 2.317860e+00
    endloop
  endfacet
  facet normal -2.810842e-01 -6.785985e-01 6.785985e-01
    outer loop
      vertex 0.000000e+00 -1.377660e+00 7.021490e+00
      vertex -9.741530e-01 -9.741530e-01 7.021490e+00
      vertex 0.000000e+00 -3.325970e+00 5.073180e+00
    endloop
  endfacet
  facet normal 2.810851e-01 -6.785982e-01 6.785982e-01
    outer loop
      vertex 0.000000e+00 -1.377660e+00 7.021490e+00
      vertex 0.000000e+00 -3.325970e+00 5.073180e+00
      vertex 2.351810e+00 -2.351810e+00 5.073180e+00
    endloop
  endfacet
  facet normal 6.785990e-01 -2.810840e-01 -6.785980e-01
    outer loop
      vertex 2.351810e+00 -2.351810e+00 2.317860e+00
      vertex 9.741530e-01 -9.741530e-01 3.695500e-01
      vertex 1.377660e+00 0.000000e+00 3.695500e-01
    endloop
  endfacet
  facet normal 6.785982e-01 -2.810851e-01 -6.785982e-01
    outer loop
      vertex 2.351810e+00 -2.351810e+00 2.317860e+00
      vertex 1.377660e+00 0.000000e+00 3.695500e-01
      vertex 3.325970e+00 0.000000e+00 2.317860e+00
    endloop
  endfacet
  facet normal 6.785985e-01 2.810842e-01 -6.785985e-01
    outer loop
      vertex 1.377660e+00 0.000000e+00 3.695500e-01
      vertex 9.741530e-01 9.741530e-01 3.695500e-01
      vertex 3.325970e+00 0.000000e+00 2.317860e+00
    endloop
  endfacet
  facet normal 6.785982e-01 2.810851e-01 -6.785982e-01
    outer loop
      vertex 3.325970e+00 0.000000e+00 2.317860e+00
      vertex 9.741530e-01 9.741530e-01 3.695500e-01
      vertex 2.351810e+00 2.351810e+00 2.317860e+00
    endloop
  endfacet
  facet normal 2.810840e-01 6.785990e-01 -6.785980e-01
    outer loop
      vertex 9.741530e-01 9.741530e-01 3.695500e-01
      vertex 0.000000e+00 1.377660e+00 3.695500e-01
      vertex 2.351810e+00 2.351810e+00 2.317860e+00
    endloop
  endfacet
  facet normal 2.810851e-01 6.785982e-01 -6.785982e-01
    outer loop
      vertex 2.351810e+00 2.351810e+00 2.317860e+00
      vertex 0.000000e+00 1.377660e+00 3.695500e-01
      vertex 0.000000e+00 3.325970e+00 2.317860e+00
    endloop
  endfacet
  facet normal -2.810842e-01 6.785985e-01 -6.785985e-01
    outer loop
      vertex 0.000000e+00 1.377660e+00 3.695500e-01
      vertex -9.741530e-01 9.741530e-01 3.695500e-01
      vertex 0.000000e+00 3.325970e+00 2.317860e+00
    endloop
  endfacet
  facet normal 3.826829e-01 9.238797e-01 0.000000e+00
    outer loop
      vertex 0.000000e+00 3.325970e+00 2.317860e+00
      vertex 0.000000e+00 3.325970e+00 5.073180e+00
      vertex 2.351810e+00 2.351810e+00 2.317860e+00
    endloop
  endfacet
  facet normal 3.826829e-01 9.238797e-01 0.000000e+00
    outer loop
      vertex 2.351810e+00 2.351810e+00 2.317860e+00
      vertex 0.000000e+00 3.325970e+00 5.073180e+00
      vertex 2.351810e+00 2.351810e+00 5.073180e+00
    endloop
  endfacet
  facet normal 2.810851e-01 6.785982e-01 6.785982e-01
    outer loop
      vertex 2.351810e+00 2.351810e+00 5.073180e+00
      vertex 0.000000e+00 3.325970e+00 5.073180e+00
      vertex 9.741530e-01 9.741530e-01 7.021490e+00
    endloop
  endfacet
  facet normal 2.810842e-01 6.785985e-01 6.785985e-01
    outer loop
      vertex 0.000000e+00 3.325970e+00 5.073180e+00
      vertex 0.000000e+00 1.377660e+00 7.021490e+00
      vertex 9.741530e-01 9.741530e-01 7.021490e+00
    endloop
  endfacet
  facet normal 0.000000e+00 0.000000e+00 1.000000e+00
    outer loop
      vertex -9.741530e-01 9.741530e-01 7.021490e+00
      vertex -1.377660e+00 0.000000e+00 7.021490e+00
      vertex -9.741530e-01 -9.741530e-01 7.021490e+00
    endloop
  endfacet
  facet normal 0.000000e+00 0.000000e+00 1.000000e+00
    outer loop
      vertex 9.741530e-01 -9.741530e-01 7.021490e+00
      vertex -9.741530e-01 9.741530e-01 7.021490e+00
      vertex 0.000000e+00 -1.377660e+00 7.021490e+00
    endloop
  endfacet
  facet normal 0.000000e+00 0.000000e+00 1.000000e+00
    outer loop
      vertex 0.000000e+00 -1.377660e+00 7.021490e+00
      vertex -9.741530e-01 9.741530e-01 7.021490e+00
      vertex -9.741530e-01 -9.741530e-01 7.021490e+00
    endloop
  endfacet
  facet normal 0.000000e+00 0.000000e+00 1.000000e+00
    outer loop
      vertex 1.377660e+00 0.000000e+00 7.021490e+00
      vertex -9.741530e-01 9.741530e-01 7.021490e+00
      vertex 9.741530e-01 -9.741530e-01 7.021490e+00
    endloop
  endfacet
  facet normal 0.000000e+00 0.000000e+00 1.000000e+00
    outer loop
      vertex 9.741530e-01 9.741530e-01 7.021490e+00
      vertex -9.741530e-01 9.741530e-01 7.021490e+00
      vertex 1.377660e+00 0.000000e+00 7.021490e+00
    endloop
  endfacet
  facet normal 0.000000e+00 0.000000e+00 1.000000e+00
    outer loop
      vertex 0.000000e+00 1.377660e+00 7.021490e+00
      vertex -9.741530e-01 9.741530e-01 7.021490e+00
      vertex 9.741530e-01 9.741530e-01 7.021490e+00
    endloop
  endfacet
  facet normal 9.238797e-01 -3.826829e-01 0.000000e+00
    outer loop
      vertex 2.351810e+00 -2.351810e+00 5.073180e+00
      vertex 2.351810e+00 -2.351810e+00 2.317860e+00
      vertex 3.325970e+00 0.000000e+00 2.317860e+00
    endloop
  endfacet
  facet normal 9.238797e-01 -3.826829e-01 0.000000e+00
    outer loop
      vertex 3.325970e+00 0.000000e+00 5.073180e+00
      vertex 2.351810e+00 -2.351810e+00 5.073180e+00
      vertex 3.325970e+00 0.000000e+00 2.317860e+00
    endloop
  endfacet
  facet normal 2.810840e-01 -6.785990e-01 6.785980e-01
    outer loop
      vertex 9.741530e-01 -9.741530e-01 7.021490e+00
      vertex 0.000000e+00 -1.377660e+00 7.021490e+00
      vertex 2.351810e+00 -2.351810e+00 5.073180e+00
    endloop
  endfacet
  facet normal 6.785982e-01 -2.810851e-01 6.785982e-01
    outer loop
      vertex 3.325970e+00 0.000000e+00 5.073180e+00
      vertex 9.741530e-01 -9.741530e-01 7.021490e+00
      vertex 2.351810e+00 -2.351810e+00 5.073180e+00
    endloop
  endfacet
  facet normal 9.238797e-01 3.826829e-01 0.000000e+00
    outer loop
      vertex 3.325970e+00 0.000000e+00 2.317860e+00
      vertex 2.351810e+00 2.351810e+00 2.317860e+00
      vertex 2.351810e+00 2.351810e+00 5.073180e+00
    endloop
  endfacet
  facet normal 9.238797e-01 3.826829e-01 0.000000e+00
    outer loop
      vertex 3.325970e+00 0.000000e+00 5.073180e+00
      vertex 3.325970e+00 0.000000e+00 2.317860e+00
      vertex 2.351810e+00 2.351810e+00 5.073180e+00
    endloop
  endfacet
  facet normal 6.785982e-01 2.810851e-01 6.785982e-01
    outer loop
      vertex 2.351810e+00 2.351810e+00 5.073180e+00
      vertex 1.377660e+00 0.000000e+00 7.021490e+00
      vertex 3.325970e+00 0.000000e+00 5.073180e+00
    endloop
  endfacet
  facet normal 6.785990e-01 2.810840e-01 6.785980e-01
    outer loop
      vertex 2.351810e+00 2.351810e+00 5.073180e+00
      vertex 9.741530e-01 9.741530e-01 7.021490e+00
      vertex 1.377660e+00 0.000000e+00 7.021490e+00
    endloop
  endfacet
  facet normal 6.785985e-01 -2.810842e-01 6.785985e-01
    outer loop
      vertex 1.377660e+00 0.000000e+00 7.021490e+00
      vertex 9.741530e-01 -9.741530e-01 7.021490e+00
      vertex 3.325970e+00 0.000000e+00 5.073180e+00
    endloop
  endfacet
endsolid Default
