solid OpenSCAD_Model
  facet normal -0 0 -1
    outer loop
      vertex -37.5 0 -2.5
      vertex -37.2815 2.07912 -2.5
      vertex -37.2815 -2.07912 -2.5
    endloop
  endfacet
  facet normal 0 -0 -1
    outer loop
      vertex -37.2815 -2.07912 -2.5
      vertex -37.2815 2.07912 -2.5
      vertex -36.6355 4.06737 -2.5
    endloop
  endfacet
  facet normal 0 0 -1
    outer loop
      vertex -37.2815 -2.07912 -2.5
      vertex -36.6355 4.06737 -2.5
      vertex -35.5902 5.87785 -2.5
    endloop
  endfacet
  facet normal 0 0 -1
    outer loop
      vertex -37.2815 -2.07912 -2.5
      vertex -35.5902 5.87785 -2.5
      vertex -34.1913 7.43145 -2.5
    endloop
  endfacet
  facet normal 0 0 -1
    outer loop
      vertex -37.2815 -2.07912 -2.5
      vertex -34.1913 7.43145 -2.5
      vertex -32.5 8.66025 -2.5
    endloop
  endfacet
  facet normal 0 0 -1
    outer loop
      vertex -37.2815 -2.07912 -2.5
      vertex -32.5 8.66025 -2.5
      vertex -30.5902 9.51056 -2.5
    endloop
  endfacet
  facet normal 0 0 -1
    outer loop
      vertex -37.2815 -2.07912 -2.5
      vertex -30.5902 9.51056 -2.5
      vertex -30.4744 9.53518 -2.5
    endloop
  endfacet
  facet normal 0 0 -1
    outer loop
      vertex -37.2815 -2.07912 -2.5
      vertex -30.4744 9.53518 -2.5
      vertex -31.8005 1.24703 -2.5
    endloop
  endfacet
  facet normal 0 0 -1
    outer loop
      vertex -37.2815 -2.07912 -2.5
      vertex -31.8005 1.24703 -2.5
      vertex -31.9017 0.935603 -2.5
    endloop
  endfacet
  facet normal 0 0 -1
    outer loop
      vertex -37.2815 -2.07912 -2.5
      vertex -31.9017 0.935603 -2.5
      vertex -32 0 -2.5
    endloop
  endfacet
  facet normal 0 0 -1
    outer loop
      vertex -32 0 -2.5
      vertex -31.9017 -0.935603 -2.5
      vertex -37.2815 -2.07912 -2.5
    endloop
  endfacet
  facet normal 0 0 -1
    outer loop
      vertex -31.9017 -0.935603 -2.5
      vertex -31.611 -1.83031 -2.5
      vertex -37.2815 -2.07912 -2.5
    endloop
  endfacet
  facet normal 0 0 -1
    outer loop
      vertex -31.611 -1.83031 -2.5
      vertex -31.1406 -2.64503 -2.5
      vertex -37.2815 -2.07912 -2.5
    endloop
  endfacet
  facet normal 0 0 -1
    outer loop
      vertex -31.1406 -2.64503 -2.5
      vertex -30.5111 -3.34415 -2.5
      vertex -37.2815 -2.07912 -2.5
    endloop
  endfacet
  facet normal 0 0 -1
    outer loop
      vertex -30.5111 -3.34415 -2.5
      vertex -29.75 -3.89711 -2.5
      vertex -37.2815 -2.07912 -2.5
    endloop
  endfacet
  facet normal 0 0 -1
    outer loop
      vertex -29.75 -3.89711 -2.5
      vertex -28.8906 -4.27975 -2.5
      vertex -37.2815 -2.07912 -2.5
    endloop
  endfacet
  facet normal 0 0 -1
    outer loop
      vertex -17.5 -7 -2.5
      vertex -23.0983 -0.935603 -2.5
      vertex -23 0 -2.5
    endloop
  endfacet
  facet normal 0 0 -1
    outer loop
      vertex -17.5 -7 -2.5
      vertex -23.389 -1.83031 -2.5
      vertex -23.0983 -0.935603 -2.5
    endloop
  endfacet
  facet normal 0 0 -1
    outer loop
      vertex -17.5 -7 -2.5
      vertex -23.8594 -2.64503 -2.5
      vertex -23.389 -1.83031 -2.5
    endloop
  endfacet
  facet normal 0 0 -1
    outer loop
      vertex -17.5 -7 -2.5
      vertex -24.4889 -3.34415 -2.5
      vertex -23.8594 -2.64503 -2.5
    endloop
  endfacet
  facet normal 0 0 -1
    outer loop
      vertex -17.5 -7 -2.5
      vertex -25.25 -3.89711 -2.5
      vertex -24.4889 -3.34415 -2.5
    endloop
  endfacet
  facet normal 0 0 -1
    outer loop
      vertex -17.5 -7 -2.5
      vertex -26.1094 -4.27975 -2.5
      vertex -25.25 -3.89711 -2.5
    endloop
  endfacet
  facet normal 0 0 -1
    outer loop
      vertex -23.0983 0.935603 -2.5
      vertex -23.1995 1.24703 -2.5
      vertex -24.6 10 -2.5
    endloop
  endfacet
  facet normal 0 -0 -1
    outer loop
      vertex -18.5 7 -2.5
      vertex -24.6 10 -2.5
      vertex 24.4 10 -2.5
    endloop
  endfacet
  facet normal 0 0 -1
    outer loop
      vertex -17.5 -7 -2.5
      vertex -27.0296 -4.47535 -2.5
      vertex -26.1094 -4.27975 -2.5
    endloop
  endfacet
  facet normal -0 0 -1
    outer loop
      vertex 18.5 7 -2.5
      vertex 24.4 10 -2.5
      vertex 23.1557 1.11216 -2.5
    endloop
  endfacet
  facet normal 0 0 -1
    outer loop
      vertex 23.389 -1.83031 -2.5
      vertex 23.8594 -2.64503 -2.5
      vertex 17.5 -7 -2.5
    endloop
  endfacet
  facet normal 0 0 -1
    outer loop
      vertex 18.5 7 -2.5
      vertex 23.389 -1.83031 -2.5
      vertex 17.5 -7 -2.5
    endloop
  endfacet
  facet normal 0 0 -1
    outer loop
      vertex 31.9017 0.935603 -2.5
      vertex 31.8443 1.11216 -2.5
      vertex 30.6737 9.47336 -2.5
    endloop
  endfacet
  facet normal 0 -0 -1
    outer loop
      vertex 31.9017 0.935603 -2.5
      vertex 30.6737 9.47336 -2.5
      vertex 32.5 8.66025 -2.5
    endloop
  endfacet
  facet normal -0 0 -1
    outer loop
      vertex 31.9017 0.935603 -2.5
      vertex 32.5 8.66025 -2.5
      vertex 32 0 -2.5
    endloop
  endfacet
  facet normal 0 0 -1
    outer loop
      vertex 32 0 -2.5
      vertex 32.5 8.66025 -2.5
      vertex 34.1913 7.43145 -2.5
    endloop
  endfacet
  facet normal -0 0 -1
    outer loop
      vertex 32 0 -2.5
      vertex 34.1913 7.43145 -2.5
      vertex 31.9017 -0.935603 -2.5
    endloop
  endfacet
  facet normal 0 0 -1
    outer loop
      vertex 31.9017 -0.935603 -2.5
      vertex 34.1913 7.43145 -2.5
      vertex 35.5902 5.87785 -2.5
    endloop
  endfacet
  facet normal -0 0 -1
    outer loop
      vertex 31.9017 -0.935603 -2.5
      vertex 35.5902 5.87785 -2.5
      vertex 31.611 -1.83031 -2.5
    endloop
  endfacet
  facet normal 0 0 -1
    outer loop
      vertex 31.611 -1.83031 -2.5
      vertex 35.5902 5.87785 -2.5
      vertex 36.6355 4.06737 -2.5
    endloop
  endfacet
  facet normal -0 0 -1
    outer loop
      vertex 31.611 -1.83031 -2.5
      vertex 36.6355 4.06737 -2.5
      vertex 31.1406 -2.64503 -2.5
    endloop
  endfacet
  facet normal 0 0 -1
    outer loop
      vertex 31.1406 -2.64503 -2.5
      vertex 36.6355 4.06737 -2.5
      vertex 37.2815 2.07912 -2.5
    endloop
  endfacet
  facet normal -0 0 -1
    outer loop
      vertex 31.1406 -2.64503 -2.5
      vertex 37.2815 2.07912 -2.5
      vertex 30.5111 -3.34415 -2.5
    endloop
  endfacet
  facet normal 0 0 -1
    outer loop
      vertex 30.5111 -3.34415 -2.5
      vertex 37.2815 2.07912 -2.5
      vertex 37.5 0 -2.5
    endloop
  endfacet
  facet normal -0 0 -1
    outer loop
      vertex 30.5111 -3.34415 -2.5
      vertex 37.5 0 -2.5
      vertex 29.75 -3.89711 -2.5
    endloop
  endfacet
  facet normal 0 0 -1
    outer loop
      vertex 29.75 -3.89711 -2.5
      vertex 37.5 0 -2.5
      vertex 37.2815 -2.07912 -2.5
    endloop
  endfacet
  facet normal -0 0 -1
    outer loop
      vertex 29.75 -3.89711 -2.5
      vertex 37.2815 -2.07912 -2.5
      vertex 28.8906 -4.27975 -2.5
    endloop
  endfacet
  facet normal 0 0 -1
    outer loop
      vertex 28.8906 -4.27975 -2.5
      vertex 37.2815 -2.07912 -2.5
      vertex 36.6355 -4.06737 -2.5
    endloop
  endfacet
  facet normal -0 0 -1
    outer loop
      vertex 28.8906 -4.27975 -2.5
      vertex 36.6355 -4.06737 -2.5
      vertex 27.9704 -4.47535 -2.5
    endloop
  endfacet
  facet normal -0 0 -1
    outer loop
      vertex 27.9704 -4.47535 -2.5
      vertex 36.6355 -4.06737 -2.5
      vertex 35.5902 -5.87785 -2.5
    endloop
  endfacet
  facet normal 0 0 -1
    outer loop
      vertex 27.9704 -4.47535 -2.5
      vertex 35.5902 -5.87785 -2.5
      vertex 27.0296 -4.47535 -2.5
    endloop
  endfacet
  facet normal 0 0 -1
    outer loop
      vertex 23.8594 -2.64503 -2.5
      vertex 24.4889 -3.34415 -2.5
      vertex 17.5 -7 -2.5
    endloop
  endfacet
  facet normal 0 0 -1
    outer loop
      vertex 17.5 -7 -2.5
      vertex 34.1913 -7.43145 -2.5
      vertex 32.5 -8.66025 -2.5
    endloop
  endfacet
  facet normal 0 0 -1
    outer loop
      vertex 26.1094 -4.27975 -2.5
      vertex 34.1913 -7.43145 -2.5
      vertex 17.5 -7 -2.5
    endloop
  endfacet
  facet normal 0 0 -1
    outer loop
      vertex 18.5 7 -2.5
      vertex 23.0983 -0.935603 -2.5
      vertex 23.389 -1.83031 -2.5
    endloop
  endfacet
  facet normal 0 0 -1
    outer loop
      vertex 18.5 7 -2.5
      vertex 23 0 -2.5
      vertex 23.0983 -0.935603 -2.5
    endloop
  endfacet
  facet normal 0 0 -1
    outer loop
      vertex 18.5 7 -2.5
      vertex 23.0983 0.935603 -2.5
      vertex 23 0 -2.5
    endloop
  endfacet
  facet normal 0 0 -1
    outer loop
      vertex -27.5 -9.94522 -2.5
      vertex 27.5 -10 -2.5
      vertex -27.5 -10 -2.5
    endloop
  endfacet
  facet normal 0 0 -1
    outer loop
      vertex -17.5 -7 -2.5
      vertex 27.5 -10 -2.5
      vertex -27.5 -9.94522 -2.5
    endloop
  endfacet
  facet normal -0 0 -1
    outer loop
      vertex -18.5 7 -2.5
      vertex 24.4 10 -2.5
      vertex 18.5 7 -2.5
    endloop
  endfacet
  facet normal 0 0 -1
    outer loop
      vertex -37.2815 -2.07912 -2.5
      vertex -28.5453 -9.94522 -2.5
      vertex -30.5902 -9.51056 -2.5
    endloop
  endfacet
  facet normal 0 0 -1
    outer loop
      vertex -37.2815 -2.07912 -2.5
      vertex -30.5902 -9.51056 -2.5
      vertex -32.5 -8.66025 -2.5
    endloop
  endfacet
  facet normal 0 0 -1
    outer loop
      vertex -37.2815 -2.07912 -2.5
      vertex -32.5 -8.66025 -2.5
      vertex -34.1913 -7.43145 -2.5
    endloop
  endfacet
  facet normal 0 0 -1
    outer loop
      vertex -37.2815 -2.07912 -2.5
      vertex -34.1913 -7.43145 -2.5
      vertex -35.5902 -5.87785 -2.5
    endloop
  endfacet
  facet normal 0 0 -1
    outer loop
      vertex -37.2815 -2.07912 -2.5
      vertex -35.5902 -5.87785 -2.5
      vertex -36.6355 -4.06737 -2.5
    endloop
  endfacet
  facet normal 0 -0 -1
    outer loop
      vertex -23.0983 0.935603 -2.5
      vertex -24.6 10 -2.5
      vertex -18.5 7 -2.5
    endloop
  endfacet
  facet normal 0 0 -1
    outer loop
      vertex -17.5 -7 -2.5
      vertex -27.9704 -4.47535 -2.5
      vertex -27.0296 -4.47535 -2.5
    endloop
  endfacet
  facet normal 0 0 -1
    outer loop
      vertex 18.5 7 -2.5
      vertex 23.1557 1.11216 -2.5
      vertex 23.0983 0.935603 -2.5
    endloop
  endfacet
  facet normal 0 0 -1
    outer loop
      vertex -27.9704 -4.47535 -2.5
      vertex -17.5 -7 -2.5
      vertex -27.5 -9.94522 -2.5
    endloop
  endfacet
  facet normal 0 0 -1
    outer loop
      vertex 24.4889 -3.34415 -2.5
      vertex 25.25 -3.89711 -2.5
      vertex 17.5 -7 -2.5
    endloop
  endfacet
  facet normal 0 0 -1
    outer loop
      vertex 25.25 -3.89711 -2.5
      vertex 26.1094 -4.27975 -2.5
      vertex 17.5 -7 -2.5
    endloop
  endfacet
  facet normal 0 0 -1
    outer loop
      vertex -17.5 -7 -2.5
      vertex -23 0 -2.5
      vertex -23.0983 0.935603 -2.5
    endloop
  endfacet
  facet normal 0 0 -1
    outer loop
      vertex -28.5453 -9.94522 -2.5
      vertex -37.2815 -2.07912 -2.5
      vertex -28.8906 -4.27975 -2.5
    endloop
  endfacet
  facet normal 0 -0 -1
    outer loop
      vertex -28.5453 -9.94522 -2.5
      vertex -28.8906 -4.27975 -2.5
      vertex -27.9704 -4.47535 -2.5
    endloop
  endfacet
  facet normal -0 0 -1
    outer loop
      vertex -28.5453 -9.94522 -2.5
      vertex -27.9704 -4.47535 -2.5
      vertex -27.5 -9.94522 -2.5
    endloop
  endfacet
  facet normal 0 0 -1
    outer loop
      vertex -17.5 -7 -2.5
      vertex -23.0983 0.935603 -2.5
      vertex -18.5 7 -2.5
    endloop
  endfacet
  facet normal 0 0 -1
    outer loop
      vertex 27.0296 -4.47535 -2.5
      vertex 35.5902 -5.87785 -2.5
      vertex 34.1913 -7.43145 -2.5
    endloop
  endfacet
  facet normal 0 0 -1
    outer loop
      vertex 26.1094 -4.27975 -2.5
      vertex 27.0296 -4.47535 -2.5
      vertex 34.1913 -7.43145 -2.5
    endloop
  endfacet
  facet normal 0 0 -1
    outer loop
      vertex 17.5 -7 -2.5
      vertex 32.5 -8.66025 -2.5
      vertex 30.5902 -9.51056 -2.5
    endloop
  endfacet
  facet normal 0 0 -1
    outer loop
      vertex 17.5 -7 -2.5
      vertex 30.5902 -9.51056 -2.5
      vertex 28.5453 -9.94522 -2.5
    endloop
  endfacet
  facet normal 0 0 -1
    outer loop
      vertex 17.5 -7 -2.5
      vertex 28.5453 -9.94522 -2.5
      vertex 27.5 -9.94522 -2.5
    endloop
  endfacet
  facet normal 0 0 -1
    outer loop
      vertex 17.5 -7 -2.5
      vertex 27.5 -9.94522 -2.5
      vertex 27.5 -10 -2.5
    endloop
  endfacet
  facet normal 0 0 -1
    outer loop
      vertex 17.5 -7 -2.5
      vertex 27.5 -10 -2.5
      vertex -17.5 -7 -2.5
    endloop
  endfacet
  facet normal -0.994522 0.104528 0
    outer loop
      vertex -37.5 0 -2.5
      vertex -37.5 0 2.5
      vertex -37.2815 2.07912 -2.5
    endloop
  endfacet
  facet normal -0.994522 0.104528 0
    outer loop
      vertex -37.2815 2.07912 -2.5
      vertex -37.5 0 2.5
      vertex -37.2815 2.07912 2.5
    endloop
  endfacet
  facet normal -0.994522 -0.104528 -0
    outer loop
      vertex -37.5 0 -2.5
      vertex -37.2815 -2.07912 -2.5
      vertex -37.5 0 2.5
    endloop
  endfacet
  facet normal -0.994522 -0.104528 0
    outer loop
      vertex -37.5 0 2.5
      vertex -37.2815 -2.07912 -2.5
      vertex -37.2815 -2.07912 2.5
    endloop
  endfacet
  facet normal -0.951057 -0.309017 -0
    outer loop
      vertex -37.2815 -2.07912 -2.5
      vertex -36.6355 -4.06737 -2.5
      vertex -37.2815 -2.07912 2.5
    endloop
  endfacet
  facet normal -0.951057 -0.309017 0
    outer loop
      vertex -37.2815 -2.07912 2.5
      vertex -36.6355 -4.06737 -2.5
      vertex -36.6355 -4.06737 2.5
    endloop
  endfacet
  facet normal -0.866025 -0.5 -0
    outer loop
      vertex -36.6355 -4.06737 -2.5
      vertex -35.5902 -5.87785 -2.5
      vertex -36.6355 -4.06737 2.5
    endloop
  endfacet
  facet normal -0.866025 -0.5 0
    outer loop
      vertex -36.6355 -4.06737 2.5
      vertex -35.5902 -5.87785 -2.5
      vertex -35.5902 -5.87785 2.5
    endloop
  endfacet
  facet normal -0.743145 -0.669131 -0
    outer loop
      vertex -35.5902 -5.87785 -2.5
      vertex -34.1913 -7.43145 -2.5
      vertex -35.5902 -5.87785 2.5
    endloop
  endfacet
  facet normal -0.743145 -0.669131 0
    outer loop
      vertex -35.5902 -5.87785 2.5
      vertex -34.1913 -7.43145 -2.5
      vertex -34.1913 -7.43145 2.5
    endloop
  endfacet
  facet normal -0.587785 -0.809017 0
    outer loop
      vertex -34.1913 -7.43145 2.5
      vertex -34.1913 -7.43145 -2.5
      vertex -32.5 -8.66025 -2.5
    endloop
  endfacet
  facet normal -0.587785 -0.809017 0
    outer loop
      vertex -32.5 -8.66025 2.5
      vertex -34.1913 -7.43145 2.5
      vertex -32.5 -8.66025 -2.5
    endloop
  endfacet
  facet normal -0.406737 -0.913545 0
    outer loop
      vertex -32.5 -8.66025 2.5
      vertex -32.5 -8.66025 -2.5
      vertex -30.5902 -9.51056 -2.5
    endloop
  endfacet
  facet normal -0.406737 -0.913545 0
    outer loop
      vertex -30.5902 -9.51056 2.5
      vertex -32.5 -8.66025 2.5
      vertex -30.5902 -9.51056 -2.5
    endloop
  endfacet
  facet normal -0.207912 -0.978148 0
    outer loop
      vertex -30.5902 -9.51056 2.5
      vertex -30.5902 -9.51056 -2.5
      vertex -28.5453 -9.94522 -2.5
    endloop
  endfacet
  facet normal -0.207912 -0.978148 0
    outer loop
      vertex -28.5453 -9.94522 2.5
      vertex -30.5902 -9.51056 2.5
      vertex -28.5453 -9.94522 -2.5
    endloop
  endfacet
  facet normal 0 -1 0
    outer loop
      vertex -28.5453 -9.94522 2.5
      vertex -28.5453 -9.94522 -2.5
      vertex -27.5 -9.94522 -2.5
    endloop
  endfacet
  facet normal 0 -1 0
    outer loop
      vertex -27.5 -9.94522 2.5
      vertex -28.5453 -9.94522 2.5
      vertex -27.5 -9.94522 -2.5
    endloop
  endfacet
  facet normal -1 -0 -0
    outer loop
      vertex -27.5 -10 -2.5
      vertex -27.5 -10 2.5
      vertex -27.5 -9.94522 -2.5
    endloop
  endfacet
  facet normal -1 0 0
    outer loop
      vertex -27.5 -9.94522 -2.5
      vertex -27.5 -10 2.5
      vertex -27.5 -9.94522 2.5
    endloop
  endfacet
  facet normal 0 -1 0
    outer loop
      vertex -27.5 -10 2.5
      vertex -27.5 -10 -2.5
      vertex 27.5 -10 -2.5
    endloop
  endfacet
  facet normal 0 -1 0
    outer loop
      vertex 27.5 -10 2.5
      vertex -27.5 -10 2.5
      vertex 27.5 -10 -2.5
    endloop
  endfacet
  facet normal 1 0 -0
    outer loop
      vertex 27.5 -10 2.5
      vertex 27.5 -10 -2.5
      vertex 27.5 -9.94522 -2.5
    endloop
  endfacet
  facet normal 1 0 0
    outer loop
      vertex 27.5 -9.94522 2.5
      vertex 27.5 -10 2.5
      vertex 27.5 -9.94522 -2.5
    endloop
  endfacet
  facet normal 0 -1 0
    outer loop
      vertex 27.5 -9.94522 2.5
      vertex 27.5 -9.94522 -2.5
      vertex 28.5453 -9.94522 -2.5
    endloop
  endfacet
  facet normal 0 -1 0
    outer loop
      vertex 28.5453 -9.94522 2.5
      vertex 27.5 -9.94522 2.5
      vertex 28.5453 -9.94522 -2.5
    endloop
  endfacet
  facet normal 0.207912 -0.978148 0
    outer loop
      vertex 28.5453 -9.94522 2.5
      vertex 28.5453 -9.94522 -2.5
      vertex 30.5902 -9.51056 -2.5
    endloop
  endfacet
  facet normal 0.207912 -0.978148 0
    outer loop
      vertex 30.5902 -9.51056 2.5
      vertex 28.5453 -9.94522 2.5
      vertex 30.5902 -9.51056 -2.5
    endloop
  endfacet
  facet normal 0.406737 -0.913545 0
    outer loop
      vertex 30.5902 -9.51056 2.5
      vertex 30.5902 -9.51056 -2.5
      vertex 32.5 -8.66025 -2.5
    endloop
  endfacet
  facet normal 0.406737 -0.913545 0
    outer loop
      vertex 32.5 -8.66025 2.5
      vertex 30.5902 -9.51056 2.5
      vertex 32.5 -8.66025 -2.5
    endloop
  endfacet
  facet normal 0.587785 -0.809017 0
    outer loop
      vertex 32.5 -8.66025 2.5
      vertex 32.5 -8.66025 -2.5
      vertex 34.1913 -7.43145 -2.5
    endloop
  endfacet
  facet normal 0.587785 -0.809017 0
    outer loop
      vertex 34.1913 -7.43145 2.5
      vertex 32.5 -8.66025 2.5
      vertex 34.1913 -7.43145 -2.5
    endloop
  endfacet
  facet normal 0.743145 -0.669131 0
    outer loop
      vertex 34.1913 -7.43145 2.5
      vertex 34.1913 -7.43145 -2.5
      vertex 35.5902 -5.87785 -2.5
    endloop
  endfacet
  facet normal 0.743145 -0.669131 0
    outer loop
      vertex 35.5902 -5.87785 2.5
      vertex 34.1913 -7.43145 2.5
      vertex 35.5902 -5.87785 -2.5
    endloop
  endfacet
  facet normal 0.866025 -0.5 0
    outer loop
      vertex 35.5902 -5.87785 2.5
      vertex 35.5902 -5.87785 -2.5
      vertex 36.6355 -4.06737 -2.5
    endloop
  endfacet
  facet normal 0.866025 -0.5 0
    outer loop
      vertex 36.6355 -4.06737 2.5
      vertex 35.5902 -5.87785 2.5
      vertex 36.6355 -4.06737 -2.5
    endloop
  endfacet
  facet normal 0.951057 -0.309017 0
    outer loop
      vertex 36.6355 -4.06737 2.5
      vertex 36.6355 -4.06737 -2.5
      vertex 37.2815 -2.07912 -2.5
    endloop
  endfacet
  facet normal 0.951057 -0.309017 0
    outer loop
      vertex 37.2815 -2.07912 2.5
      vertex 36.6355 -4.06737 2.5
      vertex 37.2815 -2.07912 -2.5
    endloop
  endfacet
  facet normal 0.994522 -0.104528 0
    outer loop
      vertex 37.2815 -2.07912 2.5
      vertex 37.2815 -2.07912 -2.5
      vertex 37.5 0 -2.5
    endloop
  endfacet
  facet normal 0.994522 -0.104528 0
    outer loop
      vertex 37.5 0 2.5
      vertex 37.2815 -2.07912 2.5
      vertex 37.5 0 -2.5
    endloop
  endfacet
  facet normal 0.994522 0.104528 0
    outer loop
      vertex 37.5 0 -2.5
      vertex 37.2815 2.07912 -2.5
      vertex 37.2815 2.07912 2.5
    endloop
  endfacet
  facet normal 0.994522 0.104528 -0
    outer loop
      vertex 37.5 0 2.5
      vertex 37.5 0 -2.5
      vertex 37.2815 2.07912 2.5
    endloop
  endfacet
  facet normal 0.951057 0.309017 0
    outer loop
      vertex 37.2815 2.07912 -2.5
      vertex 36.6355 4.06737 -2.5
      vertex 36.6355 4.06737 2.5
    endloop
  endfacet
  facet normal 0.951057 0.309017 -0
    outer loop
      vertex 37.2815 2.07912 2.5
      vertex 37.2815 2.07912 -2.5
      vertex 36.6355 4.06737 2.5
    endloop
  endfacet
  facet normal 0.866025 0.5 0
    outer loop
      vertex 36.6355 4.06737 -2.5
      vertex 35.5902 5.87785 -2.5
      vertex 35.5902 5.87785 2.5
    endloop
  endfacet
  facet normal 0.866025 0.5 -0
    outer loop
      vertex 36.6355 4.06737 2.5
      vertex 36.6355 4.06737 -2.5
      vertex 35.5902 5.87785 2.5
    endloop
  endfacet
  facet normal 0.743145 0.669131 0
    outer loop
      vertex 35.5902 5.87785 -2.5
      vertex 34.1913 7.43145 -2.5
      vertex 34.1913 7.43145 2.5
    endloop
  endfacet
  facet normal 0.743145 0.669131 -0
    outer loop
      vertex 35.5902 5.87785 2.5
      vertex 35.5902 5.87785 -2.5
      vertex 34.1913 7.43145 2.5
    endloop
  endfacet
  facet normal 0.587785 0.809017 0
    outer loop
      vertex 32.5 8.66025 -2.5
      vertex 32.5 8.66025 2.5
      vertex 34.1913 7.43145 -2.5
    endloop
  endfacet
  facet normal 0.587785 0.809017 0
    outer loop
      vertex 34.1913 7.43145 -2.5
      vertex 32.5 8.66025 2.5
      vertex 34.1913 7.43145 2.5
    endloop
  endfacet
  facet normal 0.406737 0.913545 0
    outer loop
      vertex 30.6737 9.47336 -2.5
      vertex 30.6737 9.47336 2.5
      vertex 32.5 8.66025 -2.5
    endloop
  endfacet
  facet normal 0.406737 0.913545 0
    outer loop
      vertex 32.5 8.66025 -2.5
      vertex 30.6737 9.47336 2.5
      vertex 32.5 8.66025 2.5
    endloop
  endfacet
  facet normal -0.990342 -0.138648 0
    outer loop
      vertex 31.8443 1.11216 2.5
      vertex 30.6737 9.47336 2.5
      vertex 31.8443 1.11216 -2.5
    endloop
  endfacet
  facet normal -0.990342 -0.138648 0
    outer loop
      vertex 31.8443 1.11216 -2.5
      vertex 30.6737 9.47336 2.5
      vertex 30.6737 9.47336 -2.5
    endloop
  endfacet
  facet normal -0.951057 -0.309016 0
    outer loop
      vertex 31.9017 0.935603 2.5
      vertex 31.8443 1.11216 2.5
      vertex 31.9017 0.935603 -2.5
    endloop
  endfacet
  facet normal -0.951057 -0.309016 0
    outer loop
      vertex 31.9017 0.935603 -2.5
      vertex 31.8443 1.11216 2.5
      vertex 31.8443 1.11216 -2.5
    endloop
  endfacet
  facet normal -0.994522 -0.104529 0
    outer loop
      vertex 32 0 2.5
      vertex 31.9017 0.935603 2.5
      vertex 32 0 -2.5
    endloop
  endfacet
  facet normal -0.994522 -0.104529 0
    outer loop
      vertex 32 0 -2.5
      vertex 31.9017 0.935603 2.5
      vertex 31.9017 0.935603 -2.5
    endloop
  endfacet
  facet normal -0.994522 0.104529 0
    outer loop
      vertex 32 0 2.5
      vertex 32 0 -2.5
      vertex 31.9017 -0.935603 2.5
    endloop
  endfacet
  facet normal -0.994522 0.104529 0
    outer loop
      vertex 31.9017 -0.935603 2.5
      vertex 32 0 -2.5
      vertex 31.9017 -0.935603 -2.5
    endloop
  endfacet
  facet normal -0.951057 0.309016 0
    outer loop
      vertex 31.9017 -0.935603 2.5
      vertex 31.9017 -0.935603 -2.5
      vertex 31.611 -1.83031 2.5
    endloop
  endfacet
  facet normal -0.951057 0.309016 0
    outer loop
      vertex 31.611 -1.83031 2.5
      vertex 31.9017 -0.935603 -2.5
      vertex 31.611 -1.83031 -2.5
    endloop
  endfacet
  facet normal -0.866025 0.500001 0
    outer loop
      vertex 31.611 -1.83031 2.5
      vertex 31.611 -1.83031 -2.5
      vertex 31.1406 -2.64503 2.5
    endloop
  endfacet
  facet normal -0.866025 0.500001 0
    outer loop
      vertex 31.1406 -2.64503 2.5
      vertex 31.611 -1.83031 -2.5
      vertex 31.1406 -2.64503 -2.5
    endloop
  endfacet
  facet normal -0.743145 0.66913 0
    outer loop
      vertex 31.1406 -2.64503 2.5
      vertex 31.1406 -2.64503 -2.5
      vertex 30.5111 -3.34415 2.5
    endloop
  endfacet
  facet normal -0.743145 0.66913 0
    outer loop
      vertex 30.5111 -3.34415 2.5
      vertex 31.1406 -2.64503 -2.5
      vertex 30.5111 -3.34415 -2.5
    endloop
  endfacet
  facet normal -0.587785 0.809017 0
    outer loop
      vertex 30.5111 -3.34415 2.5
      vertex 30.5111 -3.34415 -2.5
      vertex 29.75 -3.89711 2.5
    endloop
  endfacet
  facet normal -0.587785 0.809017 0
    outer loop
      vertex 29.75 -3.89711 2.5
      vertex 30.5111 -3.34415 -2.5
      vertex 29.75 -3.89711 -2.5
    endloop
  endfacet
  facet normal -0.406736 0.913546 0
    outer loop
      vertex 29.75 -3.89711 2.5
      vertex 29.75 -3.89711 -2.5
      vertex 28.8906 -4.27975 2.5
    endloop
  endfacet
  facet normal -0.406736 0.913546 0
    outer loop
      vertex 28.8906 -4.27975 2.5
      vertex 29.75 -3.89711 -2.5
      vertex 28.8906 -4.27975 -2.5
    endloop
  endfacet
  facet normal -0.207913 0.978147 0
    outer loop
      vertex 28.8906 -4.27975 2.5
      vertex 28.8906 -4.27975 -2.5
      vertex 27.9704 -4.47535 2.5
    endloop
  endfacet
  facet normal -0.207913 0.978147 0
    outer loop
      vertex 27.9704 -4.47535 2.5
      vertex 28.8906 -4.27975 -2.5
      vertex 27.9704 -4.47535 -2.5
    endloop
  endfacet
  facet normal 0 1 0
    outer loop
      vertex 27.9704 -4.47535 2.5
      vertex 27.9704 -4.47535 -2.5
      vertex 27.0296 -4.47535 2.5
    endloop
  endfacet
  facet normal 0 1 -0
    outer loop
      vertex 27.0296 -4.47535 2.5
      vertex 27.9704 -4.47535 -2.5
      vertex 27.0296 -4.47535 -2.5
    endloop
  endfacet
  facet normal 0.207913 0.978147 -0
    outer loop
      vertex 27.0296 -4.47535 2.5
      vertex 27.0296 -4.47535 -2.5
      vertex 26.1094 -4.27975 2.5
    endloop
  endfacet
  facet normal 0.207913 0.978147 -0
    outer loop
      vertex 26.1094 -4.27975 2.5
      vertex 27.0296 -4.47535 -2.5
      vertex 26.1094 -4.27975 -2.5
    endloop
  endfacet
  facet normal 0.406736 0.913546 -0
    outer loop
      vertex 26.1094 -4.27975 2.5
      vertex 26.1094 -4.27975 -2.5
      vertex 25.25 -3.89711 2.5
    endloop
  endfacet
  facet normal 0.406736 0.913546 -0
    outer loop
      vertex 25.25 -3.89711 2.5
      vertex 26.1094 -4.27975 -2.5
      vertex 25.25 -3.89711 -2.5
    endloop
  endfacet
  facet normal 0.587785 0.809017 -0
    outer loop
      vertex 25.25 -3.89711 2.5
      vertex 25.25 -3.89711 -2.5
      vertex 24.4889 -3.34415 2.5
    endloop
  endfacet
  facet normal 0.587785 0.809017 -0
    outer loop
      vertex 24.4889 -3.34415 2.5
      vertex 25.25 -3.89711 -2.5
      vertex 24.4889 -3.34415 -2.5
    endloop
  endfacet
  facet normal 0.743145 0.66913 0
    outer loop
      vertex 23.8594 -2.64503 2.5
      vertex 24.4889 -3.34415 2.5
      vertex 24.4889 -3.34415 -2.5
    endloop
  endfacet
  facet normal 0.743145 0.66913 0
    outer loop
      vertex 23.8594 -2.64503 -2.5
      vertex 23.8594 -2.64503 2.5
      vertex 24.4889 -3.34415 -2.5
    endloop
  endfacet
  facet normal 0.866025 0.500001 0
    outer loop
      vertex 23.389 -1.83031 2.5
      vertex 23.8594 -2.64503 2.5
      vertex 23.8594 -2.64503 -2.5
    endloop
  endfacet
  facet normal 0.866025 0.500001 0
    outer loop
      vertex 23.389 -1.83031 -2.5
      vertex 23.389 -1.83031 2.5
      vertex 23.8594 -2.64503 -2.5
    endloop
  endfacet
  facet normal 0.951057 0.309016 0
    outer loop
      vertex 23.0983 -0.935603 2.5
      vertex 23.389 -1.83031 2.5
      vertex 23.389 -1.83031 -2.5
    endloop
  endfacet
  facet normal 0.951057 0.309016 0
    outer loop
      vertex 23.0983 -0.935603 -2.5
      vertex 23.0983 -0.935603 2.5
      vertex 23.389 -1.83031 -2.5
    endloop
  endfacet
  facet normal 0.994522 0.104529 0
    outer loop
      vertex 23 0 2.5
      vertex 23.0983 -0.935603 2.5
      vertex 23.0983 -0.935603 -2.5
    endloop
  endfacet
  facet normal 0.994522 0.104529 0
    outer loop
      vertex 23 0 -2.5
      vertex 23 0 2.5
      vertex 23.0983 -0.935603 -2.5
    endloop
  endfacet
  facet normal 0.994522 -0.104529 0
    outer loop
      vertex 23.0983 0.935603 -2.5
      vertex 23.0983 0.935603 2.5
      vertex 23 0 2.5
    endloop
  endfacet
  facet normal 0.994522 -0.104529 0
    outer loop
      vertex 23 0 -2.5
      vertex 23.0983 0.935603 -2.5
      vertex 23 0 2.5
    endloop
  endfacet
  facet normal 0.951057 -0.309016 0
    outer loop
      vertex 23.1557 1.11216 -2.5
      vertex 23.1557 1.11216 2.5
      vertex 23.0983 0.935603 2.5
    endloop
  endfacet
  facet normal 0.951057 -0.309016 0
    outer loop
      vertex 23.0983 0.935603 -2.5
      vertex 23.1557 1.11216 -2.5
      vertex 23.0983 0.935603 2.5
    endloop
  endfacet
  facet normal 0.990342 -0.138648 0
    outer loop
      vertex 24.4 10 -2.5
      vertex 24.4 10 2.5
      vertex 23.1557 1.11216 2.5
    endloop
  endfacet
  facet normal 0.990342 -0.138648 0
    outer loop
      vertex 23.1557 1.11216 -2.5
      vertex 24.4 10 -2.5
      vertex 23.1557 1.11216 2.5
    endloop
  endfacet
  facet normal 0 1 0
    outer loop
      vertex -24.6 10 -2.5
      vertex -24.6 10 2.5
      vertex 24.4 10 -2.5
    endloop
  endfacet
  facet normal 0 1 0
    outer loop
      vertex 24.4 10 -2.5
      vertex -24.6 10 2.5
      vertex 24.4 10 2.5
    endloop
  endfacet
  facet normal -0.987441 -0.157991 0
    outer loop
      vertex -23.1995 1.24703 2.5
      vertex -24.6 10 2.5
      vertex -23.1995 1.24703 -2.5
    endloop
  endfacet
  facet normal -0.987441 -0.157991 0
    outer loop
      vertex -23.1995 1.24703 -2.5
      vertex -24.6 10 2.5
      vertex -24.6 10 -2.5
    endloop
  endfacet
  facet normal -0.951057 -0.309016 0
    outer loop
      vertex -23.0983 0.935603 2.5
      vertex -23.1995 1.24703 2.5
      vertex -23.0983 0.935603 -2.5
    endloop
  endfacet
  facet normal -0.951057 -0.309016 0
    outer loop
      vertex -23.0983 0.935603 -2.5
      vertex -23.1995 1.24703 2.5
      vertex -23.1995 1.24703 -2.5
    endloop
  endfacet
  facet normal -0.994522 -0.104529 0
    outer loop
      vertex -23 0 2.5
      vertex -23.0983 0.935603 2.5
      vertex -23 0 -2.5
    endloop
  endfacet
  facet normal -0.994522 -0.104529 0
    outer loop
      vertex -23 0 -2.5
      vertex -23.0983 0.935603 2.5
      vertex -23.0983 0.935603 -2.5
    endloop
  endfacet
  facet normal -0.994522 0.104529 0
    outer loop
      vertex -23 0 2.5
      vertex -23 0 -2.5
      vertex -23.0983 -0.935603 2.5
    endloop
  endfacet
  facet normal -0.994522 0.104529 0
    outer loop
      vertex -23.0983 -0.935603 2.5
      vertex -23 0 -2.5
      vertex -23.0983 -0.935603 -2.5
    endloop
  endfacet
  facet normal -0.951057 0.309016 0
    outer loop
      vertex -23.0983 -0.935603 2.5
      vertex -23.0983 -0.935603 -2.5
      vertex -23.389 -1.83031 2.5
    endloop
  endfacet
  facet normal -0.951057 0.309016 0
    outer loop
      vertex -23.389 -1.83031 2.5
      vertex -23.0983 -0.935603 -2.5
      vertex -23.389 -1.83031 -2.5
    endloop
  endfacet
  facet normal -0.866025 0.500001 0
    outer loop
      vertex -23.389 -1.83031 2.5
      vertex -23.389 -1.83031 -2.5
      vertex -23.8594 -2.64503 2.5
    endloop
  endfacet
  facet normal -0.866025 0.500001 0
    outer loop
      vertex -23.8594 -2.64503 2.5
      vertex -23.389 -1.83031 -2.5
      vertex -23.8594 -2.64503 -2.5
    endloop
  endfacet
  facet normal -0.743145 0.66913 0
    outer loop
      vertex -23.8594 -2.64503 2.5
      vertex -23.8594 -2.64503 -2.5
      vertex -24.4889 -3.34415 2.5
    endloop
  endfacet
  facet normal -0.743145 0.66913 0
    outer loop
      vertex -24.4889 -3.34415 2.5
      vertex -23.8594 -2.64503 -2.5
      vertex -24.4889 -3.34415 -2.5
    endloop
  endfacet
  facet normal -0.587785 0.809017 0
    outer loop
      vertex -24.4889 -3.34415 2.5
      vertex -24.4889 -3.34415 -2.5
      vertex -25.25 -3.89711 2.5
    endloop
  endfacet
  facet normal -0.587785 0.809017 0
    outer loop
      vertex -25.25 -3.89711 2.5
      vertex -24.4889 -3.34415 -2.5
      vertex -25.25 -3.89711 -2.5
    endloop
  endfacet
  facet normal -0.406736 0.913546 0
    outer loop
      vertex -25.25 -3.89711 2.5
      vertex -25.25 -3.89711 -2.5
      vertex -26.1094 -4.27975 2.5
    endloop
  endfacet
  facet normal -0.406736 0.913546 0
    outer loop
      vertex -26.1094 -4.27975 2.5
      vertex -25.25 -3.89711 -2.5
      vertex -26.1094 -4.27975 -2.5
    endloop
  endfacet
  facet normal -0.207913 0.978147 0
    outer loop
      vertex -26.1094 -4.27975 2.5
      vertex -26.1094 -4.27975 -2.5
      vertex -27.0296 -4.47535 2.5
    endloop
  endfacet
  facet normal -0.207913 0.978147 0
    outer loop
      vertex -27.0296 -4.47535 2.5
      vertex -26.1094 -4.27975 -2.5
      vertex -27.0296 -4.47535 -2.5
    endloop
  endfacet
  facet normal 0 1 0
    outer loop
      vertex -27.0296 -4.47535 2.5
      vertex -27.0296 -4.47535 -2.5
      vertex -27.9704 -4.47535 2.5
    endloop
  endfacet
  facet normal 0 1 -0
    outer loop
      vertex -27.9704 -4.47535 2.5
      vertex -27.0296 -4.47535 -2.5
      vertex -27.9704 -4.47535 -2.5
    endloop
  endfacet
  facet normal 0.207913 0.978147 -0
    outer loop
      vertex -27.9704 -4.47535 2.5
      vertex -27.9704 -4.47535 -2.5
      vertex -28.8906 -4.27975 2.5
    endloop
  endfacet
  facet normal 0.207913 0.978147 -0
    outer loop
      vertex -28.8906 -4.27975 2.5
      vertex -27.9704 -4.47535 -2.5
      vertex -28.8906 -4.27975 -2.5
    endloop
  endfacet
  facet normal 0.406736 0.913546 -0
    outer loop
      vertex -28.8906 -4.27975 2.5
      vertex -28.8906 -4.27975 -2.5
      vertex -29.75 -3.89711 2.5
    endloop
  endfacet
  facet normal 0.406736 0.913546 -0
    outer loop
      vertex -29.75 -3.89711 2.5
      vertex -28.8906 -4.27975 -2.5
      vertex -29.75 -3.89711 -2.5
    endloop
  endfacet
  facet normal 0.587785 0.809017 -0
    outer loop
      vertex -29.75 -3.89711 2.5
      vertex -29.75 -3.89711 -2.5
      vertex -30.5111 -3.34415 2.5
    endloop
  endfacet
  facet normal 0.587785 0.809017 -0
    outer loop
      vertex -30.5111 -3.34415 2.5
      vertex -29.75 -3.89711 -2.5
      vertex -30.5111 -3.34415 -2.5
    endloop
  endfacet
  facet normal 0.743145 0.66913 0
    outer loop
      vertex -31.1406 -2.64503 2.5
      vertex -30.5111 -3.34415 2.5
      vertex -30.5111 -3.34415 -2.5
    endloop
  endfacet
  facet normal 0.743145 0.66913 0
    outer loop
      vertex -31.1406 -2.64503 -2.5
      vertex -31.1406 -2.64503 2.5
      vertex -30.5111 -3.34415 -2.5
    endloop
  endfacet
  facet normal 0.866025 0.500001 0
    outer loop
      vertex -31.611 -1.83031 2.5
      vertex -31.1406 -2.64503 2.5
      vertex -31.1406 -2.64503 -2.5
    endloop
  endfacet
  facet normal 0.866025 0.500001 0
    outer loop
      vertex -31.611 -1.83031 -2.5
      vertex -31.611 -1.83031 2.5
      vertex -31.1406 -2.64503 -2.5
    endloop
  endfacet
  facet normal 0.951057 0.309016 0
    outer loop
      vertex -31.9017 -0.935603 2.5
      vertex -31.611 -1.83031 2.5
      vertex -31.611 -1.83031 -2.5
    endloop
  endfacet
  facet normal 0.951057 0.309016 0
    outer loop
      vertex -31.9017 -0.935603 -2.5
      vertex -31.9017 -0.935603 2.5
      vertex -31.611 -1.83031 -2.5
    endloop
  endfacet
  facet normal 0.994522 0.104529 0
    outer loop
      vertex -32 0 2.5
      vertex -31.9017 -0.935603 2.5
      vertex -31.9017 -0.935603 -2.5
    endloop
  endfacet
  facet normal 0.994522 0.104529 0
    outer loop
      vertex -32 0 -2.5
      vertex -32 0 2.5
      vertex -31.9017 -0.935603 -2.5
    endloop
  endfacet
  facet normal 0.994522 -0.104529 0
    outer loop
      vertex -31.9017 0.935603 -2.5
      vertex -31.9017 0.935603 2.5
      vertex -32 0 2.5
    endloop
  endfacet
  facet normal 0.994522 -0.104529 0
    outer loop
      vertex -32 0 -2.5
      vertex -31.9017 0.935603 -2.5
      vertex -32 0 2.5
    endloop
  endfacet
  facet normal 0.951057 -0.309016 0
    outer loop
      vertex -31.8005 1.24703 -2.5
      vertex -31.8005 1.24703 2.5
      vertex -31.9017 0.935603 2.5
    endloop
  endfacet
  facet normal 0.951057 -0.309016 0
    outer loop
      vertex -31.9017 0.935603 -2.5
      vertex -31.8005 1.24703 -2.5
      vertex -31.9017 0.935603 2.5
    endloop
  endfacet
  facet normal 0.987441 -0.157991 0
    outer loop
      vertex -30.4744 9.53518 -2.5
      vertex -30.4744 9.53518 2.5
      vertex -31.8005 1.24703 2.5
    endloop
  endfacet
  facet normal 0.987441 -0.157991 0
    outer loop
      vertex -31.8005 1.24703 -2.5
      vertex -30.4744 9.53518 -2.5
      vertex -31.8005 1.24703 2.5
    endloop
  endfacet
  facet normal -0.207912 0.978148 0
    outer loop
      vertex -30.5902 9.51056 -2.5
      vertex -30.5902 9.51056 2.5
      vertex -30.4744 9.53518 -2.5
    endloop
  endfacet
  facet normal -0.207912 0.978148 0
    outer loop
      vertex -30.4744 9.53518 -2.5
      vertex -30.5902 9.51056 2.5
      vertex -30.4744 9.53518 2.5
    endloop
  endfacet
  facet normal -0.406737 0.913545 0
    outer loop
      vertex -32.5 8.66025 -2.5
      vertex -32.5 8.66025 2.5
      vertex -30.5902 9.51056 -2.5
    endloop
  endfacet
  facet normal -0.406737 0.913545 0
    outer loop
      vertex -30.5902 9.51056 -2.5
      vertex -32.5 8.66025 2.5
      vertex -30.5902 9.51056 2.5
    endloop
  endfacet
  facet normal -0.587785 0.809017 0
    outer loop
      vertex -34.1913 7.43145 -2.5
      vertex -34.1913 7.43145 2.5
      vertex -32.5 8.66025 -2.5
    endloop
  endfacet
  facet normal -0.587785 0.809017 0
    outer loop
      vertex -32.5 8.66025 -2.5
      vertex -34.1913 7.43145 2.5
      vertex -32.5 8.66025 2.5
    endloop
  endfacet
  facet normal -0.743145 0.669131 0
    outer loop
      vertex -35.5902 5.87785 -2.5
      vertex -35.5902 5.87785 2.5
      vertex -34.1913 7.43145 -2.5
    endloop
  endfacet
  facet normal -0.743145 0.669131 0
    outer loop
      vertex -34.1913 7.43145 -2.5
      vertex -35.5902 5.87785 2.5
      vertex -34.1913 7.43145 2.5
    endloop
  endfacet
  facet normal -0.866025 0.5 0
    outer loop
      vertex -36.6355 4.06737 -2.5
      vertex -36.6355 4.06737 2.5
      vertex -35.5902 5.87785 -2.5
    endloop
  endfacet
  facet normal -0.866025 0.5 0
    outer loop
      vertex -35.5902 5.87785 -2.5
      vertex -36.6355 4.06737 2.5
      vertex -35.5902 5.87785 2.5
    endloop
  endfacet
  facet normal -0.951057 0.309017 0
    outer loop
      vertex -37.2815 2.07912 -2.5
      vertex -37.2815 2.07912 2.5
      vertex -36.6355 4.06737 -2.5
    endloop
  endfacet
  facet normal -0.951057 0.309017 0
    outer loop
      vertex -36.6355 4.06737 -2.5
      vertex -37.2815 2.07912 2.5
      vertex -36.6355 4.06737 2.5
    endloop
  endfacet
  facet normal 0.997459 0.071247 0
    outer loop
      vertex -18.5 7 2.5
      vertex -17.5 -7 2.5
      vertex -17.5 -7 -2.5
    endloop
  endfacet
  facet normal 0.997459 0.071247 0
    outer loop
      vertex -18.5 7 -2.5
      vertex -18.5 7 2.5
      vertex -17.5 -7 -2.5
    endloop
  endfacet
  facet normal 0 -1 0
    outer loop
      vertex 18.5 7 -2.5
      vertex 18.5 7 2.5
      vertex -18.5 7 2.5
    endloop
  endfacet
  facet normal -0 -1 -0
    outer loop
      vertex -18.5 7 -2.5
      vertex 18.5 7 -2.5
      vertex -18.5 7 2.5
    endloop
  endfacet
  facet normal -0.997459 0.071247 0
    outer loop
      vertex 18.5 7 2.5
      vertex 18.5 7 -2.5
      vertex 17.5 -7 2.5
    endloop
  endfacet
  facet normal -0.997459 0.071247 0
    outer loop
      vertex 17.5 -7 2.5
      vertex 18.5 7 -2.5
      vertex 17.5 -7 -2.5
    endloop
  endfacet
  facet normal 0 1 0
    outer loop
      vertex 17.5 -7 2.5
      vertex 17.5 -7 -2.5
      vertex -17.5 -7 2.5
    endloop
  endfacet
  facet normal 0 1 -0
    outer loop
      vertex -17.5 -7 2.5
      vertex 17.5 -7 -2.5
      vertex -17.5 -7 -2.5
    endloop
  endfacet
  facet normal 0 0 1
    outer loop
      vertex -37.2815 2.07912 2.5
      vertex -37.5 0 2.5
      vertex -37.2815 -2.07912 2.5
    endloop
  endfacet
  facet normal 0 0 1
    outer loop
      vertex -35.5902 -5.87785 2.5
      vertex -37.2815 2.07912 2.5
      vertex -36.6355 -4.06737 2.5
    endloop
  endfacet
  facet normal 0 0 1
    outer loop
      vertex -36.6355 -4.06737 2.5
      vertex -37.2815 2.07912 2.5
      vertex -37.2815 -2.07912 2.5
    endloop
  endfacet
  facet normal 0 0 1
    outer loop
      vertex -34.1913 -7.43145 2.5
      vertex -37.2815 2.07912 2.5
      vertex -35.5902 -5.87785 2.5
    endloop
  endfacet
  facet normal 0 0 1
    outer loop
      vertex -32.5 -8.66025 2.5
      vertex -37.2815 2.07912 2.5
      vertex -34.1913 -7.43145 2.5
    endloop
  endfacet
  facet normal 0 0 1
    outer loop
      vertex -30.5902 -9.51056 2.5
      vertex -37.2815 2.07912 2.5
      vertex -32.5 -8.66025 2.5
    endloop
  endfacet
  facet normal 0 0 1
    outer loop
      vertex -28.5453 -9.94522 2.5
      vertex -37.2815 2.07912 2.5
      vertex -30.5902 -9.51056 2.5
    endloop
  endfacet
  facet normal -0 0 1
    outer loop
      vertex -27.5 -9.94522 2.5
      vertex -37.2815 2.07912 2.5
      vertex -28.5453 -9.94522 2.5
    endloop
  endfacet
  facet normal -0 -0 1
    outer loop
      vertex -30.5111 -3.34415 2.5
      vertex -37.2815 2.07912 2.5
      vertex -27.5 -9.94522 2.5
    endloop
  endfacet
  facet normal -0 0 1
    outer loop
      vertex 27.5 -10 2.5
      vertex -27.5 -9.94522 2.5
      vertex -27.5 -10 2.5
    endloop
  endfacet
  facet normal 0 0 1
    outer loop
      vertex -31.1406 -2.64503 2.5
      vertex -31.611 -1.83031 2.5
      vertex -37.2815 2.07912 2.5
    endloop
  endfacet
  facet normal 0 0 1
    outer loop
      vertex -31.8005 1.24703 2.5
      vertex -30.4744 9.53518 2.5
      vertex -37.2815 2.07912 2.5
    endloop
  endfacet
  facet normal 0 0 1
    outer loop
      vertex 17.5 -7 2.5
      vertex 27.5 -10 2.5
      vertex 27.5 -9.94522 2.5
    endloop
  endfacet
  facet normal 0 0 1
    outer loop
      vertex 18.5 7 2.5
      vertex 23.389 -1.83031 2.5
      vertex 23.0983 -0.935603 2.5
    endloop
  endfacet
  facet normal 0 0 1
    outer loop
      vertex 18.5 7 2.5
      vertex 23.0983 0.935603 2.5
      vertex 23.1557 1.11216 2.5
    endloop
  endfacet
  facet normal 0 0 1
    outer loop
      vertex 31.9017 0.935603 2.5
      vertex 32 0 2.5
      vertex 37.5 0 2.5
    endloop
  endfacet
  facet normal 0 -0 1
    outer loop
      vertex 30.5111 -3.34415 2.5
      vertex 29.75 -3.89711 2.5
      vertex 36.6355 -4.06737 2.5
    endloop
  endfacet
  facet normal 0 0 1
    outer loop
      vertex 23.1557 1.11216 2.5
      vertex 24.4 10 2.5
      vertex 18.5 7 2.5
    endloop
  endfacet
  facet normal 0 0 1
    outer loop
      vertex -24.6 10 2.5
      vertex -23.1995 1.24703 2.5
      vertex -18.5 7 2.5
    endloop
  endfacet
  facet normal 0 0 1
    outer loop
      vertex -17.5 -7 2.5
      vertex -23 0 2.5
      vertex -23.0983 -0.935603 2.5
    endloop
  endfacet
  facet normal 0 -0 1
    outer loop
      vertex 37.2815 2.07912 2.5
      vertex 31.8443 1.11216 2.5
      vertex 37.5 0 2.5
    endloop
  endfacet
  facet normal 0 0 1
    outer loop
      vertex 31.8443 1.11216 2.5
      vertex 31.9017 0.935603 2.5
      vertex 37.5 0 2.5
    endloop
  endfacet
  facet normal 0 0 1
    outer loop
      vertex 37.5 0 2.5
      vertex 32 0 2.5
      vertex 37.2815 -2.07912 2.5
    endloop
  endfacet
  facet normal 0 -0 1
    outer loop
      vertex 32 0 2.5
      vertex 31.9017 -0.935603 2.5
      vertex 37.2815 -2.07912 2.5
    endloop
  endfacet
  facet normal -0 0 1
    outer loop
      vertex 37.2815 -2.07912 2.5
      vertex 31.611 -1.83031 2.5
      vertex 36.6355 -4.06737 2.5
    endloop
  endfacet
  facet normal 0 -0 1
    outer loop
      vertex 31.611 -1.83031 2.5
      vertex 31.1406 -2.64503 2.5
      vertex 36.6355 -4.06737 2.5
    endloop
  endfacet
  facet normal 0 -0 1
    outer loop
      vertex 31.1406 -2.64503 2.5
      vertex 30.5111 -3.34415 2.5
      vertex 36.6355 -4.06737 2.5
    endloop
  endfacet
  facet normal -0 0 1
    outer loop
      vertex 36.6355 -4.06737 2.5
      vertex 29.75 -3.89711 2.5
      vertex 35.5902 -5.87785 2.5
    endloop
  endfacet
  facet normal 0 -0 1
    outer loop
      vertex 29.75 -3.89711 2.5
      vertex 28.8906 -4.27975 2.5
      vertex 35.5902 -5.87785 2.5
    endloop
  endfacet
  facet normal 0 -0 1
    outer loop
      vertex 28.8906 -4.27975 2.5
      vertex 27.9704 -4.47535 2.5
      vertex 35.5902 -5.87785 2.5
    endloop
  endfacet
  facet normal 0 -0 1
    outer loop
      vertex 27.9704 -4.47535 2.5
      vertex 27.0296 -4.47535 2.5
      vertex 35.5902 -5.87785 2.5
    endloop
  endfacet
  facet normal 0 0 1
    outer loop
      vertex 26.1094 -4.27975 2.5
      vertex 34.1913 -7.43145 2.5
      vertex 27.0296 -4.47535 2.5
    endloop
  endfacet
  facet normal 0 0 1
    outer loop
      vertex 27.0296 -4.47535 2.5
      vertex 34.1913 -7.43145 2.5
      vertex 35.5902 -5.87785 2.5
    endloop
  endfacet
  facet normal 0 0 1
    outer loop
      vertex 17.5 -7 2.5
      vertex 28.5453 -9.94522 2.5
      vertex 30.5902 -9.51056 2.5
    endloop
  endfacet
  facet normal 0 0 1
    outer loop
      vertex 25.25 -3.89711 2.5
      vertex 32.5 -8.66025 2.5
      vertex 26.1094 -4.27975 2.5
    endloop
  endfacet
  facet normal 0 0 1
    outer loop
      vertex 18.5 7 2.5
      vertex 23.0983 -0.935603 2.5
      vertex 23 0 2.5
    endloop
  endfacet
  facet normal 0 -0 1
    outer loop
      vertex 25.25 -3.89711 2.5
      vertex 17.5 -7 2.5
      vertex 32.5 -8.66025 2.5
    endloop
  endfacet
  facet normal 0 -0 1
    outer loop
      vertex 31.9017 -0.935603 2.5
      vertex 31.611 -1.83031 2.5
      vertex 37.2815 -2.07912 2.5
    endloop
  endfacet
  facet normal 0 -0 1
    outer loop
      vertex 23.389 -1.83031 2.5
      vertex 17.5 -7 2.5
      vertex 23.8594 -2.64503 2.5
    endloop
  endfacet
  facet normal 0 0 1
    outer loop
      vertex -17.5 -7 2.5
      vertex -23.0983 -0.935603 2.5
      vertex -23.389 -1.83031 2.5
    endloop
  endfacet
  facet normal 0 -0 1
    outer loop
      vertex 24.4889 -3.34415 2.5
      vertex 17.5 -7 2.5
      vertex 25.25 -3.89711 2.5
    endloop
  endfacet
  facet normal 0 0 1
    outer loop
      vertex 18.5 7 2.5
      vertex 23 0 2.5
      vertex 23.0983 0.935603 2.5
    endloop
  endfacet
  facet normal 0 -0 1
    outer loop
      vertex 23.8594 -2.64503 2.5
      vertex 17.5 -7 2.5
      vertex 24.4889 -3.34415 2.5
    endloop
  endfacet
  facet normal 0 0 1
    outer loop
      vertex 26.1094 -4.27975 2.5
      vertex 32.5 -8.66025 2.5
      vertex 34.1913 -7.43145 2.5
    endloop
  endfacet
  facet normal 0 -0 1
    outer loop
      vertex 18.5 7 2.5
      vertex 17.5 -7 2.5
      vertex 23.389 -1.83031 2.5
    endloop
  endfacet
  facet normal 0 0 1
    outer loop
      vertex -31.9017 0.935603 2.5
      vertex -31.8005 1.24703 2.5
      vertex -37.2815 2.07912 2.5
    endloop
  endfacet
  facet normal 0 0 1
    outer loop
      vertex -30.5111 -3.34415 2.5
      vertex -31.1406 -2.64503 2.5
      vertex -37.2815 2.07912 2.5
    endloop
  endfacet
  facet normal -0 0 1
    outer loop
      vertex -17.5 -7 2.5
      vertex -23.389 -1.83031 2.5
      vertex -27.5 -9.94522 2.5
    endloop
  endfacet
  facet normal 0 0 1
    outer loop
      vertex -23.389 -1.83031 2.5
      vertex -23.8594 -2.64503 2.5
      vertex -27.5 -9.94522 2.5
    endloop
  endfacet
  facet normal 0 0 1
    outer loop
      vertex -24.4889 -3.34415 2.5
      vertex -25.25 -3.89711 2.5
      vertex -27.5 -9.94522 2.5
    endloop
  endfacet
  facet normal 0 0 1
    outer loop
      vertex -32 0 2.5
      vertex -31.9017 0.935603 2.5
      vertex -37.2815 2.07912 2.5
    endloop
  endfacet
  facet normal 0 0 1
    outer loop
      vertex -25.25 -3.89711 2.5
      vertex -26.1094 -4.27975 2.5
      vertex -27.5 -9.94522 2.5
    endloop
  endfacet
  facet normal 0 0 1
    outer loop
      vertex -26.1094 -4.27975 2.5
      vertex -27.0296 -4.47535 2.5
      vertex -27.5 -9.94522 2.5
    endloop
  endfacet
  facet normal 0 0 1
    outer loop
      vertex -27.0296 -4.47535 2.5
      vertex -27.9704 -4.47535 2.5
      vertex -27.5 -9.94522 2.5
    endloop
  endfacet
  facet normal -0 -0 1
    outer loop
      vertex -27.9704 -4.47535 2.5
      vertex -28.8906 -4.27975 2.5
      vertex -27.5 -9.94522 2.5
    endloop
  endfacet
  facet normal -0 -0 1
    outer loop
      vertex -28.8906 -4.27975 2.5
      vertex -29.75 -3.89711 2.5
      vertex -27.5 -9.94522 2.5
    endloop
  endfacet
  facet normal -0 -0 1
    outer loop
      vertex -29.75 -3.89711 2.5
      vertex -30.5111 -3.34415 2.5
      vertex -27.5 -9.94522 2.5
    endloop
  endfacet
  facet normal 0 0 1
    outer loop
      vertex -31.611 -1.83031 2.5
      vertex -31.9017 -0.935603 2.5
      vertex -37.2815 2.07912 2.5
    endloop
  endfacet
  facet normal 0 0 1
    outer loop
      vertex -31.9017 -0.935603 2.5
      vertex -32 0 2.5
      vertex -37.2815 2.07912 2.5
    endloop
  endfacet
  facet normal 0 0 1
    outer loop
      vertex -23.8594 -2.64503 2.5
      vertex -24.4889 -3.34415 2.5
      vertex -27.5 -9.94522 2.5
    endloop
  endfacet
  facet normal 0 0 1
    outer loop
      vertex 17.5 -7 2.5
      vertex 27.5 -9.94522 2.5
      vertex 28.5453 -9.94522 2.5
    endloop
  endfacet
  facet normal 0 -0 1
    outer loop
      vertex -30.5902 9.51056 2.5
      vertex -37.2815 2.07912 2.5
      vertex -30.4744 9.53518 2.5
    endloop
  endfacet
  facet normal 0 -0 1
    outer loop
      vertex -32.5 8.66025 2.5
      vertex -37.2815 2.07912 2.5
      vertex -30.5902 9.51056 2.5
    endloop
  endfacet
  facet normal 0 -0 1
    outer loop
      vertex -34.1913 7.43145 2.5
      vertex -37.2815 2.07912 2.5
      vertex -32.5 8.66025 2.5
    endloop
  endfacet
  facet normal 0 -0 1
    outer loop
      vertex -35.5902 5.87785 2.5
      vertex -37.2815 2.07912 2.5
      vertex -34.1913 7.43145 2.5
    endloop
  endfacet
  facet normal 0 -0 1
    outer loop
      vertex -36.6355 4.06737 2.5
      vertex -37.2815 2.07912 2.5
      vertex -35.5902 5.87785 2.5
    endloop
  endfacet
  facet normal 0 0 1
    outer loop
      vertex 27.5 -10 2.5
      vertex -17.5 -7 2.5
      vertex -27.5 -9.94522 2.5
    endloop
  endfacet
  facet normal 0 0 1
    outer loop
      vertex -24.6 10 2.5
      vertex -18.5 7 2.5
      vertex 24.4 10 2.5
    endloop
  endfacet
  facet normal -0 0 1
    outer loop
      vertex 32.5 -8.66025 2.5
      vertex 17.5 -7 2.5
      vertex 30.5902 -9.51056 2.5
    endloop
  endfacet
  facet normal 0 -0 1
    outer loop
      vertex 17.5 -7 2.5
      vertex -17.5 -7 2.5
      vertex 27.5 -10 2.5
    endloop
  endfacet
  facet normal 0 0 1
    outer loop
      vertex -18.5 7 2.5
      vertex 18.5 7 2.5
      vertex 24.4 10 2.5
    endloop
  endfacet
  facet normal 0 0 1
    outer loop
      vertex 30.6737 9.47336 2.5
      vertex 34.1913 7.43145 2.5
      vertex 32.5 8.66025 2.5
    endloop
  endfacet
  facet normal 0 0 1
    outer loop
      vertex 30.6737 9.47336 2.5
      vertex 35.5902 5.87785 2.5
      vertex 34.1913 7.43145 2.5
    endloop
  endfacet
  facet normal 0 0 1
    outer loop
      vertex 30.6737 9.47336 2.5
      vertex 36.6355 4.06737 2.5
      vertex 35.5902 5.87785 2.5
    endloop
  endfacet
  facet normal 0 0 1
    outer loop
      vertex 30.6737 9.47336 2.5
      vertex 37.2815 2.07912 2.5
      vertex 36.6355 4.06737 2.5
    endloop
  endfacet
  facet normal 0 0 1
    outer loop
      vertex 30.6737 9.47336 2.5
      vertex 31.8443 1.11216 2.5
      vertex 37.2815 2.07912 2.5
    endloop
  endfacet
  facet normal 0 0 1
    outer loop
      vertex -17.5 -7 2.5
      vertex -23.0983 0.935603 2.5
      vertex -23 0 2.5
    endloop
  endfacet
  facet normal 0 0 1
    outer loop
      vertex -17.5 -7 2.5
      vertex -23.1995 1.24703 2.5
      vertex -23.0983 0.935603 2.5
    endloop
  endfacet
  facet normal 0 0 1
    outer loop
      vertex -17.5 -7 2.5
      vertex -18.5 7 2.5
      vertex -23.1995 1.24703 2.5
    endloop
  endfacet
endsolid OpenSCAD_Model
