solid OpenSCAD_Model
  facet normal -0 0 -1
    outer loop
      vertex -42.5 0 -2.5
      vertex -42.2815 2.07912 -2.5
      vertex -42.2815 -2.07912 -2.5
    endloop
  endfacet
  facet normal 0 -0 -1
    outer loop
      vertex -42.2815 -2.07912 -2.5
      vertex -42.2815 2.07912 -2.5
      vertex -41.6355 4.06737 -2.5
    endloop
  endfacet
  facet normal 0 0 -1
    outer loop
      vertex -42.2815 -2.07912 -2.5
      vertex -41.6355 4.06737 -2.5
      vertex -40.5902 5.87785 -2.5
    endloop
  endfacet
  facet normal 0 0 -1
    outer loop
      vertex -42.2815 -2.07912 -2.5
      vertex -40.5902 5.87785 -2.5
      vertex -39.1913 7.43145 -2.5
    endloop
  endfacet
  facet normal 0 0 -1
    outer loop
      vertex -42.2815 -2.07912 -2.5
      vertex -39.1913 7.43145 -2.5
      vertex -37.5 8.66025 -2.5
    endloop
  endfacet
  facet normal 0 0 -1
    outer loop
      vertex -42.2815 -2.07912 -2.5
      vertex -37.5 8.66025 -2.5
      vertex -35.5902 9.51056 -2.5
    endloop
  endfacet
  facet normal 0 0 -1
    outer loop
      vertex -42.2815 -2.07912 -2.5
      vertex -35.5902 9.51056 -2.5
      vertex -35.5729 9.51424 -2.5
    endloop
  endfacet
  facet normal 0 0 -1
    outer loop
      vertex -42.2815 -2.07912 -2.5
      vertex -35.5729 9.51424 -2.5
      vertex -36.8236 1.17574 -2.5
    endloop
  endfacet
  facet normal 0 0 -1
    outer loop
      vertex -42.2815 -2.07912 -2.5
      vertex -36.8236 1.17574 -2.5
      vertex -36.9017 0.935603 -2.5
    endloop
  endfacet
  facet normal 0 0 -1
    outer loop
      vertex -42.2815 -2.07912 -2.5
      vertex -36.9017 0.935603 -2.5
      vertex -37 0 -2.5
    endloop
  endfacet
  facet normal 0 0 -1
    outer loop
      vertex -37 0 -2.5
      vertex -36.9017 -0.935603 -2.5
      vertex -42.2815 -2.07912 -2.5
    endloop
  endfacet
  facet normal 0 0 -1
    outer loop
      vertex -36.9017 -0.935603 -2.5
      vertex -36.611 -1.83031 -2.5
      vertex -42.2815 -2.07912 -2.5
    endloop
  endfacet
  facet normal 0 0 -1
    outer loop
      vertex -36.611 -1.83031 -2.5
      vertex -36.1406 -2.64503 -2.5
      vertex -42.2815 -2.07912 -2.5
    endloop
  endfacet
  facet normal 0 0 -1
    outer loop
      vertex -36.1406 -2.64503 -2.5
      vertex -35.5111 -3.34415 -2.5
      vertex -42.2815 -2.07912 -2.5
    endloop
  endfacet
  facet normal 0 0 -1
    outer loop
      vertex -35.5111 -3.34415 -2.5
      vertex -34.75 -3.89711 -2.5
      vertex -42.2815 -2.07912 -2.5
    endloop
  endfacet
  facet normal 0 0 -1
    outer loop
      vertex -34.75 -3.89711 -2.5
      vertex -33.8906 -4.27975 -2.5
      vertex -42.2815 -2.07912 -2.5
    endloop
  endfacet
  facet normal 0 0 -1
    outer loop
      vertex -22.5 -7 -2.5
      vertex -28.0983 -0.935603 -2.5
      vertex -28 0 -2.5
    endloop
  endfacet
  facet normal 0 0 -1
    outer loop
      vertex -22.5 -7 -2.5
      vertex -28.389 -1.83031 -2.5
      vertex -28.0983 -0.935603 -2.5
    endloop
  endfacet
  facet normal 0 0 -1
    outer loop
      vertex -22.5 -7 -2.5
      vertex -28.8594 -2.64503 -2.5
      vertex -28.389 -1.83031 -2.5
    endloop
  endfacet
  facet normal 0 0 -1
    outer loop
      vertex -22.5 -7 -2.5
      vertex -29.4889 -3.34415 -2.5
      vertex -28.8594 -2.64503 -2.5
    endloop
  endfacet
  facet normal 0 0 -1
    outer loop
      vertex -22.5 -7 -2.5
      vertex -30.25 -3.89711 -2.5
      vertex -29.4889 -3.34415 -2.5
    endloop
  endfacet
  facet normal 0 0 -1
    outer loop
      vertex -22.5 -7 -2.5
      vertex -31.1094 -4.27975 -2.5
      vertex -30.25 -3.89711 -2.5
    endloop
  endfacet
  facet normal 0 0 -1
    outer loop
      vertex -28.0983 0.935603 -2.5
      vertex -28.1764 1.17574 -2.5
      vertex -29.5 10 -2.5
    endloop
  endfacet
  facet normal 0 -0 -1
    outer loop
      vertex -23.5 7 -2.5
      vertex -29.5 10 -2.5
      vertex 29.3 10 -2.5
    endloop
  endfacet
  facet normal 0 0 -1
    outer loop
      vertex -22.5 -7 -2.5
      vertex -32.0296 -4.47535 -2.5
      vertex -31.1094 -4.27975 -2.5
    endloop
  endfacet
  facet normal -0 0 -1
    outer loop
      vertex 23.5 7 -2.5
      vertex 29.3 10 -2.5
      vertex 28.1372 1.0551 -2.5
    endloop
  endfacet
  facet normal 0 0 -1
    outer loop
      vertex 28.8594 -2.64503 -2.5
      vertex 29.4889 -3.34415 -2.5
      vertex 22.5 -7 -2.5
    endloop
  endfacet
  facet normal 0 0 -1
    outer loop
      vertex 23.5 7 -2.5
      vertex 28.389 -1.83031 -2.5
      vertex 22.5 -7 -2.5
    endloop
  endfacet
  facet normal 0 0 -1
    outer loop
      vertex 28.389 -1.83031 -2.5
      vertex 28.8594 -2.64503 -2.5
      vertex 22.5 -7 -2.5
    endloop
  endfacet
  facet normal 0 0 -1
    outer loop
      vertex 36.9017 0.935603 -2.5
      vertex 36.8628 1.0551 -2.5
      vertex 35.7743 9.42859 -2.5
    endloop
  endfacet
  facet normal 0 -0 -1
    outer loop
      vertex 36.9017 0.935603 -2.5
      vertex 35.7743 9.42859 -2.5
      vertex 37.5 8.66025 -2.5
    endloop
  endfacet
  facet normal -0 0 -1
    outer loop
      vertex 36.9017 0.935603 -2.5
      vertex 37.5 8.66025 -2.5
      vertex 37 0 -2.5
    endloop
  endfacet
  facet normal 0 0 -1
    outer loop
      vertex 37 0 -2.5
      vertex 37.5 8.66025 -2.5
      vertex 39.1913 7.43145 -2.5
    endloop
  endfacet
  facet normal -0 0 -1
    outer loop
      vertex 37 0 -2.5
      vertex 39.1913 7.43145 -2.5
      vertex 36.9017 -0.935603 -2.5
    endloop
  endfacet
  facet normal 0 0 -1
    outer loop
      vertex 36.9017 -0.935603 -2.5
      vertex 39.1913 7.43145 -2.5
      vertex 40.5902 5.87785 -2.5
    endloop
  endfacet
  facet normal -0 0 -1
    outer loop
      vertex 36.9017 -0.935603 -2.5
      vertex 40.5902 5.87785 -2.5
      vertex 36.611 -1.83031 -2.5
    endloop
  endfacet
  facet normal 0 0 -1
    outer loop
      vertex 36.611 -1.83031 -2.5
      vertex 40.5902 5.87785 -2.5
      vertex 41.6355 4.06737 -2.5
    endloop
  endfacet
  facet normal -0 0 -1
    outer loop
      vertex 36.611 -1.83031 -2.5
      vertex 41.6355 4.06737 -2.5
      vertex 36.1406 -2.64503 -2.5
    endloop
  endfacet
  facet normal 0 0 -1
    outer loop
      vertex 36.1406 -2.64503 -2.5
      vertex 41.6355 4.06737 -2.5
      vertex 42.2815 2.07912 -2.5
    endloop
  endfacet
  facet normal -0 0 -1
    outer loop
      vertex 36.1406 -2.64503 -2.5
      vertex 42.2815 2.07912 -2.5
      vertex 35.5111 -3.34415 -2.5
    endloop
  endfacet
  facet normal 0 0 -1
    outer loop
      vertex 35.5111 -3.34415 -2.5
      vertex 42.2815 2.07912 -2.5
      vertex 42.5 0 -2.5
    endloop
  endfacet
  facet normal -0 0 -1
    outer loop
      vertex 35.5111 -3.34415 -2.5
      vertex 42.5 0 -2.5
      vertex 34.75 -3.89711 -2.5
    endloop
  endfacet
  facet normal 0 0 -1
    outer loop
      vertex 34.75 -3.89711 -2.5
      vertex 42.5 0 -2.5
      vertex 42.2815 -2.07912 -2.5
    endloop
  endfacet
  facet normal -0 0 -1
    outer loop
      vertex 34.75 -3.89711 -2.5
      vertex 42.2815 -2.07912 -2.5
      vertex 33.8906 -4.27975 -2.5
    endloop
  endfacet
  facet normal 0 0 -1
    outer loop
      vertex 33.8906 -4.27975 -2.5
      vertex 42.2815 -2.07912 -2.5
      vertex 41.6355 -4.06737 -2.5
    endloop
  endfacet
  facet normal -0 0 -1
    outer loop
      vertex 33.8906 -4.27975 -2.5
      vertex 41.6355 -4.06737 -2.5
      vertex 32.9704 -4.47535 -2.5
    endloop
  endfacet
  facet normal -0 0 -1
    outer loop
      vertex 32.9704 -4.47535 -2.5
      vertex 41.6355 -4.06737 -2.5
      vertex 40.5902 -5.87785 -2.5
    endloop
  endfacet
  facet normal 0 0 -1
    outer loop
      vertex 32.9704 -4.47535 -2.5
      vertex 40.5902 -5.87785 -2.5
      vertex 32.0296 -4.47535 -2.5
    endloop
  endfacet
  facet normal 0 0 -1
    outer loop
      vertex 29.4889 -3.34415 -2.5
      vertex 30.25 -3.89711 -2.5
      vertex 22.5 -7 -2.5
    endloop
  endfacet
  facet normal 0 0 -1
    outer loop
      vertex 22.5 -7 -2.5
      vertex 39.1913 -7.43145 -2.5
      vertex 37.5 -8.66025 -2.5
    endloop
  endfacet
  facet normal 0 0 -1
    outer loop
      vertex 31.1094 -4.27975 -2.5
      vertex 32.0296 -4.47535 -2.5
      vertex 39.1913 -7.43145 -2.5
    endloop
  endfacet
  facet normal 0 0 -1
    outer loop
      vertex 23.5 7 -2.5
      vertex 28.0983 -0.935603 -2.5
      vertex 28.389 -1.83031 -2.5
    endloop
  endfacet
  facet normal 0 0 -1
    outer loop
      vertex 23.5 7 -2.5
      vertex 28 0 -2.5
      vertex 28.0983 -0.935603 -2.5
    endloop
  endfacet
  facet normal 0 0 -1
    outer loop
      vertex 23.5 7 -2.5
      vertex 28.0983 0.935603 -2.5
      vertex 28 0 -2.5
    endloop
  endfacet
  facet normal 0 0 -1
    outer loop
      vertex -32.5 -9.94522 -2.5
      vertex 32.5 -10 -2.5
      vertex -32.5 -10 -2.5
    endloop
  endfacet
  facet normal 0 0 -1
    outer loop
      vertex -22.5 -7 -2.5
      vertex 32.5 -10 -2.5
      vertex -32.5 -9.94522 -2.5
    endloop
  endfacet
  facet normal -0 0 -1
    outer loop
      vertex -23.5 7 -2.5
      vertex 29.3 10 -2.5
      vertex 23.5 7 -2.5
    endloop
  endfacet
  facet normal 0 0 -1
    outer loop
      vertex -42.2815 -2.07912 -2.5
      vertex -33.5453 -9.94522 -2.5
      vertex -35.5902 -9.51056 -2.5
    endloop
  endfacet
  facet normal 0 0 -1
    outer loop
      vertex -42.2815 -2.07912 -2.5
      vertex -35.5902 -9.51056 -2.5
      vertex -37.5 -8.66025 -2.5
    endloop
  endfacet
  facet normal 0 0 -1
    outer loop
      vertex -42.2815 -2.07912 -2.5
      vertex -37.5 -8.66025 -2.5
      vertex -39.1913 -7.43145 -2.5
    endloop
  endfacet
  facet normal 0 0 -1
    outer loop
      vertex -42.2815 -2.07912 -2.5
      vertex -39.1913 -7.43145 -2.5
      vertex -40.5902 -5.87785 -2.5
    endloop
  endfacet
  facet normal 0 0 -1
    outer loop
      vertex -42.2815 -2.07912 -2.5
      vertex -40.5902 -5.87785 -2.5
      vertex -41.6355 -4.06737 -2.5
    endloop
  endfacet
  facet normal 0 -0 -1
    outer loop
      vertex -28.0983 0.935603 -2.5
      vertex -29.5 10 -2.5
      vertex -23.5 7 -2.5
    endloop
  endfacet
  facet normal 0 0 -1
    outer loop
      vertex -22.5 -7 -2.5
      vertex -32.9704 -4.47535 -2.5
      vertex -32.0296 -4.47535 -2.5
    endloop
  endfacet
  facet normal 0 0 -1
    outer loop
      vertex 23.5 7 -2.5
      vertex 28.1372 1.0551 -2.5
      vertex 28.0983 0.935603 -2.5
    endloop
  endfacet
  facet normal 0 0 -1
    outer loop
      vertex -32.9704 -4.47535 -2.5
      vertex -22.5 -7 -2.5
      vertex -32.5 -9.94522 -2.5
    endloop
  endfacet
  facet normal 0 0 -1
    outer loop
      vertex 30.25 -3.89711 -2.5
      vertex 31.1094 -4.27975 -2.5
      vertex 22.5 -7 -2.5
    endloop
  endfacet
  facet normal 0 0 -1
    outer loop
      vertex 31.1094 -4.27975 -2.5
      vertex 39.1913 -7.43145 -2.5
      vertex 22.5 -7 -2.5
    endloop
  endfacet
  facet normal 0 0 -1
    outer loop
      vertex -22.5 -7 -2.5
      vertex -28 0 -2.5
      vertex -28.0983 0.935603 -2.5
    endloop
  endfacet
  facet normal 0 0 -1
    outer loop
      vertex -33.5453 -9.94522 -2.5
      vertex -42.2815 -2.07912 -2.5
      vertex -33.8906 -4.27975 -2.5
    endloop
  endfacet
  facet normal 0 -0 -1
    outer loop
      vertex -33.5453 -9.94522 -2.5
      vertex -33.8906 -4.27975 -2.5
      vertex -32.9704 -4.47535 -2.5
    endloop
  endfacet
  facet normal -0 0 -1
    outer loop
      vertex -33.5453 -9.94522 -2.5
      vertex -32.9704 -4.47535 -2.5
      vertex -32.5 -9.94522 -2.5
    endloop
  endfacet
  facet normal 0 0 -1
    outer loop
      vertex -22.5 -7 -2.5
      vertex -28.0983 0.935603 -2.5
      vertex -23.5 7 -2.5
    endloop
  endfacet
  facet normal 0 0 -1
    outer loop
      vertex 32.0296 -4.47535 -2.5
      vertex 40.5902 -5.87785 -2.5
      vertex 39.1913 -7.43145 -2.5
    endloop
  endfacet
  facet normal 0 0 -1
    outer loop
      vertex 22.5 -7 -2.5
      vertex 37.5 -8.66025 -2.5
      vertex 35.5902 -9.51056 -2.5
    endloop
  endfacet
  facet normal 0 0 -1
    outer loop
      vertex 22.5 -7 -2.5
      vertex 35.5902 -9.51056 -2.5
      vertex 33.5453 -9.94522 -2.5
    endloop
  endfacet
  facet normal 0 0 -1
    outer loop
      vertex 22.5 -7 -2.5
      vertex 33.5453 -9.94522 -2.5
      vertex 32.5 -9.94522 -2.5
    endloop
  endfacet
  facet normal 0 0 -1
    outer loop
      vertex 22.5 -7 -2.5
      vertex 32.5 -9.94522 -2.5
      vertex 32.5 -10 -2.5
    endloop
  endfacet
  facet normal 0 0 -1
    outer loop
      vertex 22.5 -7 -2.5
      vertex 32.5 -10 -2.5
      vertex -22.5 -7 -2.5
    endloop
  endfacet
  facet normal -0.994522 0.104528 0
    outer loop
      vertex -42.5 0 -2.5
      vertex -42.5 0 2.5
      vertex -42.2815 2.07912 -2.5
    endloop
  endfacet
  facet normal -0.994522 0.104528 0
    outer loop
      vertex -42.2815 2.07912 -2.5
      vertex -42.5 0 2.5
      vertex -42.2815 2.07912 2.5
    endloop
  endfacet
  facet normal -0.994522 -0.104528 -0
    outer loop
      vertex -42.5 0 -2.5
      vertex -42.2815 -2.07912 -2.5
      vertex -42.5 0 2.5
    endloop
  endfacet
  facet normal -0.994522 -0.104528 0
    outer loop
      vertex -42.5 0 2.5
      vertex -42.2815 -2.07912 -2.5
      vertex -42.2815 -2.07912 2.5
    endloop
  endfacet
  facet normal -0.951057 -0.309017 -0
    outer loop
      vertex -42.2815 -2.07912 -2.5
      vertex -41.6355 -4.06737 -2.5
      vertex -42.2815 -2.07912 2.5
    endloop
  endfacet
  facet normal -0.951057 -0.309017 0
    outer loop
      vertex -42.2815 -2.07912 2.5
      vertex -41.6355 -4.06737 -2.5
      vertex -41.6355 -4.06737 2.5
    endloop
  endfacet
  facet normal -0.866025 -0.5 -0
    outer loop
      vertex -41.6355 -4.06737 -2.5
      vertex -40.5902 -5.87785 -2.5
      vertex -41.6355 -4.06737 2.5
    endloop
  endfacet
  facet normal -0.866025 -0.5 0
    outer loop
      vertex -41.6355 -4.06737 2.5
      vertex -40.5902 -5.87785 -2.5
      vertex -40.5902 -5.87785 2.5
    endloop
  endfacet
  facet normal -0.743145 -0.669131 -0
    outer loop
      vertex -40.5902 -5.87785 -2.5
      vertex -39.1913 -7.43145 -2.5
      vertex -40.5902 -5.87785 2.5
    endloop
  endfacet
  facet normal -0.743145 -0.669131 0
    outer loop
      vertex -40.5902 -5.87785 2.5
      vertex -39.1913 -7.43145 -2.5
      vertex -39.1913 -7.43145 2.5
    endloop
  endfacet
  facet normal -0.587785 -0.809017 0
    outer loop
      vertex -39.1913 -7.43145 2.5
      vertex -39.1913 -7.43145 -2.5
      vertex -37.5 -8.66025 -2.5
    endloop
  endfacet
  facet normal -0.587785 -0.809017 0
    outer loop
      vertex -37.5 -8.66025 2.5
      vertex -39.1913 -7.43145 2.5
      vertex -37.5 -8.66025 -2.5
    endloop
  endfacet
  facet normal -0.406737 -0.913545 0
    outer loop
      vertex -37.5 -8.66025 2.5
      vertex -37.5 -8.66025 -2.5
      vertex -35.5902 -9.51056 -2.5
    endloop
  endfacet
  facet normal -0.406737 -0.913545 0
    outer loop
      vertex -35.5902 -9.51056 2.5
      vertex -37.5 -8.66025 2.5
      vertex -35.5902 -9.51056 -2.5
    endloop
  endfacet
  facet normal -0.207912 -0.978148 0
    outer loop
      vertex -35.5902 -9.51056 2.5
      vertex -35.5902 -9.51056 -2.5
      vertex -33.5453 -9.94522 -2.5
    endloop
  endfacet
  facet normal -0.207912 -0.978148 0
    outer loop
      vertex -33.5453 -9.94522 2.5
      vertex -35.5902 -9.51056 2.5
      vertex -33.5453 -9.94522 -2.5
    endloop
  endfacet
  facet normal 0 -1 0
    outer loop
      vertex -33.5453 -9.94522 2.5
      vertex -33.5453 -9.94522 -2.5
      vertex -32.5 -9.94522 -2.5
    endloop
  endfacet
  facet normal 0 -1 0
    outer loop
      vertex -32.5 -9.94522 2.5
      vertex -33.5453 -9.94522 2.5
      vertex -32.5 -9.94522 -2.5
    endloop
  endfacet
  facet normal -1 -0 -0
    outer loop
      vertex -32.5 -10 -2.5
      vertex -32.5 -10 2.5
      vertex -32.5 -9.94522 -2.5
    endloop
  endfacet
  facet normal -1 0 0
    outer loop
      vertex -32.5 -9.94522 -2.5
      vertex -32.5 -10 2.5
      vertex -32.5 -9.94522 2.5
    endloop
  endfacet
  facet normal 0 -1 0
    outer loop
      vertex -32.5 -10 2.5
      vertex -32.5 -10 -2.5
      vertex 32.5 -10 -2.5
    endloop
  endfacet
  facet normal 0 -1 0
    outer loop
      vertex 32.5 -10 2.5
      vertex -32.5 -10 2.5
      vertex 32.5 -10 -2.5
    endloop
  endfacet
  facet normal 1 0 -0
    outer loop
      vertex 32.5 -10 2.5
      vertex 32.5 -10 -2.5
      vertex 32.5 -9.94522 -2.5
    endloop
  endfacet
  facet normal 1 0 0
    outer loop
      vertex 32.5 -9.94522 2.5
      vertex 32.5 -10 2.5
      vertex 32.5 -9.94522 -2.5
    endloop
  endfacet
  facet normal 0 -1 0
    outer loop
      vertex 32.5 -9.94522 2.5
      vertex 32.5 -9.94522 -2.5
      vertex 33.5453 -9.94522 -2.5
    endloop
  endfacet
  facet normal 0 -1 0
    outer loop
      vertex 33.5453 -9.94522 2.5
      vertex 32.5 -9.94522 2.5
      vertex 33.5453 -9.94522 -2.5
    endloop
  endfacet
  facet normal 0.207912 -0.978148 0
    outer loop
      vertex 33.5453 -9.94522 2.5
      vertex 33.5453 -9.94522 -2.5
      vertex 35.5902 -9.51056 -2.5
    endloop
  endfacet
  facet normal 0.207912 -0.978148 0
    outer loop
      vertex 35.5902 -9.51056 2.5
      vertex 33.5453 -9.94522 2.5
      vertex 35.5902 -9.51056 -2.5
    endloop
  endfacet
  facet normal 0.406737 -0.913545 0
    outer loop
      vertex 35.5902 -9.51056 2.5
      vertex 35.5902 -9.51056 -2.5
      vertex 37.5 -8.66025 -2.5
    endloop
  endfacet
  facet normal 0.406737 -0.913545 0
    outer loop
      vertex 37.5 -8.66025 2.5
      vertex 35.5902 -9.51056 2.5
      vertex 37.5 -8.66025 -2.5
    endloop
  endfacet
  facet normal 0.587785 -0.809017 0
    outer loop
      vertex 37.5 -8.66025 2.5
      vertex 37.5 -8.66025 -2.5
      vertex 39.1913 -7.43145 -2.5
    endloop
  endfacet
  facet normal 0.587785 -0.809017 0
    outer loop
      vertex 39.1913 -7.43145 2.5
      vertex 37.5 -8.66025 2.5
      vertex 39.1913 -7.43145 -2.5
    endloop
  endfacet
  facet normal 0.743145 -0.669131 0
    outer loop
      vertex 39.1913 -7.43145 2.5
      vertex 39.1913 -7.43145 -2.5
      vertex 40.5902 -5.87785 -2.5
    endloop
  endfacet
  facet normal 0.743145 -0.669131 0
    outer loop
      vertex 40.5902 -5.87785 2.5
      vertex 39.1913 -7.43145 2.5
      vertex 40.5902 -5.87785 -2.5
    endloop
  endfacet
  facet normal 0.866025 -0.5 0
    outer loop
      vertex 40.5902 -5.87785 2.5
      vertex 40.5902 -5.87785 -2.5
      vertex 41.6355 -4.06737 -2.5
    endloop
  endfacet
  facet normal 0.866025 -0.5 0
    outer loop
      vertex 41.6355 -4.06737 2.5
      vertex 40.5902 -5.87785 2.5
      vertex 41.6355 -4.06737 -2.5
    endloop
  endfacet
  facet normal 0.951057 -0.309017 0
    outer loop
      vertex 41.6355 -4.06737 2.5
      vertex 41.6355 -4.06737 -2.5
      vertex 42.2815 -2.07912 -2.5
    endloop
  endfacet
  facet normal 0.951057 -0.309017 0
    outer loop
      vertex 42.2815 -2.07912 2.5
      vertex 41.6355 -4.06737 2.5
      vertex 42.2815 -2.07912 -2.5
    endloop
  endfacet
  facet normal 0.994522 -0.104528 0
    outer loop
      vertex 42.2815 -2.07912 2.5
      vertex 42.2815 -2.07912 -2.5
      vertex 42.5 0 -2.5
    endloop
  endfacet
  facet normal 0.994522 -0.104528 0
    outer loop
      vertex 42.5 0 2.5
      vertex 42.2815 -2.07912 2.5
      vertex 42.5 0 -2.5
    endloop
  endfacet
  facet normal 0.994522 0.104528 0
    outer loop
      vertex 42.5 0 -2.5
      vertex 42.2815 2.07912 -2.5
      vertex 42.2815 2.07912 2.5
    endloop
  endfacet
  facet normal 0.994522 0.104528 -0
    outer loop
      vertex 42.5 0 2.5
      vertex 42.5 0 -2.5
      vertex 42.2815 2.07912 2.5
    endloop
  endfacet
  facet normal 0.951057 0.309017 0
    outer loop
      vertex 42.2815 2.07912 -2.5
      vertex 41.6355 4.06737 -2.5
      vertex 41.6355 4.06737 2.5
    endloop
  endfacet
  facet normal 0.951057 0.309017 -0
    outer loop
      vertex 42.2815 2.07912 2.5
      vertex 42.2815 2.07912 -2.5
      vertex 41.6355 4.06737 2.5
    endloop
  endfacet
  facet normal 0.866025 0.5 0
    outer loop
      vertex 41.6355 4.06737 -2.5
      vertex 40.5902 5.87785 -2.5
      vertex 40.5902 5.87785 2.5
    endloop
  endfacet
  facet normal 0.866025 0.5 -0
    outer loop
      vertex 41.6355 4.06737 2.5
      vertex 41.6355 4.06737 -2.5
      vertex 40.5902 5.87785 2.5
    endloop
  endfacet
  facet normal 0.743145 0.669131 0
    outer loop
      vertex 40.5902 5.87785 -2.5
      vertex 39.1913 7.43145 -2.5
      vertex 39.1913 7.43145 2.5
    endloop
  endfacet
  facet normal 0.743145 0.669131 -0
    outer loop
      vertex 40.5902 5.87785 2.5
      vertex 40.5902 5.87785 -2.5
      vertex 39.1913 7.43145 2.5
    endloop
  endfacet
  facet normal 0.587785 0.809017 0
    outer loop
      vertex 37.5 8.66025 -2.5
      vertex 37.5 8.66025 2.5
      vertex 39.1913 7.43145 -2.5
    endloop
  endfacet
  facet normal 0.587785 0.809017 0
    outer loop
      vertex 39.1913 7.43145 -2.5
      vertex 37.5 8.66025 2.5
      vertex 39.1913 7.43145 2.5
    endloop
  endfacet
  facet normal 0.406737 0.913545 0
    outer loop
      vertex 35.7743 9.42859 -2.5
      vertex 35.7743 9.42859 2.5
      vertex 37.5 8.66025 -2.5
    endloop
  endfacet
  facet normal 0.406737 0.913545 0
    outer loop
      vertex 37.5 8.66025 -2.5
      vertex 35.7743 9.42859 2.5
      vertex 37.5 8.66025 2.5
    endloop
  endfacet
  facet normal -0.991656 -0.128915 0
    outer loop
      vertex 36.8628 1.0551 2.5
      vertex 35.7743 9.42859 2.5
      vertex 36.8628 1.0551 -2.5
    endloop
  endfacet
  facet normal -0.991656 -0.128915 0
    outer loop
      vertex 36.8628 1.0551 -2.5
      vertex 35.7743 9.42859 2.5
      vertex 35.7743 9.42859 -2.5
    endloop
  endfacet
  facet normal -0.951057 -0.309016 0
    outer loop
      vertex 36.9017 0.935603 2.5
      vertex 36.8628 1.0551 2.5
      vertex 36.9017 0.935603 -2.5
    endloop
  endfacet
  facet normal -0.951057 -0.309016 0
    outer loop
      vertex 36.9017 0.935603 -2.5
      vertex 36.8628 1.0551 2.5
      vertex 36.8628 1.0551 -2.5
    endloop
  endfacet
  facet normal -0.994522 -0.104529 0
    outer loop
      vertex 37 0 2.5
      vertex 36.9017 0.935603 2.5
      vertex 37 0 -2.5
    endloop
  endfacet
  facet normal -0.994522 -0.104529 0
    outer loop
      vertex 37 0 -2.5
      vertex 36.9017 0.935603 2.5
      vertex 36.9017 0.935603 -2.5
    endloop
  endfacet
  facet normal -0.994522 0.104529 0
    outer loop
      vertex 37 0 2.5
      vertex 37 0 -2.5
      vertex 36.9017 -0.935603 2.5
    endloop
  endfacet
  facet normal -0.994522 0.104529 0
    outer loop
      vertex 36.9017 -0.935603 2.5
      vertex 37 0 -2.5
      vertex 36.9017 -0.935603 -2.5
    endloop
  endfacet
  facet normal -0.951057 0.309016 0
    outer loop
      vertex 36.9017 -0.935603 2.5
      vertex 36.9017 -0.935603 -2.5
      vertex 36.611 -1.83031 2.5
    endloop
  endfacet
  facet normal -0.951057 0.309016 0
    outer loop
      vertex 36.611 -1.83031 2.5
      vertex 36.9017 -0.935603 -2.5
      vertex 36.611 -1.83031 -2.5
    endloop
  endfacet
  facet normal -0.866025 0.500001 0
    outer loop
      vertex 36.611 -1.83031 2.5
      vertex 36.611 -1.83031 -2.5
      vertex 36.1406 -2.64503 2.5
    endloop
  endfacet
  facet normal -0.866025 0.500001 0
    outer loop
      vertex 36.1406 -2.64503 2.5
      vertex 36.611 -1.83031 -2.5
      vertex 36.1406 -2.64503 -2.5
    endloop
  endfacet
  facet normal -0.743145 0.66913 0
    outer loop
      vertex 36.1406 -2.64503 2.5
      vertex 36.1406 -2.64503 -2.5
      vertex 35.5111 -3.34415 2.5
    endloop
  endfacet
  facet normal -0.743145 0.66913 0
    outer loop
      vertex 35.5111 -3.34415 2.5
      vertex 36.1406 -2.64503 -2.5
      vertex 35.5111 -3.34415 -2.5
    endloop
  endfacet
  facet normal -0.587785 0.809017 0
    outer loop
      vertex 35.5111 -3.34415 2.5
      vertex 35.5111 -3.34415 -2.5
      vertex 34.75 -3.89711 2.5
    endloop
  endfacet
  facet normal -0.587785 0.809017 0
    outer loop
      vertex 34.75 -3.89711 2.5
      vertex 35.5111 -3.34415 -2.5
      vertex 34.75 -3.89711 -2.5
    endloop
  endfacet
  facet normal -0.406736 0.913546 0
    outer loop
      vertex 34.75 -3.89711 2.5
      vertex 34.75 -3.89711 -2.5
      vertex 33.8906 -4.27975 2.5
    endloop
  endfacet
  facet normal -0.406736 0.913546 0
    outer loop
      vertex 33.8906 -4.27975 2.5
      vertex 34.75 -3.89711 -2.5
      vertex 33.8906 -4.27975 -2.5
    endloop
  endfacet
  facet normal -0.207913 0.978147 0
    outer loop
      vertex 33.8906 -4.27975 2.5
      vertex 33.8906 -4.27975 -2.5
      vertex 32.9704 -4.47535 2.5
    endloop
  endfacet
  facet normal -0.207913 0.978147 0
    outer loop
      vertex 32.9704 -4.47535 2.5
      vertex 33.8906 -4.27975 -2.5
      vertex 32.9704 -4.47535 -2.5
    endloop
  endfacet
  facet normal 0 1 0
    outer loop
      vertex 32.9704 -4.47535 2.5
      vertex 32.9704 -4.47535 -2.5
      vertex 32.0296 -4.47535 2.5
    endloop
  endfacet
  facet normal 0 1 -0
    outer loop
      vertex 32.0296 -4.47535 2.5
      vertex 32.9704 -4.47535 -2.5
      vertex 32.0296 -4.47535 -2.5
    endloop
  endfacet
  facet normal 0.207913 0.978147 -0
    outer loop
      vertex 32.0296 -4.47535 2.5
      vertex 32.0296 -4.47535 -2.5
      vertex 31.1094 -4.27975 2.5
    endloop
  endfacet
  facet normal 0.207913 0.978147 -0
    outer loop
      vertex 31.1094 -4.27975 2.5
      vertex 32.0296 -4.47535 -2.5
      vertex 31.1094 -4.27975 -2.5
    endloop
  endfacet
  facet normal 0.406736 0.913546 -0
    outer loop
      vertex 31.1094 -4.27975 2.5
      vertex 31.1094 -4.27975 -2.5
      vertex 30.25 -3.89711 2.5
    endloop
  endfacet
  facet normal 0.406736 0.913546 -0
    outer loop
      vertex 30.25 -3.89711 2.5
      vertex 31.1094 -4.27975 -2.5
      vertex 30.25 -3.89711 -2.5
    endloop
  endfacet
  facet normal 0.587785 0.809017 -0
    outer loop
      vertex 30.25 -3.89711 2.5
      vertex 30.25 -3.89711 -2.5
      vertex 29.4889 -3.34415 2.5
    endloop
  endfacet
  facet normal 0.587785 0.809017 -0
    outer loop
      vertex 29.4889 -3.34415 2.5
      vertex 30.25 -3.89711 -2.5
      vertex 29.4889 -3.34415 -2.5
    endloop
  endfacet
  facet normal 0.743145 0.66913 0
    outer loop
      vertex 28.8594 -2.64503 2.5
      vertex 29.4889 -3.34415 2.5
      vertex 29.4889 -3.34415 -2.5
    endloop
  endfacet
  facet normal 0.743145 0.66913 0
    outer loop
      vertex 28.8594 -2.64503 -2.5
      vertex 28.8594 -2.64503 2.5
      vertex 29.4889 -3.34415 -2.5
    endloop
  endfacet
  facet normal 0.866025 0.500001 0
    outer loop
      vertex 28.389 -1.83031 2.5
      vertex 28.8594 -2.64503 2.5
      vertex 28.8594 -2.64503 -2.5
    endloop
  endfacet
  facet normal 0.866025 0.500001 0
    outer loop
      vertex 28.389 -1.83031 -2.5
      vertex 28.389 -1.83031 2.5
      vertex 28.8594 -2.64503 -2.5
    endloop
  endfacet
  facet normal 0.951057 0.309016 0
    outer loop
      vertex 28.0983 -0.935603 2.5
      vertex 28.389 -1.83031 2.5
      vertex 28.389 -1.83031 -2.5
    endloop
  endfacet
  facet normal 0.951057 0.309016 0
    outer loop
      vertex 28.0983 -0.935603 -2.5
      vertex 28.0983 -0.935603 2.5
      vertex 28.389 -1.83031 -2.5
    endloop
  endfacet
  facet normal 0.994522 0.104529 0
    outer loop
      vertex 28 0 2.5
      vertex 28.0983 -0.935603 2.5
      vertex 28.0983 -0.935603 -2.5
    endloop
  endfacet
  facet normal 0.994522 0.104529 0
    outer loop
      vertex 28 0 -2.5
      vertex 28 0 2.5
      vertex 28.0983 -0.935603 -2.5
    endloop
  endfacet
  facet normal 0.994522 -0.104529 0
    outer loop
      vertex 28.0983 0.935603 -2.5
      vertex 28.0983 0.935603 2.5
      vertex 28 0 2.5
    endloop
  endfacet
  facet normal 0.994522 -0.104529 0
    outer loop
      vertex 28 0 -2.5
      vertex 28.0983 0.935603 -2.5
      vertex 28 0 2.5
    endloop
  endfacet
  facet normal 0.951057 -0.309016 0
    outer loop
      vertex 28.1372 1.0551 -2.5
      vertex 28.1372 1.0551 2.5
      vertex 28.0983 0.935603 2.5
    endloop
  endfacet
  facet normal 0.951057 -0.309016 0
    outer loop
      vertex 28.0983 0.935603 -2.5
      vertex 28.1372 1.0551 -2.5
      vertex 28.0983 0.935603 2.5
    endloop
  endfacet
  facet normal 0.991656 -0.128915 0
    outer loop
      vertex 29.3 10 -2.5
      vertex 29.3 10 2.5
      vertex 28.1372 1.0551 2.5
    endloop
  endfacet
  facet normal 0.991656 -0.128915 0
    outer loop
      vertex 28.1372 1.0551 -2.5
      vertex 29.3 10 -2.5
      vertex 28.1372 1.0551 2.5
    endloop
  endfacet
  facet normal 0 1 0
    outer loop
      vertex -29.5 10 -2.5
      vertex -29.5 10 2.5
      vertex 29.3 10 -2.5
    endloop
  endfacet
  facet normal 0 1 0
    outer loop
      vertex 29.3 10 -2.5
      vertex -29.5 10 2.5
      vertex 29.3 10 2.5
    endloop
  endfacet
  facet normal -0.988936 -0.14834 0
    outer loop
      vertex -28.1764 1.17574 2.5
      vertex -29.5 10 2.5
      vertex -28.1764 1.17574 -2.5
    endloop
  endfacet
  facet normal -0.988936 -0.14834 0
    outer loop
      vertex -28.1764 1.17574 -2.5
      vertex -29.5 10 2.5
      vertex -29.5 10 -2.5
    endloop
  endfacet
  facet normal -0.951057 -0.309016 0
    outer loop
      vertex -28.0983 0.935603 2.5
      vertex -28.1764 1.17574 2.5
      vertex -28.0983 0.935603 -2.5
    endloop
  endfacet
  facet normal -0.951057 -0.309016 0
    outer loop
      vertex -28.0983 0.935603 -2.5
      vertex -28.1764 1.17574 2.5
      vertex -28.1764 1.17574 -2.5
    endloop
  endfacet
  facet normal -0.994522 -0.104529 0
    outer loop
      vertex -28 0 2.5
      vertex -28.0983 0.935603 2.5
      vertex -28 0 -2.5
    endloop
  endfacet
  facet normal -0.994522 -0.104529 0
    outer loop
      vertex -28 0 -2.5
      vertex -28.0983 0.935603 2.5
      vertex -28.0983 0.935603 -2.5
    endloop
  endfacet
  facet normal -0.994522 0.104529 0
    outer loop
      vertex -28 0 2.5
      vertex -28 0 -2.5
      vertex -28.0983 -0.935603 2.5
    endloop
  endfacet
  facet normal -0.994522 0.104529 0
    outer loop
      vertex -28.0983 -0.935603 2.5
      vertex -28 0 -2.5
      vertex -28.0983 -0.935603 -2.5
    endloop
  endfacet
  facet normal -0.951057 0.309016 0
    outer loop
      vertex -28.0983 -0.935603 2.5
      vertex -28.0983 -0.935603 -2.5
      vertex -28.389 -1.83031 2.5
    endloop
  endfacet
  facet normal -0.951057 0.309016 0
    outer loop
      vertex -28.389 -1.83031 2.5
      vertex -28.0983 -0.935603 -2.5
      vertex -28.389 -1.83031 -2.5
    endloop
  endfacet
  facet normal -0.866025 0.500001 0
    outer loop
      vertex -28.389 -1.83031 2.5
      vertex -28.389 -1.83031 -2.5
      vertex -28.8594 -2.64503 2.5
    endloop
  endfacet
  facet normal -0.866025 0.500001 0
    outer loop
      vertex -28.8594 -2.64503 2.5
      vertex -28.389 -1.83031 -2.5
      vertex -28.8594 -2.64503 -2.5
    endloop
  endfacet
  facet normal -0.743145 0.66913 0
    outer loop
      vertex -28.8594 -2.64503 2.5
      vertex -28.8594 -2.64503 -2.5
      vertex -29.4889 -3.34415 2.5
    endloop
  endfacet
  facet normal -0.743145 0.66913 0
    outer loop
      vertex -29.4889 -3.34415 2.5
      vertex -28.8594 -2.64503 -2.5
      vertex -29.4889 -3.34415 -2.5
    endloop
  endfacet
  facet normal -0.587785 0.809017 0
    outer loop
      vertex -29.4889 -3.34415 2.5
      vertex -29.4889 -3.34415 -2.5
      vertex -30.25 -3.89711 2.5
    endloop
  endfacet
  facet normal -0.587785 0.809017 0
    outer loop
      vertex -30.25 -3.89711 2.5
      vertex -29.4889 -3.34415 -2.5
      vertex -30.25 -3.89711 -2.5
    endloop
  endfacet
  facet normal -0.406736 0.913546 0
    outer loop
      vertex -30.25 -3.89711 2.5
      vertex -30.25 -3.89711 -2.5
      vertex -31.1094 -4.27975 2.5
    endloop
  endfacet
  facet normal -0.406736 0.913546 0
    outer loop
      vertex -31.1094 -4.27975 2.5
      vertex -30.25 -3.89711 -2.5
      vertex -31.1094 -4.27975 -2.5
    endloop
  endfacet
  facet normal -0.207913 0.978147 0
    outer loop
      vertex -31.1094 -4.27975 2.5
      vertex -31.1094 -4.27975 -2.5
      vertex -32.0296 -4.47535 2.5
    endloop
  endfacet
  facet normal -0.207913 0.978147 0
    outer loop
      vertex -32.0296 -4.47535 2.5
      vertex -31.1094 -4.27975 -2.5
      vertex -32.0296 -4.47535 -2.5
    endloop
  endfacet
  facet normal 0 1 0
    outer loop
      vertex -32.0296 -4.47535 2.5
      vertex -32.0296 -4.47535 -2.5
      vertex -32.9704 -4.47535 2.5
    endloop
  endfacet
  facet normal 0 1 -0
    outer loop
      vertex -32.9704 -4.47535 2.5
      vertex -32.0296 -4.47535 -2.5
      vertex -32.9704 -4.47535 -2.5
    endloop
  endfacet
  facet normal 0.207913 0.978147 -0
    outer loop
      vertex -32.9704 -4.47535 2.5
      vertex -32.9704 -4.47535 -2.5
      vertex -33.8906 -4.27975 2.5
    endloop
  endfacet
  facet normal 0.207913 0.978147 -0
    outer loop
      vertex -33.8906 -4.27975 2.5
      vertex -32.9704 -4.47535 -2.5
      vertex -33.8906 -4.27975 -2.5
    endloop
  endfacet
  facet normal 0.406736 0.913546 -0
    outer loop
      vertex -33.8906 -4.27975 2.5
      vertex -33.8906 -4.27975 -2.5
      vertex -34.75 -3.89711 2.5
    endloop
  endfacet
  facet normal 0.406736 0.913546 -0
    outer loop
      vertex -34.75 -3.89711 2.5
      vertex -33.8906 -4.27975 -2.5
      vertex -34.75 -3.89711 -2.5
    endloop
  endfacet
  facet normal 0.587785 0.809017 -0
    outer loop
      vertex -34.75 -3.89711 2.5
      vertex -34.75 -3.89711 -2.5
      vertex -35.5111 -3.34415 2.5
    endloop
  endfacet
  facet normal 0.587785 0.809017 -0
    outer loop
      vertex -35.5111 -3.34415 2.5
      vertex -34.75 -3.89711 -2.5
      vertex -35.5111 -3.34415 -2.5
    endloop
  endfacet
  facet normal 0.743145 0.66913 0
    outer loop
      vertex -36.1406 -2.64503 2.5
      vertex -35.5111 -3.34415 2.5
      vertex -35.5111 -3.34415 -2.5
    endloop
  endfacet
  facet normal 0.743145 0.66913 0
    outer loop
      vertex -36.1406 -2.64503 -2.5
      vertex -36.1406 -2.64503 2.5
      vertex -35.5111 -3.34415 -2.5
    endloop
  endfacet
  facet normal 0.866025 0.500001 0
    outer loop
      vertex -36.611 -1.83031 2.5
      vertex -36.1406 -2.64503 2.5
      vertex -36.1406 -2.64503 -2.5
    endloop
  endfacet
  facet normal 0.866025 0.500001 0
    outer loop
      vertex -36.611 -1.83031 -2.5
      vertex -36.611 -1.83031 2.5
      vertex -36.1406 -2.64503 -2.5
    endloop
  endfacet
  facet normal 0.951057 0.309016 0
    outer loop
      vertex -36.9017 -0.935603 2.5
      vertex -36.611 -1.83031 2.5
      vertex -36.611 -1.83031 -2.5
    endloop
  endfacet
  facet normal 0.951057 0.309016 0
    outer loop
      vertex -36.9017 -0.935603 -2.5
      vertex -36.9017 -0.935603 2.5
      vertex -36.611 -1.83031 -2.5
    endloop
  endfacet
  facet normal 0.994522 0.104529 0
    outer loop
      vertex -37 0 2.5
      vertex -36.9017 -0.935603 2.5
      vertex -36.9017 -0.935603 -2.5
    endloop
  endfacet
  facet normal 0.994522 0.104529 0
    outer loop
      vertex -37 0 -2.5
      vertex -37 0 2.5
      vertex -36.9017 -0.935603 -2.5
    endloop
  endfacet
  facet normal 0.994522 -0.104529 0
    outer loop
      vertex -36.9017 0.935603 -2.5
      vertex -36.9017 0.935603 2.5
      vertex -37 0 2.5
    endloop
  endfacet
  facet normal 0.994522 -0.104529 0
    outer loop
      vertex -37 0 -2.5
      vertex -36.9017 0.935603 -2.5
      vertex -37 0 2.5
    endloop
  endfacet
  facet normal 0.951057 -0.309016 0
    outer loop
      vertex -36.8236 1.17574 -2.5
      vertex -36.8236 1.17574 2.5
      vertex -36.9017 0.935603 2.5
    endloop
  endfacet
  facet normal 0.951057 -0.309016 0
    outer loop
      vertex -36.9017 0.935603 -2.5
      vertex -36.8236 1.17574 -2.5
      vertex -36.9017 0.935603 2.5
    endloop
  endfacet
  facet normal 0.988936 -0.14834 0
    outer loop
      vertex -35.5729 9.51424 -2.5
      vertex -35.5729 9.51424 2.5
      vertex -36.8236 1.17574 2.5
    endloop
  endfacet
  facet normal 0.988936 -0.14834 0
    outer loop
      vertex -36.8236 1.17574 -2.5
      vertex -35.5729 9.51424 -2.5
      vertex -36.8236 1.17574 2.5
    endloop
  endfacet
  facet normal -0.207912 0.978148 0
    outer loop
      vertex -35.5902 9.51056 -2.5
      vertex -35.5902 9.51056 2.5
      vertex -35.5729 9.51424 -2.5
    endloop
  endfacet
  facet normal -0.207912 0.978148 0
    outer loop
      vertex -35.5729 9.51424 -2.5
      vertex -35.5902 9.51056 2.5
      vertex -35.5729 9.51424 2.5
    endloop
  endfacet
  facet normal -0.406737 0.913545 0
    outer loop
      vertex -37.5 8.66025 -2.5
      vertex -37.5 8.66025 2.5
      vertex -35.5902 9.51056 -2.5
    endloop
  endfacet
  facet normal -0.406737 0.913545 0
    outer loop
      vertex -35.5902 9.51056 -2.5
      vertex -37.5 8.66025 2.5
      vertex -35.5902 9.51056 2.5
    endloop
  endfacet
  facet normal -0.587785 0.809017 0
    outer loop
      vertex -39.1913 7.43145 -2.5
      vertex -39.1913 7.43145 2.5
      vertex -37.5 8.66025 -2.5
    endloop
  endfacet
  facet normal -0.587785 0.809017 0
    outer loop
      vertex -37.5 8.66025 -2.5
      vertex -39.1913 7.43145 2.5
      vertex -37.5 8.66025 2.5
    endloop
  endfacet
  facet normal -0.743145 0.669131 0
    outer loop
      vertex -40.5902 5.87785 -2.5
      vertex -40.5902 5.87785 2.5
      vertex -39.1913 7.43145 -2.5
    endloop
  endfacet
  facet normal -0.743145 0.669131 0
    outer loop
      vertex -39.1913 7.43145 -2.5
      vertex -40.5902 5.87785 2.5
      vertex -39.1913 7.43145 2.5
    endloop
  endfacet
  facet normal -0.866025 0.5 0
    outer loop
      vertex -41.6355 4.06737 -2.5
      vertex -41.6355 4.06737 2.5
      vertex -40.5902 5.87785 -2.5
    endloop
  endfacet
  facet normal -0.866025 0.5 0
    outer loop
      vertex -40.5902 5.87785 -2.5
      vertex -41.6355 4.06737 2.5
      vertex -40.5902 5.87785 2.5
    endloop
  endfacet
  facet normal -0.951057 0.309017 0
    outer loop
      vertex -42.2815 2.07912 -2.5
      vertex -42.2815 2.07912 2.5
      vertex -41.6355 4.06737 -2.5
    endloop
  endfacet
  facet normal -0.951057 0.309017 0
    outer loop
      vertex -41.6355 4.06737 -2.5
      vertex -42.2815 2.07912 2.5
      vertex -41.6355 4.06737 2.5
    endloop
  endfacet
  facet normal 0.997459 0.071247 0
    outer loop
      vertex -23.5 7 2.5
      vertex -22.5 -7 2.5
      vertex -22.5 -7 -2.5
    endloop
  endfacet
  facet normal 0.997459 0.071247 0
    outer loop
      vertex -23.5 7 -2.5
      vertex -23.5 7 2.5
      vertex -22.5 -7 -2.5
    endloop
  endfacet
  facet normal 0 -1 0
    outer loop
      vertex 23.5 7 -2.5
      vertex 23.5 7 2.5
      vertex -23.5 7 2.5
    endloop
  endfacet
  facet normal -0 -1 -0
    outer loop
      vertex -23.5 7 -2.5
      vertex 23.5 7 -2.5
      vertex -23.5 7 2.5
    endloop
  endfacet
  facet normal -0.997459 0.071247 0
    outer loop
      vertex 23.5 7 2.5
      vertex 23.5 7 -2.5
      vertex 22.5 -7 2.5
    endloop
  endfacet
  facet normal -0.997459 0.071247 0
    outer loop
      vertex 22.5 -7 2.5
      vertex 23.5 7 -2.5
      vertex 22.5 -7 -2.5
    endloop
  endfacet
  facet normal 0 1 0
    outer loop
      vertex 22.5 -7 2.5
      vertex 22.5 -7 -2.5
      vertex -22.5 -7 2.5
    endloop
  endfacet
  facet normal 0 1 -0
    outer loop
      vertex -22.5 -7 2.5
      vertex 22.5 -7 -2.5
      vertex -22.5 -7 -2.5
    endloop
  endfacet
  facet normal 0 0 1
    outer loop
      vertex -42.2815 2.07912 2.5
      vertex -42.5 0 2.5
      vertex -42.2815 -2.07912 2.5
    endloop
  endfacet
  facet normal 0 0 1
    outer loop
      vertex -40.5902 -5.87785 2.5
      vertex -42.2815 2.07912 2.5
      vertex -41.6355 -4.06737 2.5
    endloop
  endfacet
  facet normal 0 0 1
    outer loop
      vertex -41.6355 -4.06737 2.5
      vertex -42.2815 2.07912 2.5
      vertex -42.2815 -2.07912 2.5
    endloop
  endfacet
  facet normal 0 0 1
    outer loop
      vertex -39.1913 -7.43145 2.5
      vertex -42.2815 2.07912 2.5
      vertex -40.5902 -5.87785 2.5
    endloop
  endfacet
  facet normal 0 0 1
    outer loop
      vertex -37.5 -8.66025 2.5
      vertex -42.2815 2.07912 2.5
      vertex -39.1913 -7.43145 2.5
    endloop
  endfacet
  facet normal 0 0 1
    outer loop
      vertex -35.5902 -9.51056 2.5
      vertex -42.2815 2.07912 2.5
      vertex -37.5 -8.66025 2.5
    endloop
  endfacet
  facet normal 0 0 1
    outer loop
      vertex -33.5453 -9.94522 2.5
      vertex -42.2815 2.07912 2.5
      vertex -35.5902 -9.51056 2.5
    endloop
  endfacet
  facet normal -0 0 1
    outer loop
      vertex -32.5 -9.94522 2.5
      vertex -42.2815 2.07912 2.5
      vertex -33.5453 -9.94522 2.5
    endloop
  endfacet
  facet normal -0 -0 1
    outer loop
      vertex -35.5111 -3.34415 2.5
      vertex -42.2815 2.07912 2.5
      vertex -32.5 -9.94522 2.5
    endloop
  endfacet
  facet normal -0 0 1
    outer loop
      vertex 32.5 -10 2.5
      vertex -32.5 -9.94522 2.5
      vertex -32.5 -10 2.5
    endloop
  endfacet
  facet normal 0 0 1
    outer loop
      vertex -36.8236 1.17574 2.5
      vertex -35.5729 9.51424 2.5
      vertex -42.2815 2.07912 2.5
    endloop
  endfacet
  facet normal 0 0 1
    outer loop
      vertex 22.5 -7 2.5
      vertex 32.5 -10 2.5
      vertex 32.5 -9.94522 2.5
    endloop
  endfacet
  facet normal 0 -0 1
    outer loop
      vertex 22.5 -7 2.5
      vertex -22.5 -7 2.5
      vertex 32.5 -10 2.5
    endloop
  endfacet
  facet normal 0 0 1
    outer loop
      vertex 22.5 -7 2.5
      vertex 32.5 -9.94522 2.5
      vertex 33.5453 -9.94522 2.5
    endloop
  endfacet
  facet normal 0 0 1
    outer loop
      vertex 32.0296 -4.47535 2.5
      vertex 39.1913 -7.43145 2.5
      vertex 40.5902 -5.87785 2.5
    endloop
  endfacet
  facet normal 0 0 1
    outer loop
      vertex 23.5 7 2.5
      vertex 28.389 -1.83031 2.5
      vertex 28.0983 -0.935603 2.5
    endloop
  endfacet
  facet normal 0 0 1
    outer loop
      vertex 36.9017 0.935603 2.5
      vertex 37 0 2.5
      vertex 42.5 0 2.5
    endloop
  endfacet
  facet normal 0 -0 1
    outer loop
      vertex 29.4889 -3.34415 2.5
      vertex 22.5 -7 2.5
      vertex 30.25 -3.89711 2.5
    endloop
  endfacet
  facet normal 0 -0 1
    outer loop
      vertex 28.8594 -2.64503 2.5
      vertex 22.5 -7 2.5
      vertex 29.4889 -3.34415 2.5
    endloop
  endfacet
  facet normal 0 0 1
    outer loop
      vertex -22.5 -7 2.5
      vertex -28 0 2.5
      vertex -28.0983 -0.935603 2.5
    endloop
  endfacet
  facet normal 0 -0 1
    outer loop
      vertex 42.2815 2.07912 2.5
      vertex 36.8628 1.0551 2.5
      vertex 42.5 0 2.5
    endloop
  endfacet
  facet normal 0 0 1
    outer loop
      vertex 36.8628 1.0551 2.5
      vertex 36.9017 0.935603 2.5
      vertex 42.5 0 2.5
    endloop
  endfacet
  facet normal 0 0 1
    outer loop
      vertex 42.5 0 2.5
      vertex 37 0 2.5
      vertex 42.2815 -2.07912 2.5
    endloop
  endfacet
  facet normal 0 -0 1
    outer loop
      vertex 37 0 2.5
      vertex 36.9017 -0.935603 2.5
      vertex 42.2815 -2.07912 2.5
    endloop
  endfacet
  facet normal -0 0 1
    outer loop
      vertex 42.2815 -2.07912 2.5
      vertex 36.611 -1.83031 2.5
      vertex 41.6355 -4.06737 2.5
    endloop
  endfacet
  facet normal 0 -0 1
    outer loop
      vertex 23.5 7 2.5
      vertex 22.5 -7 2.5
      vertex 28.389 -1.83031 2.5
    endloop
  endfacet
  facet normal 0 -0 1
    outer loop
      vertex 36.611 -1.83031 2.5
      vertex 36.1406 -2.64503 2.5
      vertex 41.6355 -4.06737 2.5
    endloop
  endfacet
  facet normal 0 -0 1
    outer loop
      vertex 36.1406 -2.64503 2.5
      vertex 35.5111 -3.34415 2.5
      vertex 41.6355 -4.06737 2.5
    endloop
  endfacet
  facet normal -0 0 1
    outer loop
      vertex 41.6355 -4.06737 2.5
      vertex 34.75 -3.89711 2.5
      vertex 40.5902 -5.87785 2.5
    endloop
  endfacet
  facet normal 0 -0 1
    outer loop
      vertex 34.75 -3.89711 2.5
      vertex 33.8906 -4.27975 2.5
      vertex 40.5902 -5.87785 2.5
    endloop
  endfacet
  facet normal 0 -0 1
    outer loop
      vertex 33.8906 -4.27975 2.5
      vertex 32.9704 -4.47535 2.5
      vertex 40.5902 -5.87785 2.5
    endloop
  endfacet
  facet normal 0 -0 1
    outer loop
      vertex 32.9704 -4.47535 2.5
      vertex 32.0296 -4.47535 2.5
      vertex 40.5902 -5.87785 2.5
    endloop
  endfacet
  facet normal 0 0 1
    outer loop
      vertex 22.5 -7 2.5
      vertex 33.5453 -9.94522 2.5
      vertex 35.5902 -9.51056 2.5
    endloop
  endfacet
  facet normal 0 0 1
    outer loop
      vertex 31.1094 -4.27975 2.5
      vertex 37.5 -8.66025 2.5
      vertex 39.1913 -7.43145 2.5
    endloop
  endfacet
  facet normal 0 0 1
    outer loop
      vertex 23.5 7 2.5
      vertex 28.0983 -0.935603 2.5
      vertex 28 0 2.5
    endloop
  endfacet
  facet normal 0 -0 1
    outer loop
      vertex 35.5111 -3.34415 2.5
      vertex 34.75 -3.89711 2.5
      vertex 41.6355 -4.06737 2.5
    endloop
  endfacet
  facet normal 0 0 1
    outer loop
      vertex 30.25 -3.89711 2.5
      vertex 37.5 -8.66025 2.5
      vertex 31.1094 -4.27975 2.5
    endloop
  endfacet
  facet normal 0 -0 1
    outer loop
      vertex 36.9017 -0.935603 2.5
      vertex 36.611 -1.83031 2.5
      vertex 42.2815 -2.07912 2.5
    endloop
  endfacet
  facet normal 0 -0 1
    outer loop
      vertex 30.25 -3.89711 2.5
      vertex 22.5 -7 2.5
      vertex 37.5 -8.66025 2.5
    endloop
  endfacet
  facet normal 0 0 1
    outer loop
      vertex -22.5 -7 2.5
      vertex -28.0983 -0.935603 2.5
      vertex -28.389 -1.83031 2.5
    endloop
  endfacet
  facet normal 0 0 1
    outer loop
      vertex 23.5 7 2.5
      vertex 28 0 2.5
      vertex 28.0983 0.935603 2.5
    endloop
  endfacet
  facet normal 0 0 1
    outer loop
      vertex 23.5 7 2.5
      vertex 28.0983 0.935603 2.5
      vertex 28.1372 1.0551 2.5
    endloop
  endfacet
  facet normal 0 0 1
    outer loop
      vertex 31.1094 -4.27975 2.5
      vertex 39.1913 -7.43145 2.5
      vertex 32.0296 -4.47535 2.5
    endloop
  endfacet
  facet normal 0 0 1
    outer loop
      vertex -35.5111 -3.34415 2.5
      vertex -36.1406 -2.64503 2.5
      vertex -42.2815 2.07912 2.5
    endloop
  endfacet
  facet normal -0 0 1
    outer loop
      vertex -22.5 -7 2.5
      vertex -28.389 -1.83031 2.5
      vertex -32.5 -9.94522 2.5
    endloop
  endfacet
  facet normal 0 0 1
    outer loop
      vertex -28.389 -1.83031 2.5
      vertex -28.8594 -2.64503 2.5
      vertex -32.5 -9.94522 2.5
    endloop
  endfacet
  facet normal 0 0 1
    outer loop
      vertex -29.4889 -3.34415 2.5
      vertex -30.25 -3.89711 2.5
      vertex -32.5 -9.94522 2.5
    endloop
  endfacet
  facet normal 0 0 1
    outer loop
      vertex -37 0 2.5
      vertex -36.9017 0.935603 2.5
      vertex -42.2815 2.07912 2.5
    endloop
  endfacet
  facet normal 0 0 1
    outer loop
      vertex -30.25 -3.89711 2.5
      vertex -31.1094 -4.27975 2.5
      vertex -32.5 -9.94522 2.5
    endloop
  endfacet
  facet normal 0 0 1
    outer loop
      vertex -31.1094 -4.27975 2.5
      vertex -32.0296 -4.47535 2.5
      vertex -32.5 -9.94522 2.5
    endloop
  endfacet
  facet normal 0 0 1
    outer loop
      vertex -32.0296 -4.47535 2.5
      vertex -32.9704 -4.47535 2.5
      vertex -32.5 -9.94522 2.5
    endloop
  endfacet
  facet normal -0 -0 1
    outer loop
      vertex -32.9704 -4.47535 2.5
      vertex -33.8906 -4.27975 2.5
      vertex -32.5 -9.94522 2.5
    endloop
  endfacet
  facet normal -0 -0 1
    outer loop
      vertex -33.8906 -4.27975 2.5
      vertex -34.75 -3.89711 2.5
      vertex -32.5 -9.94522 2.5
    endloop
  endfacet
  facet normal -0 -0 1
    outer loop
      vertex -34.75 -3.89711 2.5
      vertex -35.5111 -3.34415 2.5
      vertex -32.5 -9.94522 2.5
    endloop
  endfacet
  facet normal 0 0 1
    outer loop
      vertex -36.611 -1.83031 2.5
      vertex -36.9017 -0.935603 2.5
      vertex -42.2815 2.07912 2.5
    endloop
  endfacet
  facet normal 0 0 1
    outer loop
      vertex -36.9017 -0.935603 2.5
      vertex -37 0 2.5
      vertex -42.2815 2.07912 2.5
    endloop
  endfacet
  facet normal -0 0 1
    outer loop
      vertex -36.8236 1.17574 2.5
      vertex -42.2815 2.07912 2.5
      vertex -36.9017 0.935603 2.5
    endloop
  endfacet
  facet normal 0 0 1
    outer loop
      vertex -28.8594 -2.64503 2.5
      vertex -29.4889 -3.34415 2.5
      vertex -32.5 -9.94522 2.5
    endloop
  endfacet
  facet normal 0 0 1
    outer loop
      vertex -36.1406 -2.64503 2.5
      vertex -36.611 -1.83031 2.5
      vertex -42.2815 2.07912 2.5
    endloop
  endfacet
  facet normal 0 -0 1
    outer loop
      vertex -35.5902 9.51056 2.5
      vertex -42.2815 2.07912 2.5
      vertex -35.5729 9.51424 2.5
    endloop
  endfacet
  facet normal 0 -0 1
    outer loop
      vertex -37.5 8.66025 2.5
      vertex -42.2815 2.07912 2.5
      vertex -35.5902 9.51056 2.5
    endloop
  endfacet
  facet normal 0 -0 1
    outer loop
      vertex -39.1913 7.43145 2.5
      vertex -42.2815 2.07912 2.5
      vertex -37.5 8.66025 2.5
    endloop
  endfacet
  facet normal 0 -0 1
    outer loop
      vertex -40.5902 5.87785 2.5
      vertex -42.2815 2.07912 2.5
      vertex -39.1913 7.43145 2.5
    endloop
  endfacet
  facet normal 0 -0 1
    outer loop
      vertex -41.6355 4.06737 2.5
      vertex -42.2815 2.07912 2.5
      vertex -40.5902 5.87785 2.5
    endloop
  endfacet
  facet normal 0 0 1
    outer loop
      vertex 32.5 -10 2.5
      vertex -22.5 -7 2.5
      vertex -32.5 -9.94522 2.5
    endloop
  endfacet
  facet normal 0 0 1
    outer loop
      vertex -29.5 10 2.5
      vertex -23.5 7 2.5
      vertex 29.3 10 2.5
    endloop
  endfacet
  facet normal 0 0 1
    outer loop
      vertex 28.1372 1.0551 2.5
      vertex 29.3 10 2.5
      vertex 23.5 7 2.5
    endloop
  endfacet
  facet normal -0 0 1
    outer loop
      vertex 37.5 -8.66025 2.5
      vertex 22.5 -7 2.5
      vertex 35.5902 -9.51056 2.5
    endloop
  endfacet
  facet normal 0 -0 1
    outer loop
      vertex 28.389 -1.83031 2.5
      vertex 22.5 -7 2.5
      vertex 28.8594 -2.64503 2.5
    endloop
  endfacet
  facet normal 0 0 1
    outer loop
      vertex -23.5 7 2.5
      vertex 23.5 7 2.5
      vertex 29.3 10 2.5
    endloop
  endfacet
  facet normal 0 0 1
    outer loop
      vertex 35.7743 9.42859 2.5
      vertex 39.1913 7.43145 2.5
      vertex 37.5 8.66025 2.5
    endloop
  endfacet
  facet normal 0 0 1
    outer loop
      vertex 35.7743 9.42859 2.5
      vertex 40.5902 5.87785 2.5
      vertex 39.1913 7.43145 2.5
    endloop
  endfacet
  facet normal 0 0 1
    outer loop
      vertex 35.7743 9.42859 2.5
      vertex 41.6355 4.06737 2.5
      vertex 40.5902 5.87785 2.5
    endloop
  endfacet
  facet normal 0 0 1
    outer loop
      vertex 35.7743 9.42859 2.5
      vertex 42.2815 2.07912 2.5
      vertex 41.6355 4.06737 2.5
    endloop
  endfacet
  facet normal 0 0 1
    outer loop
      vertex 35.7743 9.42859 2.5
      vertex 36.8628 1.0551 2.5
      vertex 42.2815 2.07912 2.5
    endloop
  endfacet
  facet normal 0 0 1
    outer loop
      vertex -29.5 10 2.5
      vertex -28.1764 1.17574 2.5
      vertex -23.5 7 2.5
    endloop
  endfacet
  facet normal 0 0 1
    outer loop
      vertex -22.5 -7 2.5
      vertex -28.0983 0.935603 2.5
      vertex -28 0 2.5
    endloop
  endfacet
  facet normal 0 0 1
    outer loop
      vertex -22.5 -7 2.5
      vertex -28.1764 1.17574 2.5
      vertex -28.0983 0.935603 2.5
    endloop
  endfacet
  facet normal 0 0 1
    outer loop
      vertex -22.5 -7 2.5
      vertex -23.5 7 2.5
      vertex -28.1764 1.17574 2.5
    endloop
  endfacet
endsolid OpenSCAD_Model
