solid OpenSCAD_Model
  facet normal -0 0 -1
    outer loop
      vertex -40 0 -2.5
      vertex -39.7815 2.07912 -2.5
      vertex -39.7815 -2.07912 -2.5
    endloop
  endfacet
  facet normal 0 -0 -1
    outer loop
      vertex -39.7815 -2.07912 -2.5
      vertex -39.7815 2.07912 -2.5
      vertex -39.1355 4.06737 -2.5
    endloop
  endfacet
  facet normal 0 0 -1
    outer loop
      vertex -39.7815 -2.07912 -2.5
      vertex -39.1355 4.06737 -2.5
      vertex -38.0902 5.87785 -2.5
    endloop
  endfacet
  facet normal 0 0 -1
    outer loop
      vertex -39.7815 -2.07912 -2.5
      vertex -38.0902 5.87785 -2.5
      vertex -36.6913 7.43145 -2.5
    endloop
  endfacet
  facet normal 0 0 -1
    outer loop
      vertex -39.7815 -2.07912 -2.5
      vertex -36.6913 7.43145 -2.5
      vertex -35 8.66025 -2.5
    endloop
  endfacet
  facet normal 0 0 -1
    outer loop
      vertex -39.7815 -2.07912 -2.5
      vertex -35 8.66025 -2.5
      vertex -33.0902 9.51056 -2.5
    endloop
  endfacet
  facet normal 0 0 -1
    outer loop
      vertex -39.7815 -2.07912 -2.5
      vertex -33.0902 9.51056 -2.5
      vertex -32.9744 9.53518 -2.5
    endloop
  endfacet
  facet normal 0 0 -1
    outer loop
      vertex -39.7815 -2.07912 -2.5
      vertex -32.9744 9.53518 -2.5
      vertex -34.3005 1.24703 -2.5
    endloop
  endfacet
  facet normal 0 0 -1
    outer loop
      vertex -39.7815 -2.07912 -2.5
      vertex -34.3005 1.24703 -2.5
      vertex -34.4017 0.935603 -2.5
    endloop
  endfacet
  facet normal 0 0 -1
    outer loop
      vertex -39.7815 -2.07912 -2.5
      vertex -34.4017 0.935603 -2.5
      vertex -34.5 0 -2.5
    endloop
  endfacet
  facet normal 0 0 -1
    outer loop
      vertex -34.5 0 -2.5
      vertex -34.4017 -0.935603 -2.5
      vertex -39.7815 -2.07912 -2.5
    endloop
  endfacet
  facet normal 0 0 -1
    outer loop
      vertex -34.4017 -0.935603 -2.5
      vertex -34.111 -1.83031 -2.5
      vertex -39.7815 -2.07912 -2.5
    endloop
  endfacet
  facet normal 0 0 -1
    outer loop
      vertex -34.111 -1.83031 -2.5
      vertex -33.6406 -2.64503 -2.5
      vertex -39.7815 -2.07912 -2.5
    endloop
  endfacet
  facet normal 0 0 -1
    outer loop
      vertex -33.6406 -2.64503 -2.5
      vertex -33.0111 -3.34415 -2.5
      vertex -39.7815 -2.07912 -2.5
    endloop
  endfacet
  facet normal 0 0 -1
    outer loop
      vertex -33.0111 -3.34415 -2.5
      vertex -32.25 -3.89711 -2.5
      vertex -39.7815 -2.07912 -2.5
    endloop
  endfacet
  facet normal 0 0 -1
    outer loop
      vertex -32.25 -3.89711 -2.5
      vertex -31.3906 -4.27975 -2.5
      vertex -39.7815 -2.07912 -2.5
    endloop
  endfacet
  facet normal 0 0 -1
    outer loop
      vertex -20 -7 -2.5
      vertex -25.5983 -0.935603 -2.5
      vertex -25.5 0 -2.5
    endloop
  endfacet
  facet normal 0 0 -1
    outer loop
      vertex -20 -7 -2.5
      vertex -25.889 -1.83031 -2.5
      vertex -25.5983 -0.935603 -2.5
    endloop
  endfacet
  facet normal 0 0 -1
    outer loop
      vertex -20 -7 -2.5
      vertex -26.3594 -2.64503 -2.5
      vertex -25.889 -1.83031 -2.5
    endloop
  endfacet
  facet normal 0 0 -1
    outer loop
      vertex -20 -7 -2.5
      vertex -26.9889 -3.34415 -2.5
      vertex -26.3594 -2.64503 -2.5
    endloop
  endfacet
  facet normal 0 0 -1
    outer loop
      vertex -20 -7 -2.5
      vertex -27.75 -3.89711 -2.5
      vertex -26.9889 -3.34415 -2.5
    endloop
  endfacet
  facet normal 0 0 -1
    outer loop
      vertex -20 -7 -2.5
      vertex -28.6094 -4.27975 -2.5
      vertex -27.75 -3.89711 -2.5
    endloop
  endfacet
  facet normal 0 0 -1
    outer loop
      vertex -25.5983 0.935603 -2.5
      vertex -25.6995 1.24703 -2.5
      vertex -27.1 10 -2.5
    endloop
  endfacet
  facet normal 0 -0 -1
    outer loop
      vertex -21 7 -2.5
      vertex -27.1 10 -2.5
      vertex 26.9 10 -2.5
    endloop
  endfacet
  facet normal 0 0 -1
    outer loop
      vertex -20 -7 -2.5
      vertex -29.5296 -4.47535 -2.5
      vertex -28.6094 -4.27975 -2.5
    endloop
  endfacet
  facet normal -0 0 -1
    outer loop
      vertex 21 7 -2.5
      vertex 26.9 10 -2.5
      vertex 25.6557 1.11216 -2.5
    endloop
  endfacet
  facet normal 0 0 -1
    outer loop
      vertex 25.889 -1.83031 -2.5
      vertex 26.3594 -2.64503 -2.5
      vertex 20 -7 -2.5
    endloop
  endfacet
  facet normal 0 0 -1
    outer loop
      vertex 21 7 -2.5
      vertex 25.889 -1.83031 -2.5
      vertex 20 -7 -2.5
    endloop
  endfacet
  facet normal 0 0 -1
    outer loop
      vertex 34.4017 0.935603 -2.5
      vertex 34.3443 1.11216 -2.5
      vertex 33.1737 9.47336 -2.5
    endloop
  endfacet
  facet normal 0 -0 -1
    outer loop
      vertex 34.4017 0.935603 -2.5
      vertex 33.1737 9.47336 -2.5
      vertex 35 8.66025 -2.5
    endloop
  endfacet
  facet normal -0 0 -1
    outer loop
      vertex 34.4017 0.935603 -2.5
      vertex 35 8.66025 -2.5
      vertex 34.5 0 -2.5
    endloop
  endfacet
  facet normal 0 0 -1
    outer loop
      vertex 34.5 0 -2.5
      vertex 35 8.66025 -2.5
      vertex 36.6913 7.43145 -2.5
    endloop
  endfacet
  facet normal -0 0 -1
    outer loop
      vertex 34.5 0 -2.5
      vertex 36.6913 7.43145 -2.5
      vertex 34.4017 -0.935603 -2.5
    endloop
  endfacet
  facet normal 0 0 -1
    outer loop
      vertex 34.4017 -0.935603 -2.5
      vertex 36.6913 7.43145 -2.5
      vertex 38.0902 5.87785 -2.5
    endloop
  endfacet
  facet normal -0 0 -1
    outer loop
      vertex 34.4017 -0.935603 -2.5
      vertex 38.0902 5.87785 -2.5
      vertex 34.111 -1.83031 -2.5
    endloop
  endfacet
  facet normal 0 0 -1
    outer loop
      vertex 34.111 -1.83031 -2.5
      vertex 38.0902 5.87785 -2.5
      vertex 39.1355 4.06737 -2.5
    endloop
  endfacet
  facet normal -0 0 -1
    outer loop
      vertex 34.111 -1.83031 -2.5
      vertex 39.1355 4.06737 -2.5
      vertex 33.6406 -2.64503 -2.5
    endloop
  endfacet
  facet normal 0 0 -1
    outer loop
      vertex 33.6406 -2.64503 -2.5
      vertex 39.1355 4.06737 -2.5
      vertex 39.7815 2.07912 -2.5
    endloop
  endfacet
  facet normal -0 0 -1
    outer loop
      vertex 33.6406 -2.64503 -2.5
      vertex 39.7815 2.07912 -2.5
      vertex 33.0111 -3.34415 -2.5
    endloop
  endfacet
  facet normal 0 0 -1
    outer loop
      vertex 33.0111 -3.34415 -2.5
      vertex 39.7815 2.07912 -2.5
      vertex 40 0 -2.5
    endloop
  endfacet
  facet normal -0 0 -1
    outer loop
      vertex 33.0111 -3.34415 -2.5
      vertex 40 0 -2.5
      vertex 32.25 -3.89711 -2.5
    endloop
  endfacet
  facet normal 0 0 -1
    outer loop
      vertex 32.25 -3.89711 -2.5
      vertex 40 0 -2.5
      vertex 39.7815 -2.07912 -2.5
    endloop
  endfacet
  facet normal -0 0 -1
    outer loop
      vertex 32.25 -3.89711 -2.5
      vertex 39.7815 -2.07912 -2.5
      vertex 31.3906 -4.27975 -2.5
    endloop
  endfacet
  facet normal 0 0 -1
    outer loop
      vertex 31.3906 -4.27975 -2.5
      vertex 39.7815 -2.07912 -2.5
      vertex 39.1355 -4.06737 -2.5
    endloop
  endfacet
  facet normal -0 0 -1
    outer loop
      vertex 31.3906 -4.27975 -2.5
      vertex 39.1355 -4.06737 -2.5
      vertex 30.4704 -4.47535 -2.5
    endloop
  endfacet
  facet normal -0 0 -1
    outer loop
      vertex 30.4704 -4.47535 -2.5
      vertex 39.1355 -4.06737 -2.5
      vertex 38.0902 -5.87785 -2.5
    endloop
  endfacet
  facet normal 0 0 -1
    outer loop
      vertex 30.4704 -4.47535 -2.5
      vertex 38.0902 -5.87785 -2.5
      vertex 29.5296 -4.47535 -2.5
    endloop
  endfacet
  facet normal 0 0 -1
    outer loop
      vertex 26.3594 -2.64503 -2.5
      vertex 26.9889 -3.34415 -2.5
      vertex 20 -7 -2.5
    endloop
  endfacet
  facet normal 0 0 -1
    outer loop
      vertex 20 -7 -2.5
      vertex 36.6913 -7.43145 -2.5
      vertex 35 -8.66025 -2.5
    endloop
  endfacet
  facet normal 0 0 -1
    outer loop
      vertex 28.6094 -4.27975 -2.5
      vertex 36.6913 -7.43145 -2.5
      vertex 20 -7 -2.5
    endloop
  endfacet
  facet normal 0 0 -1
    outer loop
      vertex 21 7 -2.5
      vertex 25.5983 -0.935603 -2.5
      vertex 25.889 -1.83031 -2.5
    endloop
  endfacet
  facet normal 0 0 -1
    outer loop
      vertex 21 7 -2.5
      vertex 25.5 0 -2.5
      vertex 25.5983 -0.935603 -2.5
    endloop
  endfacet
  facet normal 0 0 -1
    outer loop
      vertex 21 7 -2.5
      vertex 25.5983 0.935603 -2.5
      vertex 25.5 0 -2.5
    endloop
  endfacet
  facet normal 0 0 -1
    outer loop
      vertex -30 -9.94522 -2.5
      vertex 30 -10 -2.5
      vertex -30 -10 -2.5
    endloop
  endfacet
  facet normal 0 0 -1
    outer loop
      vertex -20 -7 -2.5
      vertex 30 -10 -2.5
      vertex -30 -9.94522 -2.5
    endloop
  endfacet
  facet normal -0 0 -1
    outer loop
      vertex -21 7 -2.5
      vertex 26.9 10 -2.5
      vertex 21 7 -2.5
    endloop
  endfacet
  facet normal 0 0 -1
    outer loop
      vertex -39.7815 -2.07912 -2.5
      vertex -31.0453 -9.94522 -2.5
      vertex -33.0902 -9.51056 -2.5
    endloop
  endfacet
  facet normal 0 0 -1
    outer loop
      vertex -39.7815 -2.07912 -2.5
      vertex -33.0902 -9.51056 -2.5
      vertex -35 -8.66025 -2.5
    endloop
  endfacet
  facet normal 0 0 -1
    outer loop
      vertex -39.7815 -2.07912 -2.5
      vertex -35 -8.66025 -2.5
      vertex -36.6913 -7.43145 -2.5
    endloop
  endfacet
  facet normal 0 0 -1
    outer loop
      vertex -39.7815 -2.07912 -2.5
      vertex -36.6913 -7.43145 -2.5
      vertex -38.0902 -5.87785 -2.5
    endloop
  endfacet
  facet normal 0 0 -1
    outer loop
      vertex -39.7815 -2.07912 -2.5
      vertex -38.0902 -5.87785 -2.5
      vertex -39.1355 -4.06737 -2.5
    endloop
  endfacet
  facet normal 0 -0 -1
    outer loop
      vertex -25.5983 0.935603 -2.5
      vertex -27.1 10 -2.5
      vertex -21 7 -2.5
    endloop
  endfacet
  facet normal 0 0 -1
    outer loop
      vertex -20 -7 -2.5
      vertex -30.4704 -4.47535 -2.5
      vertex -29.5296 -4.47535 -2.5
    endloop
  endfacet
  facet normal 0 0 -1
    outer loop
      vertex 21 7 -2.5
      vertex 25.6557 1.11216 -2.5
      vertex 25.5983 0.935603 -2.5
    endloop
  endfacet
  facet normal 0 0 -1
    outer loop
      vertex -30.4704 -4.47535 -2.5
      vertex -20 -7 -2.5
      vertex -30 -9.94522 -2.5
    endloop
  endfacet
  facet normal 0 0 -1
    outer loop
      vertex 26.9889 -3.34415 -2.5
      vertex 27.75 -3.89711 -2.5
      vertex 20 -7 -2.5
    endloop
  endfacet
  facet normal 0 0 -1
    outer loop
      vertex 27.75 -3.89711 -2.5
      vertex 28.6094 -4.27975 -2.5
      vertex 20 -7 -2.5
    endloop
  endfacet
  facet normal 0 0 -1
    outer loop
      vertex -20 -7 -2.5
      vertex -25.5 0 -2.5
      vertex -25.5983 0.935603 -2.5
    endloop
  endfacet
  facet normal 0 0 -1
    outer loop
      vertex -31.0453 -9.94522 -2.5
      vertex -39.7815 -2.07912 -2.5
      vertex -31.3906 -4.27975 -2.5
    endloop
  endfacet
  facet normal 0 -0 -1
    outer loop
      vertex -31.0453 -9.94522 -2.5
      vertex -31.3906 -4.27975 -2.5
      vertex -30.4704 -4.47535 -2.5
    endloop
  endfacet
  facet normal -0 0 -1
    outer loop
      vertex -31.0453 -9.94522 -2.5
      vertex -30.4704 -4.47535 -2.5
      vertex -30 -9.94522 -2.5
    endloop
  endfacet
  facet normal 0 0 -1
    outer loop
      vertex -20 -7 -2.5
      vertex -25.5983 0.935603 -2.5
      vertex -21 7 -2.5
    endloop
  endfacet
  facet normal 0 0 -1
    outer loop
      vertex 29.5296 -4.47535 -2.5
      vertex 38.0902 -5.87785 -2.5
      vertex 36.6913 -7.43145 -2.5
    endloop
  endfacet
  facet normal 0 0 -1
    outer loop
      vertex 28.6094 -4.27975 -2.5
      vertex 29.5296 -4.47535 -2.5
      vertex 36.6913 -7.43145 -2.5
    endloop
  endfacet
  facet normal 0 0 -1
    outer loop
      vertex 20 -7 -2.5
      vertex 35 -8.66025 -2.5
      vertex 33.0902 -9.51056 -2.5
    endloop
  endfacet
  facet normal 0 0 -1
    outer loop
      vertex 20 -7 -2.5
      vertex 33.0902 -9.51056 -2.5
      vertex 31.0453 -9.94522 -2.5
    endloop
  endfacet
  facet normal 0 0 -1
    outer loop
      vertex 20 -7 -2.5
      vertex 31.0453 -9.94522 -2.5
      vertex 30 -9.94522 -2.5
    endloop
  endfacet
  facet normal 0 0 -1
    outer loop
      vertex 20 -7 -2.5
      vertex 30 -9.94522 -2.5
      vertex 30 -10 -2.5
    endloop
  endfacet
  facet normal 0 0 -1
    outer loop
      vertex 20 -7 -2.5
      vertex 30 -10 -2.5
      vertex -20 -7 -2.5
    endloop
  endfacet
  facet normal -0.994522 0.104528 0
    outer loop
      vertex -40 0 -2.5
      vertex -40 0 2.5
      vertex -39.7815 2.07912 -2.5
    endloop
  endfacet
  facet normal -0.994522 0.104528 0
    outer loop
      vertex -39.7815 2.07912 -2.5
      vertex -40 0 2.5
      vertex -39.7815 2.07912 2.5
    endloop
  endfacet
  facet normal -0.994522 -0.104528 -0
    outer loop
      vertex -40 0 -2.5
      vertex -39.7815 -2.07912 -2.5
      vertex -40 0 2.5
    endloop
  endfacet
  facet normal -0.994522 -0.104528 0
    outer loop
      vertex -40 0 2.5
      vertex -39.7815 -2.07912 -2.5
      vertex -39.7815 -2.07912 2.5
    endloop
  endfacet
  facet normal -0.951057 -0.309017 -0
    outer loop
      vertex -39.7815 -2.07912 -2.5
      vertex -39.1355 -4.06737 -2.5
      vertex -39.7815 -2.07912 2.5
    endloop
  endfacet
  facet normal -0.951057 -0.309017 0
    outer loop
      vertex -39.7815 -2.07912 2.5
      vertex -39.1355 -4.06737 -2.5
      vertex -39.1355 -4.06737 2.5
    endloop
  endfacet
  facet normal -0.866025 -0.5 -0
    outer loop
      vertex -39.1355 -4.06737 -2.5
      vertex -38.0902 -5.87785 -2.5
      vertex -39.1355 -4.06737 2.5
    endloop
  endfacet
  facet normal -0.866025 -0.5 0
    outer loop
      vertex -39.1355 -4.06737 2.5
      vertex -38.0902 -5.87785 -2.5
      vertex -38.0902 -5.87785 2.5
    endloop
  endfacet
  facet normal -0.743145 -0.669131 -0
    outer loop
      vertex -38.0902 -5.87785 -2.5
      vertex -36.6913 -7.43145 -2.5
      vertex -38.0902 -5.87785 2.5
    endloop
  endfacet
  facet normal -0.743145 -0.669131 0
    outer loop
      vertex -38.0902 -5.87785 2.5
      vertex -36.6913 -7.43145 -2.5
      vertex -36.6913 -7.43145 2.5
    endloop
  endfacet
  facet normal -0.587785 -0.809017 0
    outer loop
      vertex -36.6913 -7.43145 2.5
      vertex -36.6913 -7.43145 -2.5
      vertex -35 -8.66025 -2.5
    endloop
  endfacet
  facet normal -0.587785 -0.809017 0
    outer loop
      vertex -35 -8.66025 2.5
      vertex -36.6913 -7.43145 2.5
      vertex -35 -8.66025 -2.5
    endloop
  endfacet
  facet normal -0.406737 -0.913545 0
    outer loop
      vertex -35 -8.66025 2.5
      vertex -35 -8.66025 -2.5
      vertex -33.0902 -9.51056 -2.5
    endloop
  endfacet
  facet normal -0.406737 -0.913545 0
    outer loop
      vertex -33.0902 -9.51056 2.5
      vertex -35 -8.66025 2.5
      vertex -33.0902 -9.51056 -2.5
    endloop
  endfacet
  facet normal -0.207912 -0.978148 0
    outer loop
      vertex -33.0902 -9.51056 2.5
      vertex -33.0902 -9.51056 -2.5
      vertex -31.0453 -9.94522 -2.5
    endloop
  endfacet
  facet normal -0.207912 -0.978148 0
    outer loop
      vertex -31.0453 -9.94522 2.5
      vertex -33.0902 -9.51056 2.5
      vertex -31.0453 -9.94522 -2.5
    endloop
  endfacet
  facet normal 0 -1 0
    outer loop
      vertex -31.0453 -9.94522 2.5
      vertex -31.0453 -9.94522 -2.5
      vertex -30 -9.94522 -2.5
    endloop
  endfacet
  facet normal 0 -1 0
    outer loop
      vertex -30 -9.94522 2.5
      vertex -31.0453 -9.94522 2.5
      vertex -30 -9.94522 -2.5
    endloop
  endfacet
  facet normal -1 -0 -0
    outer loop
      vertex -30 -10 -2.5
      vertex -30 -10 2.5
      vertex -30 -9.94522 -2.5
    endloop
  endfacet
  facet normal -1 0 0
    outer loop
      vertex -30 -9.94522 -2.5
      vertex -30 -10 2.5
      vertex -30 -9.94522 2.5
    endloop
  endfacet
  facet normal 0 -1 0
    outer loop
      vertex -30 -10 2.5
      vertex -30 -10 -2.5
      vertex 30 -10 -2.5
    endloop
  endfacet
  facet normal 0 -1 0
    outer loop
      vertex 30 -10 2.5
      vertex -30 -10 2.5
      vertex 30 -10 -2.5
    endloop
  endfacet
  facet normal 1 0 -0
    outer loop
      vertex 30 -10 2.5
      vertex 30 -10 -2.5
      vertex 30 -9.94522 -2.5
    endloop
  endfacet
  facet normal 1 0 0
    outer loop
      vertex 30 -9.94522 2.5
      vertex 30 -10 2.5
      vertex 30 -9.94522 -2.5
    endloop
  endfacet
  facet normal 0 -1 0
    outer loop
      vertex 30 -9.94522 2.5
      vertex 30 -9.94522 -2.5
      vertex 31.0453 -9.94522 -2.5
    endloop
  endfacet
  facet normal 0 -1 0
    outer loop
      vertex 31.0453 -9.94522 2.5
      vertex 30 -9.94522 2.5
      vertex 31.0453 -9.94522 -2.5
    endloop
  endfacet
  facet normal 0.207912 -0.978148 0
    outer loop
      vertex 31.0453 -9.94522 2.5
      vertex 31.0453 -9.94522 -2.5
      vertex 33.0902 -9.51056 -2.5
    endloop
  endfacet
  facet normal 0.207912 -0.978148 0
    outer loop
      vertex 33.0902 -9.51056 2.5
      vertex 31.0453 -9.94522 2.5
      vertex 33.0902 -9.51056 -2.5
    endloop
  endfacet
  facet normal 0.406737 -0.913545 0
    outer loop
      vertex 33.0902 -9.51056 2.5
      vertex 33.0902 -9.51056 -2.5
      vertex 35 -8.66025 -2.5
    endloop
  endfacet
  facet normal 0.406737 -0.913545 0
    outer loop
      vertex 35 -8.66025 2.5
      vertex 33.0902 -9.51056 2.5
      vertex 35 -8.66025 -2.5
    endloop
  endfacet
  facet normal 0.587785 -0.809017 0
    outer loop
      vertex 35 -8.66025 2.5
      vertex 35 -8.66025 -2.5
      vertex 36.6913 -7.43145 -2.5
    endloop
  endfacet
  facet normal 0.587785 -0.809017 0
    outer loop
      vertex 36.6913 -7.43145 2.5
      vertex 35 -8.66025 2.5
      vertex 36.6913 -7.43145 -2.5
    endloop
  endfacet
  facet normal 0.743145 -0.669131 0
    outer loop
      vertex 36.6913 -7.43145 2.5
      vertex 36.6913 -7.43145 -2.5
      vertex 38.0902 -5.87785 -2.5
    endloop
  endfacet
  facet normal 0.743145 -0.669131 0
    outer loop
      vertex 38.0902 -5.87785 2.5
      vertex 36.6913 -7.43145 2.5
      vertex 38.0902 -5.87785 -2.5
    endloop
  endfacet
  facet normal 0.866025 -0.5 0
    outer loop
      vertex 38.0902 -5.87785 2.5
      vertex 38.0902 -5.87785 -2.5
      vertex 39.1355 -4.06737 -2.5
    endloop
  endfacet
  facet normal 0.866025 -0.5 0
    outer loop
      vertex 39.1355 -4.06737 2.5
      vertex 38.0902 -5.87785 2.5
      vertex 39.1355 -4.06737 -2.5
    endloop
  endfacet
  facet normal 0.951057 -0.309017 0
    outer loop
      vertex 39.1355 -4.06737 2.5
      vertex 39.1355 -4.06737 -2.5
      vertex 39.7815 -2.07912 -2.5
    endloop
  endfacet
  facet normal 0.951057 -0.309017 0
    outer loop
      vertex 39.7815 -2.07912 2.5
      vertex 39.1355 -4.06737 2.5
      vertex 39.7815 -2.07912 -2.5
    endloop
  endfacet
  facet normal 0.994522 -0.104528 0
    outer loop
      vertex 39.7815 -2.07912 2.5
      vertex 39.7815 -2.07912 -2.5
      vertex 40 0 -2.5
    endloop
  endfacet
  facet normal 0.994522 -0.104528 0
    outer loop
      vertex 40 0 2.5
      vertex 39.7815 -2.07912 2.5
      vertex 40 0 -2.5
    endloop
  endfacet
  facet normal 0.994522 0.104528 0
    outer loop
      vertex 40 0 -2.5
      vertex 39.7815 2.07912 -2.5
      vertex 39.7815 2.07912 2.5
    endloop
  endfacet
  facet normal 0.994522 0.104528 -0
    outer loop
      vertex 40 0 2.5
      vertex 40 0 -2.5
      vertex 39.7815 2.07912 2.5
    endloop
  endfacet
  facet normal 0.951057 0.309017 0
    outer loop
      vertex 39.7815 2.07912 -2.5
      vertex 39.1355 4.06737 -2.5
      vertex 39.1355 4.06737 2.5
    endloop
  endfacet
  facet normal 0.951057 0.309017 -0
    outer loop
      vertex 39.7815 2.07912 2.5
      vertex 39.7815 2.07912 -2.5
      vertex 39.1355 4.06737 2.5
    endloop
  endfacet
  facet normal 0.866025 0.5 0
    outer loop
      vertex 39.1355 4.06737 -2.5
      vertex 38.0902 5.87785 -2.5
      vertex 38.0902 5.87785 2.5
    endloop
  endfacet
  facet normal 0.866025 0.5 -0
    outer loop
      vertex 39.1355 4.06737 2.5
      vertex 39.1355 4.06737 -2.5
      vertex 38.0902 5.87785 2.5
    endloop
  endfacet
  facet normal 0.743145 0.669131 0
    outer loop
      vertex 38.0902 5.87785 -2.5
      vertex 36.6913 7.43145 -2.5
      vertex 36.6913 7.43145 2.5
    endloop
  endfacet
  facet normal 0.743145 0.669131 -0
    outer loop
      vertex 38.0902 5.87785 2.5
      vertex 38.0902 5.87785 -2.5
      vertex 36.6913 7.43145 2.5
    endloop
  endfacet
  facet normal 0.587785 0.809017 0
    outer loop
      vertex 35 8.66025 -2.5
      vertex 35 8.66025 2.5
      vertex 36.6913 7.43145 -2.5
    endloop
  endfacet
  facet normal 0.587785 0.809017 0
    outer loop
      vertex 36.6913 7.43145 -2.5
      vertex 35 8.66025 2.5
      vertex 36.6913 7.43145 2.5
    endloop
  endfacet
  facet normal 0.406737 0.913545 0
    outer loop
      vertex 33.1737 9.47336 -2.5
      vertex 33.1737 9.47336 2.5
      vertex 35 8.66025 -2.5
    endloop
  endfacet
  facet normal 0.406737 0.913545 0
    outer loop
      vertex 35 8.66025 -2.5
      vertex 33.1737 9.47336 2.5
      vertex 35 8.66025 2.5
    endloop
  endfacet
  facet normal -0.990342 -0.138648 0
    outer loop
      vertex 34.3443 1.11216 2.5
      vertex 33.1737 9.47336 2.5
      vertex 34.3443 1.11216 -2.5
    endloop
  endfacet
  facet normal -0.990342 -0.138648 0
    outer loop
      vertex 34.3443 1.11216 -2.5
      vertex 33.1737 9.47336 2.5
      vertex 33.1737 9.47336 -2.5
    endloop
  endfacet
  facet normal -0.951057 -0.309016 0
    outer loop
      vertex 34.4017 0.935603 2.5
      vertex 34.3443 1.11216 2.5
      vertex 34.4017 0.935603 -2.5
    endloop
  endfacet
  facet normal -0.951057 -0.309016 0
    outer loop
      vertex 34.4017 0.935603 -2.5
      vertex 34.3443 1.11216 2.5
      vertex 34.3443 1.11216 -2.5
    endloop
  endfacet
  facet normal -0.994522 -0.104529 0
    outer loop
      vertex 34.5 0 2.5
      vertex 34.4017 0.935603 2.5
      vertex 34.5 0 -2.5
    endloop
  endfacet
  facet normal -0.994522 -0.104529 0
    outer loop
      vertex 34.5 0 -2.5
      vertex 34.4017 0.935603 2.5
      vertex 34.4017 0.935603 -2.5
    endloop
  endfacet
  facet normal -0.994522 0.104529 0
    outer loop
      vertex 34.5 0 2.5
      vertex 34.5 0 -2.5
      vertex 34.4017 -0.935603 2.5
    endloop
  endfacet
  facet normal -0.994522 0.104529 0
    outer loop
      vertex 34.4017 -0.935603 2.5
      vertex 34.5 0 -2.5
      vertex 34.4017 -0.935603 -2.5
    endloop
  endfacet
  facet normal -0.951057 0.309016 0
    outer loop
      vertex 34.4017 -0.935603 2.5
      vertex 34.4017 -0.935603 -2.5
      vertex 34.111 -1.83031 2.5
    endloop
  endfacet
  facet normal -0.951057 0.309016 0
    outer loop
      vertex 34.111 -1.83031 2.5
      vertex 34.4017 -0.935603 -2.5
      vertex 34.111 -1.83031 -2.5
    endloop
  endfacet
  facet normal -0.866025 0.500001 0
    outer loop
      vertex 34.111 -1.83031 2.5
      vertex 34.111 -1.83031 -2.5
      vertex 33.6406 -2.64503 2.5
    endloop
  endfacet
  facet normal -0.866025 0.500001 0
    outer loop
      vertex 33.6406 -2.64503 2.5
      vertex 34.111 -1.83031 -2.5
      vertex 33.6406 -2.64503 -2.5
    endloop
  endfacet
  facet normal -0.743145 0.66913 0
    outer loop
      vertex 33.6406 -2.64503 2.5
      vertex 33.6406 -2.64503 -2.5
      vertex 33.0111 -3.34415 2.5
    endloop
  endfacet
  facet normal -0.743145 0.66913 0
    outer loop
      vertex 33.0111 -3.34415 2.5
      vertex 33.6406 -2.64503 -2.5
      vertex 33.0111 -3.34415 -2.5
    endloop
  endfacet
  facet normal -0.587785 0.809017 0
    outer loop
      vertex 33.0111 -3.34415 2.5
      vertex 33.0111 -3.34415 -2.5
      vertex 32.25 -3.89711 2.5
    endloop
  endfacet
  facet normal -0.587785 0.809017 0
    outer loop
      vertex 32.25 -3.89711 2.5
      vertex 33.0111 -3.34415 -2.5
      vertex 32.25 -3.89711 -2.5
    endloop
  endfacet
  facet normal -0.406736 0.913546 0
    outer loop
      vertex 32.25 -3.89711 2.5
      vertex 32.25 -3.89711 -2.5
      vertex 31.3906 -4.27975 2.5
    endloop
  endfacet
  facet normal -0.406736 0.913546 0
    outer loop
      vertex 31.3906 -4.27975 2.5
      vertex 32.25 -3.89711 -2.5
      vertex 31.3906 -4.27975 -2.5
    endloop
  endfacet
  facet normal -0.207913 0.978147 0
    outer loop
      vertex 31.3906 -4.27975 2.5
      vertex 31.3906 -4.27975 -2.5
      vertex 30.4704 -4.47535 2.5
    endloop
  endfacet
  facet normal -0.207913 0.978147 0
    outer loop
      vertex 30.4704 -4.47535 2.5
      vertex 31.3906 -4.27975 -2.5
      vertex 30.4704 -4.47535 -2.5
    endloop
  endfacet
  facet normal 0 1 0
    outer loop
      vertex 30.4704 -4.47535 2.5
      vertex 30.4704 -4.47535 -2.5
      vertex 29.5296 -4.47535 2.5
    endloop
  endfacet
  facet normal 0 1 -0
    outer loop
      vertex 29.5296 -4.47535 2.5
      vertex 30.4704 -4.47535 -2.5
      vertex 29.5296 -4.47535 -2.5
    endloop
  endfacet
  facet normal 0.207913 0.978147 -0
    outer loop
      vertex 29.5296 -4.47535 2.5
      vertex 29.5296 -4.47535 -2.5
      vertex 28.6094 -4.27975 2.5
    endloop
  endfacet
  facet normal 0.207913 0.978147 -0
    outer loop
      vertex 28.6094 -4.27975 2.5
      vertex 29.5296 -4.47535 -2.5
      vertex 28.6094 -4.27975 -2.5
    endloop
  endfacet
  facet normal 0.406736 0.913546 -0
    outer loop
      vertex 28.6094 -4.27975 2.5
      vertex 28.6094 -4.27975 -2.5
      vertex 27.75 -3.89711 2.5
    endloop
  endfacet
  facet normal 0.406736 0.913546 -0
    outer loop
      vertex 27.75 -3.89711 2.5
      vertex 28.6094 -4.27975 -2.5
      vertex 27.75 -3.89711 -2.5
    endloop
  endfacet
  facet normal 0.587785 0.809017 -0
    outer loop
      vertex 27.75 -3.89711 2.5
      vertex 27.75 -3.89711 -2.5
      vertex 26.9889 -3.34415 2.5
    endloop
  endfacet
  facet normal 0.587785 0.809017 -0
    outer loop
      vertex 26.9889 -3.34415 2.5
      vertex 27.75 -3.89711 -2.5
      vertex 26.9889 -3.34415 -2.5
    endloop
  endfacet
  facet normal 0.743145 0.66913 0
    outer loop
      vertex 26.3594 -2.64503 2.5
      vertex 26.9889 -3.34415 2.5
      vertex 26.9889 -3.34415 -2.5
    endloop
  endfacet
  facet normal 0.743145 0.66913 0
    outer loop
      vertex 26.3594 -2.64503 -2.5
      vertex 26.3594 -2.64503 2.5
      vertex 26.9889 -3.34415 -2.5
    endloop
  endfacet
  facet normal 0.866025 0.500001 0
    outer loop
      vertex 25.889 -1.83031 2.5
      vertex 26.3594 -2.64503 2.5
      vertex 26.3594 -2.64503 -2.5
    endloop
  endfacet
  facet normal 0.866025 0.500001 0
    outer loop
      vertex 25.889 -1.83031 -2.5
      vertex 25.889 -1.83031 2.5
      vertex 26.3594 -2.64503 -2.5
    endloop
  endfacet
  facet normal 0.951057 0.309016 0
    outer loop
      vertex 25.5983 -0.935603 2.5
      vertex 25.889 -1.83031 2.5
      vertex 25.889 -1.83031 -2.5
    endloop
  endfacet
  facet normal 0.951057 0.309016 0
    outer loop
      vertex 25.5983 -0.935603 -2.5
      vertex 25.5983 -0.935603 2.5
      vertex 25.889 -1.83031 -2.5
    endloop
  endfacet
  facet normal 0.994522 0.104529 0
    outer loop
      vertex 25.5 0 2.5
      vertex 25.5983 -0.935603 2.5
      vertex 25.5983 -0.935603 -2.5
    endloop
  endfacet
  facet normal 0.994522 0.104529 0
    outer loop
      vertex 25.5 0 -2.5
      vertex 25.5 0 2.5
      vertex 25.5983 -0.935603 -2.5
    endloop
  endfacet
  facet normal 0.994522 -0.104529 0
    outer loop
      vertex 25.5983 0.935603 -2.5
      vertex 25.5983 0.935603 2.5
      vertex 25.5 0 2.5
    endloop
  endfacet
  facet normal 0.994522 -0.104529 0
    outer loop
      vertex 25.5 0 -2.5
      vertex 25.5983 0.935603 -2.5
      vertex 25.5 0 2.5
    endloop
  endfacet
  facet normal 0.951057 -0.309016 0
    outer loop
      vertex 25.6557 1.11216 -2.5
      vertex 25.6557 1.11216 2.5
      vertex 25.5983 0.935603 2.5
    endloop
  endfacet
  facet normal 0.951057 -0.309016 0
    outer loop
      vertex 25.5983 0.935603 -2.5
      vertex 25.6557 1.11216 -2.5
      vertex 25.5983 0.935603 2.5
    endloop
  endfacet
  facet normal 0.990342 -0.138648 0
    outer loop
      vertex 26.9 10 -2.5
      vertex 26.9 10 2.5
      vertex 25.6557 1.11216 2.5
    endloop
  endfacet
  facet normal 0.990342 -0.138648 0
    outer loop
      vertex 25.6557 1.11216 -2.5
      vertex 26.9 10 -2.5
      vertex 25.6557 1.11216 2.5
    endloop
  endfacet
  facet normal 0 1 0
    outer loop
      vertex -27.1 10 -2.5
      vertex -27.1 10 2.5
      vertex 26.9 10 -2.5
    endloop
  endfacet
  facet normal 0 1 0
    outer loop
      vertex 26.9 10 -2.5
      vertex -27.1 10 2.5
      vertex 26.9 10 2.5
    endloop
  endfacet
  facet normal -0.987441 -0.157991 0
    outer loop
      vertex -25.6995 1.24703 2.5
      vertex -27.1 10 2.5
      vertex -25.6995 1.24703 -2.5
    endloop
  endfacet
  facet normal -0.987441 -0.157991 0
    outer loop
      vertex -25.6995 1.24703 -2.5
      vertex -27.1 10 2.5
      vertex -27.1 10 -2.5
    endloop
  endfacet
  facet normal -0.951057 -0.309016 0
    outer loop
      vertex -25.5983 0.935603 2.5
      vertex -25.6995 1.24703 2.5
      vertex -25.5983 0.935603 -2.5
    endloop
  endfacet
  facet normal -0.951057 -0.309016 0
    outer loop
      vertex -25.5983 0.935603 -2.5
      vertex -25.6995 1.24703 2.5
      vertex -25.6995 1.24703 -2.5
    endloop
  endfacet
  facet normal -0.994522 -0.104529 0
    outer loop
      vertex -25.5 0 2.5
      vertex -25.5983 0.935603 2.5
      vertex -25.5 0 -2.5
    endloop
  endfacet
  facet normal -0.994522 -0.104529 0
    outer loop
      vertex -25.5 0 -2.5
      vertex -25.5983 0.935603 2.5
      vertex -25.5983 0.935603 -2.5
    endloop
  endfacet
  facet normal -0.994522 0.104529 0
    outer loop
      vertex -25.5 0 2.5
      vertex -25.5 0 -2.5
      vertex -25.5983 -0.935603 2.5
    endloop
  endfacet
  facet normal -0.994522 0.104529 0
    outer loop
      vertex -25.5983 -0.935603 2.5
      vertex -25.5 0 -2.5
      vertex -25.5983 -0.935603 -2.5
    endloop
  endfacet
  facet normal -0.951057 0.309016 0
    outer loop
      vertex -25.5983 -0.935603 2.5
      vertex -25.5983 -0.935603 -2.5
      vertex -25.889 -1.83031 2.5
    endloop
  endfacet
  facet normal -0.951057 0.309016 0
    outer loop
      vertex -25.889 -1.83031 2.5
      vertex -25.5983 -0.935603 -2.5
      vertex -25.889 -1.83031 -2.5
    endloop
  endfacet
  facet normal -0.866025 0.500001 0
    outer loop
      vertex -25.889 -1.83031 2.5
      vertex -25.889 -1.83031 -2.5
      vertex -26.3594 -2.64503 2.5
    endloop
  endfacet
  facet normal -0.866025 0.500001 0
    outer loop
      vertex -26.3594 -2.64503 2.5
      vertex -25.889 -1.83031 -2.5
      vertex -26.3594 -2.64503 -2.5
    endloop
  endfacet
  facet normal -0.743145 0.66913 0
    outer loop
      vertex -26.3594 -2.64503 2.5
      vertex -26.3594 -2.64503 -2.5
      vertex -26.9889 -3.34415 2.5
    endloop
  endfacet
  facet normal -0.743145 0.66913 0
    outer loop
      vertex -26.9889 -3.34415 2.5
      vertex -26.3594 -2.64503 -2.5
      vertex -26.9889 -3.34415 -2.5
    endloop
  endfacet
  facet normal -0.587785 0.809017 0
    outer loop
      vertex -26.9889 -3.34415 2.5
      vertex -26.9889 -3.34415 -2.5
      vertex -27.75 -3.89711 2.5
    endloop
  endfacet
  facet normal -0.587785 0.809017 0
    outer loop
      vertex -27.75 -3.89711 2.5
      vertex -26.9889 -3.34415 -2.5
      vertex -27.75 -3.89711 -2.5
    endloop
  endfacet
  facet normal -0.406736 0.913546 0
    outer loop
      vertex -27.75 -3.89711 2.5
      vertex -27.75 -3.89711 -2.5
      vertex -28.6094 -4.27975 2.5
    endloop
  endfacet
  facet normal -0.406736 0.913546 0
    outer loop
      vertex -28.6094 -4.27975 2.5
      vertex -27.75 -3.89711 -2.5
      vertex -28.6094 -4.27975 -2.5
    endloop
  endfacet
  facet normal -0.207913 0.978147 0
    outer loop
      vertex -28.6094 -4.27975 2.5
      vertex -28.6094 -4.27975 -2.5
      vertex -29.5296 -4.47535 2.5
    endloop
  endfacet
  facet normal -0.207913 0.978147 0
    outer loop
      vertex -29.5296 -4.47535 2.5
      vertex -28.6094 -4.27975 -2.5
      vertex -29.5296 -4.47535 -2.5
    endloop
  endfacet
  facet normal 0 1 0
    outer loop
      vertex -29.5296 -4.47535 2.5
      vertex -29.5296 -4.47535 -2.5
      vertex -30.4704 -4.47535 2.5
    endloop
  endfacet
  facet normal 0 1 -0
    outer loop
      vertex -30.4704 -4.47535 2.5
      vertex -29.5296 -4.47535 -2.5
      vertex -30.4704 -4.47535 -2.5
    endloop
  endfacet
  facet normal 0.207913 0.978147 -0
    outer loop
      vertex -30.4704 -4.47535 2.5
      vertex -30.4704 -4.47535 -2.5
      vertex -31.3906 -4.27975 2.5
    endloop
  endfacet
  facet normal 0.207913 0.978147 -0
    outer loop
      vertex -31.3906 -4.27975 2.5
      vertex -30.4704 -4.47535 -2.5
      vertex -31.3906 -4.27975 -2.5
    endloop
  endfacet
  facet normal 0.406736 0.913546 -0
    outer loop
      vertex -31.3906 -4.27975 2.5
      vertex -31.3906 -4.27975 -2.5
      vertex -32.25 -3.89711 2.5
    endloop
  endfacet
  facet normal 0.406736 0.913546 -0
    outer loop
      vertex -32.25 -3.89711 2.5
      vertex -31.3906 -4.27975 -2.5
      vertex -32.25 -3.89711 -2.5
    endloop
  endfacet
  facet normal 0.587785 0.809017 -0
    outer loop
      vertex -32.25 -3.89711 2.5
      vertex -32.25 -3.89711 -2.5
      vertex -33.0111 -3.34415 2.5
    endloop
  endfacet
  facet normal 0.587785 0.809017 -0
    outer loop
      vertex -33.0111 -3.34415 2.5
      vertex -32.25 -3.89711 -2.5
      vertex -33.0111 -3.34415 -2.5
    endloop
  endfacet
  facet normal 0.743145 0.66913 0
    outer loop
      vertex -33.6406 -2.64503 2.5
      vertex -33.0111 -3.34415 2.5
      vertex -33.0111 -3.34415 -2.5
    endloop
  endfacet
  facet normal 0.743145 0.66913 0
    outer loop
      vertex -33.6406 -2.64503 -2.5
      vertex -33.6406 -2.64503 2.5
      vertex -33.0111 -3.34415 -2.5
    endloop
  endfacet
  facet normal 0.866025 0.500001 0
    outer loop
      vertex -34.111 -1.83031 2.5
      vertex -33.6406 -2.64503 2.5
      vertex -33.6406 -2.64503 -2.5
    endloop
  endfacet
  facet normal 0.866025 0.500001 0
    outer loop
      vertex -34.111 -1.83031 -2.5
      vertex -34.111 -1.83031 2.5
      vertex -33.6406 -2.64503 -2.5
    endloop
  endfacet
  facet normal 0.951057 0.309016 0
    outer loop
      vertex -34.4017 -0.935603 2.5
      vertex -34.111 -1.83031 2.5
      vertex -34.111 -1.83031 -2.5
    endloop
  endfacet
  facet normal 0.951057 0.309016 0
    outer loop
      vertex -34.4017 -0.935603 -2.5
      vertex -34.4017 -0.935603 2.5
      vertex -34.111 -1.83031 -2.5
    endloop
  endfacet
  facet normal 0.994522 0.104529 0
    outer loop
      vertex -34.5 0 2.5
      vertex -34.4017 -0.935603 2.5
      vertex -34.4017 -0.935603 -2.5
    endloop
  endfacet
  facet normal 0.994522 0.104529 0
    outer loop
      vertex -34.5 0 -2.5
      vertex -34.5 0 2.5
      vertex -34.4017 -0.935603 -2.5
    endloop
  endfacet
  facet normal 0.994522 -0.104529 0
    outer loop
      vertex -34.4017 0.935603 -2.5
      vertex -34.4017 0.935603 2.5
      vertex -34.5 0 2.5
    endloop
  endfacet
  facet normal 0.994522 -0.104529 0
    outer loop
      vertex -34.5 0 -2.5
      vertex -34.4017 0.935603 -2.5
      vertex -34.5 0 2.5
    endloop
  endfacet
  facet normal 0.951057 -0.309016 0
    outer loop
      vertex -34.3005 1.24703 -2.5
      vertex -34.3005 1.24703 2.5
      vertex -34.4017 0.935603 2.5
    endloop
  endfacet
  facet normal 0.951057 -0.309016 0
    outer loop
      vertex -34.4017 0.935603 -2.5
      vertex -34.3005 1.24703 -2.5
      vertex -34.4017 0.935603 2.5
    endloop
  endfacet
  facet normal 0.987441 -0.157991 0
    outer loop
      vertex -32.9744 9.53518 -2.5
      vertex -32.9744 9.53518 2.5
      vertex -34.3005 1.24703 2.5
    endloop
  endfacet
  facet normal 0.987441 -0.157991 0
    outer loop
      vertex -34.3005 1.24703 -2.5
      vertex -32.9744 9.53518 -2.5
      vertex -34.3005 1.24703 2.5
    endloop
  endfacet
  facet normal -0.207912 0.978148 0
    outer loop
      vertex -33.0902 9.51056 -2.5
      vertex -33.0902 9.51056 2.5
      vertex -32.9744 9.53518 -2.5
    endloop
  endfacet
  facet normal -0.207912 0.978148 0
    outer loop
      vertex -32.9744 9.53518 -2.5
      vertex -33.0902 9.51056 2.5
      vertex -32.9744 9.53518 2.5
    endloop
  endfacet
  facet normal -0.406737 0.913545 0
    outer loop
      vertex -35 8.66025 -2.5
      vertex -35 8.66025 2.5
      vertex -33.0902 9.51056 -2.5
    endloop
  endfacet
  facet normal -0.406737 0.913545 0
    outer loop
      vertex -33.0902 9.51056 -2.5
      vertex -35 8.66025 2.5
      vertex -33.0902 9.51056 2.5
    endloop
  endfacet
  facet normal -0.587785 0.809017 0
    outer loop
      vertex -36.6913 7.43145 -2.5
      vertex -36.6913 7.43145 2.5
      vertex -35 8.66025 -2.5
    endloop
  endfacet
  facet normal -0.587785 0.809017 0
    outer loop
      vertex -35 8.66025 -2.5
      vertex -36.6913 7.43145 2.5
      vertex -35 8.66025 2.5
    endloop
  endfacet
  facet normal -0.743145 0.669131 0
    outer loop
      vertex -38.0902 5.87785 -2.5
      vertex -38.0902 5.87785 2.5
      vertex -36.6913 7.43145 -2.5
    endloop
  endfacet
  facet normal -0.743145 0.669131 0
    outer loop
      vertex -36.6913 7.43145 -2.5
      vertex -38.0902 5.87785 2.5
      vertex -36.6913 7.43145 2.5
    endloop
  endfacet
  facet normal -0.866025 0.5 0
    outer loop
      vertex -39.1355 4.06737 -2.5
      vertex -39.1355 4.06737 2.5
      vertex -38.0902 5.87785 -2.5
    endloop
  endfacet
  facet normal -0.866025 0.5 0
    outer loop
      vertex -38.0902 5.87785 -2.5
      vertex -39.1355 4.06737 2.5
      vertex -38.0902 5.87785 2.5
    endloop
  endfacet
  facet normal -0.951057 0.309017 0
    outer loop
      vertex -39.7815 2.07912 -2.5
      vertex -39.7815 2.07912 2.5
      vertex -39.1355 4.06737 -2.5
    endloop
  endfacet
  facet normal -0.951057 0.309017 0
    outer loop
      vertex -39.1355 4.06737 -2.5
      vertex -39.7815 2.07912 2.5
      vertex -39.1355 4.06737 2.5
    endloop
  endfacet
  facet normal 0.997459 0.071247 0
    outer loop
      vertex -21 7 2.5
      vertex -20 -7 2.5
      vertex -20 -7 -2.5
    endloop
  endfacet
  facet normal 0.997459 0.071247 0
    outer loop
      vertex -21 7 -2.5
      vertex -21 7 2.5
      vertex -20 -7 -2.5
    endloop
  endfacet
  facet normal 0 -1 0
    outer loop
      vertex 21 7 -2.5
      vertex 21 7 2.5
      vertex -21 7 2.5
    endloop
  endfacet
  facet normal -0 -1 -0
    outer loop
      vertex -21 7 -2.5
      vertex 21 7 -2.5
      vertex -21 7 2.5
    endloop
  endfacet
  facet normal -0.997459 0.071247 0
    outer loop
      vertex 21 7 2.5
      vertex 21 7 -2.5
      vertex 20 -7 2.5
    endloop
  endfacet
  facet normal -0.997459 0.071247 0
    outer loop
      vertex 20 -7 2.5
      vertex 21 7 -2.5
      vertex 20 -7 -2.5
    endloop
  endfacet
  facet normal 0 1 0
    outer loop
      vertex 20 -7 2.5
      vertex 20 -7 -2.5
      vertex -20 -7 2.5
    endloop
  endfacet
  facet normal 0 1 -0
    outer loop
      vertex -20 -7 2.5
      vertex 20 -7 -2.5
      vertex -20 -7 -2.5
    endloop
  endfacet
  facet normal 0 0 1
    outer loop
      vertex -39.7815 2.07912 2.5
      vertex -40 0 2.5
      vertex -39.7815 -2.07912 2.5
    endloop
  endfacet
  facet normal 0 0 1
    outer loop
      vertex -38.0902 -5.87785 2.5
      vertex -39.7815 2.07912 2.5
      vertex -39.1355 -4.06737 2.5
    endloop
  endfacet
  facet normal 0 0 1
    outer loop
      vertex -39.1355 -4.06737 2.5
      vertex -39.7815 2.07912 2.5
      vertex -39.7815 -2.07912 2.5
    endloop
  endfacet
  facet normal 0 0 1
    outer loop
      vertex -36.6913 -7.43145 2.5
      vertex -39.7815 2.07912 2.5
      vertex -38.0902 -5.87785 2.5
    endloop
  endfacet
  facet normal 0 0 1
    outer loop
      vertex -35 -8.66025 2.5
      vertex -39.7815 2.07912 2.5
      vertex -36.6913 -7.43145 2.5
    endloop
  endfacet
  facet normal 0 0 1
    outer loop
      vertex -33.0902 -9.51056 2.5
      vertex -39.7815 2.07912 2.5
      vertex -35 -8.66025 2.5
    endloop
  endfacet
  facet normal 0 0 1
    outer loop
      vertex -31.0453 -9.94522 2.5
      vertex -39.7815 2.07912 2.5
      vertex -33.0902 -9.51056 2.5
    endloop
  endfacet
  facet normal -0 0 1
    outer loop
      vertex -30 -9.94522 2.5
      vertex -39.7815 2.07912 2.5
      vertex -31.0453 -9.94522 2.5
    endloop
  endfacet
  facet normal -0 -0 1
    outer loop
      vertex -33.0111 -3.34415 2.5
      vertex -39.7815 2.07912 2.5
      vertex -30 -9.94522 2.5
    endloop
  endfacet
  facet normal -0 0 1
    outer loop
      vertex 30 -10 2.5
      vertex -30 -9.94522 2.5
      vertex -30 -10 2.5
    endloop
  endfacet
  facet normal 0 0 1
    outer loop
      vertex -33.6406 -2.64503 2.5
      vertex -34.111 -1.83031 2.5
      vertex -39.7815 2.07912 2.5
    endloop
  endfacet
  facet normal 0 0 1
    outer loop
      vertex -34.3005 1.24703 2.5
      vertex -32.9744 9.53518 2.5
      vertex -39.7815 2.07912 2.5
    endloop
  endfacet
  facet normal 0 0 1
    outer loop
      vertex 20 -7 2.5
      vertex 30 -10 2.5
      vertex 30 -9.94522 2.5
    endloop
  endfacet
  facet normal 0 0 1
    outer loop
      vertex 29.5296 -4.47535 2.5
      vertex 36.6913 -7.43145 2.5
      vertex 38.0902 -5.87785 2.5
    endloop
  endfacet
  facet normal 0 -0 1
    outer loop
      vertex 26.3594 -2.64503 2.5
      vertex 20 -7 2.5
      vertex 26.9889 -3.34415 2.5
    endloop
  endfacet
  facet normal 0 0 1
    outer loop
      vertex 21 7 2.5
      vertex 25.5983 0.935603 2.5
      vertex 25.6557 1.11216 2.5
    endloop
  endfacet
  facet normal 0 0 1
    outer loop
      vertex 34.4017 0.935603 2.5
      vertex 34.5 0 2.5
      vertex 40 0 2.5
    endloop
  endfacet
  facet normal 0 -0 1
    outer loop
      vertex 33.0111 -3.34415 2.5
      vertex 32.25 -3.89711 2.5
      vertex 39.1355 -4.06737 2.5
    endloop
  endfacet
  facet normal 0 0 1
    outer loop
      vertex 25.6557 1.11216 2.5
      vertex 26.9 10 2.5
      vertex 21 7 2.5
    endloop
  endfacet
  facet normal 0 0 1
    outer loop
      vertex -27.1 10 2.5
      vertex -25.6995 1.24703 2.5
      vertex -21 7 2.5
    endloop
  endfacet
  facet normal 0 0 1
    outer loop
      vertex -20 -7 2.5
      vertex -25.5 0 2.5
      vertex -25.5983 -0.935603 2.5
    endloop
  endfacet
  facet normal 0 -0 1
    outer loop
      vertex 39.7815 2.07912 2.5
      vertex 34.3443 1.11216 2.5
      vertex 40 0 2.5
    endloop
  endfacet
  facet normal 0 0 1
    outer loop
      vertex 34.3443 1.11216 2.5
      vertex 34.4017 0.935603 2.5
      vertex 40 0 2.5
    endloop
  endfacet
  facet normal 0 0 1
    outer loop
      vertex 40 0 2.5
      vertex 34.5 0 2.5
      vertex 39.7815 -2.07912 2.5
    endloop
  endfacet
  facet normal 0 -0 1
    outer loop
      vertex 34.5 0 2.5
      vertex 34.4017 -0.935603 2.5
      vertex 39.7815 -2.07912 2.5
    endloop
  endfacet
  facet normal -0 0 1
    outer loop
      vertex 39.7815 -2.07912 2.5
      vertex 34.111 -1.83031 2.5
      vertex 39.1355 -4.06737 2.5
    endloop
  endfacet
  facet normal 0 0 1
    outer loop
      vertex 28.6094 -4.27975 2.5
      vertex 35 -8.66025 2.5
      vertex 36.6913 -7.43145 2.5
    endloop
  endfacet
  facet normal 0 -0 1
    outer loop
      vertex 34.111 -1.83031 2.5
      vertex 33.6406 -2.64503 2.5
      vertex 39.1355 -4.06737 2.5
    endloop
  endfacet
  facet normal 0 -0 1
    outer loop
      vertex 33.6406 -2.64503 2.5
      vertex 33.0111 -3.34415 2.5
      vertex 39.1355 -4.06737 2.5
    endloop
  endfacet
  facet normal -0 0 1
    outer loop
      vertex 39.1355 -4.06737 2.5
      vertex 32.25 -3.89711 2.5
      vertex 38.0902 -5.87785 2.5
    endloop
  endfacet
  facet normal 0 -0 1
    outer loop
      vertex 32.25 -3.89711 2.5
      vertex 31.3906 -4.27975 2.5
      vertex 38.0902 -5.87785 2.5
    endloop
  endfacet
  facet normal 0 -0 1
    outer loop
      vertex 31.3906 -4.27975 2.5
      vertex 30.4704 -4.47535 2.5
      vertex 38.0902 -5.87785 2.5
    endloop
  endfacet
  facet normal 0 -0 1
    outer loop
      vertex 30.4704 -4.47535 2.5
      vertex 29.5296 -4.47535 2.5
      vertex 38.0902 -5.87785 2.5
    endloop
  endfacet
  facet normal 0 0 1
    outer loop
      vertex 20 -7 2.5
      vertex 31.0453 -9.94522 2.5
      vertex 33.0902 -9.51056 2.5
    endloop
  endfacet
  facet normal 0 0 1
    outer loop
      vertex 27.75 -3.89711 2.5
      vertex 35 -8.66025 2.5
      vertex 28.6094 -4.27975 2.5
    endloop
  endfacet
  facet normal 0 0 1
    outer loop
      vertex 21 7 2.5
      vertex 25.5983 -0.935603 2.5
      vertex 25.5 0 2.5
    endloop
  endfacet
  facet normal 0 -0 1
    outer loop
      vertex 27.75 -3.89711 2.5
      vertex 20 -7 2.5
      vertex 35 -8.66025 2.5
    endloop
  endfacet
  facet normal 0 -0 1
    outer loop
      vertex 34.4017 -0.935603 2.5
      vertex 34.111 -1.83031 2.5
      vertex 39.7815 -2.07912 2.5
    endloop
  endfacet
  facet normal 0 -0 1
    outer loop
      vertex 25.889 -1.83031 2.5
      vertex 20 -7 2.5
      vertex 26.3594 -2.64503 2.5
    endloop
  endfacet
  facet normal 0 0 1
    outer loop
      vertex -20 -7 2.5
      vertex -25.5983 -0.935603 2.5
      vertex -25.889 -1.83031 2.5
    endloop
  endfacet
  facet normal 0 -0 1
    outer loop
      vertex 26.9889 -3.34415 2.5
      vertex 20 -7 2.5
      vertex 27.75 -3.89711 2.5
    endloop
  endfacet
  facet normal 0 0 1
    outer loop
      vertex 21 7 2.5
      vertex 25.5 0 2.5
      vertex 25.5983 0.935603 2.5
    endloop
  endfacet
  facet normal 0 0 1
    outer loop
      vertex 21 7 2.5
      vertex 25.889 -1.83031 2.5
      vertex 25.5983 -0.935603 2.5
    endloop
  endfacet
  facet normal 0 0 1
    outer loop
      vertex 28.6094 -4.27975 2.5
      vertex 36.6913 -7.43145 2.5
      vertex 29.5296 -4.47535 2.5
    endloop
  endfacet
  facet normal 0 0 1
    outer loop
      vertex -34.4017 0.935603 2.5
      vertex -34.3005 1.24703 2.5
      vertex -39.7815 2.07912 2.5
    endloop
  endfacet
  facet normal 0 0 1
    outer loop
      vertex -33.0111 -3.34415 2.5
      vertex -33.6406 -2.64503 2.5
      vertex -39.7815 2.07912 2.5
    endloop
  endfacet
  facet normal -0 0 1
    outer loop
      vertex -20 -7 2.5
      vertex -25.889 -1.83031 2.5
      vertex -30 -9.94522 2.5
    endloop
  endfacet
  facet normal 0 0 1
    outer loop
      vertex -25.889 -1.83031 2.5
      vertex -26.3594 -2.64503 2.5
      vertex -30 -9.94522 2.5
    endloop
  endfacet
  facet normal 0 0 1
    outer loop
      vertex -26.9889 -3.34415 2.5
      vertex -27.75 -3.89711 2.5
      vertex -30 -9.94522 2.5
    endloop
  endfacet
  facet normal 0 0 1
    outer loop
      vertex -34.5 0 2.5
      vertex -34.4017 0.935603 2.5
      vertex -39.7815 2.07912 2.5
    endloop
  endfacet
  facet normal 0 0 1
    outer loop
      vertex -27.75 -3.89711 2.5
      vertex -28.6094 -4.27975 2.5
      vertex -30 -9.94522 2.5
    endloop
  endfacet
  facet normal 0 0 1
    outer loop
      vertex -28.6094 -4.27975 2.5
      vertex -29.5296 -4.47535 2.5
      vertex -30 -9.94522 2.5
    endloop
  endfacet
  facet normal 0 0 1
    outer loop
      vertex -29.5296 -4.47535 2.5
      vertex -30.4704 -4.47535 2.5
      vertex -30 -9.94522 2.5
    endloop
  endfacet
  facet normal -0 -0 1
    outer loop
      vertex -30.4704 -4.47535 2.5
      vertex -31.3906 -4.27975 2.5
      vertex -30 -9.94522 2.5
    endloop
  endfacet
  facet normal -0 -0 1
    outer loop
      vertex -31.3906 -4.27975 2.5
      vertex -32.25 -3.89711 2.5
      vertex -30 -9.94522 2.5
    endloop
  endfacet
  facet normal -0 -0 1
    outer loop
      vertex -32.25 -3.89711 2.5
      vertex -33.0111 -3.34415 2.5
      vertex -30 -9.94522 2.5
    endloop
  endfacet
  facet normal 0 0 1
    outer loop
      vertex -34.111 -1.83031 2.5
      vertex -34.4017 -0.935603 2.5
      vertex -39.7815 2.07912 2.5
    endloop
  endfacet
  facet normal 0 0 1
    outer loop
      vertex -34.4017 -0.935603 2.5
      vertex -34.5 0 2.5
      vertex -39.7815 2.07912 2.5
    endloop
  endfacet
  facet normal 0 0 1
    outer loop
      vertex -26.3594 -2.64503 2.5
      vertex -26.9889 -3.34415 2.5
      vertex -30 -9.94522 2.5
    endloop
  endfacet
  facet normal 0 -0 1
    outer loop
      vertex 20 -7 2.5
      vertex -20 -7 2.5
      vertex 30 -10 2.5
    endloop
  endfacet
  facet normal 0 0 1
    outer loop
      vertex 20 -7 2.5
      vertex 30 -9.94522 2.5
      vertex 31.0453 -9.94522 2.5
    endloop
  endfacet
  facet normal 0 -0 1
    outer loop
      vertex -33.0902 9.51056 2.5
      vertex -39.7815 2.07912 2.5
      vertex -32.9744 9.53518 2.5
    endloop
  endfacet
  facet normal 0 -0 1
    outer loop
      vertex -35 8.66025 2.5
      vertex -39.7815 2.07912 2.5
      vertex -33.0902 9.51056 2.5
    endloop
  endfacet
  facet normal 0 -0 1
    outer loop
      vertex -36.6913 7.43145 2.5
      vertex -39.7815 2.07912 2.5
      vertex -35 8.66025 2.5
    endloop
  endfacet
  facet normal 0 -0 1
    outer loop
      vertex -38.0902 5.87785 2.5
      vertex -39.7815 2.07912 2.5
      vertex -36.6913 7.43145 2.5
    endloop
  endfacet
  facet normal 0 -0 1
    outer loop
      vertex -39.1355 4.06737 2.5
      vertex -39.7815 2.07912 2.5
      vertex -38.0902 5.87785 2.5
    endloop
  endfacet
  facet normal 0 0 1
    outer loop
      vertex 30 -10 2.5
      vertex -20 -7 2.5
      vertex -30 -9.94522 2.5
    endloop
  endfacet
  facet normal 0 0 1
    outer loop
      vertex -27.1 10 2.5
      vertex -21 7 2.5
      vertex 26.9 10 2.5
    endloop
  endfacet
  facet normal 0 -0 1
    outer loop
      vertex 21 7 2.5
      vertex 20 -7 2.5
      vertex 25.889 -1.83031 2.5
    endloop
  endfacet
  facet normal -0 0 1
    outer loop
      vertex 35 -8.66025 2.5
      vertex 20 -7 2.5
      vertex 33.0902 -9.51056 2.5
    endloop
  endfacet
  facet normal 0 0 1
    outer loop
      vertex -21 7 2.5
      vertex 21 7 2.5
      vertex 26.9 10 2.5
    endloop
  endfacet
  facet normal 0 0 1
    outer loop
      vertex 33.1737 9.47336 2.5
      vertex 36.6913 7.43145 2.5
      vertex 35 8.66025 2.5
    endloop
  endfacet
  facet normal 0 0 1
    outer loop
      vertex 33.1737 9.47336 2.5
      vertex 38.0902 5.87785 2.5
      vertex 36.6913 7.43145 2.5
    endloop
  endfacet
  facet normal 0 0 1
    outer loop
      vertex 33.1737 9.47336 2.5
      vertex 39.1355 4.06737 2.5
      vertex 38.0902 5.87785 2.5
    endloop
  endfacet
  facet normal 0 0 1
    outer loop
      vertex 33.1737 9.47336 2.5
      vertex 39.7815 2.07912 2.5
      vertex 39.1355 4.06737 2.5
    endloop
  endfacet
  facet normal 0 0 1
    outer loop
      vertex 33.1737 9.47336 2.5
      vertex 34.3443 1.11216 2.5
      vertex 39.7815 2.07912 2.5
    endloop
  endfacet
  facet normal 0 0 1
    outer loop
      vertex -20 -7 2.5
      vertex -25.5983 0.935603 2.5
      vertex -25.5 0 2.5
    endloop
  endfacet
  facet normal 0 0 1
    outer loop
      vertex -20 -7 2.5
      vertex -25.6995 1.24703 2.5
      vertex -25.5983 0.935603 2.5
    endloop
  endfacet
  facet normal 0 0 1
    outer loop
      vertex -20 -7 2.5
      vertex -21 7 2.5
      vertex -25.6995 1.24703 2.5
    endloop
  endfacet
endsolid OpenSCAD_Model
