solid OpenSCAD_Model
  facet normal -0 0 -1
    outer loop
      vertex -76.7 0 -2.5
      vertex -76.4815 2.07912 -2.5
      vertex -76.4815 -2.07912 -2.5
    endloop
  endfacet
  facet normal 0 -0 -1
    outer loop
      vertex -76.4815 -2.07912 -2.5
      vertex -76.4815 2.07912 -2.5
      vertex -75.8355 4.06737 -2.5
    endloop
  endfacet
  facet normal 0 0 -1
    outer loop
      vertex -76.4815 -2.07912 -2.5
      vertex -75.8355 4.06737 -2.5
      vertex -74.7902 5.87785 -2.5
    endloop
  endfacet
  facet normal 0 0 -1
    outer loop
      vertex -76.4815 -2.07912 -2.5
      vertex -74.7902 5.87785 -2.5
      vertex -73.3913 7.43145 -2.5
    endloop
  endfacet
  facet normal 0 0 -1
    outer loop
      vertex -76.4815 -2.07912 -2.5
      vertex -73.3913 7.43145 -2.5
      vertex -71.7 8.66025 -2.5
    endloop
  endfacet
  facet normal 0 0 -1
    outer loop
      vertex -76.4815 -2.07912 -2.5
      vertex -71.7 8.66025 -2.5
      vertex -69.7902 9.51056 -2.5
    endloop
  endfacet
  facet normal 0 0 -1
    outer loop
      vertex -76.4815 -2.07912 -2.5
      vertex -69.7902 9.51056 -2.5
      vertex -69.6744 9.53518 -2.5
    endloop
  endfacet
  facet normal 0 0 -1
    outer loop
      vertex -76.4815 -2.07912 -2.5
      vertex -69.6744 9.53518 -2.5
      vertex -71.0005 1.24703 -2.5
    endloop
  endfacet
  facet normal 0 0 -1
    outer loop
      vertex -76.4815 -2.07912 -2.5
      vertex -71.0005 1.24703 -2.5
      vertex -71.1017 0.935603 -2.5
    endloop
  endfacet
  facet normal 0 0 -1
    outer loop
      vertex -76.4815 -2.07912 -2.5
      vertex -71.1017 0.935603 -2.5
      vertex -71.2 0 -2.5
    endloop
  endfacet
  facet normal 0 0 -1
    outer loop
      vertex -71.2 0 -2.5
      vertex -71.1017 -0.935603 -2.5
      vertex -76.4815 -2.07912 -2.5
    endloop
  endfacet
  facet normal 0 0 -1
    outer loop
      vertex -71.1017 -0.935603 -2.5
      vertex -70.811 -1.83031 -2.5
      vertex -76.4815 -2.07912 -2.5
    endloop
  endfacet
  facet normal 0 0 -1
    outer loop
      vertex -70.811 -1.83031 -2.5
      vertex -70.3406 -2.64503 -2.5
      vertex -76.4815 -2.07912 -2.5
    endloop
  endfacet
  facet normal 0 0 -1
    outer loop
      vertex -70.3406 -2.64503 -2.5
      vertex -69.7111 -3.34415 -2.5
      vertex -76.4815 -2.07912 -2.5
    endloop
  endfacet
  facet normal 0 0 -1
    outer loop
      vertex -69.7111 -3.34415 -2.5
      vertex -68.95 -3.89711 -2.5
      vertex -76.4815 -2.07912 -2.5
    endloop
  endfacet
  facet normal 0 0 -1
    outer loop
      vertex -68.95 -3.89711 -2.5
      vertex -68.0906 -4.27975 -2.5
      vertex -76.4815 -2.07912 -2.5
    endloop
  endfacet
  facet normal 0 0 -1
    outer loop
      vertex -56.7 -7 -2.5
      vertex -62.2 0 -2.5
      vertex -62.2983 0.935603 -2.5
    endloop
  endfacet
  facet normal 0 0 -1
    outer loop
      vertex -56.7 -7 -2.5
      vertex -62.2983 -0.935603 -2.5
      vertex -62.2 0 -2.5
    endloop
  endfacet
  facet normal 0 0 -1
    outer loop
      vertex -56.7 -7 -2.5
      vertex -62.589 -1.83031 -2.5
      vertex -62.2983 -0.935603 -2.5
    endloop
  endfacet
  facet normal 0 0 -1
    outer loop
      vertex -56.7 -7 -2.5
      vertex -63.0594 -2.64503 -2.5
      vertex -62.589 -1.83031 -2.5
    endloop
  endfacet
  facet normal 0 0 -1
    outer loop
      vertex -56.7 -7 -2.5
      vertex -63.6889 -3.34415 -2.5
      vertex -63.0594 -2.64503 -2.5
    endloop
  endfacet
  facet normal 0 0 -1
    outer loop
      vertex -56.7 -7 -2.5
      vertex -64.45 -3.89711 -2.5
      vertex -63.6889 -3.34415 -2.5
    endloop
  endfacet
  facet normal 0 0 -1
    outer loop
      vertex -56.7 -7 -2.5
      vertex -65.3094 -4.27975 -2.5
      vertex -64.45 -3.89711 -2.5
    endloop
  endfacet
  facet normal 0 0 -1
    outer loop
      vertex -62.2983 0.935603 -2.5
      vertex -62.3995 1.24703 -2.5
      vertex -63.8 10 -2.5
    endloop
  endfacet
  facet normal 0 -0 -1
    outer loop
      vertex -57.7 7 -2.5
      vertex -63.8 10 -2.5
      vertex 63.6 10 -2.5
    endloop
  endfacet
  facet normal 0 0 -1
    outer loop
      vertex -56.7 -7 -2.5
      vertex -66.2296 -4.47535 -2.5
      vertex -65.3094 -4.27975 -2.5
    endloop
  endfacet
  facet normal -0 0 -1
    outer loop
      vertex 57.7 7 -2.5
      vertex 63.6 10 -2.5
      vertex 62.3557 1.11216 -2.5
    endloop
  endfacet
  facet normal 0 0 -1
    outer loop
      vertex 63.0594 -2.64503 -2.5
      vertex 63.6889 -3.34415 -2.5
      vertex 56.7 -7 -2.5
    endloop
  endfacet
  facet normal 0 0 -1
    outer loop
      vertex 57.7 7 -2.5
      vertex 62.589 -1.83031 -2.5
      vertex 56.7 -7 -2.5
    endloop
  endfacet
  facet normal 0 0 -1
    outer loop
      vertex 62.589 -1.83031 -2.5
      vertex 63.0594 -2.64503 -2.5
      vertex 56.7 -7 -2.5
    endloop
  endfacet
  facet normal 0 0 -1
    outer loop
      vertex 71.1017 0.935603 -2.5
      vertex 71.0443 1.11216 -2.5
      vertex 69.8737 9.47336 -2.5
    endloop
  endfacet
  facet normal 0 -0 -1
    outer loop
      vertex 71.1017 0.935603 -2.5
      vertex 69.8737 9.47336 -2.5
      vertex 71.7 8.66025 -2.5
    endloop
  endfacet
  facet normal -0 0 -1
    outer loop
      vertex 71.1017 0.935603 -2.5
      vertex 71.7 8.66025 -2.5
      vertex 71.2 0 -2.5
    endloop
  endfacet
  facet normal 0 0 -1
    outer loop
      vertex 71.2 0 -2.5
      vertex 71.7 8.66025 -2.5
      vertex 73.3913 7.43145 -2.5
    endloop
  endfacet
  facet normal -0 0 -1
    outer loop
      vertex 71.2 0 -2.5
      vertex 73.3913 7.43145 -2.5
      vertex 71.1017 -0.935603 -2.5
    endloop
  endfacet
  facet normal 0 0 -1
    outer loop
      vertex 71.1017 -0.935603 -2.5
      vertex 73.3913 7.43145 -2.5
      vertex 74.7902 5.87785 -2.5
    endloop
  endfacet
  facet normal -0 0 -1
    outer loop
      vertex 71.1017 -0.935603 -2.5
      vertex 74.7902 5.87785 -2.5
      vertex 70.811 -1.83031 -2.5
    endloop
  endfacet
  facet normal 0 0 -1
    outer loop
      vertex 70.811 -1.83031 -2.5
      vertex 74.7902 5.87785 -2.5
      vertex 75.8355 4.06737 -2.5
    endloop
  endfacet
  facet normal -0 0 -1
    outer loop
      vertex 70.811 -1.83031 -2.5
      vertex 75.8355 4.06737 -2.5
      vertex 70.3406 -2.64503 -2.5
    endloop
  endfacet
  facet normal 0 0 -1
    outer loop
      vertex 70.3406 -2.64503 -2.5
      vertex 75.8355 4.06737 -2.5
      vertex 76.4815 2.07912 -2.5
    endloop
  endfacet
  facet normal -0 0 -1
    outer loop
      vertex 70.3406 -2.64503 -2.5
      vertex 76.4815 2.07912 -2.5
      vertex 69.7111 -3.34415 -2.5
    endloop
  endfacet
  facet normal 0 0 -1
    outer loop
      vertex 69.7111 -3.34415 -2.5
      vertex 76.4815 2.07912 -2.5
      vertex 76.7 0 -2.5
    endloop
  endfacet
  facet normal -0 0 -1
    outer loop
      vertex 69.7111 -3.34415 -2.5
      vertex 76.7 0 -2.5
      vertex 68.95 -3.89711 -2.5
    endloop
  endfacet
  facet normal 0 0 -1
    outer loop
      vertex 68.95 -3.89711 -2.5
      vertex 76.7 0 -2.5
      vertex 76.4815 -2.07912 -2.5
    endloop
  endfacet
  facet normal -0 0 -1
    outer loop
      vertex 68.95 -3.89711 -2.5
      vertex 76.4815 -2.07912 -2.5
      vertex 68.0906 -4.27975 -2.5
    endloop
  endfacet
  facet normal 0 0 -1
    outer loop
      vertex 68.0906 -4.27975 -2.5
      vertex 76.4815 -2.07912 -2.5
      vertex 75.8355 -4.06737 -2.5
    endloop
  endfacet
  facet normal -0 0 -1
    outer loop
      vertex 68.0906 -4.27975 -2.5
      vertex 75.8355 -4.06737 -2.5
      vertex 67.1704 -4.47535 -2.5
    endloop
  endfacet
  facet normal -0 0 -1
    outer loop
      vertex 67.1704 -4.47535 -2.5
      vertex 75.8355 -4.06737 -2.5
      vertex 74.7902 -5.87785 -2.5
    endloop
  endfacet
  facet normal 0 0 -1
    outer loop
      vertex 67.1704 -4.47535 -2.5
      vertex 74.7902 -5.87785 -2.5
      vertex 66.2296 -4.47535 -2.5
    endloop
  endfacet
  facet normal -0 0 -1
    outer loop
      vertex 56.7 -7 -2.5
      vertex 74.7902 -5.87785 -2.5
      vertex 73.3913 -7.43145 -2.5
    endloop
  endfacet
  facet normal 0 0 -1
    outer loop
      vertex 65.3094 -4.27975 -2.5
      vertex 66.2296 -4.47535 -2.5
      vertex 56.7 -7 -2.5
    endloop
  endfacet
  facet normal 0 0 -1
    outer loop
      vertex 56.7 -7 -2.5
      vertex 66.7 -10 -2.5
      vertex -56.7 -7 -2.5
    endloop
  endfacet
  facet normal 0 0 -1
    outer loop
      vertex 56.7 -7 -2.5
      vertex 66.7 -9.94522 -2.5
      vertex 66.7 -10 -2.5
    endloop
  endfacet
  facet normal 0 0 -1
    outer loop
      vertex 56.7 -7 -2.5
      vertex 67.7453 -9.94522 -2.5
      vertex 66.7 -9.94522 -2.5
    endloop
  endfacet
  facet normal 0 0 -1
    outer loop
      vertex -66.7 -9.94522 -2.5
      vertex 66.7 -10 -2.5
      vertex -66.7 -10 -2.5
    endloop
  endfacet
  facet normal 0 0 -1
    outer loop
      vertex -56.7 -7 -2.5
      vertex 66.7 -10 -2.5
      vertex -66.7 -9.94522 -2.5
    endloop
  endfacet
  facet normal -0 0 -1
    outer loop
      vertex -57.7 7 -2.5
      vertex 63.6 10 -2.5
      vertex 57.7 7 -2.5
    endloop
  endfacet
  facet normal 0 0 -1
    outer loop
      vertex -76.4815 -2.07912 -2.5
      vertex -67.7453 -9.94522 -2.5
      vertex -69.7902 -9.51056 -2.5
    endloop
  endfacet
  facet normal 0 0 -1
    outer loop
      vertex -76.4815 -2.07912 -2.5
      vertex -69.7902 -9.51056 -2.5
      vertex -71.7 -8.66025 -2.5
    endloop
  endfacet
  facet normal 0 0 -1
    outer loop
      vertex -76.4815 -2.07912 -2.5
      vertex -71.7 -8.66025 -2.5
      vertex -73.3913 -7.43145 -2.5
    endloop
  endfacet
  facet normal 0 0 -1
    outer loop
      vertex -76.4815 -2.07912 -2.5
      vertex -73.3913 -7.43145 -2.5
      vertex -74.7902 -5.87785 -2.5
    endloop
  endfacet
  facet normal 0 0 -1
    outer loop
      vertex -76.4815 -2.07912 -2.5
      vertex -74.7902 -5.87785 -2.5
      vertex -75.8355 -4.06737 -2.5
    endloop
  endfacet
  facet normal 0 -0 -1
    outer loop
      vertex -62.2983 0.935603 -2.5
      vertex -63.8 10 -2.5
      vertex -57.7 7 -2.5
    endloop
  endfacet
  facet normal 0 0 -1
    outer loop
      vertex -56.7 -7 -2.5
      vertex -67.1704 -4.47535 -2.5
      vertex -66.2296 -4.47535 -2.5
    endloop
  endfacet
  facet normal 0 0 -1
    outer loop
      vertex 56.7 -7 -2.5
      vertex 69.7902 -9.51056 -2.5
      vertex 67.7453 -9.94522 -2.5
    endloop
  endfacet
  facet normal 0 0 -1
    outer loop
      vertex -67.1704 -4.47535 -2.5
      vertex -56.7 -7 -2.5
      vertex -66.7 -9.94522 -2.5
    endloop
  endfacet
  facet normal 0 0 -1
    outer loop
      vertex 63.6889 -3.34415 -2.5
      vertex 64.45 -3.89711 -2.5
      vertex 56.7 -7 -2.5
    endloop
  endfacet
  facet normal 0 0 -1
    outer loop
      vertex 64.45 -3.89711 -2.5
      vertex 65.3094 -4.27975 -2.5
      vertex 56.7 -7 -2.5
    endloop
  endfacet
  facet normal 0 0 -1
    outer loop
      vertex -56.7 -7 -2.5
      vertex -62.2983 0.935603 -2.5
      vertex -57.7 7 -2.5
    endloop
  endfacet
  facet normal 0 0 -1
    outer loop
      vertex -67.7453 -9.94522 -2.5
      vertex -76.4815 -2.07912 -2.5
      vertex -68.0906 -4.27975 -2.5
    endloop
  endfacet
  facet normal 0 -0 -1
    outer loop
      vertex -67.7453 -9.94522 -2.5
      vertex -68.0906 -4.27975 -2.5
      vertex -67.1704 -4.47535 -2.5
    endloop
  endfacet
  facet normal -0 0 -1
    outer loop
      vertex -67.7453 -9.94522 -2.5
      vertex -67.1704 -4.47535 -2.5
      vertex -66.7 -9.94522 -2.5
    endloop
  endfacet
  facet normal 0 0 -1
    outer loop
      vertex 56.7 -7 -2.5
      vertex 73.3913 -7.43145 -2.5
      vertex 71.7 -8.66025 -2.5
    endloop
  endfacet
  facet normal 0 0 -1
    outer loop
      vertex 56.7 -7 -2.5
      vertex 71.7 -8.66025 -2.5
      vertex 69.7902 -9.51056 -2.5
    endloop
  endfacet
  facet normal 0 0 -1
    outer loop
      vertex 57.7 7 -2.5
      vertex 62.3557 1.11216 -2.5
      vertex 62.2983 0.935603 -2.5
    endloop
  endfacet
  facet normal 0 0 -1
    outer loop
      vertex 57.7 7 -2.5
      vertex 62.2983 0.935603 -2.5
      vertex 62.2 0 -2.5
    endloop
  endfacet
  facet normal 0 0 -1
    outer loop
      vertex 57.7 7 -2.5
      vertex 62.2 0 -2.5
      vertex 62.2983 -0.935603 -2.5
    endloop
  endfacet
  facet normal 0 0 -1
    outer loop
      vertex 57.7 7 -2.5
      vertex 62.2983 -0.935603 -2.5
      vertex 62.589 -1.83031 -2.5
    endloop
  endfacet
  facet normal 0 0 -1
    outer loop
      vertex 66.2296 -4.47535 -2.5
      vertex 74.7902 -5.87785 -2.5
      vertex 56.7 -7 -2.5
    endloop
  endfacet
  facet normal -0.994522 0.104528 0
    outer loop
      vertex -76.7 0 -2.5
      vertex -76.7 0 2.5
      vertex -76.4815 2.07912 -2.5
    endloop
  endfacet
  facet normal -0.994522 0.104528 0
    outer loop
      vertex -76.4815 2.07912 -2.5
      vertex -76.7 0 2.5
      vertex -76.4815 2.07912 2.5
    endloop
  endfacet
  facet normal -0.994522 -0.104528 -0
    outer loop
      vertex -76.7 0 -2.5
      vertex -76.4815 -2.07912 -2.5
      vertex -76.7 0 2.5
    endloop
  endfacet
  facet normal -0.994522 -0.104528 0
    outer loop
      vertex -76.7 0 2.5
      vertex -76.4815 -2.07912 -2.5
      vertex -76.4815 -2.07912 2.5
    endloop
  endfacet
  facet normal -0.951057 -0.309017 -0
    outer loop
      vertex -76.4815 -2.07912 -2.5
      vertex -75.8355 -4.06737 -2.5
      vertex -76.4815 -2.07912 2.5
    endloop
  endfacet
  facet normal -0.951057 -0.309017 0
    outer loop
      vertex -76.4815 -2.07912 2.5
      vertex -75.8355 -4.06737 -2.5
      vertex -75.8355 -4.06737 2.5
    endloop
  endfacet
  facet normal -0.866025 -0.5 -0
    outer loop
      vertex -75.8355 -4.06737 -2.5
      vertex -74.7902 -5.87785 -2.5
      vertex -75.8355 -4.06737 2.5
    endloop
  endfacet
  facet normal -0.866025 -0.5 0
    outer loop
      vertex -75.8355 -4.06737 2.5
      vertex -74.7902 -5.87785 -2.5
      vertex -74.7902 -5.87785 2.5
    endloop
  endfacet
  facet normal -0.743145 -0.669131 -0
    outer loop
      vertex -74.7902 -5.87785 -2.5
      vertex -73.3913 -7.43145 -2.5
      vertex -74.7902 -5.87785 2.5
    endloop
  endfacet
  facet normal -0.743145 -0.669131 0
    outer loop
      vertex -74.7902 -5.87785 2.5
      vertex -73.3913 -7.43145 -2.5
      vertex -73.3913 -7.43145 2.5
    endloop
  endfacet
  facet normal -0.587785 -0.809017 0
    outer loop
      vertex -73.3913 -7.43145 2.5
      vertex -73.3913 -7.43145 -2.5
      vertex -71.7 -8.66025 -2.5
    endloop
  endfacet
  facet normal -0.587785 -0.809017 0
    outer loop
      vertex -71.7 -8.66025 2.5
      vertex -73.3913 -7.43145 2.5
      vertex -71.7 -8.66025 -2.5
    endloop
  endfacet
  facet normal -0.406737 -0.913545 0
    outer loop
      vertex -71.7 -8.66025 2.5
      vertex -71.7 -8.66025 -2.5
      vertex -69.7902 -9.51056 -2.5
    endloop
  endfacet
  facet normal -0.406737 -0.913545 0
    outer loop
      vertex -69.7902 -9.51056 2.5
      vertex -71.7 -8.66025 2.5
      vertex -69.7902 -9.51056 -2.5
    endloop
  endfacet
  facet normal -0.207912 -0.978148 0
    outer loop
      vertex -69.7902 -9.51056 2.5
      vertex -69.7902 -9.51056 -2.5
      vertex -67.7453 -9.94522 -2.5
    endloop
  endfacet
  facet normal -0.207912 -0.978148 0
    outer loop
      vertex -67.7453 -9.94522 2.5
      vertex -69.7902 -9.51056 2.5
      vertex -67.7453 -9.94522 -2.5
    endloop
  endfacet
  facet normal 0 -1 0
    outer loop
      vertex -67.7453 -9.94522 2.5
      vertex -67.7453 -9.94522 -2.5
      vertex -66.7 -9.94522 -2.5
    endloop
  endfacet
  facet normal 0 -1 0
    outer loop
      vertex -66.7 -9.94522 2.5
      vertex -67.7453 -9.94522 2.5
      vertex -66.7 -9.94522 -2.5
    endloop
  endfacet
  facet normal -1 -0 -0
    outer loop
      vertex -66.7 -10 -2.5
      vertex -66.7 -10 2.5
      vertex -66.7 -9.94522 -2.5
    endloop
  endfacet
  facet normal -1 0 0
    outer loop
      vertex -66.7 -9.94522 -2.5
      vertex -66.7 -10 2.5
      vertex -66.7 -9.94522 2.5
    endloop
  endfacet
  facet normal 0 -1 0
    outer loop
      vertex -66.7 -10 2.5
      vertex -66.7 -10 -2.5
      vertex 66.7 -10 -2.5
    endloop
  endfacet
  facet normal 0 -1 0
    outer loop
      vertex 66.7 -10 2.5
      vertex -66.7 -10 2.5
      vertex 66.7 -10 -2.5
    endloop
  endfacet
  facet normal 1 0 -0
    outer loop
      vertex 66.7 -10 2.5
      vertex 66.7 -10 -2.5
      vertex 66.7 -9.94522 -2.5
    endloop
  endfacet
  facet normal 1 0 0
    outer loop
      vertex 66.7 -9.94522 2.5
      vertex 66.7 -10 2.5
      vertex 66.7 -9.94522 -2.5
    endloop
  endfacet
  facet normal 0 -1 0
    outer loop
      vertex 66.7 -9.94522 2.5
      vertex 66.7 -9.94522 -2.5
      vertex 67.7453 -9.94522 -2.5
    endloop
  endfacet
  facet normal 0 -1 0
    outer loop
      vertex 67.7453 -9.94522 2.5
      vertex 66.7 -9.94522 2.5
      vertex 67.7453 -9.94522 -2.5
    endloop
  endfacet
  facet normal 0.207912 -0.978148 0
    outer loop
      vertex 67.7453 -9.94522 2.5
      vertex 67.7453 -9.94522 -2.5
      vertex 69.7902 -9.51056 -2.5
    endloop
  endfacet
  facet normal 0.207912 -0.978148 0
    outer loop
      vertex 69.7902 -9.51056 2.5
      vertex 67.7453 -9.94522 2.5
      vertex 69.7902 -9.51056 -2.5
    endloop
  endfacet
  facet normal 0.406737 -0.913545 0
    outer loop
      vertex 69.7902 -9.51056 2.5
      vertex 69.7902 -9.51056 -2.5
      vertex 71.7 -8.66025 -2.5
    endloop
  endfacet
  facet normal 0.406737 -0.913545 0
    outer loop
      vertex 71.7 -8.66025 2.5
      vertex 69.7902 -9.51056 2.5
      vertex 71.7 -8.66025 -2.5
    endloop
  endfacet
  facet normal 0.587785 -0.809017 0
    outer loop
      vertex 71.7 -8.66025 2.5
      vertex 71.7 -8.66025 -2.5
      vertex 73.3913 -7.43145 -2.5
    endloop
  endfacet
  facet normal 0.587785 -0.809017 0
    outer loop
      vertex 73.3913 -7.43145 2.5
      vertex 71.7 -8.66025 2.5
      vertex 73.3913 -7.43145 -2.5
    endloop
  endfacet
  facet normal 0.743145 -0.669131 0
    outer loop
      vertex 73.3913 -7.43145 2.5
      vertex 73.3913 -7.43145 -2.5
      vertex 74.7902 -5.87785 -2.5
    endloop
  endfacet
  facet normal 0.743145 -0.669131 0
    outer loop
      vertex 74.7902 -5.87785 2.5
      vertex 73.3913 -7.43145 2.5
      vertex 74.7902 -5.87785 -2.5
    endloop
  endfacet
  facet normal 0.866025 -0.5 0
    outer loop
      vertex 74.7902 -5.87785 2.5
      vertex 74.7902 -5.87785 -2.5
      vertex 75.8355 -4.06737 -2.5
    endloop
  endfacet
  facet normal 0.866025 -0.5 0
    outer loop
      vertex 75.8355 -4.06737 2.5
      vertex 74.7902 -5.87785 2.5
      vertex 75.8355 -4.06737 -2.5
    endloop
  endfacet
  facet normal 0.951057 -0.309017 0
    outer loop
      vertex 75.8355 -4.06737 2.5
      vertex 75.8355 -4.06737 -2.5
      vertex 76.4815 -2.07912 -2.5
    endloop
  endfacet
  facet normal 0.951057 -0.309017 0
    outer loop
      vertex 76.4815 -2.07912 2.5
      vertex 75.8355 -4.06737 2.5
      vertex 76.4815 -2.07912 -2.5
    endloop
  endfacet
  facet normal 0.994522 -0.104528 0
    outer loop
      vertex 76.4815 -2.07912 2.5
      vertex 76.4815 -2.07912 -2.5
      vertex 76.7 0 -2.5
    endloop
  endfacet
  facet normal 0.994522 -0.104528 0
    outer loop
      vertex 76.7 0 2.5
      vertex 76.4815 -2.07912 2.5
      vertex 76.7 0 -2.5
    endloop
  endfacet
  facet normal 0.994522 0.104528 0
    outer loop
      vertex 76.7 0 -2.5
      vertex 76.4815 2.07912 -2.5
      vertex 76.4815 2.07912 2.5
    endloop
  endfacet
  facet normal 0.994522 0.104528 -0
    outer loop
      vertex 76.7 0 2.5
      vertex 76.7 0 -2.5
      vertex 76.4815 2.07912 2.5
    endloop
  endfacet
  facet normal 0.951057 0.309017 0
    outer loop
      vertex 76.4815 2.07912 -2.5
      vertex 75.8355 4.06737 -2.5
      vertex 75.8355 4.06737 2.5
    endloop
  endfacet
  facet normal 0.951057 0.309017 -0
    outer loop
      vertex 76.4815 2.07912 2.5
      vertex 76.4815 2.07912 -2.5
      vertex 75.8355 4.06737 2.5
    endloop
  endfacet
  facet normal 0.866025 0.5 0
    outer loop
      vertex 75.8355 4.06737 -2.5
      vertex 74.7902 5.87785 -2.5
      vertex 74.7902 5.87785 2.5
    endloop
  endfacet
  facet normal 0.866025 0.5 -0
    outer loop
      vertex 75.8355 4.06737 2.5
      vertex 75.8355 4.06737 -2.5
      vertex 74.7902 5.87785 2.5
    endloop
  endfacet
  facet normal 0.743145 0.669131 0
    outer loop
      vertex 74.7902 5.87785 -2.5
      vertex 73.3913 7.43145 -2.5
      vertex 73.3913 7.43145 2.5
    endloop
  endfacet
  facet normal 0.743145 0.669131 -0
    outer loop
      vertex 74.7902 5.87785 2.5
      vertex 74.7902 5.87785 -2.5
      vertex 73.3913 7.43145 2.5
    endloop
  endfacet
  facet normal 0.587785 0.809017 0
    outer loop
      vertex 71.7 8.66025 -2.5
      vertex 71.7 8.66025 2.5
      vertex 73.3913 7.43145 -2.5
    endloop
  endfacet
  facet normal 0.587785 0.809017 0
    outer loop
      vertex 73.3913 7.43145 -2.5
      vertex 71.7 8.66025 2.5
      vertex 73.3913 7.43145 2.5
    endloop
  endfacet
  facet normal 0.406737 0.913545 0
    outer loop
      vertex 69.8737 9.47336 -2.5
      vertex 69.8737 9.47336 2.5
      vertex 71.7 8.66025 -2.5
    endloop
  endfacet
  facet normal 0.406737 0.913545 0
    outer loop
      vertex 71.7 8.66025 -2.5
      vertex 69.8737 9.47336 2.5
      vertex 71.7 8.66025 2.5
    endloop
  endfacet
  facet normal -0.990342 -0.138648 0
    outer loop
      vertex 71.0443 1.11216 2.5
      vertex 69.8737 9.47336 2.5
      vertex 71.0443 1.11216 -2.5
    endloop
  endfacet
  facet normal -0.990342 -0.138648 0
    outer loop
      vertex 71.0443 1.11216 -2.5
      vertex 69.8737 9.47336 2.5
      vertex 69.8737 9.47336 -2.5
    endloop
  endfacet
  facet normal -0.951057 -0.309016 0
    outer loop
      vertex 71.1017 0.935603 2.5
      vertex 71.0443 1.11216 2.5
      vertex 71.1017 0.935603 -2.5
    endloop
  endfacet
  facet normal -0.951057 -0.309016 0
    outer loop
      vertex 71.1017 0.935603 -2.5
      vertex 71.0443 1.11216 2.5
      vertex 71.0443 1.11216 -2.5
    endloop
  endfacet
  facet normal -0.994522 -0.104529 0
    outer loop
      vertex 71.2 0 2.5
      vertex 71.1017 0.935603 2.5
      vertex 71.2 0 -2.5
    endloop
  endfacet
  facet normal -0.994522 -0.104529 0
    outer loop
      vertex 71.2 0 -2.5
      vertex 71.1017 0.935603 2.5
      vertex 71.1017 0.935603 -2.5
    endloop
  endfacet
  facet normal -0.994522 0.104529 0
    outer loop
      vertex 71.2 0 2.5
      vertex 71.2 0 -2.5
      vertex 71.1017 -0.935603 2.5
    endloop
  endfacet
  facet normal -0.994522 0.104529 0
    outer loop
      vertex 71.1017 -0.935603 2.5
      vertex 71.2 0 -2.5
      vertex 71.1017 -0.935603 -2.5
    endloop
  endfacet
  facet normal -0.951057 0.309016 0
    outer loop
      vertex 71.1017 -0.935603 2.5
      vertex 71.1017 -0.935603 -2.5
      vertex 70.811 -1.83031 2.5
    endloop
  endfacet
  facet normal -0.951057 0.309016 0
    outer loop
      vertex 70.811 -1.83031 2.5
      vertex 71.1017 -0.935603 -2.5
      vertex 70.811 -1.83031 -2.5
    endloop
  endfacet
  facet normal -0.866025 0.500001 0
    outer loop
      vertex 70.811 -1.83031 2.5
      vertex 70.811 -1.83031 -2.5
      vertex 70.3406 -2.64503 2.5
    endloop
  endfacet
  facet normal -0.866025 0.500001 0
    outer loop
      vertex 70.3406 -2.64503 2.5
      vertex 70.811 -1.83031 -2.5
      vertex 70.3406 -2.64503 -2.5
    endloop
  endfacet
  facet normal -0.743145 0.66913 0
    outer loop
      vertex 70.3406 -2.64503 2.5
      vertex 70.3406 -2.64503 -2.5
      vertex 69.7111 -3.34415 2.5
    endloop
  endfacet
  facet normal -0.743145 0.66913 0
    outer loop
      vertex 69.7111 -3.34415 2.5
      vertex 70.3406 -2.64503 -2.5
      vertex 69.7111 -3.34415 -2.5
    endloop
  endfacet
  facet normal -0.587785 0.809017 0
    outer loop
      vertex 69.7111 -3.34415 2.5
      vertex 69.7111 -3.34415 -2.5
      vertex 68.95 -3.89711 2.5
    endloop
  endfacet
  facet normal -0.587785 0.809017 0
    outer loop
      vertex 68.95 -3.89711 2.5
      vertex 69.7111 -3.34415 -2.5
      vertex 68.95 -3.89711 -2.5
    endloop
  endfacet
  facet normal -0.406736 0.913546 0
    outer loop
      vertex 68.95 -3.89711 2.5
      vertex 68.95 -3.89711 -2.5
      vertex 68.0906 -4.27975 2.5
    endloop
  endfacet
  facet normal -0.406736 0.913546 0
    outer loop
      vertex 68.0906 -4.27975 2.5
      vertex 68.95 -3.89711 -2.5
      vertex 68.0906 -4.27975 -2.5
    endloop
  endfacet
  facet normal -0.207913 0.978147 0
    outer loop
      vertex 68.0906 -4.27975 2.5
      vertex 68.0906 -4.27975 -2.5
      vertex 67.1704 -4.47535 2.5
    endloop
  endfacet
  facet normal -0.207913 0.978147 0
    outer loop
      vertex 67.1704 -4.47535 2.5
      vertex 68.0906 -4.27975 -2.5
      vertex 67.1704 -4.47535 -2.5
    endloop
  endfacet
  facet normal 0 1 0
    outer loop
      vertex 67.1704 -4.47535 2.5
      vertex 67.1704 -4.47535 -2.5
      vertex 66.2296 -4.47535 2.5
    endloop
  endfacet
  facet normal 0 1 -0
    outer loop
      vertex 66.2296 -4.47535 2.5
      vertex 67.1704 -4.47535 -2.5
      vertex 66.2296 -4.47535 -2.5
    endloop
  endfacet
  facet normal 0.207913 0.978147 -0
    outer loop
      vertex 66.2296 -4.47535 2.5
      vertex 66.2296 -4.47535 -2.5
      vertex 65.3094 -4.27975 2.5
    endloop
  endfacet
  facet normal 0.207913 0.978147 -0
    outer loop
      vertex 65.3094 -4.27975 2.5
      vertex 66.2296 -4.47535 -2.5
      vertex 65.3094 -4.27975 -2.5
    endloop
  endfacet
  facet normal 0.406736 0.913546 -0
    outer loop
      vertex 65.3094 -4.27975 2.5
      vertex 65.3094 -4.27975 -2.5
      vertex 64.45 -3.89711 2.5
    endloop
  endfacet
  facet normal 0.406736 0.913546 -0
    outer loop
      vertex 64.45 -3.89711 2.5
      vertex 65.3094 -4.27975 -2.5
      vertex 64.45 -3.89711 -2.5
    endloop
  endfacet
  facet normal 0.587785 0.809017 -0
    outer loop
      vertex 64.45 -3.89711 2.5
      vertex 64.45 -3.89711 -2.5
      vertex 63.6889 -3.34415 2.5
    endloop
  endfacet
  facet normal 0.587785 0.809017 -0
    outer loop
      vertex 63.6889 -3.34415 2.5
      vertex 64.45 -3.89711 -2.5
      vertex 63.6889 -3.34415 -2.5
    endloop
  endfacet
  facet normal 0.743145 0.66913 0
    outer loop
      vertex 63.0594 -2.64503 2.5
      vertex 63.6889 -3.34415 2.5
      vertex 63.6889 -3.34415 -2.5
    endloop
  endfacet
  facet normal 0.743145 0.66913 0
    outer loop
      vertex 63.0594 -2.64503 -2.5
      vertex 63.0594 -2.64503 2.5
      vertex 63.6889 -3.34415 -2.5
    endloop
  endfacet
  facet normal 0.866025 0.500001 0
    outer loop
      vertex 62.589 -1.83031 2.5
      vertex 63.0594 -2.64503 2.5
      vertex 63.0594 -2.64503 -2.5
    endloop
  endfacet
  facet normal 0.866025 0.500001 0
    outer loop
      vertex 62.589 -1.83031 -2.5
      vertex 62.589 -1.83031 2.5
      vertex 63.0594 -2.64503 -2.5
    endloop
  endfacet
  facet normal 0.951057 0.309016 0
    outer loop
      vertex 62.2983 -0.935603 2.5
      vertex 62.589 -1.83031 2.5
      vertex 62.589 -1.83031 -2.5
    endloop
  endfacet
  facet normal 0.951057 0.309016 0
    outer loop
      vertex 62.2983 -0.935603 -2.5
      vertex 62.2983 -0.935603 2.5
      vertex 62.589 -1.83031 -2.5
    endloop
  endfacet
  facet normal 0.994522 0.104529 0
    outer loop
      vertex 62.2 0 2.5
      vertex 62.2983 -0.935603 2.5
      vertex 62.2983 -0.935603 -2.5
    endloop
  endfacet
  facet normal 0.994522 0.104529 0
    outer loop
      vertex 62.2 0 -2.5
      vertex 62.2 0 2.5
      vertex 62.2983 -0.935603 -2.5
    endloop
  endfacet
  facet normal 0.994522 -0.104529 0
    outer loop
      vertex 62.2983 0.935603 -2.5
      vertex 62.2983 0.935603 2.5
      vertex 62.2 0 2.5
    endloop
  endfacet
  facet normal 0.994522 -0.104529 0
    outer loop
      vertex 62.2 0 -2.5
      vertex 62.2983 0.935603 -2.5
      vertex 62.2 0 2.5
    endloop
  endfacet
  facet normal 0.951057 -0.309016 0
    outer loop
      vertex 62.3557 1.11216 -2.5
      vertex 62.3557 1.11216 2.5
      vertex 62.2983 0.935603 2.5
    endloop
  endfacet
  facet normal 0.951057 -0.309016 0
    outer loop
      vertex 62.2983 0.935603 -2.5
      vertex 62.3557 1.11216 -2.5
      vertex 62.2983 0.935603 2.5
    endloop
  endfacet
  facet normal 0.990342 -0.138648 0
    outer loop
      vertex 63.6 10 -2.5
      vertex 63.6 10 2.5
      vertex 62.3557 1.11216 2.5
    endloop
  endfacet
  facet normal 0.990342 -0.138648 0
    outer loop
      vertex 62.3557 1.11216 -2.5
      vertex 63.6 10 -2.5
      vertex 62.3557 1.11216 2.5
    endloop
  endfacet
  facet normal 0 1 0
    outer loop
      vertex -63.8 10 -2.5
      vertex -63.8 10 2.5
      vertex 63.6 10 -2.5
    endloop
  endfacet
  facet normal 0 1 0
    outer loop
      vertex 63.6 10 -2.5
      vertex -63.8 10 2.5
      vertex 63.6 10 2.5
    endloop
  endfacet
  facet normal -0.987441 -0.157991 0
    outer loop
      vertex -62.3995 1.24703 2.5
      vertex -63.8 10 2.5
      vertex -62.3995 1.24703 -2.5
    endloop
  endfacet
  facet normal -0.987441 -0.157991 0
    outer loop
      vertex -62.3995 1.24703 -2.5
      vertex -63.8 10 2.5
      vertex -63.8 10 -2.5
    endloop
  endfacet
  facet normal -0.951057 -0.309016 0
    outer loop
      vertex -62.2983 0.935603 2.5
      vertex -62.3995 1.24703 2.5
      vertex -62.2983 0.935603 -2.5
    endloop
  endfacet
  facet normal -0.951057 -0.309016 0
    outer loop
      vertex -62.2983 0.935603 -2.5
      vertex -62.3995 1.24703 2.5
      vertex -62.3995 1.24703 -2.5
    endloop
  endfacet
  facet normal -0.994522 -0.104529 0
    outer loop
      vertex -62.2 0 2.5
      vertex -62.2983 0.935603 2.5
      vertex -62.2 0 -2.5
    endloop
  endfacet
  facet normal -0.994522 -0.104529 0
    outer loop
      vertex -62.2 0 -2.5
      vertex -62.2983 0.935603 2.5
      vertex -62.2983 0.935603 -2.5
    endloop
  endfacet
  facet normal -0.994522 0.104529 0
    outer loop
      vertex -62.2 0 2.5
      vertex -62.2 0 -2.5
      vertex -62.2983 -0.935603 2.5
    endloop
  endfacet
  facet normal -0.994522 0.104529 0
    outer loop
      vertex -62.2983 -0.935603 2.5
      vertex -62.2 0 -2.5
      vertex -62.2983 -0.935603 -2.5
    endloop
  endfacet
  facet normal -0.951057 0.309016 0
    outer loop
      vertex -62.2983 -0.935603 2.5
      vertex -62.2983 -0.935603 -2.5
      vertex -62.589 -1.83031 2.5
    endloop
  endfacet
  facet normal -0.951057 0.309016 0
    outer loop
      vertex -62.589 -1.83031 2.5
      vertex -62.2983 -0.935603 -2.5
      vertex -62.589 -1.83031 -2.5
    endloop
  endfacet
  facet normal -0.866025 0.500001 0
    outer loop
      vertex -62.589 -1.83031 2.5
      vertex -62.589 -1.83031 -2.5
      vertex -63.0594 -2.64503 2.5
    endloop
  endfacet
  facet normal -0.866025 0.500001 0
    outer loop
      vertex -63.0594 -2.64503 2.5
      vertex -62.589 -1.83031 -2.5
      vertex -63.0594 -2.64503 -2.5
    endloop
  endfacet
  facet normal -0.743145 0.66913 0
    outer loop
      vertex -63.0594 -2.64503 2.5
      vertex -63.0594 -2.64503 -2.5
      vertex -63.6889 -3.34415 2.5
    endloop
  endfacet
  facet normal -0.743145 0.66913 0
    outer loop
      vertex -63.6889 -3.34415 2.5
      vertex -63.0594 -2.64503 -2.5
      vertex -63.6889 -3.34415 -2.5
    endloop
  endfacet
  facet normal -0.587785 0.809017 0
    outer loop
      vertex -63.6889 -3.34415 2.5
      vertex -63.6889 -3.34415 -2.5
      vertex -64.45 -3.89711 2.5
    endloop
  endfacet
  facet normal -0.587785 0.809017 0
    outer loop
      vertex -64.45 -3.89711 2.5
      vertex -63.6889 -3.34415 -2.5
      vertex -64.45 -3.89711 -2.5
    endloop
  endfacet
  facet normal -0.406736 0.913546 0
    outer loop
      vertex -64.45 -3.89711 2.5
      vertex -64.45 -3.89711 -2.5
      vertex -65.3094 -4.27975 2.5
    endloop
  endfacet
  facet normal -0.406736 0.913546 0
    outer loop
      vertex -65.3094 -4.27975 2.5
      vertex -64.45 -3.89711 -2.5
      vertex -65.3094 -4.27975 -2.5
    endloop
  endfacet
  facet normal -0.207913 0.978147 0
    outer loop
      vertex -65.3094 -4.27975 2.5
      vertex -65.3094 -4.27975 -2.5
      vertex -66.2296 -4.47535 2.5
    endloop
  endfacet
  facet normal -0.207913 0.978147 0
    outer loop
      vertex -66.2296 -4.47535 2.5
      vertex -65.3094 -4.27975 -2.5
      vertex -66.2296 -4.47535 -2.5
    endloop
  endfacet
  facet normal 0 1 0
    outer loop
      vertex -66.2296 -4.47535 2.5
      vertex -66.2296 -4.47535 -2.5
      vertex -67.1704 -4.47535 2.5
    endloop
  endfacet
  facet normal 0 1 -0
    outer loop
      vertex -67.1704 -4.47535 2.5
      vertex -66.2296 -4.47535 -2.5
      vertex -67.1704 -4.47535 -2.5
    endloop
  endfacet
  facet normal 0.207913 0.978147 -0
    outer loop
      vertex -67.1704 -4.47535 2.5
      vertex -67.1704 -4.47535 -2.5
      vertex -68.0906 -4.27975 2.5
    endloop
  endfacet
  facet normal 0.207913 0.978147 -0
    outer loop
      vertex -68.0906 -4.27975 2.5
      vertex -67.1704 -4.47535 -2.5
      vertex -68.0906 -4.27975 -2.5
    endloop
  endfacet
  facet normal 0.406736 0.913546 -0
    outer loop
      vertex -68.0906 -4.27975 2.5
      vertex -68.0906 -4.27975 -2.5
      vertex -68.95 -3.89711 2.5
    endloop
  endfacet
  facet normal 0.406736 0.913546 -0
    outer loop
      vertex -68.95 -3.89711 2.5
      vertex -68.0906 -4.27975 -2.5
      vertex -68.95 -3.89711 -2.5
    endloop
  endfacet
  facet normal 0.587785 0.809017 -0
    outer loop
      vertex -68.95 -3.89711 2.5
      vertex -68.95 -3.89711 -2.5
      vertex -69.7111 -3.34415 2.5
    endloop
  endfacet
  facet normal 0.587785 0.809017 -0
    outer loop
      vertex -69.7111 -3.34415 2.5
      vertex -68.95 -3.89711 -2.5
      vertex -69.7111 -3.34415 -2.5
    endloop
  endfacet
  facet normal 0.743145 0.66913 0
    outer loop
      vertex -70.3406 -2.64503 2.5
      vertex -69.7111 -3.34415 2.5
      vertex -69.7111 -3.34415 -2.5
    endloop
  endfacet
  facet normal 0.743145 0.66913 0
    outer loop
      vertex -70.3406 -2.64503 -2.5
      vertex -70.3406 -2.64503 2.5
      vertex -69.7111 -3.34415 -2.5
    endloop
  endfacet
  facet normal 0.866025 0.500001 0
    outer loop
      vertex -70.811 -1.83031 2.5
      vertex -70.3406 -2.64503 2.5
      vertex -70.3406 -2.64503 -2.5
    endloop
  endfacet
  facet normal 0.866025 0.500001 0
    outer loop
      vertex -70.811 -1.83031 -2.5
      vertex -70.811 -1.83031 2.5
      vertex -70.3406 -2.64503 -2.5
    endloop
  endfacet
  facet normal 0.951057 0.309016 0
    outer loop
      vertex -71.1017 -0.935603 2.5
      vertex -70.811 -1.83031 2.5
      vertex -70.811 -1.83031 -2.5
    endloop
  endfacet
  facet normal 0.951057 0.309016 0
    outer loop
      vertex -71.1017 -0.935603 -2.5
      vertex -71.1017 -0.935603 2.5
      vertex -70.811 -1.83031 -2.5
    endloop
  endfacet
  facet normal 0.994522 0.104529 0
    outer loop
      vertex -71.2 0 2.5
      vertex -71.1017 -0.935603 2.5
      vertex -71.1017 -0.935603 -2.5
    endloop
  endfacet
  facet normal 0.994522 0.104529 0
    outer loop
      vertex -71.2 0 -2.5
      vertex -71.2 0 2.5
      vertex -71.1017 -0.935603 -2.5
    endloop
  endfacet
  facet normal 0.994522 -0.104529 0
    outer loop
      vertex -71.1017 0.935603 -2.5
      vertex -71.1017 0.935603 2.5
      vertex -71.2 0 2.5
    endloop
  endfacet
  facet normal 0.994522 -0.104529 0
    outer loop
      vertex -71.2 0 -2.5
      vertex -71.1017 0.935603 -2.5
      vertex -71.2 0 2.5
    endloop
  endfacet
  facet normal 0.951057 -0.309016 0
    outer loop
      vertex -71.0005 1.24703 -2.5
      vertex -71.0005 1.24703 2.5
      vertex -71.1017 0.935603 2.5
    endloop
  endfacet
  facet normal 0.951057 -0.309016 0
    outer loop
      vertex -71.1017 0.935603 -2.5
      vertex -71.0005 1.24703 -2.5
      vertex -71.1017 0.935603 2.5
    endloop
  endfacet
  facet normal 0.987441 -0.157991 0
    outer loop
      vertex -69.6744 9.53518 -2.5
      vertex -69.6744 9.53518 2.5
      vertex -71.0005 1.24703 2.5
    endloop
  endfacet
  facet normal 0.987441 -0.157991 0
    outer loop
      vertex -71.0005 1.24703 -2.5
      vertex -69.6744 9.53518 -2.5
      vertex -71.0005 1.24703 2.5
    endloop
  endfacet
  facet normal -0.207912 0.978148 0
    outer loop
      vertex -69.7902 9.51056 -2.5
      vertex -69.7902 9.51056 2.5
      vertex -69.6744 9.53518 -2.5
    endloop
  endfacet
  facet normal -0.207912 0.978148 0
    outer loop
      vertex -69.6744 9.53518 -2.5
      vertex -69.7902 9.51056 2.5
      vertex -69.6744 9.53518 2.5
    endloop
  endfacet
  facet normal -0.406737 0.913545 0
    outer loop
      vertex -71.7 8.66025 -2.5
      vertex -71.7 8.66025 2.5
      vertex -69.7902 9.51056 -2.5
    endloop
  endfacet
  facet normal -0.406737 0.913545 0
    outer loop
      vertex -69.7902 9.51056 -2.5
      vertex -71.7 8.66025 2.5
      vertex -69.7902 9.51056 2.5
    endloop
  endfacet
  facet normal -0.587785 0.809017 0
    outer loop
      vertex -73.3913 7.43145 -2.5
      vertex -73.3913 7.43145 2.5
      vertex -71.7 8.66025 -2.5
    endloop
  endfacet
  facet normal -0.587785 0.809017 0
    outer loop
      vertex -71.7 8.66025 -2.5
      vertex -73.3913 7.43145 2.5
      vertex -71.7 8.66025 2.5
    endloop
  endfacet
  facet normal -0.743145 0.669131 0
    outer loop
      vertex -74.7902 5.87785 -2.5
      vertex -74.7902 5.87785 2.5
      vertex -73.3913 7.43145 -2.5
    endloop
  endfacet
  facet normal -0.743145 0.669131 0
    outer loop
      vertex -73.3913 7.43145 -2.5
      vertex -74.7902 5.87785 2.5
      vertex -73.3913 7.43145 2.5
    endloop
  endfacet
  facet normal -0.866025 0.5 0
    outer loop
      vertex -75.8355 4.06737 -2.5
      vertex -75.8355 4.06737 2.5
      vertex -74.7902 5.87785 -2.5
    endloop
  endfacet
  facet normal -0.866025 0.5 0
    outer loop
      vertex -74.7902 5.87785 -2.5
      vertex -75.8355 4.06737 2.5
      vertex -74.7902 5.87785 2.5
    endloop
  endfacet
  facet normal -0.951057 0.309017 0
    outer loop
      vertex -76.4815 2.07912 -2.5
      vertex -76.4815 2.07912 2.5
      vertex -75.8355 4.06737 -2.5
    endloop
  endfacet
  facet normal -0.951057 0.309017 0
    outer loop
      vertex -75.8355 4.06737 -2.5
      vertex -76.4815 2.07912 2.5
      vertex -75.8355 4.06737 2.5
    endloop
  endfacet
  facet normal 0.997459 0.071247 0
    outer loop
      vertex -57.7 7 2.5
      vertex -56.7 -7 2.5
      vertex -56.7 -7 -2.5
    endloop
  endfacet
  facet normal 0.997459 0.071247 0
    outer loop
      vertex -57.7 7 -2.5
      vertex -57.7 7 2.5
      vertex -56.7 -7 -2.5
    endloop
  endfacet
  facet normal 0 -1 0
    outer loop
      vertex 57.7 7 -2.5
      vertex 57.7 7 2.5
      vertex -57.7 7 2.5
    endloop
  endfacet
  facet normal -0 -1 -0
    outer loop
      vertex -57.7 7 -2.5
      vertex 57.7 7 -2.5
      vertex -57.7 7 2.5
    endloop
  endfacet
  facet normal -0.997459 0.071247 0
    outer loop
      vertex 57.7 7 2.5
      vertex 57.7 7 -2.5
      vertex 56.7 -7 2.5
    endloop
  endfacet
  facet normal -0.997459 0.071247 0
    outer loop
      vertex 56.7 -7 2.5
      vertex 57.7 7 -2.5
      vertex 56.7 -7 -2.5
    endloop
  endfacet
  facet normal 0 1 0
    outer loop
      vertex 56.7 -7 2.5
      vertex 56.7 -7 -2.5
      vertex -56.7 -7 2.5
    endloop
  endfacet
  facet normal 0 1 -0
    outer loop
      vertex -56.7 -7 2.5
      vertex 56.7 -7 -2.5
      vertex -56.7 -7 -2.5
    endloop
  endfacet
  facet normal 0 0 1
    outer loop
      vertex -76.4815 2.07912 2.5
      vertex -76.7 0 2.5
      vertex -76.4815 -2.07912 2.5
    endloop
  endfacet
  facet normal 0 0 1
    outer loop
      vertex -74.7902 -5.87785 2.5
      vertex -76.4815 2.07912 2.5
      vertex -75.8355 -4.06737 2.5
    endloop
  endfacet
  facet normal 0 0 1
    outer loop
      vertex -75.8355 -4.06737 2.5
      vertex -76.4815 2.07912 2.5
      vertex -76.4815 -2.07912 2.5
    endloop
  endfacet
  facet normal 0 0 1
    outer loop
      vertex -73.3913 -7.43145 2.5
      vertex -76.4815 2.07912 2.5
      vertex -74.7902 -5.87785 2.5
    endloop
  endfacet
  facet normal 0 0 1
    outer loop
      vertex -71.7 -8.66025 2.5
      vertex -76.4815 2.07912 2.5
      vertex -73.3913 -7.43145 2.5
    endloop
  endfacet
  facet normal 0 0 1
    outer loop
      vertex -69.7902 -9.51056 2.5
      vertex -76.4815 2.07912 2.5
      vertex -71.7 -8.66025 2.5
    endloop
  endfacet
  facet normal 0 0 1
    outer loop
      vertex -67.7453 -9.94522 2.5
      vertex -76.4815 2.07912 2.5
      vertex -69.7902 -9.51056 2.5
    endloop
  endfacet
  facet normal -0 0 1
    outer loop
      vertex -66.7 -9.94522 2.5
      vertex -76.4815 2.07912 2.5
      vertex -67.7453 -9.94522 2.5
    endloop
  endfacet
  facet normal -0 -0 1
    outer loop
      vertex -69.7111 -3.34415 2.5
      vertex -76.4815 2.07912 2.5
      vertex -66.7 -9.94522 2.5
    endloop
  endfacet
  facet normal -0 0 1
    outer loop
      vertex 66.7 -10 2.5
      vertex -66.7 -9.94522 2.5
      vertex -66.7 -10 2.5
    endloop
  endfacet
  facet normal 0 0 1
    outer loop
      vertex -63.0594 -2.64503 2.5
      vertex -63.6889 -3.34415 2.5
      vertex -66.7 -9.94522 2.5
    endloop
  endfacet
  facet normal 0 0 1
    outer loop
      vertex -70.3406 -2.64503 2.5
      vertex -70.811 -1.83031 2.5
      vertex -76.4815 2.07912 2.5
    endloop
  endfacet
  facet normal 0 0 1
    outer loop
      vertex 66.2296 -4.47535 2.5
      vertex 73.3913 -7.43145 2.5
      vertex 74.7902 -5.87785 2.5
    endloop
  endfacet
  facet normal 0 0 1
    outer loop
      vertex 57.7 7 2.5
      vertex 62.589 -1.83031 2.5
      vertex 62.2983 -0.935603 2.5
    endloop
  endfacet
  facet normal 0 0 1
    outer loop
      vertex -71.0005 1.24703 2.5
      vertex -69.6744 9.53518 2.5
      vertex -76.4815 2.07912 2.5
    endloop
  endfacet
  facet normal 0 0 1
    outer loop
      vertex 57.7 7 2.5
      vertex 62.2 0 2.5
      vertex 62.2983 0.935603 2.5
    endloop
  endfacet
  facet normal 0 -0 1
    outer loop
      vertex 63.6889 -3.34415 2.5
      vertex 56.7 -7 2.5
      vertex 64.45 -3.89711 2.5
    endloop
  endfacet
  facet normal 0 -0 1
    outer loop
      vertex 69.7111 -3.34415 2.5
      vertex 68.95 -3.89711 2.5
      vertex 75.8355 -4.06737 2.5
    endloop
  endfacet
  facet normal 0 0 1
    outer loop
      vertex 71.1017 0.935603 2.5
      vertex 71.2 0 2.5
      vertex 76.7 0 2.5
    endloop
  endfacet
  facet normal 0 -0 1
    outer loop
      vertex 57.7 7 2.5
      vertex 56.7 -7 2.5
      vertex 62.589 -1.83031 2.5
    endloop
  endfacet
  facet normal 0 0 1
    outer loop
      vertex 62.3557 1.11216 2.5
      vertex 63.6 10 2.5
      vertex 57.7 7 2.5
    endloop
  endfacet
  facet normal 0 0 1
    outer loop
      vertex -56.7 -7 2.5
      vertex -62.2 0 2.5
      vertex -62.2983 -0.935603 2.5
    endloop
  endfacet
  facet normal 0 -0 1
    outer loop
      vertex 76.4815 2.07912 2.5
      vertex 71.0443 1.11216 2.5
      vertex 76.7 0 2.5
    endloop
  endfacet
  facet normal 0 0 1
    outer loop
      vertex 71.0443 1.11216 2.5
      vertex 71.1017 0.935603 2.5
      vertex 76.7 0 2.5
    endloop
  endfacet
  facet normal 0 0 1
    outer loop
      vertex 76.7 0 2.5
      vertex 71.2 0 2.5
      vertex 76.4815 -2.07912 2.5
    endloop
  endfacet
  facet normal 0 0 1
    outer loop
      vertex 56.7 -7 2.5
      vertex 66.7 -10 2.5
      vertex 66.7 -9.94522 2.5
    endloop
  endfacet
  facet normal 0 -0 1
    outer loop
      vertex 71.2 0 2.5
      vertex 71.1017 -0.935603 2.5
      vertex 76.4815 -2.07912 2.5
    endloop
  endfacet
  facet normal 0 -0 1
    outer loop
      vertex 71.1017 -0.935603 2.5
      vertex 70.811 -1.83031 2.5
      vertex 76.4815 -2.07912 2.5
    endloop
  endfacet
  facet normal 0 0 1
    outer loop
      vertex 76.4815 -2.07912 2.5
      vertex 70.3406 -2.64503 2.5
      vertex 75.8355 -4.06737 2.5
    endloop
  endfacet
  facet normal 0 -0 1
    outer loop
      vertex 70.3406 -2.64503 2.5
      vertex 69.7111 -3.34415 2.5
      vertex 75.8355 -4.06737 2.5
    endloop
  endfacet
  facet normal -0 0 1
    outer loop
      vertex 75.8355 -4.06737 2.5
      vertex 68.95 -3.89711 2.5
      vertex 74.7902 -5.87785 2.5
    endloop
  endfacet
  facet normal 0 -0 1
    outer loop
      vertex 68.95 -3.89711 2.5
      vertex 68.0906 -4.27975 2.5
      vertex 74.7902 -5.87785 2.5
    endloop
  endfacet
  facet normal 0 -0 1
    outer loop
      vertex 68.0906 -4.27975 2.5
      vertex 67.1704 -4.47535 2.5
      vertex 74.7902 -5.87785 2.5
    endloop
  endfacet
  facet normal 0 -0 1
    outer loop
      vertex 67.1704 -4.47535 2.5
      vertex 66.2296 -4.47535 2.5
      vertex 74.7902 -5.87785 2.5
    endloop
  endfacet
  facet normal 0 -0 1
    outer loop
      vertex 64.45 -3.89711 2.5
      vertex 56.7 -7 2.5
      vertex 65.3094 -4.27975 2.5
    endloop
  endfacet
  facet normal 0 -0 1
    outer loop
      vertex 65.3094 -4.27975 2.5
      vertex 56.7 -7 2.5
      vertex 73.3913 -7.43145 2.5
    endloop
  endfacet
  facet normal 0 0 1
    outer loop
      vertex 56.7 -7 2.5
      vertex 69.7902 -9.51056 2.5
      vertex 71.7 -8.66025 2.5
    endloop
  endfacet
  facet normal 0 -0 1
    outer loop
      vertex 62.589 -1.83031 2.5
      vertex 56.7 -7 2.5
      vertex 63.0594 -2.64503 2.5
    endloop
  endfacet
  facet normal 0 0 1
    outer loop
      vertex 56.7 -7 2.5
      vertex 67.7453 -9.94522 2.5
      vertex 69.7902 -9.51056 2.5
    endloop
  endfacet
  facet normal 0 0 1
    outer loop
      vertex 56.7 -7 2.5
      vertex 66.7 -9.94522 2.5
      vertex 67.7453 -9.94522 2.5
    endloop
  endfacet
  facet normal 0 -0 1
    outer loop
      vertex 56.7 -7 2.5
      vertex -56.7 -7 2.5
      vertex 66.7 -10 2.5
    endloop
  endfacet
  facet normal 0 -0 1
    outer loop
      vertex 63.0594 -2.64503 2.5
      vertex 56.7 -7 2.5
      vertex 63.6889 -3.34415 2.5
    endloop
  endfacet
  facet normal 0 -0 1
    outer loop
      vertex 70.811 -1.83031 2.5
      vertex 70.3406 -2.64503 2.5
      vertex 76.4815 -2.07912 2.5
    endloop
  endfacet
  facet normal 0 0 1
    outer loop
      vertex -56.7 -7 2.5
      vertex -62.2983 -0.935603 2.5
      vertex -62.589 -1.83031 2.5
    endloop
  endfacet
  facet normal 0 0 1
    outer loop
      vertex 57.7 7 2.5
      vertex 62.2983 0.935603 2.5
      vertex 62.3557 1.11216 2.5
    endloop
  endfacet
  facet normal 0 0 1
    outer loop
      vertex -56.7 -7 2.5
      vertex -62.2983 0.935603 2.5
      vertex -62.2 0 2.5
    endloop
  endfacet
  facet normal 0 0 1
    outer loop
      vertex 65.3094 -4.27975 2.5
      vertex 73.3913 -7.43145 2.5
      vertex 66.2296 -4.47535 2.5
    endloop
  endfacet
  facet normal 0 0 1
    outer loop
      vertex -56.7 -7 2.5
      vertex -62.3995 1.24703 2.5
      vertex -62.2983 0.935603 2.5
    endloop
  endfacet
  facet normal 0 0 1
    outer loop
      vertex -69.7111 -3.34415 2.5
      vertex -70.3406 -2.64503 2.5
      vertex -76.4815 2.07912 2.5
    endloop
  endfacet
  facet normal 0 0 1
    outer loop
      vertex -63.6889 -3.34415 2.5
      vertex -64.45 -3.89711 2.5
      vertex -66.7 -9.94522 2.5
    endloop
  endfacet
  facet normal -0 0 1
    outer loop
      vertex -56.7 -7 2.5
      vertex -62.589 -1.83031 2.5
      vertex -66.7 -9.94522 2.5
    endloop
  endfacet
  facet normal 0 0 1
    outer loop
      vertex -62.589 -1.83031 2.5
      vertex -63.0594 -2.64503 2.5
      vertex -66.7 -9.94522 2.5
    endloop
  endfacet
  facet normal 0 0 1
    outer loop
      vertex -64.45 -3.89711 2.5
      vertex -65.3094 -4.27975 2.5
      vertex -66.7 -9.94522 2.5
    endloop
  endfacet
  facet normal 0 0 1
    outer loop
      vertex -65.3094 -4.27975 2.5
      vertex -66.2296 -4.47535 2.5
      vertex -66.7 -9.94522 2.5
    endloop
  endfacet
  facet normal 0 0 1
    outer loop
      vertex -71.1017 -0.935603 2.5
      vertex -71.2 0 2.5
      vertex -76.4815 2.07912 2.5
    endloop
  endfacet
  facet normal 0 0 1
    outer loop
      vertex -66.2296 -4.47535 2.5
      vertex -67.1704 -4.47535 2.5
      vertex -66.7 -9.94522 2.5
    endloop
  endfacet
  facet normal -0 -0 1
    outer loop
      vertex -67.1704 -4.47535 2.5
      vertex -68.0906 -4.27975 2.5
      vertex -66.7 -9.94522 2.5
    endloop
  endfacet
  facet normal -0 -0 1
    outer loop
      vertex -68.0906 -4.27975 2.5
      vertex -68.95 -3.89711 2.5
      vertex -66.7 -9.94522 2.5
    endloop
  endfacet
  facet normal -0 -0 1
    outer loop
      vertex -68.95 -3.89711 2.5
      vertex -69.7111 -3.34415 2.5
      vertex -66.7 -9.94522 2.5
    endloop
  endfacet
  facet normal 0 0 1
    outer loop
      vertex -70.811 -1.83031 2.5
      vertex -71.1017 -0.935603 2.5
      vertex -76.4815 2.07912 2.5
    endloop
  endfacet
  facet normal -0 0 1
    outer loop
      vertex -71.1017 0.935603 2.5
      vertex -76.4815 2.07912 2.5
      vertex -71.2 0 2.5
    endloop
  endfacet
  facet normal -0 0 1
    outer loop
      vertex -71.0005 1.24703 2.5
      vertex -76.4815 2.07912 2.5
      vertex -71.1017 0.935603 2.5
    endloop
  endfacet
  facet normal 0 0 1
    outer loop
      vertex 57.7 7 2.5
      vertex 62.2983 -0.935603 2.5
      vertex 62.2 0 2.5
    endloop
  endfacet
  facet normal 0 -0 1
    outer loop
      vertex -69.7902 9.51056 2.5
      vertex -76.4815 2.07912 2.5
      vertex -69.6744 9.53518 2.5
    endloop
  endfacet
  facet normal 0 -0 1
    outer loop
      vertex -71.7 8.66025 2.5
      vertex -76.4815 2.07912 2.5
      vertex -69.7902 9.51056 2.5
    endloop
  endfacet
  facet normal 0 -0 1
    outer loop
      vertex -73.3913 7.43145 2.5
      vertex -76.4815 2.07912 2.5
      vertex -71.7 8.66025 2.5
    endloop
  endfacet
  facet normal 0 -0 1
    outer loop
      vertex -74.7902 5.87785 2.5
      vertex -76.4815 2.07912 2.5
      vertex -73.3913 7.43145 2.5
    endloop
  endfacet
  facet normal 0 -0 1
    outer loop
      vertex -75.8355 4.06737 2.5
      vertex -76.4815 2.07912 2.5
      vertex -74.7902 5.87785 2.5
    endloop
  endfacet
  facet normal 0 0 1
    outer loop
      vertex 66.7 -10 2.5
      vertex -56.7 -7 2.5
      vertex -66.7 -9.94522 2.5
    endloop
  endfacet
  facet normal 0 0 1
    outer loop
      vertex -63.8 10 2.5
      vertex -57.7 7 2.5
      vertex 63.6 10 2.5
    endloop
  endfacet
  facet normal -0 0 1
    outer loop
      vertex 73.3913 -7.43145 2.5
      vertex 56.7 -7 2.5
      vertex 71.7 -8.66025 2.5
    endloop
  endfacet
  facet normal 0 0 1
    outer loop
      vertex -56.7 -7 2.5
      vertex -57.7 7 2.5
      vertex -62.3995 1.24703 2.5
    endloop
  endfacet
  facet normal 0 0 1
    outer loop
      vertex -57.7 7 2.5
      vertex 57.7 7 2.5
      vertex 63.6 10 2.5
    endloop
  endfacet
  facet normal 0 0 1
    outer loop
      vertex 69.8737 9.47336 2.5
      vertex 73.3913 7.43145 2.5
      vertex 71.7 8.66025 2.5
    endloop
  endfacet
  facet normal 0 0 1
    outer loop
      vertex 69.8737 9.47336 2.5
      vertex 74.7902 5.87785 2.5
      vertex 73.3913 7.43145 2.5
    endloop
  endfacet
  facet normal 0 0 1
    outer loop
      vertex 69.8737 9.47336 2.5
      vertex 75.8355 4.06737 2.5
      vertex 74.7902 5.87785 2.5
    endloop
  endfacet
  facet normal 0 0 1
    outer loop
      vertex 69.8737 9.47336 2.5
      vertex 76.4815 2.07912 2.5
      vertex 75.8355 4.06737 2.5
    endloop
  endfacet
  facet normal 0 0 1
    outer loop
      vertex 69.8737 9.47336 2.5
      vertex 71.0443 1.11216 2.5
      vertex 76.4815 2.07912 2.5
    endloop
  endfacet
  facet normal 0 0 1
    outer loop
      vertex -63.8 10 2.5
      vertex -62.3995 1.24703 2.5
      vertex -57.7 7 2.5
    endloop
  endfacet
endsolid OpenSCAD_Model
