solid Default
  facet normal -1.000000e+00 -0.000000e+00 -0.000000e+00
    outer loop
      vertex -1.800000e+01 -6.000000e+00 0.000000e+00
      vertex -1.800000e+01 -6.000000e+00 1.000000e+01
      vertex -1.800000e+01 6.000000e+00 0.000000e+00
    endloop
  endfacet
  facet normal -1.000000e+00 0.000000e+00 0.000000e+00
    outer loop
      vertex -1.800000e+01 6.000000e+00 0.000000e+00
      vertex -1.800000e+01 -6.000000e+00 1.000000e+01
      vertex -1.800000e+01 6.000000e+00 1.000000e+01
    endloop
  endfacet
  facet normal 0.000000e+00 -1.000000e+00 0.000000e+00
    outer loop
      vertex 2.485280e+00 -6.000000e+00 3.000000e+00
      vertex -1.800000e+01 -6.000000e+00 0.000000e+00
      vertex 1.800000e+01 -6.000000e+00 0.000000e+00
    endloop
  endfacet
  facet normal 0.000000e+00 -1.000000e+00 0.000000e+00
    outer loop
      vertex -2.485280e+00 -6.000000e+00 3.000000e+00
      vertex -2.485280e+00 -6.000000e+00 1.000000e+01
      vertex -1.800000e+01 -6.000000e+00 1.000000e+01
    endloop
  endfacet
  facet normal 0.000000e+00 -1.000000e+00 0.000000e+00
    outer loop
      vertex 1.800000e+01 -6.000000e+00 1.000000e+01
      vertex 2.485280e+00 -6.000000e+00 1.000000e+01
      vertex 1.800000e+01 -6.000000e+00 0.000000e+00
    endloop
  endfacet
  facet normal 0.000000e+00 -1.000000e+00 0.000000e+00
    outer loop
      vertex -2.485280e+00 -6.000000e+00 3.000000e+00
      vertex -1.800000e+01 -6.000000e+00 0.000000e+00
      vertex 2.485280e+00 -6.000000e+00 3.000000e+00
    endloop
  endfacet
  facet normal 0.000000e+00 -1.000000e+00 0.000000e+00
    outer loop
      vertex -1.800000e+01 -6.000000e+00 1.000000e+01
      vertex -1.800000e+01 -6.000000e+00 0.000000e+00
      vertex -2.485280e+00 -6.000000e+00 3.000000e+00
    endloop
  endfacet
  facet normal 0.000000e+00 -1.000000e+00 0.000000e+00
    outer loop
      vertex 2.485280e+00 -6.000000e+00 1.000000e+01
      vertex 2.485280e+00 -6.000000e+00 3.000000e+00
      vertex 1.800000e+01 -6.000000e+00 0.000000e+00
    endloop
  endfacet
  facet normal -0.000000e+00 -0.000000e+00 -1.000000e+00
    outer loop
      vertex -1.800000e+01 -6.000000e+00 0.000000e+00
      vertex -1.800000e+01 6.000000e+00 0.000000e+00
      vertex 1.800000e+01 -6.000000e+00 0.000000e+00
    endloop
  endfacet
  facet normal 0.000000e+00 0.000000e+00 -1.000000e+00
    outer loop
      vertex 1.800000e+01 -6.000000e+00 0.000000e+00
      vertex -1.800000e+01 6.000000e+00 0.000000e+00
      vertex 1.800000e+01 6.000000e+00 0.000000e+00
    endloop
  endfacet
  facet normal 0.000000e+00 1.000000e+00 0.000000e+00
    outer loop
      vertex -1.800000e+01 6.000000e+00 0.000000e+00
      vertex -1.800000e+01 6.000000e+00 1.000000e+01
      vertex -1.448530e+01 6.000000e+00 3.000000e+00
    endloop
  endfacet
  facet normal 0.000000e+00 1.000000e+00 0.000000e+00
    outer loop
      vertex -1.800000e+01 6.000000e+00 0.000000e+00
      vertex -1.448530e+01 6.000000e+00 3.000000e+00
      vertex 1.800000e+01 6.000000e+00 0.000000e+00
    endloop
  endfacet
  facet normal 0.000000e+00 1.000000e+00 0.000000e+00
    outer loop
      vertex -1.165690e+01 6.000000e+00 1.000000e+01
      vertex 1.800000e+01 6.000000e+00 0.000000e+00
      vertex -1.165690e+01 6.000000e+00 3.000000e+00
    endloop
  endfacet
  facet normal 0.000000e+00 1.000000e+00 0.000000e+00
    outer loop
      vertex -1.448530e+01 6.000000e+00 3.000000e+00
      vertex -1.165690e+01 6.000000e+00 3.000000e+00
      vertex 1.800000e+01 6.000000e+00 0.000000e+00
    endloop
  endfacet
  facet normal 0.000000e+00 1.000000e+00 0.000000e+00
    outer loop
      vertex 1.448530e+01 6.000000e+00 1.000000e+01
      vertex 1.800000e+01 6.000000e+00 0.000000e+00
      vertex 1.448530e+01 6.000000e+00 3.000000e+00
    endloop
  endfacet
  facet normal 0.000000e+00 1.000000e+00 0.000000e+00
    outer loop
      vertex 1.165690e+01 6.000000e+00 3.000000e+00
      vertex -1.165690e+01 6.000000e+00 1.000000e+01
      vertex 1.165690e+01 6.000000e+00 1.000000e+01
    endloop
  endfacet
  facet normal 0.000000e+00 1.000000e+00 0.000000e+00
    outer loop
      vertex 1.800000e+01 6.000000e+00 0.000000e+00
      vertex -1.165690e+01 6.000000e+00 1.000000e+01
      vertex 1.165690e+01 6.000000e+00 3.000000e+00
    endloop
  endfacet
  facet normal 0.000000e+00 1.000000e+00 0.000000e+00
    outer loop
      vertex 1.800000e+01 6.000000e+00 0.000000e+00
      vertex 1.165690e+01 6.000000e+00 3.000000e+00
      vertex 1.448530e+01 6.000000e+00 3.000000e+00
    endloop
  endfacet
  facet normal 0.000000e+00 1.000000e+00 0.000000e+00
    outer loop
      vertex 1.800000e+01 6.000000e+00 0.000000e+00
      vertex 1.448530e+01 6.000000e+00 1.000000e+01
      vertex 1.800000e+01 6.000000e+00 1.000000e+01
    endloop
  endfacet
  facet normal 0.000000e+00 1.000000e+00 0.000000e+00
    outer loop
      vertex -1.448530e+01 6.000000e+00 3.000000e+00
      vertex -1.800000e+01 6.000000e+00 1.000000e+01
      vertex -1.448530e+01 6.000000e+00 1.000000e+01
    endloop
  endfacet
  facet normal 0.000000e+00 0.000000e+00 1.000000e+00
    outer loop
      vertex -1.800000e+01 6.000000e+00 1.000000e+01
      vertex -1.800000e+01 -6.000000e+00 1.000000e+01
      vertex -2.485280e+00 -6.000000e+00 1.000000e+01
    endloop
  endfacet
  facet normal 0.000000e+00 0.000000e+00 1.000000e+00
    outer loop
      vertex -1.448530e+01 6.000000e+00 1.000000e+01
      vertex -1.800000e+01 6.000000e+00 1.000000e+01
      vertex -2.485280e+00 -6.000000e+00 1.000000e+01
    endloop
  endfacet
  facet normal 7.071068e-01 7.071068e-01 0.000000e+00
    outer loop
      vertex -1.448530e+01 6.000000e+00 1.000000e+01
      vertex -2.485280e+00 -6.000000e+00 1.000000e+01
      vertex -2.485280e+00 -6.000000e+00 3.000000e+00
    endloop
  endfacet
  facet normal 7.071068e-01 7.071068e-01 0.000000e+00
    outer loop
      vertex -1.448530e+01 6.000000e+00 3.000000e+00
      vertex -1.448530e+01 6.000000e+00 1.000000e+01
      vertex -2.485280e+00 -6.000000e+00 3.000000e+00
    endloop
  endfacet
  facet normal 0.000000e+00 0.000000e+00 1.000000e+00
    outer loop
      vertex 3.535530e-01 -5.303300e+00 3.000000e+00
      vertex 2.485280e+00 -6.000000e+00 3.000000e+00
      vertex 1.448530e+01 6.000000e+00 3.000000e+00
    endloop
  endfacet
  facet normal 0.000000e+00 0.000000e+00 1.000000e+00
    outer loop
      vertex 3.171970e-01 -5.336250e+00 3.000000e+00
      vertex 2.485280e+00 -6.000000e+00 3.000000e+00
      vertex 3.535530e-01 -5.303300e+00 3.000000e+00
    endloop
  endfacet
  facet normal 0.000000e+00 0.000000e+00 1.000000e+00
    outer loop
      vertex -3.535530e-01 -5.303300e+00 3.000000e+00
      vertex -1.165690e+01 6.000000e+00 3.000000e+00
      vertex -2.485280e+00 -6.000000e+00 3.000000e+00
    endloop
  endfacet
  facet normal 0.000000e+00 0.000000e+00 1.000000e+00
    outer loop
      vertex 2.777850e-01 -5.365480e+00 3.000000e+00
      vertex 2.485280e+00 -6.000000e+00 3.000000e+00
      vertex 3.171970e-01 -5.336250e+00 3.000000e+00
    endloop
  endfacet
  facet normal 0.000000e+00 0.000000e+00 1.000000e+00
    outer loop
      vertex 2.356980e-01 -5.390710e+00 3.000000e+00
      vertex 2.485280e+00 -6.000000e+00 3.000000e+00
      vertex 2.777850e-01 -5.365480e+00 3.000000e+00
    endloop
  endfacet
  facet normal 0.000000e+00 0.000000e+00 1.000000e+00
    outer loop
      vertex 1.913420e-01 -5.411690e+00 3.000000e+00
      vertex 2.485280e+00 -6.000000e+00 3.000000e+00
      vertex 2.356980e-01 -5.390710e+00 3.000000e+00
    endloop
  endfacet
  facet normal 0.000000e+00 0.000000e+00 1.000000e+00
    outer loop
      vertex 1.451420e-01 -5.428220e+00 3.000000e+00
      vertex 2.485280e+00 -6.000000e+00 3.000000e+00
      vertex 1.913420e-01 -5.411690e+00 3.000000e+00
    endloop
  endfacet
  facet normal 0.000000e+00 0.000000e+00 1.000000e+00
    outer loop
      vertex 9.754500e-02 -5.440140e+00 3.000000e+00
      vertex 2.485280e+00 -6.000000e+00 3.000000e+00
      vertex 1.451420e-01 -5.428220e+00 3.000000e+00
    endloop
  endfacet
  facet normal 0.000000e+00 0.000000e+00 1.000000e+00
    outer loop
      vertex 4.900900e-02 -5.447340e+00 3.000000e+00
      vertex 0.000000e+00 -5.449750e+00 3.000000e+00
      vertex -2.485280e+00 -6.000000e+00 3.000000e+00
    endloop
  endfacet
  facet normal 0.000000e+00 0.000000e+00 1.000000e+00
    outer loop
      vertex -2.485280e+00 -6.000000e+00 3.000000e+00
      vertex 2.485280e+00 -6.000000e+00 3.000000e+00
      vertex 9.754500e-02 -5.440140e+00 3.000000e+00
    endloop
  endfacet
  facet normal 0.000000e+00 0.000000e+00 1.000000e+00
    outer loop
      vertex 0.000000e+00 -5.449750e+00 3.000000e+00
      vertex -4.900900e-02 -5.447340e+00 3.000000e+00
      vertex -2.485280e+00 -6.000000e+00 3.000000e+00
    endloop
  endfacet
  facet normal 0.000000e+00 0.000000e+00 1.000000e+00
    outer loop
      vertex -4.900900e-02 -5.447340e+00 3.000000e+00
      vertex -9.754500e-02 -5.440140e+00 3.000000e+00
      vertex -2.485280e+00 -6.000000e+00 3.000000e+00
    endloop
  endfacet
  facet normal 0.000000e+00 0.000000e+00 1.000000e+00
    outer loop
      vertex -9.754500e-02 -5.440140e+00 3.000000e+00
      vertex -1.451420e-01 -5.428220e+00 3.000000e+00
      vertex -2.485280e+00 -6.000000e+00 3.000000e+00
    endloop
  endfacet
  facet normal 0.000000e+00 0.000000e+00 1.000000e+00
    outer loop
      vertex -1.451420e-01 -5.428220e+00 3.000000e+00
      vertex -1.913420e-01 -5.411690e+00 3.000000e+00
      vertex -2.485280e+00 -6.000000e+00 3.000000e+00
    endloop
  endfacet
  facet normal 0.000000e+00 0.000000e+00 1.000000e+00
    outer loop
      vertex 9.754500e-02 -5.440140e+00 3.000000e+00
      vertex 4.900900e-02 -5.447340e+00 3.000000e+00
      vertex -2.485280e+00 -6.000000e+00 3.000000e+00
    endloop
  endfacet
  facet normal 0.000000e+00 0.000000e+00 1.000000e+00
    outer loop
      vertex -2.485280e+00 -6.000000e+00 3.000000e+00
      vertex -1.913420e-01 -5.411690e+00 3.000000e+00
      vertex -2.356980e-01 -5.390710e+00 3.000000e+00
    endloop
  endfacet
  facet normal 0.000000e+00 0.000000e+00 1.000000e+00
    outer loop
      vertex -2.485280e+00 -6.000000e+00 3.000000e+00
      vertex -2.356980e-01 -5.390710e+00 3.000000e+00
      vertex -2.777850e-01 -5.365480e+00 3.000000e+00
    endloop
  endfacet
  facet normal 0.000000e+00 0.000000e+00 1.000000e+00
    outer loop
      vertex -2.485280e+00 -6.000000e+00 3.000000e+00
      vertex -2.777850e-01 -5.365480e+00 3.000000e+00
      vertex -3.171970e-01 -5.336250e+00 3.000000e+00
    endloop
  endfacet
  facet normal 0.000000e+00 0.000000e+00 1.000000e+00
    outer loop
      vertex -2.485280e+00 -6.000000e+00 3.000000e+00
      vertex -3.171970e-01 -5.336250e+00 3.000000e+00
      vertex -3.535530e-01 -5.303300e+00 3.000000e+00
    endloop
  endfacet
  facet normal 0.000000e+00 0.000000e+00 1.000000e+00
    outer loop
      vertex -1.448530e+01 6.000000e+00 3.000000e+00
      vertex -2.485280e+00 -6.000000e+00 3.000000e+00
      vertex -1.165690e+01 6.000000e+00 3.000000e+00
    endloop
  endfacet
  facet normal 0.000000e+00 0.000000e+00 1.000000e+00
    outer loop
      vertex 1.165690e+01 6.000000e+00 3.000000e+00
      vertex 3.535530e-01 -5.303300e+00 3.000000e+00
      vertex 1.448530e+01 6.000000e+00 3.000000e+00
    endloop
  endfacet
  facet normal -7.071068e-01 7.071068e-01 0.000000e+00
    outer loop
      vertex 1.448530e+01 6.000000e+00 1.000000e+01
      vertex 1.448530e+01 6.000000e+00 3.000000e+00
      vertex 2.485280e+00 -6.000000e+00 1.000000e+01
    endloop
  endfacet
  facet normal -7.071068e-01 7.071068e-01 0.000000e+00
    outer loop
      vertex 2.485280e+00 -6.000000e+00 1.000000e+01
      vertex 1.448530e+01 6.000000e+00 3.000000e+00
      vertex 2.485280e+00 -6.000000e+00 3.000000e+00
    endloop
  endfacet
  facet normal 0.000000e+00 0.000000e+00 1.000000e+00
    outer loop
      vertex 1.448530e+01 6.000000e+00 1.000000e+01
      vertex 2.485280e+00 -6.000000e+00 1.000000e+01
      vertex 1.800000e+01 -6.000000e+00 1.000000e+01
    endloop
  endfacet
  facet normal 0.000000e+00 0.000000e+00 1.000000e+00
    outer loop
      vertex 1.800000e+01 6.000000e+00 1.000000e+01
      vertex 1.448530e+01 6.000000e+00 1.000000e+01
      vertex 1.800000e+01 -6.000000e+00 1.000000e+01
    endloop
  endfacet
  facet normal 1.000000e+00 0.000000e+00 0.000000e+00
    outer loop
      vertex 1.800000e+01 -6.000000e+00 1.000000e+01
      vertex 1.800000e+01 -6.000000e+00 0.000000e+00
      vertex 1.800000e+01 6.000000e+00 0.000000e+00
    endloop
  endfacet
  facet normal 1.000000e+00 0.000000e+00 0.000000e+00
    outer loop
      vertex 1.800000e+01 6.000000e+00 1.000000e+01
      vertex 1.800000e+01 -6.000000e+00 1.000000e+01
      vertex 1.800000e+01 6.000000e+00 0.000000e+00
    endloop
  endfacet
  facet normal 7.071068e-01 -7.071068e-01 0.000000e+00
    outer loop
      vertex 1.165690e+01 6.000000e+00 3.000000e+00
      vertex 1.165690e+01 6.000000e+00 1.000000e+01
      vertex 3.535530e-01 -5.303300e+00 1.000000e+01
    endloop
  endfacet
  facet normal 7.071068e-01 -7.071068e-01 0.000000e+00
    outer loop
      vertex 3.535530e-01 -5.303300e+00 3.000000e+00
      vertex 1.165690e+01 6.000000e+00 3.000000e+00
      vertex 3.535530e-01 -5.303300e+00 1.000000e+01
    endloop
  endfacet
  facet normal 0.000000e+00 0.000000e+00 1.000000e+00
    outer loop
      vertex 1.165690e+01 6.000000e+00 1.000000e+01
      vertex -1.165690e+01 6.000000e+00 1.000000e+01
      vertex -3.535530e-01 -5.303300e+00 1.000000e+01
    endloop
  endfacet
  facet normal 0.000000e+00 0.000000e+00 1.000000e+00
    outer loop
      vertex -2.777850e-01 -5.365480e+00 1.000000e+01
      vertex 1.165690e+01 6.000000e+00 1.000000e+01
      vertex -3.171970e-01 -5.336250e+00 1.000000e+01
    endloop
  endfacet
  facet normal 0.000000e+00 0.000000e+00 1.000000e+00
    outer loop
      vertex -2.356980e-01 -5.390710e+00 1.000000e+01
      vertex 1.165690e+01 6.000000e+00 1.000000e+01
      vertex -2.777850e-01 -5.365480e+00 1.000000e+01
    endloop
  endfacet
  facet normal 0.000000e+00 0.000000e+00 1.000000e+00
    outer loop
      vertex -1.913420e-01 -5.411690e+00 1.000000e+01
      vertex 1.165690e+01 6.000000e+00 1.000000e+01
      vertex -2.356980e-01 -5.390710e+00 1.000000e+01
    endloop
  endfacet
  facet normal 0.000000e+00 0.000000e+00 1.000000e+00
    outer loop
      vertex -1.451420e-01 -5.428220e+00 1.000000e+01
      vertex 1.165690e+01 6.000000e+00 1.000000e+01
      vertex -1.913420e-01 -5.411690e+00 1.000000e+01
    endloop
  endfacet
  facet normal 0.000000e+00 0.000000e+00 1.000000e+00
    outer loop
      vertex -9.754500e-02 -5.440140e+00 1.000000e+01
      vertex 1.165690e+01 6.000000e+00 1.000000e+01
      vertex -1.451420e-01 -5.428220e+00 1.000000e+01
    endloop
  endfacet
  facet normal 0.000000e+00 0.000000e+00 1.000000e+00
    outer loop
      vertex -4.900900e-02 -5.447340e+00 1.000000e+01
      vertex 1.165690e+01 6.000000e+00 1.000000e+01
      vertex -9.754500e-02 -5.440140e+00 1.000000e+01
    endloop
  endfacet
  facet normal 0.000000e+00 0.000000e+00 1.000000e+00
    outer loop
      vertex 0.000000e+00 -5.449750e+00 1.000000e+01
      vertex 1.165690e+01 6.000000e+00 1.000000e+01
      vertex -4.900900e-02 -5.447340e+00 1.000000e+01
    endloop
  endfacet
  facet normal 0.000000e+00 0.000000e+00 1.000000e+00
    outer loop
      vertex 4.900900e-02 -5.447340e+00 1.000000e+01
      vertex 1.165690e+01 6.000000e+00 1.000000e+01
      vertex 0.000000e+00 -5.449750e+00 1.000000e+01
    endloop
  endfacet
  facet normal 0.000000e+00 0.000000e+00 1.000000e+00
    outer loop
      vertex 9.754500e-02 -5.440140e+00 1.000000e+01
      vertex 1.165690e+01 6.000000e+00 1.000000e+01
      vertex 4.900900e-02 -5.447340e+00 1.000000e+01
    endloop
  endfacet
  facet normal 0.000000e+00 0.000000e+00 1.000000e+00
    outer loop
      vertex 1.451420e-01 -5.428220e+00 1.000000e+01
      vertex 1.165690e+01 6.000000e+00 1.000000e+01
      vertex 9.754500e-02 -5.440140e+00 1.000000e+01
    endloop
  endfacet
  facet normal 0.000000e+00 0.000000e+00 1.000000e+00
    outer loop
      vertex 1.913420e-01 -5.411690e+00 1.000000e+01
      vertex 1.165690e+01 6.000000e+00 1.000000e+01
      vertex 1.451420e-01 -5.428220e+00 1.000000e+01
    endloop
  endfacet
  facet normal 0.000000e+00 0.000000e+00 1.000000e+00
    outer loop
      vertex 2.356980e-01 -5.390710e+00 1.000000e+01
      vertex 1.165690e+01 6.000000e+00 1.000000e+01
      vertex 1.913420e-01 -5.411690e+00 1.000000e+01
    endloop
  endfacet
  facet normal 0.000000e+00 0.000000e+00 1.000000e+00
    outer loop
      vertex 2.777850e-01 -5.365480e+00 1.000000e+01
      vertex 1.165690e+01 6.000000e+00 1.000000e+01
      vertex 2.356980e-01 -5.390710e+00 1.000000e+01
    endloop
  endfacet
  facet normal 0.000000e+00 0.000000e+00 1.000000e+00
    outer loop
      vertex 3.171970e-01 -5.336250e+00 1.000000e+01
      vertex 1.165690e+01 6.000000e+00 1.000000e+01
      vertex 2.777850e-01 -5.365480e+00 1.000000e+01
    endloop
  endfacet
  facet normal 0.000000e+00 0.000000e+00 1.000000e+00
    outer loop
      vertex 3.535530e-01 -5.303300e+00 1.000000e+01
      vertex 1.165690e+01 6.000000e+00 1.000000e+01
      vertex 3.171970e-01 -5.336250e+00 1.000000e+01
    endloop
  endfacet
  facet normal 0.000000e+00 0.000000e+00 1.000000e+00
    outer loop
      vertex -3.535530e-01 -5.303300e+00 1.000000e+01
      vertex -3.171970e-01 -5.336250e+00 1.000000e+01
      vertex 1.165690e+01 6.000000e+00 1.000000e+01
    endloop
  endfacet
  facet normal -7.071068e-01 -7.071068e-01 0.000000e+00
    outer loop
      vertex -3.535530e-01 -5.303300e+00 1.000000e+01
      vertex -1.165690e+01 6.000000e+00 1.000000e+01
      vertex -3.535530e-01 -5.303300e+00 3.000000e+00
    endloop
  endfacet
  facet normal -7.071068e-01 -7.071068e-01 0.000000e+00
    outer loop
      vertex -3.535530e-01 -5.303300e+00 3.000000e+00
      vertex -1.165690e+01 6.000000e+00 1.000000e+01
      vertex -1.165690e+01 6.000000e+00 3.000000e+00
    endloop
  endfacet
  facet normal -6.715679e-01 -7.409430e-01 0.000000e+00
    outer loop
      vertex -3.535530e-01 -5.303300e+00 1.000000e+01
      vertex -3.535530e-01 -5.303300e+00 3.000000e+00
      vertex -3.171970e-01 -5.336250e+00 3.000000e+00
    endloop
  endfacet
  facet normal -6.715679e-01 -7.409430e-01 0.000000e+00
    outer loop
      vertex -3.171970e-01 -5.336250e+00 1.000000e+01
      vertex -3.535530e-01 -5.303300e+00 1.000000e+01
      vertex -3.171970e-01 -5.336250e+00 3.000000e+00
    endloop
  endfacet
  facet normal -5.957000e-01 -8.032070e-01 0.000000e+00
    outer loop
      vertex -3.171970e-01 -5.336250e+00 1.000000e+01
      vertex -3.171970e-01 -5.336250e+00 3.000000e+00
      vertex -2.777850e-01 -5.365480e+00 3.000000e+00
    endloop
  endfacet
  facet normal -5.957000e-01 -8.032070e-01 0.000000e+00
    outer loop
      vertex -2.777850e-01 -5.365480e+00 1.000000e+01
      vertex -3.171970e-01 -5.336250e+00 1.000000e+01
      vertex -2.777850e-01 -5.365480e+00 3.000000e+00
    endloop
  endfacet
  facet normal -5.141032e-01 -8.577283e-01 0.000000e+00
    outer loop
      vertex -2.777850e-01 -5.365480e+00 1.000000e+01
      vertex -2.777850e-01 -5.365480e+00 3.000000e+00
      vertex -2.356980e-01 -5.390710e+00 3.000000e+00
    endloop
  endfacet
  facet normal -5.141032e-01 -8.577283e-01 0.000000e+00
    outer loop
      vertex -2.356980e-01 -5.390710e+00 1.000000e+01
      vertex -2.777850e-01 -5.365480e+00 1.000000e+01
      vertex -2.356980e-01 -5.390710e+00 3.000000e+00
    endloop
  endfacet
  facet normal -4.275580e-01 -9.039879e-01 0.000000e+00
    outer loop
      vertex -2.356980e-01 -5.390710e+00 1.000000e+01
      vertex -2.356980e-01 -5.390710e+00 3.000000e+00
      vertex -1.913420e-01 -5.411690e+00 3.000000e+00
    endloop
  endfacet
  facet normal -4.275580e-01 -9.039879e-01 0.000000e+00
    outer loop
      vertex -1.913420e-01 -5.411690e+00 1.000000e+01
      vertex -2.356980e-01 -5.390710e+00 1.000000e+01
      vertex -1.913420e-01 -5.411690e+00 3.000000e+00
    endloop
  endfacet
  facet normal -3.368790e-01 -9.415479e-01 0.000000e+00
    outer loop
      vertex -1.913420e-01 -5.411690e+00 1.000000e+01
      vertex -1.913420e-01 -5.411690e+00 3.000000e+00
      vertex -1.451420e-01 -5.428220e+00 3.000000e+00
    endloop
  endfacet
  facet normal -3.368790e-01 -9.415479e-01 0.000000e+00
    outer loop
      vertex -1.451420e-01 -5.428220e+00 1.000000e+01
      vertex -1.913420e-01 -5.411690e+00 1.000000e+01
      vertex -1.451420e-01 -5.428220e+00 3.000000e+00
    endloop
  endfacet
  facet normal -2.429909e-01 -9.700286e-01 0.000000e+00
    outer loop
      vertex -1.451420e-01 -5.428220e+00 1.000000e+01
      vertex -1.451420e-01 -5.428220e+00 3.000000e+00
      vertex -9.754500e-02 -5.440140e+00 3.000000e+00
    endloop
  endfacet
  facet normal -2.429909e-01 -9.700286e-01 0.000000e+00
    outer loop
      vertex -9.754500e-02 -5.440140e+00 1.000000e+01
      vertex -1.451420e-01 -5.428220e+00 1.000000e+01
      vertex -9.754500e-02 -5.440140e+00 3.000000e+00
    endloop
  endfacet
  facet normal -1.467181e-01 -9.891784e-01 0.000000e+00
    outer loop
      vertex -9.754500e-02 -5.440140e+00 1.000000e+01
      vertex -9.754500e-02 -5.440140e+00 3.000000e+00
      vertex -4.900900e-02 -5.447340e+00 3.000000e+00
    endloop
  endfacet
  facet normal -1.467181e-01 -9.891784e-01 0.000000e+00
    outer loop
      vertex -4.900900e-02 -5.447340e+00 1.000000e+01
      vertex -9.754500e-02 -5.440140e+00 1.000000e+01
      vertex -4.900900e-02 -5.447340e+00 3.000000e+00
    endloop
  endfacet
  facet normal -4.907461e-02 -9.987951e-01 0.000000e+00
    outer loop
      vertex -4.900900e-02 -5.447340e+00 1.000000e+01
      vertex -4.900900e-02 -5.447340e+00 3.000000e+00
      vertex 0.000000e+00 -5.449750e+00 3.000000e+00
    endloop
  endfacet
  facet normal -4.907461e-02 -9.987951e-01 0.000000e+00
    outer loop
      vertex 0.000000e+00 -5.449750e+00 1.000000e+01
      vertex -4.900900e-02 -5.447340e+00 1.000000e+01
      vertex 0.000000e+00 -5.449750e+00 3.000000e+00
    endloop
  endfacet
  facet normal 4.907461e-02 -9.987951e-01 0.000000e+00
    outer loop
      vertex 0.000000e+00 -5.449750e+00 1.000000e+01
      vertex 0.000000e+00 -5.449750e+00 3.000000e+00
      vertex 4.900900e-02 -5.447340e+00 3.000000e+00
    endloop
  endfacet
  facet normal 4.907461e-02 -9.987951e-01 0.000000e+00
    outer loop
      vertex 4.900900e-02 -5.447340e+00 1.000000e+01
      vertex 0.000000e+00 -5.449750e+00 1.000000e+01
      vertex 4.900900e-02 -5.447340e+00 3.000000e+00
    endloop
  endfacet
  facet normal 1.467181e-01 -9.891784e-01 0.000000e+00
    outer loop
      vertex 4.900900e-02 -5.447340e+00 1.000000e+01
      vertex 4.900900e-02 -5.447340e+00 3.000000e+00
      vertex 9.754500e-02 -5.440140e+00 3.000000e+00
    endloop
  endfacet
  facet normal 1.467181e-01 -9.891784e-01 0.000000e+00
    outer loop
      vertex 9.754500e-02 -5.440140e+00 1.000000e+01
      vertex 4.900900e-02 -5.447340e+00 1.000000e+01
      vertex 9.754500e-02 -5.440140e+00 3.000000e+00
    endloop
  endfacet
  facet normal 2.429909e-01 -9.700286e-01 0.000000e+00
    outer loop
      vertex 9.754500e-02 -5.440140e+00 1.000000e+01
      vertex 9.754500e-02 -5.440140e+00 3.000000e+00
      vertex 1.451420e-01 -5.428220e+00 3.000000e+00
    endloop
  endfacet
  facet normal 2.429909e-01 -9.700286e-01 0.000000e+00
    outer loop
      vertex 1.451420e-01 -5.428220e+00 1.000000e+01
      vertex 9.754500e-02 -5.440140e+00 1.000000e+01
      vertex 1.451420e-01 -5.428220e+00 3.000000e+00
    endloop
  endfacet
  facet normal 3.368790e-01 -9.415479e-01 0.000000e+00
    outer loop
      vertex 1.451420e-01 -5.428220e+00 1.000000e+01
      vertex 1.451420e-01 -5.428220e+00 3.000000e+00
      vertex 1.913420e-01 -5.411690e+00 3.000000e+00
    endloop
  endfacet
  facet normal 3.368790e-01 -9.415479e-01 0.000000e+00
    outer loop
      vertex 1.913420e-01 -5.411690e+00 1.000000e+01
      vertex 1.451420e-01 -5.428220e+00 1.000000e+01
      vertex 1.913420e-01 -5.411690e+00 3.000000e+00
    endloop
  endfacet
  facet normal 4.275580e-01 -9.039879e-01 0.000000e+00
    outer loop
      vertex 1.913420e-01 -5.411690e+00 1.000000e+01
      vertex 1.913420e-01 -5.411690e+00 3.000000e+00
      vertex 2.356980e-01 -5.390710e+00 3.000000e+00
    endloop
  endfacet
  facet normal 4.275580e-01 -9.039879e-01 0.000000e+00
    outer loop
      vertex 2.356980e-01 -5.390710e+00 1.000000e+01
      vertex 1.913420e-01 -5.411690e+00 1.000000e+01
      vertex 2.356980e-01 -5.390710e+00 3.000000e+00
    endloop
  endfacet
  facet normal 5.141032e-01 -8.577283e-01 0.000000e+00
    outer loop
      vertex 2.356980e-01 -5.390710e+00 1.000000e+01
      vertex 2.356980e-01 -5.390710e+00 3.000000e+00
      vertex 2.777850e-01 -5.365480e+00 3.000000e+00
    endloop
  endfacet
  facet normal 5.141032e-01 -8.577283e-01 0.000000e+00
    outer loop
      vertex 2.777850e-01 -5.365480e+00 1.000000e+01
      vertex 2.356980e-01 -5.390710e+00 1.000000e+01
      vertex 2.777850e-01 -5.365480e+00 3.000000e+00
    endloop
  endfacet
  facet normal 5.957000e-01 -8.032070e-01 0.000000e+00
    outer loop
      vertex 2.777850e-01 -5.365480e+00 1.000000e+01
      vertex 2.777850e-01 -5.365480e+00 3.000000e+00
      vertex 3.171970e-01 -5.336250e+00 3.000000e+00
    endloop
  endfacet
  facet normal 5.957000e-01 -8.032070e-01 0.000000e+00
    outer loop
      vertex 3.171970e-01 -5.336250e+00 1.000000e+01
      vertex 2.777850e-01 -5.365480e+00 1.000000e+01
      vertex 3.171970e-01 -5.336250e+00 3.000000e+00
    endloop
  endfacet
  facet normal 6.715679e-01 -7.409430e-01 0.000000e+00
    outer loop
      vertex 3.171970e-01 -5.336250e+00 1.000000e+01
      vertex 3.171970e-01 -5.336250e+00 3.000000e+00
      vertex 3.535530e-01 -5.303300e+00 3.000000e+00
    endloop
  endfacet
  facet normal 6.715679e-01 -7.409430e-01 0.000000e+00
    outer loop
      vertex 3.535530e-01 -5.303300e+00 1.000000e+01
      vertex 3.171970e-01 -5.336250e+00 1.000000e+01
      vertex 3.535530e-01 -5.303300e+00 3.000000e+00
    endloop
  endfacet
endsolid Default
