solid Default
  facet normal -1.000000e+00 0.000000e+00 0.000000e+00
    outer loop
      vertex -1.200000e+01 3.426120e+00 3.000000e+00
      vertex -1.200000e+01 4.000000e+00 0.000000e+00
      vertex -1.200000e+01 1.261340e+00 3.000000e+00
    endloop
  endfacet
  facet normal -1.000000e+00 0.000000e+00 0.000000e+00
    outer loop
      vertex -1.200000e+01 -4.000000e+00 0.000000e+00
      vertex -1.200000e+01 -4.000000e+00 1.000000e+01
      vertex -1.200000e+01 1.261340e+00 3.000000e+00
    endloop
  endfacet
  facet normal -1.000000e+00 0.000000e+00 0.000000e+00
    outer loop
      vertex -1.200000e+01 -4.000000e+00 0.000000e+00
      vertex -1.200000e+01 1.261340e+00 3.000000e+00
      vertex -1.200000e+01 4.000000e+00 0.000000e+00
    endloop
  endfacet
  facet normal -1.000000e+00 0.000000e+00 0.000000e+00
    outer loop
      vertex -1.200000e+01 4.000000e+00 0.000000e+00
      vertex -1.200000e+01 3.426120e+00 3.000000e+00
      vertex -1.200000e+01 3.426120e+00 1.000000e+01
    endloop
  endfacet
  facet normal -1.000000e+00 0.000000e+00 0.000000e+00
    outer loop
      vertex -1.200000e+01 4.000000e+00 0.000000e+00
      vertex -1.200000e+01 3.426120e+00 1.000000e+01
      vertex -1.200000e+01 4.000000e+00 1.000000e+01
    endloop
  endfacet
  facet normal -1.000000e+00 0.000000e+00 0.000000e+00
    outer loop
      vertex -1.200000e+01 1.261340e+00 3.000000e+00
      vertex -1.200000e+01 -4.000000e+00 1.000000e+01
      vertex -1.200000e+01 1.261340e+00 1.000000e+01
    endloop
  endfacet
  facet normal 0.000000e+00 -1.000000e+00 0.000000e+00
    outer loop
      vertex -1.200000e+01 -4.000000e+00 1.000000e+01
      vertex -1.200000e+01 -4.000000e+00 0.000000e+00
      vertex 1.200000e+01 -4.000000e+00 0.000000e+00
    endloop
  endfacet
  facet normal 0.000000e+00 -1.000000e+00 0.000000e+00
    outer loop
      vertex 1.200000e+01 -4.000000e+00 1.000000e+01
      vertex -1.200000e+01 -4.000000e+00 1.000000e+01
      vertex 1.200000e+01 -4.000000e+00 0.000000e+00
    endloop
  endfacet
  facet normal -0.000000e+00 -0.000000e+00 -1.000000e+00
    outer loop
      vertex -1.200000e+01 -4.000000e+00 0.000000e+00
      vertex -1.200000e+01 4.000000e+00 0.000000e+00
      vertex 1.200000e+01 -4.000000e+00 0.000000e+00
    endloop
  endfacet
  facet normal 0.000000e+00 0.000000e+00 -1.000000e+00
    outer loop
      vertex 1.200000e+01 -4.000000e+00 0.000000e+00
      vertex -1.200000e+01 4.000000e+00 0.000000e+00
      vertex 1.200000e+01 4.000000e+00 0.000000e+00
    endloop
  endfacet
  facet normal 0.000000e+00 1.000000e+00 0.000000e+00
    outer loop
      vertex -1.200000e+01 4.000000e+00 0.000000e+00
      vertex -1.200000e+01 4.000000e+00 1.000000e+01
      vertex 1.200000e+01 4.000000e+00 0.000000e+00
    endloop
  endfacet
  facet normal 0.000000e+00 1.000000e+00 0.000000e+00
    outer loop
      vertex 1.200000e+01 4.000000e+00 0.000000e+00
      vertex -1.200000e+01 4.000000e+00 1.000000e+01
      vertex 1.200000e+01 4.000000e+00 1.000000e+01
    endloop
  endfacet
  facet normal 0.000000e+00 0.000000e+00 1.000000e+00
    outer loop
      vertex -1.200000e+01 4.000000e+00 1.000000e+01
      vertex -1.200000e+01 3.426120e+00 1.000000e+01
      vertex -2.705980e-01 -1.432360e+00 1.000000e+01
    endloop
  endfacet
  facet normal 0.000000e+00 0.000000e+00 1.000000e+00
    outer loop
      vertex -9.754500e-02 -1.493640e+00 1.000000e+01
      vertex -1.200000e+01 4.000000e+00 1.000000e+01
      vertex -2.705980e-01 -1.423290e+00 1.000000e+01
    endloop
  endfacet
  facet normal 0.000000e+00 0.000000e+00 1.000000e+00
    outer loop
      vertex -2.705980e-01 -1.423290e+00 1.000000e+01
      vertex -1.200000e+01 4.000000e+00 1.000000e+01
      vertex -2.705980e-01 -1.432360e+00 1.000000e+01
    endloop
  endfacet
  facet normal 0.000000e+00 0.000000e+00 1.000000e+00
    outer loop
      vertex -1.913480e-01 -1.465180e+00 1.000000e+01
      vertex -2.705980e-01 -1.423290e+00 1.000000e+01
      vertex -2.356980e-01 -1.444210e+00 1.000000e+01
    endloop
  endfacet
  facet normal 0.000000e+00 0.000000e+00 9.999999e-01
    outer loop
      vertex -1.913360e-01 -1.465190e+00 1.000000e+01
      vertex -2.705980e-01 -1.423290e+00 1.000000e+01
      vertex -1.913480e-01 -1.465180e+00 1.000000e+01
    endloop
  endfacet
  facet normal 0.000000e+00 0.000000e+00 1.000000e+00
    outer loop
      vertex -1.451420e-01 -1.481720e+00 1.000000e+01
      vertex -2.705980e-01 -1.423290e+00 1.000000e+01
      vertex -1.913360e-01 -1.465190e+00 1.000000e+01
    endloop
  endfacet
  facet normal 0.000000e+00 0.000000e+00 1.000000e+00
    outer loop
      vertex -9.754500e-02 -1.493640e+00 1.000000e+01
      vertex -2.705980e-01 -1.423290e+00 1.000000e+01
      vertex -1.451420e-01 -1.481720e+00 1.000000e+01
    endloop
  endfacet
  facet normal 0.000000e+00 0.000000e+00 1.000000e+00
    outer loop
      vertex -4.900900e-02 -1.500840e+00 1.000000e+01
      vertex -1.200000e+01 4.000000e+00 1.000000e+01
      vertex -9.754500e-02 -1.493640e+00 1.000000e+01
    endloop
  endfacet
  facet normal 0.000000e+00 0.000000e+00 1.000000e+00
    outer loop
      vertex 0.000000e+00 -1.503250e+00 1.000000e+01
      vertex -1.200000e+01 4.000000e+00 1.000000e+01
      vertex -4.900900e-02 -1.500840e+00 1.000000e+01
    endloop
  endfacet
  facet normal 0.000000e+00 0.000000e+00 1.000000e+00
    outer loop
      vertex 4.900900e-02 -1.500840e+00 1.000000e+01
      vertex -1.200000e+01 4.000000e+00 1.000000e+01
      vertex 0.000000e+00 -1.503250e+00 1.000000e+01
    endloop
  endfacet
  facet normal 0.000000e+00 0.000000e+00 1.000000e+00
    outer loop
      vertex 9.754500e-02 -1.493640e+00 1.000000e+01
      vertex -1.200000e+01 4.000000e+00 1.000000e+01
      vertex 4.900900e-02 -1.500840e+00 1.000000e+01
    endloop
  endfacet
  facet normal 0.000000e+00 0.000000e+00 1.000000e+00
    outer loop
      vertex 1.451420e-01 -1.481720e+00 1.000000e+01
      vertex -1.200000e+01 4.000000e+00 1.000000e+01
      vertex 9.754500e-02 -1.493640e+00 1.000000e+01
    endloop
  endfacet
  facet normal 0.000000e+00 0.000000e+00 1.000000e+00
    outer loop
      vertex 1.913360e-01 -1.465190e+00 1.000000e+01
      vertex -1.200000e+01 4.000000e+00 1.000000e+01
      vertex 1.451420e-01 -1.481720e+00 1.000000e+01
    endloop
  endfacet
  facet normal 0.000000e+00 0.000000e+00 1.000000e+00
    outer loop
      vertex 1.913480e-01 -1.465180e+00 1.000000e+01
      vertex -1.200000e+01 4.000000e+00 1.000000e+01
      vertex 1.913360e-01 -1.465190e+00 1.000000e+01
    endloop
  endfacet
  facet normal 0.000000e+00 0.000000e+00 1.000000e+00
    outer loop
      vertex 2.356980e-01 -1.444210e+00 1.000000e+01
      vertex -1.200000e+01 4.000000e+00 1.000000e+01
      vertex 1.913480e-01 -1.465180e+00 1.000000e+01
    endloop
  endfacet
  facet normal 0.000000e+00 0.000000e+00 1.000000e+00
    outer loop
      vertex 2.705980e-01 -1.423290e+00 1.000000e+01
      vertex -1.200000e+01 4.000000e+00 1.000000e+01
      vertex 2.356980e-01 -1.444210e+00 1.000000e+01
    endloop
  endfacet
  facet normal 0.000000e+00 0.000000e+00 1.000000e+00
    outer loop
      vertex 1.200000e+01 3.426120e+00 1.000000e+01
      vertex -1.200000e+01 4.000000e+00 1.000000e+01
      vertex 2.705980e-01 -1.423290e+00 1.000000e+01
    endloop
  endfacet
  facet normal 0.000000e+00 0.000000e+00 1.000000e+00
    outer loop
      vertex 1.200000e+01 3.426120e+00 1.000000e+01
      vertex 2.705980e-01 -1.423290e+00 1.000000e+01
      vertex 2.705980e-01 -1.432360e+00 1.000000e+01
    endloop
  endfacet
  facet normal 0.000000e+00 0.000000e+00 1.000000e+00
    outer loop
      vertex 1.200000e+01 4.000000e+00 1.000000e+01
      vertex -1.200000e+01 4.000000e+00 1.000000e+01
      vertex 1.200000e+01 3.426120e+00 1.000000e+01
    endloop
  endfacet
  facet normal -3.826829e-01 -9.238797e-01 -0.000000e+00
    outer loop
      vertex -2.705980e-01 -1.432360e+00 3.000000e+00
      vertex -2.705980e-01 -1.432360e+00 1.000000e+01
      vertex -1.200000e+01 3.426120e+00 1.000000e+01
    endloop
  endfacet
  facet normal -3.826829e-01 -9.238797e-01 -0.000000e+00
    outer loop
      vertex -1.200000e+01 3.426120e+00 3.000000e+00
      vertex -2.705980e-01 -1.432360e+00 3.000000e+00
      vertex -1.200000e+01 3.426120e+00 1.000000e+01
    endloop
  endfacet
  facet normal 0.000000e+00 0.000000e+00 1.000000e+00
    outer loop
      vertex -3.826880e-01 -3.550710e+00 3.000000e+00
      vertex -3.826830e-01 -3.550710e+00 3.000000e+00
      vertex -2.902850e-01 -3.583770e+00 3.000000e+00
    endloop
  endfacet
  facet normal 0.000000e+00 0.000000e+00 1.000000e+00
    outer loop
      vertex -9.801700e-02 -3.622020e+00 3.000000e+00
      vertex -3.826880e-01 -3.550710e+00 3.000000e+00
      vertex -1.950900e-01 -3.607620e+00 3.000000e+00
    endloop
  endfacet
  facet normal 0.000000e+00 0.000000e+00 1.000000e+00
    outer loop
      vertex -1.950900e-01 -3.607620e+00 3.000000e+00
      vertex -3.826880e-01 -3.550710e+00 3.000000e+00
      vertex -2.902850e-01 -3.583770e+00 3.000000e+00
    endloop
  endfacet
  facet normal 0.000000e+00 0.000000e+00 1.000000e+00
    outer loop
      vertex 0.000000e+00 -3.626830e+00 3.000000e+00
      vertex -3.826880e-01 -3.550710e+00 3.000000e+00
      vertex -9.801700e-02 -3.622020e+00 3.000000e+00
    endloop
  endfacet
  facet normal 0.000000e+00 0.000000e+00 1.000000e+00
    outer loop
      vertex 9.801700e-02 -3.622020e+00 3.000000e+00
      vertex -3.826880e-01 -3.550710e+00 3.000000e+00
      vertex 0.000000e+00 -3.626830e+00 3.000000e+00
    endloop
  endfacet
  facet normal 0.000000e+00 0.000000e+00 1.000000e+00
    outer loop
      vertex 1.950900e-01 -3.607620e+00 3.000000e+00
      vertex -3.826880e-01 -3.550710e+00 3.000000e+00
      vertex 9.801700e-02 -3.622020e+00 3.000000e+00
    endloop
  endfacet
  facet normal 0.000000e+00 0.000000e+00 1.000000e+00
    outer loop
      vertex 2.902850e-01 -3.583770e+00 3.000000e+00
      vertex -3.826880e-01 -3.550710e+00 3.000000e+00
      vertex 1.950900e-01 -3.607620e+00 3.000000e+00
    endloop
  endfacet
  facet normal 0.000000e+00 0.000000e+00 1.000000e+00
    outer loop
      vertex 3.826830e-01 -3.550710e+00 3.000000e+00
      vertex -3.826880e-01 -3.550710e+00 3.000000e+00
      vertex 2.902850e-01 -3.583770e+00 3.000000e+00
    endloop
  endfacet
  facet normal 0.000000e+00 0.000000e+00 1.000000e+00
    outer loop
      vertex 3.826880e-01 -3.550710e+00 3.000000e+00
      vertex -3.826880e-01 -3.550710e+00 3.000000e+00
      vertex 3.826830e-01 -3.550710e+00 3.000000e+00
    endloop
  endfacet
  facet normal 0.000000e+00 0.000000e+00 1.000000e+00
    outer loop
      vertex 1.200000e+01 1.261340e+00 3.000000e+00
      vertex -3.826880e-01 -3.550710e+00 3.000000e+00
      vertex 3.826880e-01 -3.550710e+00 3.000000e+00
    endloop
  endfacet
  facet normal 0.000000e+00 0.000000e+00 1.000000e+00
    outer loop
      vertex 1.200000e+01 3.426120e+00 3.000000e+00
      vertex -3.826880e-01 -3.550710e+00 3.000000e+00
      vertex 1.200000e+01 1.261340e+00 3.000000e+00
    endloop
  endfacet
  facet normal 0.000000e+00 0.000000e+00 1.000000e+00
    outer loop
      vertex 2.705980e-01 -1.432360e+00 3.000000e+00
      vertex -3.826880e-01 -3.550710e+00 3.000000e+00
      vertex 1.200000e+01 3.426120e+00 3.000000e+00
    endloop
  endfacet
  facet normal 0.000000e+00 0.000000e+00 1.000000e+00
    outer loop
      vertex 2.705980e-01 -1.423290e+00 3.000000e+00
      vertex -3.826880e-01 -3.550710e+00 3.000000e+00
      vertex 2.705980e-01 -1.432360e+00 3.000000e+00
    endloop
  endfacet
  facet normal 0.000000e+00 0.000000e+00 1.000000e+00
    outer loop
      vertex 2.356980e-01 -1.444210e+00 3.000000e+00
      vertex -3.826880e-01 -3.550710e+00 3.000000e+00
      vertex 2.705980e-01 -1.423290e+00 3.000000e+00
    endloop
  endfacet
  facet normal 0.000000e+00 0.000000e+00 1.000000e+00
    outer loop
      vertex 1.913480e-01 -1.465180e+00 3.000000e+00
      vertex -3.826880e-01 -3.550710e+00 3.000000e+00
      vertex 2.356980e-01 -1.444210e+00 3.000000e+00
    endloop
  endfacet
  facet normal 0.000000e+00 0.000000e+00 1.000000e+00
    outer loop
      vertex 1.913360e-01 -1.465190e+00 3.000000e+00
      vertex -3.826880e-01 -3.550710e+00 3.000000e+00
      vertex 1.913480e-01 -1.465180e+00 3.000000e+00
    endloop
  endfacet
  facet normal 0.000000e+00 0.000000e+00 1.000000e+00
    outer loop
      vertex 1.451420e-01 -1.481720e+00 3.000000e+00
      vertex -3.826880e-01 -3.550710e+00 3.000000e+00
      vertex 1.913360e-01 -1.465190e+00 3.000000e+00
    endloop
  endfacet
  facet normal 0.000000e+00 0.000000e+00 1.000000e+00
    outer loop
      vertex 9.754500e-02 -1.493640e+00 3.000000e+00
      vertex -3.826880e-01 -3.550710e+00 3.000000e+00
      vertex 1.451420e-01 -1.481720e+00 3.000000e+00
    endloop
  endfacet
  facet normal 0.000000e+00 0.000000e+00 1.000000e+00
    outer loop
      vertex 4.900900e-02 -1.500840e+00 3.000000e+00
      vertex -3.826880e-01 -3.550710e+00 3.000000e+00
      vertex 9.754500e-02 -1.493640e+00 3.000000e+00
    endloop
  endfacet
  facet normal 0.000000e+00 0.000000e+00 1.000000e+00
    outer loop
      vertex 0.000000e+00 -1.503250e+00 3.000000e+00
      vertex -3.826880e-01 -3.550710e+00 3.000000e+00
      vertex 4.900900e-02 -1.500840e+00 3.000000e+00
    endloop
  endfacet
  facet normal 0.000000e+00 0.000000e+00 1.000000e+00
    outer loop
      vertex -4.900900e-02 -1.500840e+00 3.000000e+00
      vertex -3.826880e-01 -3.550710e+00 3.000000e+00
      vertex 0.000000e+00 -1.503250e+00 3.000000e+00
    endloop
  endfacet
  facet normal 0.000000e+00 0.000000e+00 1.000000e+00
    outer loop
      vertex -9.754500e-02 -1.493640e+00 3.000000e+00
      vertex -3.826880e-01 -3.550710e+00 3.000000e+00
      vertex -4.900900e-02 -1.500840e+00 3.000000e+00
    endloop
  endfacet
  facet normal 0.000000e+00 0.000000e+00 1.000000e+00
    outer loop
      vertex -1.451420e-01 -1.481720e+00 3.000000e+00
      vertex -3.826880e-01 -3.550710e+00 3.000000e+00
      vertex -9.754500e-02 -1.493640e+00 3.000000e+00
    endloop
  endfacet
  facet normal 0.000000e+00 0.000000e+00 1.000000e+00
    outer loop
      vertex -1.913360e-01 -1.465190e+00 3.000000e+00
      vertex -3.826880e-01 -3.550710e+00 3.000000e+00
      vertex -1.451420e-01 -1.481720e+00 3.000000e+00
    endloop
  endfacet
  facet normal 0.000000e+00 0.000000e+00 1.000000e+00
    outer loop
      vertex -1.913480e-01 -1.465180e+00 3.000000e+00
      vertex -3.826880e-01 -3.550710e+00 3.000000e+00
      vertex -1.913360e-01 -1.465190e+00 3.000000e+00
    endloop
  endfacet
  facet normal 0.000000e+00 0.000000e+00 1.000000e+00
    outer loop
      vertex -2.356980e-01 -1.444210e+00 3.000000e+00
      vertex -3.826880e-01 -3.550710e+00 3.000000e+00
      vertex -1.913480e-01 -1.465180e+00 3.000000e+00
    endloop
  endfacet
  facet normal 0.000000e+00 0.000000e+00 1.000000e+00
    outer loop
      vertex -2.705980e-01 -1.432360e+00 3.000000e+00
      vertex -3.826880e-01 -3.550710e+00 3.000000e+00
      vertex -2.356980e-01 -1.444210e+00 3.000000e+00
    endloop
  endfacet
  facet normal 0.000000e+00 0.000000e+00 1.000000e+00
    outer loop
      vertex -2.705980e-01 -1.423290e+00 3.000000e+00
      vertex -2.705980e-01 -1.432360e+00 3.000000e+00
      vertex -2.356980e-01 -1.444210e+00 3.000000e+00
    endloop
  endfacet
  facet normal 0.000000e+00 0.000000e+00 1.000000e+00
    outer loop
      vertex -1.200000e+01 1.261340e+00 3.000000e+00
      vertex -3.826880e-01 -3.550710e+00 3.000000e+00
      vertex -1.200000e+01 3.426120e+00 3.000000e+00
    endloop
  endfacet
  facet normal 0.000000e+00 0.000000e+00 1.000000e+00
    outer loop
      vertex -2.705980e-01 -1.432360e+00 3.000000e+00
      vertex -1.200000e+01 3.426120e+00 3.000000e+00
      vertex -3.826880e-01 -3.550710e+00 3.000000e+00
    endloop
  endfacet
  facet normal 3.826829e-01 9.238797e-01 0.000000e+00
    outer loop
      vertex -3.826880e-01 -3.550710e+00 1.000000e+01
      vertex -3.826880e-01 -3.550710e+00 3.000000e+00
      vertex -1.200000e+01 1.261340e+00 1.000000e+01
    endloop
  endfacet
  facet normal 3.826829e-01 9.238797e-01 0.000000e+00
    outer loop
      vertex -1.200000e+01 1.261340e+00 1.000000e+01
      vertex -3.826880e-01 -3.550710e+00 3.000000e+00
      vertex -1.200000e+01 1.261340e+00 3.000000e+00
    endloop
  endfacet
  facet normal 0.000000e+00 0.000000e+00 1.000000e+00
    outer loop
      vertex 0.000000e+00 -3.626830e+00 1.000000e+01
      vertex -1.200000e+01 -4.000000e+00 1.000000e+01
      vertex 1.200000e+01 -4.000000e+00 1.000000e+01
    endloop
  endfacet
  facet normal 0.000000e+00 0.000000e+00 1.000000e+00
    outer loop
      vertex 0.000000e+00 -3.626830e+00 1.000000e+01
      vertex -9.801700e-02 -3.622020e+00 1.000000e+01
      vertex -1.200000e+01 -4.000000e+00 1.000000e+01
    endloop
  endfacet
  facet normal 0.000000e+00 0.000000e+00 1.000000e+00
    outer loop
      vertex 3.826880e-01 -3.550710e+00 1.000000e+01
      vertex 3.826830e-01 -3.550710e+00 1.000000e+01
      vertex 1.200000e+01 -4.000000e+00 1.000000e+01
    endloop
  endfacet
  facet normal 0.000000e+00 0.000000e+00 1.000000e+00
    outer loop
      vertex 3.826830e-01 -3.550710e+00 1.000000e+01
      vertex 2.902850e-01 -3.583770e+00 1.000000e+01
      vertex 1.200000e+01 -4.000000e+00 1.000000e+01
    endloop
  endfacet
  facet normal 0.000000e+00 0.000000e+00 1.000000e+00
    outer loop
      vertex 2.902850e-01 -3.583770e+00 1.000000e+01
      vertex 1.950900e-01 -3.607620e+00 1.000000e+01
      vertex 1.200000e+01 -4.000000e+00 1.000000e+01
    endloop
  endfacet
  facet normal 0.000000e+00 0.000000e+00 1.000000e+00
    outer loop
      vertex 1.950900e-01 -3.607620e+00 1.000000e+01
      vertex 9.801700e-02 -3.622020e+00 1.000000e+01
      vertex 1.200000e+01 -4.000000e+00 1.000000e+01
    endloop
  endfacet
  facet normal 0.000000e+00 0.000000e+00 1.000000e+00
    outer loop
      vertex 9.801700e-02 -3.622020e+00 1.000000e+01
      vertex 0.000000e+00 -3.626830e+00 1.000000e+01
      vertex 1.200000e+01 -4.000000e+00 1.000000e+01
    endloop
  endfacet
  facet normal 0.000000e+00 0.000000e+00 1.000000e+00
    outer loop
      vertex -9.801700e-02 -3.622020e+00 1.000000e+01
      vertex -1.950900e-01 -3.607620e+00 1.000000e+01
      vertex -1.200000e+01 -4.000000e+00 1.000000e+01
    endloop
  endfacet
  facet normal 0.000000e+00 0.000000e+00 1.000000e+00
    outer loop
      vertex -1.950900e-01 -3.607620e+00 1.000000e+01
      vertex -2.902850e-01 -3.583770e+00 1.000000e+01
      vertex -1.200000e+01 -4.000000e+00 1.000000e+01
    endloop
  endfacet
  facet normal 0.000000e+00 0.000000e+00 1.000000e+00
    outer loop
      vertex -1.200000e+01 1.261340e+00 1.000000e+01
      vertex -1.200000e+01 -4.000000e+00 1.000000e+01
      vertex -3.826830e-01 -3.550710e+00 1.000000e+01
    endloop
  endfacet
  facet normal 0.000000e+00 0.000000e+00 1.000000e+00
    outer loop
      vertex -1.200000e+01 1.261340e+00 1.000000e+01
      vertex -3.826830e-01 -3.550710e+00 1.000000e+01
      vertex -3.826880e-01 -3.550710e+00 1.000000e+01
    endloop
  endfacet
  facet normal 0.000000e+00 0.000000e+00 1.000000e+00
    outer loop
      vertex 1.200000e+01 1.261340e+00 1.000000e+01
      vertex 3.826880e-01 -3.550710e+00 1.000000e+01
      vertex 1.200000e+01 -4.000000e+00 1.000000e+01
    endloop
  endfacet
  facet normal 0.000000e+00 0.000000e+00 1.000000e+00
    outer loop
      vertex -2.902850e-01 -3.583770e+00 1.000000e+01
      vertex -3.826830e-01 -3.550710e+00 1.000000e+01
      vertex -1.200000e+01 -4.000000e+00 1.000000e+01
    endloop
  endfacet
  facet normal 1.000000e+00 0.000000e+00 0.000000e+00
    outer loop
      vertex 1.200000e+01 1.261340e+00 3.000000e+00
      vertex 1.200000e+01 -4.000000e+00 0.000000e+00
      vertex 1.200000e+01 4.000000e+00 0.000000e+00
    endloop
  endfacet
  facet normal 1.000000e+00 0.000000e+00 0.000000e+00
    outer loop
      vertex 1.200000e+01 1.261340e+00 3.000000e+00
      vertex 1.200000e+01 1.261340e+00 1.000000e+01
      vertex 1.200000e+01 -4.000000e+00 1.000000e+01
    endloop
  endfacet
  facet normal 1.000000e+00 0.000000e+00 0.000000e+00
    outer loop
      vertex 1.200000e+01 4.000000e+00 1.000000e+01
      vertex 1.200000e+01 3.426120e+00 1.000000e+01
      vertex 1.200000e+01 4.000000e+00 0.000000e+00
    endloop
  endfacet
  facet normal 1.000000e+00 0.000000e+00 0.000000e+00
    outer loop
      vertex 1.200000e+01 3.426120e+00 1.000000e+01
      vertex 1.200000e+01 3.426120e+00 3.000000e+00
      vertex 1.200000e+01 4.000000e+00 0.000000e+00
    endloop
  endfacet
  facet normal 1.000000e+00 0.000000e+00 0.000000e+00
    outer loop
      vertex 1.200000e+01 -4.000000e+00 1.000000e+01
      vertex 1.200000e+01 -4.000000e+00 0.000000e+00
      vertex 1.200000e+01 1.261340e+00 3.000000e+00
    endloop
  endfacet
  facet normal 1.000000e+00 0.000000e+00 0.000000e+00
    outer loop
      vertex 1.200000e+01 3.426120e+00 3.000000e+00
      vertex 1.200000e+01 1.261340e+00 3.000000e+00
      vertex 1.200000e+01 4.000000e+00 0.000000e+00
    endloop
  endfacet
  facet normal 3.826829e-01 -9.238797e-01 0.000000e+00
    outer loop
      vertex 1.200000e+01 3.426120e+00 3.000000e+00
      vertex 1.200000e+01 3.426120e+00 1.000000e+01
      vertex 2.705980e-01 -1.432360e+00 1.000000e+01
    endloop
  endfacet
  facet normal 3.826829e-01 -9.238797e-01 0.000000e+00
    outer loop
      vertex 2.705980e-01 -1.432360e+00 3.000000e+00
      vertex 1.200000e+01 3.426120e+00 3.000000e+00
      vertex 2.705980e-01 -1.432360e+00 1.000000e+01
    endloop
  endfacet
  facet normal -1.000000e+00 0.000000e+00 0.000000e+00
    outer loop
      vertex 2.705980e-01 -1.423290e+00 1.000000e+01
      vertex 2.705980e-01 -1.423290e+00 3.000000e+00
      vertex 2.705980e-01 -1.432360e+00 1.000000e+01
    endloop
  endfacet
  facet normal -1.000000e+00 0.000000e+00 0.000000e+00
    outer loop
      vertex 2.705980e-01 -1.432360e+00 1.000000e+01
      vertex 2.705980e-01 -1.423290e+00 3.000000e+00
      vertex 2.705980e-01 -1.432360e+00 3.000000e+00
    endloop
  endfacet
  facet normal 5.141032e-01 -8.577283e-01 0.000000e+00
    outer loop
      vertex 2.356980e-01 -1.444210e+00 1.000000e+01
      vertex 2.356980e-01 -1.444210e+00 3.000000e+00
      vertex 2.705980e-01 -1.423290e+00 3.000000e+00
    endloop
  endfacet
  facet normal 5.141032e-01 -8.577283e-01 0.000000e+00
    outer loop
      vertex 2.705980e-01 -1.423290e+00 1.000000e+01
      vertex 2.356980e-01 -1.444210e+00 1.000000e+01
      vertex 2.705980e-01 -1.423290e+00 3.000000e+00
    endloop
  endfacet
  facet normal 4.275580e-01 -9.039879e-01 0.000000e+00
    outer loop
      vertex 1.913480e-01 -1.465180e+00 1.000000e+01
      vertex 1.913480e-01 -1.465180e+00 3.000000e+00
      vertex 2.356980e-01 -1.444210e+00 3.000000e+00
    endloop
  endfacet
  facet normal 4.275580e-01 -9.039879e-01 0.000000e+00
    outer loop
      vertex 2.356980e-01 -1.444210e+00 1.000000e+01
      vertex 1.913480e-01 -1.465180e+00 1.000000e+01
      vertex 2.356980e-01 -1.444210e+00 3.000000e+00
    endloop
  endfacet
  facet normal 3.826829e-01 -9.238797e-01 0.000000e+00
    outer loop
      vertex 1.913480e-01 -1.465180e+00 3.000000e+00
      vertex 1.913480e-01 -1.465180e+00 1.000000e+01
      vertex 1.913360e-01 -1.465190e+00 1.000000e+01
    endloop
  endfacet
  facet normal 3.826829e-01 -9.238797e-01 0.000000e+00
    outer loop
      vertex 1.913360e-01 -1.465190e+00 3.000000e+00
      vertex 1.913480e-01 -1.465180e+00 3.000000e+00
      vertex 1.913360e-01 -1.465190e+00 1.000000e+01
    endloop
  endfacet
  facet normal 3.368790e-01 -9.415479e-01 0.000000e+00
    outer loop
      vertex 1.451420e-01 -1.481720e+00 1.000000e+01
      vertex 1.451420e-01 -1.481720e+00 3.000000e+00
      vertex 1.913360e-01 -1.465190e+00 3.000000e+00
    endloop
  endfacet
  facet normal 3.368790e-01 -9.415479e-01 0.000000e+00
    outer loop
      vertex 1.913360e-01 -1.465190e+00 1.000000e+01
      vertex 1.451420e-01 -1.481720e+00 1.000000e+01
      vertex 1.913360e-01 -1.465190e+00 3.000000e+00
    endloop
  endfacet
  facet normal 2.429909e-01 -9.700286e-01 0.000000e+00
    outer loop
      vertex 9.754500e-02 -1.493640e+00 1.000000e+01
      vertex 9.754500e-02 -1.493640e+00 3.000000e+00
      vertex 1.451420e-01 -1.481720e+00 3.000000e+00
    endloop
  endfacet
  facet normal 2.429909e-01 -9.700286e-01 0.000000e+00
    outer loop
      vertex 1.451420e-01 -1.481720e+00 1.000000e+01
      vertex 9.754500e-02 -1.493640e+00 1.000000e+01
      vertex 1.451420e-01 -1.481720e+00 3.000000e+00
    endloop
  endfacet
  facet normal 1.467181e-01 -9.891784e-01 0.000000e+00
    outer loop
      vertex 4.900900e-02 -1.500840e+00 1.000000e+01
      vertex 4.900900e-02 -1.500840e+00 3.000000e+00
      vertex 9.754500e-02 -1.493640e+00 3.000000e+00
    endloop
  endfacet
  facet normal 1.467181e-01 -9.891784e-01 0.000000e+00
    outer loop
      vertex 9.754500e-02 -1.493640e+00 1.000000e+01
      vertex 4.900900e-02 -1.500840e+00 1.000000e+01
      vertex 9.754500e-02 -1.493640e+00 3.000000e+00
    endloop
  endfacet
  facet normal 4.907461e-02 -9.987951e-01 0.000000e+00
    outer loop
      vertex 0.000000e+00 -1.503250e+00 1.000000e+01
      vertex 0.000000e+00 -1.503250e+00 3.000000e+00
      vertex 4.900900e-02 -1.500840e+00 3.000000e+00
    endloop
  endfacet
  facet normal 4.907461e-02 -9.987951e-01 0.000000e+00
    outer loop
      vertex 4.900900e-02 -1.500840e+00 1.000000e+01
      vertex 0.000000e+00 -1.503250e+00 1.000000e+01
      vertex 4.900900e-02 -1.500840e+00 3.000000e+00
    endloop
  endfacet
  facet normal -4.907461e-02 -9.987951e-01 0.000000e+00
    outer loop
      vertex -4.900900e-02 -1.500840e+00 1.000000e+01
      vertex -4.900900e-02 -1.500840e+00 3.000000e+00
      vertex 0.000000e+00 -1.503250e+00 3.000000e+00
    endloop
  endfacet
  facet normal -4.907461e-02 -9.987951e-01 0.000000e+00
    outer loop
      vertex 0.000000e+00 -1.503250e+00 1.000000e+01
      vertex -4.900900e-02 -1.500840e+00 1.000000e+01
      vertex 0.000000e+00 -1.503250e+00 3.000000e+00
    endloop
  endfacet
  facet normal -1.467181e-01 -9.891784e-01 0.000000e+00
    outer loop
      vertex -9.754500e-02 -1.493640e+00 1.000000e+01
      vertex -9.754500e-02 -1.493640e+00 3.000000e+00
      vertex -4.900900e-02 -1.500840e+00 3.000000e+00
    endloop
  endfacet
  facet normal -1.467181e-01 -9.891784e-01 0.000000e+00
    outer loop
      vertex -4.900900e-02 -1.500840e+00 1.000000e+01
      vertex -9.754500e-02 -1.493640e+00 1.000000e+01
      vertex -4.900900e-02 -1.500840e+00 3.000000e+00
    endloop
  endfacet
  facet normal -2.429909e-01 -9.700286e-01 0.000000e+00
    outer loop
      vertex -1.451420e-01 -1.481720e+00 1.000000e+01
      vertex -1.451420e-01 -1.481720e+00 3.000000e+00
      vertex -9.754500e-02 -1.493640e+00 3.000000e+00
    endloop
  endfacet
  facet normal -2.429909e-01 -9.700286e-01 0.000000e+00
    outer loop
      vertex -9.754500e-02 -1.493640e+00 1.000000e+01
      vertex -1.451420e-01 -1.481720e+00 1.000000e+01
      vertex -9.754500e-02 -1.493640e+00 3.000000e+00
    endloop
  endfacet
  facet normal -3.368790e-01 -9.415479e-01 0.000000e+00
    outer loop
      vertex -1.913360e-01 -1.465190e+00 1.000000e+01
      vertex -1.913360e-01 -1.465190e+00 3.000000e+00
      vertex -1.451420e-01 -1.481720e+00 3.000000e+00
    endloop
  endfacet
  facet normal -3.368790e-01 -9.415479e-01 0.000000e+00
    outer loop
      vertex -1.451420e-01 -1.481720e+00 1.000000e+01
      vertex -1.913360e-01 -1.465190e+00 1.000000e+01
      vertex -1.451420e-01 -1.481720e+00 3.000000e+00
    endloop
  endfacet
  facet normal -3.826829e-01 -9.238797e-01 -0.000000e+00
    outer loop
      vertex -1.913360e-01 -1.465190e+00 3.000000e+00
      vertex -1.913360e-01 -1.465190e+00 1.000000e+01
      vertex -1.913480e-01 -1.465180e+00 1.000000e+01
    endloop
  endfacet
  facet normal -3.826829e-01 -9.238797e-01 -0.000000e+00
    outer loop
      vertex -1.913480e-01 -1.465180e+00 3.000000e+00
      vertex -1.913360e-01 -1.465190e+00 3.000000e+00
      vertex -1.913480e-01 -1.465180e+00 1.000000e+01
    endloop
  endfacet
  facet normal -4.275580e-01 -9.039879e-01 0.000000e+00
    outer loop
      vertex -2.356980e-01 -1.444210e+00 1.000000e+01
      vertex -2.356980e-01 -1.444210e+00 3.000000e+00
      vertex -1.913480e-01 -1.465180e+00 3.000000e+00
    endloop
  endfacet
  facet normal -4.275580e-01 -9.039879e-01 0.000000e+00
    outer loop
      vertex -1.913480e-01 -1.465180e+00 1.000000e+01
      vertex -2.356980e-01 -1.444210e+00 1.000000e+01
      vertex -1.913480e-01 -1.465180e+00 3.000000e+00
    endloop
  endfacet
  facet normal -5.141032e-01 -8.577283e-01 0.000000e+00
    outer loop
      vertex -2.705980e-01 -1.423290e+00 1.000000e+01
      vertex -2.705980e-01 -1.423290e+00 3.000000e+00
      vertex -2.356980e-01 -1.444210e+00 3.000000e+00
    endloop
  endfacet
  facet normal -5.141032e-01 -8.577283e-01 0.000000e+00
    outer loop
      vertex -2.356980e-01 -1.444210e+00 1.000000e+01
      vertex -2.705980e-01 -1.423290e+00 1.000000e+01
      vertex -2.356980e-01 -1.444210e+00 3.000000e+00
    endloop
  endfacet
  facet normal 1.000000e+00 0.000000e+00 0.000000e+00
    outer loop
      vertex -2.705980e-01 -1.423290e+00 3.000000e+00
      vertex -2.705980e-01 -1.423290e+00 1.000000e+01
      vertex -2.705980e-01 -1.432360e+00 1.000000e+01
    endloop
  endfacet
  facet normal 1.000000e+00 0.000000e+00 0.000000e+00
    outer loop
      vertex -2.705980e-01 -1.432360e+00 3.000000e+00
      vertex -2.705980e-01 -1.423290e+00 3.000000e+00
      vertex -2.705980e-01 -1.432360e+00 1.000000e+01
    endloop
  endfacet
  facet normal 4.275580e-01 9.039879e-01 0.000000e+00
    outer loop
      vertex -3.826830e-01 -3.550710e+00 1.000000e+01
      vertex -3.826830e-01 -3.550710e+00 3.000000e+00
      vertex -3.826880e-01 -3.550710e+00 1.000000e+01
    endloop
  endfacet
  facet normal 4.275580e-01 9.039879e-01 0.000000e+00
    outer loop
      vertex -3.826880e-01 -3.550710e+00 1.000000e+01
      vertex -3.826830e-01 -3.550710e+00 3.000000e+00
      vertex -3.826880e-01 -3.550710e+00 3.000000e+00
    endloop
  endfacet
  facet normal -3.826829e-01 9.238797e-01 0.000000e+00
    outer loop
      vertex 1.200000e+01 1.261340e+00 1.000000e+01
      vertex 1.200000e+01 1.261340e+00 3.000000e+00
      vertex 3.826880e-01 -3.550710e+00 1.000000e+01
    endloop
  endfacet
  facet normal -3.826829e-01 9.238797e-01 0.000000e+00
    outer loop
      vertex 3.826880e-01 -3.550710e+00 1.000000e+01
      vertex 1.200000e+01 1.261340e+00 3.000000e+00
      vertex 3.826880e-01 -3.550710e+00 3.000000e+00
    endloop
  endfacet
  facet normal -4.275580e-01 9.039879e-01 0.000000e+00
    outer loop
      vertex 3.826880e-01 -3.550710e+00 1.000000e+01
      vertex 3.826880e-01 -3.550710e+00 3.000000e+00
      vertex 3.826830e-01 -3.550710e+00 1.000000e+01
    endloop
  endfacet
  facet normal -4.275580e-01 9.039879e-01 0.000000e+00
    outer loop
      vertex 3.826830e-01 -3.550710e+00 1.000000e+01
      vertex 3.826880e-01 -3.550710e+00 3.000000e+00
      vertex 3.826830e-01 -3.550710e+00 3.000000e+00
    endloop
  endfacet
  facet normal -3.368849e-01 9.415458e-01 0.000000e+00
    outer loop
      vertex 3.826830e-01 -3.550710e+00 1.000000e+01
      vertex 3.826830e-01 -3.550710e+00 3.000000e+00
      vertex 2.902850e-01 -3.583770e+00 1.000000e+01
    endloop
  endfacet
  facet normal -3.368849e-01 9.415458e-01 0.000000e+00
    outer loop
      vertex 2.902850e-01 -3.583770e+00 1.000000e+01
      vertex 3.826830e-01 -3.550710e+00 3.000000e+00
      vertex 2.902850e-01 -3.583770e+00 3.000000e+00
    endloop
  endfacet
  facet normal -2.429789e-01 9.700316e-01 0.000000e+00
    outer loop
      vertex 2.902850e-01 -3.583770e+00 1.000000e+01
      vertex 2.902850e-01 -3.583770e+00 3.000000e+00
      vertex 1.950900e-01 -3.607620e+00 1.000000e+01
    endloop
  endfacet
  facet normal -2.429789e-01 9.700316e-01 0.000000e+00
    outer loop
      vertex 1.950900e-01 -3.607620e+00 1.000000e+01
      vertex 2.902850e-01 -3.583770e+00 3.000000e+00
      vertex 1.950900e-01 -3.607620e+00 3.000000e+00
    endloop
  endfacet
  facet normal -1.467360e-01 9.891757e-01 0.000000e+00
    outer loop
      vertex 1.950900e-01 -3.607620e+00 1.000000e+01
      vertex 1.950900e-01 -3.607620e+00 3.000000e+00
      vertex 9.801700e-02 -3.622020e+00 1.000000e+01
    endloop
  endfacet
  facet normal -1.467360e-01 9.891757e-01 0.000000e+00
    outer loop
      vertex 9.801700e-02 -3.622020e+00 1.000000e+01
      vertex 1.950900e-01 -3.607620e+00 3.000000e+00
      vertex 9.801700e-02 -3.622020e+00 3.000000e+00
    endloop
  endfacet
  facet normal -4.906498e-02 9.987956e-01 0.000000e+00
    outer loop
      vertex 9.801700e-02 -3.622020e+00 1.000000e+01
      vertex 9.801700e-02 -3.622020e+00 3.000000e+00
      vertex 0.000000e+00 -3.626830e+00 1.000000e+01
    endloop
  endfacet
  facet normal -4.906498e-02 9.987956e-01 0.000000e+00
    outer loop
      vertex 0.000000e+00 -3.626830e+00 1.000000e+01
      vertex 9.801700e-02 -3.622020e+00 3.000000e+00
      vertex 0.000000e+00 -3.626830e+00 3.000000e+00
    endloop
  endfacet
  facet normal 4.906498e-02 9.987956e-01 0.000000e+00
    outer loop
      vertex 0.000000e+00 -3.626830e+00 1.000000e+01
      vertex 0.000000e+00 -3.626830e+00 3.000000e+00
      vertex -9.801700e-02 -3.622020e+00 1.000000e+01
    endloop
  endfacet
  facet normal 4.906498e-02 9.987956e-01 0.000000e+00
    outer loop
      vertex -9.801700e-02 -3.622020e+00 1.000000e+01
      vertex 0.000000e+00 -3.626830e+00 3.000000e+00
      vertex -9.801700e-02 -3.622020e+00 3.000000e+00
    endloop
  endfacet
  facet normal 1.467360e-01 9.891757e-01 0.000000e+00
    outer loop
      vertex -9.801700e-02 -3.622020e+00 1.000000e+01
      vertex -9.801700e-02 -3.622020e+00 3.000000e+00
      vertex -1.950900e-01 -3.607620e+00 1.000000e+01
    endloop
  endfacet
  facet normal 1.467360e-01 9.891757e-01 0.000000e+00
    outer loop
      vertex -1.950900e-01 -3.607620e+00 1.000000e+01
      vertex -9.801700e-02 -3.622020e+00 3.000000e+00
      vertex -1.950900e-01 -3.607620e+00 3.000000e+00
    endloop
  endfacet
  facet normal 2.429789e-01 9.700316e-01 0.000000e+00
    outer loop
      vertex -1.950900e-01 -3.607620e+00 1.000000e+01
      vertex -1.950900e-01 -3.607620e+00 3.000000e+00
      vertex -2.902850e-01 -3.583770e+00 1.000000e+01
    endloop
  endfacet
  facet normal 2.429789e-01 9.700316e-01 0.000000e+00
    outer loop
      vertex -2.902850e-01 -3.583770e+00 1.000000e+01
      vertex -1.950900e-01 -3.607620e+00 3.000000e+00
      vertex -2.902850e-01 -3.583770e+00 3.000000e+00
    endloop
  endfacet
  facet normal 3.368849e-01 9.415458e-01 0.000000e+00
    outer loop
      vertex -2.902850e-01 -3.583770e+00 1.000000e+01
      vertex -2.902850e-01 -3.583770e+00 3.000000e+00
      vertex -3.826830e-01 -3.550710e+00 1.000000e+01
    endloop
  endfacet
  facet normal 3.368849e-01 9.415458e-01 0.000000e+00
    outer loop
      vertex -3.826830e-01 -3.550710e+00 1.000000e+01
      vertex -2.902850e-01 -3.583770e+00 3.000000e+00
      vertex -3.826830e-01 -3.550710e+00 3.000000e+00
    endloop
  endfacet
endsolid Default
