solid Default
  facet normal -1.000000e+00 0.000000e+00 0.000000e+00
    outer loop
      vertex -7.000000e+00 -1.000000e+01 1.000000e+01
      vertex -7.000000e+00 -1.000000e+01 0.000000e+00
      vertex -7.000000e+00 -1.278680e+01 1.000000e+01
    endloop
  endfacet
  facet normal -1.000000e+00 0.000000e+00 0.000000e+00
    outer loop
      vertex -7.000000e+00 -1.278680e+01 3.000000e+00
      vertex -7.000000e+00 -1.000000e+01 0.000000e+00
      vertex -7.000000e+00 -1.700000e+01 0.000000e+00
    endloop
  endfacet
  facet normal -1.000000e+00 -0.000000e+00 0.000000e+00
    outer loop
      vertex -7.000000e+00 -1.278680e+01 1.000000e+01
      vertex -7.000000e+00 -1.000000e+01 0.000000e+00
      vertex -7.000000e+00 -1.278680e+01 3.000000e+00
    endloop
  endfacet
  facet normal -1.000000e+00 0.000000e+00 -0.000000e+00
    outer loop
      vertex -7.000000e+00 -1.278680e+01 3.000000e+00
      vertex -7.000000e+00 -1.700000e+01 0.000000e+00
      vertex -7.000000e+00 -1.700000e+01 3.000000e+00
    endloop
  endfacet
  facet normal 0.000000e+00 1.000000e+00 -1.224647e-16
    outer loop
      vertex -7.000000e+00 -1.000000e+01 0.000000e+00
      vertex -7.000000e+00 -1.000000e+01 1.000000e+01
      vertex -4.213200e+00 -1.000000e+01 1.000000e+01
    endloop
  endfacet
  facet normal 0.000000e+00 1.000000e+00 -1.224647e-16
    outer loop
      vertex 4.213200e+00 -1.000000e+01 3.000000e+00
      vertex -7.000000e+00 -1.000000e+01 0.000000e+00
      vertex -4.213200e+00 -1.000000e+01 3.000000e+00
    endloop
  endfacet
  facet normal 0.000000e+00 1.000000e+00 -1.224647e-16
    outer loop
      vertex -4.213200e+00 -1.000000e+01 3.000000e+00
      vertex -7.000000e+00 -1.000000e+01 0.000000e+00
      vertex -4.213200e+00 -1.000000e+01 1.000000e+01
    endloop
  endfacet
  facet normal 0.000000e+00 1.000000e+00 -1.224647e-16
    outer loop
      vertex 7.000000e+00 -1.000000e+01 0.000000e+00
      vertex -7.000000e+00 -1.000000e+01 0.000000e+00
      vertex 4.213200e+00 -1.000000e+01 3.000000e+00
    endloop
  endfacet
  facet normal 0.000000e+00 1.000000e+00 -1.224647e-16
    outer loop
      vertex 7.000000e+00 -1.000000e+01 1.000000e+01
      vertex 4.213200e+00 -1.000000e+01 3.000000e+00
      vertex 4.213200e+00 -1.000000e+01 1.000000e+01
    endloop
  endfacet
  facet normal 0.000000e+00 1.000000e+00 -1.224647e-16
    outer loop
      vertex 7.000000e+00 -1.000000e+01 0.000000e+00
      vertex 4.213200e+00 -1.000000e+01 3.000000e+00
      vertex 7.000000e+00 -1.000000e+01 1.000000e+01
    endloop
  endfacet
  facet normal 0.000000e+00 1.224647e-16 1.000000e+00
    outer loop
      vertex -4.213200e+00 -1.000000e+01 1.000000e+01
      vertex -7.000000e+00 -1.000000e+01 1.000000e+01
      vertex -7.000000e+00 -1.278680e+01 1.000000e+01
    endloop
  endfacet
  facet normal 7.071068e-01 -7.071068e-01 8.659561e-17
    outer loop
      vertex -4.213200e+00 -1.000000e+01 3.000000e+00
      vertex -4.213200e+00 -1.000000e+01 1.000000e+01
      vertex -7.000000e+00 -1.278680e+01 3.000000e+00
    endloop
  endfacet
  facet normal 7.071068e-01 -7.071068e-01 8.659561e-17
    outer loop
      vertex -7.000000e+00 -1.278680e+01 3.000000e+00
      vertex -4.213200e+00 -1.000000e+01 1.000000e+01
      vertex -7.000000e+00 -1.278680e+01 1.000000e+01
    endloop
  endfacet
  facet normal 0.000000e+00 1.224647e-16 1.000000e+00
    outer loop
      vertex -6.970560e+00 -1.700000e+01 3.000000e+00
      vertex -7.071070e-01 -1.073650e+01 3.000000e+00
      vertex -7.000000e+00 -1.700000e+01 3.000000e+00
    endloop
  endfacet
  facet normal 0.000000e+00 1.224647e-16 1.000000e+00
    outer loop
      vertex -7.000000e+00 -1.700000e+01 3.000000e+00
      vertex -7.071070e-01 -1.073650e+01 3.000000e+00
      vertex -4.213200e+00 -1.000000e+01 3.000000e+00
    endloop
  endfacet
  facet normal 0.000000e+00 1.224647e-16 1.000000e+00
    outer loop
      vertex -7.071070e-01 -1.073650e+01 3.000000e+00
      vertex -3.826840e-01 -1.051980e+01 3.000000e+00
      vertex -4.213200e+00 -1.000000e+01 3.000000e+00
    endloop
  endfacet
  facet normal 0.000000e+00 1.224647e-16 1.000000e+00
    outer loop
      vertex -4.213200e+00 -1.000000e+01 3.000000e+00
      vertex 2.599500e-15 -1.044370e+01 3.000000e+00
      vertex 4.213200e+00 -1.000000e+01 3.000000e+00
    endloop
  endfacet
  facet normal 0.000000e+00 1.224647e-16 1.000000e+00
    outer loop
      vertex 4.213200e+00 -1.000000e+01 3.000000e+00
      vertex 3.826840e-01 -1.051980e+01 3.000000e+00
      vertex 7.000000e+00 -1.278680e+01 3.000000e+00
    endloop
  endfacet
  facet normal 0.000000e+00 1.224647e-16 1.000000e+00
    outer loop
      vertex 7.000000e+00 -1.700000e+01 3.000000e+00
      vertex 7.071070e-01 -1.073650e+01 3.000000e+00
      vertex 6.970560e+00 -1.700000e+01 3.000000e+00
    endloop
  endfacet
  facet normal 0.000000e+00 1.224647e-16 1.000000e+00
    outer loop
      vertex 7.000000e+00 -1.278680e+01 3.000000e+00
      vertex 7.071070e-01 -1.073650e+01 3.000000e+00
      vertex 7.000000e+00 -1.700000e+01 3.000000e+00
    endloop
  endfacet
  facet normal 0.000000e+00 1.224647e-16 1.000000e+00
    outer loop
      vertex 3.826840e-01 -1.051980e+01 3.000000e+00
      vertex 7.071070e-01 -1.073650e+01 3.000000e+00
      vertex 7.000000e+00 -1.278680e+01 3.000000e+00
    endloop
  endfacet
  facet normal 0.000000e+00 1.224647e-16 1.000000e+00
    outer loop
      vertex 2.599500e-15 -1.044370e+01 3.000000e+00
      vertex 3.826840e-01 -1.051980e+01 3.000000e+00
      vertex 4.213200e+00 -1.000000e+01 3.000000e+00
    endloop
  endfacet
  facet normal 0.000000e+00 1.224647e-16 1.000000e+00
    outer loop
      vertex -3.826840e-01 -1.051980e+01 3.000000e+00
      vertex 2.599500e-15 -1.044370e+01 3.000000e+00
      vertex -4.213200e+00 -1.000000e+01 3.000000e+00
    endloop
  endfacet
  facet normal 0.000000e+00 1.224647e-16 1.000000e+00
    outer loop
      vertex -7.000000e+00 -1.700000e+01 3.000000e+00
      vertex -4.213200e+00 -1.000000e+01 3.000000e+00
      vertex -7.000000e+00 -1.278680e+01 3.000000e+00
    endloop
  endfacet
  facet normal 0.000000e+00 -1.000000e+00 1.224647e-16
    outer loop
      vertex -7.000000e+00 -1.700000e+01 3.000000e+00
      vertex -7.000000e+00 -1.700000e+01 0.000000e+00
      vertex -6.970560e+00 -1.700000e+01 3.000000e+00
    endloop
  endfacet
  facet normal 0.000000e+00 -1.000000e+00 1.224647e-16
    outer loop
      vertex -6.970560e+00 -1.700000e+01 3.000000e+00
      vertex -7.000000e+00 -1.700000e+01 0.000000e+00
      vertex 7.000000e+00 -1.700000e+01 0.000000e+00
    endloop
  endfacet
  facet normal 0.000000e+00 -1.000000e+00 1.224647e-16
    outer loop
      vertex 6.970560e+00 -1.700000e+01 3.000000e+00
      vertex 7.000000e+00 -1.700000e+01 0.000000e+00
      vertex 7.000000e+00 -1.700000e+01 3.000000e+00
    endloop
  endfacet
  facet normal 0.000000e+00 -1.000000e+00 1.224647e-16
    outer loop
      vertex -6.970560e+00 -1.700000e+01 3.000000e+00
      vertex 7.000000e+00 -1.700000e+01 0.000000e+00
      vertex 6.970560e+00 -1.700000e+01 3.000000e+00
    endloop
  endfacet
  facet normal 0.000000e+00 -1.000000e+00 1.224647e-16
    outer loop
      vertex 6.970560e+00 -1.700000e+01 3.000000e+00
      vertex 6.970560e+00 -1.700000e+01 1.000000e+01
      vertex -6.970560e+00 -1.700000e+01 3.000000e+00
    endloop
  endfacet
  facet normal 0.000000e+00 -1.000000e+00 1.224647e-16
    outer loop
      vertex -6.970560e+00 -1.700000e+01 3.000000e+00
      vertex 6.970560e+00 -1.700000e+01 1.000000e+01
      vertex -6.970560e+00 -1.700000e+01 1.000000e+01
    endloop
  endfacet
  facet normal 0.000000e+00 -1.224647e-16 -1.000000e+00
    outer loop
      vertex -7.000000e+00 -1.700000e+01 0.000000e+00
      vertex -7.000000e+00 -1.000000e+01 0.000000e+00
      vertex 7.000000e+00 -1.000000e+01 0.000000e+00
    endloop
  endfacet
  facet normal 0.000000e+00 -1.224647e-16 -1.000000e+00
    outer loop
      vertex 7.000000e+00 -1.700000e+01 0.000000e+00
      vertex -7.000000e+00 -1.700000e+01 0.000000e+00
      vertex 7.000000e+00 -1.000000e+01 0.000000e+00
    endloop
  endfacet
  facet normal 1.000000e+00 0.000000e+00 0.000000e+00
    outer loop
      vertex 7.000000e+00 -1.000000e+01 0.000000e+00
      vertex 7.000000e+00 -1.000000e+01 1.000000e+01
      vertex 7.000000e+00 -1.278680e+01 1.000000e+01
    endloop
  endfacet
  facet normal 1.000000e+00 0.000000e+00 0.000000e+00
    outer loop
      vertex 7.000000e+00 -1.700000e+01 3.000000e+00
      vertex 7.000000e+00 -1.000000e+01 0.000000e+00
      vertex 7.000000e+00 -1.278680e+01 3.000000e+00
    endloop
  endfacet
  facet normal 1.000000e+00 0.000000e+00 0.000000e+00
    outer loop
      vertex 7.000000e+00 -1.278680e+01 3.000000e+00
      vertex 7.000000e+00 -1.000000e+01 0.000000e+00
      vertex 7.000000e+00 -1.278680e+01 1.000000e+01
    endloop
  endfacet
  facet normal 1.000000e+00 0.000000e+00 0.000000e+00
    outer loop
      vertex 7.000000e+00 -1.700000e+01 0.000000e+00
      vertex 7.000000e+00 -1.000000e+01 0.000000e+00
      vertex 7.000000e+00 -1.700000e+01 3.000000e+00
    endloop
  endfacet
  facet normal 0.000000e+00 1.224647e-16 1.000000e+00
    outer loop
      vertex 7.000000e+00 -1.000000e+01 1.000000e+01
      vertex 4.213200e+00 -1.000000e+01 1.000000e+01
      vertex 7.000000e+00 -1.278680e+01 1.000000e+01
    endloop
  endfacet
  facet normal -7.071068e-01 -7.071068e-01 8.659561e-17
    outer loop
      vertex 7.000000e+00 -1.278680e+01 3.000000e+00
      vertex 7.000000e+00 -1.278680e+01 1.000000e+01
      vertex 4.213200e+00 -1.000000e+01 3.000000e+00
    endloop
  endfacet
  facet normal -7.071068e-01 -7.071068e-01 8.659561e-17
    outer loop
      vertex 4.213200e+00 -1.000000e+01 3.000000e+00
      vertex 7.000000e+00 -1.278680e+01 1.000000e+01
      vertex 4.213200e+00 -1.000000e+01 1.000000e+01
    endloop
  endfacet
  facet normal 7.071068e-01 7.071068e-01 -8.659561e-17
    outer loop
      vertex 7.071070e-01 -1.073650e+01 3.000000e+00
      vertex 7.071070e-01 -1.073650e+01 1.000000e+01
      vertex 6.970560e+00 -1.700000e+01 1.000000e+01
    endloop
  endfacet
  facet normal 7.071068e-01 7.071068e-01 -8.659561e-17
    outer loop
      vertex 6.970560e+00 -1.700000e+01 3.000000e+00
      vertex 7.071070e-01 -1.073650e+01 3.000000e+00
      vertex 6.970560e+00 -1.700000e+01 1.000000e+01
    endloop
  endfacet
  facet normal 5.555711e-01 8.314691e-01 -1.018256e-16
    outer loop
      vertex 3.826840e-01 -1.051980e+01 3.000000e+00
      vertex 3.826840e-01 -1.051980e+01 1.000000e+01
      vertex 7.071070e-01 -1.073650e+01 1.000000e+01
    endloop
  endfacet
  facet normal 5.555711e-01 8.314691e-01 -1.018256e-16
    outer loop
      vertex 7.071070e-01 -1.073650e+01 3.000000e+00
      vertex 3.826840e-01 -1.051980e+01 3.000000e+00
      vertex 7.071070e-01 -1.073650e+01 1.000000e+01
    endloop
  endfacet
  facet normal 1.950910e-01 9.807851e-01 -1.201115e-16
    outer loop
      vertex 2.599500e-15 -1.044370e+01 3.000000e+00
      vertex 2.599500e-15 -1.044370e+01 1.000000e+01
      vertex 3.826840e-01 -1.051980e+01 1.000000e+01
    endloop
  endfacet
  facet normal 1.950910e-01 9.807851e-01 -1.201115e-16
    outer loop
      vertex 3.826840e-01 -1.051980e+01 3.000000e+00
      vertex 2.599500e-15 -1.044370e+01 3.000000e+00
      vertex 3.826840e-01 -1.051980e+01 1.000000e+01
    endloop
  endfacet
  facet normal -1.950910e-01 9.807851e-01 -1.201115e-16
    outer loop
      vertex -3.826840e-01 -1.051980e+01 3.000000e+00
      vertex -3.826840e-01 -1.051980e+01 1.000000e+01
      vertex 2.599500e-15 -1.044370e+01 1.000000e+01
    endloop
  endfacet
  facet normal -1.950910e-01 9.807851e-01 -1.201115e-16
    outer loop
      vertex 2.599500e-15 -1.044370e+01 3.000000e+00
      vertex -3.826840e-01 -1.051980e+01 3.000000e+00
      vertex 2.599500e-15 -1.044370e+01 1.000000e+01
    endloop
  endfacet
  facet normal -5.555711e-01 8.314691e-01 -1.018256e-16
    outer loop
      vertex -7.071070e-01 -1.073650e+01 3.000000e+00
      vertex -7.071070e-01 -1.073650e+01 1.000000e+01
      vertex -3.826840e-01 -1.051980e+01 1.000000e+01
    endloop
  endfacet
  facet normal -5.555711e-01 8.314691e-01 -1.018256e-16
    outer loop
      vertex -3.826840e-01 -1.051980e+01 3.000000e+00
      vertex -7.071070e-01 -1.073650e+01 3.000000e+00
      vertex -3.826840e-01 -1.051980e+01 1.000000e+01
    endloop
  endfacet
  facet normal -7.071068e-01 7.071068e-01 -8.659561e-17
    outer loop
      vertex -6.970560e+00 -1.700000e+01 3.000000e+00
      vertex -6.970560e+00 -1.700000e+01 1.000000e+01
      vertex -7.071070e-01 -1.073650e+01 1.000000e+01
    endloop
  endfacet
  facet normal -7.071068e-01 7.071068e-01 -8.659561e-17
    outer loop
      vertex -7.071070e-01 -1.073650e+01 3.000000e+00
      vertex -6.970560e+00 -1.700000e+01 3.000000e+00
      vertex -7.071070e-01 -1.073650e+01 1.000000e+01
    endloop
  endfacet
  facet normal 0.000000e+00 1.224647e-16 1.000000e+00
    outer loop
      vertex -6.970560e+00 -1.700000e+01 1.000000e+01
      vertex 6.970560e+00 -1.700000e+01 1.000000e+01
      vertex -7.071070e-01 -1.073650e+01 1.000000e+01
    endloop
  endfacet
  facet normal 0.000000e+00 1.224647e-16 1.000000e+00
    outer loop
      vertex -7.071070e-01 -1.073650e+01 1.000000e+01
      vertex 6.970560e+00 -1.700000e+01 1.000000e+01
      vertex 7.071070e-01 -1.073650e+01 1.000000e+01
    endloop
  endfacet
  facet normal 0.000000e+00 1.224647e-16 1.000000e+00
    outer loop
      vertex -7.071070e-01 -1.073650e+01 1.000000e+01
      vertex 7.071070e-01 -1.073650e+01 1.000000e+01
      vertex 3.826840e-01 -1.051980e+01 1.000000e+01
    endloop
  endfacet
  facet normal 0.000000e+00 1.224647e-16 1.000000e+00
    outer loop
      vertex -7.071070e-01 -1.073650e+01 1.000000e+01
      vertex 3.826840e-01 -1.051980e+01 1.000000e+01
      vertex 2.599500e-15 -1.044370e+01 1.000000e+01
    endloop
  endfacet
  facet normal 0.000000e+00 1.224647e-16 1.000000e+00
    outer loop
      vertex -7.071070e-01 -1.073650e+01 1.000000e+01
      vertex 2.599500e-15 -1.044370e+01 1.000000e+01
      vertex -3.826840e-01 -1.051980e+01 1.000000e+01
    endloop
  endfacet
endsolid Default
