solid Default
  facet normal -1.000000e+00 0.000000e+00 0.000000e+00
    outer loop
      vertex -4.145335e+01 2.598690e+01 1.700000e+01
      vertex -4.145335e+01 2.598690e+01 0.000000e+00
      vertex -4.145335e+01 -2.595480e+01 1.700000e+01
    endloop
  endfacet
  facet normal -1.000000e+00 -0.000000e+00 0.000000e+00
    outer loop
      vertex -4.145335e+01 -2.595480e+01 1.700000e+01
      vertex -4.145335e+01 2.598690e+01 0.000000e+00
      vertex -4.145335e+01 -2.595480e+01 7.105427e-15
    endloop
  endfacet
  facet normal -7.289689e-01 6.845468e-01 -8.383281e-17
    outer loop
      vertex -4.145335e+01 2.598690e+01 1.700000e+01
      vertex -4.064035e+01 2.685260e+01 1.700000e+01
      vertex -4.145335e+01 2.598690e+01 0.000000e+00
    endloop
  endfacet
  facet normal -7.289689e-01 6.845468e-01 -8.383281e-17
    outer loop
      vertex -4.145335e+01 2.598690e+01 0.000000e+00
      vertex -4.064035e+01 2.685260e+01 1.700000e+01
      vertex -4.064035e+01 2.685260e+01 0.000000e+00
    endloop
  endfacet
  facet normal -0.000000e+00 1.224647e-16 1.000000e+00
    outer loop
      vertex -4.145335e+01 2.598690e+01 1.700000e+01
      vertex -4.145335e+01 -2.595480e+01 1.700000e+01
      vertex -4.064035e+01 2.685260e+01 1.700000e+01
    endloop
  endfacet
  facet normal 0.000000e+00 1.224647e-16 1.000000e+00
    outer loop
      vertex -4.064035e+01 2.685260e+01 1.700000e+01
      vertex -4.145335e+01 -2.595480e+01 1.700000e+01
      vertex -4.130635e+01 -2.618710e+01 1.700000e+01
    endloop
  endfacet
  facet normal 0.000000e+00 1.224647e-16 1.000000e+00
    outer loop
      vertex -4.064035e+01 2.685260e+01 1.700000e+01
      vertex -4.130635e+01 -2.618710e+01 1.700000e+01
      vertex -4.039235e+01 -2.704510e+01 1.700000e+01
    endloop
  endfacet
  facet normal 0.000000e+00 1.224647e-16 1.000000e+00
    outer loop
      vertex -4.064035e+01 2.685260e+01 1.700000e+01
      vertex -4.039235e+01 -2.704510e+01 1.700000e+01
      vertex -3.956434e+01 -2.750000e+01 1.700000e+01
    endloop
  endfacet
  facet normal 0.000000e+00 1.224647e-16 1.000000e+00
    outer loop
      vertex -4.064035e+01 2.685260e+01 1.700000e+01
      vertex -3.956434e+01 -2.750000e+01 1.700000e+01
      vertex 1.854665e+01 -2.750000e+01 1.700000e+01
    endloop
  endfacet
  facet normal 0.000000e+00 1.224647e-16 1.000000e+00
    outer loop
      vertex 1.625565e+01 -1.708990e+01 1.700000e+01
      vertex 1.854665e+01 -2.750000e+01 1.700000e+01
      vertex 1.854665e+01 -1.479900e+01 1.700000e+01
    endloop
  endfacet
  facet normal 0.000000e+00 1.224647e-16 1.000000e+00
    outer loop
      vertex 1.553265e+01 -1.751770e+01 1.700000e+01
      vertex 1.854665e+01 -2.750000e+01 1.700000e+01
      vertex 1.625565e+01 -1.708990e+01 1.700000e+01
    endloop
  endfacet
  facet normal 0.000000e+00 1.224647e-16 1.000000e+00
    outer loop
      vertex 1.432865e+01 -1.786740e+01 1.700000e+01
      vertex 1.854665e+01 -2.750000e+01 1.700000e+01
      vertex 1.553265e+01 -1.751770e+01 1.700000e+01
    endloop
  endfacet
  facet normal 0.000000e+00 1.224647e-16 1.000000e+00
    outer loop
      vertex 1.307565e+01 -1.790670e+01 1.700000e+01
      vertex 1.854665e+01 -2.750000e+01 1.700000e+01
      vertex 1.432865e+01 -1.786740e+01 1.700000e+01
    endloop
  endfacet
  facet normal 0.000000e+00 1.224647e-16 1.000000e+00
    outer loop
      vertex 1.185265e+01 -1.763330e+01 1.700000e+01
      vertex 1.854665e+01 -2.750000e+01 1.700000e+01
      vertex 1.307565e+01 -1.790670e+01 1.700000e+01
    endloop
  endfacet
  facet normal 0.000000e+00 1.224647e-16 1.000000e+00
    outer loop
      vertex 1.089065e+01 -1.714300e+01 1.700000e+01
      vertex 1.854665e+01 -2.750000e+01 1.700000e+01
      vertex 1.185265e+01 -1.763330e+01 1.700000e+01
    endloop
  endfacet
  facet normal 0.000000e+00 1.224647e-16 1.000000e+00
    outer loop
      vertex -4.064035e+01 2.685260e+01 1.700000e+01
      vertex 1.854665e+01 -2.750000e+01 1.700000e+01
      vertex 1.089065e+01 -1.714300e+01 1.700000e+01
    endloop
  endfacet
  facet normal 0.000000e+00 1.224647e-16 1.000000e+00
    outer loop
      vertex -3.971348e+00 -1.985740e+00 1.700000e+01
      vertex -4.064035e+01 2.685260e+01 1.700000e+01
      vertex -3.543346e+00 -2.709050e+00 1.700000e+01
    endloop
  endfacet
  facet normal 0.000000e+00 1.224647e-16 1.000000e+00
    outer loop
      vertex -4.320347e+00 -7.821730e-01 1.700000e+01
      vertex -4.064035e+01 2.685260e+01 1.700000e+01
      vertex -3.971348e+00 -1.985740e+00 1.700000e+01
    endloop
  endfacet
  facet normal 0.000000e+00 1.224647e-16 1.000000e+00
    outer loop
      vertex -4.086353e+00 1.693690e+00 1.700000e+01
      vertex -4.064035e+01 2.685260e+01 1.700000e+01
      vertex -4.360348e+00 4.705410e-01 1.700000e+01
    endloop
  endfacet
  facet normal 0.000000e+00 1.224647e-16 1.000000e+00
    outer loop
      vertex -4.064035e+01 2.685260e+01 1.700000e+01
      vertex -4.320347e+00 -7.821730e-01 1.700000e+01
      vertex -4.360348e+00 4.705410e-01 1.700000e+01
    endloop
  endfacet
  facet normal 0.000000e+00 1.224647e-16 1.000000e+00
    outer loop
      vertex -4.064035e+01 2.685260e+01 1.700000e+01
      vertex -4.086353e+00 1.693690e+00 1.700000e+01
      vertex -3.596348e+00 2.655950e+00 1.700000e+01
    endloop
  endfacet
  facet normal 0.000000e+00 1.224647e-16 1.000000e+00
    outer loop
      vertex -3.596348e+00 2.655950e+00 1.700000e+01
      vertex 1.083765e+01 1.708990e+01 1.700000e+01
      vertex -4.064035e+01 2.685260e+01 1.700000e+01
    endloop
  endfacet
  facet normal 0.000000e+00 1.224647e-16 1.000000e+00
    outer loop
      vertex 1.083765e+01 1.708990e+01 1.700000e+01
      vertex 1.156065e+01 1.751770e+01 1.700000e+01
      vertex -4.064035e+01 2.685260e+01 1.700000e+01
    endloop
  endfacet
  facet normal 0.000000e+00 1.224647e-16 1.000000e+00
    outer loop
      vertex 1.156065e+01 1.751770e+01 1.700000e+01
      vertex 1.276465e+01 1.786740e+01 1.700000e+01
      vertex -4.064035e+01 2.685260e+01 1.700000e+01
    endloop
  endfacet
  facet normal 0.000000e+00 1.224647e-16 1.000000e+00
    outer loop
      vertex 1.276465e+01 1.786740e+01 1.700000e+01
      vertex 1.401765e+01 1.790670e+01 1.700000e+01
      vertex -4.064035e+01 2.685260e+01 1.700000e+01
    endloop
  endfacet
  facet normal 0.000000e+00 1.224647e-16 1.000000e+00
    outer loop
      vertex 1.401765e+01 1.790670e+01 1.700000e+01
      vertex 1.854665e+01 2.750000e+01 1.700000e+01
      vertex -4.064035e+01 2.685260e+01 1.700000e+01
    endloop
  endfacet
  facet normal 0.000000e+00 1.224647e-16 1.000000e+00
    outer loop
      vertex 1.524065e+01 1.763330e+01 1.700000e+01
      vertex 1.854665e+01 2.750000e+01 1.700000e+01
      vertex 1.401765e+01 1.790670e+01 1.700000e+01
    endloop
  endfacet
  facet normal 0.000000e+00 1.224647e-16 1.000000e+00
    outer loop
      vertex 1.620265e+01 1.714300e+01 1.700000e+01
      vertex 1.854665e+01 1.479900e+01 1.700000e+01
      vertex 1.854665e+01 2.750000e+01 1.700000e+01
    endloop
  endfacet
  facet normal 0.000000e+00 1.224647e-16 1.000000e+00
    outer loop
      vertex 1.620265e+01 1.714300e+01 1.700000e+01
      vertex 1.854665e+01 2.750000e+01 1.700000e+01
      vertex 1.524065e+01 1.763330e+01 1.700000e+01
    endloop
  endfacet
  facet normal 0.000000e+00 1.224647e-16 1.000000e+00
    outer loop
      vertex -4.064035e+01 2.685260e+01 1.700000e+01
      vertex 1.854665e+01 2.750000e+01 1.700000e+01
      vertex -3.962036e+01 2.750000e+01 1.700000e+01
    endloop
  endfacet
  facet normal 0.000000e+00 1.224647e-16 1.000000e+00
    outer loop
      vertex -3.543346e+00 -2.709050e+00 1.700000e+01
      vertex -4.064035e+01 2.685260e+01 1.700000e+01
      vertex 1.089065e+01 -1.714300e+01 1.700000e+01
    endloop
  endfacet
  facet normal -8.443279e-01 -5.358269e-01 6.561987e-17
    outer loop
      vertex -4.145335e+01 -2.595480e+01 1.700000e+01
      vertex -4.145335e+01 -2.595480e+01 7.105427e-15
      vertex -4.130635e+01 -2.618710e+01 1.700000e+01
    endloop
  endfacet
  facet normal -8.443279e-01 -5.358269e-01 6.561987e-17
    outer loop
      vertex -4.130635e+01 -2.618710e+01 1.700000e+01
      vertex -4.145335e+01 -2.595480e+01 7.105427e-15
      vertex -4.130635e+01 -2.618710e+01 7.105427e-15
    endloop
  endfacet
  facet normal 0.000000e+00 -1.224647e-16 -1.000000e+00
    outer loop
      vertex -4.145335e+01 -2.595480e+01 7.105427e-15
      vertex -4.145335e+01 2.598690e+01 0.000000e+00
      vertex -4.064035e+01 2.685260e+01 0.000000e+00
    endloop
  endfacet
  facet normal 0.000000e+00 -1.224647e-16 -1.000000e+00
    outer loop
      vertex -2.369735e+01 1.941140e+00 3.552714e-15
      vertex -4.145335e+01 -2.595480e+01 7.105427e-15
      vertex -3.962036e+01 2.750000e+01 0.000000e+00
    endloop
  endfacet
  facet normal 0.000000e+00 -1.224647e-16 -1.000000e+00
    outer loop
      vertex -3.962036e+01 2.750000e+01 0.000000e+00
      vertex -4.145335e+01 -2.595480e+01 7.105427e-15
      vertex -4.064035e+01 2.685260e+01 0.000000e+00
    endloop
  endfacet
  facet normal 0.000000e+00 -1.224647e-16 -1.000000e+00
    outer loop
      vertex 2.156065e+01 1.751770e+01 0.000000e+00
      vertex 1.854665e+01 1.479900e+01 0.000000e+00
      vertex 2.083765e+01 1.708990e+01 0.000000e+00
    endloop
  endfacet
  facet normal 0.000000e+00 -1.224647e-16 -1.000000e+00
    outer loop
      vertex 2.276465e+01 1.786740e+01 0.000000e+00
      vertex 1.854665e+01 1.479900e+01 0.000000e+00
      vertex 2.156065e+01 1.751770e+01 0.000000e+00
    endloop
  endfacet
  facet normal 0.000000e+00 -1.224647e-16 -1.000000e+00
    outer loop
      vertex 2.401715e+01 1.790670e+01 0.000000e+00
      vertex 1.854665e+01 1.479900e+01 0.000000e+00
      vertex 2.276465e+01 1.786740e+01 0.000000e+00
    endloop
  endfacet
  facet normal 0.000000e+00 -1.224647e-16 -1.000000e+00
    outer loop
      vertex 2.524035e+01 1.763330e+01 0.000000e+00
      vertex -4.145335e+01 -2.595480e+01 7.105427e-15
      vertex 2.401715e+01 1.790670e+01 0.000000e+00
    endloop
  endfacet
  facet normal 0.000000e+00 -1.224647e-16 -1.000000e+00
    outer loop
      vertex 2.620265e+01 1.714300e+01 0.000000e+00
      vertex -4.145335e+01 -2.595480e+01 7.105427e-15
      vertex 2.524035e+01 1.763330e+01 0.000000e+00
    endloop
  endfacet
  facet normal 0.000000e+00 -1.224647e-16 -1.000000e+00
    outer loop
      vertex 4.063655e+01 2.709050e+00 3.552714e-15
      vertex -4.145335e+01 -2.595480e+01 7.105427e-15
      vertex 2.620265e+01 1.714300e+01 0.000000e+00
    endloop
  endfacet
  facet normal 0.000000e+00 -1.224647e-16 -1.000000e+00
    outer loop
      vertex 4.106435e+01 1.985740e+00 3.552714e-15
      vertex -4.145335e+01 -2.595480e+01 7.105427e-15
      vertex 4.063655e+01 2.709050e+00 3.552714e-15
    endloop
  endfacet
  facet normal 0.000000e+00 -1.224647e-16 -1.000000e+00
    outer loop
      vertex 4.141405e+01 7.821730e-01 3.552714e-15
      vertex -4.145335e+01 -2.595480e+01 7.105427e-15
      vertex 4.106435e+01 1.985740e+00 3.552714e-15
    endloop
  endfacet
  facet normal 0.000000e+00 -1.224647e-16 -1.000000e+00
    outer loop
      vertex 4.145335e+01 -4.705410e-01 3.552714e-15
      vertex -4.145335e+01 -2.595480e+01 7.105427e-15
      vertex 4.141405e+01 7.821730e-01 3.552714e-15
    endloop
  endfacet
  facet normal 0.000000e+00 -1.224647e-16 -1.000000e+00
    outer loop
      vertex 4.117995e+01 -1.693690e+00 3.552714e-15
      vertex -4.145335e+01 -2.595480e+01 7.105427e-15
      vertex 4.145335e+01 -4.705410e-01 3.552714e-15
    endloop
  endfacet
  facet normal 0.000000e+00 -1.224647e-16 -1.000000e+00
    outer loop
      vertex 4.068965e+01 -2.655950e+00 3.552714e-15
      vertex -4.145335e+01 -2.595480e+01 7.105427e-15
      vertex 4.117995e+01 -1.693690e+00 3.552714e-15
    endloop
  endfacet
  facet normal 0.000000e+00 -1.224647e-16 -1.000000e+00
    outer loop
      vertex 1.854665e+01 -1.479900e+01 7.105427e-15
      vertex -4.145335e+01 -2.595480e+01 7.105427e-15
      vertex 4.068965e+01 -2.655950e+00 3.552714e-15
    endloop
  endfacet
  facet normal 0.000000e+00 -1.224647e-16 -1.000000e+00
    outer loop
      vertex 2.432885e+01 -1.786740e+01 7.105427e-15
      vertex 2.307565e+01 -1.790670e+01 7.105427e-15
      vertex 2.553235e+01 -1.751770e+01 7.105427e-15
    endloop
  endfacet
  facet normal 0.000000e+00 -1.224647e-16 -1.000000e+00
    outer loop
      vertex 2.625565e+01 -1.708990e+01 7.105427e-15
      vertex 2.185265e+01 -1.763330e+01 7.105427e-15
      vertex 4.068965e+01 -2.655950e+00 3.552714e-15
    endloop
  endfacet
  facet normal 0.000000e+00 -1.224647e-16 -1.000000e+00
    outer loop
      vertex 2.185265e+01 -1.763330e+01 7.105427e-15
      vertex 2.089065e+01 -1.714300e+01 7.105427e-15
      vertex 4.068965e+01 -2.655950e+00 3.552714e-15
    endloop
  endfacet
  facet normal 0.000000e+00 -1.224647e-16 -1.000000e+00
    outer loop
      vertex 2.089065e+01 -1.714300e+01 7.105427e-15
      vertex 1.854665e+01 -1.479900e+01 7.105427e-15
      vertex 4.068965e+01 -2.655950e+00 3.552714e-15
    endloop
  endfacet
  facet normal 0.000000e+00 -1.224647e-16 -1.000000e+00
    outer loop
      vertex -3.956434e+01 -2.750000e+01 7.105427e-15
      vertex -4.145335e+01 -2.595480e+01 7.105427e-15
      vertex 1.854665e+01 -2.750000e+01 7.105427e-15
    endloop
  endfacet
  facet normal 0.000000e+00 -1.224647e-16 -1.000000e+00
    outer loop
      vertex -4.039235e+01 -2.704510e+01 7.105427e-15
      vertex -4.145335e+01 -2.595480e+01 7.105427e-15
      vertex -3.956434e+01 -2.750000e+01 7.105427e-15
    endloop
  endfacet
  facet normal 0.000000e+00 -1.224647e-16 -1.000000e+00
    outer loop
      vertex -4.130635e+01 -2.618710e+01 7.105427e-15
      vertex -4.145335e+01 -2.595480e+01 7.105427e-15
      vertex -4.039235e+01 -2.704510e+01 7.105427e-15
    endloop
  endfacet
  facet normal 0.000000e+00 -1.224647e-16 -1.000000e+00
    outer loop
      vertex -2.294835e+01 3.750000e+00 3.552714e-15
      vertex -2.369735e+01 1.941140e+00 3.552714e-15
      vertex -3.962036e+01 2.750000e+01 0.000000e+00
    endloop
  endfacet
  facet normal 0.000000e+00 -1.224647e-16 -1.000000e+00
    outer loop
      vertex -2.395335e+01 -2.081900e-15 3.552714e-15
      vertex -4.145335e+01 -2.595480e+01 7.105427e-15
      vertex -2.369735e+01 1.941140e+00 3.552714e-15
    endloop
  endfacet
  facet normal 0.000000e+00 -1.224647e-16 -1.000000e+00
    outer loop
      vertex -2.369735e+01 -1.941140e+00 3.552714e-15
      vertex -4.145335e+01 -2.595480e+01 7.105427e-15
      vertex -2.395335e+01 -2.081900e-15 3.552714e-15
    endloop
  endfacet
  facet normal 0.000000e+00 -1.224647e-16 -1.000000e+00
    outer loop
      vertex -2.294835e+01 -3.750000e+00 3.552714e-15
      vertex -4.145335e+01 -2.595480e+01 7.105427e-15
      vertex -2.369735e+01 -1.941140e+00 3.552714e-15
    endloop
  endfacet
  facet normal 0.000000e+00 -1.224647e-16 -1.000000e+00
    outer loop
      vertex -2.175634e+01 -5.303300e+00 3.552714e-15
      vertex -4.145335e+01 -2.595480e+01 7.105427e-15
      vertex -2.294835e+01 -3.750000e+00 3.552714e-15
    endloop
  endfacet
  facet normal 0.000000e+00 -1.224647e-16 -1.000000e+00
    outer loop
      vertex -1.115036e+01 5.303300e+00 3.552714e-15
      vertex -1.270335e+01 6.495190e+00 3.552714e-15
      vertex 1.854665e+01 2.750000e+01 0.000000e+00
    endloop
  endfacet
  facet normal 0.000000e+00 -1.224647e-16 -1.000000e+00
    outer loop
      vertex -2.020335e+01 -6.495190e+00 3.552714e-15
      vertex -4.145335e+01 -2.595480e+01 7.105427e-15
      vertex -2.175634e+01 -5.303300e+00 3.552714e-15
    endloop
  endfacet
  facet normal 0.000000e+00 -1.224647e-16 -1.000000e+00
    outer loop
      vertex -1.451236e+01 -7.244440e+00 3.552714e-15
      vertex -1.270335e+01 -6.495190e+00 3.552714e-15
      vertex -4.145335e+01 -2.595480e+01 7.105427e-15
    endloop
  endfacet
  facet normal 0.000000e+00 -1.224647e-16 -1.000000e+00
    outer loop
      vertex -9.209347e+00 1.941140e+00 3.552714e-15
      vertex -9.958355e+00 3.750000e+00 3.552714e-15
      vertex 1.854665e+01 2.750000e+01 0.000000e+00
    endloop
  endfacet
  facet normal 0.000000e+00 -1.224647e-16 -1.000000e+00
    outer loop
      vertex -1.645335e+01 -7.500000e+00 3.552714e-15
      vertex -4.145335e+01 -2.595480e+01 7.105427e-15
      vertex -1.839434e+01 -7.244440e+00 3.552714e-15
    endloop
  endfacet
  facet normal 0.000000e+00 -1.224647e-16 -1.000000e+00
    outer loop
      vertex -1.451236e+01 -7.244440e+00 3.552714e-15
      vertex -4.145335e+01 -2.595480e+01 7.105427e-15
      vertex -1.645335e+01 -7.500000e+00 3.552714e-15
    endloop
  endfacet
  facet normal 0.000000e+00 -1.224647e-16 -1.000000e+00
    outer loop
      vertex -9.958355e+00 3.750000e+00 3.552714e-15
      vertex -1.115036e+01 5.303300e+00 3.552714e-15
      vertex 1.854665e+01 2.750000e+01 0.000000e+00
    endloop
  endfacet
  facet normal 0.000000e+00 -1.224647e-16 -1.000000e+00
    outer loop
      vertex 2.401715e+01 1.790670e+01 0.000000e+00
      vertex -1.270335e+01 -6.495190e+00 3.552714e-15
      vertex 1.854665e+01 1.479900e+01 0.000000e+00
    endloop
  endfacet
  facet normal 0.000000e+00 -1.224647e-16 -1.000000e+00
    outer loop
      vertex 2.401715e+01 1.790670e+01 0.000000e+00
      vertex -4.145335e+01 -2.595480e+01 7.105427e-15
      vertex -1.270335e+01 -6.495190e+00 3.552714e-15
    endloop
  endfacet
  facet normal 0.000000e+00 -1.224647e-16 -1.000000e+00
    outer loop
      vertex -9.958355e+00 -3.750000e+00 3.552714e-15
      vertex -9.209347e+00 -1.941140e+00 3.552714e-15
      vertex 1.854665e+01 1.479900e+01 0.000000e+00
    endloop
  endfacet
  facet normal 0.000000e+00 -1.224647e-16 -1.000000e+00
    outer loop
      vertex -1.115036e+01 -5.303300e+00 3.552714e-15
      vertex -9.958355e+00 -3.750000e+00 3.552714e-15
      vertex 1.854665e+01 1.479900e+01 0.000000e+00
    endloop
  endfacet
  facet normal 0.000000e+00 -1.224647e-16 -1.000000e+00
    outer loop
      vertex -9.209347e+00 -1.941140e+00 3.552714e-15
      vertex -8.953350e+00 -2.081900e-15 3.552714e-15
      vertex 1.854665e+01 1.479900e+01 0.000000e+00
    endloop
  endfacet
  facet normal 0.000000e+00 -1.224647e-16 -1.000000e+00
    outer loop
      vertex -8.953350e+00 -2.081900e-15 3.552714e-15
      vertex -9.209347e+00 1.941140e+00 3.552714e-15
      vertex 1.854665e+01 2.750000e+01 0.000000e+00
    endloop
  endfacet
  facet normal 0.000000e+00 -1.224647e-16 -1.000000e+00
    outer loop
      vertex 1.854665e+01 1.479900e+01 0.000000e+00
      vertex -8.953350e+00 -2.081900e-15 3.552714e-15
      vertex 1.854665e+01 2.750000e+01 0.000000e+00
    endloop
  endfacet
  facet normal 0.000000e+00 -1.224647e-16 -1.000000e+00
    outer loop
      vertex -1.270335e+01 -6.495190e+00 3.552714e-15
      vertex -1.115036e+01 -5.303300e+00 3.552714e-15
      vertex 1.854665e+01 1.479900e+01 0.000000e+00
    endloop
  endfacet
  facet normal 0.000000e+00 -1.224647e-16 -1.000000e+00
    outer loop
      vertex -1.270335e+01 6.495190e+00 3.552714e-15
      vertex -1.451236e+01 7.244440e+00 3.552714e-15
      vertex 1.854665e+01 2.750000e+01 0.000000e+00
    endloop
  endfacet
  facet normal 0.000000e+00 -1.224647e-16 -1.000000e+00
    outer loop
      vertex -1.451236e+01 7.244440e+00 3.552714e-15
      vertex -1.645335e+01 7.500000e+00 3.552714e-15
      vertex 1.854665e+01 2.750000e+01 0.000000e+00
    endloop
  endfacet
  facet normal 0.000000e+00 -1.224647e-16 -1.000000e+00
    outer loop
      vertex 1.854665e+01 2.750000e+01 0.000000e+00
      vertex -1.645335e+01 7.500000e+00 3.552714e-15
      vertex -3.962036e+01 2.750000e+01 0.000000e+00
    endloop
  endfacet
  facet normal 0.000000e+00 -1.224647e-16 -1.000000e+00
    outer loop
      vertex -1.645335e+01 7.500000e+00 3.552714e-15
      vertex -1.839434e+01 7.244440e+00 3.552714e-15
      vertex -3.962036e+01 2.750000e+01 0.000000e+00
    endloop
  endfacet
  facet normal 0.000000e+00 -1.224647e-16 -1.000000e+00
    outer loop
      vertex -1.839434e+01 7.244440e+00 3.552714e-15
      vertex -2.020335e+01 6.495190e+00 3.552714e-15
      vertex -3.962036e+01 2.750000e+01 0.000000e+00
    endloop
  endfacet
  facet normal 0.000000e+00 -1.224647e-16 -1.000000e+00
    outer loop
      vertex -2.020335e+01 6.495190e+00 3.552714e-15
      vertex -2.175634e+01 5.303300e+00 3.552714e-15
      vertex -3.962036e+01 2.750000e+01 0.000000e+00
    endloop
  endfacet
  facet normal 0.000000e+00 -1.224647e-16 -1.000000e+00
    outer loop
      vertex -2.175634e+01 5.303300e+00 3.552714e-15
      vertex -2.294835e+01 3.750000e+00 3.552714e-15
      vertex -3.962036e+01 2.750000e+01 0.000000e+00
    endloop
  endfacet
  facet normal 0.000000e+00 -1.224647e-16 -1.000000e+00
    outer loop
      vertex -2.020335e+01 -6.495190e+00 3.552714e-15
      vertex -1.839434e+01 -7.244440e+00 3.552714e-15
      vertex -4.145335e+01 -2.595480e+01 7.105427e-15
    endloop
  endfacet
  facet normal 0.000000e+00 -1.224647e-16 -1.000000e+00
    outer loop
      vertex 2.307565e+01 -1.790670e+01 7.105427e-15
      vertex 2.625565e+01 -1.708990e+01 7.105427e-15
      vertex 2.553235e+01 -1.751770e+01 7.105427e-15
    endloop
  endfacet
  facet normal 0.000000e+00 -1.224647e-16 -1.000000e+00
    outer loop
      vertex 2.307565e+01 -1.790670e+01 7.105427e-15
      vertex 2.185265e+01 -1.763330e+01 7.105427e-15
      vertex 2.625565e+01 -1.708990e+01 7.105427e-15
    endloop
  endfacet
  facet normal 0.000000e+00 -1.224647e-16 -1.000000e+00
    outer loop
      vertex 1.854665e+01 -1.479900e+01 7.105427e-15
      vertex 1.854665e+01 -2.750000e+01 7.105427e-15
      vertex -4.145335e+01 -2.595480e+01 7.105427e-15
    endloop
  endfacet
  facet normal -5.358269e-01 8.443279e-01 -1.034003e-16
    outer loop
      vertex -4.064035e+01 2.685260e+01 0.000000e+00
      vertex -4.064035e+01 2.685260e+01 1.700000e+01
      vertex -3.962036e+01 2.750000e+01 1.700000e+01
    endloop
  endfacet
  facet normal -5.358269e-01 8.443279e-01 -1.034003e-16
    outer loop
      vertex -3.962036e+01 2.750000e+01 0.000000e+00
      vertex -4.064035e+01 2.685260e+01 0.000000e+00
      vertex -3.962036e+01 2.750000e+01 1.700000e+01
    endloop
  endfacet
  facet normal 0.000000e+00 1.000000e+00 -1.224647e-16
    outer loop
      vertex -3.962036e+01 2.750000e+01 0.000000e+00
      vertex -3.962036e+01 2.750000e+01 1.700000e+01
      vertex 1.854665e+01 2.750000e+01 1.700000e+01
    endloop
  endfacet
  facet normal 0.000000e+00 1.000000e+00 -1.224647e-16
    outer loop
      vertex 1.854665e+01 2.750000e+01 0.000000e+00
      vertex -3.962036e+01 2.750000e+01 0.000000e+00
      vertex 1.854665e+01 2.750000e+01 1.700000e+01
    endloop
  endfacet
  facet normal 1.000000e+00 0.000000e+00 0.000000e+00
    outer loop
      vertex 1.854665e+01 2.750000e+01 0.000000e+00
      vertex 1.854665e+01 2.750000e+01 1.700000e+01
      vertex 1.854665e+01 1.479900e+01 1.700000e+01
    endloop
  endfacet
  facet normal 1.000000e+00 0.000000e+00 0.000000e+00
    outer loop
      vertex 1.854665e+01 1.479900e+01 8.500000e+00
      vertex 1.854665e+01 2.750000e+01 0.000000e+00
      vertex 1.854665e+01 1.479900e+01 1.700000e+01
    endloop
  endfacet
  facet normal 1.000000e+00 0.000000e+00 0.000000e+00
    outer loop
      vertex 1.854665e+01 1.479900e+01 8.500000e+00
      vertex 1.854665e+01 1.479900e+01 0.000000e+00
      vertex 1.854665e+01 2.750000e+01 0.000000e+00
    endloop
  endfacet
  facet normal -7.071068e-01 -7.071068e-01 8.659561e-17
    outer loop
      vertex 1.854665e+01 1.479900e+01 8.500000e+00
      vertex 1.854665e+01 1.479900e+01 1.700000e+01
      vertex 1.620265e+01 1.714300e+01 8.500000e+00
    endloop
  endfacet
  facet normal -7.071068e-01 -7.071068e-01 8.659561e-17
    outer loop
      vertex 1.620265e+01 1.714300e+01 8.500000e+00
      vertex 1.854665e+01 1.479900e+01 1.700000e+01
      vertex 1.620265e+01 1.714300e+01 1.700000e+01
    endloop
  endfacet
  facet normal -4.539899e-01 -8.910068e-01 1.091169e-16
    outer loop
      vertex 1.620265e+01 1.714300e+01 8.500000e+00
      vertex 1.620265e+01 1.714300e+01 1.700000e+01
      vertex 1.524065e+01 1.763330e+01 8.500000e+00
    endloop
  endfacet
  facet normal -4.539899e-01 -8.910068e-01 1.091169e-16
    outer loop
      vertex 1.524065e+01 1.763330e+01 8.500000e+00
      vertex 1.620265e+01 1.714300e+01 1.700000e+01
      vertex 1.524065e+01 1.763330e+01 1.700000e+01
    endloop
  endfacet
  facet normal -2.181430e-01 -9.759168e-01 1.195153e-16
    outer loop
      vertex 1.524065e+01 1.763330e+01 8.500000e+00
      vertex 1.524065e+01 1.763330e+01 1.700000e+01
      vertex 1.401765e+01 1.790670e+01 8.500000e+00
    endloop
  endfacet
  facet normal -2.181430e-01 -9.759168e-01 1.195153e-16
    outer loop
      vertex 1.401765e+01 1.790670e+01 8.500000e+00
      vertex 1.524065e+01 1.763330e+01 1.700000e+01
      vertex 1.401765e+01 1.790670e+01 1.700000e+01
    endloop
  endfacet
  facet normal 3.141078e-02 -9.995066e-01 1.224043e-16
    outer loop
      vertex 1.401765e+01 1.790670e+01 8.500000e+00
      vertex 1.401765e+01 1.790670e+01 1.700000e+01
      vertex 1.276465e+01 1.786740e+01 8.500000e+00
    endloop
  endfacet
  facet normal 3.141078e-02 -9.995066e-01 1.224043e-16
    outer loop
      vertex 1.276465e+01 1.786740e+01 8.500000e+00
      vertex 1.401765e+01 1.790670e+01 1.700000e+01
      vertex 1.276465e+01 1.786740e+01 1.700000e+01
    endloop
  endfacet
  facet normal 2.789909e-01 -9.602937e-01 1.176021e-16
    outer loop
      vertex 1.276465e+01 1.786740e+01 8.500000e+00
      vertex 1.276465e+01 1.786740e+01 1.700000e+01
      vertex 1.156065e+01 1.751770e+01 8.500000e+00
    endloop
  endfacet
  facet normal 2.789909e-01 -9.602937e-01 1.176021e-16
    outer loop
      vertex 1.156065e+01 1.751770e+01 8.500000e+00
      vertex 1.276465e+01 1.786740e+01 1.700000e+01
      vertex 1.156065e+01 1.751770e+01 1.700000e+01
    endloop
  endfacet
  facet normal 5.090411e-01 -8.607422e-01 1.054105e-16
    outer loop
      vertex 1.156065e+01 1.751770e+01 8.500000e+00
      vertex 1.156065e+01 1.751770e+01 1.700000e+01
      vertex 1.083765e+01 1.708990e+01 8.500000e+00
    endloop
  endfacet
  facet normal 5.090411e-01 -8.607422e-01 1.054105e-16
    outer loop
      vertex 1.083765e+01 1.708990e+01 8.500000e+00
      vertex 1.156065e+01 1.751770e+01 1.700000e+01
      vertex 1.083765e+01 1.708990e+01 1.700000e+01
    endloop
  endfacet
  facet normal 7.071068e-01 -7.071068e-01 8.659561e-17
    outer loop
      vertex -3.596348e+00 2.655950e+00 8.500000e+00
      vertex 1.083765e+01 1.708990e+01 8.500000e+00
      vertex 1.083765e+01 1.708990e+01 1.700000e+01
    endloop
  endfacet
  facet normal 7.071068e-01 -7.071068e-01 8.659561e-17
    outer loop
      vertex -3.596348e+00 2.655950e+00 1.700000e+01
      vertex -3.596348e+00 2.655950e+00 8.500000e+00
      vertex 1.083765e+01 1.708990e+01 1.700000e+01
    endloop
  endfacet
  facet normal 8.910068e-01 -4.539899e-01 5.559773e-17
    outer loop
      vertex -4.086353e+00 1.693690e+00 8.500000e+00
      vertex -3.596348e+00 2.655950e+00 8.500000e+00
      vertex -3.596348e+00 2.655950e+00 1.700000e+01
    endloop
  endfacet
  facet normal 8.910068e-01 -4.539899e-01 5.559773e-17
    outer loop
      vertex -4.086353e+00 1.693690e+00 1.700000e+01
      vertex -4.086353e+00 1.693690e+00 8.500000e+00
      vertex -3.596348e+00 2.655950e+00 1.700000e+01
    endloop
  endfacet
  facet normal 9.759168e-01 -2.181430e-01 2.671481e-17
    outer loop
      vertex -4.360348e+00 4.705410e-01 8.500000e+00
      vertex -4.086353e+00 1.693690e+00 8.500000e+00
      vertex -4.086353e+00 1.693690e+00 1.700000e+01
    endloop
  endfacet
  facet normal 9.759168e-01 -2.181430e-01 2.671481e-17
    outer loop
      vertex -4.360348e+00 4.705410e-01 1.700000e+01
      vertex -4.360348e+00 4.705410e-01 8.500000e+00
      vertex -4.086353e+00 1.693690e+00 1.700000e+01
    endloop
  endfacet
  facet normal 9.995066e-01 3.141078e-02 -3.846712e-18
    outer loop
      vertex -4.320347e+00 -7.821730e-01 1.700000e+01
      vertex -4.320347e+00 -7.821730e-01 8.500000e+00
      vertex -4.360348e+00 4.705410e-01 8.500000e+00
    endloop
  endfacet
  facet normal 9.995066e-01 3.141078e-02 -3.846712e-18
    outer loop
      vertex -4.360348e+00 4.705410e-01 1.700000e+01
      vertex -4.320347e+00 -7.821730e-01 1.700000e+01
      vertex -4.360348e+00 4.705410e-01 8.500000e+00
    endloop
  endfacet
  facet normal 9.602937e-01 2.789909e-01 -3.416653e-17
    outer loop
      vertex -3.971348e+00 -1.985740e+00 1.700000e+01
      vertex -3.971348e+00 -1.985740e+00 8.500000e+00
      vertex -4.320347e+00 -7.821730e-01 8.500000e+00
    endloop
  endfacet
  facet normal 9.602937e-01 2.789909e-01 -3.416653e-17
    outer loop
      vertex -4.320347e+00 -7.821730e-01 1.700000e+01
      vertex -3.971348e+00 -1.985740e+00 1.700000e+01
      vertex -4.320347e+00 -7.821730e-01 8.500000e+00
    endloop
  endfacet
  facet normal 8.607422e-01 5.090411e-01 -6.233955e-17
    outer loop
      vertex -3.543346e+00 -2.709050e+00 1.700000e+01
      vertex -3.543346e+00 -2.709050e+00 8.500000e+00
      vertex -3.971348e+00 -1.985740e+00 8.500000e+00
    endloop
  endfacet
  facet normal 8.607422e-01 5.090411e-01 -6.233955e-17
    outer loop
      vertex -3.971348e+00 -1.985740e+00 1.700000e+01
      vertex -3.543346e+00 -2.709050e+00 1.700000e+01
      vertex -3.971348e+00 -1.985740e+00 8.500000e+00
    endloop
  endfacet
  facet normal 7.071068e-01 7.071068e-01 -8.659561e-17
    outer loop
      vertex 1.089065e+01 -1.714300e+01 1.700000e+01
      vertex 1.089065e+01 -1.714300e+01 8.500000e+00
      vertex -3.543346e+00 -2.709050e+00 8.500000e+00
    endloop
  endfacet
  facet normal 7.071068e-01 7.071068e-01 -8.659561e-17
    outer loop
      vertex -3.543346e+00 -2.709050e+00 1.700000e+01
      vertex 1.089065e+01 -1.714300e+01 1.700000e+01
      vertex -3.543346e+00 -2.709050e+00 8.500000e+00
    endloop
  endfacet
  facet normal 4.539899e-01 8.910068e-01 -1.091169e-16
    outer loop
      vertex 1.185265e+01 -1.763330e+01 1.700000e+01
      vertex 1.185265e+01 -1.763330e+01 8.500000e+00
      vertex 1.089065e+01 -1.714300e+01 8.500000e+00
    endloop
  endfacet
  facet normal 4.539899e-01 8.910068e-01 -1.091169e-16
    outer loop
      vertex 1.089065e+01 -1.714300e+01 1.700000e+01
      vertex 1.185265e+01 -1.763330e+01 1.700000e+01
      vertex 1.089065e+01 -1.714300e+01 8.500000e+00
    endloop
  endfacet
  facet normal 2.181430e-01 9.759168e-01 -1.195153e-16
    outer loop
      vertex 1.307565e+01 -1.790670e+01 1.700000e+01
      vertex 1.307565e+01 -1.790670e+01 8.500000e+00
      vertex 1.185265e+01 -1.763330e+01 8.500000e+00
    endloop
  endfacet
  facet normal 2.181430e-01 9.759168e-01 -1.195153e-16
    outer loop
      vertex 1.185265e+01 -1.763330e+01 1.700000e+01
      vertex 1.307565e+01 -1.790670e+01 1.700000e+01
      vertex 1.185265e+01 -1.763330e+01 8.500000e+00
    endloop
  endfacet
  facet normal -3.141078e-02 9.995066e-01 -1.224043e-16
    outer loop
      vertex 1.432865e+01 -1.786740e+01 1.700000e+01
      vertex 1.432865e+01 -1.786740e+01 8.500000e+00
      vertex 1.307565e+01 -1.790670e+01 8.500000e+00
    endloop
  endfacet
  facet normal -3.141078e-02 9.995066e-01 -1.224043e-16
    outer loop
      vertex 1.307565e+01 -1.790670e+01 1.700000e+01
      vertex 1.432865e+01 -1.786740e+01 1.700000e+01
      vertex 1.307565e+01 -1.790670e+01 8.500000e+00
    endloop
  endfacet
  facet normal -2.789909e-01 9.602937e-01 -1.176021e-16
    outer loop
      vertex 1.553265e+01 -1.751770e+01 1.700000e+01
      vertex 1.553265e+01 -1.751770e+01 8.500000e+00
      vertex 1.432865e+01 -1.786740e+01 8.500000e+00
    endloop
  endfacet
  facet normal -2.789909e-01 9.602937e-01 -1.176021e-16
    outer loop
      vertex 1.432865e+01 -1.786740e+01 1.700000e+01
      vertex 1.553265e+01 -1.751770e+01 1.700000e+01
      vertex 1.432865e+01 -1.786740e+01 8.500000e+00
    endloop
  endfacet
  facet normal -5.090411e-01 8.607422e-01 -1.054105e-16
    outer loop
      vertex 1.625565e+01 -1.708990e+01 1.700000e+01
      vertex 1.625565e+01 -1.708990e+01 8.500000e+00
      vertex 1.553265e+01 -1.751770e+01 8.500000e+00
    endloop
  endfacet
  facet normal -5.090411e-01 8.607422e-01 -1.054105e-16
    outer loop
      vertex 1.553265e+01 -1.751770e+01 1.700000e+01
      vertex 1.625565e+01 -1.708990e+01 1.700000e+01
      vertex 1.553265e+01 -1.751770e+01 8.500000e+00
    endloop
  endfacet
  facet normal -7.071068e-01 7.071068e-01 -8.659561e-17
    outer loop
      vertex 1.854665e+01 -1.479900e+01 8.500000e+00
      vertex 1.625565e+01 -1.708990e+01 8.500000e+00
      vertex 1.854665e+01 -1.479900e+01 1.700000e+01
    endloop
  endfacet
  facet normal -7.071068e-01 7.071068e-01 -8.659561e-17
    outer loop
      vertex 1.854665e+01 -1.479900e+01 1.700000e+01
      vertex 1.625565e+01 -1.708990e+01 8.500000e+00
      vertex 1.625565e+01 -1.708990e+01 1.700000e+01
    endloop
  endfacet
  facet normal 1.000000e+00 0.000000e+00 0.000000e+00
    outer loop
      vertex 1.854665e+01 -2.750000e+01 1.700000e+01
      vertex 1.854665e+01 -1.479900e+01 7.105427e-15
      vertex 1.854665e+01 -1.479900e+01 8.500000e+00
    endloop
  endfacet
  facet normal 1.000000e+00 0.000000e+00 0.000000e+00
    outer loop
      vertex 1.854665e+01 -1.479900e+01 1.700000e+01
      vertex 1.854665e+01 -2.750000e+01 1.700000e+01
      vertex 1.854665e+01 -1.479900e+01 8.500000e+00
    endloop
  endfacet
  facet normal 1.000000e+00 0.000000e+00 0.000000e+00
    outer loop
      vertex 1.854665e+01 -2.750000e+01 1.700000e+01
      vertex 1.854665e+01 -2.750000e+01 7.105427e-15
      vertex 1.854665e+01 -1.479900e+01 7.105427e-15
    endloop
  endfacet
  facet normal 0.000000e+00 -1.000000e+00 1.224647e-16
    outer loop
      vertex -3.956434e+01 -2.750000e+01 1.700000e+01
      vertex -3.956434e+01 -2.750000e+01 7.105427e-15
      vertex 1.854665e+01 -2.750000e+01 1.700000e+01
    endloop
  endfacet
  facet normal 0.000000e+00 -1.000000e+00 1.224647e-16
    outer loop
      vertex 1.854665e+01 -2.750000e+01 1.700000e+01
      vertex -3.956434e+01 -2.750000e+01 7.105427e-15
      vertex 1.854665e+01 -2.750000e+01 7.105427e-15
    endloop
  endfacet
  facet normal -4.817538e-01 -8.763066e-01 1.073166e-16
    outer loop
      vertex -4.039235e+01 -2.704510e+01 1.700000e+01
      vertex -4.039235e+01 -2.704510e+01 7.105427e-15
      vertex -3.956434e+01 -2.750000e+01 1.700000e+01
    endloop
  endfacet
  facet normal -4.817538e-01 -8.763066e-01 1.073166e-16
    outer loop
      vertex -3.956434e+01 -2.750000e+01 1.700000e+01
      vertex -4.039235e+01 -2.704510e+01 7.105427e-15
      vertex -3.956434e+01 -2.750000e+01 7.105427e-15
    endloop
  endfacet
  facet normal -6.845468e-01 -7.289689e-01 8.927294e-17
    outer loop
      vertex -4.130635e+01 -2.618710e+01 1.700000e+01
      vertex -4.130635e+01 -2.618710e+01 7.105427e-15
      vertex -4.039235e+01 -2.704510e+01 1.700000e+01
    endloop
  endfacet
  facet normal -6.845468e-01 -7.289689e-01 8.927294e-17
    outer loop
      vertex -4.039235e+01 -2.704510e+01 1.700000e+01
      vertex -4.130635e+01 -2.618710e+01 7.105427e-15
      vertex -4.039235e+01 -2.704510e+01 7.105427e-15
    endloop
  endfacet
  facet normal -7.071068e-01 -7.071068e-01 8.659561e-17
    outer loop
      vertex 1.854665e+01 -1.479900e+01 8.500000e+00
      vertex 1.854665e+01 -1.479900e+01 7.105427e-15
      vertex 2.089065e+01 -1.714300e+01 8.500000e+00
    endloop
  endfacet
  facet normal -7.071068e-01 -7.071068e-01 8.659561e-17
    outer loop
      vertex 2.089065e+01 -1.714300e+01 8.500000e+00
      vertex 1.854665e+01 -1.479900e+01 7.105427e-15
      vertex 2.089065e+01 -1.714300e+01 7.105427e-15
    endloop
  endfacet
  facet normal -4.539899e-01 -8.910068e-01 1.091169e-16
    outer loop
      vertex 2.089065e+01 -1.714300e+01 8.500000e+00
      vertex 2.089065e+01 -1.714300e+01 7.105427e-15
      vertex 2.185265e+01 -1.763330e+01 8.500000e+00
    endloop
  endfacet
  facet normal -4.539899e-01 -8.910068e-01 1.091169e-16
    outer loop
      vertex 2.185265e+01 -1.763330e+01 8.500000e+00
      vertex 2.089065e+01 -1.714300e+01 7.105427e-15
      vertex 2.185265e+01 -1.763330e+01 7.105427e-15
    endloop
  endfacet
  facet normal -2.181430e-01 -9.759168e-01 1.195153e-16
    outer loop
      vertex 2.185265e+01 -1.763330e+01 8.500000e+00
      vertex 2.185265e+01 -1.763330e+01 7.105427e-15
      vertex 2.307565e+01 -1.790670e+01 8.500000e+00
    endloop
  endfacet
  facet normal -2.181430e-01 -9.759168e-01 1.195153e-16
    outer loop
      vertex 2.307565e+01 -1.790670e+01 8.500000e+00
      vertex 2.185265e+01 -1.763330e+01 7.105427e-15
      vertex 2.307565e+01 -1.790670e+01 7.105427e-15
    endloop
  endfacet
  facet normal 3.141078e-02 -9.995066e-01 1.224043e-16
    outer loop
      vertex 2.307565e+01 -1.790670e+01 8.500000e+00
      vertex 2.307565e+01 -1.790670e+01 7.105427e-15
      vertex 2.432885e+01 -1.786740e+01 8.500000e+00
    endloop
  endfacet
  facet normal 3.141078e-02 -9.995066e-01 1.224043e-16
    outer loop
      vertex 2.432885e+01 -1.786740e+01 8.500000e+00
      vertex 2.307565e+01 -1.790670e+01 7.105427e-15
      vertex 2.432885e+01 -1.786740e+01 7.105427e-15
    endloop
  endfacet
  facet normal 2.789909e-01 -9.602937e-01 1.176021e-16
    outer loop
      vertex 2.432885e+01 -1.786740e+01 8.500000e+00
      vertex 2.432885e+01 -1.786740e+01 7.105427e-15
      vertex 2.553235e+01 -1.751770e+01 8.500000e+00
    endloop
  endfacet
  facet normal 2.789909e-01 -9.602937e-01 1.176021e-16
    outer loop
      vertex 2.553235e+01 -1.751770e+01 8.500000e+00
      vertex 2.432885e+01 -1.786740e+01 7.105427e-15
      vertex 2.553235e+01 -1.751770e+01 7.105427e-15
    endloop
  endfacet
  facet normal 5.090411e-01 -8.607422e-01 1.054105e-16
    outer loop
      vertex 2.553235e+01 -1.751770e+01 8.500000e+00
      vertex 2.553235e+01 -1.751770e+01 7.105427e-15
      vertex 2.625565e+01 -1.708990e+01 8.500000e+00
    endloop
  endfacet
  facet normal 5.090411e-01 -8.607422e-01 1.054105e-16
    outer loop
      vertex 2.625565e+01 -1.708990e+01 8.500000e+00
      vertex 2.553235e+01 -1.751770e+01 7.105427e-15
      vertex 2.625565e+01 -1.708990e+01 7.105427e-15
    endloop
  endfacet
  facet normal 7.071068e-01 -7.071068e-01 8.659561e-17
    outer loop
      vertex 4.068965e+01 -2.655950e+00 8.500000e+00
      vertex 2.625565e+01 -1.708990e+01 8.500000e+00
      vertex 2.625565e+01 -1.708990e+01 7.105427e-15
    endloop
  endfacet
  facet normal 7.071068e-01 -7.071068e-01 8.659561e-17
    outer loop
      vertex 4.068965e+01 -2.655950e+00 3.552714e-15
      vertex 4.068965e+01 -2.655950e+00 8.500000e+00
      vertex 2.625565e+01 -1.708990e+01 7.105427e-15
    endloop
  endfacet
  facet normal 8.910068e-01 -4.539899e-01 5.559773e-17
    outer loop
      vertex 4.117995e+01 -1.693690e+00 8.500000e+00
      vertex 4.068965e+01 -2.655950e+00 8.500000e+00
      vertex 4.068965e+01 -2.655950e+00 3.552714e-15
    endloop
  endfacet
  facet normal 8.910068e-01 -4.539899e-01 5.559773e-17
    outer loop
      vertex 4.117995e+01 -1.693690e+00 3.552714e-15
      vertex 4.117995e+01 -1.693690e+00 8.500000e+00
      vertex 4.068965e+01 -2.655950e+00 3.552714e-15
    endloop
  endfacet
  facet normal 9.759168e-01 -2.181430e-01 2.671481e-17
    outer loop
      vertex 4.145335e+01 -4.705410e-01 8.500000e+00
      vertex 4.117995e+01 -1.693690e+00 8.500000e+00
      vertex 4.117995e+01 -1.693690e+00 3.552714e-15
    endloop
  endfacet
  facet normal 9.759168e-01 -2.181430e-01 2.671481e-17
    outer loop
      vertex 4.145335e+01 -4.705410e-01 3.552714e-15
      vertex 4.145335e+01 -4.705410e-01 8.500000e+00
      vertex 4.117995e+01 -1.693690e+00 3.552714e-15
    endloop
  endfacet
  facet normal 9.995066e-01 3.141078e-02 -3.846712e-18
    outer loop
      vertex 4.141405e+01 7.821730e-01 3.552714e-15
      vertex 4.141405e+01 7.821730e-01 8.500000e+00
      vertex 4.145335e+01 -4.705410e-01 8.500000e+00
    endloop
  endfacet
  facet normal 9.995066e-01 3.141078e-02 -3.846712e-18
    outer loop
      vertex 4.145335e+01 -4.705410e-01 3.552714e-15
      vertex 4.141405e+01 7.821730e-01 3.552714e-15
      vertex 4.145335e+01 -4.705410e-01 8.500000e+00
    endloop
  endfacet
  facet normal 9.602937e-01 2.789909e-01 -3.416653e-17
    outer loop
      vertex 4.106435e+01 1.985740e+00 3.552714e-15
      vertex 4.106435e+01 1.985740e+00 8.500000e+00
      vertex 4.141405e+01 7.821730e-01 8.500000e+00
    endloop
  endfacet
  facet normal 9.602937e-01 2.789909e-01 -3.416653e-17
    outer loop
      vertex 4.141405e+01 7.821730e-01 3.552714e-15
      vertex 4.106435e+01 1.985740e+00 3.552714e-15
      vertex 4.141405e+01 7.821730e-01 8.500000e+00
    endloop
  endfacet
  facet normal 8.607422e-01 5.090411e-01 -6.233955e-17
    outer loop
      vertex 4.063655e+01 2.709050e+00 3.552714e-15
      vertex 4.063655e+01 2.709050e+00 8.500000e+00
      vertex 4.106435e+01 1.985740e+00 8.500000e+00
    endloop
  endfacet
  facet normal 8.607422e-01 5.090411e-01 -6.233955e-17
    outer loop
      vertex 4.106435e+01 1.985740e+00 3.552714e-15
      vertex 4.063655e+01 2.709050e+00 3.552714e-15
      vertex 4.106435e+01 1.985740e+00 8.500000e+00
    endloop
  endfacet
  facet normal 7.071068e-01 7.071068e-01 -8.659561e-17
    outer loop
      vertex 2.620265e+01 1.714300e+01 0.000000e+00
      vertex 2.620265e+01 1.714300e+01 8.500000e+00
      vertex 4.063655e+01 2.709050e+00 8.500000e+00
    endloop
  endfacet
  facet normal 7.071068e-01 7.071068e-01 -8.659561e-17
    outer loop
      vertex 4.063655e+01 2.709050e+00 3.552714e-15
      vertex 2.620265e+01 1.714300e+01 0.000000e+00
      vertex 4.063655e+01 2.709050e+00 8.500000e+00
    endloop
  endfacet
  facet normal 4.539899e-01 8.910068e-01 -1.091169e-16
    outer loop
      vertex 2.524035e+01 1.763330e+01 0.000000e+00
      vertex 2.524035e+01 1.763330e+01 8.500000e+00
      vertex 2.620265e+01 1.714300e+01 8.500000e+00
    endloop
  endfacet
  facet normal 4.539899e-01 8.910068e-01 -1.091169e-16
    outer loop
      vertex 2.620265e+01 1.714300e+01 0.000000e+00
      vertex 2.524035e+01 1.763330e+01 0.000000e+00
      vertex 2.620265e+01 1.714300e+01 8.500000e+00
    endloop
  endfacet
  facet normal 2.181430e-01 9.759168e-01 -1.195153e-16
    outer loop
      vertex 2.401715e+01 1.790670e+01 0.000000e+00
      vertex 2.401715e+01 1.790670e+01 8.500000e+00
      vertex 2.524035e+01 1.763330e+01 8.500000e+00
    endloop
  endfacet
  facet normal 2.181430e-01 9.759168e-01 -1.195153e-16
    outer loop
      vertex 2.524035e+01 1.763330e+01 0.000000e+00
      vertex 2.401715e+01 1.790670e+01 0.000000e+00
      vertex 2.524035e+01 1.763330e+01 8.500000e+00
    endloop
  endfacet
  facet normal -3.141078e-02 9.995066e-01 -1.224043e-16
    outer loop
      vertex 2.276465e+01 1.786740e+01 0.000000e+00
      vertex 2.276465e+01 1.786740e+01 8.500000e+00
      vertex 2.401715e+01 1.790670e+01 8.500000e+00
    endloop
  endfacet
  facet normal -3.141078e-02 9.995066e-01 -1.224043e-16
    outer loop
      vertex 2.401715e+01 1.790670e+01 0.000000e+00
      vertex 2.276465e+01 1.786740e+01 0.000000e+00
      vertex 2.401715e+01 1.790670e+01 8.500000e+00
    endloop
  endfacet
  facet normal -2.789909e-01 9.602937e-01 -1.176021e-16
    outer loop
      vertex 2.156065e+01 1.751770e+01 0.000000e+00
      vertex 2.156065e+01 1.751770e+01 8.500000e+00
      vertex 2.276465e+01 1.786740e+01 8.500000e+00
    endloop
  endfacet
  facet normal -2.789909e-01 9.602937e-01 -1.176021e-16
    outer loop
      vertex 2.276465e+01 1.786740e+01 0.000000e+00
      vertex 2.156065e+01 1.751770e+01 0.000000e+00
      vertex 2.276465e+01 1.786740e+01 8.500000e+00
    endloop
  endfacet
  facet normal -5.090411e-01 8.607422e-01 -1.054105e-16
    outer loop
      vertex 2.083765e+01 1.708990e+01 0.000000e+00
      vertex 2.083765e+01 1.708990e+01 8.500000e+00
      vertex 2.156065e+01 1.751770e+01 8.500000e+00
    endloop
  endfacet
  facet normal -5.090411e-01 8.607422e-01 -1.054105e-16
    outer loop
      vertex 2.156065e+01 1.751770e+01 0.000000e+00
      vertex 2.083765e+01 1.708990e+01 0.000000e+00
      vertex 2.156065e+01 1.751770e+01 8.500000e+00
    endloop
  endfacet
  facet normal -7.071068e-01 7.071068e-01 -8.659561e-17
    outer loop
      vertex 1.854665e+01 1.479900e+01 8.500000e+00
      vertex 2.083765e+01 1.708990e+01 8.500000e+00
      vertex 1.854665e+01 1.479900e+01 0.000000e+00
    endloop
  endfacet
  facet normal -7.071068e-01 7.071068e-01 -8.659561e-17
    outer loop
      vertex 1.854665e+01 1.479900e+01 0.000000e+00
      vertex 2.083765e+01 1.708990e+01 8.500000e+00
      vertex 2.083765e+01 1.708990e+01 0.000000e+00
    endloop
  endfacet
  facet normal 9.914449e-01 -1.305260e-01 1.598483e-17
    outer loop
      vertex -2.395335e+01 -2.081900e-15 3.552714e-15
      vertex -2.369735e+01 1.941140e+00 3.552714e-15
      vertex -2.369735e+01 1.941140e+00 1.350000e+01
    endloop
  endfacet
  facet normal 9.914449e-01 -1.305260e-01 1.598483e-17
    outer loop
      vertex -2.395335e+01 -4.286264e-16 1.350000e+01
      vertex -2.395335e+01 -2.081900e-15 3.552714e-15
      vertex -2.369735e+01 1.941140e+00 1.350000e+01
    endloop
  endfacet
  facet normal 9.238798e-01 -3.826829e-01 4.686515e-17
    outer loop
      vertex -2.369735e+01 1.941140e+00 3.552714e-15
      vertex -2.294835e+01 3.750000e+00 3.552714e-15
      vertex -2.294835e+01 3.750000e+00 1.350000e+01
    endloop
  endfacet
  facet normal 9.238798e-01 -3.826829e-01 4.686515e-17
    outer loop
      vertex -2.369735e+01 1.941140e+00 1.350000e+01
      vertex -2.369735e+01 1.941140e+00 3.552714e-15
      vertex -2.294835e+01 3.750000e+00 1.350000e+01
    endloop
  endfacet
  facet normal 7.933529e-01 -6.087620e-01 7.455185e-17
    outer loop
      vertex -2.294835e+01 3.750000e+00 3.552714e-15
      vertex -2.175634e+01 5.303300e+00 3.552714e-15
      vertex -2.175634e+01 5.303300e+00 1.350000e+01
    endloop
  endfacet
  facet normal 7.933529e-01 -6.087620e-01 7.455185e-17
    outer loop
      vertex -2.294835e+01 3.750000e+00 1.350000e+01
      vertex -2.294835e+01 3.750000e+00 3.552714e-15
      vertex -2.175634e+01 5.303300e+00 1.350000e+01
    endloop
  endfacet
  facet normal 6.087620e-01 -7.933529e-01 9.715771e-17
    outer loop
      vertex -2.020335e+01 6.495190e+00 3.552714e-15
      vertex -2.020335e+01 6.495190e+00 1.350000e+01
      vertex -2.175634e+01 5.303300e+00 3.552714e-15
    endloop
  endfacet
  facet normal 6.087620e-01 -7.933529e-01 9.715771e-17
    outer loop
      vertex -2.175634e+01 5.303300e+00 3.552714e-15
      vertex -2.020335e+01 6.495190e+00 1.350000e+01
      vertex -2.175634e+01 5.303300e+00 1.350000e+01
    endloop
  endfacet
  facet normal 3.826829e-01 -9.238798e-01 1.131426e-16
    outer loop
      vertex -1.839434e+01 7.244440e+00 3.552714e-15
      vertex -1.839434e+01 7.244440e+00 1.350000e+01
      vertex -2.020335e+01 6.495190e+00 3.552714e-15
    endloop
  endfacet
  facet normal 3.826829e-01 -9.238798e-01 1.131426e-16
    outer loop
      vertex -2.020335e+01 6.495190e+00 3.552714e-15
      vertex -1.839434e+01 7.244440e+00 1.350000e+01
      vertex -2.020335e+01 6.495190e+00 1.350000e+01
    endloop
  endfacet
  facet normal 1.305260e-01 -9.914449e-01 1.214170e-16
    outer loop
      vertex -1.645335e+01 7.500000e+00 3.552714e-15
      vertex -1.645335e+01 7.500000e+00 1.350000e+01
      vertex -1.839434e+01 7.244440e+00 3.552714e-15
    endloop
  endfacet
  facet normal 1.305260e-01 -9.914449e-01 1.214170e-16
    outer loop
      vertex -1.839434e+01 7.244440e+00 3.552714e-15
      vertex -1.645335e+01 7.500000e+00 1.350000e+01
      vertex -1.839434e+01 7.244440e+00 1.350000e+01
    endloop
  endfacet
  facet normal -1.305260e-01 -9.914449e-01 1.214170e-16
    outer loop
      vertex -1.451236e+01 7.244440e+00 3.552714e-15
      vertex -1.451236e+01 7.244440e+00 1.350000e+01
      vertex -1.645335e+01 7.500000e+00 3.552714e-15
    endloop
  endfacet
  facet normal -1.305260e-01 -9.914449e-01 1.214170e-16
    outer loop
      vertex -1.645335e+01 7.500000e+00 3.552714e-15
      vertex -1.451236e+01 7.244440e+00 1.350000e+01
      vertex -1.645335e+01 7.500000e+00 1.350000e+01
    endloop
  endfacet
  facet normal -3.826829e-01 -9.238798e-01 1.131426e-16
    outer loop
      vertex -1.270335e+01 6.495190e+00 3.552714e-15
      vertex -1.270335e+01 6.495190e+00 1.350000e+01
      vertex -1.451236e+01 7.244440e+00 3.552714e-15
    endloop
  endfacet
  facet normal -3.826829e-01 -9.238798e-01 1.131426e-16
    outer loop
      vertex -1.451236e+01 7.244440e+00 3.552714e-15
      vertex -1.270335e+01 6.495190e+00 1.350000e+01
      vertex -1.451236e+01 7.244440e+00 1.350000e+01
    endloop
  endfacet
  facet normal -6.087620e-01 -7.933529e-01 9.715771e-17
    outer loop
      vertex -1.115036e+01 5.303300e+00 3.552714e-15
      vertex -1.115036e+01 5.303300e+00 1.350000e+01
      vertex -1.270335e+01 6.495190e+00 3.552714e-15
    endloop
  endfacet
  facet normal -6.087620e-01 -7.933529e-01 9.715771e-17
    outer loop
      vertex -1.270335e+01 6.495190e+00 3.552714e-15
      vertex -1.115036e+01 5.303300e+00 1.350000e+01
      vertex -1.270335e+01 6.495190e+00 1.350000e+01
    endloop
  endfacet
  facet normal -7.933529e-01 -6.087620e-01 7.455185e-17
    outer loop
      vertex -9.958355e+00 3.750000e+00 3.552714e-15
      vertex -9.958355e+00 3.750000e+00 1.350000e+01
      vertex -1.115036e+01 5.303300e+00 3.552714e-15
    endloop
  endfacet
  facet normal -7.933529e-01 -6.087620e-01 7.455185e-17
    outer loop
      vertex -1.115036e+01 5.303300e+00 3.552714e-15
      vertex -9.958355e+00 3.750000e+00 1.350000e+01
      vertex -1.115036e+01 5.303300e+00 1.350000e+01
    endloop
  endfacet
  facet normal -9.238798e-01 -3.826829e-01 4.686515e-17
    outer loop
      vertex -9.209347e+00 1.941140e+00 3.552714e-15
      vertex -9.209347e+00 1.941140e+00 1.350000e+01
      vertex -9.958355e+00 3.750000e+00 3.552714e-15
    endloop
  endfacet
  facet normal -9.238798e-01 -3.826829e-01 4.686515e-17
    outer loop
      vertex -9.958355e+00 3.750000e+00 3.552714e-15
      vertex -9.209347e+00 1.941140e+00 1.350000e+01
      vertex -9.958355e+00 3.750000e+00 1.350000e+01
    endloop
  endfacet
  facet normal -9.914449e-01 -1.305260e-01 1.598483e-17
    outer loop
      vertex -8.953350e+00 -2.081900e-15 3.552714e-15
      vertex -8.953350e+00 -4.286264e-16 1.350000e+01
      vertex -9.209347e+00 1.941140e+00 3.552714e-15
    endloop
  endfacet
  facet normal -9.914449e-01 -1.305260e-01 1.598483e-17
    outer loop
      vertex -9.209347e+00 1.941140e+00 3.552714e-15
      vertex -8.953350e+00 -4.286264e-16 1.350000e+01
      vertex -9.209347e+00 1.941140e+00 1.350000e+01
    endloop
  endfacet
  facet normal -9.914449e-01 1.305260e-01 -1.598483e-17
    outer loop
      vertex -8.953350e+00 -2.081900e-15 3.552714e-15
      vertex -9.209347e+00 -1.941140e+00 3.552714e-15
      vertex -8.953350e+00 -4.286264e-16 1.350000e+01
    endloop
  endfacet
  facet normal -9.914449e-01 1.305260e-01 -1.598483e-17
    outer loop
      vertex -8.953350e+00 -4.286264e-16 1.350000e+01
      vertex -9.209347e+00 -1.941140e+00 3.552714e-15
      vertex -9.209347e+00 -1.941140e+00 1.350000e+01
    endloop
  endfacet
  facet normal -9.238798e-01 3.826829e-01 -4.686515e-17
    outer loop
      vertex -9.209347e+00 -1.941140e+00 3.552714e-15
      vertex -9.958355e+00 -3.750000e+00 3.552714e-15
      vertex -9.209347e+00 -1.941140e+00 1.350000e+01
    endloop
  endfacet
  facet normal -9.238798e-01 3.826829e-01 -4.686515e-17
    outer loop
      vertex -9.209347e+00 -1.941140e+00 1.350000e+01
      vertex -9.958355e+00 -3.750000e+00 3.552714e-15
      vertex -9.958355e+00 -3.750000e+00 1.350000e+01
    endloop
  endfacet
  facet normal -7.933529e-01 6.087620e-01 -7.455185e-17
    outer loop
      vertex -9.958355e+00 -3.750000e+00 3.552714e-15
      vertex -1.115036e+01 -5.303300e+00 3.552714e-15
      vertex -9.958355e+00 -3.750000e+00 1.350000e+01
    endloop
  endfacet
  facet normal -7.933529e-01 6.087620e-01 -7.455185e-17
    outer loop
      vertex -9.958355e+00 -3.750000e+00 1.350000e+01
      vertex -1.115036e+01 -5.303300e+00 3.552714e-15
      vertex -1.115036e+01 -5.303300e+00 1.350000e+01
    endloop
  endfacet
  facet normal -6.087620e-01 7.933529e-01 -9.715771e-17
    outer loop
      vertex -1.115036e+01 -5.303300e+00 1.350000e+01
      vertex -1.115036e+01 -5.303300e+00 3.552714e-15
      vertex -1.270335e+01 -6.495190e+00 3.552714e-15
    endloop
  endfacet
  facet normal -6.087620e-01 7.933529e-01 -9.715771e-17
    outer loop
      vertex -1.270335e+01 -6.495190e+00 1.350000e+01
      vertex -1.115036e+01 -5.303300e+00 1.350000e+01
      vertex -1.270335e+01 -6.495190e+00 3.552714e-15
    endloop
  endfacet
  facet normal -3.826829e-01 9.238798e-01 -1.131426e-16
    outer loop
      vertex -1.270335e+01 -6.495190e+00 1.350000e+01
      vertex -1.270335e+01 -6.495190e+00 3.552714e-15
      vertex -1.451236e+01 -7.244440e+00 3.552714e-15
    endloop
  endfacet
  facet normal -3.826829e-01 9.238798e-01 -1.131426e-16
    outer loop
      vertex -1.451236e+01 -7.244440e+00 1.350000e+01
      vertex -1.270335e+01 -6.495190e+00 1.350000e+01
      vertex -1.451236e+01 -7.244440e+00 3.552714e-15
    endloop
  endfacet
  facet normal -1.305260e-01 9.914449e-01 -1.214170e-16
    outer loop
      vertex -1.451236e+01 -7.244440e+00 1.350000e+01
      vertex -1.451236e+01 -7.244440e+00 3.552714e-15
      vertex -1.645335e+01 -7.500000e+00 3.552714e-15
    endloop
  endfacet
  facet normal -1.305260e-01 9.914449e-01 -1.214170e-16
    outer loop
      vertex -1.645335e+01 -7.500000e+00 1.350000e+01
      vertex -1.451236e+01 -7.244440e+00 1.350000e+01
      vertex -1.645335e+01 -7.500000e+00 3.552714e-15
    endloop
  endfacet
  facet normal 1.305260e-01 9.914449e-01 -1.214170e-16
    outer loop
      vertex -1.645335e+01 -7.500000e+00 1.350000e+01
      vertex -1.645335e+01 -7.500000e+00 3.552714e-15
      vertex -1.839434e+01 -7.244440e+00 3.552714e-15
    endloop
  endfacet
  facet normal 1.305260e-01 9.914449e-01 -1.214170e-16
    outer loop
      vertex -1.839434e+01 -7.244440e+00 1.350000e+01
      vertex -1.645335e+01 -7.500000e+00 1.350000e+01
      vertex -1.839434e+01 -7.244440e+00 3.552714e-15
    endloop
  endfacet
  facet normal 3.826829e-01 9.238798e-01 -1.131426e-16
    outer loop
      vertex -1.839434e+01 -7.244440e+00 1.350000e+01
      vertex -1.839434e+01 -7.244440e+00 3.552714e-15
      vertex -2.020335e+01 -6.495190e+00 3.552714e-15
    endloop
  endfacet
  facet normal 3.826829e-01 9.238798e-01 -1.131426e-16
    outer loop
      vertex -2.020335e+01 -6.495190e+00 1.350000e+01
      vertex -1.839434e+01 -7.244440e+00 1.350000e+01
      vertex -2.020335e+01 -6.495190e+00 3.552714e-15
    endloop
  endfacet
  facet normal 6.087620e-01 7.933529e-01 -9.715771e-17
    outer loop
      vertex -2.020335e+01 -6.495190e+00 1.350000e+01
      vertex -2.020335e+01 -6.495190e+00 3.552714e-15
      vertex -2.175634e+01 -5.303300e+00 3.552714e-15
    endloop
  endfacet
  facet normal 6.087620e-01 7.933529e-01 -9.715771e-17
    outer loop
      vertex -2.175634e+01 -5.303300e+00 1.350000e+01
      vertex -2.020335e+01 -6.495190e+00 1.350000e+01
      vertex -2.175634e+01 -5.303300e+00 3.552714e-15
    endloop
  endfacet
  facet normal 7.933529e-01 6.087620e-01 -7.455185e-17
    outer loop
      vertex -2.175634e+01 -5.303300e+00 1.350000e+01
      vertex -2.175634e+01 -5.303300e+00 3.552714e-15
      vertex -2.294835e+01 -3.750000e+00 3.552714e-15
    endloop
  endfacet
  facet normal 7.933529e-01 6.087620e-01 -7.455185e-17
    outer loop
      vertex -2.294835e+01 -3.750000e+00 1.350000e+01
      vertex -2.175634e+01 -5.303300e+00 1.350000e+01
      vertex -2.294835e+01 -3.750000e+00 3.552714e-15
    endloop
  endfacet
  facet normal 9.238798e-01 3.826829e-01 -4.686515e-17
    outer loop
      vertex -2.294835e+01 -3.750000e+00 1.350000e+01
      vertex -2.294835e+01 -3.750000e+00 3.552714e-15
      vertex -2.369735e+01 -1.941140e+00 3.552714e-15
    endloop
  endfacet
  facet normal 9.238798e-01 3.826829e-01 -4.686515e-17
    outer loop
      vertex -2.369735e+01 -1.941140e+00 1.350000e+01
      vertex -2.294835e+01 -3.750000e+00 1.350000e+01
      vertex -2.369735e+01 -1.941140e+00 3.552714e-15
    endloop
  endfacet
  facet normal 9.914449e-01 1.305260e-01 -1.598483e-17
    outer loop
      vertex -2.369735e+01 -1.941140e+00 1.350000e+01
      vertex -2.369735e+01 -1.941140e+00 3.552714e-15
      vertex -2.395335e+01 -2.081900e-15 3.552714e-15
    endloop
  endfacet
  facet normal 9.914449e-01 1.305260e-01 -1.598483e-17
    outer loop
      vertex -2.395335e+01 -4.286264e-16 1.350000e+01
      vertex -2.369735e+01 -1.941140e+00 1.350000e+01
      vertex -2.395335e+01 -2.081900e-15 3.552714e-15
    endloop
  endfacet
  facet normal 0.000000e+00 1.224647e-16 1.000000e+00
    outer loop
      vertex 6.028652e+00 -1.985740e+00 8.500000e+00
      vertex 6.456654e+00 -2.709050e+00 8.500000e+00
      vertex 5.679653e+00 -7.821730e-01 8.500000e+00
    endloop
  endfacet
  facet normal 0.000000e+00 1.224647e-16 1.000000e+00
    outer loop
      vertex 5.679653e+00 -7.821730e-01 8.500000e+00
      vertex 6.456654e+00 -2.709050e+00 8.500000e+00
      vertex 1.854665e+01 -1.479900e+01 8.500000e+00
    endloop
  endfacet
  facet normal 0.000000e+00 1.224647e-16 1.000000e+00
    outer loop
      vertex 5.679653e+00 -7.821730e-01 8.500000e+00
      vertex 1.854665e+01 -1.479900e+01 8.500000e+00
      vertex 2.089065e+01 -1.714300e+01 8.500000e+00
    endloop
  endfacet
  facet normal 0.000000e+00 1.224647e-16 1.000000e+00
    outer loop
      vertex 5.679653e+00 -7.821730e-01 8.500000e+00
      vertex 2.089065e+01 -1.714300e+01 8.500000e+00
      vertex 2.185265e+01 -1.763330e+01 8.500000e+00
    endloop
  endfacet
  facet normal 0.000000e+00 1.224647e-16 1.000000e+00
    outer loop
      vertex 5.679653e+00 -7.821730e-01 8.500000e+00
      vertex 2.185265e+01 -1.763330e+01 8.500000e+00
      vertex 2.307565e+01 -1.790670e+01 8.500000e+00
    endloop
  endfacet
  facet normal 0.000000e+00 1.224647e-16 1.000000e+00
    outer loop
      vertex 5.679653e+00 -7.821730e-01 8.500000e+00
      vertex 2.307565e+01 -1.790670e+01 8.500000e+00
      vertex 2.432885e+01 -1.786740e+01 8.500000e+00
    endloop
  endfacet
  facet normal 0.000000e+00 1.224647e-16 1.000000e+00
    outer loop
      vertex 5.679653e+00 -7.821730e-01 8.500000e+00
      vertex 2.432885e+01 -1.786740e+01 8.500000e+00
      vertex 2.553235e+01 -1.751770e+01 8.500000e+00
    endloop
  endfacet
  facet normal 0.000000e+00 1.224647e-16 1.000000e+00
    outer loop
      vertex 5.679653e+00 -7.821730e-01 8.500000e+00
      vertex 2.553235e+01 -1.751770e+01 8.500000e+00
      vertex 2.625565e+01 -1.708990e+01 8.500000e+00
    endloop
  endfacet
  facet normal 0.000000e+00 1.224647e-16 1.000000e+00
    outer loop
      vertex 5.679653e+00 -7.821730e-01 8.500000e+00
      vertex 2.625565e+01 -1.708990e+01 8.500000e+00
      vertex 4.068965e+01 -2.655950e+00 8.500000e+00
    endloop
  endfacet
  facet normal 0.000000e+00 1.224647e-16 1.000000e+00
    outer loop
      vertex 5.679653e+00 -7.821730e-01 8.500000e+00
      vertex 4.068965e+01 -2.655950e+00 8.500000e+00
      vertex 4.117995e+01 -1.693690e+00 8.500000e+00
    endloop
  endfacet
  facet normal 0.000000e+00 1.224647e-16 1.000000e+00
    outer loop
      vertex 5.679653e+00 -7.821730e-01 8.500000e+00
      vertex 4.117995e+01 -1.693690e+00 8.500000e+00
      vertex 4.145335e+01 -4.705410e-01 8.500000e+00
    endloop
  endfacet
  facet normal 0.000000e+00 1.224647e-16 1.000000e+00
    outer loop
      vertex 5.679653e+00 -7.821730e-01 8.500000e+00
      vertex 4.145335e+01 -4.705410e-01 8.500000e+00
      vertex 4.141405e+01 7.821730e-01 8.500000e+00
    endloop
  endfacet
  facet normal 0.000000e+00 1.224647e-16 1.000000e+00
    outer loop
      vertex 5.679653e+00 -7.821730e-01 8.500000e+00
      vertex 4.141405e+01 7.821730e-01 8.500000e+00
      vertex 4.106435e+01 1.985740e+00 8.500000e+00
    endloop
  endfacet
  facet normal 0.000000e+00 1.224647e-16 1.000000e+00
    outer loop
      vertex 5.679653e+00 -7.821730e-01 8.500000e+00
      vertex 4.106435e+01 1.985740e+00 8.500000e+00
      vertex 4.063655e+01 2.709050e+00 8.500000e+00
    endloop
  endfacet
  facet normal 0.000000e+00 1.224647e-16 1.000000e+00
    outer loop
      vertex 5.679653e+00 -7.821730e-01 8.500000e+00
      vertex 4.063655e+01 2.709050e+00 8.500000e+00
      vertex 2.620265e+01 1.714300e+01 8.500000e+00
    endloop
  endfacet
  facet normal 0.000000e+00 1.224647e-16 1.000000e+00
    outer loop
      vertex 5.679653e+00 -7.821730e-01 8.500000e+00
      vertex 2.620265e+01 1.714300e+01 8.500000e+00
      vertex 2.524035e+01 1.763330e+01 8.500000e+00
    endloop
  endfacet
  facet normal 0.000000e+00 1.224647e-16 1.000000e+00
    outer loop
      vertex 5.679653e+00 -7.821730e-01 8.500000e+00
      vertex 2.524035e+01 1.763330e+01 8.500000e+00
      vertex 2.401715e+01 1.790670e+01 8.500000e+00
    endloop
  endfacet
  facet normal 0.000000e+00 1.224647e-16 1.000000e+00
    outer loop
      vertex 5.679653e+00 -7.821730e-01 8.500000e+00
      vertex 2.401715e+01 1.790670e+01 8.500000e+00
      vertex 2.276465e+01 1.786740e+01 8.500000e+00
    endloop
  endfacet
  facet normal 0.000000e+00 1.224647e-16 1.000000e+00
    outer loop
      vertex 5.679653e+00 -7.821730e-01 8.500000e+00
      vertex 2.276465e+01 1.786740e+01 8.500000e+00
      vertex 2.156065e+01 1.751770e+01 8.500000e+00
    endloop
  endfacet
  facet normal 0.000000e+00 1.224647e-16 1.000000e+00
    outer loop
      vertex 5.679653e+00 -7.821730e-01 8.500000e+00
      vertex 2.156065e+01 1.751770e+01 8.500000e+00
      vertex 2.083765e+01 1.708990e+01 8.500000e+00
    endloop
  endfacet
  facet normal 0.000000e+00 1.224647e-16 1.000000e+00
    outer loop
      vertex 5.679653e+00 -7.821730e-01 8.500000e+00
      vertex 2.083765e+01 1.708990e+01 8.500000e+00
      vertex 1.854665e+01 1.479900e+01 8.500000e+00
    endloop
  endfacet
  facet normal 0.000000e+00 1.224647e-16 1.000000e+00
    outer loop
      vertex 5.679653e+00 -7.821730e-01 8.500000e+00
      vertex 1.854665e+01 1.479900e+01 8.500000e+00
      vertex 6.403652e+00 2.655950e+00 8.500000e+00
    endloop
  endfacet
  facet normal 0.000000e+00 1.224647e-16 1.000000e+00
    outer loop
      vertex 5.679653e+00 -7.821730e-01 8.500000e+00
      vertex 6.403652e+00 2.655950e+00 8.500000e+00
      vertex 5.913647e+00 1.693690e+00 8.500000e+00
    endloop
  endfacet
  facet normal 0.000000e+00 1.224647e-16 1.000000e+00
    outer loop
      vertex 5.679653e+00 -7.821730e-01 8.500000e+00
      vertex 5.913647e+00 1.693690e+00 8.500000e+00
      vertex 5.639652e+00 4.705410e-01 8.500000e+00
    endloop
  endfacet
  facet normal 0.000000e+00 1.224647e-16 1.000000e+00
    outer loop
      vertex -3.971348e+00 -1.985740e+00 8.500000e+00
      vertex -3.543346e+00 -2.709050e+00 8.500000e+00
      vertex -4.320347e+00 -7.821730e-01 8.500000e+00
    endloop
  endfacet
  facet normal 0.000000e+00 1.224647e-16 1.000000e+00
    outer loop
      vertex -4.320347e+00 -7.821730e-01 8.500000e+00
      vertex -3.543346e+00 -2.709050e+00 8.500000e+00
      vertex 1.089065e+01 -1.714300e+01 8.500000e+00
    endloop
  endfacet
  facet normal 0.000000e+00 1.224647e-16 1.000000e+00
    outer loop
      vertex -4.320347e+00 -7.821730e-01 8.500000e+00
      vertex 1.089065e+01 -1.714300e+01 8.500000e+00
      vertex 1.185265e+01 -1.763330e+01 8.500000e+00
    endloop
  endfacet
  facet normal 0.000000e+00 1.224647e-16 1.000000e+00
    outer loop
      vertex -4.320347e+00 -7.821730e-01 8.500000e+00
      vertex 1.185265e+01 -1.763330e+01 8.500000e+00
      vertex 1.307565e+01 -1.790670e+01 8.500000e+00
    endloop
  endfacet
  facet normal 0.000000e+00 1.224647e-16 1.000000e+00
    outer loop
      vertex -4.320347e+00 -7.821730e-01 8.500000e+00
      vertex 1.307565e+01 -1.790670e+01 8.500000e+00
      vertex 1.432865e+01 -1.786740e+01 8.500000e+00
    endloop
  endfacet
  facet normal 0.000000e+00 1.224647e-16 1.000000e+00
    outer loop
      vertex -4.320347e+00 -7.821730e-01 8.500000e+00
      vertex 1.432865e+01 -1.786740e+01 8.500000e+00
      vertex 1.553265e+01 -1.751770e+01 8.500000e+00
    endloop
  endfacet
  facet normal 0.000000e+00 1.224647e-16 1.000000e+00
    outer loop
      vertex -4.320347e+00 -7.821730e-01 8.500000e+00
      vertex 1.553265e+01 -1.751770e+01 8.500000e+00
      vertex 1.625565e+01 -1.708990e+01 8.500000e+00
    endloop
  endfacet
  facet normal 0.000000e+00 1.224647e-16 1.000000e+00
    outer loop
      vertex -4.320347e+00 -7.821730e-01 8.500000e+00
      vertex 1.625565e+01 -1.708990e+01 8.500000e+00
      vertex 1.854665e+01 -1.479900e+01 8.500000e+00
    endloop
  endfacet
  facet normal 0.000000e+00 1.224647e-16 1.000000e+00
    outer loop
      vertex -4.320347e+00 -7.821730e-01 8.500000e+00
      vertex 1.854665e+01 -1.479900e+01 8.500000e+00
      vertex 6.456654e+00 -2.709050e+00 8.500000e+00
    endloop
  endfacet
  facet normal 0.000000e+00 1.224647e-16 1.000000e+00
    outer loop
      vertex -4.320347e+00 -7.821730e-01 8.500000e+00
      vertex 6.456654e+00 -2.709050e+00 8.500000e+00
      vertex 6.028652e+00 -1.985740e+00 8.500000e+00
    endloop
  endfacet
  facet normal 0.000000e+00 1.224647e-16 1.000000e+00
    outer loop
      vertex 6.028652e+00 -1.985740e+00 8.500000e+00
      vertex 5.679653e+00 -7.821730e-01 8.500000e+00
      vertex -4.320347e+00 -7.821730e-01 8.500000e+00
    endloop
  endfacet
  facet normal 0.000000e+00 1.224647e-16 1.000000e+00
    outer loop
      vertex 5.679653e+00 -7.821730e-01 8.500000e+00
      vertex 5.639652e+00 4.705410e-01 8.500000e+00
      vertex -4.320347e+00 -7.821730e-01 8.500000e+00
    endloop
  endfacet
  facet normal 0.000000e+00 1.224647e-16 1.000000e+00
    outer loop
      vertex 5.639652e+00 4.705410e-01 8.500000e+00
      vertex 5.913647e+00 1.693690e+00 8.500000e+00
      vertex -4.320347e+00 -7.821730e-01 8.500000e+00
    endloop
  endfacet
  facet normal 0.000000e+00 1.224647e-16 1.000000e+00
    outer loop
      vertex 5.913647e+00 1.693690e+00 8.500000e+00
      vertex 6.403652e+00 2.655950e+00 8.500000e+00
      vertex -4.320347e+00 -7.821730e-01 8.500000e+00
    endloop
  endfacet
  facet normal 0.000000e+00 1.224647e-16 1.000000e+00
    outer loop
      vertex 6.403652e+00 2.655950e+00 8.500000e+00
      vertex 1.854665e+01 1.479900e+01 8.500000e+00
      vertex -4.320347e+00 -7.821730e-01 8.500000e+00
    endloop
  endfacet
  facet normal 0.000000e+00 1.224647e-16 1.000000e+00
    outer loop
      vertex -4.320347e+00 -7.821730e-01 8.500000e+00
      vertex 1.854665e+01 1.479900e+01 8.500000e+00
      vertex 1.620265e+01 1.714300e+01 8.500000e+00
    endloop
  endfacet
  facet normal 0.000000e+00 1.224647e-16 1.000000e+00
    outer loop
      vertex -4.320347e+00 -7.821730e-01 8.500000e+00
      vertex 1.620265e+01 1.714300e+01 8.500000e+00
      vertex 1.524065e+01 1.763330e+01 8.500000e+00
    endloop
  endfacet
  facet normal 0.000000e+00 1.224647e-16 1.000000e+00
    outer loop
      vertex -4.320347e+00 -7.821730e-01 8.500000e+00
      vertex 1.524065e+01 1.763330e+01 8.500000e+00
      vertex 1.401765e+01 1.790670e+01 8.500000e+00
    endloop
  endfacet
  facet normal 0.000000e+00 1.224647e-16 1.000000e+00
    outer loop
      vertex -4.320347e+00 -7.821730e-01 8.500000e+00
      vertex 1.401765e+01 1.790670e+01 8.500000e+00
      vertex 1.276465e+01 1.786740e+01 8.500000e+00
    endloop
  endfacet
  facet normal 0.000000e+00 1.224647e-16 1.000000e+00
    outer loop
      vertex -4.320347e+00 -7.821730e-01 8.500000e+00
      vertex 1.276465e+01 1.786740e+01 8.500000e+00
      vertex 1.156065e+01 1.751770e+01 8.500000e+00
    endloop
  endfacet
  facet normal 0.000000e+00 1.224647e-16 1.000000e+00
    outer loop
      vertex -4.320347e+00 -7.821730e-01 8.500000e+00
      vertex 1.156065e+01 1.751770e+01 8.500000e+00
      vertex 1.083765e+01 1.708990e+01 8.500000e+00
    endloop
  endfacet
  facet normal 0.000000e+00 1.224647e-16 1.000000e+00
    outer loop
      vertex -4.320347e+00 -7.821730e-01 8.500000e+00
      vertex 1.083765e+01 1.708990e+01 8.500000e+00
      vertex -3.596348e+00 2.655950e+00 8.500000e+00
    endloop
  endfacet
  facet normal 0.000000e+00 1.224647e-16 1.000000e+00
    outer loop
      vertex -4.320347e+00 -7.821730e-01 8.500000e+00
      vertex -3.596348e+00 2.655950e+00 8.500000e+00
      vertex -4.086353e+00 1.693690e+00 8.500000e+00
    endloop
  endfacet
  facet normal 0.000000e+00 1.224647e-16 1.000000e+00
    outer loop
      vertex -4.320347e+00 -7.821730e-01 8.500000e+00
      vertex -4.086353e+00 1.693690e+00 8.500000e+00
      vertex -4.360348e+00 4.705410e-01 8.500000e+00
    endloop
  endfacet
  facet normal 0.000000e+00 -1.224647e-16 -1.000000e+00
    outer loop
      vertex -2.369735e+01 1.941140e+00 1.350000e+01
      vertex -2.294835e+01 3.750000e+00 1.350000e+01
      vertex -2.175634e+01 5.303300e+00 1.350000e+01
    endloop
  endfacet
  facet normal 0.000000e+00 -1.224647e-16 -1.000000e+00
    outer loop
      vertex -1.839434e+01 7.244440e+00 1.350000e+01
      vertex -2.369735e+01 1.941140e+00 1.350000e+01
      vertex -2.020335e+01 6.495190e+00 1.350000e+01
    endloop
  endfacet
  facet normal 0.000000e+00 -1.224647e-16 -1.000000e+00
    outer loop
      vertex -2.020335e+01 6.495190e+00 1.350000e+01
      vertex -2.369735e+01 1.941140e+00 1.350000e+01
      vertex -2.175634e+01 5.303300e+00 1.350000e+01
    endloop
  endfacet
  facet normal 0.000000e+00 -1.224647e-16 -1.000000e+00
    outer loop
      vertex -1.645335e+01 7.500000e+00 1.350000e+01
      vertex -2.369735e+01 1.941140e+00 1.350000e+01
      vertex -1.839434e+01 7.244440e+00 1.350000e+01
    endloop
  endfacet
  facet normal 0.000000e+00 -1.224647e-16 -1.000000e+00
    outer loop
      vertex -1.451236e+01 7.244440e+00 1.350000e+01
      vertex -2.369735e+01 1.941140e+00 1.350000e+01
      vertex -1.645335e+01 7.500000e+00 1.350000e+01
    endloop
  endfacet
  facet normal 0.000000e+00 -1.224647e-16 -1.000000e+00
    outer loop
      vertex -1.270335e+01 6.495190e+00 1.350000e+01
      vertex -2.369735e+01 1.941140e+00 1.350000e+01
      vertex -1.451236e+01 7.244440e+00 1.350000e+01
    endloop
  endfacet
  facet normal 0.000000e+00 -1.224647e-16 -1.000000e+00
    outer loop
      vertex -1.115036e+01 5.303300e+00 1.350000e+01
      vertex -2.369735e+01 1.941140e+00 1.350000e+01
      vertex -1.270335e+01 6.495190e+00 1.350000e+01
    endloop
  endfacet
  facet normal 0.000000e+00 -1.224647e-16 -1.000000e+00
    outer loop
      vertex -9.958355e+00 3.750000e+00 1.350000e+01
      vertex -2.369735e+01 1.941140e+00 1.350000e+01
      vertex -1.115036e+01 5.303300e+00 1.350000e+01
    endloop
  endfacet
  facet normal 0.000000e+00 -1.224647e-16 -1.000000e+00
    outer loop
      vertex -9.209347e+00 1.941140e+00 1.350000e+01
      vertex -2.369735e+01 1.941140e+00 1.350000e+01
      vertex -9.958355e+00 3.750000e+00 1.350000e+01
    endloop
  endfacet
  facet normal 0.000000e+00 -1.224647e-16 -1.000000e+00
    outer loop
      vertex -8.953350e+00 -4.286264e-16 1.350000e+01
      vertex -2.369735e+01 1.941140e+00 1.350000e+01
      vertex -9.209347e+00 1.941140e+00 1.350000e+01
    endloop
  endfacet
  facet normal 0.000000e+00 -1.224647e-16 -1.000000e+00
    outer loop
      vertex -9.209347e+00 -1.941140e+00 1.350000e+01
      vertex -2.369735e+01 1.941140e+00 1.350000e+01
      vertex -8.953350e+00 -4.286264e-16 1.350000e+01
    endloop
  endfacet
  facet normal 0.000000e+00 -1.224647e-16 -1.000000e+00
    outer loop
      vertex -9.958355e+00 -3.750000e+00 1.350000e+01
      vertex -2.369735e+01 1.941140e+00 1.350000e+01
      vertex -9.209347e+00 -1.941140e+00 1.350000e+01
    endloop
  endfacet
  facet normal 0.000000e+00 -1.224647e-16 -1.000000e+00
    outer loop
      vertex -1.115036e+01 -5.303300e+00 1.350000e+01
      vertex -2.369735e+01 1.941140e+00 1.350000e+01
      vertex -9.958355e+00 -3.750000e+00 1.350000e+01
    endloop
  endfacet
  facet normal 0.000000e+00 -1.224647e-16 -1.000000e+00
    outer loop
      vertex -1.270335e+01 -6.495190e+00 1.350000e+01
      vertex -2.369735e+01 1.941140e+00 1.350000e+01
      vertex -1.115036e+01 -5.303300e+00 1.350000e+01
    endloop
  endfacet
  facet normal 0.000000e+00 -1.224647e-16 -1.000000e+00
    outer loop
      vertex -1.451236e+01 -7.244440e+00 1.350000e+01
      vertex -2.369735e+01 1.941140e+00 1.350000e+01
      vertex -1.270335e+01 -6.495190e+00 1.350000e+01
    endloop
  endfacet
  facet normal 0.000000e+00 -1.224647e-16 -1.000000e+00
    outer loop
      vertex -1.645335e+01 -7.500000e+00 1.350000e+01
      vertex -2.369735e+01 1.941140e+00 1.350000e+01
      vertex -1.451236e+01 -7.244440e+00 1.350000e+01
    endloop
  endfacet
  facet normal 0.000000e+00 -1.224647e-16 -1.000000e+00
    outer loop
      vertex -1.839434e+01 -7.244440e+00 1.350000e+01
      vertex -2.369735e+01 1.941140e+00 1.350000e+01
      vertex -1.645335e+01 -7.500000e+00 1.350000e+01
    endloop
  endfacet
  facet normal 0.000000e+00 -1.224647e-16 -1.000000e+00
    outer loop
      vertex -2.020335e+01 -6.495190e+00 1.350000e+01
      vertex -2.369735e+01 1.941140e+00 1.350000e+01
      vertex -1.839434e+01 -7.244440e+00 1.350000e+01
    endloop
  endfacet
  facet normal 0.000000e+00 -1.224647e-16 -1.000000e+00
    outer loop
      vertex -2.175634e+01 -5.303300e+00 1.350000e+01
      vertex -2.369735e+01 1.941140e+00 1.350000e+01
      vertex -2.020335e+01 -6.495190e+00 1.350000e+01
    endloop
  endfacet
  facet normal 0.000000e+00 -1.224647e-16 -1.000000e+00
    outer loop
      vertex -2.294835e+01 -3.750000e+00 1.350000e+01
      vertex -2.369735e+01 1.941140e+00 1.350000e+01
      vertex -2.175634e+01 -5.303300e+00 1.350000e+01
    endloop
  endfacet
  facet normal 0.000000e+00 -1.224647e-16 -1.000000e+00
    outer loop
      vertex -2.369735e+01 -1.941140e+00 1.350000e+01
      vertex -2.369735e+01 1.941140e+00 1.350000e+01
      vertex -2.294835e+01 -3.750000e+00 1.350000e+01
    endloop
  endfacet
  facet normal 0.000000e+00 -1.224647e-16 -1.000000e+00
    outer loop
      vertex -2.395335e+01 -4.286264e-16 1.350000e+01
      vertex -2.369735e+01 1.941140e+00 1.350000e+01
      vertex -2.369735e+01 -1.941140e+00 1.350000e+01
    endloop
  endfacet
endsolid Default
