solid Default
  facet normal -8.660253e-01 -5.000002e-01 -0.000000e+00
    outer loop
      vertex -2.837810e+01 2.288740e+01 0.000000e+00
      vertex -1.070150e+00 -2.441130e+01 0.000000e+00
      vertex -2.837810e+01 2.288740e+01 1.500000e+01
    endloop
  endfacet
  facet normal -8.660253e-01 -5.000002e-01 0.000000e+00
    outer loop
      vertex -2.837810e+01 2.288740e+01 1.500000e+01
      vertex -1.070150e+00 -2.441130e+01 0.000000e+00
      vertex -1.070150e+00 -2.441130e+01 1.500000e+01
    endloop
  endfacet
  facet normal 0.000000e+00 0.000000e+00 -1.000000e+00
    outer loop
      vertex -2.837810e+01 2.288740e+01 0.000000e+00
      vertex -2.835530e+01 2.332130e+01 0.000000e+00
      vertex -1.070150e+00 -2.441130e+01 0.000000e+00
    endloop
  endfacet
  facet normal 0.000000e+00 0.000000e+00 -1.000000e+00
    outer loop
      vertex -1.070150e+00 -2.441130e+01 0.000000e+00
      vertex -2.835530e+01 2.332130e+01 0.000000e+00
      vertex -2.820540e+01 2.379960e+01 0.000000e+00
    endloop
  endfacet
  facet normal 0.000000e+00 0.000000e+00 -1.000000e+00
    outer loop
      vertex -1.070150e+00 -2.441130e+01 0.000000e+00
      vertex -2.820540e+01 2.379960e+01 0.000000e+00
      vertex -2.794120e+01 2.422570e+01 0.000000e+00
    endloop
  endfacet
  facet normal 0.000000e+00 0.000000e+00 -1.000000e+00
    outer loop
      vertex -1.070150e+00 -2.441130e+01 0.000000e+00
      vertex -2.794120e+01 2.422570e+01 0.000000e+00
      vertex -2.757940e+01 2.457270e+01 0.000000e+00
    endloop
  endfacet
  facet normal 0.000000e+00 0.000000e+00 -1.000000e+00
    outer loop
      vertex -1.070150e+00 -2.441130e+01 0.000000e+00
      vertex -2.757940e+01 2.457270e+01 0.000000e+00
      vertex -2.729780e+01 2.473140e+01 0.000000e+00
    endloop
  endfacet
  facet normal 0.000000e+00 0.000000e+00 -1.000000e+00
    outer loop
      vertex 2.909370e+00 1.571869e+01 0.000000e+00
      vertex -2.729780e+01 2.473140e+01 0.000000e+00
      vertex 2.731790e+01 2.473130e+01 0.000000e+00
    endloop
  endfacet
  facet normal 0.000000e+00 0.000000e+00 -1.000000e+00
    outer loop
      vertex -1.070150e+00 -2.441130e+01 0.000000e+00
      vertex 2.731790e+01 2.473130e+01 0.000000e+00
      vertex 2.768230e+01 2.449470e+01 0.000000e+00
    endloop
  endfacet
  facet normal 0.000000e+00 0.000000e+00 -1.000000e+00
    outer loop
      vertex -1.070150e+00 -2.441130e+01 0.000000e+00
      vertex 2.768230e+01 2.449470e+01 0.000000e+00
      vertex 2.802160e+01 2.412560e+01 0.000000e+00
    endloop
  endfacet
  facet normal 0.000000e+00 0.000000e+00 -1.000000e+00
    outer loop
      vertex -1.070150e+00 -2.441130e+01 0.000000e+00
      vertex 2.802160e+01 2.412560e+01 0.000000e+00
      vertex 2.825850e+01 2.368380e+01 0.000000e+00
    endloop
  endfacet
  facet normal 0.000000e+00 0.000000e+00 -1.000000e+00
    outer loop
      vertex -1.070150e+00 -2.441130e+01 0.000000e+00
      vertex 2.825850e+01 2.368380e+01 0.000000e+00
      vertex 2.837810e+01 2.319700e+01 0.000000e+00
    endloop
  endfacet
  facet normal 0.000000e+00 0.000000e+00 -1.000000e+00
    outer loop
      vertex -1.070150e+00 -2.441130e+01 0.000000e+00
      vertex 2.837810e+01 2.319700e+01 0.000000e+00
      vertex 2.837470e+01 2.287390e+01 0.000000e+00
    endloop
  endfacet
  facet normal 0.000000e+00 0.000000e+00 -1.000000e+00
    outer loop
      vertex -1.070150e+00 -2.441130e+01 0.000000e+00
      vertex 2.837470e+01 2.287390e+01 0.000000e+00
      vertex 1.066960e+00 -2.442470e+01 0.000000e+00
    endloop
  endfacet
  facet normal 0.000000e+00 0.000000e+00 -1.000000e+00
    outer loop
      vertex -1.070150e+00 -2.441130e+01 0.000000e+00
      vertex 1.066960e+00 -2.442470e+01 0.000000e+00
      vertex 6.796751e-01 -2.462200e+01 0.000000e+00
    endloop
  endfacet
  facet normal 0.000000e+00 0.000000e+00 -1.000000e+00
    outer loop
      vertex -1.070150e+00 -2.441130e+01 0.000000e+00
      vertex 6.796751e-01 -2.462200e+01 0.000000e+00
      vertex 1.904161e-01 -2.473140e+01 0.000000e+00
    endloop
  endfacet
  facet normal 0.000000e+00 0.000000e+00 -1.000000e+00
    outer loop
      vertex -1.070150e+00 -2.441130e+01 0.000000e+00
      vertex 1.904161e-01 -2.473140e+01 0.000000e+00
      vertex -3.106689e-01 -2.471560e+01 0.000000e+00
    endloop
  endfacet
  facet normal 0.000000e+00 0.000000e+00 -1.000000e+00
    outer loop
      vertex -1.070150e+00 -2.441130e+01 0.000000e+00
      vertex -3.106689e-01 -2.471560e+01 0.000000e+00
      vertex -7.920959e-01 -2.457580e+01 0.000000e+00
    endloop
  endfacet
  facet normal 0.000000e+00 0.000000e+00 -1.000000e+00
    outer loop
      vertex -8.368670e+00 6.255290e+00 0.000000e+00
      vertex -2.729780e+01 2.473140e+01 0.000000e+00
      vertex -8.483419e+00 8.225531e+00 0.000000e+00
    endloop
  endfacet
  facet normal 0.000000e+00 0.000000e+00 -1.000000e+00
    outer loop
      vertex -1.070150e+00 -2.441130e+01 0.000000e+00
      vertex -2.729780e+01 2.473140e+01 0.000000e+00
      vertex -8.368670e+00 6.255290e+00 0.000000e+00
    endloop
  endfacet
  facet normal 0.000000e+00 0.000000e+00 -1.000000e+00
    outer loop
      vertex -1.070150e+00 -2.441130e+01 0.000000e+00
      vertex -8.368670e+00 6.255290e+00 0.000000e+00
      vertex -7.802640e+00 4.364620e+00 0.000000e+00
    endloop
  endfacet
  facet normal 0.000000e+00 0.000000e+00 -1.000000e+00
    outer loop
      vertex 7.807040e+00 4.364620e+00 0.000000e+00
      vertex 2.731790e+01 2.473130e+01 0.000000e+00
      vertex 6.820250e+00 2.655450e+00 0.000000e+00
    endloop
  endfacet
  facet normal 0.000000e+00 0.000000e+00 -1.000000e+00
    outer loop
      vertex -1.070150e+00 -2.441130e+01 0.000000e+00
      vertex -6.815850e+00 2.655450e+00 0.000000e+00
      vertex -5.461490e+00 1.219920e+00 0.000000e+00
    endloop
  endfacet
  facet normal 0.000000e+00 0.000000e+00 -1.000000e+00
    outer loop
      vertex -1.070150e+00 -2.441130e+01 0.000000e+00
      vertex -5.461490e+00 1.219920e+00 0.000000e+00
      vertex -3.812590e+00 1.354203e-01 0.000000e+00
    endloop
  endfacet
  facet normal 0.000000e+00 0.000000e+00 -1.000000e+00
    outer loop
      vertex -1.070150e+00 -2.441130e+01 0.000000e+00
      vertex -3.812590e+00 1.354203e-01 0.000000e+00
      vertex -1.958030e+00 -5.395794e-01 0.000000e+00
    endloop
  endfacet
  facet normal 0.000000e+00 0.000000e+00 -1.000000e+00
    outer loop
      vertex -1.070150e+00 -2.441130e+01 0.000000e+00
      vertex -1.958030e+00 -5.395794e-01 0.000000e+00
      vertex 2.200161e-03 -7.686996e-01 0.000000e+00
    endloop
  endfacet
  facet normal 0.000000e+00 0.000000e+00 -1.000000e+00
    outer loop
      vertex -1.070150e+00 -2.441130e+01 0.000000e+00
      vertex 2.200161e-03 -7.686996e-01 0.000000e+00
      vertex 1.962440e+00 -5.395794e-01 0.000000e+00
    endloop
  endfacet
  facet normal 0.000000e+00 0.000000e+00 -1.000000e+00
    outer loop
      vertex -1.070150e+00 -2.441130e+01 0.000000e+00
      vertex 1.962440e+00 -5.395794e-01 0.000000e+00
      vertex 3.816990e+00 1.354203e-01 0.000000e+00
    endloop
  endfacet
  facet normal 0.000000e+00 0.000000e+00 -1.000000e+00
    outer loop
      vertex -1.070150e+00 -2.441130e+01 0.000000e+00
      vertex 3.816990e+00 1.354203e-01 0.000000e+00
      vertex 5.465900e+00 1.219920e+00 0.000000e+00
    endloop
  endfacet
  facet normal 0.000000e+00 0.000000e+00 -1.000000e+00
    outer loop
      vertex -1.070150e+00 -2.441130e+01 0.000000e+00
      vertex 5.465900e+00 1.219920e+00 0.000000e+00
      vertex 6.820250e+00 2.655450e+00 0.000000e+00
    endloop
  endfacet
  facet normal 0.000000e+00 0.000000e+00 -1.000000e+00
    outer loop
      vertex -1.070150e+00 -2.441130e+01 0.000000e+00
      vertex 6.820250e+00 2.655450e+00 0.000000e+00
      vertex 2.731790e+01 2.473130e+01 0.000000e+00
    endloop
  endfacet
  facet normal 0.000000e+00 0.000000e+00 -1.000000e+00
    outer loop
      vertex 8.373070e+00 6.255290e+00 0.000000e+00
      vertex 2.731790e+01 2.473130e+01 0.000000e+00
      vertex 7.807040e+00 4.364620e+00 0.000000e+00
    endloop
  endfacet
  facet normal 0.000000e+00 0.000000e+00 -1.000000e+00
    outer loop
      vertex 8.487820e+00 8.225531e+00 0.000000e+00
      vertex 2.731790e+01 2.473130e+01 0.000000e+00
      vertex 8.373070e+00 6.255290e+00 0.000000e+00
    endloop
  endfacet
  facet normal 0.000000e+00 0.000000e+00 -1.000000e+00
    outer loop
      vertex 8.145110e+00 1.016913e+01 0.000000e+00
      vertex 2.731790e+01 2.473130e+01 0.000000e+00
      vertex 8.487820e+00 8.225531e+00 0.000000e+00
    endloop
  endfacet
  facet normal 0.000000e+00 0.000000e+00 -1.000000e+00
    outer loop
      vertex 7.363420e+00 1.198130e+01 0.000000e+00
      vertex 2.731790e+01 2.473130e+01 0.000000e+00
      vertex 8.145110e+00 1.016913e+01 0.000000e+00
    endloop
  endfacet
  facet normal 0.000000e+00 0.000000e+00 -1.000000e+00
    outer loop
      vertex 4.673030e+00 1.483295e+01 0.000000e+00
      vertex 2.731790e+01 2.473130e+01 0.000000e+00
      vertex 6.184880e+00 1.356435e+01 0.000000e+00
    endloop
  endfacet
  facet normal 0.000000e+00 0.000000e+00 -1.000000e+00
    outer loop
      vertex 7.363420e+00 1.198130e+01 0.000000e+00
      vertex 6.184880e+00 1.356435e+01 0.000000e+00
      vertex 2.731790e+01 2.473130e+01 0.000000e+00
    endloop
  endfacet
  facet normal -0.000000e+00 -0.000000e+00 -1.000000e+00
    outer loop
      vertex -9.845899e-01 1.617383e+01 0.000000e+00
      vertex -2.729780e+01 2.473140e+01 0.000000e+00
      vertex 9.889901e-01 1.617383e+01 0.000000e+00
    endloop
  endfacet
  facet normal -0.000000e+00 -0.000000e+00 -1.000000e+00
    outer loop
      vertex 9.889901e-01 1.617383e+01 0.000000e+00
      vertex -2.729780e+01 2.473140e+01 0.000000e+00
      vertex 2.909370e+00 1.571869e+01 0.000000e+00
    endloop
  endfacet
  facet normal 0.000000e+00 0.000000e+00 -1.000000e+00
    outer loop
      vertex 4.673030e+00 1.483295e+01 0.000000e+00
      vertex 2.909370e+00 1.571869e+01 0.000000e+00
      vertex 2.731790e+01 2.473130e+01 0.000000e+00
    endloop
  endfacet
  facet normal 0.000000e+00 0.000000e+00 -1.000000e+00
    outer loop
      vertex -2.904970e+00 1.571869e+01 0.000000e+00
      vertex -2.729780e+01 2.473140e+01 0.000000e+00
      vertex -9.845899e-01 1.617383e+01 0.000000e+00
    endloop
  endfacet
  facet normal 0.000000e+00 0.000000e+00 -1.000000e+00
    outer loop
      vertex -4.668630e+00 1.483295e+01 0.000000e+00
      vertex -2.729780e+01 2.473140e+01 0.000000e+00
      vertex -2.904970e+00 1.571869e+01 0.000000e+00
    endloop
  endfacet
  facet normal 0.000000e+00 0.000000e+00 -1.000000e+00
    outer loop
      vertex -6.180480e+00 1.356435e+01 0.000000e+00
      vertex -2.729780e+01 2.473140e+01 0.000000e+00
      vertex -4.668630e+00 1.483295e+01 0.000000e+00
    endloop
  endfacet
  facet normal 0.000000e+00 0.000000e+00 -1.000000e+00
    outer loop
      vertex -7.359020e+00 1.198130e+01 0.000000e+00
      vertex -2.729780e+01 2.473140e+01 0.000000e+00
      vertex -6.180480e+00 1.356435e+01 0.000000e+00
    endloop
  endfacet
  facet normal 0.000000e+00 0.000000e+00 -1.000000e+00
    outer loop
      vertex -8.140710e+00 1.016913e+01 0.000000e+00
      vertex -2.729780e+01 2.473140e+01 0.000000e+00
      vertex -7.359020e+00 1.198130e+01 0.000000e+00
    endloop
  endfacet
  facet normal 0.000000e+00 0.000000e+00 -1.000000e+00
    outer loop
      vertex -8.483419e+00 8.225531e+00 0.000000e+00
      vertex -2.729780e+01 2.473140e+01 0.000000e+00
      vertex -8.140710e+00 1.016913e+01 0.000000e+00
    endloop
  endfacet
  facet normal 0.000000e+00 0.000000e+00 -1.000000e+00
    outer loop
      vertex -6.815850e+00 2.655450e+00 0.000000e+00
      vertex -1.070150e+00 -2.441130e+01 0.000000e+00
      vertex -7.802640e+00 4.364620e+00 0.000000e+00
    endloop
  endfacet
  facet normal -9.986295e-01 5.233712e-02 0.000000e+00
    outer loop
      vertex -2.837810e+01 2.288740e+01 0.000000e+00
      vertex -2.837810e+01 2.288740e+01 1.500000e+01
      vertex -2.835530e+01 2.332130e+01 0.000000e+00
    endloop
  endfacet
  facet normal -9.986295e-01 5.233712e-02 0.000000e+00
    outer loop
      vertex -2.835530e+01 2.332130e+01 0.000000e+00
      vertex -2.837810e+01 2.288740e+01 1.500000e+01
      vertex -2.835530e+01 2.332130e+01 1.500000e+01
    endloop
  endfacet
  facet normal 0.000000e+00 0.000000e+00 1.000000e+00
    outer loop
      vertex -2.835530e+01 2.332130e+01 1.500000e+01
      vertex -2.837810e+01 2.288740e+01 1.500000e+01
      vertex -1.070150e+00 -2.441130e+01 1.500000e+01
    endloop
  endfacet
  facet normal 0.000000e+00 0.000000e+00 1.000000e+00
    outer loop
      vertex -3.106689e-01 -2.471560e+01 1.500000e+01
      vertex -2.835530e+01 2.332130e+01 1.500000e+01
      vertex -7.920959e-01 -2.457580e+01 1.500000e+01
    endloop
  endfacet
  facet normal 0.000000e+00 0.000000e+00 1.000000e+00
    outer loop
      vertex -7.920959e-01 -2.457580e+01 1.500000e+01
      vertex -2.835530e+01 2.332130e+01 1.500000e+01
      vertex -1.070150e+00 -2.441130e+01 1.500000e+01
    endloop
  endfacet
  facet normal 0.000000e+00 0.000000e+00 1.000000e+00
    outer loop
      vertex 1.904161e-01 -2.473140e+01 1.500000e+01
      vertex -2.835530e+01 2.332130e+01 1.500000e+01
      vertex -3.106689e-01 -2.471560e+01 1.500000e+01
    endloop
  endfacet
  facet normal 0.000000e+00 0.000000e+00 1.000000e+00
    outer loop
      vertex 6.796751e-01 -2.462200e+01 1.500000e+01
      vertex -2.835530e+01 2.332130e+01 1.500000e+01
      vertex 1.904161e-01 -2.473140e+01 1.500000e+01
    endloop
  endfacet
  facet normal 0.000000e+00 0.000000e+00 1.000000e+00
    outer loop
      vertex 1.066960e+00 -2.442470e+01 1.500000e+01
      vertex -2.835530e+01 2.332130e+01 1.500000e+01
      vertex 6.796751e-01 -2.462200e+01 1.500000e+01
    endloop
  endfacet
  facet normal 0.000000e+00 0.000000e+00 1.000000e+00
    outer loop
      vertex -7.802640e+00 4.364620e+00 1.500000e+01
      vertex -2.835530e+01 2.332130e+01 1.500000e+01
      vertex 1.066960e+00 -2.442470e+01 1.500000e+01
    endloop
  endfacet
  facet normal 0.000000e+00 0.000000e+00 1.000000e+00
    outer loop
      vertex 2.837810e+01 2.319700e+01 1.500000e+01
      vertex -2.835530e+01 2.332130e+01 1.500000e+01
      vertex 2.837470e+01 2.287390e+01 1.500000e+01
    endloop
  endfacet
  facet normal 0.000000e+00 0.000000e+00 1.000000e+00
    outer loop
      vertex 2.825850e+01 2.368380e+01 1.500000e+01
      vertex -2.835530e+01 2.332130e+01 1.500000e+01
      vertex 2.837810e+01 2.319700e+01 1.500000e+01
    endloop
  endfacet
  facet normal 0.000000e+00 0.000000e+00 1.000000e+00
    outer loop
      vertex 2.802160e+01 2.412560e+01 1.500000e+01
      vertex -2.835530e+01 2.332130e+01 1.500000e+01
      vertex 2.825850e+01 2.368380e+01 1.500000e+01
    endloop
  endfacet
  facet normal 0.000000e+00 0.000000e+00 1.000000e+00
    outer loop
      vertex 2.768230e+01 2.449470e+01 1.500000e+01
      vertex -2.835530e+01 2.332130e+01 1.500000e+01
      vertex 2.802160e+01 2.412560e+01 1.500000e+01
    endloop
  endfacet
  facet normal 0.000000e+00 0.000000e+00 1.000000e+00
    outer loop
      vertex 2.731790e+01 2.473130e+01 1.500000e+01
      vertex -2.835530e+01 2.332130e+01 1.500000e+01
      vertex 2.768230e+01 2.449470e+01 1.500000e+01
    endloop
  endfacet
  facet normal 0.000000e+00 0.000000e+00 1.000000e+00
    outer loop
      vertex -2.729780e+01 2.473140e+01 1.500000e+01
      vertex -2.835530e+01 2.332130e+01 1.500000e+01
      vertex 2.731790e+01 2.473130e+01 1.500000e+01
    endloop
  endfacet
  facet normal 0.000000e+00 0.000000e+00 1.000000e+00
    outer loop
      vertex -2.757940e+01 2.457270e+01 1.500000e+01
      vertex -2.835530e+01 2.332130e+01 1.500000e+01
      vertex -2.729780e+01 2.473140e+01 1.500000e+01
    endloop
  endfacet
  facet normal 0.000000e+00 0.000000e+00 1.000000e+00
    outer loop
      vertex -2.794120e+01 2.422570e+01 1.500000e+01
      vertex -2.835530e+01 2.332130e+01 1.500000e+01
      vertex -2.757940e+01 2.457270e+01 1.500000e+01
    endloop
  endfacet
  facet normal 0.000000e+00 0.000000e+00 1.000000e+00
    outer loop
      vertex -2.820540e+01 2.379960e+01 1.500000e+01
      vertex -2.835530e+01 2.332130e+01 1.500000e+01
      vertex -2.794120e+01 2.422570e+01 1.500000e+01
    endloop
  endfacet
  facet normal 0.000000e+00 0.000000e+00 1.000000e+00
    outer loop
      vertex -8.483419e+00 8.225531e+00 1.500000e+01
      vertex -2.835530e+01 2.332130e+01 1.500000e+01
      vertex -8.368670e+00 6.255290e+00 1.500000e+01
    endloop
  endfacet
  facet normal 0.000000e+00 0.000000e+00 1.000000e+00
    outer loop
      vertex -8.140710e+00 1.016913e+01 1.500000e+01
      vertex -2.835530e+01 2.332130e+01 1.500000e+01
      vertex -8.483419e+00 8.225531e+00 1.500000e+01
    endloop
  endfacet
  facet normal 0.000000e+00 0.000000e+00 1.000000e+00
    outer loop
      vertex 6.184880e+00 1.356435e+01 1.500000e+01
      vertex 7.363420e+00 1.198130e+01 1.500000e+01
      vertex 2.837470e+01 2.287390e+01 1.500000e+01
    endloop
  endfacet
  facet normal 0.000000e+00 0.000000e+00 1.000000e+00
    outer loop
      vertex -7.359020e+00 1.198130e+01 1.500000e+01
      vertex -2.835530e+01 2.332130e+01 1.500000e+01
      vertex -8.140710e+00 1.016913e+01 1.500000e+01
    endloop
  endfacet
  facet normal 0.000000e+00 0.000000e+00 1.000000e+00
    outer loop
      vertex -6.180480e+00 1.356435e+01 1.500000e+01
      vertex -2.835530e+01 2.332130e+01 1.500000e+01
      vertex -7.359020e+00 1.198130e+01 1.500000e+01
    endloop
  endfacet
  facet normal 0.000000e+00 0.000000e+00 1.000000e+00
    outer loop
      vertex -4.668630e+00 1.483295e+01 1.500000e+01
      vertex -2.835530e+01 2.332130e+01 1.500000e+01
      vertex -6.180480e+00 1.356435e+01 1.500000e+01
    endloop
  endfacet
  facet normal 0.000000e+00 0.000000e+00 1.000000e+00
    outer loop
      vertex -2.904970e+00 1.571869e+01 1.500000e+01
      vertex -2.835530e+01 2.332130e+01 1.500000e+01
      vertex -4.668630e+00 1.483295e+01 1.500000e+01
    endloop
  endfacet
  facet normal 0.000000e+00 0.000000e+00 1.000000e+00
    outer loop
      vertex 9.889901e-01 1.617383e+01 1.500000e+01
      vertex 2.909370e+00 1.571869e+01 1.500000e+01
      vertex 2.837470e+01 2.287390e+01 1.500000e+01
    endloop
  endfacet
  facet normal 0.000000e+00 0.000000e+00 1.000000e+00
    outer loop
      vertex -9.845899e-01 1.617383e+01 1.500000e+01
      vertex -2.835530e+01 2.332130e+01 1.500000e+01
      vertex -2.904970e+00 1.571869e+01 1.500000e+01
    endloop
  endfacet
  facet normal 0.000000e+00 0.000000e+00 1.000000e+00
    outer loop
      vertex 4.673030e+00 1.483295e+01 1.500000e+01
      vertex 6.184880e+00 1.356435e+01 1.500000e+01
      vertex 2.837470e+01 2.287390e+01 1.500000e+01
    endloop
  endfacet
  facet normal 0.000000e+00 0.000000e+00 1.000000e+00
    outer loop
      vertex 2.837470e+01 2.287390e+01 1.500000e+01
      vertex -2.835530e+01 2.332130e+01 1.500000e+01
      vertex -9.845899e-01 1.617383e+01 1.500000e+01
    endloop
  endfacet
  facet normal 0.000000e+00 0.000000e+00 1.000000e+00
    outer loop
      vertex 2.909370e+00 1.571869e+01 1.500000e+01
      vertex 4.673030e+00 1.483295e+01 1.500000e+01
      vertex 2.837470e+01 2.287390e+01 1.500000e+01
    endloop
  endfacet
  facet normal 0.000000e+00 0.000000e+00 1.000000e+00
    outer loop
      vertex 6.820250e+00 2.655450e+00 1.500000e+01
      vertex 5.465900e+00 1.219920e+00 1.500000e+01
      vertex 1.066960e+00 -2.442470e+01 1.500000e+01
    endloop
  endfacet
  facet normal 0.000000e+00 0.000000e+00 1.000000e+00
    outer loop
      vertex 7.807040e+00 4.364620e+00 1.500000e+01
      vertex 6.820250e+00 2.655450e+00 1.500000e+01
      vertex 1.066960e+00 -2.442470e+01 1.500000e+01
    endloop
  endfacet
  facet normal 0.000000e+00 0.000000e+00 1.000000e+00
    outer loop
      vertex -6.815850e+00 2.655450e+00 1.500000e+01
      vertex -7.802640e+00 4.364620e+00 1.500000e+01
      vertex 1.066960e+00 -2.442470e+01 1.500000e+01
    endloop
  endfacet
  facet normal 0.000000e+00 0.000000e+00 1.000000e+00
    outer loop
      vertex 2.837470e+01 2.287390e+01 1.500000e+01
      vertex 7.363420e+00 1.198130e+01 1.500000e+01
      vertex 8.145110e+00 1.016913e+01 1.500000e+01
    endloop
  endfacet
  facet normal 0.000000e+00 0.000000e+00 1.000000e+00
    outer loop
      vertex 2.837470e+01 2.287390e+01 1.500000e+01
      vertex 8.145110e+00 1.016913e+01 1.500000e+01
      vertex 8.487820e+00 8.225531e+00 1.500000e+01
    endloop
  endfacet
  facet normal 0.000000e+00 0.000000e+00 1.000000e+00
    outer loop
      vertex 2.837470e+01 2.287390e+01 1.500000e+01
      vertex 8.373070e+00 6.255290e+00 1.500000e+01
      vertex 1.066960e+00 -2.442470e+01 1.500000e+01
    endloop
  endfacet
  facet normal 0.000000e+00 0.000000e+00 1.000000e+00
    outer loop
      vertex 2.837470e+01 2.287390e+01 1.500000e+01
      vertex 8.487820e+00 8.225531e+00 1.500000e+01
      vertex 8.373070e+00 6.255290e+00 1.500000e+01
    endloop
  endfacet
  facet normal 0.000000e+00 0.000000e+00 1.000000e+00
    outer loop
      vertex 8.373070e+00 6.255290e+00 1.500000e+01
      vertex 7.807040e+00 4.364620e+00 1.500000e+01
      vertex 1.066960e+00 -2.442470e+01 1.500000e+01
    endloop
  endfacet
  facet normal 0.000000e+00 0.000000e+00 1.000000e+00
    outer loop
      vertex 5.465900e+00 1.219920e+00 1.500000e+01
      vertex 3.816990e+00 1.354203e-01 1.500000e+01
      vertex 1.066960e+00 -2.442470e+01 1.500000e+01
    endloop
  endfacet
  facet normal 0.000000e+00 0.000000e+00 1.000000e+00
    outer loop
      vertex 3.816990e+00 1.354203e-01 1.500000e+01
      vertex 1.962440e+00 -5.395794e-01 1.500000e+01
      vertex 1.066960e+00 -2.442470e+01 1.500000e+01
    endloop
  endfacet
  facet normal 0.000000e+00 0.000000e+00 1.000000e+00
    outer loop
      vertex 1.962440e+00 -5.395794e-01 1.500000e+01
      vertex 2.200161e-03 -7.686996e-01 1.500000e+01
      vertex 1.066960e+00 -2.442470e+01 1.500000e+01
    endloop
  endfacet
  facet normal 0.000000e+00 0.000000e+00 1.000000e+00
    outer loop
      vertex 2.200161e-03 -7.686996e-01 1.500000e+01
      vertex -1.958030e+00 -5.395794e-01 1.500000e+01
      vertex 1.066960e+00 -2.442470e+01 1.500000e+01
    endloop
  endfacet
  facet normal 0.000000e+00 0.000000e+00 1.000000e+00
    outer loop
      vertex -1.958030e+00 -5.395794e-01 1.500000e+01
      vertex -3.812590e+00 1.354203e-01 1.500000e+01
      vertex 1.066960e+00 -2.442470e+01 1.500000e+01
    endloop
  endfacet
  facet normal 0.000000e+00 0.000000e+00 1.000000e+00
    outer loop
      vertex -3.812590e+00 1.354203e-01 1.500000e+01
      vertex -5.461490e+00 1.219920e+00 1.500000e+01
      vertex 1.066960e+00 -2.442470e+01 1.500000e+01
    endloop
  endfacet
  facet normal 0.000000e+00 0.000000e+00 1.000000e+00
    outer loop
      vertex -5.461490e+00 1.219920e+00 1.500000e+01
      vertex -6.815850e+00 2.655450e+00 1.500000e+01
      vertex 1.066960e+00 -2.442470e+01 1.500000e+01
    endloop
  endfacet
  facet normal 0.000000e+00 0.000000e+00 1.000000e+00
    outer loop
      vertex -8.368670e+00 6.255290e+00 1.500000e+01
      vertex -2.835530e+01 2.332130e+01 1.500000e+01
      vertex -7.802640e+00 4.364620e+00 1.500000e+01
    endloop
  endfacet
  facet normal 0.000000e+00 0.000000e+00 1.000000e+00
    outer loop
      vertex -9.845899e-01 1.617383e+01 1.500000e+01
      vertex 9.889901e-01 1.617383e+01 1.500000e+01
      vertex 2.837470e+01 2.287390e+01 1.500000e+01
    endloop
  endfacet
  facet normal -5.090419e-01 -8.607418e-01 0.000000e+00
    outer loop
      vertex -1.070150e+00 -2.441130e+01 1.500000e+01
      vertex -1.070150e+00 -2.441130e+01 0.000000e+00
      vertex -7.920959e-01 -2.457580e+01 0.000000e+00
    endloop
  endfacet
  facet normal -5.090419e-01 -8.607418e-01 0.000000e+00
    outer loop
      vertex -7.920959e-01 -2.457580e+01 1.500000e+01
      vertex -1.070150e+00 -2.441130e+01 1.500000e+01
      vertex -7.920959e-01 -2.457580e+01 0.000000e+00
    endloop
  endfacet
  facet normal -2.789918e-01 -9.602935e-01 0.000000e+00
    outer loop
      vertex -7.920959e-01 -2.457580e+01 1.500000e+01
      vertex -7.920959e-01 -2.457580e+01 0.000000e+00
      vertex -3.106689e-01 -2.471560e+01 0.000000e+00
    endloop
  endfacet
  facet normal -2.789918e-01 -9.602935e-01 0.000000e+00
    outer loop
      vertex -3.106689e-01 -2.471560e+01 1.500000e+01
      vertex -7.920959e-01 -2.457580e+01 1.500000e+01
      vertex -3.106689e-01 -2.471560e+01 0.000000e+00
    endloop
  endfacet
  facet normal -3.140939e-02 -9.995066e-01 0.000000e+00
    outer loop
      vertex -3.106689e-01 -2.471560e+01 1.500000e+01
      vertex -3.106689e-01 -2.471560e+01 0.000000e+00
      vertex 1.904161e-01 -2.473140e+01 0.000000e+00
    endloop
  endfacet
  facet normal -3.140939e-02 -9.995066e-01 0.000000e+00
    outer loop
      vertex 1.904161e-01 -2.473140e+01 1.500000e+01
      vertex -3.106689e-01 -2.471560e+01 1.500000e+01
      vertex 1.904161e-01 -2.473140e+01 0.000000e+00
    endloop
  endfacet
  facet normal 2.181420e-01 -9.759171e-01 0.000000e+00
    outer loop
      vertex 1.904161e-01 -2.473140e+01 1.500000e+01
      vertex 1.904161e-01 -2.473140e+01 0.000000e+00
      vertex 6.796751e-01 -2.462200e+01 0.000000e+00
    endloop
  endfacet
  facet normal 2.181420e-01 -9.759171e-01 0.000000e+00
    outer loop
      vertex 6.796751e-01 -2.462200e+01 1.500000e+01
      vertex 1.904161e-01 -2.473140e+01 1.500000e+01
      vertex 6.796751e-01 -2.462200e+01 0.000000e+00
    endloop
  endfacet
  facet normal 4.539899e-01 -8.910068e-01 0.000000e+00
    outer loop
      vertex 6.796751e-01 -2.462200e+01 1.500000e+01
      vertex 6.796751e-01 -2.462200e+01 0.000000e+00
      vertex 1.066960e+00 -2.442470e+01 0.000000e+00
    endloop
  endfacet
  facet normal 4.539899e-01 -8.910068e-01 0.000000e+00
    outer loop
      vertex 1.066960e+00 -2.442470e+01 1.500000e+01
      vertex 6.796751e-01 -2.462200e+01 1.500000e+01
      vertex 1.066960e+00 -2.442470e+01 0.000000e+00
    endloop
  endfacet
  facet normal 8.660264e-01 -4.999982e-01 0.000000e+00
    outer loop
      vertex 1.066960e+00 -2.442470e+01 1.500000e+01
      vertex 1.066960e+00 -2.442470e+01 0.000000e+00
      vertex 2.837470e+01 2.287390e+01 0.000000e+00
    endloop
  endfacet
  facet normal 8.660264e-01 -4.999982e-01 0.000000e+00
    outer loop
      vertex 2.837470e+01 2.287390e+01 1.500000e+01
      vertex 1.066960e+00 -2.442470e+01 1.500000e+01
      vertex 2.837470e+01 2.287390e+01 0.000000e+00
    endloop
  endfacet
  facet normal 9.999452e-01 -1.047280e-02 0.000000e+00
    outer loop
      vertex 2.837470e+01 2.287390e+01 1.500000e+01
      vertex 2.837470e+01 2.287390e+01 0.000000e+00
      vertex 2.837810e+01 2.319700e+01 0.000000e+00
    endloop
  endfacet
  facet normal 9.999452e-01 -1.047280e-02 0.000000e+00
    outer loop
      vertex 2.837810e+01 2.319700e+01 1.500000e+01
      vertex 2.837470e+01 2.287390e+01 1.500000e+01
      vertex 2.837810e+01 2.319700e+01 0.000000e+00
    endloop
  endfacet
  facet normal 9.711344e-01 2.385331e-01 0.000000e+00
    outer loop
      vertex 2.837810e+01 2.319700e+01 0.000000e+00
      vertex 2.825850e+01 2.368380e+01 0.000000e+00
      vertex 2.825850e+01 2.368380e+01 1.500000e+01
    endloop
  endfacet
  facet normal 9.711344e-01 2.385331e-01 0.000000e+00
    outer loop
      vertex 2.837810e+01 2.319700e+01 1.500000e+01
      vertex 2.837810e+01 2.319700e+01 0.000000e+00
      vertex 2.825850e+01 2.368380e+01 1.500000e+01
    endloop
  endfacet
  facet normal 8.813028e-01 4.725519e-01 0.000000e+00
    outer loop
      vertex 2.825850e+01 2.368380e+01 0.000000e+00
      vertex 2.802160e+01 2.412560e+01 0.000000e+00
      vertex 2.802160e+01 2.412560e+01 1.500000e+01
    endloop
  endfacet
  facet normal 8.813028e-01 4.725519e-01 0.000000e+00
    outer loop
      vertex 2.825850e+01 2.368380e+01 1.500000e+01
      vertex 2.825850e+01 2.368380e+01 0.000000e+00
      vertex 2.802160e+01 2.412560e+01 1.500000e+01
    endloop
  endfacet
  facet normal 7.360980e-01 6.768750e-01 0.000000e+00
    outer loop
      vertex 2.802160e+01 2.412560e+01 0.000000e+00
      vertex 2.768230e+01 2.449470e+01 0.000000e+00
      vertex 2.768230e+01 2.449470e+01 1.500000e+01
    endloop
  endfacet
  facet normal 7.360980e-01 6.768750e-01 0.000000e+00
    outer loop
      vertex 2.802160e+01 2.412560e+01 1.500000e+01
      vertex 2.802160e+01 2.412560e+01 0.000000e+00
      vertex 2.768230e+01 2.449470e+01 1.500000e+01
    endloop
  endfacet
  facet normal 5.446399e-01 8.386700e-01 0.000000e+00
    outer loop
      vertex 2.731790e+01 2.473130e+01 0.000000e+00
      vertex 2.731790e+01 2.473130e+01 1.500000e+01
      vertex 2.768230e+01 2.449470e+01 0.000000e+00
    endloop
  endfacet
  facet normal 5.446399e-01 8.386700e-01 0.000000e+00
    outer loop
      vertex 2.768230e+01 2.449470e+01 0.000000e+00
      vertex 2.731790e+01 2.473130e+01 1.500000e+01
      vertex 2.768230e+01 2.449470e+01 1.500000e+01
    endloop
  endfacet
  facet normal 2.003990e-06 1.000000e+00 0.000000e+00
    outer loop
      vertex -2.729780e+01 2.473140e+01 0.000000e+00
      vertex -2.729780e+01 2.473140e+01 1.500000e+01
      vertex 2.731790e+01 2.473130e+01 0.000000e+00
    endloop
  endfacet
  facet normal 2.003990e-06 1.000000e+00 0.000000e+00
    outer loop
      vertex 2.731790e+01 2.473130e+01 0.000000e+00
      vertex -2.729780e+01 2.473140e+01 1.500000e+01
      vertex 2.731790e+01 2.473130e+01 1.500000e+01
    endloop
  endfacet
  facet normal -4.909031e-01 8.712142e-01 0.000000e+00
    outer loop
      vertex -2.757940e+01 2.457270e+01 0.000000e+00
      vertex -2.757940e+01 2.457270e+01 1.500000e+01
      vertex -2.729780e+01 2.473140e+01 0.000000e+00
    endloop
  endfacet
  facet normal -4.909031e-01 8.712142e-01 0.000000e+00
    outer loop
      vertex -2.729780e+01 2.473140e+01 0.000000e+00
      vertex -2.757940e+01 2.457270e+01 1.500000e+01
      vertex -2.729780e+01 2.473140e+01 1.500000e+01
    endloop
  endfacet
  facet normal -6.921427e-01 7.217606e-01 0.000000e+00
    outer loop
      vertex -2.794120e+01 2.422570e+01 0.000000e+00
      vertex -2.794120e+01 2.422570e+01 1.500000e+01
      vertex -2.757940e+01 2.457270e+01 0.000000e+00
    endloop
  endfacet
  facet normal -6.921427e-01 7.217606e-01 0.000000e+00
    outer loop
      vertex -2.757940e+01 2.457270e+01 0.000000e+00
      vertex -2.794120e+01 2.422570e+01 1.500000e+01
      vertex -2.757940e+01 2.457270e+01 1.500000e+01
    endloop
  endfacet
  facet normal -8.498932e-01 5.269551e-01 0.000000e+00
    outer loop
      vertex -2.820540e+01 2.379960e+01 0.000000e+00
      vertex -2.820540e+01 2.379960e+01 1.500000e+01
      vertex -2.794120e+01 2.422570e+01 0.000000e+00
    endloop
  endfacet
  facet normal -8.498932e-01 5.269551e-01 0.000000e+00
    outer loop
      vertex -2.794120e+01 2.422570e+01 0.000000e+00
      vertex -2.820540e+01 2.379960e+01 1.500000e+01
      vertex -2.794120e+01 2.422570e+01 1.500000e+01
    endloop
  endfacet
  facet normal -9.542400e-01 2.990420e-01 0.000000e+00
    outer loop
      vertex -2.835530e+01 2.332130e+01 0.000000e+00
      vertex -2.835530e+01 2.332130e+01 1.500000e+01
      vertex -2.820540e+01 2.379960e+01 0.000000e+00
    endloop
  endfacet
  facet normal -9.542400e-01 2.990420e-01 0.000000e+00
    outer loop
      vertex -2.820540e+01 2.379960e+01 0.000000e+00
      vertex -2.835530e+01 2.332130e+01 1.500000e+01
      vertex -2.820540e+01 2.379960e+01 1.500000e+01
    endloop
  endfacet
  facet normal 9.848078e-01 -1.736480e-01 0.000000e+00
    outer loop
      vertex -8.140710e+00 1.016913e+01 0.000000e+00
      vertex -8.140710e+00 1.016913e+01 1.500000e+01
      vertex -8.483419e+00 8.225531e+00 1.500000e+01
    endloop
  endfacet
  facet normal 9.848078e-01 -1.736480e-01 0.000000e+00
    outer loop
      vertex -8.483419e+00 8.225531e+00 0.000000e+00
      vertex -8.140710e+00 1.016913e+01 0.000000e+00
      vertex -8.483419e+00 8.225531e+00 1.500000e+01
    endloop
  endfacet
  facet normal 9.983081e-01 5.814481e-02 0.000000e+00
    outer loop
      vertex -8.483419e+00 8.225531e+00 1.500000e+01
      vertex -8.368670e+00 6.255290e+00 1.500000e+01
      vertex -8.368670e+00 6.255290e+00 0.000000e+00
    endloop
  endfacet
  facet normal 9.983081e-01 5.814481e-02 0.000000e+00
    outer loop
      vertex -8.483419e+00 8.225531e+00 0.000000e+00
      vertex -8.483419e+00 8.225531e+00 1.500000e+01
      vertex -8.368670e+00 6.255290e+00 0.000000e+00
    endloop
  endfacet
  facet normal 9.182160e-01 -3.960800e-01 0.000000e+00
    outer loop
      vertex -7.359020e+00 1.198130e+01 0.000000e+00
      vertex -7.359020e+00 1.198130e+01 1.500000e+01
      vertex -8.140710e+00 1.016913e+01 1.500000e+01
    endloop
  endfacet
  facet normal 9.182160e-01 -3.960800e-01 0.000000e+00
    outer loop
      vertex -8.140710e+00 1.016913e+01 0.000000e+00
      vertex -7.359020e+00 1.198130e+01 0.000000e+00
      vertex -8.140710e+00 1.016913e+01 1.500000e+01
    endloop
  endfacet
  facet normal 8.021229e-01 -5.971590e-01 0.000000e+00
    outer loop
      vertex -6.180480e+00 1.356435e+01 0.000000e+00
      vertex -6.180480e+00 1.356435e+01 1.500000e+01
      vertex -7.359020e+00 1.198130e+01 1.500000e+01
    endloop
  endfacet
  facet normal 8.021229e-01 -5.971590e-01 0.000000e+00
    outer loop
      vertex -7.359020e+00 1.198130e+01 0.000000e+00
      vertex -6.180480e+00 1.356435e+01 0.000000e+00
      vertex -7.359020e+00 1.198130e+01 1.500000e+01
    endloop
  endfacet
  facet normal 6.427870e-01 -7.660450e-01 0.000000e+00
    outer loop
      vertex -4.668630e+00 1.483295e+01 0.000000e+00
      vertex -4.668630e+00 1.483295e+01 1.500000e+01
      vertex -6.180480e+00 1.356435e+01 1.500000e+01
    endloop
  endfacet
  facet normal 6.427870e-01 -7.660450e-01 0.000000e+00
    outer loop
      vertex -6.180480e+00 1.356435e+01 0.000000e+00
      vertex -4.668630e+00 1.483295e+01 0.000000e+00
      vertex -6.180480e+00 1.356435e+01 1.500000e+01
    endloop
  endfacet
  facet normal 4.487989e-01 -8.936328e-01 0.000000e+00
    outer loop
      vertex -2.904970e+00 1.571869e+01 0.000000e+00
      vertex -2.904970e+00 1.571869e+01 1.500000e+01
      vertex -4.668630e+00 1.483295e+01 1.500000e+01
    endloop
  endfacet
  facet normal 4.487989e-01 -8.936328e-01 0.000000e+00
    outer loop
      vertex -4.668630e+00 1.483295e+01 0.000000e+00
      vertex -2.904970e+00 1.571869e+01 0.000000e+00
      vertex -4.668630e+00 1.483295e+01 1.500000e+01
    endloop
  endfacet
  facet normal 2.306160e-01 -9.730448e-01 0.000000e+00
    outer loop
      vertex -9.845899e-01 1.617383e+01 0.000000e+00
      vertex -9.845899e-01 1.617383e+01 1.500000e+01
      vertex -2.904970e+00 1.571869e+01 1.500000e+01
    endloop
  endfacet
  facet normal 2.306160e-01 -9.730448e-01 0.000000e+00
    outer loop
      vertex -2.904970e+00 1.571869e+01 0.000000e+00
      vertex -9.845899e-01 1.617383e+01 0.000000e+00
      vertex -2.904970e+00 1.571869e+01 1.500000e+01
    endloop
  endfacet
  facet normal -1.054940e-07 -1.000000e+00 -0.000000e+00
    outer loop
      vertex 9.889901e-01 1.617383e+01 0.000000e+00
      vertex 9.889901e-01 1.617383e+01 1.500000e+01
      vertex -9.845899e-01 1.617383e+01 1.500000e+01
    endloop
  endfacet
  facet normal -1.054940e-07 -1.000000e+00 -0.000000e+00
    outer loop
      vertex -9.845899e-01 1.617383e+01 0.000000e+00
      vertex 9.889901e-01 1.617383e+01 0.000000e+00
      vertex -9.845899e-01 1.617383e+01 1.500000e+01
    endloop
  endfacet
  facet normal -2.306160e-01 -9.730448e-01 -0.000000e+00
    outer loop
      vertex 2.909370e+00 1.571869e+01 0.000000e+00
      vertex 2.909370e+00 1.571869e+01 1.500000e+01
      vertex 9.889901e-01 1.617383e+01 1.500000e+01
    endloop
  endfacet
  facet normal -2.306160e-01 -9.730448e-01 -0.000000e+00
    outer loop
      vertex 9.889901e-01 1.617383e+01 0.000000e+00
      vertex 2.909370e+00 1.571869e+01 0.000000e+00
      vertex 9.889901e-01 1.617383e+01 1.500000e+01
    endloop
  endfacet
  facet normal -4.488001e-01 -8.936322e-01 -0.000000e+00
    outer loop
      vertex 4.673030e+00 1.483295e+01 0.000000e+00
      vertex 4.673030e+00 1.483295e+01 1.500000e+01
      vertex 2.909370e+00 1.571869e+01 1.500000e+01
    endloop
  endfacet
  facet normal -4.488001e-01 -8.936322e-01 -0.000000e+00
    outer loop
      vertex 2.909370e+00 1.571869e+01 0.000000e+00
      vertex 4.673030e+00 1.483295e+01 0.000000e+00
      vertex 2.909370e+00 1.571869e+01 1.500000e+01
    endloop
  endfacet
  facet normal -6.427881e-01 -7.660441e-01 -0.000000e+00
    outer loop
      vertex 6.184880e+00 1.356435e+01 0.000000e+00
      vertex 6.184880e+00 1.356435e+01 1.500000e+01
      vertex 4.673030e+00 1.483295e+01 1.500000e+01
    endloop
  endfacet
  facet normal -6.427881e-01 -7.660441e-01 -0.000000e+00
    outer loop
      vertex 4.673030e+00 1.483295e+01 0.000000e+00
      vertex 6.184880e+00 1.356435e+01 0.000000e+00
      vertex 4.673030e+00 1.483295e+01 1.500000e+01
    endloop
  endfacet
  facet normal -8.021229e-01 -5.971590e-01 0.000000e+00
    outer loop
      vertex 7.363420e+00 1.198130e+01 1.500000e+01
      vertex 6.184880e+00 1.356435e+01 1.500000e+01
      vertex 7.363420e+00 1.198130e+01 0.000000e+00
    endloop
  endfacet
  facet normal -8.021229e-01 -5.971590e-01 0.000000e+00
    outer loop
      vertex 7.363420e+00 1.198130e+01 0.000000e+00
      vertex 6.184880e+00 1.356435e+01 1.500000e+01
      vertex 6.184880e+00 1.356435e+01 0.000000e+00
    endloop
  endfacet
  facet normal -9.182160e-01 -3.960800e-01 0.000000e+00
    outer loop
      vertex 8.145110e+00 1.016913e+01 1.500000e+01
      vertex 7.363420e+00 1.198130e+01 1.500000e+01
      vertex 8.145110e+00 1.016913e+01 0.000000e+00
    endloop
  endfacet
  facet normal -9.182160e-01 -3.960800e-01 0.000000e+00
    outer loop
      vertex 8.145110e+00 1.016913e+01 0.000000e+00
      vertex 7.363420e+00 1.198130e+01 1.500000e+01
      vertex 7.363420e+00 1.198130e+01 0.000000e+00
    endloop
  endfacet
  facet normal -9.848078e-01 -1.736480e-01 0.000000e+00
    outer loop
      vertex 8.487820e+00 8.225531e+00 1.500000e+01
      vertex 8.145110e+00 1.016913e+01 1.500000e+01
      vertex 8.487820e+00 8.225531e+00 0.000000e+00
    endloop
  endfacet
  facet normal -9.848078e-01 -1.736480e-01 0.000000e+00
    outer loop
      vertex 8.487820e+00 8.225531e+00 0.000000e+00
      vertex 8.145110e+00 1.016913e+01 1.500000e+01
      vertex 8.145110e+00 1.016913e+01 0.000000e+00
    endloop
  endfacet
  facet normal -9.983082e-01 5.814442e-02 0.000000e+00
    outer loop
      vertex 8.487820e+00 8.225531e+00 1.500000e+01
      vertex 8.487820e+00 8.225531e+00 0.000000e+00
      vertex 8.373070e+00 6.255290e+00 1.500000e+01
    endloop
  endfacet
  facet normal -9.983082e-01 5.814442e-02 0.000000e+00
    outer loop
      vertex 8.373070e+00 6.255290e+00 1.500000e+01
      vertex 8.487820e+00 8.225531e+00 0.000000e+00
      vertex 8.373070e+00 6.255290e+00 0.000000e+00
    endloop
  endfacet
  facet normal -9.579896e-01 2.868032e-01 0.000000e+00
    outer loop
      vertex 8.373070e+00 6.255290e+00 1.500000e+01
      vertex 8.373070e+00 6.255290e+00 0.000000e+00
      vertex 7.807040e+00 4.364620e+00 1.500000e+01
    endloop
  endfacet
  facet normal -9.579896e-01 2.868032e-01 0.000000e+00
    outer loop
      vertex 7.807040e+00 4.364620e+00 1.500000e+01
      vertex 8.373070e+00 6.255290e+00 0.000000e+00
      vertex 7.807040e+00 4.364620e+00 0.000000e+00
    endloop
  endfacet
  facet normal -8.660253e-01 5.000002e-01 0.000000e+00
    outer loop
      vertex 7.807040e+00 4.364620e+00 1.500000e+01
      vertex 7.807040e+00 4.364620e+00 0.000000e+00
      vertex 6.820250e+00 2.655450e+00 1.500000e+01
    endloop
  endfacet
  facet normal -8.660253e-01 5.000002e-01 0.000000e+00
    outer loop
      vertex 6.820250e+00 2.655450e+00 1.500000e+01
      vertex 7.807040e+00 4.364620e+00 0.000000e+00
      vertex 6.820250e+00 2.655450e+00 0.000000e+00
    endloop
  endfacet
  facet normal -7.273737e-01 6.862417e-01 0.000000e+00
    outer loop
      vertex 6.820250e+00 2.655450e+00 1.500000e+01
      vertex 6.820250e+00 2.655450e+00 0.000000e+00
      vertex 5.465900e+00 1.219920e+00 1.500000e+01
    endloop
  endfacet
  facet normal -7.273737e-01 6.862417e-01 0.000000e+00
    outer loop
      vertex 5.465900e+00 1.219920e+00 1.500000e+01
      vertex 6.820250e+00 2.655450e+00 0.000000e+00
      vertex 5.465900e+00 1.219920e+00 0.000000e+00
    endloop
  endfacet
  facet normal -5.495089e-01 8.354878e-01 0.000000e+00
    outer loop
      vertex 5.465900e+00 1.219920e+00 1.500000e+01
      vertex 5.465900e+00 1.219920e+00 0.000000e+00
      vertex 3.816990e+00 1.354203e-01 1.500000e+01
    endloop
  endfacet
  facet normal -5.495089e-01 8.354878e-01 0.000000e+00
    outer loop
      vertex 3.816990e+00 1.354203e-01 1.500000e+01
      vertex 5.465900e+00 1.219920e+00 0.000000e+00
      vertex 3.816990e+00 1.354203e-01 0.000000e+00
    endloop
  endfacet
  facet normal -3.420199e-01 9.396927e-01 0.000000e+00
    outer loop
      vertex 3.816990e+00 1.354203e-01 1.500000e+01
      vertex 3.816990e+00 1.354203e-01 0.000000e+00
      vertex 1.962440e+00 -5.395794e-01 1.500000e+01
    endloop
  endfacet
  facet normal -3.420199e-01 9.396927e-01 0.000000e+00
    outer loop
      vertex 1.962440e+00 -5.395794e-01 1.500000e+01
      vertex 3.816990e+00 1.354203e-01 0.000000e+00
      vertex 1.962440e+00 -5.395794e-01 0.000000e+00
    endloop
  endfacet
  facet normal -1.160930e-01 9.932383e-01 0.000000e+00
    outer loop
      vertex 1.962440e+00 -5.395794e-01 1.500000e+01
      vertex 1.962440e+00 -5.395794e-01 0.000000e+00
      vertex 2.200161e-03 -7.686996e-01 1.500000e+01
    endloop
  endfacet
  facet normal -1.160930e-01 9.932383e-01 0.000000e+00
    outer loop
      vertex 2.200161e-03 -7.686996e-01 1.500000e+01
      vertex 1.962440e+00 -5.395794e-01 0.000000e+00
      vertex 2.200161e-03 -7.686996e-01 0.000000e+00
    endloop
  endfacet
  facet normal 1.160930e-01 9.932383e-01 0.000000e+00
    outer loop
      vertex 2.200161e-03 -7.686996e-01 1.500000e+01
      vertex 2.200161e-03 -7.686996e-01 0.000000e+00
      vertex -1.958030e+00 -5.395794e-01 1.500000e+01
    endloop
  endfacet
  facet normal 1.160930e-01 9.932383e-01 0.000000e+00
    outer loop
      vertex -1.958030e+00 -5.395794e-01 1.500000e+01
      vertex 2.200161e-03 -7.686996e-01 0.000000e+00
      vertex -1.958030e+00 -5.395794e-01 0.000000e+00
    endloop
  endfacet
  facet normal 3.420199e-01 9.396927e-01 0.000000e+00
    outer loop
      vertex -1.958030e+00 -5.395794e-01 1.500000e+01
      vertex -1.958030e+00 -5.395794e-01 0.000000e+00
      vertex -3.812590e+00 1.354203e-01 1.500000e+01
    endloop
  endfacet
  facet normal 3.420199e-01 9.396927e-01 0.000000e+00
    outer loop
      vertex -3.812590e+00 1.354203e-01 1.500000e+01
      vertex -1.958030e+00 -5.395794e-01 0.000000e+00
      vertex -3.812590e+00 1.354203e-01 0.000000e+00
    endloop
  endfacet
  facet normal 5.495089e-01 8.354878e-01 0.000000e+00
    outer loop
      vertex -3.812590e+00 1.354203e-01 1.500000e+01
      vertex -3.812590e+00 1.354203e-01 0.000000e+00
      vertex -5.461490e+00 1.219920e+00 1.500000e+01
    endloop
  endfacet
  facet normal 5.495089e-01 8.354878e-01 0.000000e+00
    outer loop
      vertex -5.461490e+00 1.219920e+00 1.500000e+01
      vertex -3.812590e+00 1.354203e-01 0.000000e+00
      vertex -5.461490e+00 1.219920e+00 0.000000e+00
    endloop
  endfacet
  facet normal 7.273737e-01 6.862417e-01 0.000000e+00
    outer loop
      vertex -6.815850e+00 2.655450e+00 1.500000e+01
      vertex -5.461490e+00 1.219920e+00 1.500000e+01
      vertex -5.461490e+00 1.219920e+00 0.000000e+00
    endloop
  endfacet
  facet normal 7.273737e-01 6.862417e-01 0.000000e+00
    outer loop
      vertex -6.815850e+00 2.655450e+00 0.000000e+00
      vertex -6.815850e+00 2.655450e+00 1.500000e+01
      vertex -5.461490e+00 1.219920e+00 0.000000e+00
    endloop
  endfacet
  facet normal 8.660253e-01 5.000002e-01 0.000000e+00
    outer loop
      vertex -7.802640e+00 4.364620e+00 1.500000e+01
      vertex -6.815850e+00 2.655450e+00 1.500000e+01
      vertex -6.815850e+00 2.655450e+00 0.000000e+00
    endloop
  endfacet
  facet normal 8.660253e-01 5.000002e-01 0.000000e+00
    outer loop
      vertex -7.802640e+00 4.364620e+00 0.000000e+00
      vertex -7.802640e+00 4.364620e+00 1.500000e+01
      vertex -6.815850e+00 2.655450e+00 0.000000e+00
    endloop
  endfacet
  facet normal 9.579896e-01 2.868029e-01 0.000000e+00
    outer loop
      vertex -8.368670e+00 6.255290e+00 1.500000e+01
      vertex -7.802640e+00 4.364620e+00 1.500000e+01
      vertex -7.802640e+00 4.364620e+00 0.000000e+00
    endloop
  endfacet
  facet normal 9.579896e-01 2.868029e-01 0.000000e+00
    outer loop
      vertex -8.368670e+00 6.255290e+00 0.000000e+00
      vertex -8.368670e+00 6.255290e+00 1.500000e+01
      vertex -7.802640e+00 4.364620e+00 0.000000e+00
    endloop
  endfacet
endsolid Default
