solid OpenSCAD_Model
  facet normal -0.978159 0 0.207859
    outer loop
      vertex -4.25 -4.25 0
      vertex -4.09806 -4.09806 0.715002
      vertex -4.25 4.25 0
    endloop
  endfacet
  facet normal -0.978159 3.4746e-17 0.207859
    outer loop
      vertex -4.25 4.25 0
      vertex -4.09806 -4.09806 0.715002
      vertex -4.09806 4.09806 0.715002
    endloop
  endfacet
  facet normal 0 -0.978159 0.207859
    outer loop
      vertex -4.09806 -4.09806 0.715002
      vertex -4.25 -4.25 0
      vertex 4.25 -4.25 0
    endloop
  endfacet
  facet normal -3.37871e-17 -0.978159 0.207859
    outer loop
      vertex 4.09806 -4.09806 0.715002
      vertex -4.09806 -4.09806 0.715002
      vertex 4.25 -4.25 0
    endloop
  endfacet
  facet normal -0 -0 -1
    outer loop
      vertex -4.25 -4.25 0
      vertex -4.25 4.25 0
      vertex 4.25 -4.25 0
    endloop
  endfacet
  facet normal 0 0 -1
    outer loop
      vertex 4.25 -4.25 0
      vertex -4.25 4.25 0
      vertex 4.25 4.25 0
    endloop
  endfacet
  facet normal 0 0.978159 0.207859
    outer loop
      vertex -4.25 4.25 0
      vertex -4.09806 4.09806 0.715002
      vertex 4.25 4.25 0
    endloop
  endfacet
  facet normal -3.4746e-17 0.978159 0.207859
    outer loop
      vertex 4.25 4.25 0
      vertex -4.09806 4.09806 0.715002
      vertex 4.09806 4.09806 0.715002
    endloop
  endfacet
  facet normal -1.77494e-29 1.07726e-14 1.07726e-13
    outer loop
      vertex -4.04294 4.04294 0.720444
      vertex 4.04294 4.04294 0.720444
      vertex 4.04294 4.04295 0.720444
    endloop
  endfacet
  facet normal -1.61842e-16 0.0982604 0.995161
    outer loop
      vertex 4.09806 4.09806 0.715002
      vertex -4.04294 4.04294 0.720444
      vertex 4.04294 4.04295 0.720444
    endloop
  endfacet
  facet normal -1.61762e-16 0.0982604 0.995161
    outer loop
      vertex 4.09806 4.09806 0.715002
      vertex -4.09806 4.09806 0.715002
      vertex -4.04294 4.04294 0.720444
    endloop
  endfacet
  facet normal -0.0982604 1.61842e-16 0.995161
    outer loop
      vertex -4.09806 -4.09806 0.715002
      vertex -4.04295 -4.04294 0.720444
      vertex -4.04294 4.04294 0.720444
    endloop
  endfacet
  facet normal -1.07726e-14 1.77494e-29 1.07726e-13
    outer loop
      vertex -4.04294 4.04294 0.720444
      vertex -4.04295 -4.04294 0.720444
      vertex -4.04294 -4.04294 0.720444
    endloop
  endfacet
  facet normal -0.0982604 1.61762e-16 0.995161
    outer loop
      vertex -4.09806 -4.09806 0.715002
      vertex -4.04294 4.04294 0.720444
      vertex -4.09806 4.09806 0.715002
    endloop
  endfacet
  facet normal -1.64021e-16 -0.0982604 0.995161
    outer loop
      vertex 4.09806 -4.09806 0.715002
      vertex 4.04294 -4.04294 0.720444
      vertex -4.04295 -4.04294 0.720444
    endloop
  endfacet
  facet normal -1.70369e-16 -0.0982604 0.995161
    outer loop
      vertex -4.09806 -4.09806 0.715002
      vertex 4.09806 -4.09806 0.715002
      vertex -4.04295 -4.04294 0.720444
    endloop
  endfacet
  facet normal 0.0982604 1.63967e-16 0.995161
    outer loop
      vertex 4.04294 -4.04294 0.720444
      vertex 4.09806 -4.09806 0.715002
      vertex 4.04294 4.04295 0.720444
    endloop
  endfacet
  facet normal 0.0982604 1.70413e-16 0.995161
    outer loop
      vertex 4.04294 4.04295 0.720444
      vertex 4.09806 -4.09806 0.715002
      vertex 4.09806 4.09806 0.715002
    endloop
  endfacet
  facet normal 0.978159 3.37871e-17 0.207859
    outer loop
      vertex 4.09806 4.09806 0.715002
      vertex 4.09806 -4.09806 0.715002
      vertex 4.25 -4.25 0
    endloop
  endfacet
  facet normal 0.978159 -0 0.207859
    outer loop
      vertex 4.25 4.25 0
      vertex 4.09806 4.09806 0.715002
      vertex 4.25 -4.25 0
    endloop
  endfacet
  facet normal -0.296676 1.57347e-16 0.954978
    outer loop
      vertex -4.04294 -4.04294 0.720444
      vertex -3.85 -3.85 0.780385
      vertex -4.04294 4.04294 0.720444
    endloop
  endfacet
  facet normal -0.296676 1.70605e-16 0.954978
    outer loop
      vertex -4.04294 4.04294 0.720444
      vertex -3.85 -3.85 0.780385
      vertex -3.85 3.85 0.780385
    endloop
  endfacet
  facet normal -1.70605e-16 0.296676 0.954978
    outer loop
      vertex 4.04294 4.04294 0.720444
      vertex -3.85 3.85 0.780385
      vertex 3.85 3.85 0.780385
    endloop
  endfacet
  facet normal -1.57347e-16 0.296676 0.954978
    outer loop
      vertex 4.04294 4.04294 0.720444
      vertex -4.04294 4.04294 0.720444
      vertex -3.85 3.85 0.780385
    endloop
  endfacet
  facet normal 1.07726e-14 5.91646e-30 3.59086e-14
    outer loop
      vertex 4.04294 -4.04294 0.720444
      vertex 4.04294 4.04295 0.720444
      vertex 4.04294 4.04294 0.720444
    endloop
  endfacet
  facet normal 0.296676 1.62463e-16 0.954978
    outer loop
      vertex 3.85 3.85 0.780385
      vertex 4.04294 -4.04294 0.720444
      vertex 4.04294 4.04294 0.720444
    endloop
  endfacet
  facet normal 0.296676 1.65232e-16 0.954978
    outer loop
      vertex 3.85 3.85 0.780385
      vertex 3.85 -3.85 0.780385
      vertex 4.04294 -4.04294 0.720444
    endloop
  endfacet
  facet normal -1.65029e-16 -0.296676 0.954978
    outer loop
      vertex 4.04294 -4.04294 0.720444
      vertex 3.85 -3.85 0.780385
      vertex -3.85 -3.85 0.780385
    endloop
  endfacet
  facet normal -5.91646e-30 -1.07726e-14 3.59086e-14
    outer loop
      vertex -4.04295 -4.04294 0.720444
      vertex 4.04294 -4.04294 0.720444
      vertex -4.04294 -4.04294 0.720444
    endloop
  endfacet
  facet normal -1.62939e-16 -0.296676 0.954978
    outer loop
      vertex -4.04294 -4.04294 0.720444
      vertex 4.04294 -4.04294 0.720444
      vertex -3.85 -3.85 0.780385
    endloop
  endfacet
  facet normal -1.57634e-16 -0.498795 0.86672
    outer loop
      vertex 3.85 -3.85 0.780385
      vertex 3.68431 -3.68431 0.875736
      vertex -3.68432 -3.68431 0.875736
    endloop
  endfacet
  facet normal -1.43837e-16 -0.498795 0.86672
    outer loop
      vertex -3.85 -3.85 0.780385
      vertex 3.85 -3.85 0.780385
      vertex -3.68432 -3.68431 0.875736
    endloop
  endfacet
  facet normal -9.81699e-15 2.95823e-30 1.63616e-14
    outer loop
      vertex -3.68432 -3.68431 0.875736
      vertex -3.68431 -3.68431 0.875736
      vertex -3.68431 3.68431 0.875736
    endloop
  endfacet
  facet normal -0.498795 1.49961e-16 0.86672
    outer loop
      vertex -3.85 -3.85 0.780385
      vertex -3.68432 -3.68431 0.875736
      vertex -3.85 3.85 0.780385
    endloop
  endfacet
  facet normal -0.498795 1.50245e-16 0.86672
    outer loop
      vertex -3.85 3.85 0.780385
      vertex -3.68432 -3.68431 0.875736
      vertex -3.68431 3.68431 0.875736
    endloop
  endfacet
  facet normal -2.95823e-30 9.81699e-15 1.63616e-14
    outer loop
      vertex -3.68431 3.68431 0.875736
      vertex 3.68431 3.68431 0.875736
      vertex 3.68431 3.68432 0.875736
    endloop
  endfacet
  facet normal -1.50245e-16 0.498795 0.86672
    outer loop
      vertex 3.85 3.85 0.780385
      vertex -3.68431 3.68431 0.875736
      vertex 3.68431 3.68432 0.875736
    endloop
  endfacet
  facet normal -1.49961e-16 0.498795 0.86672
    outer loop
      vertex 3.85 3.85 0.780385
      vertex -3.85 3.85 0.780385
      vertex -3.68431 3.68431 0.875736
    endloop
  endfacet
  facet normal 0.498795 1.43779e-16 0.86672
    outer loop
      vertex 3.68431 3.68432 0.875736
      vertex 3.85 -3.85 0.780385
      vertex 3.85 3.85 0.780385
    endloop
  endfacet
  facet normal 0.498795 1.56705e-16 0.86672
    outer loop
      vertex 3.68431 3.68432 0.875736
      vertex 3.68431 -3.68431 0.875736
      vertex 3.85 -3.85 0.780385
    endloop
  endfacet
  facet normal -1.01496e-16 -0.698985 0.715136
    outer loop
      vertex 3.68431 -3.68431 0.875736
      vertex 3.55718 -3.55718 1
      vertex -3.55718 -3.55718 1
    endloop
  endfacet
  facet normal -1.77494e-30 -9.81699e-15 9.81699e-15
    outer loop
      vertex -3.68432 -3.68431 0.875736
      vertex 3.68431 -3.68431 0.875736
      vertex -3.68431 -3.68431 0.875736
    endloop
  endfacet
  facet normal -1.26378e-16 -0.698985 0.715136
    outer loop
      vertex -3.68431 -3.68431 0.875736
      vertex 3.68431 -3.68431 0.875736
      vertex -3.55718 -3.55718 1
    endloop
  endfacet
  facet normal 9.81699e-15 1.77494e-30 9.81699e-15
    outer loop
      vertex 3.68431 -3.68431 0.875736
      vertex 3.68431 3.68432 0.875736
      vertex 3.68431 3.68431 0.875736
    endloop
  endfacet
  facet normal 0.698985 1.24479e-16 0.715136
    outer loop
      vertex 3.55718 3.55718 1
      vertex 3.68431 -3.68431 0.875736
      vertex 3.68431 3.68431 0.875736
    endloop
  endfacet
  facet normal 0.698985 1.0044e-16 0.715136
    outer loop
      vertex 3.55718 3.55718 1
      vertex 3.55718 -3.55718 1
      vertex 3.68431 -3.68431 0.875736
    endloop
  endfacet
  facet normal -0.698985 1.29298e-16 0.715136
    outer loop
      vertex -3.68431 -3.68431 0.875736
      vertex -3.55718 -3.55718 1
      vertex -3.68431 3.68431 0.875736
    endloop
  endfacet
  facet normal -0.698985 1.31671e-16 0.715136
    outer loop
      vertex -3.68431 3.68431 0.875736
      vertex -3.55718 -3.55718 1
      vertex -3.55718 3.55718 1
    endloop
  endfacet
  facet normal -1.28928e-16 0.698985 0.715136
    outer loop
      vertex 3.68431 3.68431 0.875736
      vertex -3.55718 3.55718 1
      vertex 3.55718 3.55718 1
    endloop
  endfacet
  facet normal -1.29298e-16 0.698985 0.715136
    outer loop
      vertex 3.68431 3.68431 0.875736
      vertex -3.68431 3.68431 0.875736
      vertex -3.55718 3.55718 1
    endloop
  endfacet
  facet normal -9.20427e-17 -0.875369 0.483456
    outer loop
      vertex 3.55718 -3.55718 1
      vertex 3.47726 -3.47726 1.14471
      vertex -3.47726 -3.47726 1.14471
    endloop
  endfacet
  facet normal -5.46418e-17 -0.875369 0.483456
    outer loop
      vertex -3.55718 -3.55718 1
      vertex 3.55718 -3.55718 1
      vertex -3.47726 -3.47726 1.14471
    endloop
  endfacet
  facet normal 0.875369 5.45748e-17 0.483456
    outer loop
      vertex 3.47726 3.47726 1.14471
      vertex 3.55718 -3.55718 1
      vertex 3.55718 3.55718 1
    endloop
  endfacet
  facet normal 0.875369 9.2615e-17 0.483456
    outer loop
      vertex 3.47726 3.47726 1.14471
      vertex 3.47726 -3.47726 1.14471
      vertex 3.55718 -3.55718 1
    endloop
  endfacet
  facet normal -0.875369 1.11795e-16 0.483456
    outer loop
      vertex -3.47726 -3.47726 1.14471
      vertex -3.47726 3.47726 1.14471
      vertex -3.55718 3.55718 1
    endloop
  endfacet
  facet normal -0.875369 6.78498e-17 0.483456
    outer loop
      vertex -3.47726 -3.47726 1.14471
      vertex -3.55718 3.55718 1
      vertex -3.55718 -3.55718 1
    endloop
  endfacet
  facet normal -1.11795e-16 0.875369 0.483456
    outer loop
      vertex -3.47726 3.47726 1.14471
      vertex 3.47726 3.47726 1.14471
      vertex 3.55718 3.55718 1
    endloop
  endfacet
  facet normal -6.78498e-17 0.875369 0.483456
    outer loop
      vertex -3.47726 3.47726 1.14471
      vertex 3.55718 3.55718 1
      vertex -3.55718 3.55718 1
    endloop
  endfacet
  facet normal -2.7905e-17 -0.984941 0.172891
    outer loop
      vertex 3.47726 -3.47726 1.14471
      vertex 3.45 -3.45 1.3
      vertex -3.45 -3.45 1.3
    endloop
  endfacet
  facet normal 0 -0.984941 0.172891
    outer loop
      vertex -3.47726 -3.47726 1.14471
      vertex 3.47726 -3.47726 1.14471
      vertex -3.45 -3.45 1.3
    endloop
  endfacet
  facet normal 0.984941 0 0.172891
    outer loop
      vertex 3.45 3.45 1.3
      vertex 3.47726 -3.47726 1.14471
      vertex 3.47726 3.47726 1.14471
    endloop
  endfacet
  facet normal 0.984941 2.78185e-17 0.172891
    outer loop
      vertex 3.45 3.45 1.3
      vertex 3.45 -3.45 1.3
      vertex 3.47726 -3.47726 1.14471
    endloop
  endfacet
  facet normal -0.984941 6.33915e-17 0.172891
    outer loop
      vertex -3.45 -3.45 1.3
      vertex -3.45 3.45 1.3
      vertex -3.47726 3.47726 1.14471
    endloop
  endfacet
  facet normal -0.984941 3.24325e-17 0.172891
    outer loop
      vertex -3.45 -3.45 1.3
      vertex -3.47726 3.47726 1.14471
      vertex -3.47726 -3.47726 1.14471
    endloop
  endfacet
  facet normal -6.33915e-17 0.984941 0.172891
    outer loop
      vertex -3.45 3.45 1.3
      vertex 3.45 3.45 1.3
      vertex 3.47726 3.47726 1.14471
    endloop
  endfacet
  facet normal -3.32235e-17 0.984941 0.172891
    outer loop
      vertex -3.45 3.45 1.3
      vertex 3.47726 3.47726 1.14471
      vertex -3.47726 3.47726 1.14471
    endloop
  endfacet
  facet normal 3.31206e-17 -0.984941 -0.172891
    outer loop
      vertex -3.47726 -3.47726 1.45529
      vertex -3.45 -3.45 1.3
      vertex 3.47726 -3.47726 1.45529
    endloop
  endfacet
  facet normal 6.37829e-17 -0.984941 -0.172891
    outer loop
      vertex 3.47726 -3.47726 1.45529
      vertex -3.45 -3.45 1.3
      vertex 3.45 -3.45 1.3
    endloop
  endfacet
  facet normal 0.984941 -3.31206e-17 -0.172891
    outer loop
      vertex 3.47726 -3.47726 1.45529
      vertex 3.45 3.45 1.3
      vertex 3.47726 3.47726 1.45529
    endloop
  endfacet
  facet normal 0.984941 -2.78185e-17 -0.172891
    outer loop
      vertex 3.45 3.45 1.3
      vertex 3.47726 -3.47726 1.45529
      vertex 3.45 -3.45 1.3
    endloop
  endfacet
  facet normal 2.7905e-17 0.984941 -0.172891
    outer loop
      vertex 3.47726 3.47726 1.45529
      vertex 3.45 3.45 1.3
      vertex -3.45 3.45 1.3
    endloop
  endfacet
  facet normal 3.32235e-17 0.984941 -0.172891
    outer loop
      vertex -3.45 3.45 1.3
      vertex -3.47726 3.47726 1.45529
      vertex 3.47726 3.47726 1.45529
    endloop
  endfacet
  facet normal -0.984941 -2.78185e-17 -0.172891
    outer loop
      vertex -3.45 3.45 1.3
      vertex -3.45 -3.45 1.3
      vertex -3.47726 3.47726 1.45529
    endloop
  endfacet
  facet normal -0.984941 0 -0.172891
    outer loop
      vertex -3.47726 3.47726 1.45529
      vertex -3.45 -3.45 1.3
      vertex -3.47726 -3.47726 1.45529
    endloop
  endfacet
  facet normal 7.54452e-17 -0.875369 -0.483456
    outer loop
      vertex -3.55718 -3.55718 1.6
      vertex -3.47726 -3.47726 1.45529
      vertex 3.55718 -3.55718 1.6
    endloop
  endfacet
  facet normal 1.11658e-16 -0.875369 -0.483456
    outer loop
      vertex 3.55718 -3.55718 1.6
      vertex -3.47726 -3.47726 1.45529
      vertex 3.47726 -3.47726 1.45529
    endloop
  endfacet
  facet normal 0.875369 -7.54452e-17 -0.483456
    outer loop
      vertex 3.55718 -3.55718 1.6
      vertex 3.47726 3.47726 1.45529
      vertex 3.55718 3.55718 1.6
    endloop
  endfacet
  facet normal 0.875369 -9.2615e-17 -0.483456
    outer loop
      vertex 3.47726 3.47726 1.45529
      vertex 3.55718 -3.55718 1.6
      vertex 3.47726 -3.47726 1.45529
    endloop
  endfacet
  facet normal 9.20427e-17 0.875369 -0.483456
    outer loop
      vertex 3.55718 3.55718 1.6
      vertex 3.47726 3.47726 1.45529
      vertex -3.47726 3.47726 1.45529
    endloop
  endfacet
  facet normal 7.52248e-17 0.875369 -0.483456
    outer loop
      vertex -3.47726 3.47726 1.45529
      vertex -3.55718 3.55718 1.6
      vertex 3.55718 3.55718 1.6
    endloop
  endfacet
  facet normal -0.875369 -9.2615e-17 -0.483456
    outer loop
      vertex -3.47726 3.47726 1.45529
      vertex -3.47726 -3.47726 1.45529
      vertex -3.55718 3.55718 1.6
    endloop
  endfacet
  facet normal -0.875369 -5.46418e-17 -0.483456
    outer loop
      vertex -3.55718 3.55718 1.6
      vertex -3.47726 -3.47726 1.45529
      vertex -3.55718 -3.55718 1.6
    endloop
  endfacet
  facet normal 1.30895e-16 -0.698985 -0.715136
    outer loop
      vertex -3.55718 -3.55718 1.6
      vertex 3.55718 -3.55718 1.6
      vertex 3.68431 -3.68431 1.72426
    endloop
  endfacet
  facet normal 1.27127e-16 -0.698985 -0.715136
    outer loop
      vertex -3.55718 -3.55718 1.6
      vertex 3.68431 -3.68431 1.72426
      vertex -3.68431 -3.68431 1.72426
    endloop
  endfacet
  facet normal 0.698985 -1.27127e-16 -0.715136
    outer loop
      vertex 3.55718 3.55718 1.6
      vertex 3.68431 3.68431 1.72426
      vertex 3.68431 -3.68431 1.72426
    endloop
  endfacet
  facet normal 0.698985 -1.12469e-16 -0.715136
    outer loop
      vertex 3.68431 -3.68431 1.72426
      vertex 3.55718 -3.55718 1.6
      vertex 3.55718 3.55718 1.6
    endloop
  endfacet
  facet normal 1.09726e-16 0.698985 -0.715136
    outer loop
      vertex 3.68431 3.68431 1.72426
      vertex 3.55718 3.55718 1.6
      vertex -3.55718 3.55718 1.6
    endloop
  endfacet
  facet normal -3.82527e-18 9.37169e-15 -9.36531e-15
    outer loop
      vertex 3.68431 3.68431 1.72426
      vertex -3.55718 3.55718 1.6
      vertex 3.68432 3.68431 1.72426
    endloop
  endfacet
  facet normal 1.29776e-16 0.698985 -0.715136
    outer loop
      vertex -3.55718 3.55718 1.6
      vertex -3.68431 3.68431 1.72426
      vertex 3.68432 3.68431 1.72426
    endloop
  endfacet
  facet normal -0.698985 -1.116e-16 -0.715136
    outer loop
      vertex -3.55718 3.55718 1.6
      vertex -3.55718 -3.55718 1.6
      vertex -3.68431 3.68431 1.72426
    endloop
  endfacet
  facet normal -0.698985 -1.26378e-16 -0.715136
    outer loop
      vertex -3.68431 3.68431 1.72426
      vertex -3.55718 -3.55718 1.6
      vertex -3.68431 -3.68431 1.72426
    endloop
  endfacet
  facet normal -9.81699e-15 -1.77494e-30 -9.81699e-15
    outer loop
      vertex -3.68431 3.68431 1.72426
      vertex -3.68431 -3.68431 1.72426
      vertex -3.68431 -3.68432 1.72426
    endloop
  endfacet
  facet normal 2.95823e-30 -9.81699e-15 -1.63616e-14
    outer loop
      vertex -3.68431 -3.68431 1.72426
      vertex 3.68431 -3.68431 1.72426
      vertex -3.68431 -3.68432 1.72426
    endloop
  endfacet
  facet normal 1.50306e-16 -0.498795 -0.86672
    outer loop
      vertex -3.68431 -3.68432 1.72426
      vertex 3.68431 -3.68431 1.72426
      vertex 3.81883 -3.81883 1.80168
    endloop
  endfacet
  facet normal -1.87709e-17 -0.498795 -0.86672
    outer loop
      vertex -3.68431 -3.68432 1.72426
      vertex 3.81883 -3.81883 1.80168
      vertex 3.77095 -3.85 1.81962
    endloop
  endfacet
  facet normal 1.54012e-16 -0.498795 -0.86672
    outer loop
      vertex -3.68431 -3.68432 1.72426
      vertex 3.77095 -3.85 1.81962
      vertex -3.77095 -3.85 1.81961
    endloop
  endfacet
  facet normal 2.12102e-15 -0.498795 -0.86672
    outer loop
      vertex -3.68431 -3.68432 1.72426
      vertex -3.77095 -3.85 1.81961
      vertex -3.81883 -3.81883 1.80168
    endloop
  endfacet
  facet normal 0.498795 -2.12102e-15 -0.86672
    outer loop
      vertex 3.68432 3.68431 1.72426
      vertex 3.81883 3.81883 1.80168
      vertex 3.85 3.77095 1.81961
    endloop
  endfacet
  facet normal 1.16064e-17 9.01446e-18 -2.83584e-17
    outer loop
      vertex 3.68432 3.68431 1.72426
      vertex 3.85 3.77095 1.81961
      vertex 3.68431 3.68431 1.72426
    endloop
  endfacet
  facet normal 0.498795 -1.53105e-16 -0.86672
    outer loop
      vertex 3.85 3.77095 1.81961
      vertex 3.85 -3.77095 1.81962
      vertex 3.68431 3.68431 1.72426
    endloop
  endfacet
  facet normal 0.498795 1.40782e-17 -0.86672
    outer loop
      vertex 3.85 -3.77095 1.81962
      vertex 3.81883 -3.81883 1.80168
      vertex 3.68431 3.68431 1.72426
    endloop
  endfacet
  facet normal 0.498795 -1.56236e-16 -0.86672
    outer loop
      vertex 3.81883 -3.81883 1.80168
      vertex 3.68431 -3.68431 1.72426
      vertex 3.68431 3.68431 1.72426
    endloop
  endfacet
  facet normal 1.53105e-16 0.498795 -0.86672
    outer loop
      vertex 3.77095 3.85 1.81962
      vertex 3.81883 3.81883 1.80168
      vertex -3.77095 3.85 1.81961
    endloop
  endfacet
  facet normal 1.22464e-16 0.498795 -0.86672
    outer loop
      vertex -3.77095 3.85 1.81961
      vertex 3.81883 3.81883 1.80168
      vertex 3.68432 3.68431 1.72426
    endloop
  endfacet
  facet normal 1.57634e-16 0.498795 -0.86672
    outer loop
      vertex -3.77095 3.85 1.81961
      vertex 3.68432 3.68431 1.72426
      vertex -3.68431 3.68431 1.72426
    endloop
  endfacet
  facet normal 1.16656e-15 0.498795 -0.86672
    outer loop
      vertex -3.77095 3.85 1.81961
      vertex -3.68431 3.68431 1.72426
      vertex -3.81883 3.81883 1.80168
    endloop
  endfacet
  facet normal -0.498795 -1.13121e-15 -0.86672
    outer loop
      vertex -3.81883 3.81883 1.80168
      vertex -3.68431 3.68431 1.72426
      vertex -3.85 3.77095 1.81961
    endloop
  endfacet
  facet normal -0.498795 -1.57634e-16 -0.86672
    outer loop
      vertex -3.85 3.77095 1.81961
      vertex -3.68431 3.68431 1.72426
      vertex -3.68431 -3.68432 1.72426
    endloop
  endfacet
  facet normal -0.498795 -1.22464e-16 -0.86672
    outer loop
      vertex -3.85 3.77095 1.81961
      vertex -3.68431 -3.68432 1.72426
      vertex -3.81883 -3.81883 1.80168
    endloop
  endfacet
  facet normal -0.498795 -1.53105e-16 -0.86672
    outer loop
      vertex -3.85 3.77095 1.81961
      vertex -3.81883 -3.81883 1.80168
      vertex -3.85 -3.77095 1.81962
    endloop
  endfacet
  facet normal -0.590497 -0.590497 0.550115
    outer loop
      vertex -3.77095 -3.85 1.81961
      vertex -3.75483 -3.86251 1.8235
      vertex -3.4 -2.18968 4
    endloop
  endfacet
  facet normal -0.590497 -0.590497 0.550115
    outer loop
      vertex -3.4 -2.18968 4
      vertex -3.86251 -3.75483 1.8235
      vertex -3.85 -3.77095 1.81962
    endloop
  endfacet
  facet normal -0.590497 -0.590497 0.550115
    outer loop
      vertex -3.81883 -3.81883 1.80168
      vertex -3.4 -2.18968 4
      vertex -3.85 -3.77095 1.81962
    endloop
  endfacet
  facet normal -0.590497 -0.590497 0.550115
    outer loop
      vertex -3.81883 -3.81883 1.80168
      vertex -3.77095 -3.85 1.81961
      vertex -3.4 -2.18968 4
    endloop
  endfacet
  facet normal -0.590497 -0.590497 0.550115
    outer loop
      vertex -3.75483 -3.86251 1.8235
      vertex -2.18968 -3.4 4
      vertex -3.4 -2.18968 4
    endloop
  endfacet
  facet normal 1.58728e-16 -0.296676 -0.954978
    outer loop
      vertex 3.75483 -3.86251 1.8235
      vertex -3.75483 -3.86251 1.8235
      vertex 3.77095 -3.85 1.81962
    endloop
  endfacet
  facet normal 1.68696e-16 -0.296676 -0.954978
    outer loop
      vertex 3.77095 -3.85 1.81962
      vertex -3.75483 -3.86251 1.8235
      vertex -3.77095 -3.85 1.81961
    endloop
  endfacet
  facet normal 0.590497 -0.590497 0.550115
    outer loop
      vertex 3.4 -2.18968 4
      vertex 2.18968 -3.4 4
      vertex 3.75483 -3.86251 1.8235
    endloop
  endfacet
  facet normal 0.590497 -0.590497 0.550115
    outer loop
      vertex 3.81883 -3.81883 1.80168
      vertex 3.4 -2.18968 4
      vertex 3.77095 -3.85 1.81962
    endloop
  endfacet
  facet normal 0.590497 -0.590497 0.550115
    outer loop
      vertex 3.77095 -3.85 1.81962
      vertex 3.4 -2.18968 4
      vertex 3.75483 -3.86251 1.8235
    endloop
  endfacet
  facet normal 0.590497 -0.590497 0.550115
    outer loop
      vertex 3.85 -3.77095 1.81962
      vertex 3.4 -2.18968 4
      vertex 3.81883 -3.81883 1.80168
    endloop
  endfacet
  facet normal 0.590497 -0.590497 0.550115
    outer loop
      vertex 3.86251 -3.75483 1.8235
      vertex 3.4 -2.18968 4
      vertex 3.85 -3.77095 1.81962
    endloop
  endfacet
  facet normal 0.296676 -1.58728e-16 -0.954978
    outer loop
      vertex 3.86251 3.75483 1.8235
      vertex 3.86251 -3.75483 1.8235
      vertex 3.85 3.77095 1.81961
    endloop
  endfacet
  facet normal 0.296676 -1.68696e-16 -0.954978
    outer loop
      vertex 3.85 3.77095 1.81961
      vertex 3.86251 -3.75483 1.8235
      vertex 3.85 -3.77095 1.81962
    endloop
  endfacet
  facet normal 0.590497 0.590497 0.550115
    outer loop
      vertex 2.18968 3.4 4
      vertex 3.4 2.18968 4
      vertex 3.75483 3.86251 1.8235
    endloop
  endfacet
  facet normal 0.590497 0.590497 0.550115
    outer loop
      vertex 3.75483 3.86251 1.8235
      vertex 3.4 2.18968 4
      vertex 3.86251 3.75483 1.8235
    endloop
  endfacet
  facet normal 0.590497 0.590497 0.550115
    outer loop
      vertex 3.75483 3.86251 1.8235
      vertex 3.86251 3.75483 1.8235
      vertex 3.85 3.77095 1.81961
    endloop
  endfacet
  facet normal 0.590497 0.590497 0.550115
    outer loop
      vertex 3.77095 3.85 1.81962
      vertex 3.85 3.77095 1.81961
      vertex 3.81883 3.81883 1.80168
    endloop
  endfacet
  facet normal 0.590497 0.590497 0.550115
    outer loop
      vertex 3.75483 3.86251 1.8235
      vertex 3.85 3.77095 1.81961
      vertex 3.77095 3.85 1.81962
    endloop
  endfacet
  facet normal 1.58728e-16 0.296676 -0.954978
    outer loop
      vertex 3.75483 3.86251 1.8235
      vertex 3.77095 3.85 1.81962
      vertex -3.75483 3.86251 1.8235
    endloop
  endfacet
  facet normal 1.68708e-16 0.296676 -0.954978
    outer loop
      vertex -3.75483 3.86251 1.8235
      vertex 3.77095 3.85 1.81962
      vertex -3.77095 3.85 1.81961
    endloop
  endfacet
  facet normal -0.590497 0.590497 0.550115
    outer loop
      vertex -3.86251 3.75483 1.8235
      vertex -3.4 2.18968 4
      vertex -3.85 3.77095 1.81961
    endloop
  endfacet
  facet normal -0.590497 0.590497 0.550115
    outer loop
      vertex -3.85 3.77095 1.81961
      vertex -3.4 2.18968 4
      vertex -2.18968 3.4 4
    endloop
  endfacet
  facet normal -0.590497 0.590497 0.550115
    outer loop
      vertex -3.85 3.77095 1.81961
      vertex -2.18968 3.4 4
      vertex -3.75483 3.86251 1.8235
    endloop
  endfacet
  facet normal -0.590497 0.590497 0.550115
    outer loop
      vertex -3.85 3.77095 1.81961
      vertex -3.75483 3.86251 1.8235
      vertex -3.77095 3.85 1.81961
    endloop
  endfacet
  facet normal -0.590497 0.590497 0.550115
    outer loop
      vertex -3.85 3.77095 1.81961
      vertex -3.77095 3.85 1.81961
      vertex -3.81883 3.81883 1.80168
    endloop
  endfacet
  facet normal -0.296676 -1.68696e-16 -0.954978
    outer loop
      vertex -3.85 -3.77095 1.81962
      vertex -3.86251 -3.75483 1.8235
      vertex -3.85 3.77095 1.81961
    endloop
  endfacet
  facet normal -0.296676 -1.58752e-16 -0.954978
    outer loop
      vertex -3.85 3.77095 1.81961
      vertex -3.86251 -3.75483 1.8235
      vertex -3.86251 3.75483 1.8235
    endloop
  endfacet
  facet normal -0.978159 -2.71144e-17 0.207859
    outer loop
      vertex -3.86251 3.75483 1.8235
      vertex -3.86251 -3.75483 1.8235
      vertex -3.4 2.18968 4
    endloop
  endfacet
  facet normal -0.978159 0 0.207859
    outer loop
      vertex -3.4 2.18968 4
      vertex -3.86251 -3.75483 1.8235
      vertex -3.4 -2.18968 4
    endloop
  endfacet
  facet normal 0 -0 1
    outer loop
      vertex -3.4 2.18968 4
      vertex -3.4 -2.18968 4
      vertex -2.18968 -3.4 4
    endloop
  endfacet
  facet normal -0 0 1
    outer loop
      vertex 3.4 -2.18968 4
      vertex -3.4 2.18968 4
      vertex 2.18968 -3.4 4
    endloop
  endfacet
  facet normal -0 0 1
    outer loop
      vertex 2.18968 -3.4 4
      vertex -3.4 2.18968 4
      vertex -2.18968 -3.4 4
    endloop
  endfacet
  facet normal 0 0 1
    outer loop
      vertex 3.4 2.18968 4
      vertex -3.4 2.18968 4
      vertex 3.4 -2.18968 4
    endloop
  endfacet
  facet normal 0 -0 1
    outer loop
      vertex 2.18968 3.4 4
      vertex -3.4 2.18968 4
      vertex 3.4 2.18968 4
    endloop
  endfacet
  facet normal 0 -0 1
    outer loop
      vertex -2.18968 3.4 4
      vertex -3.4 2.18968 4
      vertex 2.18968 3.4 4
    endloop
  endfacet
  facet normal 2.65767e-17 -0.978159 0.207859
    outer loop
      vertex -2.18968 -3.4 4
      vertex -3.75483 -3.86251 1.8235
      vertex 3.75483 -3.86251 1.8235
    endloop
  endfacet
  facet normal 0 -0.978159 0.207859
    outer loop
      vertex 2.18968 -3.4 4
      vertex -2.18968 -3.4 4
      vertex 3.75483 -3.86251 1.8235
    endloop
  endfacet
  facet normal 0.978159 -0 0.207859
    outer loop
      vertex 3.4 2.18968 4
      vertex 3.4 -2.18968 4
      vertex 3.86251 -3.75483 1.8235
    endloop
  endfacet
  facet normal 0.978159 -2.71144e-17 0.207859
    outer loop
      vertex 3.86251 3.75483 1.8235
      vertex 3.4 2.18968 4
      vertex 3.86251 -3.75483 1.8235
    endloop
  endfacet
  facet normal 2.71144e-17 0.978159 0.207859
    outer loop
      vertex -3.75483 3.86251 1.8235
      vertex -2.18968 3.4 4
      vertex 3.75483 3.86251 1.8235
    endloop
  endfacet
  facet normal 0 0.978159 0.207859
    outer loop
      vertex 3.75483 3.86251 1.8235
      vertex -2.18968 3.4 4
      vertex 2.18968 3.4 4
    endloop
  endfacet
endsolid OpenSCAD_Model
