solid Default
  facet normal -0.000000e+00 1.224647e-16 1.000000e+00
    outer loop
      vertex -3.358230e+00 9.860640e-01 1.000000e+00
      vertex -3.358230e+00 -9.860640e-01 1.000000e+00
      vertex -2.292010e+00 2.645120e+00 1.000000e+00
    endloop
  endfacet
  facet normal 0.000000e+00 1.224647e-16 1.000000e+00
    outer loop
      vertex -2.292010e+00 2.645120e+00 1.000000e+00
      vertex -3.358230e+00 -9.860640e-01 1.000000e+00
      vertex -2.292010e+00 -2.645120e+00 1.000000e+00
    endloop
  endfacet
  facet normal 0.000000e+00 1.224647e-16 1.000000e+00
    outer loop
      vertex -1.801940e+00 -8.677670e-01 1.000000e+00
      vertex -2.292010e+00 -2.645120e+00 1.000000e+00
      vertex -4.981020e-01 -3.464370e+00 1.000000e+00
    endloop
  endfacet
  facet normal 0.000000e+00 1.224647e-16 1.000000e+00
    outer loop
      vertex -4.450420e-01 -1.949860e+00 1.000000e+00
      vertex -4.981020e-01 -3.464370e+00 1.000000e+00
      vertex 1.453950e+00 -3.183710e+00 1.000000e+00
    endloop
  endfacet
  facet normal 0.000000e+00 1.224647e-16 1.000000e+00
    outer loop
      vertex 1.246980e+00 -1.563660e+00 1.000000e+00
      vertex 1.453950e+00 -3.183710e+00 1.000000e+00
      vertex 2.944390e+00 -1.892240e+00 1.000000e+00
    endloop
  endfacet
  facet normal 0.000000e+00 1.224647e-16 1.000000e+00
    outer loop
      vertex 2.000000e+00 -4.286264e-16 1.000000e+00
      vertex 2.944390e+00 -1.892240e+00 1.000000e+00
      vertex 3.500000e+00 -4.286264e-16 1.000000e+00
    endloop
  endfacet
  facet normal 0.000000e+00 1.224647e-16 1.000000e+00
    outer loop
      vertex 1.246980e+00 1.563660e+00 1.000000e+00
      vertex 3.500000e+00 -4.286264e-16 1.000000e+00
      vertex 2.944390e+00 1.892240e+00 1.000000e+00
    endloop
  endfacet
  facet normal 0.000000e+00 1.224647e-16 1.000000e+00
    outer loop
      vertex -2.292010e+00 2.645120e+00 1.000000e+00
      vertex 2.944390e+00 1.892240e+00 1.000000e+00
      vertex 1.453950e+00 3.183710e+00 1.000000e+00
    endloop
  endfacet
  facet normal 0.000000e+00 1.224647e-16 1.000000e+00
    outer loop
      vertex -2.292010e+00 2.645120e+00 1.000000e+00
      vertex 1.453950e+00 3.183710e+00 1.000000e+00
      vertex -4.981020e-01 3.464370e+00 1.000000e+00
    endloop
  endfacet
  facet normal 0.000000e+00 1.224647e-16 1.000000e+00
    outer loop
      vertex -2.292010e+00 2.645120e+00 1.000000e+00
      vertex -2.292010e+00 -2.645120e+00 1.000000e+00
      vertex -1.801940e+00 -8.677670e-01 1.000000e+00
    endloop
  endfacet
  facet normal 0.000000e+00 1.224647e-16 1.000000e+00
    outer loop
      vertex -4.450420e-01 1.949860e+00 1.000000e+00
      vertex -2.292010e+00 2.645120e+00 1.000000e+00
      vertex -1.801940e+00 8.677670e-01 1.000000e+00
    endloop
  endfacet
  facet normal 0.000000e+00 1.224647e-16 1.000000e+00
    outer loop
      vertex -2.292010e+00 2.645120e+00 1.000000e+00
      vertex -1.801940e+00 -8.677670e-01 1.000000e+00
      vertex -1.801940e+00 8.677670e-01 1.000000e+00
    endloop
  endfacet
  facet normal 0.000000e+00 1.224647e-16 1.000000e+00
    outer loop
      vertex 2.000000e+00 -4.286264e-16 1.000000e+00
      vertex 3.500000e+00 -4.286264e-16 1.000000e+00
      vertex 1.246980e+00 1.563660e+00 1.000000e+00
    endloop
  endfacet
  facet normal 0.000000e+00 1.224647e-16 1.000000e+00
    outer loop
      vertex -2.292010e+00 2.645120e+00 1.000000e+00
      vertex -4.450420e-01 1.949860e+00 1.000000e+00
      vertex 2.944390e+00 1.892240e+00 1.000000e+00
    endloop
  endfacet
  facet normal 0.000000e+00 1.224647e-16 1.000000e+00
    outer loop
      vertex -4.450420e-01 1.949860e+00 1.000000e+00
      vertex 1.246980e+00 1.563660e+00 1.000000e+00
      vertex 2.944390e+00 1.892240e+00 1.000000e+00
    endloop
  endfacet
  facet normal 0.000000e+00 1.224647e-16 1.000000e+00
    outer loop
      vertex -1.801940e+00 -8.677670e-01 1.000000e+00
      vertex -4.981020e-01 -3.464370e+00 1.000000e+00
      vertex -4.450420e-01 -1.949860e+00 1.000000e+00
    endloop
  endfacet
  facet normal 0.000000e+00 1.224647e-16 1.000000e+00
    outer loop
      vertex -4.450420e-01 -1.949860e+00 1.000000e+00
      vertex 1.453950e+00 -3.183710e+00 1.000000e+00
      vertex 1.246980e+00 -1.563660e+00 1.000000e+00
    endloop
  endfacet
  facet normal 0.000000e+00 1.224647e-16 1.000000e+00
    outer loop
      vertex 1.246980e+00 -1.563660e+00 1.000000e+00
      vertex 2.944390e+00 -1.892240e+00 1.000000e+00
      vertex 2.000000e+00 -4.286264e-16 1.000000e+00
    endloop
  endfacet
  facet normal -1.000000e+00 0.000000e+00 0.000000e+00
    outer loop
      vertex -3.358230e+00 9.860640e-01 1.000000e+00
      vertex -3.358230e+00 9.860640e-01 0.000000e+00
      vertex -3.358230e+00 -9.860640e-01 1.000000e+00
    endloop
  endfacet
  facet normal -1.000000e+00 -0.000000e+00 0.000000e+00
    outer loop
      vertex -3.358230e+00 -9.860640e-01 1.000000e+00
      vertex -3.358230e+00 9.860640e-01 0.000000e+00
      vertex -3.358230e+00 -9.860640e-01 0.000000e+00
    endloop
  endfacet
  facet normal -8.412541e-01 5.406401e-01 -6.620931e-17
    outer loop
      vertex -3.358230e+00 9.860640e-01 1.000000e+00
      vertex -2.292010e+00 2.645120e+00 1.000000e+00
      vertex -3.358230e+00 9.860640e-01 0.000000e+00
    endloop
  endfacet
  facet normal -8.412541e-01 5.406401e-01 -6.620931e-17
    outer loop
      vertex -3.358230e+00 9.860640e-01 0.000000e+00
      vertex -2.292010e+00 2.645120e+00 1.000000e+00
      vertex -2.292010e+00 2.645120e+00 0.000000e+00
    endloop
  endfacet
  facet normal -4.154150e-01 9.096320e-01 -1.113978e-16
    outer loop
      vertex -2.292010e+00 2.645120e+00 0.000000e+00
      vertex -2.292010e+00 2.645120e+00 1.000000e+00
      vertex -4.981020e-01 3.464370e+00 1.000000e+00
    endloop
  endfacet
  facet normal -4.154150e-01 9.096320e-01 -1.113978e-16
    outer loop
      vertex -4.981020e-01 3.464370e+00 0.000000e+00
      vertex -2.292010e+00 2.645120e+00 0.000000e+00
      vertex -4.981020e-01 3.464370e+00 1.000000e+00
    endloop
  endfacet
  facet normal 1.423151e-01 9.898215e-01 -1.212182e-16
    outer loop
      vertex -4.981020e-01 3.464370e+00 0.000000e+00
      vertex -4.981020e-01 3.464370e+00 1.000000e+00
      vertex 1.453950e+00 3.183710e+00 1.000000e+00
    endloop
  endfacet
  facet normal 1.423151e-01 9.898215e-01 -1.212182e-16
    outer loop
      vertex 1.453950e+00 3.183710e+00 0.000000e+00
      vertex -4.981020e-01 3.464370e+00 0.000000e+00
      vertex 1.453950e+00 3.183710e+00 1.000000e+00
    endloop
  endfacet
  facet normal 6.548612e-01 7.557492e-01 -9.255258e-17
    outer loop
      vertex 1.453950e+00 3.183710e+00 0.000000e+00
      vertex 1.453950e+00 3.183710e+00 1.000000e+00
      vertex 2.944390e+00 1.892240e+00 1.000000e+00
    endloop
  endfacet
  facet normal 6.548612e-01 7.557492e-01 -9.255258e-17
    outer loop
      vertex 2.944390e+00 1.892240e+00 0.000000e+00
      vertex 1.453950e+00 3.183710e+00 0.000000e+00
      vertex 2.944390e+00 1.892240e+00 1.000000e+00
    endloop
  endfacet
  facet normal 9.594929e-01 2.817330e-01 -3.450234e-17
    outer loop
      vertex 2.944390e+00 1.892240e+00 0.000000e+00
      vertex 2.944390e+00 1.892240e+00 1.000000e+00
      vertex 3.500000e+00 -4.286264e-16 1.000000e+00
    endloop
  endfacet
  facet normal 9.594929e-01 2.817330e-01 -3.450234e-17
    outer loop
      vertex 3.500000e+00 -5.510911e-16 0.000000e+00
      vertex 2.944390e+00 1.892240e+00 0.000000e+00
      vertex 3.500000e+00 -4.286264e-16 1.000000e+00
    endloop
  endfacet
  facet normal 9.594929e-01 -2.817330e-01 3.450234e-17
    outer loop
      vertex 3.500000e+00 -4.286264e-16 1.000000e+00
      vertex 2.944390e+00 -1.892240e+00 1.000000e+00
      vertex 2.944390e+00 -1.892240e+00 0.000000e+00
    endloop
  endfacet
  facet normal 9.594929e-01 -2.817330e-01 3.450234e-17
    outer loop
      vertex 3.500000e+00 -5.510911e-16 0.000000e+00
      vertex 3.500000e+00 -4.286264e-16 1.000000e+00
      vertex 2.944390e+00 -1.892240e+00 0.000000e+00
    endloop
  endfacet
  facet normal 6.548612e-01 -7.557492e-01 9.255258e-17
    outer loop
      vertex 1.453950e+00 -3.183710e+00 1.000000e+00
      vertex 1.453950e+00 -3.183710e+00 0.000000e+00
      vertex 2.944390e+00 -1.892240e+00 1.000000e+00
    endloop
  endfacet
  facet normal 6.548612e-01 -7.557492e-01 9.255258e-17
    outer loop
      vertex 2.944390e+00 -1.892240e+00 1.000000e+00
      vertex 1.453950e+00 -3.183710e+00 0.000000e+00
      vertex 2.944390e+00 -1.892240e+00 0.000000e+00
    endloop
  endfacet
  facet normal 1.423151e-01 -9.898215e-01 1.212182e-16
    outer loop
      vertex -4.981020e-01 -3.464370e+00 1.000000e+00
      vertex -4.981020e-01 -3.464370e+00 0.000000e+00
      vertex 1.453950e+00 -3.183710e+00 1.000000e+00
    endloop
  endfacet
  facet normal 1.423151e-01 -9.898215e-01 1.212182e-16
    outer loop
      vertex 1.453950e+00 -3.183710e+00 1.000000e+00
      vertex -4.981020e-01 -3.464370e+00 0.000000e+00
      vertex 1.453950e+00 -3.183710e+00 0.000000e+00
    endloop
  endfacet
  facet normal -4.154150e-01 -9.096320e-01 1.113978e-16
    outer loop
      vertex -2.292010e+00 -2.645120e+00 1.000000e+00
      vertex -2.292010e+00 -2.645120e+00 0.000000e+00
      vertex -4.981020e-01 -3.464370e+00 1.000000e+00
    endloop
  endfacet
  facet normal -4.154150e-01 -9.096320e-01 1.113978e-16
    outer loop
      vertex -4.981020e-01 -3.464370e+00 1.000000e+00
      vertex -2.292010e+00 -2.645120e+00 0.000000e+00
      vertex -4.981020e-01 -3.464370e+00 0.000000e+00
    endloop
  endfacet
  facet normal -8.412541e-01 -5.406401e-01 6.620931e-17
    outer loop
      vertex -3.358230e+00 -9.860640e-01 1.000000e+00
      vertex -3.358230e+00 -9.860640e-01 0.000000e+00
      vertex -2.292010e+00 -2.645120e+00 1.000000e+00
    endloop
  endfacet
  facet normal -8.412541e-01 -5.406401e-01 6.620931e-17
    outer loop
      vertex -2.292010e+00 -2.645120e+00 1.000000e+00
      vertex -3.358230e+00 -9.860640e-01 0.000000e+00
      vertex -2.292010e+00 -2.645120e+00 0.000000e+00
    endloop
  endfacet
  facet normal -6.234901e-01 -7.818312e-01 9.574671e-17
    outer loop
      vertex -1.801940e+00 -8.677670e-01 8.500000e+00
      vertex -1.801940e+00 -8.677670e-01 1.000000e+00
      vertex -4.450420e-01 -1.949860e+00 8.500000e+00
    endloop
  endfacet
  facet normal -6.234901e-01 -7.818312e-01 9.574671e-17
    outer loop
      vertex -4.450420e-01 -1.949860e+00 8.500000e+00
      vertex -1.801940e+00 -8.677670e-01 1.000000e+00
      vertex -4.450420e-01 -1.949860e+00 1.000000e+00
    endloop
  endfacet
  facet normal -1.000000e+00 0.000000e+00 0.000000e+00
    outer loop
      vertex -1.801940e+00 8.677670e-01 8.500000e+00
      vertex -1.801940e+00 8.677670e-01 1.000000e+00
      vertex -1.801940e+00 -8.677670e-01 8.500000e+00
    endloop
  endfacet
  facet normal -1.000000e+00 -0.000000e+00 0.000000e+00
    outer loop
      vertex -1.801940e+00 -8.677670e-01 8.500000e+00
      vertex -1.801940e+00 8.677670e-01 1.000000e+00
      vertex -1.801940e+00 -8.677670e-01 1.000000e+00
    endloop
  endfacet
  facet normal 2.225210e-01 -9.749279e-01 1.193942e-16
    outer loop
      vertex -4.450420e-01 -1.949860e+00 8.500000e+00
      vertex -4.450420e-01 -1.949860e+00 1.000000e+00
      vertex 1.246980e+00 -1.563660e+00 8.500000e+00
    endloop
  endfacet
  facet normal 2.225210e-01 -9.749279e-01 1.193942e-16
    outer loop
      vertex 1.246980e+00 -1.563660e+00 8.500000e+00
      vertex -4.450420e-01 -1.949860e+00 1.000000e+00
      vertex 1.246980e+00 -1.563660e+00 1.000000e+00
    endloop
  endfacet
  facet normal 9.009688e-01 -4.338839e-01 5.313545e-17
    outer loop
      vertex 2.000000e+00 4.898587e-16 8.500000e+00
      vertex 1.246980e+00 -1.563660e+00 8.500000e+00
      vertex 1.246980e+00 -1.563660e+00 1.000000e+00
    endloop
  endfacet
  facet normal 9.009688e-01 -4.338839e-01 5.313545e-17
    outer loop
      vertex 2.000000e+00 -4.286264e-16 1.000000e+00
      vertex 2.000000e+00 4.898587e-16 8.500000e+00
      vertex 1.246980e+00 -1.563660e+00 1.000000e+00
    endloop
  endfacet
  facet normal 9.009688e-01 4.338839e-01 -5.313545e-17
    outer loop
      vertex 1.246980e+00 1.563660e+00 1.000000e+00
      vertex 1.246980e+00 1.563660e+00 8.500000e+00
      vertex 2.000000e+00 4.898587e-16 8.500000e+00
    endloop
  endfacet
  facet normal 9.009688e-01 4.338839e-01 -5.313545e-17
    outer loop
      vertex 2.000000e+00 -4.286264e-16 1.000000e+00
      vertex 1.246980e+00 1.563660e+00 1.000000e+00
      vertex 2.000000e+00 4.898587e-16 8.500000e+00
    endloop
  endfacet
  facet normal 2.225210e-01 9.749279e-01 -1.193942e-16
    outer loop
      vertex -4.450420e-01 1.949860e+00 1.000000e+00
      vertex -4.450420e-01 1.949860e+00 8.500000e+00
      vertex 1.246980e+00 1.563660e+00 8.500000e+00
    endloop
  endfacet
  facet normal 2.225210e-01 9.749279e-01 -1.193942e-16
    outer loop
      vertex 1.246980e+00 1.563660e+00 1.000000e+00
      vertex -4.450420e-01 1.949860e+00 1.000000e+00
      vertex 1.246980e+00 1.563660e+00 8.500000e+00
    endloop
  endfacet
  facet normal -6.234901e-01 7.818312e-01 -9.574671e-17
    outer loop
      vertex -1.801940e+00 8.677670e-01 1.000000e+00
      vertex -1.801940e+00 8.677670e-01 8.500000e+00
      vertex -4.450420e-01 1.949860e+00 8.500000e+00
    endloop
  endfacet
  facet normal -6.234901e-01 7.818312e-01 -9.574671e-17
    outer loop
      vertex -4.450420e-01 1.949860e+00 1.000000e+00
      vertex -1.801940e+00 8.677670e-01 1.000000e+00
      vertex -4.450420e-01 1.949860e+00 8.500000e+00
    endloop
  endfacet
  facet normal 0.000000e+00 -1.224647e-16 -1.000000e+00
    outer loop
      vertex -3.358230e+00 -9.860640e-01 0.000000e+00
      vertex -3.358230e+00 9.860640e-01 0.000000e+00
      vertex -2.292010e+00 2.645120e+00 0.000000e+00
    endloop
  endfacet
  facet normal 0.000000e+00 -1.224647e-16 -1.000000e+00
    outer loop
      vertex 1.453950e+00 3.183710e+00 0.000000e+00
      vertex -3.358230e+00 -9.860640e-01 0.000000e+00
      vertex -4.981020e-01 3.464370e+00 0.000000e+00
    endloop
  endfacet
  facet normal 0.000000e+00 -1.224647e-16 -1.000000e+00
    outer loop
      vertex -4.981020e-01 3.464370e+00 0.000000e+00
      vertex -3.358230e+00 -9.860640e-01 0.000000e+00
      vertex -2.292010e+00 2.645120e+00 0.000000e+00
    endloop
  endfacet
  facet normal 0.000000e+00 -1.224647e-16 -1.000000e+00
    outer loop
      vertex -1.081160e+00 5.206600e-01 0.000000e+00
      vertex -3.358230e+00 -9.860640e-01 0.000000e+00
      vertex 1.453950e+00 3.183710e+00 0.000000e+00
    endloop
  endfacet
  facet normal 0.000000e+00 -1.224647e-16 -1.000000e+00
    outer loop
      vertex 1.200000e+00 -5.510911e-16 0.000000e+00
      vertex 7.481880e-01 9.381980e-01 0.000000e+00
      vertex 2.944390e+00 1.892240e+00 0.000000e+00
    endloop
  endfacet
  facet normal 0.000000e+00 -1.224647e-16 -1.000000e+00
    outer loop
      vertex 1.453950e+00 -3.183710e+00 0.000000e+00
      vertex -3.358230e+00 -9.860640e-01 0.000000e+00
      vertex 2.944390e+00 -1.892240e+00 0.000000e+00
    endloop
  endfacet
  facet normal 0.000000e+00 -1.224647e-16 -1.000000e+00
    outer loop
      vertex -4.981020e-01 -3.464370e+00 0.000000e+00
      vertex -3.358230e+00 -9.860640e-01 0.000000e+00
      vertex 1.453950e+00 -3.183710e+00 0.000000e+00
    endloop
  endfacet
  facet normal 0.000000e+00 -1.224647e-16 -1.000000e+00
    outer loop
      vertex -2.292010e+00 -2.645120e+00 0.000000e+00
      vertex -3.358230e+00 -9.860640e-01 0.000000e+00
      vertex -4.981020e-01 -3.464370e+00 0.000000e+00
    endloop
  endfacet
  facet normal 0.000000e+00 -1.224647e-16 -1.000000e+00
    outer loop
      vertex -2.670250e-01 1.169910e+00 0.000000e+00
      vertex -1.081160e+00 5.206600e-01 0.000000e+00
      vertex 1.453950e+00 3.183710e+00 0.000000e+00
    endloop
  endfacet
  facet normal 0.000000e+00 -1.224647e-16 -1.000000e+00
    outer loop
      vertex 7.481880e-01 -9.381980e-01 0.000000e+00
      vertex 1.200000e+00 -5.510911e-16 0.000000e+00
      vertex 3.500000e+00 -5.510911e-16 0.000000e+00
    endloop
  endfacet
  facet normal 0.000000e+00 -1.224647e-16 -1.000000e+00
    outer loop
      vertex 7.481880e-01 9.381980e-01 0.000000e+00
      vertex -2.670250e-01 1.169910e+00 0.000000e+00
      vertex 2.944390e+00 1.892240e+00 0.000000e+00
    endloop
  endfacet
  facet normal 0.000000e+00 -1.224647e-16 -1.000000e+00
    outer loop
      vertex 2.944390e+00 -1.892240e+00 0.000000e+00
      vertex -3.358230e+00 -9.860640e-01 0.000000e+00
      vertex -2.670250e-01 -1.169910e+00 0.000000e+00
    endloop
  endfacet
  facet normal 0.000000e+00 -1.224647e-16 -1.000000e+00
    outer loop
      vertex 2.944390e+00 -1.892240e+00 0.000000e+00
      vertex 7.481880e-01 -9.381980e-01 0.000000e+00
      vertex 3.500000e+00 -5.510911e-16 0.000000e+00
    endloop
  endfacet
  facet normal 0.000000e+00 -1.224647e-16 -1.000000e+00
    outer loop
      vertex 2.944390e+00 -1.892240e+00 0.000000e+00
      vertex -2.670250e-01 -1.169910e+00 0.000000e+00
      vertex 7.481880e-01 -9.381980e-01 0.000000e+00
    endloop
  endfacet
  facet normal 0.000000e+00 -1.224647e-16 -1.000000e+00
    outer loop
      vertex 3.500000e+00 -5.510911e-16 0.000000e+00
      vertex 1.200000e+00 -5.510911e-16 0.000000e+00
      vertex 2.944390e+00 1.892240e+00 0.000000e+00
    endloop
  endfacet
  facet normal 0.000000e+00 -1.224647e-16 -1.000000e+00
    outer loop
      vertex -1.081160e+00 -5.206600e-01 0.000000e+00
      vertex -2.670250e-01 -1.169910e+00 0.000000e+00
      vertex -3.358230e+00 -9.860640e-01 0.000000e+00
    endloop
  endfacet
  facet normal 0.000000e+00 -1.224647e-16 -1.000000e+00
    outer loop
      vertex 2.944390e+00 1.892240e+00 0.000000e+00
      vertex -2.670250e-01 1.169910e+00 0.000000e+00
      vertex 1.453950e+00 3.183710e+00 0.000000e+00
    endloop
  endfacet
  facet normal 0.000000e+00 -1.224647e-16 -1.000000e+00
    outer loop
      vertex -1.081160e+00 5.206600e-01 0.000000e+00
      vertex -1.081160e+00 -5.206600e-01 0.000000e+00
      vertex -3.358230e+00 -9.860640e-01 0.000000e+00
    endloop
  endfacet
  facet normal -0.000000e+00 1.224647e-16 1.000000e+00
    outer loop
      vertex -1.801940e+00 8.677670e-01 8.500000e+00
      vertex -1.801940e+00 -8.677670e-01 8.500000e+00
      vertex -4.450420e-01 1.949860e+00 8.500000e+00
    endloop
  endfacet
  facet normal 0.000000e+00 1.224647e-16 1.000000e+00
    outer loop
      vertex -1.081160e+00 -5.206600e-01 8.500000e+00
      vertex -1.801940e+00 -8.677670e-01 8.500000e+00
      vertex -4.450420e-01 -1.949860e+00 8.500000e+00
    endloop
  endfacet
  facet normal 0.000000e+00 1.224647e-16 1.000000e+00
    outer loop
      vertex 7.481880e-01 -9.381980e-01 8.500000e+00
      vertex -4.450420e-01 -1.949860e+00 8.500000e+00
      vertex 1.246980e+00 -1.563660e+00 8.500000e+00
    endloop
  endfacet
  facet normal 0.000000e+00 1.224647e-16 1.000000e+00
    outer loop
      vertex 1.200000e+00 4.898587e-16 8.500000e+00
      vertex 1.246980e+00 -1.563660e+00 8.500000e+00
      vertex 2.000000e+00 4.898587e-16 8.500000e+00
    endloop
  endfacet
  facet normal 0.000000e+00 1.224647e-16 1.000000e+00
    outer loop
      vertex -4.450420e-01 1.949860e+00 8.500000e+00
      vertex 2.000000e+00 4.898587e-16 8.500000e+00
      vertex 1.246980e+00 1.563660e+00 8.500000e+00
    endloop
  endfacet
  facet normal 0.000000e+00 1.224647e-16 1.000000e+00
    outer loop
      vertex -1.081160e+00 5.206600e-01 8.500000e+00
      vertex -1.801940e+00 -8.677670e-01 8.500000e+00
      vertex -1.081160e+00 -5.206600e-01 8.500000e+00
    endloop
  endfacet
  facet normal 0.000000e+00 1.224647e-16 1.000000e+00
    outer loop
      vertex -2.670250e-01 1.169910e+00 8.500000e+00
      vertex -4.450420e-01 1.949860e+00 8.500000e+00
      vertex -1.081160e+00 5.206600e-01 8.500000e+00
    endloop
  endfacet
  facet normal 0.000000e+00 1.224647e-16 1.000000e+00
    outer loop
      vertex -4.450420e-01 1.949860e+00 8.500000e+00
      vertex -1.801940e+00 -8.677670e-01 8.500000e+00
      vertex -1.081160e+00 5.206600e-01 8.500000e+00
    endloop
  endfacet
  facet normal 0.000000e+00 1.224647e-16 1.000000e+00
    outer loop
      vertex 7.481880e-01 -9.381980e-01 8.500000e+00
      vertex 1.246980e+00 -1.563660e+00 8.500000e+00
      vertex 1.200000e+00 4.898587e-16 8.500000e+00
    endloop
  endfacet
  facet normal 0.000000e+00 1.224647e-16 1.000000e+00
    outer loop
      vertex -4.450420e-01 1.949860e+00 8.500000e+00
      vertex 7.481880e-01 9.381980e-01 8.500000e+00
      vertex 2.000000e+00 4.898587e-16 8.500000e+00
    endloop
  endfacet
  facet normal 0.000000e+00 1.224647e-16 1.000000e+00
    outer loop
      vertex 7.481880e-01 9.381980e-01 8.500000e+00
      vertex 1.200000e+00 4.898587e-16 8.500000e+00
      vertex 2.000000e+00 4.898587e-16 8.500000e+00
    endloop
  endfacet
  facet normal -0.000000e+00 1.224647e-16 1.000000e+00
    outer loop
      vertex -2.670250e-01 -1.169910e+00 8.500000e+00
      vertex -4.450420e-01 -1.949860e+00 8.500000e+00
      vertex 7.481880e-01 -9.381980e-01 8.500000e+00
    endloop
  endfacet
  facet normal 0.000000e+00 1.224647e-16 1.000000e+00
    outer loop
      vertex -1.081160e+00 -5.206600e-01 8.500000e+00
      vertex -4.450420e-01 -1.949860e+00 8.500000e+00
      vertex -2.670250e-01 -1.169910e+00 8.500000e+00
    endloop
  endfacet
  facet normal 0.000000e+00 1.224647e-16 1.000000e+00
    outer loop
      vertex 7.481880e-01 9.381980e-01 8.500000e+00
      vertex -4.450420e-01 1.949860e+00 8.500000e+00
      vertex -2.670250e-01 1.169910e+00 8.500000e+00
    endloop
  endfacet
  facet normal 6.234897e-01 -7.818316e-01 9.574676e-17
    outer loop
      vertex -2.670250e-01 1.169910e+00 0.000000e+00
      vertex -2.670250e-01 1.169910e+00 8.500000e+00
      vertex -1.081160e+00 5.206600e-01 0.000000e+00
    endloop
  endfacet
  facet normal 6.234897e-01 -7.818316e-01 9.574676e-17
    outer loop
      vertex -1.081160e+00 5.206600e-01 0.000000e+00
      vertex -2.670250e-01 1.169910e+00 8.500000e+00
      vertex -1.081160e+00 5.206600e-01 8.500000e+00
    endloop
  endfacet
  facet normal 1.000000e+00 0.000000e+00 0.000000e+00
    outer loop
      vertex -1.081160e+00 -5.206600e-01 8.500000e+00
      vertex -1.081160e+00 -5.206600e-01 0.000000e+00
      vertex -1.081160e+00 5.206600e-01 0.000000e+00
    endloop
  endfacet
  facet normal 1.000000e+00 0.000000e+00 0.000000e+00
    outer loop
      vertex -1.081160e+00 5.206600e-01 8.500000e+00
      vertex -1.081160e+00 -5.206600e-01 8.500000e+00
      vertex -1.081160e+00 5.206600e-01 0.000000e+00
    endloop
  endfacet
  facet normal -2.225200e-01 -9.749281e-01 1.193943e-16
    outer loop
      vertex 7.481880e-01 9.381980e-01 0.000000e+00
      vertex 7.481880e-01 9.381980e-01 8.500000e+00
      vertex -2.670250e-01 1.169910e+00 0.000000e+00
    endloop
  endfacet
  facet normal -2.225200e-01 -9.749281e-01 1.193943e-16
    outer loop
      vertex -2.670250e-01 1.169910e+00 0.000000e+00
      vertex 7.481880e-01 9.381980e-01 8.500000e+00
      vertex -2.670250e-01 1.169910e+00 8.500000e+00
    endloop
  endfacet
  facet normal -9.009693e-01 -4.338831e-01 5.313536e-17
    outer loop
      vertex 1.200000e+00 -5.510911e-16 0.000000e+00
      vertex 1.200000e+00 4.898587e-16 8.500000e+00
      vertex 7.481880e-01 9.381980e-01 0.000000e+00
    endloop
  endfacet
  facet normal -9.009693e-01 -4.338831e-01 5.313536e-17
    outer loop
      vertex 7.481880e-01 9.381980e-01 0.000000e+00
      vertex 1.200000e+00 4.898587e-16 8.500000e+00
      vertex 7.481880e-01 9.381980e-01 8.500000e+00
    endloop
  endfacet
  facet normal -9.009693e-01 4.338831e-01 -5.313536e-17
    outer loop
      vertex 1.200000e+00 -5.510911e-16 0.000000e+00
      vertex 7.481880e-01 -9.381980e-01 0.000000e+00
      vertex 1.200000e+00 4.898587e-16 8.500000e+00
    endloop
  endfacet
  facet normal -9.009693e-01 4.338831e-01 -5.313536e-17
    outer loop
      vertex 1.200000e+00 4.898587e-16 8.500000e+00
      vertex 7.481880e-01 -9.381980e-01 0.000000e+00
      vertex 7.481880e-01 -9.381980e-01 8.500000e+00
    endloop
  endfacet
  facet normal -2.225200e-01 9.749281e-01 -1.193943e-16
    outer loop
      vertex 7.481880e-01 -9.381980e-01 8.500000e+00
      vertex 7.481880e-01 -9.381980e-01 0.000000e+00
      vertex -2.670250e-01 -1.169910e+00 0.000000e+00
    endloop
  endfacet
  facet normal -2.225200e-01 9.749281e-01 -1.193943e-16
    outer loop
      vertex -2.670250e-01 -1.169910e+00 8.500000e+00
      vertex 7.481880e-01 -9.381980e-01 8.500000e+00
      vertex -2.670250e-01 -1.169910e+00 0.000000e+00
    endloop
  endfacet
  facet normal 6.234897e-01 7.818316e-01 -9.574676e-17
    outer loop
      vertex -2.670250e-01 -1.169910e+00 8.500000e+00
      vertex -2.670250e-01 -1.169910e+00 0.000000e+00
      vertex -1.081160e+00 -5.206600e-01 0.000000e+00
    endloop
  endfacet
  facet normal 6.234897e-01 7.818316e-01 -9.574676e-17
    outer loop
      vertex -1.081160e+00 -5.206600e-01 8.500000e+00
      vertex -2.670250e-01 -1.169910e+00 8.500000e+00
      vertex -1.081160e+00 -5.206600e-01 0.000000e+00
    endloop
  endfacet
endsolid Default
